<?xml version="1.0" encoding="utf-8"?>
<!-- Generator: Adobe Illustrator 24.2.3, SVG Export Plug-In . SVG Version: 6.00 Build 0)  -->
<svg version="1.1" id="Capa_1" xmlns="http://www.w3.org/2000/svg" xmlns:xlink="http://www.w3.org/1999/xlink" x="0px" y="0px"
	 viewBox="0 0 512 512" style="enable-background:new 0 0 512 512;" xml:space="preserve">
<style type="text/css">
	.st0{fill:#BF4A55;}
	.st1{fill:#BA333E;}
	.st2{fill:#F9F8F8;}
	.st3{fill:#EDE8E5;}
	.st4{fill:none;stroke:#000000;stroke-width:14;stroke-miterlimit:10;}
</style>
<g>
	<g>
		<path class="st0" d="M282,486.4c-1.4,2.5-4.6,8.4-11.1,12.8c-2.9,2-7.8,5.3-14.8,5.3s-11.9-3.4-14.8-5.3
			c-6.2-4.2-9.5-9.7-11.1-12.8c-15.9-37.5-31.9-75-47.8-112.4c-1.2-2-3.1-4.5-6-7c-2.2-1.9-4.3-3.1-6-4
			C105.4,325.6,65.9,258.1,68.6,188.2C72.4,93.7,153,7.5,256,7.5c103.9,0,184.9,87.7,187.4,182.7c1.8,69.5-38.5,136.2-103.7,172.7
			c-1.5,0.9-3.2,2.2-5,4c-2.5,2.5-4,5.1-5,7C323.3,390.4,284.8,481,282,486.4L282,486.4z"/>
		<path class="st1" d="M266.6,501.8c-2.8,1.5-6.3,2.7-10.6,2.7c-7,0-11.9-3.4-14.8-5.3c-6.2-4.2-9.5-9.7-11.1-12.8
			c-15.9-37.5-31.9-75-47.8-112.4c-1.2-2-3.1-4.5-6-7c-2.2-1.9-4.3-3.1-6-4C105.4,325.6,65.9,258.1,68.6,188.2
			c2.8-71.2,49.2-137.6,116-166.1c-55.9,32.3-93.4,92.3-96,156.1c-2.8,69.9,36.8,137.4,101.7,174.7c1.7,0.9,3.8,2.2,6,4
			c2.9,2.5,4.8,5.1,6,7c15.9,37.5,37.9,88,53.9,125.4C257.7,492.4,260.8,497.6,266.6,501.8L266.6,501.8z"/>
		<circle class="st2" cx="256.5" cy="195.5" r="147"/>
		<path class="st3" d="M370,289c-27,32.7-67.8,53.5-113.5,53.5c-81.2,0-147-65.8-147-147c0-45.7,20.8-86.5,53.5-113.5
			c-20.9,25.4-33.5,58-33.5,93.5c0,81.2,65.8,147,147,147C312,322.5,344.6,309.9,370,289z"/>
	</g>
</g>
<g>
	<circle class="st4" cx="256.5" cy="195.5" r="147"/>
	<path class="st4" d="M256,504.5c0,0,18.2,0,27.7-21.9c9.5-21.9,46.1-108.7,46.1-108.7s3.5-6.4,9.7-10.9s22.9-11.4,47.7-36.3
		c24.8-24.8,46.6-61.9,53.5-101.4c6.9-39.5,5.1-98.2-51.1-160.2s-148-66.3-199.8-45.3S80.9,96,70.8,167.2S92.5,293.3,127,330.1
		c0,0,25.3,23.9,44.1,33.3c9.2,6.4,8.4,4.1,21.8,35.6c13.4,31.5,30.5,71.6,30.5,71.6S232.8,504.5,256,504.5z"/>
</g>
</svg>
