<?xml version="1.0" encoding="utf-8"?>
<!-- Generator: Adobe Illustrator 24.2.3, SVG Export Plug-In . SVG Version: 6.00 Build 0)  -->
<svg version="1.1" id="Capa_1" xmlns="http://www.w3.org/2000/svg" xmlns:xlink="http://www.w3.org/1999/xlink" x="0px" y="0px"
	 viewBox="0 0 512 512" style="enable-background:new 0 0 512 512;" xml:space="preserve">
<style type="text/css">
	.st0{fill:#4A62BC;}
	.st1{fill:#344DB7;}
	.st2{fill:#F9F8F8;}
	.st3{fill:#EDE8E5;}
	.st4{fill:none;stroke:#000000;stroke-width:14;stroke-miterlimit:10;}
	.st5{display:none;}
	.st6{display:inline;}
	.st7{fill-rule:evenodd;clip-rule:evenodd;fill:#FFFFFF;}
	.st8{fill-rule:evenodd;clip-rule:evenodd;fill:#6D91AC;}
	.st9{fill-rule:evenodd;clip-rule:evenodd;fill:#A7BDCD;}
</style>
<g>
	<g>
		<path class="st0" d="M282,486.4c-1.4,2.5-4.6,8.4-11.1,12.8c-2.9,2-7.8,5.3-14.8,5.3s-11.9-3.4-14.8-5.3
			c-6.2-4.2-9.5-9.7-11.1-12.8c-15.9-37.5-31.9-75-47.8-112.4c-1.2-2-3.1-4.5-6-7c-2.2-1.9-4.3-3.1-6-4
			c-65-37.4-104.5-104.9-101.8-174.8C72.4,93.7,153,7.5,256,7.5c103.9,0,184.9,87.7,187.4,182.7c1.8,69.5-38.5,136.2-103.7,172.7
			c-1.5,0.9-3.2,2.2-5,4c-2.5,2.5-4,5.1-5,7C323.3,390.4,284.8,481,282,486.4L282,486.4z"/>
		<path class="st1" d="M266.6,501.8c-2.8,1.5-6.3,2.7-10.6,2.7c-7,0-11.9-3.4-14.8-5.3c-6.2-4.2-9.5-9.7-11.1-12.8
			c-15.9-37.5-31.9-75-47.8-112.4c-1.2-2-3.1-4.5-6-7c-2.2-1.9-4.3-3.1-6-4C105.4,325.6,65.9,258.1,68.6,188.2
			c2.8-71.2,49.2-137.6,116-166.1c-55.9,32.3-93.4,92.3-96,156.1c-2.8,69.9,36.8,137.4,101.7,174.7c1.7,0.9,3.8,2.2,6,4
			c2.9,2.5,4.8,5.1,6,7c15.9,37.5,37.9,88,53.9,125.4C257.7,492.4,260.8,497.6,266.6,501.8L266.6,501.8z"/>
		<circle class="st2" cx="256.5" cy="195.5" r="147"/>
		<path class="st3" d="M370,289c-27,32.7-67.8,53.5-113.5,53.5c-81.2,0-147-65.8-147-147c0-45.7,20.8-86.5,53.5-113.5
			c-20.9,25.4-33.5,58-33.5,93.5c0,81.2,65.8,147,147,147C312,322.5,344.6,309.9,370,289z"/>
	</g>
</g>
<g>
	<circle class="st4" cx="256.5" cy="195.5" r="147"/>
	<path class="st4" d="M256,504.5c0,0,18.2,0,27.7-21.9s46.1-108.7,46.1-108.7s3.5-6.4,9.7-10.9s22.9-11.4,47.7-36.3
		c24.8-24.8,46.6-61.9,53.5-101.4s5.1-98.2-51.1-160.2s-148-66.3-199.8-45.3S80.9,96,70.8,167.2S92.5,293.3,127,330.1
		c0,0,25.3,23.9,44.1,33.3c9.2,6.4,8.4,4.1,21.8,35.6c13.4,31.5,30.5,71.6,30.5,71.6S232.8,504.5,256,504.5z"/>
</g>
<g class="st5">
	<path class="st6" d="M352,227.4c0-10.8-7.7-19.9-17.9-22v-24.2c0-2.2-1.1-4.3-2.8-5.5c-1.9-1.2-4.2-1.5-6.2-0.8l-12.8,4.8
		c-8.4-8.8-18.6-15.3-29.9-19.4c11.1-8.2,18.2-21.2,18.2-36c0-24.7-20.1-44.8-44.8-44.8s-44.8,20.1-44.8,44.8
		c0,14.8,7.1,27.8,18.2,36c-11.3,4-21.4,10.6-29.9,19.4l-12.8-4.8c-2.1-0.8-4.4-0.4-6.2,0.8c-1.9,1.2-2.8,3.3-2.8,5.5v24.2
		c-10.2,2.1-17.9,11.2-17.9,22c0,10.8,7.7,19.9,17.9,22v25.9c0,2.8,1.8,5.4,4.4,6.2l71.7,26.9c1.5,0.5,3.2,0.5,4.7,0l71.7-26.9
		c2.6-1,4.4-3.5,4.4-6.2v-25.9C344.2,247.2,352,238.1,352,227.4z M224.3,124.3c0-17.3,14.1-31.4,31.4-31.4s31.4,14.1,31.4,31.4
		s-14.1,31.4-31.4,31.4S224.3,141.6,224.3,124.3z M255.7,169c15.8,0,30.8,5.7,42.5,15.9l-42.5,16l-42.5-16
		C224.8,174.7,239.9,169,255.7,169L255.7,169z M172.8,227.4c0-4.9,4-9,9-9h4.5v17.9h-4.5C176.8,236.2,172.8,232.3,172.8,227.4z
		 M190.7,249.5c5.1-1.1,9-5.6,9-10.9v-22.4c0-5.4-3.8-10-9-10.9v-14.2l58.2,21.9v79.7l-58.2-21.9V249.5z M262.4,292.5v-79.7
		l58.2-21.9v14.2c-5.1,1.1-9,5.6-9,10.9v22.4c0,5.4,3.8,10,9,10.9v21.1L262.4,292.5z M329.6,236.2h-4.5v-17.9h4.5c4.9,0,9,4,9,9
		C338.5,232.3,334.5,236.2,329.6,236.2z"/>
</g>
<g>
	<g>
		<path class="st7" d="M270.1,156.3c0-4.5-3.6-8.1-8.1-8.1h-51.1h-30c-4.5,0-8.1,3.6-8.1,8.1v8.1h36.6h60.7V156.3z"/>
		<path class="st7" d="M309.6,196.9H206.2c-5,0-9.1,4.1-9.1,9.1s4.1,9.1,9.1,9.1h16.2h71h16.2c5,0,9.1-4.1,9.1-9.1
			C318.8,201,314.6,196.9,309.6,196.9z"/>
		<path class="st8" d="M222.5,231.3v-16.2h-16.2v77c0,2.2,1.8,4.1,4.1,4.1h8.1c2.2,0,4.1-1.8,4.1-4.1V231.3z"/>
		<path class="st9" d="M222.5,215.1h71v16.2h-71V215.1z"/>
		<path class="st8" d="M293.4,231.3v60.8c0,2.2,1.8,4.1,4.1,4.1h8.1c2.2,0,4.1-1.8,4.1-4.1v-77h-16.2V231.3z"/>
		<path class="st9" d="M214.4,164.4h16.2v32.4h-16.2V164.4z"/>
		<path class="st9" d="M285.3,156.3h16.2v40.6h-16.2V156.3z"/>
		<path class="st8" d="M270.1,156.3h15.2h16.2c4.5,0,8.5-3.7,8.1-8.1l-4.1-43.4c-0.4-4.4-3.6-8.1-8.1-8.1h-79.1
			c-4.5,0-7.7,3.7-8.1,8.1l-4.1,43.4H262C266.4,148.2,270.1,151.8,270.1,156.3z"/>
	</g>
	<g>
		<path d="M322.8,206c0-7.3-5.9-13.2-13.2-13.2h-4.1v-33.1c2-0.7,3.8-1.8,5.2-3.4c2.2-2.4,3.2-5.4,2.9-8.5l-4.1-43.4
			c-0.6-6.7-5.9-11.8-12.1-11.8h-79.1c-6.3,0-11.5,5.1-12.1,11.8l-3.7,39.7h-21.6c-6.7,0-12.2,5.5-12.2,12.2v8.1v34
			c0,11.5,9.3,20.8,20.8,20.8h12.7v73c0,4.5,3.6,8.1,8.1,8.1h8.1c4.5,0,8.1-3.6,8.1-8.1v-56.8h62.9h0v56.8c0,4.5,3.6,8.1,8.1,8.1
			h8.1c4.5,0,8.1-3.6,8.1-8.1v-73.6C319,216.8,322.8,211.8,322.8,206L322.8,206z M289.4,192.8v-32.4h8.1v32.4H289.4z M226.5,168.5
			v24.3h-8.1v-24.3H226.5z M234.6,168.5h35.4c2.2,0,4.1-1.8,4.1-4.1v-4.1h7.1v32.4h-46.6V168.5z M214.3,105.2
			c0.2-2.2,1.7-4.4,4.1-4.4h79.1c2.4,0,3.9,2.2,4.1,4.4l4.1,43.4c0.1,1-0.4,1.8-0.8,2.2c-0.8,0.9-2,1.4-3.2,1.4h-28.1
			c-1.7-4.7-6.2-8.1-11.5-8.1h-51.3L214.3,105.2z M176.8,156.3c0-2.2,1.8-4.1,4.1-4.1H262c2.2,0,4.1,1.8,4.1,4.1v4.1h-89.2V156.3z
			 M176.8,198.4v-29.9h33.5v24.3h-4.1c-7.3,0-13.2,5.9-13.2,13.2c0,1.8,0.4,3.5,1,5.1h-4.6C182.5,211,176.8,205.4,176.8,198.4z
			 M218.4,292.1l-8.1,0v-73h8.1V292.1z M297.5,292.1v-73h8.1v73L297.5,292.1z M309.6,211h-33.5c-2.2,0-4.1,1.8-4.1,4.1
			s1.8,4.1,4.1,4.1h13.2v8.1h0h-62.9v-8.1h13.2c2.2,0,4.1-1.8,4.1-4.1s-1.8-4.1-4.1-4.1h-33.5c-2.8,0-5.1-2.3-5.1-5.1
			s2.3-5.1,5.1-5.1h103.4c2.8,0,5.1,2.3,5.1,5.1C314.7,208.8,312.4,211,309.6,211z"/>
		<path d="M257.9,211L257.9,211c-2.2,0-4.1,1.8-4.1,4.1s1.8,4.1,4.1,4.1c2.2,0,4.1-1.8,4.1-4.1S260.2,211,257.9,211z"/>
	</g>
</g>
</svg>
