<?xml version="1.0" encoding="utf-8"?>
<!-- Generator: Adobe Illustrator 24.2.3, SVG Export Plug-In . SVG Version: 6.00 Build 0)  -->
<svg version="1.1" id="Layer_1" xmlns="http://www.w3.org/2000/svg" xmlns:xlink="http://www.w3.org/1999/xlink" x="0px" y="0px"
	 viewBox="0 0 150 150" style="enable-background:new 0 0 150 150;" xml:space="preserve">
<style type="text/css">
	.st0{opacity:0.4;fill:#6CBB6A;}
	.st1{fill:#6CBB6A;}
</style>
<g>
	<path class="st0" d="M23.6,128.5c-1.1,0-2.1-0.9-2.1-2V23.6c0-1.1,0.9-2.1,2.1-2.1h102.9c1.1,0,2,0.9,2,2.1v102.9c0,1.1-0.9,2-2,2
		H23.6z"/>
	<path class="st1" d="M125,25v100H25V25H125 M126.4,18H23.6c-3.1,0-5.6,2.5-5.6,5.6v102.9c0,3.1,2.5,5.6,5.6,5.6h102.9
		c3.1,0,5.6-2.5,5.6-5.6V23.6C132,20.5,129.5,18,126.4,18L126.4,18z"/>
</g>
</svg>
