<?xml version="1.0" encoding="utf-8"?>
<!-- Generator: Adobe Illustrator 22.1.0, SVG Export Plug-In . SVG Version: 6.00 Build 0)  -->
<svg version="1.1" id="Layer_1" xmlns="http://www.w3.org/2000/svg" xmlns:xlink="http://www.w3.org/1999/xlink" x="0px" y="0px"
	 viewBox="0 0 691.8 227.6" style="enable-background:new 0 0 691.8 227.6;" xml:space="preserve">
<style type="text/css">
	.st0{fill:#231F20;}
	.st1{fill:#D85936;}
	.st2{fill:#FFFFFF;}
</style>
<g>
	<polyline class="st0" points="537.4,111.3 527.4,73.1 551.1,73.1 555.7,98.9 628.9,26.5 34.1,26.5 34.1,201.1 445.8,201.1 	"/>
	<polyline class="st1" points="567.9,111.9 578.2,154.4 554.5,154.4 549.1,125.3 474.5,201.1 657.7,201.1 657.7,26.5 657.5,26.5 	
		"/>
	<path class="st2" d="M145.7,92.6c-6-4-12.3-4.9-19.2-4.9c-21.8,0-33.9,15.4-37.4,30.8c-3.2,14.5,4.5,21.2,17.6,21.2
		c7.8,0,15.3-1.6,21.6-4.5l-6.2,17.5c-5.6,1.7-15,3.1-22.4,3.1c-26.2,0-37.8-15.5-32.9-37.9c6-27,29.3-46.3,59.8-46.3
		c15.6,0,23.8,2.7,27.8,4.3"/>
	<polyline class="st2" points="167.2,73.1 189.1,73.1 154.1,154.4 132.2,154.4 	"/>
	<polyline class="st2" points="203,73.1 237.1,73.1 226.2,127.7 226.5,127.7 264.1,73.1 298.8,73.1 263.5,154.4 242.3,154.4 
		271.9,87.7 271.7,87.7 225,154.4 204.5,154.4 216.2,87.7 216,87.7 187.1,154.4 167.3,154.4 	"/>
	<path class="st2" d="M332.4,73.1h27.3l-4.7,81.3H333l1.6-17.4h-31.6l-13.5,17.4H266 M339.5,89.8h-0.2L315,121.7h21L339.5,89.8z"/>
	<path class="st2" d="M392.5,73.1h26c15.5,0.1,34,0.6,29.5,20.7c-3.2,14.3-15.5,19.3-28.3,20.9l-0.1,0.2c6.3,0.6,6.5,9.2,6.5,14.4
		l0.3,25.1h-21.7l0.4-20.7c0.2-10.6-0.3-11.4-10.1-11.4h-2.3l-13.7,32.2h-21.8 M399.4,106.9h7.3c9.4,0,17.3-2.3,19-10
		c1.3-5.8-1.7-8.3-8.2-8.4h-10.4L399.4,106.9z"/>
	<polyline class="st2" points="465.9,73.1 523.1,73.1 516.6,88.4 480.8,88.4 473.3,105.2 507.2,105.2 500.5,120.6 466.7,120.6 
		458.6,139 495.8,139 489.2,154.4 430.4,154.4 	"/>
</g>
</svg>
