<?xml version="1.0" encoding="utf-8"?>
<!-- Generator: Adobe Illustrator 22.1.0, SVG Export Plug-In . SVG Version: 6.00 Build 0)  -->
<svg version="1.1" id="Layer_1" xmlns="http://www.w3.org/2000/svg" xmlns:xlink="http://www.w3.org/1999/xlink" x="0px" y="0px"
	 viewBox="0 0 1218.8 349.4" style="enable-background:new 0 0 1218.8 349.4;" xml:space="preserve">
<style type="text/css">
	.st0{fill:#083A81;}
</style>
<path class="st0" d="M142.3,172.1V32.6c0,0,36-9,66.3,29.8c0,0,2.2,1.5,4.1-0.1s1-4.3,1-4.3s-5.1-9.2-15.8-17.4S169.3,25,156.4,24.9
	s-12.9-0.1-12.9-0.1s-26.3,2.2-41.6,16.5S73.9,69,72.6,101s23,72.7,68.7,78.5c45.7,5.8,75.2-31.7,79.3-44c0,0,1.2-3.3-1.4-4.8
	s-4.9,0.8-5.4,1.6S192.1,178.8,142.3,172.1z"/>
<polygon class="st0" points="234.5,58.6 233.9,175.4 289,175.4 289,58.6 "/>
<path class="st0" d="M260.6,50.8c0,0,28.1,1.6,29-15c0,0,2.3-14.9-27.9-14.9c0,0-27.3-1.7-27.5,14.5S254.2,50.4,260.6,50.8z"/>
<polygon class="st0" points="453.4,58.6 452.7,175.4 507.9,175.4 507.9,58.6 "/>
<path class="st0" d="M479.5,50.8c0,0,28.1,1.6,29-15c0,0,2.3-14.9-27.9-14.9c0,0-27.3-1.7-27.5,14.5S473.1,50.4,479.5,50.8z"/>
<path class="st0" d="M296.4,58.6h66.6c0,0,36.8,60.9,38,62.1s31.3-57.6,33.2-62.7c0,0,2.3-7.5,8.8-3c3.2,2.6,1,5.5,0.2,7
	c-0.8,1.5-7.8,14-7.8,14l-19.2,34.5l-17.1,30.5l-22.7,40.8l-36.3-57.4l-23.2-35.3L296.4,58.6z"/>
<polygon class="st0" points="533.5,29.2 587.9,29.2 587.8,175.4 533.1,175.4 "/>
<polygon class="st0" points="922.6,206.3 951.1,206.3 951,303.4 922.4,303.4 "/>
<path class="st0" d="M643.4,175.4h65.4l0.8-138.9c0,0,6.6-0.3,16,0c9.5,0.3,20.6,0.8,20.6,0.8c6.4,0.3,4.6-5.6,4.6-5.6
	c-0.9-2.8-5.4-2.5-5.4-2.5l-71.8,0l-65.7-0.1c-4.6,0.1-6.9,0-6.9,4.2s3.2,3.6,3.2,3.6l39.2-0.4l0.6,85.9L643.4,175.4z"/>
<path class="st0" d="M837.4,66.6c-29.1-19.1-62.4-13.8-85.2,15.2s-7.9,70.8,16.1,85.9c16.4,9.4,28.1,12.3,51.5,7.8
	c7.8-1.5,24.8-10.3,33.8-20.1s6.3-13.5,6.3-13.5c-2.8-4.3-4.8-2.8-4.8-2.8c-5.4,1.8-7,8-10.9,11.7c-2.5,2.3-7.8,8-13.6,11.2
	s-9.9,6.4-20,7.9s-11.9,0.4-14.3-0.4s-4.8-3.9-4.7-9.8s0-39,0-39l71.4-0.4C863.1,120.1,866.5,85.6,837.4,66.6z M791.4,113.3
	c0,0,0.6-39.5,0.7-42.3c0.1-2.8,0.8-9.3,13.2-9s13.3,7.3,13.3,7.3l0.6,44H791.4z"/>
<path class="st0" d="M930.3,116.4V73c0,0-0.8-15.8,20.6-8.5c21.3,7.3,24.1,15.2,24.1,15.2c2.7,4.9,5.4,6.7,8.6,5.6s2.2-5.4,1.3-7.2
	c-2.2-4.6-13.9-13.3-13.9-13.3s-11-7.7-32.5-9.4s-38.6,9.6-45.1,15.4s-20.1,18.4-20.8,45s14.9,45.6,33.6,55.5s34,6.1,42.9,5.3
	s25.1-10.5,31.5-16.8s10.6-12,11.3-14s0.9-3.1,0-4.8s-1.7-2.8-3.7-2.6s-3.1,0.9-6.3,6.2c-3.1,5.3-10.7,13.7-20.8,20
	c-10.1,6.3-23,6.4-23,6.4c-4.6-0.2-7.7-0.5-8-11.1C929.9,149.4,930.3,116.4,930.3,116.4z"/>
<path class="st0" d="M1003.1,175.5h55.5l-0.6-93.1c0,0,11.1-12,26.1-12.5c3.8-0.1,8.1,1.1,7.1,27.9s0.1,77.8,0.1,77.8h54.8
	c0,0-1.2-63.1-0.6-78c0.6-14.9-2.5-27.6-11.9-34.1s-24.1-11.8-46.4-5.1c-6.1,1.8-18,6.9-29.2,15.1l-0.3-44.3h-54.8V175.5z"/>
<path class="st0" d="M148.7,303h26.5c0,0-0.3-40.6,0-43.2s3-16.9,10.2-17.3c3.2-0.2,5.6,1.4,4.9,13.6c-0.5,16.3,0,46.9,0,46.9h26.1
	c0,0-0.1-38.5,0.2-47.5c0.3-9.1-0.5-17.4-5-21.4c-4.5-4-12.3-5.8-22.6-2.6c-2.9,1.1-7.2,2.6-13.9,11.1l-0.1-13
	c-7.9,1-16.6,1.7-26.2,1.8V303z"/>
<path class="st0" d="M348.6,303h26.5c0,0-0.3-40.6,0-43.2s3-16.9,10.2-17.3c3.2-0.2,5.6,1.4,4.9,13.6c-0.5,16.3,0,46.9,0,46.9h26.1
	c0,0-0.1-38.5,0.2-47.5c0.3-9.1-0.5-17.4-5-21.4c-4.5-4-12.3-5.8-22.6-2.6c-2.9,1.1-7.2,2.6-13.9,11.1l-0.1-13
	c-7.9,1-16.6,1.7-26.2,1.8V303z"/>
<path class="st0" d="M677.6,303h26.5c0,0-0.3-40.6,0-43.2s3-16.9,10.2-17.3c3.2-0.2,5.6,1.4,4.9,13.6c-0.5,16.3,0,46.9,0,46.9h26.1
	c0,0-0.1-38.5,0.2-47.5c0.3-9.1-0.5-17.4-5-21.4c-4.5-4-12.3-5.8-22.6-2.6c-2.9,1.1-7.2,2.6-13.9,11.1l-0.1-13
	c-7.9,1-16.6,1.7-26.2,1.8V303z"/>
<path class="st0" d="M966.2,303h26.5c0,0-0.3-40.6,0-43.2c0.2-2.6,3-16.9,10.2-17.3c3.2-0.2,5.6,1.4,4.9,13.6
	c-0.5,16.3,0,46.9,0,46.9h26.1c0,0-0.1-38.5,0.2-47.5c0.3-9.1-0.5-17.4-5-21.4c-4.5-4-12.3-5.8-22.6-2.6c-2.9,1.1-7.2,2.6-13.9,11.1
	l-0.1-13c-7.9,1-16.6,1.7-26.2,1.8V303z"/>
<polygon class="st0" points="101.1,293 101.1,255.3 129.9,255.3 129.9,245.4 101.1,245.4 101.1,216.1 135.4,216.1 135.4,206.3 
	72.6,206.3 72.6,303 141.1,303 141.1,293.4 "/>
<path class="st0" d="M481.8,276.6c0,0,1,11.7-2.6,16.2s-7.4,4.9-10.6,4.9s-14.4-0.1-14.4-27.9h37.5c0,0,1.2-15.2-4.8-25.8
	s-12.4-13.4-24.6-14.1s-22.4,4.1-28.9,15.1s-6.1,19.5-5.6,33.5c0.5,8.4,8.2,25.6,30.5,26.2s31.6-5.8,33.9-24.6
	C492.3,280,490.3,279.6,481.8,276.6z M462.4,236.7c8,1,7.4,24.7,7.4,24.7h-15.4C454.3,261.4,454.4,235.7,462.4,236.7z"/>
<path class="st0" d="M553.7,276.3c0,0,1,11.7-2.6,16.2s-7.4,4.9-10.6,4.9s-14.4-0.1-14.4-27.9h37.5c0,0,1.2-15.2-4.8-25.8
	s-12.4-13.4-24.6-14.1s-22.4,4.1-28.9,15.1s-6.1,19.5-5.6,33.5c0.5,8.4,8.2,25.6,30.5,26.2s31.6-5.8,33.9-24.6
	C564.2,279.8,562.2,279.4,553.7,276.3z M534.3,236.4c8,1,7.4,24.7,7.4,24.7h-15.4C526.2,261.1,526.3,235.4,534.3,236.4z"/>
<path class="st0" d="M300.2,296.8c-4.2-9.8-14.2-11-22.3-11.2s-19.8,0.2-23.6,0.8c-12.8,1.8-8.5-9.9-3.3-9.3c0,0,13.2,1.7,19.1,0.9
	c20.7-2.9,30.3-22.2,22.9-33.1s-15.7-12.4-15.7-12.4c-0.3-3.3,1.3-6,3.1-5.1c3.9,1.9,5.5,2.5,8.6,2.8s5.7-1,6.7-3.7
	c0,0,3.8-14.5-11.3-13.9s-14.3,13-14.5,14.3s0,4.1,0,4.1s-4.1-0.8-10.3-0.9c-6.3-0.1-15.6,0.4-23.9,8.1s-7.3,16.9-7.3,16.9
	c-1.5,13.5,13.9,19.7,13.9,19.7s-4.3,2.4-8.5,5.2c-4.3,2.8-6.3,6.6-7.2,11.5c-1.4,9,12.6,13.5,12.6,13.5
	c-11.2,1.8-12.3,7.3-12.1,10.6c0.7,10.6,15.2,14.5,39.9,12.9c24.7-1.6,28.8-9,30.7-10.8S304.3,306.6,300.2,296.8z M253.9,254.9
	c0.4-17.9,4.9-17.8,7.3-18.1s6.9,1.4,7.3,18.7s-6.9,15.8-6.9,15.8S253.5,272.8,253.9,254.9z M259.9,321.6c-7.8,0.1-17.4-1.4-17.4-7
	c0-5.5,8.4-6.7,17.9-6.9c0,0,19-1.3,19.6,5.9C280.6,320.9,267.7,321.6,259.9,321.6z"/>
<path class="st0" d="M829.1,296.8c-4.2-9.8-14.2-11-22.3-11.2s-19.8,0.2-23.6,0.8c-12.8,1.8-8.5-9.9-3.3-9.3c0,0,13.2,1.7,19.1,0.9
	c20.7-2.9,30.3-22.2,22.9-33.1s-15.7-12.4-15.7-12.4c-0.3-3.3,1.3-6,3.1-5.1c3.9,1.9,5.5,2.5,8.6,2.8s5.7-1,6.7-3.7
	c0,0,3.8-14.5-11.3-13.9s-14.3,13-14.5,14.3s0,4.1,0,4.1s-4.1-0.8-10.3-0.9s-15.6,0.4-23.9,8.1s-7.3,16.9-7.3,16.9
	c-1.5,13.5,13.9,19.7,13.9,19.7s-4.3,2.4-8.5,5.2c-4.3,2.8-6.3,6.6-7.2,11.5c-1.4,9,12.6,13.5,12.6,13.5
	c-11.2,1.8-12.3,7.3-12.1,10.6c0.7,10.6,15.2,14.5,39.9,12.9c24.7-1.6,28.8-9,30.7-10.8S833.2,306.6,829.1,296.8z M782.8,254.9
	c0.4-17.9,4.9-17.8,7.3-18.1s6.9,1.4,7.3,18.7s-6.9,15.8-6.9,15.8S782.4,272.8,782.8,254.9z M788.9,321.6c-7.8,0.1-17.4-1.4-17.4-7
	c0-5.5,8.4-6.7,17.9-6.9c0,0,19-1.3,19.6,5.9C809.5,320.9,796.6,321.6,788.9,321.6z"/>
<path class="st0" d="M849.5,303.1c0,0-0.8,6.5-7.9,10.7v9.1c0,0,21.7-3.6,21.7-29.8c0-13.3-7.8-14.6-12.3-14.6s-12.7,0.7-12.9,12.6
	C837.9,303,847.2,303.1,849.5,303.1z"/>
<path class="st0" d="M575.4,232.1v71h26c0,0-0.2-43.3,0-46.4c0.2-3.1,1.4-13.7,7-15s2,13.7,0.6,16h17.6c0,0,2.7-8.3,2.3-14.4
	s-0.9-13.3-11.7-13.2s-16.1,11.4-16.1,11.4L601,230C601,230,589.9,231.7,575.4,232.1z"/>
<path class="st0" d="M308.5,303h25.8v-73.4c0,0-15,2.1-25.8,1.9V303z"/>
<path class="st0" d="M321.5,222.7c0,0,11.8,1.5,12.3-9.3s-12.4-9.3-12.4-9.3s-12.4-1.1-11.5,9.6S321.5,222.7,321.5,222.7z"/>
<path class="st0" d="M636.9,303h25.8v-73.4c0,0-15,2.1-25.8,1.9V303z"/>
<path class="st0" d="M649.9,222.7c0,0,11.8,1.5,12.3-9.3s-12.4-9.3-12.4-9.3s-12.4-1.1-11.5,9.6S649.9,222.7,649.9,222.7z"/>
<path class="st0" d="M1120.1,291.9c0,0-1.1-13.5,12.6-12.9c13.7,0.6,12.5,12.9,12.5,12.9s1,12.2-12.8,12.4
	S1120.1,291.9,1120.1,291.9z"/>
<path class="st0" d="M1071.9,268.6c0,0-1.9-33.8,13.8-32.9c13,0.3,9.9,22.2,9.9,22.2c5.9-2.6,11.9-5.8,11.9-5.8s3.6-22.9-24.4-22.6
	s-38.1,19.1-37.9,39.5s7.7,36,35.8,35.2c28.1-0.9,28.3-15.7,29.1-29.7c0,0-9.6-2.3-10.8-3.9c0,0,1.3,13.6-0.8,18.4s-4.4,9.3-13,9.3
	S1072.6,293.3,1071.9,268.6z"/>
</svg>
