<?xml version="1.0" encoding="utf-8"?>
<!-- Generator: Adobe Illustrator 22.1.0, SVG Export Plug-In . SVG Version: 6.00 Build 0)  -->
<svg version="1.1" id="Layer_1" xmlns="http://www.w3.org/2000/svg" xmlns:xlink="http://www.w3.org/1999/xlink" x="0px" y="0px"
	 viewBox="0 0 2703.2 607.8" style="enable-background:new 0 0 2703.2 607.8;" xml:space="preserve">
<style type="text/css">
	.st0{fill:#CF4044;}
</style>
<g>
	<path d="M417.3,440.9c-14.1,6.4-36.6,10.6-58.1,10.6c-63,0-97.4-38.4-97.4-89.3c0-57.2,39.5-91.2,98.2-91.2
		c23.3,0,43.4,5.2,56.9,11.3l10.8-37.3c-10.6-5.5-35.1-12.6-69.6-12.6c-86.8,0-146.3,54.6-146.3,131.9
		c0,75.5,53.4,126.3,139.9,126.3c34.8,0,62.1-7,74-12.9L417.3,440.9L417.3,440.9z"/>
	<path d="M525.3,490.6c51.9,0,101.4-32.6,101.4-96.7c0-53-39.2-92.2-98.1-92.2c-61.1,0-102.4,39-102.4,96.1
		c0,56.7,43.7,92.8,98.7,92.8L525.3,490.6L525.3,490.6z M525.8,456.7c-29.3,0-50.6-24.1-50.6-60.2c0-31.3,16-60.8,51.6-60.8
		c35.1,0,50.3,31,50.3,60c0,39.2-22.7,61-50.9,61H525.8z M642.6,486.2h47.6V382c0-4.7,0.6-10.2,2.1-13.8c5.2-13.7,19-28.3,39.9-28.3
		c27.4,0,38.8,20.4,38.8,48.8v97.4h47.6V382.9c0-62-38.2-81.2-70-81.2c-33.6,0-54.5,19.6-62.3,33.4h-1.2l-2.3-29h-41.6
		c0.9,15.5,1.5,33.5,1.5,54.5L642.6,486.2L642.6,486.2L642.6,486.2z M932.7,490.6c51.9,0,101.4-32.6,101.4-96.7
		c0-53-39.2-92.2-98.1-92.2c-61.1,0-102.4,39-102.4,96.1c0,56.7,43.7,92.8,98.7,92.8L932.7,490.6L932.7,490.6z M933.2,456.7
		c-29.2,0-50.6-24.1-50.6-60.2c0-31.3,16-60.8,51.6-60.8c35.1,0,50.3,31,50.3,60c0,39.2-22.7,61-50.9,61H933.2z M1200,445.3
		c-9.9,4-22.9,8-41.3,8c-33.3,0-60.7-20.8-60.7-57.7c-0.2-33,22.8-57.6,60.5-57.6c18.7,0,31.1,3.8,39.6,8l8.8-35.2
		c-12.2-5.2-31.1-9.2-50-9.2c-68.5,0-107.7,42.5-107.7,96.4c0,54.8,39,92.5,100,92.5c25.7,0,46.9-5.5,57.7-10.4L1200,445.3
		L1200,445.3z M1306.8,490.6c51.9,0,101.4-32.6,101.4-96.7c0-53-39.2-92.2-98.1-92.2c-61.1,0-102.4,39-102.4,96.1
		c0,56.7,43.7,92.8,98.7,92.8L1306.8,490.6L1306.8,490.6z M1307.3,456.7c-29.3,0-50.6-24.1-50.6-60.2c0-31.3,16-60.8,51.6-60.8
		c35.1,0,50.3,31,50.3,60c0,39.2-22.7,61-50.9,61H1307.3z M1617,486.2h47.6V380.5c0-5.2,0.3-9.7,2.1-13.8
		c5.4-13,19.1-26.6,39.5-26.6c28,0,39.2,20.5,39.2,48.8v97.2h47.6V382.7c0-61.9-37.8-81-69.2-81c-11.9,0-23.6,3.2-33.4,8.5
		c-10.1,5.2-18.8,12.8-25.1,22.3h-0.8V221.4H1617L1617,486.2L1617,486.2L1617,486.2z M1868.7,486.2v-180h-47.6v180H1868.7z
		 M1844.9,278.2c17.5,0,28-12,28-26.2c-0.2-14.4-10.7-26-27.9-26c-17.1,0-28,11.8-28,26s10.5,26.2,27.5,26.2H1844.9z M1901.4,486.2
		h47.6V221.4h-47.6V486.2z M1985.3,486.2h47.6V221.4h-47.6V486.2z M2113.2,486.2v-180h-47.6v180H2113.2z M2089.4,278.2
		c17.5,0,28-12,28-26.2c-0.2-14.4-10.7-26-27.8-26c-17.1,0-28,11.8-28,26s10.6,26.2,27.5,26.2H2089.4L2089.4,278.2z M2149.5,560.1
		h47.6v-95.2h0.7c10.6,16.4,32.3,25.7,57.3,25.7c44.9,0,90.1-32.5,90.1-97.7c0-56.9-39.6-91.2-82.7-91.2c-31.5,0-54.9,12.5-69.7,34
		h-0.7l-2.3-29.6h-41.8c0.9,17.5,1.5,37.7,1.5,60.7L2149.5,560.1L2149.5,560.1L2149.5,560.1z M2197.1,386.5c0-3.5,0.8-7.4,1.6-10.9
		c5.3-21.8,24.8-37.2,47.3-37.2c33,0,50.8,26.5,50.8,57.1c0,36.5-20.3,59.1-52.2,59.1c-23.6,0-41.9-16.5-46.5-35.4
		c-0.7-3.8-1-7.7-1-11.5L2197.1,386.5L2197.1,386.5z M2353.4,477.2c15,7.8,36,13.4,60.3,13.4c52.1,0,77.6-25.3,77.6-56.9
		c-0.2-27.9-16.1-44.3-51.8-54.9c-24.6-7.4-34.7-12.9-34.7-24.8c0-11.5,9.8-19.2,26.8-19.2c18,0,34.8,7,42.6,11.2l9.4-32.9
		c-11.2-6.2-30.6-11.4-52.2-11.4c-45.2,0-72.7,25.3-72.7,57.2c-0.2,22.3,16.1,42.2,54.2,52.9c23.9,7,32.1,12.7,32.1,25.3
		c0,11.4-9.1,20.1-31.1,20.1c-17.8,0-39.7-7.5-50.9-14.4L2353.4,477.2L2353.4,477.2z M1424.8,486h47.2V384.7c7,1.6,16,2.2,26,2.2
		c36.1,0,65.6-8.8,85.1-27.2c14.7-13.4,22.2-33.6,22.2-56.7c0-24.1-10.6-43.8-25.9-55.8c-16.3-13.2-41.6-20.9-77.2-20.9
		c-34.9,0-59.7,2.4-77.5,5.2V486L1424.8,486z M1472,264.6c5.3-1.1,15.7-2.3,30.6-2.3c33.2,0,55.6,13.1,55.6,41.9
		c0,29.4-22.9,46.1-59.6,46.1c-11.1,0-19.8-0.7-26.5-2.6L1472,264.6L1472,264.6L1472,264.6z"/>
	<path class="st0" d="M1635.6,47.6c-64.4,22.4-81.3,44.5-116,72.4c-98.5,25.9-184.9-15.7-260-50c35.5,25.7,70.6,80.2,85.5,157.5
		c56.8-17,125.2-63,185.4-105.9C1564.2,106.7,1601.2,84.6,1635.6,47.6L1635.6,47.6z"/>
</g>
</svg>
