<?xml version="1.0" encoding="utf-8"?>
<!-- Generator: Adobe Illustrator 25.0.0, SVG Export Plug-In . SVG Version: 6.00 Build 0)  -->
<svg version="1.1" id="icon--cyclomedia-logo" xmlns="http://www.w3.org/2000/svg" xmlns:xlink="http://www.w3.org/1999/xlink"
	 x="0px" y="0px" viewBox="0 0 605.2 149.5" style="enable-background:new 0 0 605.2 149.5;" xml:space="preserve">
<style type="text/css">
	.st0{fill:#0006B4;}
</style>
<path class="st0" d="M11.2,77.2V77c0-16,12.4-29.5,29.3-29.5c10.7,0,17.3,4,22.6,9.7l-8,8.7c-4-4.2-8.1-7.1-14.7-7.1
	c-9.4,0-16.3,8.1-16.3,18V77c0,10.1,7,18.2,16.9,18.2c6.1,0,10.6-2.9,14.7-7.1l7.8,7.7c-5.5,6.2-12.1,10.6-23.1,10.6
	C23.6,106.4,11.2,93.2,11.2,77.2z M70.9,119.1l4.4-9.6c2.4,1.3,4.9,2.1,7.6,2.1c3.6,0,5.9-1.6,8-6.5L67.4,48.6h13.8l16,41.9
	l14.7-41.9h13.5l-22.5,58.1c-4.5,11.6-9.5,15.8-18.6,15.8C78.8,122.5,74.9,121.2,70.9,119.1z M128,77.2V77c0-16,12.4-29.5,29.3-29.5
	c10.7,0,17.3,4,22.6,9.7l-8,8.7c-4-4.2-8.1-7.1-14.7-7.1c-9.4,0-16.3,8.1-16.3,18V77c0,10.1,7,18.2,16.9,18.2
	c6.1,0,10.6-2.9,14.7-7.1l7.8,7.7c-5.5,6.2-12.1,10.6-23.1,10.6C140.4,106.4,128,93.2,128,77.2z M190.8,27h12.9v78.1h-12.9V27z
	 M215.4,77.2V77c0-16.2,12.8-29.5,30.2-29.5c17.3,0,30.1,13.2,30.1,29.3V77c0,16-12.8,29.4-30.3,29.4
	C228.1,106.4,215.4,93.2,215.4,77.2z M262.7,77.2V77c0-9.9-7.2-18.2-17.3-18.2c-10.4,0-17,8.1-17,18V77c0,9.8,7.2,18.2,17.2,18.2
	C256.1,95.1,262.7,86.9,262.7,77.2z M286.7,48.6h12.9v8.6c3.6-5,8.6-9.7,17.2-9.7c8.1,0,13.8,4,16.8,9.9c4.6-6,10.6-9.9,19.1-9.9
	c12.3,0,19.8,7.8,19.8,21.6v36.1h-12.9V73c0-9-4.2-13.8-11.4-13.8c-7.1,0-12.1,4.9-12.1,14v31.9h-12.9V72.9
	c0-8.8-4.3-13.7-11.4-13.7c-7.2,0-12.1,5.3-12.1,14.1v31.8h-12.9V48.6H286.7z M383,77.1v-0.2c0-16.2,11.4-29.4,27.6-29.4
	c18,0,27.1,14.1,27.1,30.4c0,1.2-0.1,2.4-0.2,3.6H396c1.4,9.2,7.9,14.3,16.3,14.3c6.3,0,10.8-2.4,15.3-6.7l7.6,6.7
	c-5.3,6.4-12.7,10.6-23.1,10.6C395.7,106.4,383,94.5,383,77.1L383,77.1z M424.9,72.9C424,64.6,419.1,58,410.6,58
	c-7.9,0-13.5,6.1-14.7,14.9H424.9z M445.7,77v-0.2c0-18.7,12.7-29.3,26.2-29.3c9.3,0,15.2,4.7,19.3,9.9V27h12.9v78.1h-12.9v-9.4
	c-4.2,5.9-10.1,10.6-19.3,10.6C458.7,106.3,445.7,95.7,445.7,77z M491.4,77v-0.2c0-10.9-7.7-18.1-16.4-18.1
	c-8.9,0-16.3,6.8-16.3,18.1V77c0,10.9,7.5,18.1,16.3,18.1C483.7,95,491.4,87.8,491.4,77z M518.4,27.6h13.9v12.3h-13.9V27.6
	L518.4,27.6z M518.9,48.6h12.9v56.5h-12.9V48.6L518.9,48.6z M581.2,105.1v-7c-3.9,4.6-9.7,8.1-18.3,8.1c-10.7,0-20.1-6.1-20.1-17.4
	v-0.2c0-12.5,9.7-18.5,22.9-18.5c6.8,0,11.2,1,15.6,2.4v-1.1c0-7.8-4.9-12.1-13.9-12.1c-6.3,0-11,1.4-16.2,3.5l-3.5-10.4
	c6.2-2.8,12.3-4.7,21.5-4.7c16.7,0,24.8,8.8,24.8,23.9v33.5H581.2z M581.5,81.5c-3.3-1.3-7.9-2.2-12.9-2.2c-8.1,0-12.9,3.3-12.9,8.8
	v0.2c0,5.3,4.8,8.3,10.9,8.3c8.6,0,15-4.8,15-11.9L581.5,81.5L581.5,81.5z"/>
</svg>
