<?xml version="1.0" encoding="utf-8"?>
<!-- Generator: Adobe Illustrator 22.1.0, SVG Export Plug-In . SVG Version: 6.00 Build 0)  -->
<svg version="1.1" id="Layer_1" xmlns="http://www.w3.org/2000/svg" xmlns:xlink="http://www.w3.org/1999/xlink" x="0px" y="0px"
	 viewBox="0 0 505.5 176.4" style="enable-background:new 0 0 505.5 176.4;" xml:space="preserve">
<path d="M438.9,11.1c-7.8,0-13.4,6.2-13.4,13.1c0,6.9,5.7,13.1,13.4,13.1c7.8,0,13.8-5.6,13.8-13.1
	C452.7,16.7,446.7,11.1,438.9,11.1z M428.8,134.3h20.5V52.4h-20.5C428.8,52.4,428.8,134.3,428.8,134.3z M245.5,50.4
	c-24.7,0-44.5,17.2-44.5,43c0,25.8,19.8,43,44.5,43c11.3,0,21.9-3.5,30.8-12.2l-12.9-12.9c-4.8,5.1-11,8.7-19.9,8.7
	c-11.4,0-20.7-7.4-22-19.5h62.5v-5.6C283.9,66.4,268.4,50.4,245.5,50.4z M221.4,85.2c1.5-11.8,9.1-19.5,21.2-19.5
	c12.8,0,20.7,7.5,20.8,19.5H221.4z M312.5,75.4c0-6.2,6.5-8.7,12-8.7c6.9,0,12.1,2.9,16,8.3l13-13c-6.7-8.4-17.9-11.7-28.5-11.7
	c-16.6,0-33,8.2-33,26.5c0,31.2,44.2,17.9,44.2,34.8c0,6.5-7.7,9.4-13.7,9.4c-8.7,0-14.1-4.2-19.4-10l-13.2,13.2
	c8.3,9,19,12.2,31.5,12.2c16.7,0,35.3-6.8,35.3-26.3C356.7,78.2,312.5,90.1,312.5,75.4z M386.9,65.4h-0.3v-13h-20.5v81.9h20.5V90.5
	c0-4.4,2.7-20.7,22-20.7c3,0,5.9,0.6,9,1.3l0.8-19.6c-2.4-0.7-4.7-1.2-7.3-1.2C400.4,50.4,391.4,56,386.9,65.4L386.9,65.4z
	 M109.5,23c-6.4-0.2-10.2,0.6-13.9,1.4c-1.1-0.3-3.3,0-3.4,2.5c0,1.3,0.4,2.4,1.3,3c0.8,0.6,7.9,5.8,13,11.3
	c-2.5,0.3-5.2,0.7-7.9,1.3c-3.1-6.7-13-0.6-19.5-0.3c-0.8,0-1.5,0.1-2.3,0.2c-0.7-5.6-1.2-11.3-1.1-15.4c8.5-4.8,25-8.4,36.2-8.6
	l2-0.1c1.6,0,1.8-1.3,0.2-1.5c-13.9-1.9-25.9,0.9-38.3,6c-12.9,5.4-29.2,17.9-39.2,41.5c-2.3,6.6-11.7,37.9,4.9,64.7
	c13.5,21.8,30.8,32.2,52,35.1c21.2,3,32.7,0.4,46.1-5.6c31.3-13.9,55.2-66.1,31.3-103.9C161.3,37.1,136.6,21.8,109.5,23z M97.6,47.5
	c4.1-0.9,8.2-1.6,12.4-1.9c3.5,4.1,6.6,8.6,9.2,13.4c-4.2,2.1-9.9,3.6-12.2,6.9c-1,1.4-1.2,3.2-1.2,5.2c-7,1.7-13.8,3.9-20.4,6.8
	c-2.4-7-4.5-14-5.9-20.2C86.4,51.1,94.4,50,97.6,47.5z M132.4,131c-1.9,0.2-3.7,0.4-5.3,0.7c-4.1,0.6-9.3,2-14.1,3.8
	c-2.8-4.4-10.3-15.2-14-23.3c7.6-3.7,18.2-6.9,30.4-7.6c1,1.7,2.1,3.5,3.6,5C136.9,113.7,130.6,119.5,132.4,131L132.4,131z
	 M87.2,82.9c5.9-2.8,12.1-5.1,18.7-6.8c0,1.8-0.2,3.4-1,4.8c-1,1.9-0.6,7.5,0.7,9.3c4,5.8,10.6,2.6,15.5,4.6c2.3,1,3.8,2.5,5.1,4.4
	c-10.4,0.7-20.6,3.1-30,7.4C91.4,96.4,87.2,82.9,87.2,82.9L87.2,82.9z M91.5,108.9c-0.4,0.2-0.8,0.4-1.1,0.6
	c-5.7-1.6-11.4-3-17.1-4.1c-5.2-1.1-5.4-0.8-11.3,0.9c-0.8,0.2-1.6,0.5-2.4,0.7c-0.8-2.1-1.6-4.2-2.3-6.3C64.7,94.9,72.3,90,82.5,85
	C85.2,92.8,88.9,103.3,91.5,108.9z M95.6,132.7c1.5-4,2.7-7,3.2-9.9c3,5,6.6,10.5,9.3,14.8c-4.3,2.1-9.3,5.3-14.1,8.9
	C94.4,141,94.5,135.6,95.6,132.7z M123.6,55.7c-0.1,0.1-0.1,0.1-0.2,0.2c-2.2-3.8-4.6-7.5-7.2-11.1c5.3-0.3,11.8,0,17.8,0.6
	C128.6,47.3,126.3,52,123.6,55.7z M76.1,61.5c0.1-0.1,0.2-0.2,0.3-0.4c1.2,6.2,2.7,11.4,4.7,18.5c-7.4,3.3-20.4,11.3-26.2,15.6
	c-1-2.6-2.1-6.4-3.1-10.2c1.3-3.9,4-6.6,7.8-7C66,77.4,71.6,67.8,76.1,61.5z M47.7,52.1C54.6,42.4,64,33,72.5,28.3
	c-0.1,2.1,0.5,8.2,1.1,14.2c-3,0.3-6,0.7-8.9,1.1c-6.9,5.9-12.5,13.2-16.4,21.5C47.8,59.5,47.4,54.9,47.7,52.1L47.7,52.1z
	 M43.2,59.7c0,0,0.3,5.6,0.6,9.6c0,0-4.1,4.7-6.2,8.4C38.4,70.1,40.2,66.2,43.2,59.7z M83.5,156.2c-21.3-6.7-37.1-24.6-42.7-43.4
	c-3.3-11-4.4-22.6-3.4-34.1c0.3,0.1,1,0.4,2,0.1c0.7-0.5,3.2-2.3,5-3.8l0.1,0.7c-1.2,4.6-2,9.3-2.1,14.3c1.9,2.1,4.2,5.5,6.8,9
	c-1.6,1.2-4.8,3.4-5.5,3.9c-2.2,1.5-2.1,4-0.6,5.3c0.8,0.8,2.6,0.4,3.2-0.1c1.9-1.5,3.5-2.7,5.6-4.1c0.8,2.1,1.5,3.9,2.3,5.7
	c-0.9,1-1.6,2.3-1.8,4.2c-0.7,6.2,5.2,11,10.1,12.4c0.2,0.1,0.3,0.1,0.5,0.1c0.3,0.4,0.5,0.8,0.8,1.2c-2.6,2-4.3,4-5.5,5.6
	c-0.7,0.9-1.5,2.3-0.8,2.5c0.6,0.3,2.8,0,3.8-0.2c2.5-0.5,4.3-3.2,6-4.2c2,2.8,5.4,6.4,8.8,9.9c0.2,0.6,0.3,1.3,0.5,1.8
	c0.7,2.1,1.5,4.2,2.6,6.3c2.5,1.2,5.1,2.1,7.7,3C85.6,153.7,84.5,154.9,83.5,156.2L83.5,156.2z M88.7,157.9c0.8-1.1,1.6-2.4,2.7-3.3
	c2.5,1.6,5.1,3.5,7.2,4.7C95.3,158.9,91.5,158.8,88.7,157.9z M105.1,159.5c0,0-8.4-5.6-10.6-7.7c4.2-3.5,11.1-7.7,16.5-9.9
	c2.1,3.3,9.1,13.2,11.9,16.4C117.8,159.1,110.7,159.8,105.1,159.5z M140.4,151.6c-1.5,1-8.8,4.3-11.6,5.2
	c-4.8-5.2-9.1-10.9-12.8-16.8c4.4-1.9,11.3-3.5,17.6-4.3c0.6,1.8,1.3,3.7,2.3,5.8c1,2,2.2,3.5,3.4,4.5c0.4-0.3,0.9-0.6,1.3-0.9
	C140.5,147.2,140.5,149.4,140.4,151.6z M138.6,38.6c-1.4-0.9-3.2-0.6-2.5,1c0.3,0.6,1.4,1.7,2.2,2.7c-5.2-1.4-19-2.5-25.6-1.9
	c-4.3-4.8-9.2-10.7-15.1-14.5c26.3-1.6,49.9,9.2,60.4,22c-3.5-1.8-11-4.4-14-5.1C142.5,41.1,140.4,39.7,138.6,38.6L138.6,38.6z
	 M144.4,149.4c0.1-2.1,0.2-4.9,0.3-7.3c2.6-2,5-4.2,7.2-6.5c2.9,0.3,5.8,0.8,7.5,1.3C155.5,141.7,150.1,145.8,144.4,149.4z
	 M164.5,129.8c-0.6,1.3-2.3,3.6-3.3,4.7c-1.6-0.7-4.1-1.4-6.7-2c0.4-0.5,0.9-1,1.3-1.5c1.4-9.5-1.8-12.5,2.2-21.1l0.9-2
	c2.2,0.6,4.3,1.3,6.1,2C165.1,113.3,165.1,124.4,164.5,129.8z M160.8,103.9c1-2.1,2.2-4.4,3.4-6.7c0.3,2.9,0.6,5.7,0.7,8.2
	C163.5,104.9,162.2,104.4,160.8,103.9z M172.4,109.9l-1,4c-0.7,2.7-3.1,9.1-4.4,11.7c0.5-3.5,0.9-12.5,0.8-14.4
	c0.8,0.3,2.6-0.8,2.9-1.8c0.3-1-3-2.6-3-2.6c0-4.8-0.3-9.5-0.9-14.2c0.7-1.2,1.5-2.4,2.3-3.4c-0.1-2.8-0.5-5.5-1-8.3
	c0.7,0.2,1.3,0.4,1.7,0.4c1.5,0,1.5-1,1-1.6c-0.3-0.4-1.7-1.3-3.4-2.2c-2.4-10.4-7.5-20-14.6-28c2.8,1.1,6.4,2.5,9.2,4.1
	c2.2,2.7,8.3,8.8,11.6,25.9C176.7,94.8,173.4,106.5,172.4,109.9z M457.9,53.7v-1.3h6.4v1.3h-2.5V60h-1.5v-6.3H457.9z M467.7,52.4
	l1.9,5.4l1.9-5.4h2.1V60h-1.4v-6.1l-2.1,6.1h-1.2l-2.1-6.1V60h-1.4v-7.5L467.7,52.4L467.7,52.4z"/>
</svg>
