<?xml version="1.0" encoding="utf-8"?>
<!-- Generator: Adobe Illustrator 23.1.0, SVG Export Plug-In . SVG Version: 6.00 Build 0)  -->
<svg version="1.1" id="Layer_1" xmlns="http://www.w3.org/2000/svg" xmlns:xlink="http://www.w3.org/1999/xlink" x="0px" y="0px"
	 viewBox="0 0 122.27 50.48" style="enable-background:new 0 0 122.27 50.48;" xml:space="preserve">
<style type="text/css">
	.st0{fill:#FDC82F;}
	.st1{fill:#7AB800;}
	.st2{fill:#E98300;}
</style>
<title>Artboard 5</title>
<path class="st0" d="M72.69,15.69c-1.3-3.8-5.1-6.7-11.3-7.4c-24.8-1.6-43.8,26.1-54.5,15.1c1,1.3,4.9,10.1,16.8,8.9
	C35.89,31.09,55.19,10.59,72.69,15.69z"/>
<path class="st1" d="M63.29,25.89c6.3-0.1,11.4-2.1,11.4-4.5s-5.2-4.3-11.5-4.2c-6.3,0.1-11.4,2.1-11.4,4.5S56.99,25.99,63.29,25.89
	z"/>
<path class="st2" d="M47.39,25.39c2.5,3.1,8,6,15.6,5.7c12.3-0.5,22.3-4.5,47.2-27c-14.9,11-32.9,22.4-47.7,23.5
	C52.49,28.39,48.19,25.99,47.39,25.39z"/>
<path d="M16.59,41.59c-0.1-0.8-0.9-0.9-1.6-0.9s-1.1,0.3-1.1,0.8s0.3,0.5,0.7,0.6l2.1,0.3c1.1,0.2,2,0.6,2,1.8s-0.8,2.1-3.3,2.1
	c-1.5,0-3.5-0.2-3.5-2.2h1.9c0,0.9,0.9,1,1.6,1c0.7,0,1.4-0.2,1.4-0.8s-0.4-0.6-1.1-0.7l-1.6-0.2c-1.1-0.2-2.2-0.5-2.2-1.8
	s1.2-2,3.1-2c1.3,0,3.2,0.2,3.3,2L16.59,41.59z"/>
<path d="M23.99,43.69h-2l1-2.5L23.99,43.69z M24.99,46.19h1.8l-2.8-6.4h-2.1l-2.8,6.4h1.8l0.5-1.3h2.9L24.99,46.19z"/>
<path d="M27.69,39.79h5.6v1.2h-3.9v1.4h3.7v1.2h-3.7v2.5h-1.7V39.79z"/>
<path d="M34.49,39.79h5.9v1.2h-4.2v1.3h4v1.2h-4v1.5h4.2v1.2h-5.9V39.79z"/>
<path d="M49.69,41.59c-0.1-0.8-0.9-0.9-1.6-0.9s-1.2,0.3-1.2,0.8s0.3,0.5,0.7,0.6l2.1,0.3c1.1,0.2,2,0.6,2,1.8s-0.8,2.1-3.3,2.1
	c-1.5,0-3.5-0.2-3.5-2.2h1.9c0,0.9,0.9,1,1.6,1s1.3-0.2,1.3-0.8s-0.4-0.6-1.1-0.7l-1.6-0.2c-1.1-0.2-2.1-0.5-2.1-1.8s1.1-2,3.1-2
	c1.3,0,3.2,0.2,3.3,2L49.69,41.59z"/>
<path d="M54.49,42.99c0-1.2,1-2.1,2.1-2c1.2,0,2.1,1,2,2.1c0,1.1-1,2-2.1,2s-2-0.8-2.1-1.9C54.49,43.09,54.49,42.99,54.49,42.99z
	 M52.69,42.99c0,1.3,0.5,3.4,3.9,3.4s3.9-2,3.9-3.4s-0.5-3.4-3.9-3.4S52.69,41.59,52.69,42.99z"/>
<path d="M61.79,39.79h5.6v1.2h-3.9v1.4h3.7v1.2h-3.7v2.6h-1.7L61.79,39.79z"/>
<path d="M70.29,40.99h-2.3v-1.2h6.4v1.2h-2.3v5.2h-1.7L70.29,40.99L70.29,40.99z"/>
<path d="M74.79,39.79h1.7l1.2,4.6l0,0l1.3-4.6h1.7l1.3,4.6l0,0l1.2-4.6h1.7l-2,6.4h-1.7l-1.3-4.5l0,0l-1.3,4.5h-1.8L74.79,39.79z"/>
<path d="M89.69,43.39h-1.8l0.9-2.2L89.69,43.39z M90.69,46.19h1.9l-2.8-6.4h-2l-2.8,6.4h1.8l0.6-1.6h2.7L90.69,46.19z"/>
<path d="M95.19,40.99h2.2c0.4,0,0.9,0.2,0.9,0.8c0,0.4-0.3,0.8-0.7,0.8h-0.1h-2.3V40.99z M93.49,46.19h1.7v-2.3h2.1
	c0.5,0,0.9,0.2,0.9,1.1c-0.1,0.4,0,0.8,0.2,1.2h1.9c-0.2-0.4-0.4-0.9-0.3-1.4c0-0.6-0.1-1.6-0.9-1.7l0,0c0.7-0.2,1.1-0.9,1-1.5
	c0-0.7-0.3-1.7-2-1.7h-4.6C93.49,39.89,93.49,46.19,93.49,46.19z"/>
<path d="M101.39,39.79h5.9v1.2h-4.2v1.4h3.9v1.1h-3.9v1.4h4.2v1.2h-5.9V39.79z"/>
<path d="M108.79,40.19v-0.7h2.4v0.7h-0.8v2.3h-0.7v-2.2L108.79,40.19L108.79,40.19z"/>
<path d="M112.79,39.49l0.8,1.8l0.8-1.8h1v2.9h-0.7v-1.9l0,0l-0.8,2h-0.6l-0.8-2l0,0v1.9h-0.7v-2.9H112.79z"/>
</svg>
