<?xml version="1.0" encoding="utf-8"?>
<!-- Generator: Adobe Illustrator 22.1.0, SVG Export Plug-In . SVG Version: 6.00 Build 0)  -->
<svg version="1.1" id="Layer_1" xmlns="http://www.w3.org/2000/svg" xmlns:xlink="http://www.w3.org/1999/xlink" x="0px" y="0px"
	 viewBox="0 0 2678.5 1815.1" style="enable-background:new 0 0 2678.5 1815.1;" xml:space="preserve">
<style type="text/css">
	.st0{fill:#006993;}
</style>
<path class="st0" d="M1016.8,287.4c76.5-26.9,160.5-38.9,211.5-22.4c30,7.5,61.5-7.5,159,119.7c106.5,139.2,252,260.3,304.4,248.4
	c54-12,99-46.4,126-86.8c28.5-40.4,57-121.2,66-167.6c7.5-44.9,19.5-91.3,45-131.7c24-40.4,57-68.8,57-68.8s85.5-70.3,129-76.3
	c45-6,57-16.5,57-16.5s-64.5,149.6-88.5,190c-25.5,40.4-82.5,155.6-97.5,184c-16.5,29.9-16.5,34.4-54,70.3
	c-36,34.4-114,91.3-114,91.3s124.5-31.4,114-12c-15,35.9-57,46.4-126,74.8c-93,40.4-88.5,86.8-154.5,115.2
	c-94.5,43.4-161.9-10.5-161.9-10.5s12,0,52.5-18c40.5-16.5,121.5-80.8,121.5-80.8s-7.5,6-69,6c-60,0-133.5-28.4-183-56.9
	c-48-29.9-117-74.8-154.5-109.2c-36-35.9-97.5-104.7-138-127.2c-40.5-23.9-57-40.4-97.5-62.8c-40.5-23.9-57-18-57-18
	S973.3,299.4,1016.8,287.4L1016.8,287.4z"/>
<path class="st0" d="M126,1415.6h10.5l57-43.4c22.5,29.9,55.5,43.4,91.5,43.4c93,0,141-73.3,141-158.6
	c0-187-205.5-380.1-205.5-508.7c0-29.9,9-67.3,48-67.3c43.5,0,78,47.9,114,281.3H399V657.1h-12l-51,49.4
	c-18-28.4-43.5-49.4-79.5-49.4C204,657.1,129,709.5,129,824.7c0,170.6,193.5,332.2,193.5,483.3c0,70.3-10.5,86.8-54,86.8
	c-61.5,0-99-86.8-127.5-302.2h-15L126,1415.6L126,1415.6z"/>
<path class="st0" d="M713.8,1141.8c0-233.4-61.5-275.3-141-275.3c-124.5,0-139.5,145.1-139.5,281.3c0,196,57,266.3,136.5,266.3
	c105,0,135-82.3,142.5-205h-18c-9,101.7-42,185.5-103.5,185.5c-36,0-49.5-15-49.5-58.4v-194.5L713.8,1141.8L713.8,1141.8z
	 M541.4,1123.8v-196c0-29.9,6-46.4,33-46.4s36,16.5,36,68.8v173.6H541.4L541.4,1123.8L541.4,1123.8z"/>
<path class="st0" d="M713.8,1141.8c0-233.4-61.5-275.3-141-275.3c-124.5,0-139.5,145.1-139.5,281.3c0,196,57,266.3,136.5,266.3
	c105,0,135-82.3,142.5-205h-18c-9,101.7-42,185.5-103.5,185.5c-36,0-49.5-15-49.5-58.4v-194.5L713.8,1141.8L713.8,1141.8z
	 M541.4,1123.8v-196c0-29.9,6-46.4,33-46.4s36,16.5,36,68.8v173.6H541.4L541.4,1123.8L541.4,1123.8z"/>
<path class="st0" d="M979.3,987.6c0-116.7-78-121.2-117-121.2c-85.5,0-132,50.9-132,103.2c0,38.9,19.5,59.9,58.5,59.9
	c30,0,51-25.4,51-55.4c0-23.9-19.5-49.4-45-49.4c-10.5,0-22.5,3-30,4.5c10.5-25.4,42-43.4,72-43.4c31.5,0,39,12,39,85.3v103.3
	c-112.5,19.5-159,64.3-159,194.5c0,109.2,27,145.1,90,145.1c36,0,67.5-16.5,75-50.9c9,35.9,40.5,50.9,78,50.9
	c34.5,0,73.5-13.5,76.5-103.3h-16.5c-3,55.4-15,68.8-25.5,68.8c-9,0-15-3-15-29.9V987.6z M820.3,1164.2c0-46.4,9-62.9,55.5-70.3v211
	c0,35.9,0,70.3-28.5,70.3c-27,0-27-19.5-27-41.9V1164.2z"/>
<path class="st0" d="M979.3,987.6c0-116.7-78-121.2-117-121.2c-85.5,0-132,50.9-132,103.2c0,38.9,19.5,59.9,58.5,59.9
	c30,0,51-25.4,51-55.4c0-23.9-19.5-49.4-45-49.4c-10.5,0-22.5,3-30,4.5c10.5-25.4,42-43.4,72-43.4c31.5,0,39,12,39,85.3v103.3
	c-112.5,19.5-159,64.3-159,194.5c0,109.2,27,145.1,90,145.1c36,0,67.5-16.5,75-50.9c9,35.9,40.5,50.9,78,50.9
	c34.5,0,73.5-13.5,76.5-103.3h-16.5c-3,55.4-15,68.8-25.5,68.8c-9,0-15-3-15-29.9V987.6z M820.3,1164.2c0-46.4,9-62.9,55.5-70.3v211
	c0,35.9,0,70.3-28.5,70.3c-27,0-27-19.5-27-41.9V1164.2z"/>
<path class="st0" d="M1397.7,713.8c-24-37.4-40.5-56.9-90-56.9c-70.5,0-151.5,65.8-151.5,365.1c0,276.8,55.5,393.5,159,393.5
	c69,0,97.5-49.4,132-49.4h30v-288.8h30v-16.5h-181.4v16.5h34.5v263.4c0,53.9-12,58.3-30,58.3c-30,0-43.5-18-43.5-86.8v-582
	c0-22.4,7.5-53.9,30-53.9c37.5,0,82.5,16.5,121.5,293.3h15V655.4h-7.5L1397.7,713.8L1397.7,713.8z"/>
<path class="st0" d="M1655.6,1388.6h-37.5v-395c0-65.8,37.5-112.2,63-112.2c7.5,0,19.5,4.5,24,12c-33,21-49.5,55.4-49.5,92.8
	c0,47.9,19.5,65.8,45,65.8c43.5,0,54-47.9,54-82.3c0-44.9-21-103.2-72-103.2c-42,0-58.5,41.9-70.5,67.3v-59.9h-127.5v16.5h30v498.3
	h-30v14.9h171V1388.6L1655.6,1388.6z"/>
<path class="st0" d="M1996.1,987.6c0-116.7-78-121.2-117-121.2c-85.5,0-132,50.9-132,103.2c0,38.9,18,59.9,57,59.9
	c31.5,0,52.5-25.4,52.5-55.4c0-23.9-19.5-49.4-45-49.4c-12,0-22.5,3-31.5,4.5c12-25.4,43.5-43.4,72-43.4c31.5,0,40.5,12,40.5,85.3
	v103.3c-112.5,19.5-160.5,64.3-160.5,194.5c0,109.2,28.5,145.1,90,145.1c36,0,67.5-16.5,76.5-50.9c7.5,35.9,39,50.9,76.5,50.9
	c34.5,0,73.5-13.5,78-103.3h-16.5c-3,55.4-16.5,68.8-27,68.8c-9,0-13.5-3-13.5-29.9V987.6z M1835.6,1164.2c0-46.4,10.5-62.9,57-70.3
	v211c0,35.9-1.5,70.3-28.5,70.3c-28.5,0-28.5-19.5-28.5-41.9V1164.2L1835.6,1164.2L1835.6,1164.2z"/>
<path class="st0" d="M1996.1,987.6c0-116.7-78-121.2-117-121.2c-85.5,0-132,50.9-132,103.2c0,38.9,18,59.9,57,59.9
	c31.5,0,52.5-25.4,52.5-55.4c0-23.9-19.5-49.4-45-49.4c-12,0-22.5,3-31.5,4.5c12-25.4,43.5-43.4,72-43.4c31.5,0,40.5,12,40.5,85.3
	v103.3c-112.5,19.5-160.5,64.3-160.5,194.5c0,109.2,28.5,145.1,90,145.1c36,0,67.5-16.5,76.5-50.9c7.5,35.9,39,50.9,76.5,50.9
	c34.5,0,73.5-13.5,78-103.3h-16.5c-3,55.4-16.5,68.8-27,68.8c-9,0-13.5-3-13.5-29.9V987.6z M1835.6,1164.2c0-46.4,10.5-62.9,57-70.3
	v211c0,35.9-1.5,70.3-28.5,70.3c-28.5,0-28.5-19.5-28.5-41.9V1164.2L1835.6,1164.2L1835.6,1164.2z"/>
<path class="st0" d="M2363.5,1388.6h-27v-416c0-76.3-27-106.2-73.5-106.2c-40.5,0-57,12-82.5,46.4h-4.5v-38.9h-129v16.5h30v498.3
	h-30v14.9h148.5v-14.9h-15V960.8c0-32.9,16.5-55.4,31.5-55.4c16.5,0,21,7.5,21,31.4v451.9h-15v14.9h145.5V1388.6L2363.5,1388.6
	L2363.5,1388.6z"/>
<path class="st0" d="M2531.4,1306.3c-6,56.9-19.5,76.3-36,76.3c-13.5,0-19.5-4.5-19.5-31.4V890.3h72v-16.5h-72v-178h-10.5
	c-24,77.8-70.5,145.1-129,184v10.5h36v432.4c0,58.3,28.5,91.3,90,91.3c49.5,0,78-20.9,90-107.7L2531.4,1306.3L2531.4,1306.3
	L2531.4,1306.3z"/>
<polygon class="st0" points="1146.9,1725.6 1146.9,1536.6 1185.4,1536.6 1185.4,1511.6 1080.6,1511.6 1080.6,1536.3 1118.7,1536.3 
	1119.1,1725.6 "/>
<path class="st0" d="M1273.4,1651.9c0,0,5.8-89-44-90.3c-53.2-0.5-46.5,83.5-46.7,88.8s-2.7,75.3,41,79s49.7-44.3,49.7-44.3
	l-26.8-1.7c0,0-1.8,25-18.3,25.3c-19.5,0.2-19-56.7-19-56.7L1273.4,1651.9z M1209.1,1633.4c0,0,0.3-50.8,19-50.8
	c18.7,0,18.8,50.8,18.8,50.8H1209.1z"/>
<polygon class="st0" points="1347.1,1643.1 1377.2,1567.3 1377.2,1565.4 1347.1,1565.4 1331.6,1624.6 1315.9,1565.4 1285.4,1565.4 
	1285.4,1567.4 1315.7,1643.6 1283.4,1723.9 1283.4,1725.7 1314.5,1725.7 1331.3,1662.4 1348.4,1725.7 1379.6,1725.7 1379.6,1723.9 
	"/>
<path class="st0" d="M1475,1709.2c-0.1-12.7,0-93,0-93s1.3-46.2-24.8-52.8s-51,3.5-56.5,42.8l26.4,2.1c0,0,2.3-27.9,15.4-25.9
	c13.2,2,13.2,20.3,13.5,40.3c0,0-38.4,4.3-53.1,31.9c-14.7,27.6-5.2,77.4,25.4,74.9c22.7-1.5,28-13.6,28-13.6s0.5,6.3,2.8,9.3
	l26.2,0v-1.5C1478.4,1723.7,1475.1,1721.9,1475,1709.2z M1449.1,1693.6c0,0-4.1,6.5-10.4,10.8c-6.3,3.2-21.6,9.3-22.7-22.8
	c-1.1-32.1,33.1-39.8,33.1-39.8V1693.6z"/>
<path class="st0" d="M1493.1,1695.1l24.7-2.5c0,0,5.8,21.2,23.6,16.8s15.3-24.6,15.2-26.4c-0.1-1.8,1.3-21.3-27.1-30.3
	c-28.4-9-35.1-37.7-34.7-47c0.4-9.3,1.9-44.1,46.1-44.1c34,2,38.4,33.5,38.4,33.5l-22.8,2.3c0,0-4.5-20.2-23.3-15.6
	s-18.3,38.3,12.1,46.9c30.8,12.7,38.2,29.5,38.2,51.3c0,0,1.7,49.7-46.7,49.7C1501.1,1731.7,1493.1,1695.1,1493.1,1695.1z"/>
</svg>
