<?xml version="1.0" encoding="utf-8"?>
<!-- Generator: Adobe Illustrator 21.1.0, SVG Export Plug-In . SVG Version: 6.00 Build 0)  -->
<svg version="1.1" id="Layer_1" xmlns="http://www.w3.org/2000/svg" xmlns:xlink="http://www.w3.org/1999/xlink" x="0px" y="0px"
	 viewBox="0 0 1366 250" style="enable-background:new 0 0 1366 250;" xml:space="preserve">
<style type="text/css">
	.st0{fill:#500000;}
</style>
<g>
	<path class="st0" d="M460.2,187.2h-1.9c-0.2-1.7-0.5-2.9-1.1-3.7c-0.6-0.8-1.2-1.3-1.8-1.5c-0.6-0.2-1.4-0.3-2.2-0.3h-3.4v19.6
		c0,0.8,0.1,1.4,0.2,1.8c0.2,0.4,0.5,0.8,1.1,1c0.6,0.2,1.4,0.4,2.5,0.4v1.8h-13.4v-1.8c1.6,0,2.7-0.2,3.2-0.7
		c0.5-0.5,0.7-1.3,0.7-2.5v-19.6h-2.8c-1.1,0-2,0.1-2.8,0.3c-0.7,0.2-1.4,0.7-1.9,1.5c-0.6,0.8-0.9,2-1,3.7h-1.9v-7.6h26.5
		L460.2,187.2L460.2,187.2z"/>
	<path class="st0" d="M508.6,197.6l-0.2,8.8h-23.9v-1.8c1.6,0,2.7-0.2,3.2-0.7c0.5-0.5,0.7-1.3,0.7-2.5v-16.8c0-0.8-0.1-1.4-0.2-1.8
		c-0.2-0.4-0.5-0.8-1.1-1c-0.6-0.2-1.4-0.4-2.6-0.4v-1.8h22.2l0.4,7h-1.8c-0.4-1.5-0.9-2.6-1.4-3.3c-0.5-0.7-1.1-1.1-1.8-1.2
		c-0.7-0.1-1.7-0.2-3-0.2h-5v9.5h2.7c0.9,0,1.6-0.1,2.1-0.2c0.5-0.2,0.8-0.5,1-0.9c0.2-0.5,0.3-1.2,0.4-2.2h1.9v8.9h-1.8
		c-0.1-1-0.2-1.7-0.4-2.2c-0.2-0.5-0.5-0.8-1-0.9c-0.5-0.2-1.1-0.2-2.1-0.2H494v6.3c0,1.1,0,1.8,0.1,2.3c0.1,0.5,0.2,0.9,0.4,1.2
		s0.6,0.6,1.1,0.7c0.5,0.1,1.3,0.2,2.2,0.2h2.2c0.9,0,1.8-0.1,2.6-0.3c0.8-0.2,1.6-0.8,2.4-1.8c0.8-1,1.3-2.5,1.7-4.5L508.6,197.6
		L508.6,197.6z"/>
	<path class="st0" d="M563.8,206.4h-15.6v-1.8h1.2c0.7,0,1.3-0.1,1.8-0.3c0.5-0.2,0.8-0.6,0.8-1.2c0-0.3-0.3-0.9-1-1.9l-4.3-5.7
		l-4.2,4.9c-1,1.1-1.5,2-1.5,2.5c0,0.5,0.2,0.9,0.5,1.1c0.3,0.2,0.7,0.4,1.2,0.4c0.5,0.1,1.1,0.1,1.9,0.1v1.8h-11.8v-1.8
		c0.9,0,1.6-0.1,2.3-0.4c0.7-0.2,1.4-0.7,2.2-1.4c0.8-0.7,1.9-1.9,3.3-3.4l4.8-5.6l-6.5-8.5c-1-1.3-1.7-2.1-2.1-2.6
		c-0.4-0.5-0.9-0.8-1.5-1c-0.6-0.2-1.4-0.3-2.5-0.3v-1.8h14.6v1.8h-1c-0.7,0-1.3,0.1-1.7,0.2c-0.4,0.1-0.6,0.4-0.6,0.9
		c0,0.3,0.4,1,1.2,2.1l3.7,4.8l4.2-5c0.4-0.5,0.6-0.9,0.8-1.1c0.1-0.2,0.2-0.5,0.2-0.8c0-0.4-0.2-0.7-0.5-0.9
		c-0.3-0.2-0.9-0.3-1.9-0.3H551v-1.8h11.1v1.8c-1,0-1.9,0.2-2.6,0.5c-0.7,0.3-1.4,0.7-1.9,1.3c-0.5,0.5-1.3,1.4-2.4,2.6l-4.8,5.5
		l6.5,8.5c1,1.3,1.8,2.3,2.4,2.9c0.6,0.7,1.3,1.1,1.9,1.4c0.6,0.3,1.5,0.4,2.6,0.5L563.8,206.4L563.8,206.4z"/>
	<path class="st0" d="M615.2,206.4h-12.6v-1.8c1.1,0,1.8-0.1,2.3-0.2c0.5-0.2,0.7-0.5,0.7-1.1c0-0.4-0.1-0.8-0.2-1.2l-1.3-3.2h-8.7
		l-0.6,1.7c-0.4,1-0.6,1.7-0.6,2.1c0,0.8,0.3,1.3,0.9,1.5c0.6,0.2,1.3,0.3,2.1,0.3v1.8h-9.2v-1.8c0.7,0,1.4-0.1,1.9-0.4
		c0.5-0.3,1-0.8,1.5-1.6c0.5-0.8,1-1.9,1.5-3.3l7.7-20.2h1.9l8.2,20.9c0.6,1.5,1,2.5,1.3,3c0.3,0.5,0.7,0.9,1.1,1.2
		c0.5,0.3,1.2,0.4,2.1,0.4L615.2,206.4L615.2,206.4z M603.5,197l-3.7-9.3l-3.5,9.3H603.5z"/>
	<path class="st0" d="M658.2,198.4c0,0.8-0.2,1.7-0.5,2.6c-0.3,0.9-0.9,1.8-1.6,2.6c-0.7,0.8-1.6,1.5-2.7,2
		c-1.1,0.5-2.3,0.8-3.7,0.8c-1.4,0-2.8-0.3-4.1-0.9c-1.4-0.6-2.5-1.5-3.5-2.7c-0.4,1-0.7,1.8-0.8,2.6h-1.8v-9h1.8
		c0.3,1.3,0.8,2.5,1.3,3.6c0.6,1.1,1.4,2.1,2.4,2.9c1,0.8,2.3,1.2,3.8,1.2c1.3,0,2.4-0.4,3.2-1.1c0.8-0.7,1.2-1.6,1.2-2.7
		c0-0.6-0.1-1.2-0.4-1.6c-0.2-0.5-0.6-0.9-1.1-1.2c-0.5-0.4-1.1-0.8-1.9-1.2c-0.8-0.4-1.7-0.9-2.8-1.3c-1.6-0.7-2.9-1.5-3.9-2.3
		c-1-0.8-1.8-1.5-2.3-2.2c-0.5-0.7-0.9-1.4-1.1-2c-0.2-0.6-0.3-1.3-0.3-2c0-1.2,0.3-2.3,0.9-3.5c0.6-1.1,1.6-2.1,2.8-2.8
		c1.2-0.7,2.6-1.1,4.2-1.1c1.2,0,2.4,0.3,3.5,0.8c1.1,0.6,2.1,1.3,2.9,2.3c0.2-0.5,0.4-1.3,0.6-2.3h1.8v7.3h-1.8c-1.3-4-3.5-6-6.7-6
		c-1.2,0-2.1,0.3-2.8,0.9c-0.7,0.6-1.1,1.4-1.1,2.4c0,0.8,0.2,1.4,0.7,2c0.4,0.6,1,1,1.7,1.4c0.7,0.4,1.9,1,3.5,1.7
		c1.9,0.9,3.4,1.7,4.5,2.4c1.1,0.7,2,1.5,2.8,2.5C657.8,195.8,658.2,197,658.2,198.4z"/>
</g>
<g>
	<path class="st0" d="M909.4,181.4c-1.2,0-2.1,0.1-2.6,0.4c-0.5,0.3-0.8,0.7-1,1.2s-0.2,1.3-0.2,2.4v9.9c0,1.8-0.1,3.2-0.2,4.1
		c-0.1,0.9-0.5,1.8-1,2.8c-1,1.8-2.4,3-4.2,3.7c-1.8,0.7-3.5,1-5.2,1c-1.2,0-2.5-0.2-3.8-0.5c-1.3-0.3-2.5-0.8-3.6-1.6
		c-1.1-0.7-2-1.7-2.6-2.9c-0.3-0.7-0.6-1.3-0.7-2c-0.2-0.7-0.3-1.3-0.3-1.9c0-0.6,0-1.3,0-2.3l0-11.2c0-1.2-0.2-2-0.7-2.5
		c-0.5-0.5-1.5-0.7-3.2-0.7v-1.8h13.5v1.8c-1.1,0-2,0.1-2.6,0.4c-0.6,0.2-0.9,0.6-1.1,1c-0.2,0.4-0.3,1-0.3,1.8v11.2
		c0,1.1,0.1,2.2,0.2,3c0.1,0.9,0.3,1.6,0.5,2.3c0.5,1.1,1.2,1.9,2.3,2.6c1.1,0.6,2.3,1,3.5,1c1.4,0,2.7-0.3,3.9-1
		c1.2-0.7,2-1.6,2.5-2.6c0.4-0.9,0.6-1.7,0.7-2.6c0.1-0.9,0.2-2,0.2-3.2v-9.7c0-0.9,0-1.5-0.1-1.9c-0.1-0.4-0.2-0.8-0.4-1.1
		s-0.6-0.6-1.2-0.7c-0.5-0.1-1.3-0.2-2.3-0.2v-1.8h9.9L909.4,181.4L909.4,181.4z"/>
	<path class="st0" d="M963,181.4c-1.3,0-2.2,0.1-2.7,0.4c-0.6,0.3-0.9,0.6-1,1.1c-0.1,0.5-0.2,1.3-0.2,2.4v21.3h-1.8l-17.6-20.9
		v14.8c0,1.1,0.1,1.9,0.2,2.4c0.1,0.5,0.5,0.9,1.1,1.2c0.6,0.3,1.5,0.4,2.8,0.4v1.8h-10v-1.8c1.2,0,2.1-0.2,2.6-0.4s0.9-0.7,1-1.2
		c0.1-0.5,0.2-1.3,0.2-2.4v-13.7c0-1.1,0-1.9-0.1-2.5c-0.1-0.6-0.2-1-0.4-1.4c-0.2-0.4-0.6-0.8-1.1-1c-0.5-0.3-1.2-0.4-2.1-0.5v-1.8
		h7.8l15.3,18v-12.2c0-1-0.1-1.8-0.2-2.3c-0.1-0.5-0.5-1-1-1.2c-0.5-0.3-1.4-0.4-2.6-0.4v-1.8h10L963,181.4L963,181.4z"/>
	<path class="st0" d="M1000.9,206.4h-13.6v-1.8c1.1,0,2-0.1,2.6-0.3c0.6-0.2,1-0.5,1.1-1c0.2-0.4,0.3-1,0.3-1.9v-16.8
		c0-1.2-0.2-2-0.7-2.5c-0.5-0.5-1.6-0.7-3.3-0.7v-1.8h13.6v1.8c-1.1,0-2,0.1-2.6,0.3c-0.6,0.2-1,0.5-1.1,1c-0.2,0.4-0.3,1.1-0.3,1.9
		v16.8c0,0.8,0.1,1.4,0.3,1.8c0.2,0.4,0.5,0.8,1.1,1c0.6,0.3,1.4,0.4,2.6,0.4V206.4z"/>
	<path class="st0" d="M1054.9,181.4c-0.6,0-1.2,0.1-1.6,0.3c-0.5,0.2-0.8,0.4-1.2,0.7c-0.3,0.3-0.6,0.8-0.9,1.4
		c-0.3,0.6-0.7,1.5-1.3,2.7l-8.7,20.4h-1.8l-9.2-21.4c-0.6-1.3-1-2.2-1.3-2.8c-0.3-0.5-0.8-0.9-1.3-1c-0.5-0.2-1.3-0.3-2.3-0.3v-1.8
		h13.6v1.8c-1.3,0.1-2.2,0.2-2.7,0.3c-0.5,0.2-0.7,0.6-0.7,1.2c0,0.6,0.2,1.2,0.5,1.9l6.2,14.3l5.7-13.4c0.5-1.2,0.7-2,0.7-2.4
		c0-0.9-0.3-1.4-0.9-1.6c-0.6-0.2-1.5-0.3-2.7-0.4v-1.8h9.9L1054.9,181.4L1054.9,181.4z"/>
	<path class="st0" d="M1103.3,197.6l-0.2,8.8h-23.9v-1.8c1.7,0,2.7-0.3,3.2-0.7c0.5-0.5,0.7-1.3,0.7-2.5v-16.8
		c0-0.8-0.1-1.4-0.2-1.8c-0.2-0.4-0.5-0.8-1.1-1c-0.6-0.2-1.4-0.4-2.6-0.4v-1.8h22.3l0.3,7h-1.8c-0.4-1.5-0.9-2.6-1.4-3.3
		c-0.5-0.7-1.1-1.1-1.8-1.2c-0.7-0.2-1.7-0.2-3-0.2h-5v9.5h2.7c0.9,0,1.6-0.1,2.1-0.3c0.5-0.2,0.8-0.5,1-0.9
		c0.2-0.5,0.3-1.2,0.4-2.2h1.9v8.9h-1.8c-0.1-1-0.2-1.7-0.4-2.2c-0.2-0.5-0.5-0.8-1-0.9c-0.5-0.2-1.1-0.3-2.1-0.3h-2.8v6.3
		c0,1.1,0,1.8,0.1,2.3c0.1,0.5,0.2,0.9,0.4,1.2c0.2,0.3,0.6,0.6,1.1,0.7c0.5,0.1,1.3,0.2,2.2,0.2h2.2c0.9,0,1.8-0.1,2.6-0.3
		c0.8-0.2,1.6-0.8,2.4-1.8c0.8-1,1.3-2.5,1.7-4.5L1103.3,197.6L1103.3,197.6z"/>
	<path class="st0" d="M1156.5,206.4h-7.2c-0.3-0.3-0.6-0.7-1-1.3c-0.4-0.5-0.8-1.2-1.3-1.9c-0.4-0.7-0.8-1.4-1.1-1.8l-1.8-3
		c-0.8-1.3-1.4-2.3-1.9-2.8c-0.4-0.5-0.9-0.8-1.4-1c-0.5-0.1-1.4-0.2-2.7-0.2h-1v7c0,0.7,0.1,1.3,0.3,1.8c0.1,0.4,0.5,0.8,1.1,1
		c0.6,0.3,1.4,0.4,2.6,0.4v1.8h-13.4v-1.8c1.6,0,2.7-0.3,3.2-0.7c0.5-0.5,0.7-1.3,0.7-2.5v-16.9c0-1.2-0.2-2-0.7-2.4
		c-0.5-0.5-1.5-0.7-3.2-0.7v-1.9l6.2-0.2c0.5,0,1-0.1,1.6-0.1c0.6,0,1.2,0,1.7,0c0.4,0,1.1,0,2,0c1.3,0,2.6,0.1,3.8,0.3
		c1.2,0.1,2.1,0.3,2.7,0.5c1,0.3,1.9,0.7,2.8,1.2c0.9,0.6,1.6,1.4,2.2,2.3c0.6,0.9,0.8,2.1,0.8,3.3c0,0.9-0.2,1.8-0.6,2.6
		c-0.4,0.9-1,1.6-1.9,2.3c-0.9,0.6-2,1.2-3.4,1.6c1,0.6,1.8,1.3,2.4,2.1c0.7,0.8,1.7,2.4,3.2,4.6c0.8,1.3,1.5,2.2,2.1,2.9
		c0.5,0.7,1,1.1,1.5,1.3c0.5,0.2,1,0.4,1.7,0.4V206.4z M1145.4,186.7c0-2.1-0.7-3.5-2-4.3c-1.3-0.7-3-1-5.1-1c-0.3,0-0.5,0-0.7,0
		c-0.2,0-0.3,0-0.6,0v10.8h1.3c2,0,3.7-0.3,5-1C1144.7,190.6,1145.4,189.1,1145.4,186.7z"/>
	<path class="st0" d="M1199.9,198.7c0,0.8-0.2,1.7-0.6,2.6c-0.4,0.9-0.9,1.8-1.6,2.7c-0.7,0.8-1.6,1.5-2.7,2.1
		c-1.1,0.5-2.4,0.8-3.8,0.8c-1.4,0-2.9-0.3-4.3-0.9c-1.4-0.6-2.6-1.5-3.6-2.8c-0.4,1-0.7,1.9-0.8,2.7h-1.8v-9.2h1.8
		c0.3,1.3,0.8,2.6,1.4,3.7c0.6,1.2,1.4,2.2,2.5,3c1,0.8,2.3,1.3,3.9,1.3c1.3,0,2.4-0.4,3.2-1.1c0.8-0.7,1.2-1.7,1.2-2.8
		c0-0.6-0.1-1.2-0.4-1.7c-0.3-0.5-0.6-0.9-1.1-1.3c-0.5-0.4-1.1-0.8-1.9-1.2c-0.8-0.4-1.8-0.9-2.8-1.3c-1.6-0.8-3-1.5-4-2.3
		c-1-0.8-1.8-1.5-2.4-2.3c-0.5-0.7-0.9-1.4-1.1-2.1c-0.2-0.7-0.3-1.3-0.3-2c0-1.2,0.3-2.4,1-3.5c0.7-1.2,1.6-2.1,2.8-2.9
		c1.2-0.7,2.7-1.1,4.3-1.1c1.2,0,2.4,0.3,3.6,0.8c1.1,0.6,2.1,1.3,2.9,2.3c0.3-0.6,0.4-1.3,0.6-2.3h1.8v7.5h-1.8
		c-1.3-4.1-3.6-6.1-6.9-6.1c-1.2,0-2.2,0.3-2.9,0.9c-0.7,0.6-1.1,1.4-1.1,2.4c0,0.8,0.2,1.4,0.7,2c0.4,0.6,1,1.1,1.8,1.5
		c0.7,0.4,1.9,1,3.6,1.8c2,0.9,3.5,1.8,4.6,2.4c1.1,0.7,2.1,1.5,2.8,2.6C1199.5,196,1199.9,197.3,1199.9,198.7z"/>
	<path class="st0" d="M1237.8,206.4h-13.6v-1.8c1.2,0,2-0.1,2.6-0.3c0.6-0.2,1-0.5,1.1-1c0.2-0.4,0.3-1,0.3-1.9v-16.8
		c0-1.2-0.3-2-0.7-2.5c-0.5-0.5-1.6-0.7-3.3-0.7v-1.8h13.6v1.8c-1.1,0-2,0.1-2.6,0.3c-0.6,0.2-1,0.5-1.1,1c-0.2,0.4-0.3,1.1-0.3,1.9
		v16.8c0,0.8,0.1,1.4,0.3,1.8c0.2,0.4,0.5,0.8,1.1,1c0.6,0.3,1.4,0.4,2.6,0.4L1237.8,206.4L1237.8,206.4z"/>
	<path class="st0" d="M1288.6,187.2h-1.9c-0.2-1.7-0.5-2.9-1.1-3.7c-0.6-0.8-1.2-1.3-1.8-1.5c-0.6-0.2-1.4-0.3-2.2-0.3h-3.4v19.6
		c0,0.8,0.1,1.4,0.2,1.8s0.5,0.8,1.1,1c0.6,0.3,1.4,0.4,2.6,0.4v1.8h-13.4v-1.8c1.6,0,2.7-0.3,3.2-0.7c0.5-0.5,0.7-1.3,0.7-2.5
		v-19.6h-2.8c-1.1,0-2.1,0.1-2.8,0.3c-0.7,0.2-1.4,0.7-2,1.5c-0.6,0.8-0.9,2-1,3.7h-1.9v-7.6h26.5L1288.6,187.2L1288.6,187.2z"/>
	<path class="st0" d="M1340.2,181.4c-0.7,0.1-1.3,0.2-1.8,0.5c-0.5,0.3-1,0.7-1.4,1.4c-0.5,0.6-1.2,1.7-2.1,3.1l-5.6,8.7v6.3
		c0,0.7,0.1,1.3,0.2,1.8c0.1,0.4,0.5,0.8,1,1c0.6,0.3,1.4,0.4,2.6,0.4v1.8h-13.5v-1.8c1.1,0,2-0.1,2.5-0.3c0.6-0.2,0.9-0.5,1.1-1
		c0.2-0.4,0.3-1,0.3-1.9v-6l-6.7-11.2c-0.1-0.1-0.1-0.2-0.2-0.3c0-0.1-0.1-0.2-0.1-0.2c-0.6-1-1.1-1.6-1.6-1.9
		c-0.4-0.3-1.1-0.5-2-0.5v-1.8h12.6v1.8c-0.7,0-1.1,0-1.5,0.1c-0.4,0-0.7,0.1-0.9,0.3c-0.2,0.2-0.3,0.5-0.3,0.8
		c0,0.2,0.1,0.6,0.2,0.9c0.2,0.4,0.5,1,1.1,2l4.2,7.1l4-6.3c0.9-1.4,1.3-2.4,1.3-3c0-0.8-0.3-1.3-0.8-1.6c-0.5-0.2-1.3-0.3-2.2-0.3
		v-1.8h9.8L1340.2,181.4L1340.2,181.4z"/>
</g>
<g>
	<path class="st0" d="M725.8,206.4h-12.6v-1.8c1.1,0,1.8-0.1,2.3-0.2c0.5-0.2,0.7-0.5,0.7-1.1c0-0.4-0.1-0.8-0.2-1.2l-1.3-3.2h-8.7
		l-0.7,1.7c-0.4,1-0.5,1.7-0.5,2.1c0,0.8,0.3,1.3,0.9,1.5c0.6,0.2,1.3,0.3,2.1,0.3v1.8h-9.2v-1.8c0.7,0,1.4-0.1,1.9-0.4
		c0.5-0.3,1-0.8,1.5-1.6c0.5-0.8,1-1.9,1.5-3.3l7.7-20.2h1.9l8.2,20.9c0.6,1.5,1,2.5,1.3,3c0.3,0.5,0.7,0.9,1.1,1.2
		c0.5,0.3,1.2,0.4,2.1,0.4V206.4L725.8,206.4z M714,197l-3.7-9.3l-3.5,9.3H714z"/>
	<path class="st0" d="M839.7,206.4h-13.4v-1.8c1.2,0,2-0.1,2.5-0.3c0.5-0.2,0.9-0.6,1.1-1c0.2-0.4,0.2-1,0.2-1.8v-16.8L820,206.4
		h-1.2l-10.2-21.8v15.9c0,0.8,0,1.5,0.1,1.9c0.1,0.4,0.2,0.8,0.4,1.1c0.2,0.3,0.6,0.5,1.2,0.7c0.5,0.1,1.3,0.2,2.2,0.2v1.8h-9.9
		v-1.8c0.9,0,1.7-0.1,2.2-0.2c0.5-0.2,0.9-0.4,1.1-0.7c0.2-0.3,0.4-0.7,0.4-1.1c0.1-0.4,0.1-1.1,0.1-1.9v-15.2c0-1.1-0.1-2-0.2-2.4
		c-0.1-0.5-0.4-0.9-1-1.1c-0.5-0.3-1.4-0.4-2.7-0.4v-1.8h9.8l8.9,18.9l8.9-18.9h9.6v1.8c-1.6,0-2.7,0.2-3.2,0.7
		c-0.5,0.5-0.7,1.3-0.7,2.4v16.8c0,0.7,0.1,1.3,0.2,1.8c0.2,0.4,0.5,0.8,1.1,1c0.6,0.2,1.4,0.4,2.6,0.4L839.7,206.4L839.7,206.4z"/>
	<path class="st0" d="M776.5,202.3L776.5,202.3c-0.8,1.2-1.7,1.8-2.9,1.8c-0.9,0-1.7-0.3-2.5-0.8c-0.8-0.5-1.9-1.8-3.2-3.7
		c0.6-0.8,1.2-2,1.9-3.6c0.8-2,1.6-3.4,2.4-4.1c0.8-0.7,1.7-1.2,2.7-1.5l0.2,0V189h-8.9v1.3l0.2,0c2,0.2,2.9,1,2.9,2.4
		c0,0.6-0.2,1.5-0.6,2.6c-0.4,1-0.9,2-1.6,2.9c-0.4-0.5-6-8.4-6.3-8.7c3.7-1.9,5.6-3.9,5.6-6c0-1.4-0.6-2.5-1.8-3.3
		c-1.2-0.8-2.5-1.3-4-1.3c-1.6,0-3,0.6-4.1,1.7c-1.1,1.1-1.7,2.4-1.7,3.8c0,1.7,0.8,3.7,2.2,5.8c-2.5,1.7-4.2,3.1-5.1,4.2
		c-0.9,1.2-1.4,2.6-1.4,4.3c0,1.5,0.4,2.8,1.1,4c0.8,1.1,1.7,2,2.9,2.7c1.2,0.6,2.4,0.9,3.7,0.9c2.6,0,5.1-1.3,7.4-3.8
		c2,2.5,4.2,3.8,6.8,3.8c1.2,0,2.3-0.3,3.3-1c0.9-0.7,1.6-1.6,1.9-2.7l0.1-0.3H776.5z M758.5,181.2c0.5-0.6,1.2-0.9,2.1-0.9
		c0.9,0,1.6,0.3,2.2,0.9c0.5,0.6,0.8,1.4,0.8,2.4c0,1.6-1.3,3.2-3.7,4.7c-1.5-2.1-2.2-3.8-2.2-5C757.7,182.6,758,181.8,758.5,181.2z
		 M760,203.9c-1.6,0-3-0.7-4.3-2.1c-1.3-1.4-1.9-2.9-1.9-4.5c0-1,0.4-2.1,1.1-3.2c0.7-1,1.7-2,3-2.8c1.9,2.6,4.3,5.9,6.9,9.9
		C763.3,203,761.7,203.9,760,203.9z"/>
</g>
<g>
	<rect x="335.8" y="15.6" class="st0" width="5.6" height="219.2"/>
</g>
<polygon class="st0" points="241.3,89.5 217.3,89.5 215.9,89.5 215.3,90.8 197.8,127.1 180.4,90.7 179.7,89.5 178.4,89.5 
	155.1,89.5 152.9,89.5 152.9,91.7 152.9,104.1 152.9,106.3 155.1,106.3 159.1,106.3 159.1,158.3 154.8,158.3 152.6,158.3 
	152.6,160.5 152.6,172.8 152.6,175.1 154.8,175.1 180.9,175.1 183.1,175.1 183.1,172.8 183.1,160.5 183.1,158.3 180.9,158.3 
	176.4,158.3 176.4,121.4 195.9,161.6 197.8,165.7 199.8,161.6 219.5,121.3 219.5,158.3 215.2,158.3 213,158.3 213,160.5 213,172.8 
	213,175.1 215.2,175.1 241.3,175.1 243.5,175.1 243.5,172.8 243.5,160.5 243.5,158.3 241.3,158.3 236.8,158.3 236.8,106.3 
	241.3,106.3 243.5,106.3 243.5,104.1 243.5,91.7 243.5,89.5 "/>
<path class="st0" d="M89.8,158.2h-6.9L60.3,106h2.1h2.2v-2.2V91.4v-2.2h-2.2H30.6h-2.2v2.2v12.4v2.2h2.2h2.8l-22.6,52.2H3.6H1.4v2.2
	v12.4v2.2h2.2h28.5h2.2v-2.2v-12.4v-2.2h-2.2h-2.6l3.8-8.7h27.2l3.7,8.7h-2.8h-2.2v2.2v12.4v2.2h2.2h28.5H92v-2.2v-12.4v-2.2H89.8z
	 M53.1,132.7H40.5l6.3-14.6L53.1,132.7z"/>
<path class="st0" d="M213.7,24.3H30.6h-2.5v2.5v48.9v2.5h2.5h31.6h2.5v-2.5V57.5h39.1v128.9H85.7h-2.5v2.5v31.6v2.5h2.5h73h2.5v-2.5
	v-31.6v-2.5h-2.5h-18.2V57.5h38.8v17.9V78h2.5h31.8h2.5v-2.6V26.8v-2.5L213.7,24.3L213.7,24.3z M146,201.5l7.7-8v21.8l-7.7-7.4
	V201.5z M133,194.1l-7.7,7.6V42.3l7.7,7.7V194.1z M43.6,39.6l-8-7.7h169.2l-10,7.7H43.6z M208.9,70.9l-7.7-7.4V43.9l7.7-8V70.9z"/>
<g>
	<path class="st0" d="M436.6,55.7H452v31.9h19v13.3h-34.4V55.7z"/>
	<path class="st0" d="M486.6,55.7h21.3l14.3,45.2H506l-2.7-9.8h-13l-2.5,9.8h-15.4L486.6,55.7z M492.4,80.2h8.9L497,65.4h-0.1
		L492.4,80.2z"/>
	<path class="st0" d="M525.1,55.7h23.1l7.4,31.9h0.1V55.7H569v45.2h-22.7l-7.8-32.8h-0.1v32.8h-13.3V55.7z"/>
	<path class="st0" d="M575.6,55.7h22.6c11.5,0,19.6,4.4,19.6,22.7c0,17.1-8.8,22.5-20.3,22.5h-22V55.7z M591,89.6h3.9
		c5.6,0,6.9-4.1,6.9-11.7c0-7.8-1.4-11.8-6.9-11.8H591V89.6z"/>
	<path class="st0" d="M656.2,68c-3.5-1.4-7.5-2.3-11.9-2.3c-2.4,0-6.6,0.1-6.6,3c0,5.9,21.1,0.3,21.1,17.7
		c0,12.1-10.7,15.2-19.6,15.2c-5.9,0-10.8-0.6-16.6-2.1V87.8c4.1,1.9,9.2,3,13.8,3c3.6,0,6.9-0.8,6.9-3.1c0-6.1-21.1-0.6-21.1-18.1
		c0-12.4,11.5-14.6,20.7-14.6c4.3,0,9.1,0.6,13.3,1.6V68z"/>
	<path class="st0" d="M697.7,99.8c-2.9,0.9-7.1,1.8-11.1,1.8c-13.4,0-24.1-7.9-24.1-24c0-15.2,11.2-22.7,24.1-22.7
		c4.3,0,6.8,0.6,10.9,1.4v11.9c-2.5-0.9-5.1-1.7-7.7-1.7c-6.6,0-11.5,4-11.5,11.3c0,7.8,4.6,11.7,11,11.7c2.8,0,5.5-0.6,8.4-1.7
		V99.8z"/>
	<path class="st0" d="M713.2,55.7h21.3l14.3,45.2h-16.2l-2.7-9.8h-13l-2.5,9.8h-15.4L713.2,55.7z M719.1,80.2h8.9l-4.4-14.8h-0.1
		L719.1,80.2z"/>
	<path class="st0" d="M752,55.7h26.6c6.3,0,14.8,3.4,14.8,15.5c0,11.8-6.7,16.6-14.8,16.6h-11.1v13H752V55.7z M767,77.4h3.4
		c3.7,0,7.4-0.8,7.4-5.8c0-4.8-3.7-5.4-7.5-5.4H767V77.4z"/>
	<path class="st0" d="M798.5,55.7h34.9v10.9h-19.8v6.4h18.9v10.9h-18.9V90h20.2v10.9h-35.3V55.7z"/>
	<path class="st0" d="M872.4,55.7h21.3l14.3,45.2h-16.2l-2.7-9.8h-13l-2.5,9.8h-15.4L872.4,55.7z M878.3,80.2h8.9l-4.4-14.8h-0.1
		L878.3,80.2z"/>
	<path class="st0" d="M910.7,55.7h24.9c9.6,0,15.6,3.4,15.6,12c0,6.9-3.9,10.4-9.6,12v0.1c3.3,0.6,5.4,2.5,6.8,4.9
		c2.4,4.8,2.2,11.8,3.8,16.2h-16.1c-0.7-3.2-0.9-10.3-2.1-13c-0.9-2.1-2.5-2.3-4.4-2.3h-3.5v15.4h-15.4V55.7z M925.4,75.4h4
		c3.2,0,6.3-0.4,6.3-5c0-4.1-2.9-4.7-6-4.7h-4.3V75.4z"/>
	<path class="st0" d="M990.6,99.8c-2.9,0.9-7.1,1.8-11.1,1.8c-13.4,0-24.1-7.9-24.1-24c0-15.2,11.2-22.7,24.1-22.7
		c4.3,0,6.8,0.6,10.9,1.4v11.9c-2.5-0.9-5.1-1.7-7.7-1.7c-6.6,0-11.5,4-11.5,11.3c0,7.8,4.6,11.7,11,11.7c2.8,0,5.5-0.6,8.4-1.7
		V99.8z"/>
	<path class="st0" d="M1021.4,55.7h15.4v45.2h-15.4V84.6h-10.3v16.3h-15.4V55.7h15.4v15.6h10.3V55.7z"/>
	<path class="st0" d="M1059.3,55.7v45.2h-15.4V55.7H1059.3z"/>
	<path class="st0" d="M1106.6,69H1093v31.9h-15.4V69H1064V55.7h42.6V69z"/>
	<path class="st0" d="M1110.7,55.7h34.9v10.9h-19.8v6.4h18.9v10.9h-18.9V90h20.2v10.9h-35.3V55.7z"/>
	<path class="st0" d="M1185.2,99.8c-2.9,0.9-7.1,1.8-11.1,1.8c-13.4,0-24.1-7.9-24.1-24c0-15.2,11.2-22.7,24.1-22.7
		c4.3,0,6.8,0.6,10.9,1.4v11.9c-2.5-0.9-5.1-1.7-7.7-1.7c-6.6,0-11.5,4-11.5,11.3c0,7.8,4.6,11.7,11,11.7c2.8,0,5.5-0.6,8.4-1.7
		V99.8z"/>
	<path class="st0" d="M1230.7,69h-13.6v31.9h-15.4V69H1188V55.7h42.6V69z"/>
	<path class="st0" d="M1250.6,82.5c0,4.3,1.1,7.5,4.8,7.5c4,0,4.9-3,4.9-7.4V55.7h15.1v26.6c0,14.6-8,19.4-20.2,19.4
		c-11.2,0-20.1-5.2-20.1-18.5V55.7h15.4V82.5z"/>
	<path class="st0" d="M1281.8,55.7h24.9c9.6,0,15.6,3.4,15.6,12c0,6.9-3.9,10.4-9.6,12v0.1c3.3,0.6,5.4,2.5,6.8,4.9
		c2.4,4.8,2.2,11.8,3.8,16.2h-16.1c-0.7-3.2-0.9-10.3-2.1-13c-0.9-2.1-2.5-2.3-4.4-2.3h-3.5v15.4h-15.4V55.7z M1296.5,75.4h4
		c3.2,0,6.3-0.4,6.3-5c0-4.1-2.9-4.7-6-4.7h-4.3V75.4z"/>
	<path class="st0" d="M1327.7,55.7h34.9v10.9h-19.8v6.4h18.9v10.9h-18.9V90h20.2v10.9h-35.3V55.7z"/>
</g>
<g>
	<path class="st0" d="M484.5,135.5c-1.2,5.8-4,10.3-7.5,14c4.1,3.8,8.2,7.6,12.1,11.7h-19.3l-2.5-2.8c-4,2.7-9.4,3.6-14.1,3.6
		c-8,0-18-2.6-18-13.3c0-5.7,3.8-9.3,8.2-11.3c-3.3-2.3-6-5.3-6-10c0-9.7,8.9-12.1,17.5-12.1c7.5,0,17.5,1.1,17.5,9.9
		c0,5.8-6.3,9.8-10.7,11.5c1.9,1.4,3.7,2.9,5.5,4.4c1.3-1.6,2.3-3.4,2.8-5.4H484.5z M451.5,143.6c-1.4,1.4-2.2,2.5-2.2,4.7
		c0,2.9,2.7,4.2,5.2,4.2c1.7,0,3.5-0.8,4.8-2L451.5,143.6z M459.2,126.4c0-2.4-1.7-3.5-4-3.5s-4.4,1.1-4.4,3.5c0,2.5,2.5,4,4.3,5.2
		C456.9,130.2,459.2,129.1,459.2,126.4z"/>
	<path class="st0" d="M531.1,142.7c0,4.3,1.1,7.5,4.8,7.5c4,0,4.9-3,4.9-7.4v-26.9h15.1v26.6c0,14.6-8,19.4-20.2,19.4
		c-11.2,0-20.1-5.2-20.1-18.5v-27.5h15.4V142.7z"/>
	<path class="st0" d="M562.2,115.9h24.9c9.6,0,15.6,3.4,15.6,12c0,6.9-3.9,10.4-9.6,12v0.1c3.3,0.6,5.4,2.5,6.8,4.9
		c2.4,4.8,2.2,11.8,3.8,16.2h-16.1c-0.7-3.2-0.9-10.3-2.1-13c-0.9-2.1-2.5-2.3-4.4-2.3h-3.5v15.4h-15.4V115.9z M577,135.7h4
		c3.2,0,6.3-0.4,6.3-5c0-4.1-2.9-4.7-6-4.7H577V135.7z"/>
	<path class="st0" d="M608.7,115.9H634c7,0,13.8,2.5,13.8,11.1c0,6.2-2.9,9.5-8.3,11.1v0.1c5.6,0.8,9,5.8,9,10.3
		c0,11.4-8.2,12.6-16.5,12.6h-23.3V115.9z M623.2,133.2h3.9c2.7,0,5.6-0.9,5.6-4.3c0-3.4-2.5-4.4-5.3-4.4h-4.2V133.2z M623.2,151.8
		h4c2.8,0,5.9-1.2,5.9-4.7c0-3.9-2.9-4.6-5.8-4.6h-4.1V151.8z"/>
	<path class="st0" d="M665.1,115.9h21.3l14.3,45.2h-16.2l-2.7-9.8h-13l-2.5,9.8h-15.4L665.1,115.9z M670.9,140.5h8.9l-4.4-14.8h-0.1
		L670.9,140.5z"/>
	<path class="st0" d="M703.6,115.9h23.1l7.4,31.9h0.1v-31.9h13.3v45.2h-22.7l-7.8-32.8h-0.1v32.8h-13.3V115.9z"/>
	<path class="st0" d="M776.6,115.9h26.6c6.3,0,14.8,3.4,14.8,15.5c0,11.8-6.7,16.6-14.8,16.6H792v13h-15.4V115.9z M791.6,137.6h3.4
		c3.7,0,7.4-0.8,7.4-5.8c0-4.8-3.7-5.4-7.5-5.4h-3.3V137.6z"/>
	<path class="st0" d="M823.6,115.9H839v31.9h19v13.3h-34.4V115.9z"/>
	<path class="st0" d="M873.5,115.9h21.3l14.3,45.2h-16.2l-2.7-9.8h-13l-2.5,9.8h-15.4L873.5,115.9z M879.4,140.5h8.9l-4.4-14.8h-0.1
		L879.4,140.5z"/>
	<path class="st0" d="M912,115.9h23.1l7.4,31.9h0.1v-31.9h13.3v45.2h-22.7l-7.8-32.8h-0.1v32.8H912V115.9z"/>
	<path class="st0" d="M962.3,115.9h23.1l7.4,31.9h0.1v-31.9h13.3v45.2h-22.7l-7.8-32.8h-0.1v32.8h-13.3V115.9z"/>
	<path class="st0" d="M1028.3,115.9v45.2h-15.4v-45.2H1028.3z"/>
	<path class="st0" d="M1035,115.9h23.1l7.4,31.9h0.1v-31.9h13.3v45.2h-22.7l-7.8-32.8h-0.1v32.8H1035V115.9z"/>
	<path class="st0" d="M1124.5,159.4c-5.3,1.7-10.3,2.5-16.7,2.5c-13.4,0-24.1-7.9-24.1-24c0-15.2,11.2-22.7,24.1-22.7
		c7.5,0,11.2,0.6,15,1.7V129c-2.2-1.4-6.3-2.6-10.6-2.6c-7.7,0-12.7,4.3-12.7,12.6c0,6.2,2.2,11.7,8.4,11.7c1.1,0,2.4,0,3.3-0.4v-12
		h13.3V159.4z"/>
</g>
</svg>
