<?xml version="1.0" encoding="utf-8"?>
<!-- Generator: Adobe Illustrator 21.1.0, SVG Export Plug-In . SVG Version: 6.00 Build 0)  -->
<svg version="1.1" id="Layer_1" xmlns="http://www.w3.org/2000/svg" xmlns:xlink="http://www.w3.org/1999/xlink" x="0px" y="0px"
	 viewBox="0 0 1366 250" style="enable-background:new 0 0 1366 250;" xml:space="preserve">
<style type="text/css">
	.st0{fill:#500000;}
</style>
<g>
	<g>
		<path class="st0" d="M496,223.3h-2c-0.2-1.8-0.6-3.1-1.2-4c-0.6-0.8-1.3-1.4-2-1.6c-0.7-0.2-1.5-0.3-2.4-0.3h-3.7v21.2
			c0,0.8,0.1,1.5,0.3,2c0.2,0.5,0.6,0.8,1.2,1.1c0.6,0.3,1.5,0.4,2.7,0.4v2h-14.5v-2c1.8,0,2.9-0.3,3.4-0.8c0.5-0.5,0.8-1.4,0.8-2.6
			v-21.2h-3.1c-1.2,0-2.2,0.1-3,0.3c-0.8,0.2-1.5,0.7-2.1,1.6c-0.6,0.9-1,2.2-1,4h-2v-8.2H496L496,223.3L496,223.3z"/>
		<path class="st0" d="M543.8,234.5l-0.2,9.5h-25.7v-2c1.8,0,2.9-0.3,3.4-0.8c0.5-0.5,0.8-1.4,0.8-2.6v-18.2c0-0.8-0.1-1.5-0.2-1.9
			c-0.2-0.5-0.5-0.8-1.1-1.1c-0.6-0.3-1.5-0.4-2.8-0.4v-2h24l0.4,7.5h-2c-0.4-1.7-0.9-2.9-1.5-3.6c-0.6-0.7-1.2-1.2-1.9-1.3
			c-0.7-0.2-1.8-0.2-3.2-0.2h-5.4v10.2h2.9c1,0,1.8-0.1,2.3-0.3c0.5-0.2,0.8-0.5,1-1c0.2-0.5,0.3-1.3,0.4-2.3h2v9.6h-2
			c-0.1-1.1-0.2-1.9-0.4-2.4c-0.2-0.5-0.6-0.8-1.1-1c-0.5-0.2-1.2-0.3-2.2-0.3h-3v6.8c0,1.1,0,2,0.1,2.5c0.1,0.5,0.2,1,0.5,1.3
			c0.3,0.3,0.7,0.6,1.2,0.8c0.6,0.2,1.4,0.2,2.4,0.2h2.3c1,0,1.9-0.1,2.8-0.4c0.9-0.2,1.8-0.9,2.6-1.9c0.9-1,1.5-2.6,1.8-4.8
			L543.8,234.5L543.8,234.5z"/>
		<path class="st0" d="M599.1,244h-16.9v-2h1.3c0.7,0,1.4-0.1,2-0.3c0.6-0.2,0.9-0.6,0.9-1.3c0-0.3-0.4-1-1.1-2l-4.7-6.2l-4.5,5.2
			c-1.1,1.2-1.6,2.1-1.6,2.7c0,0.5,0.2,0.9,0.5,1.2c0.3,0.3,0.8,0.4,1.3,0.5c0.5,0.1,1.2,0.1,2,0.1v2h-12.7v-2
			c0.9,0,1.7-0.2,2.5-0.4c0.7-0.2,1.5-0.7,2.4-1.5c0.9-0.8,2.1-2,3.5-3.7l5.1-6l-7-9.2c-1.1-1.4-1.8-2.3-2.3-2.8
			c-0.5-0.5-1-0.8-1.6-1.1c-0.6-0.2-1.5-0.3-2.6-0.3v-2h15.8v2h-1.1c-0.8,0-1.4,0.1-1.8,0.2c-0.4,0.1-0.6,0.4-0.6,1
			c0,0.3,0.4,1.1,1.3,2.3l4,5.2l4.6-5.4c0.4-0.5,0.7-0.9,0.8-1.1c0.1-0.2,0.2-0.5,0.2-0.8c0-0.5-0.2-0.8-0.5-1s-1-0.3-2-0.3h-1v-2
			h12v2c-1.1,0-2,0.2-2.8,0.5c-0.8,0.3-1.5,0.8-2.1,1.4c-0.6,0.6-1.4,1.5-2.6,2.8l-5.2,5.9l7,9.2c1.1,1.4,1.9,2.4,2.6,3.2
			c0.7,0.7,1.4,1.2,2.1,1.5c0.7,0.3,1.6,0.5,2.8,0.5L599.1,244L599.1,244z"/>
		<path class="st0" d="M650.2,244h-13.6v-2c1.1,0,2-0.1,2.5-0.2c0.5-0.2,0.8-0.6,0.8-1.2c0-0.4-0.1-0.9-0.3-1.3l-1.4-3.4h-9.4
			l-0.7,1.9c-0.4,1.1-0.6,1.8-0.6,2.3c0,0.9,0.3,1.4,1,1.6c0.7,0.2,1.4,0.3,2.3,0.3v2h-10v-2c0.8,0,1.5-0.1,2-0.4
			c0.5-0.3,1.1-0.9,1.6-1.7c0.5-0.8,1-2,1.6-3.5l8.3-21.8h2l8.8,22.5c0.6,1.6,1.1,2.7,1.4,3.2c0.3,0.6,0.7,1,1.2,1.3
			c0.5,0.3,1.3,0.5,2.2,0.5L650.2,244L650.2,244z M637.5,233.9l-4-10.1l-3.8,10.1H637.5z"/>
		<path class="st0" d="M692.2,235.4c0,0.9-0.2,1.8-0.6,2.8c-0.4,1-0.9,1.9-1.7,2.8c-0.8,0.9-1.7,1.6-2.9,2.2c-1.2,0.6-2.5,0.8-4,0.8
			c-1.5,0-3-0.3-4.5-1c-1.5-0.7-2.7-1.6-3.8-2.9c-0.4,1-0.7,2-0.9,2.9H672v-9.7h1.9c0.3,1.4,0.8,2.7,1.4,3.9
			c0.6,1.2,1.5,2.3,2.6,3.2c1.1,0.9,2.5,1.3,4.1,1.3c1.4,0,2.6-0.4,3.4-1.2c0.9-0.8,1.3-1.8,1.3-2.9c0-0.7-0.1-1.2-0.4-1.7
			c-0.3-0.5-0.7-1-1.2-1.3c-0.5-0.4-1.2-0.8-2-1.3c-0.9-0.5-1.9-0.9-3-1.4c-1.7-0.8-3.1-1.6-4.2-2.4c-1.1-0.8-1.9-1.6-2.5-2.4
			c-0.6-0.8-1-1.5-1.2-2.2c-0.2-0.7-0.3-1.4-0.3-2.1c0-1.3,0.3-2.5,1-3.7c0.7-1.2,1.7-2.2,3-3c1.3-0.8,2.8-1.2,4.6-1.2
			c1.3,0,2.6,0.3,3.8,0.9c1.2,0.6,2.2,1.4,3.1,2.4c0.2-0.6,0.5-1.4,0.7-2.5h2v7.9h-2c-1.4-4.3-3.8-6.4-7.3-6.4c-1.2,0-2.3,0.3-3,1
			c-0.8,0.7-1.1,1.5-1.1,2.5c0,0.8,0.2,1.5,0.7,2.1c0.5,0.6,1.1,1.1,1.9,1.5c0.8,0.4,2,1.1,3.7,1.9c2.1,1,3.7,1.8,4.9,2.6
			c1.2,0.7,2.2,1.6,3,2.7C691.8,232.5,692.2,233.9,692.2,235.4z"/>
	</g>
	<g>
		<path class="st0" d="M935.9,217.1c-1.3,0-2.2,0.2-2.8,0.5c-0.6,0.3-0.9,0.7-1,1.3s-0.2,1.4-0.2,2.6V232c0,2-0.1,3.4-0.2,4.4
			c-0.1,1-0.5,2-1.1,3c-1.1,1.9-2.6,3.3-4.5,4c-1.9,0.7-3.8,1.1-5.6,1.1c-1.3,0-2.7-0.2-4.1-0.5c-1.4-0.4-2.7-0.9-3.9-1.7
			c-1.2-0.8-2.1-1.8-2.8-3.1c-0.3-0.7-0.6-1.4-0.8-2.1c-0.2-0.7-0.3-1.4-0.3-2c0-0.6-0.1-1.4-0.1-2.5l0-12c0-1.3-0.3-2.1-0.7-2.7
			c-0.5-0.5-1.6-0.8-3.4-0.8v-1.9h14.6v1.9c-1.2,0-2.2,0.1-2.8,0.4c-0.6,0.3-1,0.6-1.2,1.1c-0.2,0.5-0.3,1.1-0.3,2v12
			c0,1.2,0.1,2.3,0.2,3.3c0.1,0.9,0.3,1.8,0.6,2.4c0.5,1.2,1.3,2.1,2.5,2.8c1.2,0.7,2.4,1,3.8,1c1.5,0,2.9-0.4,4.2-1.1
			c1.3-0.7,2.2-1.7,2.7-2.8c0.4-0.9,0.7-1.9,0.8-2.8c0.1-1,0.2-2.1,0.2-3.5v-10.4c0-0.9,0-1.6-0.1-2.1c-0.1-0.5-0.2-0.9-0.5-1.2
			c-0.3-0.3-0.7-0.6-1.3-0.8c-0.6-0.2-1.4-0.2-2.5-0.2v-1.9h10.7L935.9,217.1L935.9,217.1z"/>
		<path class="st0" d="M989.4,217.1c-1.4,0-2.4,0.1-3,0.4c-0.6,0.3-1,0.7-1.1,1.2c-0.1,0.5-0.2,1.4-0.2,2.6v22.9h-1.9l-18.9-22.5
			v15.9c0,1.2,0.1,2.1,0.2,2.6c0.1,0.5,0.5,1,1.1,1.3c0.6,0.3,1.6,0.5,3,0.5v1.9h-10.8v-1.9c1.3,0,2.2-0.2,2.8-0.5
			c0.6-0.3,0.9-0.7,1.1-1.3c0.1-0.6,0.2-1.4,0.2-2.6V223c0-1.2,0-2.1-0.1-2.7c-0.1-0.6-0.2-1.1-0.5-1.6c-0.2-0.5-0.6-0.8-1.2-1.1
			c-0.6-0.3-1.3-0.5-2.3-0.6v-1.9h8.4l16.5,19.5v-13.2c0-1.1-0.1-1.9-0.2-2.5c-0.2-0.6-0.5-1-1.1-1.3c-0.6-0.3-1.5-0.5-2.8-0.5v-1.9
			h10.8L989.4,217.1L989.4,217.1z"/>
		<path class="st0" d="M1025.9,244h-14.7v-1.9c1.2,0,2.1-0.1,2.8-0.4c0.6-0.2,1-0.6,1.2-1c0.2-0.5,0.3-1.1,0.3-2v-18.2
			c0-1.3-0.3-2.1-0.8-2.7c-0.5-0.5-1.7-0.8-3.5-0.8v-1.9h14.7v1.9c-1.2,0-2.2,0.1-2.8,0.4c-0.6,0.2-1,0.6-1.2,1.1
			c-0.2,0.5-0.3,1.1-0.3,2v18.2c0,0.8,0.1,1.5,0.3,2c0.2,0.5,0.6,0.8,1.2,1.1c0.6,0.3,1.5,0.4,2.8,0.4V244z"/>
		<path class="st0" d="M1079.7,217.1c-0.7,0-1.3,0.1-1.8,0.3c-0.5,0.2-0.9,0.4-1.2,0.8c-0.3,0.4-0.7,0.9-1,1.5
			c-0.3,0.6-0.8,1.6-1.4,3l-9.4,22h-2l-9.9-23.1c-0.6-1.4-1.1-2.4-1.4-3c-0.3-0.5-0.8-0.9-1.4-1.1c-0.6-0.2-1.4-0.3-2.5-0.3v-1.9
			h14.7v1.9c-1.4,0.1-2.4,0.2-2.9,0.3c-0.5,0.2-0.8,0.6-0.8,1.3c0,0.6,0.2,1.3,0.5,2.1l6.7,15.5l6.2-14.4c0.5-1.2,0.8-2.1,0.8-2.6
			c0-0.9-0.3-1.5-1-1.7c-0.6-0.2-1.6-0.4-2.9-0.4v-1.9h10.7L1079.7,217.1L1079.7,217.1z"/>
		<path class="st0" d="M1127.6,234.5l-0.3,9.5h-25.8v-1.9c1.8,0,2.9-0.3,3.5-0.8c0.5-0.5,0.8-1.4,0.8-2.7v-18.2
			c0-0.8-0.1-1.5-0.2-1.9c-0.2-0.5-0.5-0.8-1.2-1.1c-0.6-0.3-1.5-0.4-2.8-0.4v-1.9h24l0.4,7.5h-2c-0.4-1.7-0.9-2.9-1.5-3.6
			c-0.6-0.7-1.2-1.1-1.9-1.3c-0.7-0.2-1.8-0.3-3.2-0.3h-5.4v10.2h2.9c1,0,1.8-0.1,2.3-0.3c0.5-0.2,0.9-0.5,1.1-1
			c0.2-0.5,0.3-1.3,0.4-2.3h2v9.6h-2c-0.1-1.1-0.2-1.9-0.4-2.4c-0.2-0.5-0.6-0.8-1.1-1c-0.5-0.2-1.2-0.3-2.3-0.3h-3v6.8
			c0,1.1,0,2,0.1,2.5c0.1,0.5,0.2,1,0.5,1.3c0.2,0.4,0.7,0.6,1.2,0.8c0.6,0.2,1.4,0.2,2.4,0.2h2.3c1,0,1.9-0.1,2.8-0.4
			c0.9-0.2,1.8-0.9,2.6-1.9c0.9-1,1.4-2.6,1.8-4.9L1127.6,234.5L1127.6,234.5z"/>
		<path class="st0" d="M1180.7,244h-7.7c-0.3-0.3-0.7-0.8-1.1-1.4c-0.4-0.6-0.9-1.3-1.4-2.1c-0.5-0.8-0.9-1.5-1.2-2l-2-3.2
			c-0.9-1.4-1.5-2.4-2-3c-0.4-0.5-0.9-0.9-1.5-1c-0.6-0.2-1.6-0.2-2.9-0.2h-1.1v7.5c0,0.8,0.1,1.4,0.3,1.9c0.2,0.5,0.6,0.9,1.2,1.1
			c0.6,0.3,1.6,0.4,2.8,0.4v1.9h-14.5v-1.9c1.8,0,2.9-0.3,3.4-0.8c0.5-0.5,0.7-1.4,0.7-2.6v-18.2c0-1.2-0.2-2.1-0.7-2.6
			c-0.5-0.5-1.6-0.8-3.4-0.8v-2l6.7-0.2c0.5,0,1.1-0.1,1.8-0.1c0.7,0,1.3,0,1.8,0c0.5,0,1.2,0,2.2,0c1.4,0,2.8,0.1,4,0.3
			c1.3,0.1,2.2,0.3,3,0.5c1.1,0.3,2.1,0.7,3.1,1.3c0.9,0.6,1.7,1.5,2.3,2.5c0.6,1,0.9,2.2,0.9,3.6c0,1-0.2,1.9-0.6,2.8
			c-0.4,0.9-1.1,1.7-2,2.4c-0.9,0.7-2.2,1.3-3.7,1.7c1,0.6,1.9,1.4,2.6,2.3c0.7,0.9,1.8,2.6,3.4,5c0.9,1.4,1.6,2.4,2.2,3.1
			c0.6,0.7,1.1,1.2,1.6,1.4c0.5,0.2,1.1,0.4,1.9,0.5V244z M1168.7,222.8c0-2.3-0.7-3.8-2.1-4.6c-1.4-0.8-3.2-1.1-5.5-1.1
			c-0.3,0-0.6,0-0.7,0c-0.2,0-0.4,0-0.6,0v11.6h1.4c2.2,0,4-0.4,5.4-1.1C1168,227,1168.7,225.4,1168.7,222.8z"/>
		<path class="st0" d="M1223.1,235.7c0,0.9-0.2,1.8-0.6,2.8c-0.4,1-1,2-1.7,2.9c-0.8,0.9-1.8,1.7-2.9,2.2c-1.2,0.6-2.5,0.9-4.1,0.9
			c-1.5,0-3.1-0.3-4.6-1c-1.5-0.7-2.8-1.7-3.8-3c-0.5,1.1-0.7,2-0.9,2.9h-2v-9.9h2c0.4,1.4,0.9,2.8,1.5,4c0.6,1.3,1.5,2.3,2.7,3.2
			c1.1,0.9,2.5,1.4,4.2,1.4c1.4,0,2.6-0.4,3.5-1.2c0.9-0.8,1.3-1.8,1.3-3c0-0.7-0.1-1.3-0.4-1.8c-0.3-0.5-0.7-1-1.2-1.4
			c-0.5-0.4-1.2-0.8-2.1-1.3c-0.9-0.5-1.9-0.9-3-1.4c-1.8-0.8-3.2-1.7-4.3-2.5c-1.1-0.8-2-1.7-2.6-2.4c-0.6-0.8-0.9-1.5-1.2-2.2
			c-0.2-0.7-0.3-1.4-0.3-2.2c0-1.3,0.3-2.6,1-3.8c0.7-1.3,1.7-2.3,3.1-3.1c1.3-0.8,2.9-1.2,4.7-1.2c1.3,0,2.6,0.3,3.9,0.9
			c1.2,0.6,2.3,1.4,3.2,2.5c0.3-0.6,0.5-1.4,0.7-2.5h2v8.1h-2c-1.4-4.4-3.9-6.6-7.4-6.6c-1.3,0-2.3,0.3-3.1,1
			c-0.8,0.7-1.2,1.5-1.2,2.6c0,0.8,0.2,1.6,0.7,2.2c0.5,0.6,1.1,1.1,1.9,1.6c0.8,0.4,2.1,1.1,3.8,1.9c2.1,1,3.8,1.9,5,2.6
			c1.2,0.7,2.2,1.7,3.1,2.8C1222.7,232.8,1223.1,234.1,1223.1,235.7z"/>
		<path class="st0" d="M1259.6,244h-14.7v-1.9c1.2,0,2.2-0.1,2.8-0.4c0.6-0.2,1-0.6,1.2-1c0.2-0.5,0.3-1.1,0.3-2v-18.2
			c0-1.3-0.3-2.1-0.8-2.7c-0.5-0.5-1.7-0.8-3.5-0.8v-1.9h14.7v1.9c-1.2,0-2.1,0.1-2.8,0.4c-0.6,0.2-1,0.6-1.2,1.1
			c-0.2,0.5-0.3,1.1-0.3,2v18.2c0,0.8,0.1,1.5,0.3,2c0.2,0.5,0.6,0.8,1.2,1.1c0.6,0.3,1.6,0.4,2.8,0.4L1259.6,244L1259.6,244z"/>
		<path class="st0" d="M1310.1,223.3h-2c-0.2-1.8-0.6-3.1-1.2-4c-0.6-0.9-1.3-1.4-2-1.6c-0.7-0.2-1.5-0.3-2.4-0.3h-3.7v21.2
			c0,0.9,0.1,1.5,0.3,2c0.2,0.5,0.6,0.8,1.2,1.1c0.6,0.3,1.5,0.4,2.8,0.4v1.9h-14.5v-1.9c1.8,0,2.9-0.3,3.4-0.8
			c0.5-0.5,0.8-1.4,0.8-2.6v-21.2h-3.1c-1.2,0-2.2,0.1-3,0.3c-0.8,0.2-1.5,0.7-2.1,1.6c-0.6,0.9-0.9,2.2-1,4h-2v-8.2h28.6
			L1310.1,223.3L1310.1,223.3z"/>
		<path class="st0" d="M1361.3,217.1c-0.8,0.1-1.4,0.2-2,0.5c-0.5,0.3-1,0.8-1.5,1.5c-0.5,0.7-1.3,1.8-2.3,3.3l-6.1,9.4v6.8
			c0,0.8,0.1,1.4,0.3,1.9c0.1,0.5,0.5,0.8,1.1,1.1c0.6,0.3,1.5,0.4,2.8,0.4v1.9h-14.6v-1.9c1.2,0,2.1-0.1,2.7-0.4
			c0.6-0.2,1-0.6,1.2-1c0.2-0.5,0.3-1.1,0.3-2v-6.5l-7.3-12.1c-0.1-0.1-0.1-0.2-0.2-0.3c0-0.1-0.1-0.2-0.1-0.2c-0.6-1-1.2-1.7-1.7-2
			c-0.5-0.3-1.2-0.5-2.2-0.5v-1.9h13.6v1.9c-0.7,0-1.2,0-1.6,0.1c-0.4,0-0.7,0.2-1,0.3c-0.3,0.2-0.4,0.5-0.4,0.9
			c0,0.3,0.1,0.6,0.3,1c0.2,0.4,0.6,1.1,1.2,2.2l4.5,7.6l4.3-6.8c0.9-1.5,1.4-2.6,1.4-3.2c0-0.9-0.3-1.4-0.9-1.7
			c-0.6-0.2-1.4-0.3-2.4-0.3v-1.9h10.5L1361.3,217.1L1361.3,217.1z"/>
	</g>
	<g>
		<path class="st0" d="M756.4,244h-13.6v-2c1.1,0,2-0.1,2.5-0.2c0.5-0.2,0.8-0.6,0.8-1.2c0-0.4-0.1-0.9-0.3-1.3l-1.4-3.4h-9.4
			l-0.7,1.9c-0.4,1.1-0.6,1.8-0.6,2.3c0,0.9,0.3,1.4,1,1.6c0.7,0.2,1.4,0.3,2.3,0.3v2h-9.9v-2c0.8,0,1.5-0.1,2-0.4
			c0.5-0.3,1.1-0.9,1.6-1.7c0.5-0.8,1-2,1.6-3.5l8.3-21.8h2l8.8,22.5c0.6,1.6,1.1,2.7,1.4,3.2c0.3,0.6,0.7,1,1.2,1.3
			c0.5,0.3,1.3,0.5,2.2,0.5L756.4,244L756.4,244z M743.7,233.9l-4-10.1l-3.8,10.1H743.7z"/>
		<path class="st0" d="M869.4,244h-14.5v-2c1.2,0,2.2-0.1,2.7-0.4c0.6-0.2,1-0.6,1.1-1.1c0.2-0.5,0.3-1.1,0.3-2v-18.1L848.2,244
			h-1.3l-11.1-23.5v17.2c0,0.9,0,1.6,0.1,2.1c0.1,0.5,0.2,0.9,0.5,1.2c0.3,0.3,0.7,0.6,1.2,0.8c0.6,0.2,1.4,0.2,2.4,0.2v2h-10.7v-2
			c1,0,1.8-0.1,2.4-0.3c0.6-0.2,1-0.4,1.2-0.8c0.3-0.3,0.4-0.8,0.5-1.2c0.1-0.5,0.1-1.2,0.1-2.1v-16.4c0-1.2-0.1-2.1-0.2-2.6
			c-0.1-0.5-0.5-1-1.1-1.2c-0.6-0.3-1.5-0.4-2.9-0.4v-2h10.5l9.6,20.4l9.6-20.4h10.3v2c-1.8,0-2.9,0.3-3.4,0.8
			c-0.5,0.5-0.8,1.4-0.8,2.6v18.2c0,0.8,0.1,1.4,0.3,1.9c0.2,0.5,0.6,0.9,1.2,1.1c0.6,0.3,1.5,0.4,2.8,0.4L869.4,244L869.4,244z"/>
		<path class="st0" d="M806.2,239.5L806.2,239.5c-0.9,1.3-1.9,1.9-3.1,1.9c-0.9,0-1.8-0.3-2.6-0.8c-0.8-0.6-2-1.9-3.4-4
			c0.6-0.9,1.3-2.1,2-3.9c0.9-2.2,1.8-3.7,2.6-4.4c0.8-0.8,1.8-1.3,2.9-1.6l0.2-0.1v-1.4h-9.6v1.4l0.2,0c2.1,0.2,3.1,1.1,3.1,2.6
			c0,0.7-0.2,1.6-0.7,2.8c-0.4,1.1-1,2.1-1.7,3.2c-0.4-0.6-6.5-9-6.8-9.4c4-2.1,6.1-4.2,6.1-6.4c0-1.5-0.7-2.7-2-3.6
			c-1.3-0.9-2.7-1.4-4.3-1.4c-1.8,0-3.3,0.6-4.5,1.8c-1.2,1.2-1.8,2.6-1.8,4.1c0,1.9,0.8,4,2.4,6.2c-2.6,1.8-4.5,3.3-5.5,4.5
			c-1,1.3-1.5,2.8-1.5,4.7c0,1.6,0.4,3,1.2,4.3c0.8,1.2,1.9,2.2,3.1,2.9c1.3,0.7,2.6,1,4,1c2.8,0,5.4-1.4,7.9-4.1
			c2.1,2.7,4.6,4.1,7.3,4.1c1.3,0,2.5-0.4,3.5-1.1c1-0.7,1.7-1.8,2-3l0.1-0.3H806.2z M786.8,216.9c0.6-0.6,1.3-0.9,2.3-0.9
			c1,0,1.8,0.3,2.3,1c0.6,0.7,0.9,1.6,0.9,2.6c0,1.8-1.4,3.5-4,5c-1.6-2.2-2.4-4.1-2.4-5.3C785.9,218.3,786.2,217.5,786.8,216.9z
			 M788.4,241.3c-1.7,0-3.3-0.8-4.6-2.3c-1.4-1.5-2.1-3.1-2.1-4.8c0-1.1,0.4-2.2,1.2-3.4c0.7-1.1,1.9-2.1,3.2-3
			c2.1,2.8,4.6,6.3,7.5,10.7C792,240.4,790.3,241.3,788.4,241.3z"/>
	</g>
	<g>
		<rect x="361.8" y="11.9" class="st0" width="6" height="236.5"/>
	</g>
	<polygon class="st0" points="259.8,91.7 233.9,91.7 232.4,91.7 231.7,93 212.9,132.2 194.1,93 193.4,91.7 191.9,91.7 166.8,91.7 
		164.5,91.7 164.5,94.1 164.5,107.4 164.5,109.8 166.8,109.8 171.1,109.8 171.1,165.9 166.5,165.9 164.1,165.9 164.1,168.3 
		164.1,181.6 164.1,184 166.5,184 194.6,184 197,184 197,181.6 197,168.3 197,165.9 194.6,165.9 189.8,165.9 189.8,126.1 
		210.8,169.5 212.9,173.9 215.1,169.5 236.3,126 236.3,165.9 231.7,165.9 229.3,165.9 229.3,168.3 229.3,181.6 229.3,184 231.7,184 
		259.8,184 262.2,184 262.2,181.6 262.2,168.3 262.2,165.9 259.8,165.9 255,165.9 255,109.8 259.8,109.8 262.2,109.8 262.2,107.4 
		262.2,94.1 262.2,91.7 	"/>
	<path class="st0" d="M96.4,165.8h-7.5l-24.4-56.3h2.3h2.4v-2.4V93.8v-2.4h-2.4H32.5h-2.4v2.4v13.4v2.4h2.4h3l-24.4,56.3H3.4H1v2.4
		v13.4v2.4h2.4h30.7h2.4v-2.4v-13.4v-2.4h-2.4h-2.8l4.1-9.4h29.3l4,9.4h-3h-2.4v2.4v13.4v2.4h2.4h30.7h2.4v-2.4v-13.4v-2.4H96.4z
		 M56.8,138.3H43.2l6.8-15.7L56.8,138.3z"/>
	<path class="st0" d="M230,21.3H32.5h-2.7V24v52.8v2.7h2.7h34.1h2.7v-2.7V57.2h42.1v139.1H91.9h-2.7v2.7v34.1v2.7h2.7h78.7h2.7v-2.7
		V199v-2.7h-2.7h-19.6V57.2H193v19.3v2.8h2.7H230h2.7v-2.8V24v-2.7L230,21.3L230,21.3z M157,212.5l8.3-8.6v23.5l-8.3-8V212.5z
		 M143,204.5l-8.3,8.2V40.8l8.3,8.3V204.5z M46.5,37.8l-8.6-8.4h182.5l-10.8,8.4H46.5z M224.9,71.6l-8.3-8V42.4l8.3-8.6V71.6z"/>
	<g>
		<path class="st0" d="M471.6,15.9H532V35h-33.3v12.8H531v19.1h-32.3v28.3h-27.1V15.9z"/>
		<path class="st0" d="M554.5,15.9h37.3l25.2,79.3h-28.4l-4.6-17.1h-22.8l-4.3,17.1h-27L554.5,15.9z M564.8,59h15.7l-7.7-26h-0.2
			L564.8,59z"/>
		<path class="st0" d="M681,93.4c-5.1,1.6-12.5,3.2-19.4,3.2c-23.4,0-42.2-13.9-42.2-42.1c0-26.6,19.6-39.9,42.2-39.9
			c7.5,0,11.9,1,19.2,2.5V38c-4.4-1.6-9-3-13.5-3c-11.5,0-20.2,6.9-20.2,19.9c0,13.6,8.1,20.6,19.3,20.6c4.9,0,9.7-1.1,14.6-3.1
			V93.4z"/>
		<path class="st0" d="M717.2,15.9v79.3h-27.1V15.9H717.2z"/>
		<path class="st0" d="M729.4,15.9h27.1v55.9h33.2v23.4h-60.3V15.9z"/>
		<path class="st0" d="M825.9,15.9v79.3h-27.1V15.9H825.9z"/>
		<path class="st0" d="M908.9,39.3H885v55.9H858V39.3h-23.8V15.9h74.8V39.3z"/>
		<path class="st0" d="M944.1,15.9v79.3h-27.1V15.9H944.1z"/>
		<path class="st0" d="M955.5,15.9h61.1V35h-34.6v11.2h33.1v19.1h-33.1v10.8h35.4v19.1h-61.8V15.9z"/>
		<path class="st0" d="M1084.7,37.6c-6.1-2.4-13.2-4-20.9-4c-4.2,0-11.6,0.1-11.6,5.2c0,10.3,37.1,0.6,37.1,31.1
			c0,21.2-18.7,26.6-34.3,26.6c-10.4,0-19-1.1-29.1-3.7V72.3c7.3,3.4,16.2,5.2,24.2,5.2c6.4,0,12.1-1.5,12.1-5.5
			c0-10.7-37.1-1-37.1-31.8c0-21.8,20.2-25.7,36.3-25.7c7.6,0,16,1,23.3,2.7V37.6z"/>
	</g>
	<g>
		<path class="st0" d="M531,193.3c-5.1,1.6-12.5,3.2-19.4,3.2c-23.4,0-42.2-13.9-42.2-42.1c0-26.6,19.6-39.9,42.2-39.9
			c7.5,0,11.9,1,19.2,2.5v20.9c-4.4-1.6-9-3-13.5-3c-11.5,0-20.2,6.9-20.2,19.9c0,13.6,8.1,20.6,19.3,20.6c4.9,0,9.7-1.1,14.6-3.1
			V193.3z"/>
		<path class="st0" d="M575.9,196.5c-24.6,0-39.1-14-39.1-41c0-26.6,14.4-41,39.1-41c24.6,0,39.4,14.4,39.4,41
			C615.3,182.6,600.6,196.5,575.9,196.5z M575.9,177.4c10.7,0,11-13.4,11.1-21.9c-0.1-7.4-0.8-21.9-11.1-21.9
			c-10,0-10.8,14.5-10.8,21.9C565.1,164,566.2,177.4,575.9,177.4z"/>
		<path class="st0" d="M660.3,196.5c-24.6,0-39.1-14-39.1-41c0-26.6,14.4-41,39.1-41s39.4,14.4,39.4,41
			C699.7,182.6,684.9,196.5,660.3,196.5z M660.3,177.4c10.7,0,11-13.4,11.1-21.9c-0.1-7.4-0.8-21.9-11.1-21.9
			c-10,0-10.8,14.5-10.8,21.9C649.5,164,650.6,177.4,660.3,177.4z"/>
		<path class="st0" d="M707.8,115.9h43.7c16.9,0,27.3,5.9,27.3,21.1c0,12.2-6.8,18.3-16.9,21v0.2c5.9,1.1,9.4,4.3,11.9,8.5
			c4.1,8.4,3.8,20.7,6.7,28.4h-28.2c-1.2-5.7-1.5-18.1-3.7-22.8c-1.6-3.6-4.3-4.1-7.7-4.1h-6.1v26.9h-27.1V115.9z M733.6,150.5h7.1
			c5.6,0,11-0.7,11-8.7c0-7.2-5.2-8.2-10.6-8.2h-7.5V150.5z"/>
		<path class="st0" d="M789.3,115.9H829c20.2,0,34.4,7.7,34.4,39.9c0,30-15.4,39.4-35.6,39.4h-38.6V115.9z M816.4,175.4h6.8
			c9.8,0,12-7.3,12-20.4c0-13.6-2.4-20.7-12.1-20.7h-6.7V175.4z"/>
		<path class="st0" d="M900.8,115.9v79.3h-27.1v-79.3H900.8z"/>
		<path class="st0" d="M912.5,115.9H953l13,55.9h0.2v-55.9h23.2v79.3h-39.8L936,137.7h-0.2v57.5h-23.2V115.9z"/>
		<path class="st0" d="M1019.3,115.9h37.3l25.2,79.3h-28.4l-4.6-17.1h-22.8l-4.3,17.1h-27L1019.3,115.9z M1029.6,158.9h15.7l-7.7-26
			h-0.2L1029.6,158.9z"/>
		<path class="st0" d="M1151.1,139.3h-23.8v55.9h-27.1v-55.9h-23.8v-23.4h74.8V139.3z"/>
		<path class="st0" d="M1186.4,115.9v79.3h-27.1v-79.3H1186.4z"/>
		<path class="st0" d="M1234.6,196.5c-24.6,0-39.1-14-39.1-41c0-26.6,14.4-41,39.1-41c24.6,0,39.4,14.4,39.4,41
			C1274,182.6,1259.2,196.5,1234.6,196.5z M1234.6,177.4c10.7,0,11-13.4,11.1-21.9c-0.1-7.4-0.8-21.9-11.1-21.9
			c-10,0-10.8,14.5-10.8,21.9C1223.8,164,1224.9,177.4,1234.6,177.4z"/>
		<path class="st0" d="M1282.5,115.9h40.5l13,55.9h0.2v-55.9h23.2v79.3h-39.8l-13.7-57.5h-0.2v57.5h-23.2V115.9z"/>
	</g>
</g>
</svg>
