<?xml version="1.0" encoding="utf-8"?>
<!-- Generator: Adobe Illustrator 23.1.0, SVG Export Plug-In . SVG Version: 6.00 Build 0)  -->
<svg version="1.1" id="Layer_1" xmlns="http://www.w3.org/2000/svg" xmlns:xlink="http://www.w3.org/1999/xlink" x="0px" y="0px"
	 viewBox="0 0 272.37 87.33" style="enable-background:new 0 0 272.37 87.33;" xml:space="preserve">
<style type="text/css">
	.st0{fill:#500000;}
	.st1{fill:#FFFFFF;}
	.st2{fill:#B1B3B6;}
	.st3{fill:#231F20;}
	.st4{display:none;}
	.st5{display:inline;}
</style>
<g>
	<g>
		<rect x="12.59" y="12.79" class="st0" width="61.26" height="61.75"/>
		<polygon class="st1" points="65.71,37.37 61.16,37.37 60.9,37.37 60.78,37.6 57.48,44.47 54.17,37.6 54.06,37.37 53.79,37.37 
			49.4,37.37 48.98,37.37 48.98,37.78 48.98,40.13 48.98,40.54 49.4,40.54 50.15,40.54 50.15,50.38 49.34,50.38 48.92,50.38 
			48.92,50.8 48.92,53.14 48.92,53.56 49.34,53.56 54.27,53.56 54.69,53.56 54.69,53.14 54.69,50.8 54.69,50.38 54.27,50.38 
			53.42,50.38 53.42,43.4 57.11,51.01 57.48,51.78 57.86,51.01 61.59,43.38 61.59,50.38 60.78,50.38 60.36,50.38 60.36,50.8 
			60.36,53.14 60.36,53.56 60.78,53.56 65.71,53.56 66.13,53.56 66.13,53.14 66.13,50.8 66.13,50.38 65.71,50.38 64.86,50.38 
			64.86,40.54 65.71,40.54 66.13,40.54 66.13,40.13 66.13,37.78 66.13,37.37 		"/>
		<path class="st1" d="M37.03,50.37h-1.31l-4.27-9.87h0.82v-3.19h-6.86v3.18h0.95l-4.27,9.87H20.3v3.18h6.23v-3.18h-0.91l0.71-1.64
			h5.14l0.71,1.64h-0.96v3.18h6.23v-3.18L37.03,50.37z M30.1,45.55h-2.38l1.19-2.76L30.1,45.55z"/>
		<polygon class="st1" points="60.49,25.02 25.84,25.02 25.36,25.02 25.36,25.5 25.36,34.75 25.36,35.23 25.84,35.23 31.82,35.23 
			32.3,35.23 32.3,34.75 32.3,31.31 39.69,31.31 39.69,55.71 36.25,55.71 35.77,55.71 35.77,56.19 35.77,62.17 35.77,62.65 
			36.25,62.65 50.07,62.65 50.55,62.65 50.55,62.17 50.55,56.19 50.55,55.71 50.07,55.71 46.63,55.71 46.63,31.31 53.98,31.31 
			53.98,34.71 53.98,35.19 54.46,35.19 60.49,35.19 60.96,35.19 60.96,34.71 60.96,25.5 60.96,25.02 		"/>
		<polygon class="st2" points="47.66,58.55 49.12,57.05 49.12,61.18 47.66,59.78 		"/>
		<polygon class="st2" points="45.22,57.16 43.75,58.6 43.75,28.44 45.22,29.9 		"/>
		<polygon class="st2" points="28.29,27.91 26.79,26.44 58.81,26.44 56.92,27.91 		"/>
		<polygon class="st2" points="59.58,33.85 58.12,32.45 58.12,28.72 59.58,27.22 		"/>
		<path class="st0" d="M76.02,73.31c0-0.68,0.55-1.23,1.23-1.23c0.68,0,1.23,0.55,1.23,1.23s-0.55,1.23-1.23,1.23
			C76.57,74.54,76.02,73.99,76.02,73.31L76.02,73.31z M78.18,73.31c-0.03-0.51-0.48-0.9-0.99-0.87c-0.51,0.03-0.9,0.48-0.87,0.99
			c0.03,0.49,0.44,0.87,0.93,0.87c0.52-0.01,0.94-0.43,0.93-0.96C78.18,73.34,78.18,73.33,78.18,73.31z M76.78,72.61h0.52
			c0.34,0,0.51,0.12,0.51,0.41c0.02,0.19-0.12,0.35-0.3,0.37c-0.02,0-0.04,0-0.06,0L77.82,74h-0.27l-0.36-0.61h-0.16v0.6h-0.26
			L76.78,72.61z M77.04,73.21h0.23c0.15,0,0.29-0.02,0.29-0.21s-0.15-0.19-0.28-0.19h-0.23V73.21z"/>
	</g>
	<g>
		<path class="st3" d="M95,30.8h-1.53v-8.04h-2.75v-1.31h7.03v1.31H95V30.8z"/>
		<path class="st3" d="M105.13,30.8h-5.29v-9.35h5.29v1.29h-3.76v2.55h3.52v1.28h-3.52v2.94h3.76V30.8z"/>
		<path class="st3" d="M114.69,30.8h-1.76l-2.34-3.83l-2.36,3.83h-1.64l3.1-4.85l-2.9-4.5h1.7l2.16,3.54l2.16-3.54h1.65l-2.92,4.53
			L114.69,30.8z"/>
		<path class="st3" d="M122.41,30.8l-0.93-2.6h-3.58l-0.91,2.6h-1.61l3.5-9.39h1.66l3.5,9.39H122.41z M121.07,26.89l-0.88-2.55
			c-0.06-0.17-0.15-0.44-0.27-0.81c-0.11-0.37-0.19-0.64-0.23-0.81c-0.12,0.52-0.28,1.1-0.51,1.72l-0.84,2.44H121.07z"/>
		<path class="st3" d="M131.32,28.26c0,0.83-0.3,1.48-0.9,1.96c-0.6,0.47-1.43,0.71-2.49,0.71c-1.06,0-1.92-0.16-2.6-0.49v-1.45
			c0.43,0.2,0.88,0.36,1.36,0.47c0.48,0.12,0.93,0.17,1.34,0.17c0.61,0,1.05-0.12,1.34-0.35c0.29-0.23,0.43-0.54,0.43-0.93
			c0-0.35-0.13-0.65-0.4-0.89c-0.26-0.24-0.81-0.53-1.64-0.86c-0.85-0.35-1.45-0.74-1.8-1.18s-0.52-0.98-0.52-1.6
			c0-0.78,0.28-1.39,0.83-1.84c0.55-0.45,1.3-0.67,2.23-0.67c0.9,0,1.79,0.2,2.67,0.59l-0.49,1.25c-0.83-0.35-1.57-0.52-2.23-0.52
			c-0.49,0-0.87,0.11-1.13,0.32s-0.38,0.5-0.38,0.85c0,0.24,0.05,0.45,0.15,0.62c0.1,0.17,0.27,0.34,0.51,0.49
			c0.23,0.15,0.66,0.36,1.27,0.61c0.69,0.29,1.19,0.55,1.51,0.8c0.32,0.25,0.55,0.53,0.7,0.84
			C131.24,27.48,131.32,27.84,131.32,28.26z"/>
		<path class="st3" d="M143.64,30.8l-0.93-2.6h-3.58l-0.91,2.6h-1.61l3.5-9.39h1.66l3.5,9.39H143.64z M142.3,26.89l-0.88-2.55
			c-0.06-0.17-0.15-0.44-0.27-0.81c-0.11-0.37-0.19-0.64-0.23-0.81c-0.12,0.52-0.28,1.1-0.51,1.72l-0.84,2.44H142.3z"/>
		<path class="st3" d="M146.53,28.33c0-0.56,0.14-1.05,0.41-1.46c0.27-0.42,0.77-0.83,1.48-1.24c-0.41-0.47-0.68-0.87-0.83-1.2
			c-0.15-0.33-0.22-0.66-0.22-1.01c0-0.65,0.23-1.16,0.69-1.54c0.46-0.38,1.08-0.56,1.86-0.56c0.75,0,1.35,0.18,1.78,0.55
			c0.43,0.36,0.65,0.86,0.65,1.47c0,0.49-0.14,0.93-0.43,1.32s-0.77,0.79-1.44,1.19l2.21,2.14c0.35-0.46,0.63-1.13,0.86-2.01h1.55
			c-0.3,1.21-0.78,2.2-1.43,2.96l1.92,1.86h-1.94l-0.95-0.93c-0.44,0.35-0.9,0.61-1.39,0.79c-0.49,0.18-1.04,0.27-1.63,0.27
			c-0.98,0-1.75-0.23-2.31-0.7S146.53,29.13,146.53,28.33z M149.76,29.64c0.78,0,1.45-0.23,2-0.68l-2.45-2.41
			c-0.45,0.29-0.76,0.56-0.93,0.82c-0.17,0.25-0.26,0.54-0.26,0.87c0,0.42,0.15,0.76,0.44,1.02
			C148.86,29.51,149.26,29.64,149.76,29.64z M148.8,23.47c0,0.27,0.07,0.52,0.21,0.76c0.14,0.24,0.34,0.49,0.6,0.76
			c0.48-0.27,0.82-0.53,1.01-0.76c0.19-0.24,0.29-0.5,0.29-0.8c0-0.28-0.09-0.5-0.28-0.67c-0.19-0.17-0.43-0.25-0.74-0.25
			c-0.34,0-0.6,0.09-0.8,0.26S148.8,23.18,148.8,23.47z"/>
		<path class="st3" d="M161.55,30.8l-2.71-7.81h-0.05c0.07,1.16,0.11,2.25,0.11,3.26v4.55h-1.39v-9.35h2.16l2.6,7.44h0.04l2.67-7.44
			h2.16v9.35h-1.47v-4.62c0-0.46,0.01-1.07,0.04-1.82c0.02-0.75,0.04-1.2,0.06-1.36h-0.05l-2.81,7.8H161.55z"/>
		<path class="st3" d="M181.64,21.45v6.05c0,0.69-0.15,1.3-0.44,1.81c-0.3,0.52-0.72,0.92-1.29,1.2c-0.56,0.28-1.23,0.42-2.01,0.42
			c-1.16,0-2.06-0.31-2.71-0.92c-0.64-0.61-0.97-1.46-0.97-2.53v-6.03h1.54v5.92c0,0.77,0.18,1.34,0.54,1.71s0.91,0.55,1.65,0.55
			c1.44,0,2.16-0.76,2.16-2.27v-5.9H181.64z"/>
		<path class="st3" d="M192.48,30.8h-1.87l-4.6-7.45h-0.05l0.03,0.42c0.06,0.79,0.09,1.52,0.09,2.17v4.86h-1.39v-9.35h1.86
			l4.59,7.41h0.04c-0.01-0.1-0.03-0.46-0.05-1.07c-0.03-0.62-0.04-1.1-0.04-1.44v-4.9h1.4V30.8z"/>
		<path class="st3" d="M195.6,30.8v-9.35h1.53v9.35H195.6z"/>
		<path class="st3" d="M205.58,21.45h1.59l-3.28,9.35h-1.61l-3.26-9.35h1.57l1.95,5.81c0.1,0.28,0.21,0.63,0.33,1.07
			s0.19,0.76,0.22,0.98c0.06-0.32,0.14-0.7,0.26-1.13c0.12-0.43,0.21-0.74,0.28-0.95L205.58,21.45z"/>
		<path class="st3" d="M214.35,30.8h-5.29v-9.35h5.29v1.29h-3.76v2.55h3.52v1.28h-3.52v2.94h3.76V30.8z"/>
		<path class="st3" d="M218.56,27.07v3.74h-1.53v-9.35h2.64c1.21,0,2.1,0.23,2.68,0.68c0.58,0.45,0.87,1.13,0.87,2.05
			c0,1.16-0.61,1.99-1.82,2.49l2.64,4.14h-1.74l-2.24-3.74H218.56z M218.56,25.8h1.06c0.71,0,1.23-0.13,1.55-0.4
			c0.32-0.26,0.48-0.66,0.48-1.18c0-0.53-0.17-0.91-0.52-1.14c-0.35-0.23-0.87-0.35-1.56-0.35h-1.01V25.8z"/>
		<path class="st3" d="M231.45,28.26c0,0.83-0.3,1.48-0.9,1.96c-0.6,0.47-1.43,0.71-2.49,0.71s-1.92-0.16-2.6-0.49v-1.45
			c0.43,0.2,0.88,0.36,1.36,0.47s0.93,0.17,1.34,0.17c0.61,0,1.05-0.12,1.34-0.35c0.29-0.23,0.43-0.54,0.43-0.93
			c0-0.35-0.13-0.65-0.4-0.89c-0.26-0.24-0.81-0.53-1.64-0.86c-0.85-0.35-1.46-0.74-1.8-1.18s-0.52-0.98-0.52-1.6
			c0-0.78,0.28-1.39,0.83-1.84c0.55-0.45,1.3-0.67,2.23-0.67c0.9,0,1.79,0.2,2.67,0.59l-0.49,1.25c-0.83-0.35-1.57-0.52-2.23-0.52
			c-0.49,0-0.87,0.11-1.13,0.32s-0.38,0.5-0.38,0.85c0,0.24,0.05,0.45,0.15,0.62s0.27,0.34,0.5,0.49s0.66,0.36,1.27,0.61
			c0.69,0.29,1.19,0.55,1.51,0.8c0.32,0.25,0.55,0.53,0.7,0.84C231.37,27.48,231.45,27.84,231.45,28.26z"/>
		<path class="st3" d="M233.91,30.8v-9.35h1.53v9.35H233.91z"/>
		<path class="st3" d="M241.79,30.8h-1.53v-8.04h-2.75v-1.31h7.03v1.31h-2.75V30.8z"/>
		<path class="st3" d="M249.27,25.72l2.21-4.27h1.66l-3.12,5.72v3.63h-1.54v-3.58l-3.1-5.78h1.66L249.27,25.72z"/>
	</g>
	<g>
		<path class="st3" d="M101.46,51.44h6.31v9.03c-0.98,0.31-1.98,0.55-3,0.71s-2.19,0.24-3.53,0.24c-2.81,0-5-0.84-6.56-2.51
			s-2.35-4.01-2.35-7.03c0-1.93,0.39-3.62,1.16-5.07s1.89-2.56,3.35-3.33s3.16-1.15,5.12-1.15c1.98,0,3.83,0.36,5.54,1.09l-0.84,1.9
			c-1.68-0.71-3.29-1.07-4.84-1.07c-2.26,0-4.02,0.67-5.29,2.02s-1.9,3.21-1.9,5.6c0,2.51,0.61,4.41,1.83,5.7s3.02,1.94,5.39,1.94
			c1.29,0,2.54-0.15,3.77-0.44v-5.71h-4.15V51.44z"/>
		<path class="st3" d="M117.39,61.42c-2.06,0-3.68-0.63-4.87-1.88s-1.78-2.99-1.78-5.22c0-2.24,0.55-4.02,1.66-5.34
			s2.59-1.98,4.45-1.98c1.74,0,3.12,0.57,4.14,1.72s1.52,2.66,1.52,4.54v1.33h-9.58c0.04,1.63,0.46,2.87,1.24,3.72
			s1.89,1.27,3.31,1.27c1.5,0,2.98-0.31,4.44-0.94v1.88c-0.74,0.32-1.45,0.55-2.11,0.69S118.33,61.42,117.39,61.42z M116.82,48.76
			c-1.12,0-2.01,0.36-2.67,1.09s-1.06,1.73-1.17,3.02h7.27c0-1.33-0.3-2.35-0.89-3.05S117.92,48.76,116.82,48.76z"/>
		<path class="st3" d="M137.72,54.19c0,2.27-0.57,4.04-1.71,5.31s-2.72,1.91-4.73,1.91c-1.24,0-2.35-0.29-3.31-0.88
			c-0.96-0.58-1.71-1.42-2.23-2.51s-0.79-2.37-0.79-3.83c0-2.27,0.57-4.04,1.7-5.3s2.71-1.9,4.72-1.9c1.95,0,3.49,0.65,4.64,1.94
			S137.72,51.98,137.72,54.19z M127.12,54.19c0,1.78,0.36,3.13,1.07,4.06c0.71,0.93,1.76,1.4,3.14,1.4c1.38,0,2.43-0.46,3.14-1.39
			c0.71-0.93,1.07-2.28,1.07-4.07c0-1.77-0.36-3.11-1.07-4.03c-0.72-0.92-1.77-1.38-3.17-1.38c-1.38,0-2.42,0.45-3.12,1.36
			C127.47,51.05,127.12,52.4,127.12,54.19z"/>
		<path class="st3" d="M141.34,61.16V42.6h2.16v18.56H141.34z"/>
		<path class="st3" d="M157.41,61.16v-9c0-1.13-0.26-1.98-0.77-2.54s-1.32-0.84-2.42-0.84c-1.46,0-2.52,0.39-3.2,1.18
			s-1.02,2.09-1.02,3.9v7.3h-2.11V47.25h1.71l0.34,1.9h0.1c0.43-0.69,1.04-1.22,1.82-1.59s1.65-0.56,2.6-0.56
			c1.68,0,2.94,0.4,3.78,1.21s1.27,2.1,1.27,3.88v9.08H157.41z"/>
		<path class="st3" d="M172.97,61.16v-9c0-1.13-0.26-1.98-0.77-2.54s-1.32-0.84-2.42-0.84c-1.46,0-2.52,0.39-3.2,1.18
			s-1.02,2.09-1.02,3.9v7.3h-2.11V47.25h1.71l0.34,1.9h0.1c0.43-0.69,1.04-1.22,1.82-1.59s1.65-0.56,2.6-0.56
			c1.68,0,2.94,0.4,3.78,1.21s1.27,2.1,1.27,3.88v9.08H172.97z"/>
		<path class="st3" d="M191.03,54.19c0,2.27-0.57,4.04-1.71,5.31s-2.72,1.91-4.74,1.91c-1.24,0-2.35-0.29-3.31-0.88
			s-1.71-1.42-2.23-2.51s-0.79-2.37-0.79-3.83c0-2.27,0.57-4.04,1.7-5.3s2.71-1.9,4.72-1.9c1.95,0,3.49,0.65,4.64,1.94
			C190.46,50.23,191.03,51.98,191.03,54.19z M180.43,54.19c0,1.78,0.36,3.13,1.07,4.06s1.76,1.4,3.14,1.4s2.43-0.46,3.14-1.39
			c0.71-0.93,1.07-2.28,1.07-4.07c0-1.77-0.36-3.11-1.07-4.03c-0.72-0.92-1.77-1.38-3.17-1.38c-1.38,0-2.42,0.45-3.12,1.36
			S180.43,52.4,180.43,54.19z"/>
		<path class="st3" d="M197.38,61.16l-5.28-13.91h2.26l3,8.25c0.68,1.93,1.08,3.18,1.19,3.76h0.1c0.09-0.45,0.39-1.38,0.88-2.79
			c0.49-1.41,1.61-4.48,3.33-9.22h2.26l-5.28,13.91H197.38z"/>
		<path class="st3" d="M215.53,61.16l-0.42-1.98h-0.1c-0.69,0.87-1.39,1.46-2.08,1.77c-0.69,0.31-1.55,0.46-2.58,0.46
			c-1.38,0-2.46-0.36-3.24-1.07c-0.78-0.71-1.17-1.72-1.17-3.03c0-2.81,2.25-4.28,6.74-4.42l2.36-0.08v-0.86
			c0-1.09-0.24-1.9-0.7-2.42c-0.47-0.52-1.22-0.78-2.25-0.78c-1.16,0-2.47,0.36-3.94,1.07l-0.65-1.61c0.69-0.37,1.44-0.66,2.25-0.88
			c0.82-0.21,1.64-0.32,2.46-0.32c1.66,0,2.89,0.37,3.69,1.1c0.8,0.74,1.2,1.92,1.2,3.54v9.5H215.53z M210.77,59.68
			c1.31,0,2.34-0.36,3.09-1.08c0.75-0.72,1.12-1.73,1.12-3.02v-1.26l-2.11,0.09c-1.68,0.06-2.88,0.32-3.62,0.78
			c-0.74,0.46-1.11,1.18-1.11,2.15c0,0.76,0.23,1.34,0.69,1.74C209.29,59.48,209.94,59.68,210.77,59.68z"/>
		<path class="st3" d="M225.53,59.68c0.37,0,0.73-0.03,1.08-0.08s0.62-0.11,0.83-0.17v1.61c-0.23,0.11-0.56,0.2-1.01,0.27
			c-0.44,0.07-0.84,0.11-1.2,0.11c-2.69,0-4.04-1.42-4.04-4.25v-8.28h-1.99v-1.02l1.99-0.88l0.89-2.97h1.22v3.22h4.04v1.64h-4.04
			v8.19c0,0.84,0.2,1.48,0.6,1.93S224.84,59.68,225.53,59.68z"/>
		<path class="st3" d="M229.65,43.48c0-0.48,0.12-0.84,0.36-1.06s0.53-0.34,0.89-0.34c0.34,0,0.63,0.11,0.88,0.34
			s0.37,0.58,0.37,1.05s-0.12,0.83-0.37,1.06s-0.54,0.35-0.88,0.35c-0.36,0-0.65-0.12-0.89-0.35S229.65,43.95,229.65,43.48z
			 M231.94,61.16h-2.11V47.25h2.11V61.16z"/>
		<path class="st3" d="M248.02,54.19c0,2.27-0.57,4.04-1.71,5.31s-2.72,1.91-4.74,1.91c-1.24,0-2.35-0.29-3.31-0.88
			s-1.71-1.42-2.23-2.51s-0.79-2.37-0.79-3.83c0-2.27,0.57-4.04,1.7-5.3s2.71-1.9,4.72-1.9c1.95,0,3.49,0.65,4.64,1.94
			C247.45,50.23,248.02,51.98,248.02,54.19z M237.42,54.19c0,1.78,0.36,3.13,1.07,4.06s1.76,1.4,3.14,1.4s2.43-0.46,3.14-1.39
			c0.71-0.93,1.07-2.28,1.07-4.07c0-1.77-0.36-3.11-1.07-4.03c-0.72-0.92-1.77-1.38-3.17-1.38c-1.38,0-2.42,0.45-3.12,1.36
			S237.42,52.4,237.42,54.19z"/>
		<path class="st3" d="M260.85,61.16v-9c0-1.13-0.26-1.98-0.77-2.54s-1.32-0.84-2.42-0.84c-1.46,0-2.52,0.39-3.2,1.18
			s-1.02,2.09-1.02,3.9v7.3h-2.11V47.25h1.71l0.34,1.9h0.1c0.43-0.69,1.04-1.22,1.82-1.59c0.78-0.38,1.65-0.56,2.6-0.56
			c1.68,0,2.94,0.4,3.78,1.21s1.27,2.1,1.27,3.88v9.08H260.85z"/>
	</g>
</g>
<g class="st4">
	<g class="st5">
		<rect x="12.87" y="12.99" class="st0" width="61.17" height="61.57"/>
		<polygon class="st1" points="65.86,37.54 61.37,37.54 61.07,37.54 60.97,37.74 57.67,44.63 54.38,37.74 54.28,37.54 53.98,37.54 
			49.59,37.54 49.19,37.54 49.19,37.94 49.19,40.24 49.19,40.64 49.59,40.64 50.29,40.64 50.29,50.52 49.49,50.52 49.09,50.52 
			49.09,50.91 49.09,53.21 49.09,53.71 49.49,53.71 54.48,53.71 54.88,53.71 54.88,53.21 54.88,50.91 54.88,50.52 54.48,50.52 
			53.58,50.52 53.58,43.53 57.28,51.11 57.67,51.91 58.07,51.11 61.77,43.53 61.77,50.52 60.97,50.52 60.57,50.52 60.57,50.91 
			60.57,53.21 60.57,53.71 60.97,53.71 65.86,53.71 66.26,53.71 66.26,53.21 66.26,50.91 66.26,50.52 65.86,50.52 65.06,50.52 
			65.06,40.64 65.86,40.64 66.26,40.64 66.26,40.24 66.26,37.94 66.26,37.54 		"/>
		<path class="st1" d="M37.22,50.52h-1.3l-4.29-9.88h0.8v-3.19h-6.89v3.19h0.9l-4.29,9.88h-1.8v3.19h6.19v-3.19h-0.9l0.7-1.6h5.09
			l0.7,1.6h-1v3.19h6.19v-3.19H37.22z M30.33,45.63h-2.4l1.2-2.79L30.33,45.63z"/>
		<polygon class="st1" points="60.67,25.17 26.04,25.17 25.64,25.17 25.64,25.67 25.64,34.95 25.64,35.35 26.04,35.35 32.03,35.35 
			32.53,35.35 32.53,34.95 32.53,31.45 39.91,31.45 39.91,55.8 36.52,55.8 36.02,55.8 36.02,56.3 36.02,62.29 36.02,62.69 
			36.52,62.69 50.29,62.69 50.69,62.69 50.69,62.29 50.69,56.3 50.69,55.8 50.29,55.8 46.8,55.8 46.8,31.45 54.18,31.45 
			54.18,34.85 54.18,35.35 54.68,35.35 60.67,35.35 61.17,35.35 61.17,34.85 61.17,25.67 61.17,25.17 		"/>
		<polygon class="st2" points="47.89,58.7 49.29,57.1 49.29,61.29 47.89,59.9 		"/>
		<polygon class="st2" points="45.4,57.3 44,58.7 44,28.56 45.4,30.06 		"/>
		<polygon class="st2" points="28.53,28.06 27.04,26.56 58.97,26.56 57.08,28.06 		"/>
		<polygon class="st2" points="59.77,33.95 58.27,32.55 58.27,28.86 59.77,27.36 		"/>
		<path class="st0" d="M76.14,73.37c0-0.7,0.6-1.2,1.2-1.2c0.7,0,1.2,0.6,1.2,1.2c0,0.6-0.6,1.2-1.2,1.2S76.14,74.07,76.14,73.37
			L76.14,73.37z M78.33,73.37c0-0.5-0.5-0.9-1-0.9s-0.9,0.5-0.9,1c0,0.5,0.4,0.9,0.9,0.9C77.93,74.37,78.33,73.97,78.33,73.37
			L78.33,73.37z M76.93,72.67h0.5c0.3,0,0.5,0.1,0.5,0.4c0,0.2-0.1,0.4-0.3,0.4c0,0,0,0-0.1,0l0.4,0.6h-0.3l-0.4-0.6h-0.1v0.6h-0.3
			L76.93,72.67z M77.13,73.27h0.2c0.2,0,0.3,0,0.3-0.2s-0.1-0.2-0.3-0.2h-0.2V73.27z"/>
	</g>
	<g class="st5">
		<path class="st3" d="M95.1,30.96h-1.5v-7.98h-2.79v-1.3h6.99v1.3H95.1V30.96z"/>
		<path class="st3" d="M105.18,30.96h-5.29v-9.38h5.29v1.3h-3.79v2.49h3.49v1.3h-3.49v2.89h3.79V30.96z"/>
		<path class="st3" d="M114.76,30.96h-1.8l-2.3-3.79l-2.4,3.79h-1.6l3.09-4.79l-2.89-4.49h1.7l2.2,3.49l2.2-3.49h1.6l-2.89,4.49
			L114.76,30.96z"/>
		<path class="st3" d="M122.44,30.96l-0.9-2.59h-3.59l-0.9,2.59h-1.6l3.49-9.38h1.7l3.49,9.38H122.44z M121.14,27.06l-0.9-2.49
			c-0.1-0.2-0.2-0.4-0.3-0.8c-0.1-0.4-0.2-0.6-0.2-0.8c-0.1,0.5-0.3,1.1-0.5,1.7l-0.8,2.4C118.45,27.06,121.14,27.06,121.14,27.06z"
			/>
		<path class="st3" d="M131.32,28.46c0,0.8-0.3,1.5-0.9,2s-1.4,0.7-2.49,0.7c-1.1,0-1.9-0.2-2.59-0.5v-1.5c0.4,0.2,0.9,0.4,1.4,0.5
			s0.9,0.2,1.3,0.2c0.6,0,1.1-0.1,1.3-0.3c0.3-0.2,0.4-0.5,0.4-0.9c0-0.3-0.1-0.6-0.4-0.9c-0.3-0.2-0.8-0.5-1.6-0.9
			c-0.9-0.3-1.5-0.7-1.8-1.2c-0.3-0.5-0.5-1-0.5-1.6c0-0.8,0.3-1.4,0.8-1.8c0.6-0.4,1.3-0.7,2.2-0.7c0.9,0,1.8,0.2,2.69,0.6
			l-0.5,1.2c-0.8-0.3-1.6-0.5-2.2-0.5c-0.5,0-0.9,0.1-1.1,0.3c-0.2,0.2-0.4,0.5-0.4,0.9c0,0.2,0.1,0.5,0.2,0.6
			c0.1,0.2,0.3,0.3,0.5,0.5c0.2,0.2,0.7,0.4,1.3,0.6c0.7,0.3,1.2,0.6,1.5,0.8c0.3,0.2,0.6,0.5,0.7,0.8
			C131.22,27.66,131.32,27.96,131.32,28.46z"/>
		<path class="st3" d="M143.6,30.96l-0.9-2.59h-3.59l-0.9,2.59h-1.6l3.49-9.38h1.7l3.49,9.38H143.6z M142.3,27.06l-0.9-2.49
			c-0.1-0.2-0.2-0.4-0.3-0.8c-0.1-0.4-0.2-0.6-0.2-0.8c-0.1,0.5-0.3,1.1-0.5,1.7l-0.8,2.4C139.6,27.06,142.3,27.06,142.3,27.06z"/>
		<path class="st3" d="M146.49,28.46c0-0.6,0.1-1,0.4-1.5c0.3-0.4,0.8-0.8,1.5-1.2c-0.4-0.5-0.7-0.9-0.8-1.2c-0.1-0.3-0.2-0.7-0.2-1
			c0-0.6,0.2-1.2,0.7-1.5c0.5-0.4,1.1-0.6,1.9-0.6c0.8,0,1.3,0.2,1.8,0.5c0.4,0.4,0.6,0.9,0.6,1.5c0,0.5-0.1,0.9-0.4,1.3
			c-0.3,0.4-0.8,0.8-1.4,1.2l2.2,2.1c0.3-0.5,0.6-1.1,0.9-2h1.5c-0.3,1.2-0.8,2.2-1.4,2.99l1.9,1.9h-1.9l-1-0.9
			c-0.4,0.4-0.9,0.6-1.4,0.8c-0.5,0.2-1,0.3-1.6,0.3c-1,0-1.8-0.2-2.3-0.7S146.49,29.26,146.49,28.46z M149.78,29.76
			c0.8,0,1.4-0.2,2-0.7l-2.4-2.4c-0.5,0.3-0.8,0.6-0.9,0.8c-0.2,0.3-0.3,0.5-0.3,0.9s0.1,0.8,0.4,1
			C148.89,29.66,149.28,29.76,149.78,29.76z M148.79,23.67c0,0.3,0.1,0.5,0.2,0.8c0.1,0.2,0.3,0.5,0.6,0.8c0.5-0.3,0.8-0.5,1-0.8
			c0.2-0.2,0.3-0.5,0.3-0.8c0-0.3-0.1-0.5-0.3-0.7c-0.2-0.2-0.4-0.2-0.7-0.2c-0.3,0-0.6,0.1-0.8,0.3
			C148.89,23.27,148.79,23.37,148.79,23.67z"/>
		<path class="st3" d="M161.46,30.96l-2.69-7.78h-0.1c0.1,1.2,0.1,2.2,0.1,3.29v4.49h-1.4v-9.38h2.2l2.59,7.38l0,0l2.69-7.38h2.2
			v9.38h-1.5v-4.59c0-0.5,0-1.1,0-1.8s0-1.2,0.1-1.4h-0.1l-2.79,7.78H161.46z"/>
		<path class="st3" d="M181.52,21.67v6.09c0,0.7-0.1,1.3-0.4,1.8c-0.3,0.5-0.7,0.9-1.3,1.2s-1.2,0.4-2,0.4c-1.2,0-2.1-0.3-2.69-0.9
			c-0.6-0.6-1-1.5-1-2.49v-5.99h1.5v5.89c0,0.8,0.2,1.3,0.5,1.7c0.3,0.4,0.9,0.6,1.7,0.6c1.4,0,2.2-0.8,2.2-2.3v-5.89h1.5V21.67z"/>
		<path class="st3" d="M192.4,30.96h-1.9l-4.59-7.48l0,0v0.4c0.1,0.8,0.1,1.5,0.1,2.2v4.89h-1.4v-9.38h1.9l4.59,7.38l0,0
			c0-0.1,0-0.5-0.1-1.1c0-0.6,0-1.1,0-1.4v-4.89h1.4V30.96z"/>
		<path class="st3" d="M195.49,30.96v-9.38h1.5v9.38H195.49z"/>
		<path class="st3" d="M205.47,21.67h1.6l-3.29,9.38h-1.6l-3.29-9.38h1.6l2,5.79c0.1,0.3,0.2,0.6,0.3,1.1c0.1,0.5,0.2,0.8,0.2,1
			c0.1-0.3,0.1-0.7,0.3-1.1c0.1-0.4,0.2-0.7,0.3-0.9L205.47,21.67z"/>
		<path class="st3" d="M214.15,30.96h-5.29v-9.38h5.29v1.3h-3.79v2.49h3.49v1.3h-3.49v2.89h3.79V30.96z"/>
		<path class="st3" d="M218.44,27.26v3.69h-1.6v-9.38h2.59c1.2,0,2.1,0.2,2.69,0.7c0.6,0.5,0.9,1.1,0.9,2c0,1.2-0.6,2-1.8,2.49
			l2.59,4.09h-1.7l-2.2-3.69h-1.5V27.26z M218.44,25.97h1.1c0.7,0,1.2-0.1,1.5-0.4c0.3-0.3,0.5-0.7,0.5-1.2s-0.2-0.9-0.5-1.1
			c-0.3-0.2-0.9-0.3-1.6-0.3h-1V25.97z"/>
		<path class="st3" d="M231.22,28.46c0,0.8-0.3,1.5-0.9,2s-1.4,0.7-2.49,0.7s-1.9-0.2-2.59-0.5v-1.5c0.4,0.2,0.9,0.4,1.4,0.5
			s0.9,0.2,1.3,0.2c0.6,0,1.1-0.1,1.3-0.3c0.3-0.2,0.4-0.5,0.4-0.9c0-0.3-0.1-0.6-0.4-0.9c-0.3-0.2-0.8-0.5-1.6-0.9
			c-0.9-0.3-1.5-0.7-1.8-1.2c-0.3-0.5-0.5-1-0.5-1.6c0-0.8,0.3-1.4,0.8-1.8c0.6-0.4,1.3-0.7,2.2-0.7s1.8,0.2,2.69,0.6l-0.5,1.2
			c-0.8-0.3-1.6-0.5-2.2-0.5c-0.5,0-0.9,0.1-1.1,0.3c-0.2,0.2-0.4,0.5-0.4,0.9c0,0.2,0.1,0.5,0.2,0.6c0.1,0.1,0.3,0.3,0.5,0.5
			c0.2,0.2,0.7,0.4,1.3,0.6c0.7,0.3,1.2,0.6,1.5,0.8c0.3,0.2,0.6,0.5,0.7,0.8C231.22,27.66,231.22,27.96,231.22,28.46z"/>
		<path class="st3" d="M233.71,30.96v-9.38h1.5v9.38H233.71z"/>
		<path class="st3" d="M241.59,30.96h-1.5v-7.98h-2.79v-1.3h6.99v1.3h-2.79v7.98H241.59z"/>
		<path class="st3" d="M249.08,25.87l2.2-4.29h1.7l-3.09,5.69v3.59h-1.5v-3.59l-3.09-5.79h1.7L249.08,25.87z"/>
	</g>
	<g class="st5">
		<path class="st3" d="M93.4,61.49V42.73h2.2V59.5h8.28v2C103.88,61.49,93.4,61.49,93.4,61.49z"/>
		<path class="st3" d="M106.07,43.63c0-0.5,0.1-0.8,0.4-1.1c0.2-0.2,0.5-0.3,0.9-0.3c0.3,0,0.6,0.1,0.9,0.3c0.3,0.2,0.4,0.6,0.4,1.1
			s-0.1,0.8-0.4,1.1c-0.3,0.3-0.5,0.4-0.9,0.4s-0.7-0.1-0.9-0.4C106.27,44.43,106.07,44.13,106.07,43.63z M108.47,61.49h-2.1V47.52
			h2.1V61.49z"/>
		<path class="st3" d="M119.05,47.22c1.8,0,3.29,0.6,4.29,1.9c1,1.3,1.5,2.99,1.5,5.39c0,2.4-0.5,4.09-1.5,5.39
			c-1,1.3-2.49,1.9-4.29,1.9c-0.9,0-1.8-0.2-2.49-0.5c-0.8-0.3-1.4-0.9-1.9-1.6h-0.2l-0.4,1.8h-1.5V41.53h2.1v4.79
			c0,1.1,0,2.1-0.1,2.89h0.1C115.65,47.92,117.15,47.22,119.05,47.22z M118.75,49.02c-1.5,0-2.49,0.4-3.09,1.3
			c-0.6,0.8-1,2.2-1,4.19c0,2,0.3,3.39,1,4.19c0.7,0.9,1.7,1.3,3.19,1.3c1.3,0,2.3-0.5,2.89-1.4c0.6-1,1-2.3,1-4.09
			s-0.3-3.19-1-4.09C121.04,49.42,120.05,49.02,118.75,49.02z"/>
		<path class="st3" d="M134.62,47.12c0.6,0,1.2,0.1,1.7,0.2l-0.3,2c-0.6-0.1-1.1-0.2-1.5-0.2c-1.1,0-2.1,0.5-2.89,1.4
			c-0.8,0.9-1.2,2.1-1.2,3.39v7.48h-2.1V47.42h1.8l0.2,2.59h0.1c0.5-0.9,1.1-1.6,1.9-2.1C132.92,47.42,133.72,47.12,134.62,47.12z"
			/>
		<path class="st3" d="M147.09,61.49l-0.4-2h-0.1c-0.7,0.9-1.4,1.5-2.1,1.8c-0.7,0.3-1.6,0.5-2.59,0.5c-1.4,0-2.49-0.4-3.29-1.1
			c-0.8-0.7-1.2-1.7-1.2-3.09c0-2.79,2.3-4.29,6.79-4.49l2.4-0.1v-0.9c0-1.1-0.2-1.9-0.7-2.4c-0.5-0.5-1.2-0.8-2.3-0.8
			c-1.2,0-2.49,0.4-3.99,1.1l-0.7-1.6c0.7-0.4,1.5-0.7,2.3-0.9c0.8-0.2,1.7-0.3,2.49-0.3c1.7,0,2.89,0.4,3.69,1.1
			c0.8,0.7,1.2,1.9,1.2,3.59v9.58H147.09z M142.3,60c1.3,0,2.4-0.4,3.09-1.1c0.8-0.7,1.1-1.7,1.1-3.09v-1.3l-2.1,0.1
			c-1.7,0.1-2.89,0.3-3.69,0.8c-0.7,0.5-1.1,1.2-1.1,2.2c0,0.8,0.2,1.4,0.7,1.8C140.8,59.8,141.5,60,142.3,60z"/>
		<path class="st3" d="M159.06,47.12c0.6,0,1.2,0.1,1.7,0.2l-0.3,2c-0.6-0.1-1.1-0.2-1.5-0.2c-1.1,0-2.1,0.5-2.89,1.4
			c-0.8,0.9-1.2,2.1-1.2,3.39v7.48h-2.1V47.42h1.8l0.2,2.59h0.1c0.5-0.9,1.1-1.6,1.9-2.1C157.37,47.42,158.17,47.12,159.06,47.12z"
			/>
		<path class="st3" d="M162.76,43.63c0-0.5,0.1-0.8,0.4-1.1c0.3-0.3,0.5-0.3,0.9-0.3c0.3,0,0.6,0.1,0.9,0.3c0.3,0.2,0.4,0.6,0.4,1.1
			s-0.1,0.8-0.4,1.1c-0.3,0.3-0.5,0.4-0.9,0.4s-0.7-0.1-0.9-0.4C162.96,44.43,162.76,44.13,162.76,43.63z M165.05,61.49h-2.1V47.52
			h2.1V61.49z"/>
		<path class="st3" d="M175.13,61.69c-2.1,0-3.69-0.6-4.89-1.9c-1.2-1.3-1.8-2.99-1.8-5.29c0-2.3,0.6-4.09,1.7-5.39
			c1.1-1.3,2.59-2,4.49-2c1.8,0,3.19,0.6,4.19,1.7s1.5,2.69,1.5,4.59v1.3h-9.68c0,1.6,0.5,2.89,1.3,3.79c0.8,0.9,1.9,1.3,3.29,1.3
			c1.5,0,2.99-0.3,4.49-0.9v1.9c-0.8,0.3-1.5,0.6-2.1,0.7C177.03,61.59,176.03,61.69,175.13,61.69z M174.53,48.92
			c-1.1,0-2,0.4-2.69,1.1c-0.7,0.7-1.1,1.8-1.2,3.09h7.28c0-1.3-0.3-2.4-0.9-3.09C176.53,49.32,175.63,48.92,174.53,48.92z"/>
		<path class="st3" d="M192.6,57.6c0,1.3-0.5,2.3-1.5,2.99s-2.3,1.1-4.09,1.1c-1.9,0-3.29-0.3-4.39-0.9v-2c0.7,0.3,1.4,0.6,2.2,0.8
			c0.8,0.2,1.5,0.3,2.2,0.3c1.1,0,2-0.2,2.59-0.5c0.6-0.4,0.9-0.9,0.9-1.6c0-0.5-0.2-1-0.7-1.4c-0.5-0.4-1.4-0.8-2.79-1.4
			c-1.3-0.5-2.2-0.9-2.79-1.3c-0.6-0.4-1-0.8-1.2-1.2c-0.3-0.5-0.4-1-0.4-1.7c0-1.1,0.5-2,1.4-2.69c0.9-0.7,2.2-1,3.79-1
			c1.5,0,2.99,0.3,4.39,0.9l-0.8,1.7c-1.4-0.6-2.69-0.9-3.79-0.9c-1,0-1.8,0.2-2.3,0.5c-0.5,0.3-0.8,0.8-0.8,1.3
			c0,0.4,0.1,0.7,0.3,1c0.2,0.3,0.5,0.5,0.9,0.8c0.4,0.2,1.2,0.6,2.49,1c1.7,0.6,2.79,1.2,3.39,1.8
			C192.3,55.9,192.6,56.7,192.6,57.6z"/>
	</g>
</g>
</svg>
