<?xml version="1.0" encoding="utf-8"?>
<!-- Generator: Adobe Illustrator 21.1.0, SVG Export Plug-In . SVG Version: 6.00 Build 0)  -->
<svg version="1.1" id="Layer_1" xmlns="http://www.w3.org/2000/svg" xmlns:xlink="http://www.w3.org/1999/xlink" x="0px" y="0px"
	 viewBox="0 0 1366 250" style="enable-background:new 0 0 1366 250;" xml:space="preserve">
<style type="text/css">
	.st0{fill:#500000;}
</style>
<g>
	<g>
		<rect x="339.2" y="13" class="st0" width="5.6" height="222.3"/>
	</g>
	<g>
		<polygon class="st0" points="243.3,89.5 218.9,89.5 217.5,89.5 216.9,90.8 199.2,127.6 181.5,90.7 180.9,89.5 179.4,89.5 
			155.9,89.5 153.6,89.5 153.6,91.7 153.6,104.3 153.6,106.5 155.9,106.5 159.9,106.5 159.9,159.2 155.5,159.2 153.3,159.2 
			153.3,161.5 153.3,174 153.3,176.3 155.5,176.3 182,176.3 184.2,176.3 184.2,174 184.2,161.5 184.2,159.2 182,159.2 177.4,159.2 
			177.4,121.8 197.2,162.6 199.2,166.7 201.2,162.6 221.2,121.7 221.2,159.2 216.8,159.2 214.6,159.2 214.6,161.5 214.6,174 
			214.6,176.3 216.8,176.3 243.3,176.3 245.5,176.3 245.5,174 245.5,161.5 245.5,159.2 243.3,159.2 238.7,159.2 238.7,106.5 
			243.3,106.5 245.5,106.5 245.5,104.3 245.5,91.7 245.5,89.5 		"/>
		<path class="st0" d="M89.7,159.2h-7l-22.9-52.9h2.2h2.2V104V91.4v-2.2h-2.2H29.6h-2.2v2.2V104v2.2h2.2h2.8L9.5,159.2H2.3H0v2.2
			V174v2.2h2.3h28.9h2.3V174v-12.6v-2.2h-2.3h-2.6l3.8-8.8h27.5l3.8,8.8h-2.9h-2.2v2.2V174v2.2h2.2h28.9h2.2V174v-12.6v-2.2H89.7z
			 M52.5,133.3H39.7l6.4-14.8L52.5,133.3z"/>
		<path class="st0" d="M215.3,23.3H29.6h-2.6v2.6v49.6v2.6h2.6h32.1h2.6v-2.6V57.1h39.6v130.7H85.5h-2.6v2.6v32.1v2.6h2.6h74h2.6
			v-2.6v-32.1v-2.6h-2.6h-18.4V57.1h39.4v18.2v2.6h2.6h32.3h2.6v-2.6V25.9v-2.6L215.3,23.3L215.3,23.3z M146.6,203l7.8-8.1v22.1
			l-7.8-7.5V203z M133.5,195.5l-7.8,7.7V41.6l7.8,7.8V195.5z M42.8,38.8L34.7,31h171.6l-10.1,7.9H42.8z M210.4,70.6l-7.8-7.5v-20
			l7.8-8.1V70.6z"/>
	</g>
	<g>
		<g>
			<path class="st0" d="M465.3,210.3h-1.9c-0.2-1.7-0.5-2.9-1.1-3.7c-0.6-0.8-1.2-1.3-1.8-1.5c-0.7-0.2-1.4-0.3-2.3-0.3h-3.4v19.9
				c0,0.8,0.1,1.4,0.2,1.8c0.2,0.4,0.5,0.8,1.1,1c0.6,0.2,1.5,0.4,2.6,0.4v1.8h-13.6v-1.8c1.7,0,2.7-0.2,3.2-0.7
				c0.5-0.5,0.7-1.3,0.7-2.5v-19.9h-2.9c-1.1,0-2.1,0.1-2.8,0.3c-0.7,0.2-1.4,0.7-2,1.5c-0.6,0.8-0.9,2.1-1,3.7h-1.9v-7.7h26.8
				L465.3,210.3L465.3,210.3z"/>
			<path class="st0" d="M514.3,220.8l-0.2,8.9h-24.2v-1.8c1.7,0,2.7-0.2,3.2-0.7c0.5-0.5,0.7-1.3,0.7-2.5v-17.1
				c0-0.8-0.1-1.4-0.2-1.8c-0.2-0.4-0.5-0.8-1.1-1c-0.6-0.2-1.4-0.4-2.6-0.4v-1.8h22.5l0.4,7.1H511c-0.4-1.6-0.9-2.7-1.4-3.4
				c-0.5-0.7-1.1-1.1-1.8-1.2c-0.7-0.2-1.7-0.2-3-0.2h-5.1v9.6h2.8c0.9,0,1.7-0.1,2.1-0.2c0.5-0.2,0.8-0.5,1-1
				c0.2-0.5,0.3-1.2,0.4-2.2h1.9v9h-1.8c-0.1-1-0.2-1.7-0.4-2.2c-0.2-0.5-0.5-0.8-1-1c-0.5-0.2-1.2-0.2-2.1-0.2h-2.8v6.4
				c0,1.1,0,1.9,0.1,2.3c0.1,0.5,0.2,0.9,0.4,1.2c0.2,0.3,0.6,0.6,1.1,0.7c0.5,0.2,1.3,0.2,2.3,0.2h2.2c0.9,0,1.8-0.1,2.6-0.3
				c0.8-0.2,1.6-0.8,2.5-1.8c0.8-1,1.4-2.5,1.7-4.6L514.3,220.8L514.3,220.8z"/>
			<path class="st0" d="M570.4,229.8h-15.9v-1.8h1.3c0.7,0,1.3-0.1,1.9-0.3c0.6-0.2,0.8-0.6,0.8-1.2c0-0.3-0.4-0.9-1.1-1.9l-4.4-5.8
				l-4.2,4.9c-1,1.1-1.5,2-1.5,2.6c0,0.5,0.2,0.9,0.5,1.1c0.3,0.2,0.7,0.4,1.2,0.4c0.5,0.1,1.1,0.1,1.9,0.1v1.8H539v-1.8
				c0.9,0,1.6-0.2,2.3-0.4c0.7-0.2,1.4-0.7,2.3-1.4c0.8-0.7,1.9-1.9,3.3-3.5l4.8-5.7l-6.5-8.6c-1-1.3-1.7-2.2-2.1-2.6
				c-0.4-0.5-1-0.8-1.5-1c-0.6-0.2-1.4-0.3-2.5-0.3v-1.8h14.8v1.8h-1c-0.8,0-1.3,0.1-1.7,0.2c-0.4,0.1-0.6,0.4-0.6,0.9
				c0,0.3,0.4,1,1.2,2.2l3.8,4.9l4.3-5c0.4-0.5,0.6-0.9,0.8-1.1c0.1-0.2,0.2-0.5,0.2-0.8c0-0.4-0.2-0.8-0.5-1s-1-0.3-1.9-0.3h-0.9
				v-1.8h11.2v1.8c-1,0-1.9,0.2-2.6,0.5c-0.7,0.3-1.4,0.8-1.9,1.3c-0.5,0.5-1.4,1.4-2.4,2.6l-4.8,5.6l6.6,8.7c1,1.3,1.8,2.3,2.4,3
				c0.6,0.7,1.3,1.1,1.9,1.4c0.7,0.3,1.5,0.4,2.6,0.5L570.4,229.8L570.4,229.8z"/>
			<path class="st0" d="M622.5,229.8h-12.8v-1.8c1.1,0,1.9-0.1,2.4-0.2c0.5-0.2,0.7-0.5,0.7-1.1c0-0.4-0.1-0.8-0.2-1.2l-1.3-3.2
				h-8.8l-0.7,1.8c-0.4,1-0.6,1.7-0.6,2.1c0,0.8,0.3,1.3,0.9,1.5c0.6,0.2,1.3,0.3,2.2,0.3v1.8H595v-1.8c0.8,0,1.4-0.1,1.9-0.4
				c0.5-0.3,1-0.8,1.5-1.6c0.5-0.8,1-1.9,1.5-3.3l7.8-20.5h1.9l8.3,21.2c0.6,1.5,1,2.5,1.3,3c0.3,0.5,0.7,0.9,1.2,1.2
				c0.5,0.3,1.2,0.4,2.1,0.4L622.5,229.8L622.5,229.8z M610.6,220.2l-3.7-9.5l-3.6,9.5H610.6z"/>
			<path class="st0" d="M666.1,221.7c0,0.8-0.2,1.7-0.5,2.6c-0.3,0.9-0.9,1.8-1.6,2.7c-0.7,0.8-1.6,1.5-2.7,2.1
				c-1.1,0.5-2.3,0.8-3.8,0.8c-1.4,0-2.8-0.3-4.2-0.9c-1.4-0.6-2.6-1.5-3.5-2.7c-0.4,1-0.7,1.9-0.8,2.7h-1.8v-9.1h1.8
				c0.3,1.3,0.8,2.5,1.4,3.7c0.6,1.2,1.4,2.1,2.4,3c1,0.8,2.3,1.2,3.9,1.2c1.3,0,2.4-0.4,3.2-1.1c0.8-0.7,1.2-1.7,1.2-2.8
				c0-0.6-0.1-1.2-0.4-1.6c-0.3-0.5-0.6-0.9-1.1-1.3c-0.5-0.4-1.1-0.8-1.9-1.2c-0.8-0.4-1.7-0.9-2.8-1.3c-1.6-0.8-2.9-1.5-4-2.3
				c-1-0.8-1.8-1.5-2.3-2.2c-0.5-0.7-0.9-1.4-1.1-2.1c-0.2-0.7-0.3-1.3-0.3-2c0-1.2,0.3-2.4,1-3.5c0.6-1.2,1.6-2.1,2.8-2.8
				c1.2-0.7,2.7-1.1,4.3-1.1c1.2,0,2.4,0.3,3.5,0.8c1.1,0.6,2.1,1.3,2.9,2.3c0.2-0.6,0.5-1.3,0.6-2.3h1.8v7.4h-1.8
				c-1.3-4-3.6-6.1-6.8-6.1c-1.2,0-2.1,0.3-2.8,0.9c-0.7,0.6-1.1,1.4-1.1,2.4c0,0.8,0.2,1.4,0.7,2c0.4,0.6,1,1.1,1.8,1.5
				c0.7,0.4,1.9,1,3.5,1.7c2,0.9,3.5,1.7,4.6,2.4c1.1,0.7,2,1.5,2.8,2.6C665.7,218.9,666.1,220.2,666.1,221.7z"/>
		</g>
		<g>
			<path class="st0" d="M920.9,204.4c-1.2,0-2.1,0.1-2.6,0.4c-0.5,0.3-0.9,0.7-1,1.2s-0.2,1.3-0.2,2.4v10c0,1.9-0.1,3.2-0.2,4.2
				c-0.1,0.9-0.5,1.9-1,2.8c-1,1.8-2.4,3.1-4.3,3.8c-1.8,0.7-3.6,1-5.3,1c-1.2,0-2.5-0.2-3.8-0.5c-1.3-0.3-2.5-0.9-3.7-1.6
				c-1.1-0.7-2-1.7-2.6-2.9c-0.3-0.7-0.6-1.3-0.7-2c-0.2-0.7-0.3-1.3-0.3-1.9c0-0.6-0.1-1.4-0.1-2.3l0-11.3c0-1.2-0.2-2-0.7-2.5
				c-0.5-0.5-1.5-0.7-3.2-0.7v-1.8h13.7v1.8c-1.2,0-2,0.1-2.6,0.4c-0.6,0.2-0.9,0.6-1.1,1c-0.2,0.4-0.3,1.1-0.3,1.9V219
				c0,1.2,0.1,2.2,0.2,3.1c0.1,0.9,0.3,1.6,0.5,2.3c0.5,1.1,1.2,2,2.3,2.6c1.1,0.6,2.3,1,3.6,1c1.4,0,2.7-0.4,3.9-1
				c1.2-0.7,2-1.6,2.5-2.7c0.4-0.9,0.6-1.7,0.7-2.7c0.1-0.9,0.2-2,0.2-3.3v-9.8c0-0.9,0-1.5-0.1-2c-0.1-0.4-0.2-0.8-0.4-1.1
				c-0.2-0.3-0.6-0.6-1.2-0.7c-0.6-0.1-1.3-0.2-2.3-0.2v-1.8h10L920.9,204.4L920.9,204.4z"/>
			<path class="st0" d="M975.3,204.4c-1.3,0-2.2,0.1-2.8,0.4c-0.6,0.3-0.9,0.7-1,1.2c-0.1,0.5-0.2,1.3-0.2,2.5V230h-1.8l-17.8-21.1
				v15c0,1.1,0.1,2,0.2,2.5c0.1,0.5,0.5,0.9,1.1,1.2c0.6,0.3,1.5,0.4,2.8,0.4v1.8h-10.1v-1.8c1.2,0,2.1-0.2,2.6-0.4s0.9-0.7,1-1.2
				c0.1-0.5,0.2-1.3,0.2-2.5V210c0-1.1,0-2-0.1-2.5c-0.1-0.6-0.2-1.1-0.4-1.5c-0.2-0.4-0.6-0.8-1.1-1c-0.5-0.3-1.2-0.5-2.1-0.5v-1.8
				h7.9l15.5,18.3v-12.4c0-1-0.1-1.8-0.2-2.3c-0.1-0.5-0.5-1-1-1.3c-0.6-0.3-1.4-0.4-2.6-0.4v-1.8h10.2L975.3,204.4L975.3,204.4z"/>
			<path class="st0" d="M1013.7,229.8h-13.8v-1.8c1.1,0,2-0.1,2.6-0.4c0.6-0.2,1-0.5,1.2-1c0.2-0.5,0.3-1.1,0.3-1.9v-17.1
				c0-1.2-0.2-2-0.7-2.5c-0.5-0.5-1.6-0.7-3.3-0.7v-1.8h13.8v1.8c-1.1,0-2,0.1-2.6,0.3c-0.6,0.2-1,0.6-1.2,1
				c-0.2,0.5-0.3,1.1-0.3,1.9v17.1c0,0.8,0.1,1.4,0.3,1.8c0.2,0.4,0.5,0.8,1.1,1c0.6,0.3,1.5,0.4,2.7,0.4V229.8z"/>
			<path class="st0" d="M1068.4,204.4c-0.6,0-1.2,0.1-1.7,0.3c-0.5,0.2-0.9,0.4-1.2,0.8c-0.3,0.3-0.6,0.8-0.9,1.4
				c-0.3,0.6-0.7,1.5-1.3,2.8l-8.9,20.7h-1.9l-9.3-21.7c-0.6-1.4-1-2.3-1.3-2.8c-0.3-0.5-0.8-0.9-1.3-1.1c-0.5-0.2-1.3-0.3-2.4-0.3
				v-1.8h13.8v1.8c-1.3,0.1-2.2,0.2-2.7,0.3c-0.5,0.2-0.8,0.6-0.8,1.2c0,0.6,0.2,1.2,0.5,1.9l6.3,14.5l5.8-13.6
				c0.5-1.2,0.7-2,0.7-2.4c0-0.9-0.3-1.4-0.9-1.6c-0.6-0.2-1.5-0.3-2.7-0.4v-1.8h10.1L1068.4,204.4L1068.4,204.4z"/>
			<path class="st0" d="M1117.5,220.8l-0.2,8.9H1093v-1.8c1.7,0,2.8-0.3,3.2-0.7c0.5-0.5,0.7-1.3,0.7-2.5v-17.1
				c0-0.8-0.1-1.4-0.2-1.8c-0.2-0.4-0.5-0.8-1.1-1c-0.6-0.2-1.4-0.4-2.6-0.4v-1.8h22.6l0.3,7.1h-1.8c-0.4-1.6-0.9-2.7-1.4-3.4
				c-0.5-0.7-1.2-1.1-1.8-1.2c-0.7-0.2-1.7-0.2-3-0.2h-5.1v9.6h2.8c1,0,1.7-0.1,2.1-0.3c0.5-0.2,0.8-0.5,1-0.9
				c0.2-0.5,0.3-1.2,0.4-2.2h1.9v9h-1.8c-0.1-1-0.2-1.7-0.4-2.2c-0.2-0.5-0.5-0.8-1-0.9c-0.5-0.2-1.2-0.3-2.1-0.3h-2.8v6.4
				c0,1.1,0,1.9,0.1,2.4c0.1,0.5,0.2,0.9,0.4,1.2c0.2,0.3,0.6,0.6,1.1,0.7c0.5,0.1,1.3,0.2,2.3,0.2h2.2c0.9,0,1.8-0.1,2.6-0.4
				c0.8-0.2,1.7-0.8,2.5-1.8c0.8-1,1.4-2.5,1.7-4.6L1117.5,220.8L1117.5,220.8z"/>
			<path class="st0" d="M1171.5,229.8h-7.3c-0.3-0.3-0.6-0.7-1-1.3c-0.4-0.5-0.8-1.2-1.3-2c-0.5-0.8-0.8-1.4-1.1-1.9l-1.8-3
				c-0.8-1.4-1.4-2.3-1.9-2.8c-0.4-0.5-0.9-0.8-1.4-1c-0.5-0.1-1.5-0.2-2.8-0.2h-1v7.1c0,0.7,0.1,1.4,0.3,1.8c0.1,0.5,0.5,0.8,1.1,1
				c0.6,0.3,1.5,0.4,2.6,0.4v1.8h-13.6v-1.8c1.7,0,2.7-0.3,3.2-0.7c0.5-0.5,0.7-1.3,0.7-2.5v-17.1c0-1.2-0.2-2-0.7-2.5
				c-0.5-0.5-1.5-0.7-3.2-0.7v-1.9l6.3-0.2c0.5,0,1-0.1,1.6-0.1c0.6,0,1.2,0,1.7,0c0.4,0,1.1,0,2.1,0c1.4,0,2.6,0.1,3.8,0.3
				c1.2,0.1,2.1,0.3,2.8,0.5c1,0.3,2,0.7,2.9,1.3c0.9,0.6,1.6,1.4,2.2,2.3c0.6,1,0.8,2.1,0.8,3.3c0,0.9-0.2,1.8-0.6,2.6
				c-0.4,0.9-1,1.6-1.9,2.3s-2,1.2-3.4,1.6c1,0.6,1.8,1.3,2.5,2.1c0.7,0.8,1.7,2.4,3.2,4.7c0.8,1.3,1.5,2.3,2.1,2.9
				c0.5,0.7,1.1,1.1,1.5,1.4c0.5,0.2,1.1,0.4,1.8,0.5V229.8z M1160.2,209.8c0-2.1-0.7-3.6-2-4.3c-1.3-0.7-3-1.1-5.2-1.1
				c-0.3,0-0.5,0-0.7,0c-0.2,0-0.4,0-0.6,0v10.9h1.3c2,0,3.7-0.3,5.1-1C1159.5,213.8,1160.2,212.2,1160.2,209.8z"/>
			<path class="st0" d="M1215.5,222c0,0.8-0.2,1.7-0.6,2.7c-0.4,0.9-0.9,1.8-1.6,2.7c-0.7,0.9-1.6,1.6-2.8,2.1
				c-1.1,0.5-2.4,0.8-3.8,0.8c-1.4,0-2.9-0.3-4.3-0.9c-1.4-0.6-2.6-1.6-3.6-2.8c-0.4,1-0.7,1.9-0.8,2.8h-1.8V220h1.8
				c0.3,1.3,0.8,2.6,1.4,3.8c0.6,1.2,1.4,2.2,2.5,3c1.1,0.8,2.4,1.3,3.9,1.3c1.4,0,2.5-0.4,3.3-1.1c0.8-0.8,1.2-1.7,1.2-2.8
				c0-0.6-0.1-1.2-0.4-1.7c-0.3-0.5-0.6-0.9-1.1-1.3c-0.5-0.4-1.1-0.8-2-1.2c-0.8-0.4-1.8-0.9-2.9-1.4c-1.6-0.8-3-1.6-4-2.3
				c-1.1-0.8-1.9-1.6-2.4-2.3c-0.5-0.7-0.9-1.4-1.1-2.1c-0.2-0.7-0.3-1.4-0.3-2c0-1.2,0.3-2.4,1-3.6c0.7-1.2,1.6-2.2,2.9-2.9
				c1.3-0.7,2.7-1.1,4.4-1.1c1.3,0,2.5,0.3,3.6,0.8c1.2,0.6,2.1,1.3,3,2.3c0.3-0.6,0.5-1.3,0.7-2.4h1.9v7.6h-1.9
				c-1.3-4.1-3.6-6.2-7-6.2c-1.2,0-2.2,0.3-2.9,1c-0.7,0.6-1.1,1.4-1.1,2.5c0,0.8,0.2,1.5,0.7,2.1c0.5,0.6,1,1.1,1.8,1.5
				c0.7,0.4,2,1,3.6,1.8c2,0.9,3.6,1.8,4.7,2.5c1.1,0.7,2.1,1.6,2.9,2.6C1215.1,219.2,1215.5,220.5,1215.5,222z"/>
			<path class="st0" d="M1253.9,229.8h-13.8v-1.8c1.2,0,2-0.1,2.6-0.4c0.6-0.2,1-0.5,1.2-1c0.2-0.5,0.3-1.1,0.3-1.9v-17.1
				c0-1.2-0.3-2-0.7-2.5c-0.5-0.5-1.6-0.7-3.3-0.7v-1.8h13.8v1.8c-1.1,0-2,0.1-2.6,0.3c-0.6,0.2-1,0.6-1.2,1
				c-0.2,0.5-0.3,1.1-0.3,1.9v17.1c0,0.8,0.1,1.4,0.3,1.8c0.2,0.4,0.5,0.8,1.1,1c0.6,0.3,1.5,0.4,2.7,0.4L1253.9,229.8L1253.9,229.8
				z"/>
			<path class="st0" d="M1305.4,210.3h-1.9c-0.2-1.7-0.5-2.9-1.1-3.7c-0.6-0.8-1.2-1.3-1.8-1.5c-0.6-0.2-1.4-0.3-2.2-0.3h-3.5v19.9
				c0,0.8,0.1,1.4,0.2,1.8c0.2,0.4,0.5,0.8,1.1,1c0.6,0.3,1.4,0.4,2.6,0.4v1.8h-13.6v-1.8c1.7,0,2.7-0.3,3.2-0.7
				c0.5-0.5,0.7-1.3,0.7-2.5v-19.9h-2.9c-1.1,0-2.1,0.1-2.8,0.3c-0.7,0.2-1.4,0.7-2,1.5c-0.6,0.8-0.9,2.1-1,3.7h-1.9v-7.7h26.9
				L1305.4,210.3L1305.4,210.3z"/>
			<path class="st0" d="M1357.7,204.4c-0.7,0.1-1.3,0.2-1.8,0.5c-0.5,0.3-1,0.7-1.4,1.4c-0.5,0.6-1.2,1.7-2.2,3.1l-5.7,8.8v6.4
				c0,0.7,0.1,1.3,0.2,1.8c0.1,0.4,0.5,0.8,1.1,1c0.6,0.3,1.4,0.4,2.7,0.4v1.8h-13.7v-1.8c1.1,0,2-0.1,2.6-0.4c0.6-0.2,1-0.5,1.1-1
				c0.2-0.5,0.3-1.1,0.3-1.9v-6.1l-6.8-11.4c-0.1-0.1-0.1-0.2-0.2-0.3c0-0.1-0.1-0.2-0.1-0.2c-0.6-1-1.1-1.6-1.6-1.9
				c-0.4-0.3-1.1-0.5-2-0.5v-1.8h12.8v1.8c-0.7,0-1.2,0-1.5,0.1c-0.4,0-0.7,0.1-0.9,0.3c-0.2,0.2-0.3,0.5-0.3,0.8
				c0,0.2,0.1,0.6,0.2,0.9c0.2,0.4,0.5,1,1.1,2l4.2,7.2l4-6.4c0.9-1.4,1.3-2.4,1.3-3c0-0.8-0.3-1.4-0.8-1.6
				c-0.5-0.2-1.3-0.3-2.3-0.3v-1.8h9.9L1357.7,204.4L1357.7,204.4z"/>
		</g>
		<g>
			<path class="st0" d="M734.7,229.8h-12.8v-1.8c1.1,0,1.9-0.1,2.4-0.2c0.5-0.2,0.7-0.5,0.7-1.1c0-0.4-0.1-0.8-0.2-1.2l-1.3-3.2
				h-8.8l-0.7,1.8c-0.4,1-0.6,1.7-0.6,2.1c0,0.8,0.3,1.3,0.9,1.5c0.6,0.2,1.3,0.3,2.2,0.3v1.8h-9.4v-1.8c0.7,0,1.4-0.1,1.9-0.4
				c0.5-0.3,1-0.8,1.5-1.6c0.5-0.8,1-1.9,1.5-3.3l7.8-20.5h1.9l8.3,21.2c0.6,1.5,1,2.5,1.3,3c0.3,0.5,0.7,0.9,1.2,1.2
				c0.5,0.3,1.2,0.4,2.1,0.4L734.7,229.8L734.7,229.8z M722.7,220.2l-3.7-9.5l-3.6,9.5H722.7z"/>
			<path class="st0" d="M850.2,229.8h-13.6v-1.8c1.2,0,2-0.1,2.6-0.3c0.5-0.2,0.9-0.6,1.1-1c0.2-0.4,0.3-1.1,0.3-1.8v-17l-10.3,22.1
				H829l-10.4-22.1v16.2c0,0.9,0,1.5,0.1,2c0.1,0.5,0.2,0.8,0.5,1.2c0.2,0.3,0.6,0.6,1.2,0.7c0.5,0.1,1.3,0.2,2.2,0.2v1.8h-10v-1.8
				c1,0,1.7-0.1,2.2-0.2c0.5-0.2,0.9-0.4,1.2-0.7c0.2-0.3,0.4-0.7,0.4-1.2c0.1-0.4,0.1-1.1,0.1-2v-15.4c0-1.1-0.1-2-0.2-2.5
				c-0.1-0.5-0.4-0.9-1-1.2c-0.5-0.3-1.5-0.4-2.7-0.4v-1.8h9.9l9,19.2l9-19.2h9.7v1.8c-1.7,0-2.7,0.2-3.2,0.7
				c-0.5,0.5-0.7,1.3-0.7,2.5v17.1c0,0.7,0.1,1.3,0.2,1.8c0.2,0.5,0.5,0.8,1.1,1.1c0.6,0.2,1.4,0.4,2.6,0.4L850.2,229.8L850.2,229.8
				z"/>
			<path class="st0" d="M786.1,225.5L786.1,225.5c-0.8,1.2-1.7,1.8-2.9,1.8c-0.9,0-1.7-0.3-2.5-0.8c-0.8-0.5-1.9-1.8-3.2-3.7
				c0.6-0.8,1.2-2,1.9-3.7c0.8-2,1.7-3.4,2.4-4.2c0.8-0.7,1.7-1.2,2.7-1.5l0.2,0v-1.3h-9.1v1.3l0.2,0c2,0.2,2.9,1,2.9,2.4
				c0,0.6-0.2,1.5-0.6,2.6c-0.4,1-1,2-1.6,3c-0.4-0.5-6.1-8.5-6.4-8.9c3.8-1.9,5.7-4,5.7-6.1c0-1.4-0.6-2.5-1.8-3.4
				c-1.2-0.8-2.6-1.3-4-1.3c-1.7,0-3.1,0.6-4.2,1.7c-1.1,1.1-1.7,2.4-1.7,3.9c0,1.8,0.8,3.7,2.3,5.9c-2.5,1.7-4.2,3.1-5.1,4.3
				c-0.9,1.2-1.4,2.7-1.4,4.4c0,1.5,0.4,2.9,1.1,4c0.8,1.2,1.7,2.1,2.9,2.7c1.2,0.6,2.5,1,3.8,1c2.6,0,5.1-1.3,7.5-3.9
				c2,2.5,4.3,3.9,6.9,3.9c1.2,0,2.4-0.4,3.3-1.1c1-0.7,1.6-1.6,1.9-2.8l0.1-0.3H786.1z M767.8,204.2c0.6-0.6,1.3-0.9,2.2-0.9
				c0.9,0,1.6,0.3,2.2,0.9c0.6,0.6,0.8,1.5,0.8,2.5c0,1.7-1.3,3.3-3.8,4.7c-1.5-2.1-2.3-3.8-2.3-5
				C767,205.6,767.3,204.8,767.8,204.2z M769.3,227.2c-1.6,0-3.1-0.7-4.3-2.1c-1.3-1.4-1.9-2.9-1.9-4.5c0-1,0.4-2.1,1.1-3.2
				c0.7-1.1,1.7-2,3-2.8c2,2.6,4.3,6,7,10.1C772.7,226.3,771.1,227.2,769.3,227.2z"/>
		</g>
		<g>
			<path class="st0" d="M502.8,50.6h-20.3v47.5h-23V50.6h-20.3V30.7h63.5V50.6z"/>
			<path class="st0" d="M508.9,30.7h37.2c14.3,0,23.2,5,23.2,17.9c0,10.3-5.8,15.5-14.3,17.8v0.2c5,1,8,3.7,10.1,7.2
				c3.5,7.1,3.3,17.6,5.7,24.1h-23.9c-1-4.8-1.3-15.3-3.2-19.4c-1.4-3.1-3.7-3.5-6.5-3.5h-5.1v22.9h-23V30.7z M530.9,60.2h6
				c4.7,0,9.4-0.6,9.4-7.4c0-6.1-4.4-6.9-9-6.9h-6.4V60.2z"/>
			<path class="st0" d="M593.6,30.7h31.7l21.4,67.3h-24.1l-3.9-14.6h-19.4l-3.7,14.6h-22.9L593.6,30.7z M602.4,67.3h13.3l-6.5-22.1
				H609L602.4,67.3z"/>
			<path class="st0" d="M651,30.7h34.4l11.1,47.5h0.2V30.7h19.7v67.3h-33.8l-11.7-48.8h-0.2v48.8H651V30.7z"/>
			<path class="st0" d="M774.7,49.2c-5.2-2-11.2-3.4-17.8-3.4c-3.6,0-9.9,0.1-9.9,4.4c0,8.8,31.5,0.5,31.5,26.4
				c0,18-15.9,22.6-29.2,22.6c-8.8,0-16.1-1-24.7-3.2V78.6c6.2,2.9,13.7,4.4,20.6,4.4c5.4,0,10.3-1.3,10.3-4.6
				c0-9.1-31.5-0.9-31.5-27c0-18.5,17.2-21.8,30.8-21.8c6.4,0,13.6,0.9,19.8,2.3V49.2z"/>
			<path class="st0" d="M786.7,30.7h39.6c9.4,0,22,5,22,23.2c0,17.6-10,24.8-22.1,24.8h-16.5v19.4h-23V30.7z M809.1,63h5.1
				c5.5,0,11.1-1.2,11.1-8.7c0-7.1-5.6-8-11.2-8h-5V63z"/>
			<path class="st0" d="M887.3,99.2c-20.9,0-33.2-11.9-33.2-34.8c0-22.6,12.3-34.8,33.2-34.8c20.9,0,33.5,12.3,33.5,34.8
				C920.8,87.4,908.3,99.2,887.3,99.2z M887.3,83c9.1,0,9.4-11.4,9.4-18.6c-0.1-6.3-0.7-18.6-9.4-18.6c-8.5,0-9.2,12.3-9.2,18.6
				C878.1,71.6,879.1,83,887.3,83z"/>
			<path class="st0" d="M927.7,30.7h37.2c14.3,0,23.2,5,23.2,17.9c0,10.3-5.8,15.5-14.3,17.8v0.2c5,1,8,3.7,10.1,7.2
				c3.5,7.1,3.3,17.6,5.7,24.1h-23.9c-1-4.8-1.3-15.3-3.2-19.4c-1.4-3.1-3.7-3.5-6.5-3.5h-5.2v22.9h-23V30.7z M949.6,60.2h6
				c4.7,0,9.4-0.6,9.4-7.4c0-6.1-4.4-6.9-9-6.9h-6.4V60.2z"/>
			<path class="st0" d="M1055.5,50.6h-20.3v47.5h-23V50.6H992V30.7h63.5V50.6z"/>
			<path class="st0" d="M1071.4,30.7h31.7l21.4,67.3h-24.1l-3.9-14.6H1077l-3.7,14.6h-22.9L1071.4,30.7z M1080.2,67.3h13.3
				l-6.5-22.1h-0.2L1080.2,67.3z"/>
			<path class="st0" d="M1183.4,50.6h-20.3v47.5h-23V50.6h-20.3V30.7h63.5V50.6z"/>
			<path class="st0" d="M1213.4,30.7v67.3h-23V30.7H1213.4z"/>
			<path class="st0" d="M1254.3,99.2c-20.9,0-33.2-11.9-33.2-34.8c0-22.6,12.3-34.8,33.2-34.8c20.9,0,33.5,12.3,33.5,34.8
				C1287.8,87.4,1275.3,99.2,1254.3,99.2z M1254.3,83c9.1,0,9.4-11.4,9.4-18.6c-0.1-6.3-0.7-18.6-9.4-18.6c-8.5,0-9.2,12.3-9.2,18.6
				C1245.2,71.6,1246.1,83,1254.3,83z"/>
			<path class="st0" d="M1295,30.7h34.4l11.1,47.5h0.2V30.7h19.7v67.3h-33.8l-11.7-48.8h-0.2v48.8H1295V30.7z"/>
		</g>
		<g>
			<path class="st0" d="M491.2,134.9c-5.1-2-11.2-3.4-17.8-3.4c-3.6,0-9.9,0.1-9.9,4.4c0,8.8,31.5,0.5,31.5,26.4
				c0,18-15.9,22.6-29.2,22.6c-8.8,0-16.1-1-24.7-3.2v-17.5c6.2,2.9,13.7,4.4,20.6,4.4c5.4,0,10.3-1.3,10.3-4.6
				c0-9.1-31.5-0.9-31.5-27c0-18.5,17.2-21.8,30.8-21.8c6.4,0,13.6,0.9,19.8,2.3V134.9z"/>
			<path class="st0" d="M502.5,116.5h51.9v16.2H525v9.6h28.2v16.2H525v9.2h30v16.2h-52.5V116.5z"/>
			<path class="st0" d="M563,116.5h37.2c14.3,0,23.2,5,23.2,17.9c0,10.3-5.8,15.5-14.3,17.8v0.2c5,1,8,3.7,10.1,7.2
				c3.5,7.1,3.3,17.6,5.7,24.1h-23.9c-1-4.8-1.3-15.3-3.2-19.4c-1.4-3.1-3.7-3.5-6.5-3.5H586v22.9h-23V116.5z M585,145.9h6
				c4.7,0,9.4-0.6,9.4-7.4c0-6.1-4.4-6.9-9-6.9H585V145.9z"/>
			<path class="st0" d="M627.3,116.5h24.6l11.2,40.3h0.2l11.2-40.3H698l-22.1,67.3h-27.2L627.3,116.5z"/>
			<path class="st0" d="M725.9,116.5v67.3h-23v-67.3H725.9z"/>
			<path class="st0" d="M786,182.3c-4.3,1.4-10.6,2.7-16.5,2.7c-19.9,0-35.9-11.8-35.9-35.8c0-22.6,16.7-33.9,35.9-33.9
				c6.4,0,10.1,0.9,16.3,2.1v17.8c-3.8-1.4-7.6-2.5-11.5-2.5c-9.8,0-17.2,5.9-17.2,16.9c0,11.6,6.9,17.5,16.4,17.5
				c4.2,0,8.2-1,12.4-2.6V182.3z"/>
			<path class="st0" d="M792.8,116.5h51.9v16.2h-29.4v9.6h28.2v16.2h-28.2v9.2h30v16.2h-52.5V116.5z"/>
			<path class="st0" d="M902.6,134.9c-5.2-2-11.2-3.4-17.8-3.4c-3.6,0-9.9,0.1-9.9,4.4c0,8.8,31.5,0.5,31.5,26.4
				c0,18-15.9,22.6-29.2,22.6c-8.8,0-16.1-1-24.7-3.2v-17.5c6.2,2.9,13.7,4.4,20.6,4.4c5.4,0,10.3-1.3,10.3-4.6
				c0-9.1-31.5-0.9-31.5-27c0-18.5,17.2-21.8,30.8-21.8c6.4,0,13.6,0.9,19.8,2.3V134.9z"/>
		</g>
	</g>
</g>
</svg>
