<svg version="1.1" id="Layer_1" xmlns="http://www.w3.org/2000/svg" x="0" y="0" viewBox="0 0 333.37 87.33" style="enable-background:new 0 0 333.37 87.33" xml:space="preserve"><style>.st0{fill:#500000}.st1{fill:#fff}.st2{fill:#b1b3b6}.st3{fill:#231f20}</style><path class="st0" d="M12.59 12.79h61.26v61.75H12.59z"/><path class="st1" d="M65.71 37.37H60.9l-.12.23-3.3 6.87-3.31-6.87-.11-.23h-5.08V40.54h1.17v9.84h-1.23V53.56h5.77V50.38h-1.27V43.4l3.69 7.61.37.77.38-.77 3.73-7.63v7h-1.23V53.56h5.77V50.38h-1.27v-9.84h1.27V37.37zM37.03 50.37h-1.31l-4.27-9.87h.82v-3.19h-6.86v3.18h.95l-4.27 9.87H20.3v3.18h6.23v-3.18h-.91l.71-1.64h5.14l.71 1.64h-.96v3.18h6.23v-3.18l-.42.01zm-6.93-4.82h-2.38l1.19-2.76 1.19 2.76z"/><path class="st1" d="M60.49 25.02H25.36v10.21H32.3v-3.92h7.39v24.4h-3.92V62.65H50.55V55.71h-3.92v-24.4h7.35v3.88H60.96V25.02z"/><path class="st2" d="m47.66 58.55 1.46-1.5v4.13l-1.46-1.4zM45.22 57.16l-1.47 1.44V28.44l1.47 1.46zM28.29 27.91l-1.5-1.47h32.02l-1.89 1.47zM59.58 33.85l-1.46-1.4v-3.73l1.46-1.5z"/><path class="st0" d="M76.02 73.31a1.23 1.23 0 1 1 2.46 0 1.23 1.23 0 1 1-2.46 0zm2.16 0a.937.937 0 0 0-.99-.87.93.93 0 0 0 .06 1.86c.52-.01.94-.43.93-.96v-.03zm-1.4-.7h.52c.34 0 .51.12.51.41.02.19-.12.35-.3.37h-.06l.37.61h-.27l-.36-.61h-.16v.6h-.26l.01-1.38zm.26.6h.23c.15 0 .29-.02.29-.21s-.15-.19-.28-.19h-.23v.4z"/><path class="st3" d="M94.39 23.52H93.1v-6.75h-2.31v-1.1h5.9v1.1h-2.31v6.75zM102.89 23.52h-4.44v-7.85h4.44v1.08h-3.16v2.14h2.96v1.07h-2.96v2.47h3.16v1.09zM110.92 23.52h-1.48l-1.97-3.21-1.98 3.21h-1.38l2.6-4.07-2.44-3.78h1.43l1.82 2.97 1.82-2.97h1.39l-2.45 3.8 2.64 4.05zM117.4 23.52l-.78-2.18h-3l-.77 2.18h-1.35l2.94-7.88h1.4l2.94 7.88h-1.38zm-1.12-3.28-.74-2.14c-.05-.14-.13-.37-.22-.68-.1-.31-.16-.53-.2-.68-.1.44-.24.92-.42 1.45l-.71 2.05h2.29zM124.88 21.39c0 .7-.25 1.25-.76 1.64s-1.2.6-2.09.6-1.61-.14-2.18-.41V22c.36.17.74.3 1.14.4.4.1.78.14 1.13.14.51 0 .88-.1 1.13-.29.24-.19.36-.45.36-.78 0-.29-.11-.54-.33-.75s-.68-.45-1.38-.72c-.72-.29-1.22-.62-1.51-.99-.29-.37-.44-.82-.44-1.34 0-.66.23-1.17.7-1.55s1.09-.56 1.87-.56c.75 0 1.5.16 2.25.49l-.41 1.05c-.7-.29-1.32-.44-1.87-.44-.42 0-.73.09-.95.27s-.32.42-.32.72c0 .2.04.38.13.52.09.15.23.28.42.41s.55.3 1.06.51c.58.24 1 .46 1.27.67.27.21.47.44.59.7.13.27.19.58.19.93zM135.23 23.52l-.78-2.18h-3l-.77 2.18h-1.35l2.94-7.88h1.4l2.94 7.88h-1.38zm-1.12-3.28-.74-2.14c-.05-.14-.13-.37-.22-.68-.09-.31-.16-.53-.2-.68-.1.44-.24.92-.42 1.45l-.71 2.05h2.29zM137.66 21.44c0-.47.11-.88.34-1.23.23-.35.64-.7 1.24-1.04-.34-.4-.57-.73-.7-1.01-.12-.27-.19-.56-.19-.85 0-.54.19-.97.58-1.29.39-.32.91-.47 1.57-.47.63 0 1.13.15 1.49.46.36.31.54.72.54 1.24 0 .41-.12.78-.36 1.11-.24.33-.65.67-1.21 1l1.86 1.79c.29-.38.53-.95.73-1.69h1.3c-.25 1.02-.65 1.85-1.2 2.49l1.62 1.56h-1.63l-.8-.78c-.37.29-.75.51-1.17.66-.41.15-.87.22-1.37.22-.82 0-1.47-.2-1.94-.58-.46-.38-.7-.91-.7-1.59zm2.71 1.1c.66 0 1.22-.19 1.68-.57l-2.06-2.03c-.38.24-.64.47-.78.68a1.3 1.3 0 0 0-.21.73c0 .35.12.64.37.86.24.22.58.33 1 .33zm-.8-5.18c0 .23.06.44.18.64s.29.41.5.64c.4-.23.69-.44.85-.64.16-.2.24-.42.24-.67 0-.23-.08-.42-.23-.56-.16-.14-.36-.21-.62-.21-.28 0-.51.07-.67.22-.17.14-.25.34-.25.58zM150.27 23.52l-2.28-6.56h-.04c.06.97.09 1.89.09 2.74v3.82h-1.17v-7.85h1.81l2.18 6.25h.03l2.25-6.25h1.82v7.85h-1.24v-3.88c0-.39.01-.9.03-1.53.02-.63.04-1.01.05-1.14h-.04l-2.36 6.55h-1.13zM167.14 15.67v5.08c0 .58-.12 1.09-.37 1.52-.25.44-.61.77-1.08 1s-1.03.35-1.69.35c-.97 0-1.73-.26-2.27-.77-.54-.52-.81-1.22-.81-2.13v-5.06h1.29v4.97c0 .65.15 1.13.45 1.43.3.31.76.46 1.39.46 1.21 0 1.82-.64 1.82-1.91v-4.96h1.27zM176.24 23.52h-1.57l-3.86-6.26h-.04l.03.35c.05.67.08 1.28.08 1.83v4.08h-1.17v-7.85h1.56l3.85 6.23h.03c-.01-.08-.02-.38-.04-.9s-.03-.92-.03-1.21v-4.11h1.18v7.84zM178.86 23.52v-7.85h1.28v7.85h-1.28zM187.24 15.67h1.33l-2.75 7.85h-1.35l-2.74-7.85h1.32l1.64 4.88c.09.23.18.53.27.9s.16.64.19.82c.05-.27.12-.59.21-.95.1-.36.17-.62.24-.79l1.64-4.86zM194.6 23.52h-4.44v-7.85h4.44v1.08h-3.16v2.14h2.96v1.07h-2.96v2.47h3.16v1.09zM198.14 20.39v3.14h-1.28v-7.85h2.22c1.01 0 1.76.19 2.25.57.49.38.73.95.73 1.72 0 .98-.51 1.67-1.53 2.09l2.22 3.47h-1.46l-1.88-3.14h-1.27zm0-1.07h.89c.6 0 1.03-.11 1.3-.33.27-.22.4-.55.4-.99 0-.44-.14-.76-.43-.96s-.73-.29-1.31-.29h-.85v2.57zM208.96 21.39c0 .7-.25 1.25-.76 1.64-.5.4-1.2.6-2.09.6s-1.62-.14-2.18-.41V22c.36.17.74.3 1.14.4.4.1.78.14 1.13.14.51 0 .88-.1 1.13-.29.24-.19.36-.45.36-.78 0-.29-.11-.54-.33-.75-.22-.2-.68-.45-1.38-.72-.72-.29-1.22-.62-1.52-.99-.29-.37-.44-.82-.44-1.34 0-.66.23-1.17.7-1.55.47-.38 1.09-.56 1.88-.56.75 0 1.5.16 2.25.49l-.41 1.05c-.7-.29-1.32-.44-1.87-.44-.42 0-.73.09-.95.27s-.32.42-.32.72c0 .2.04.38.13.52.09.15.23.28.42.41.2.13.55.3 1.06.51.58.24 1 .46 1.27.67.27.21.47.44.59.7.13.27.19.58.19.93zM211.03 23.52v-7.85h1.28v7.85h-1.28zM217.65 23.52h-1.28v-6.75h-2.31v-1.1h5.9v1.1h-2.31v6.75zM223.93 19.25l1.86-3.58h1.4l-2.62 4.81v3.04h-1.29v-3l-2.61-4.85h1.4l1.86 3.58zM235.39 19.26h2.89v3.94c-.47.15-.93.26-1.36.33-.43.06-.91.1-1.41.1-1.19 0-2.11-.35-2.75-1.06-.64-.7-.97-1.7-.97-2.98 0-1.26.36-2.25 1.09-2.97.73-.71 1.73-1.07 3-1.07.82 0 1.6.16 2.33.47l-.45 1.07c-.64-.29-1.28-.44-1.91-.44-.84 0-1.5.26-1.99.79s-.73 1.25-.73 2.16c0 .96.22 1.69.66 2.19.44.5 1.07.75 1.89.75.42 0 .86-.05 1.33-.16v-2.03h-1.63v-1.09zM245.59 23.52l-.78-2.18h-3l-.77 2.18h-1.35l2.94-7.88h1.4l2.94 7.88h-1.38zm-1.13-3.28-.74-2.14c-.05-.14-.13-.37-.22-.68-.09-.31-.16-.53-.2-.68-.1.44-.24.92-.42 1.45l-.71 2.05h2.29zM248.54 23.52v-7.85h1.28v6.75h3.32v1.1h-4.6zM259.52 15.67h1.33l-2.75 7.85h-1.35l-2.74-7.85h1.32l1.64 4.88c.09.23.18.53.27.9s.16.64.19.82c.05-.27.12-.59.21-.95.1-.36.17-.62.24-.79l1.64-4.86zM266.89 23.52h-4.44v-7.85h4.44v1.08h-3.16v2.14h2.96v1.07h-2.96v2.47h3.16v1.09zM273.66 21.39c0 .7-.25 1.25-.76 1.64-.5.4-1.2.6-2.09.6s-1.62-.14-2.18-.41V22c.36.17.74.3 1.14.4.4.1.78.14 1.13.14.51 0 .88-.1 1.13-.29.24-.19.36-.45.36-.78 0-.29-.11-.54-.33-.75-.22-.2-.68-.45-1.38-.72-.72-.29-1.22-.62-1.52-.99-.29-.37-.44-.82-.44-1.34 0-.66.23-1.17.7-1.55.47-.38 1.09-.56 1.88-.56.75 0 1.5.16 2.25.49l-.41 1.05c-.7-.29-1.32-.44-1.87-.44-.42 0-.73.09-.95.27s-.32.42-.32.72c0 .2.04.38.13.52.09.15.23.28.42.41.2.13.55.3 1.06.51.58.24 1 .46 1.27.67.27.21.47.44.59.7.13.27.19.58.19.93zM278.44 23.52h-1.28v-6.75h-2.31v-1.1h5.9v1.1h-2.31v6.75zM289.48 19.59c0 1.28-.32 2.27-.96 2.98-.64.71-1.54 1.06-2.72 1.06-1.18 0-2.09-.35-2.73-1.06-.64-.7-.95-1.7-.95-3s.32-2.29.96-2.99c.64-.7 1.55-1.04 2.74-1.04 1.17 0 2.07.35 2.71 1.06.63.71.95 1.7.95 2.99zm-6 0c0 .97.2 1.7.59 2.2.39.5.97.75 1.73.75s1.34-.25 1.73-.74.58-1.23.58-2.21c0-.96-.19-1.69-.58-2.19-.38-.5-.96-.75-1.72-.75-.77 0-1.35.25-1.74.75-.39.49-.59 1.22-.59 2.19zM298.26 23.52h-1.57l-3.86-6.26h-.04l.03.35c.05.67.08 1.28.08 1.83v4.08h-1.17v-7.85h1.56l3.85 6.23h.03c-.01-.08-.02-.38-.04-.9s-.03-.92-.03-1.21v-4.11h1.18v7.84zM99.33 33.23c-1.65 0-2.95.55-3.9 1.65-.95 1.1-1.43 2.6-1.43 4.51 0 1.96.46 3.48 1.38 4.55.92 1.07 2.23 1.6 3.93 1.6 1.05 0 2.24-.19 3.58-.56v1.53c-1.04.39-2.32.58-3.85.58-2.21 0-3.91-.67-5.11-2.01-1.2-1.34-1.8-3.24-1.8-5.71 0-1.54.29-2.9.87-4.06.58-1.16 1.41-2.06 2.5-2.69 1.09-.63 2.37-.94 3.85-.94 1.57 0 2.95.29 4.12.86l-.74 1.5c-1.13-.54-2.27-.81-3.4-.81zM110.33 47.09c-1.66 0-2.97-.51-3.93-1.52s-1.44-2.42-1.44-4.21c0-1.81.45-3.25 1.34-4.32.89-1.07 2.09-1.6 3.59-1.6 1.41 0 2.52.46 3.34 1.39.82.93 1.23 2.15 1.23 3.67v1.08h-7.74c.03 1.32.37 2.32 1 3s1.52 1.03 2.67 1.03c1.21 0 2.41-.25 3.59-.76v1.52c-.6.26-1.17.45-1.71.56-.53.1-1.18.16-1.94.16zm-.46-10.23c-.9 0-1.62.29-2.16.88-.54.59-.85 1.4-.95 2.44h5.88c0-1.07-.24-1.89-.72-2.47-.48-.56-1.16-.85-2.05-.85zM124.74 46.88v-7.27c0-.92-.21-1.6-.63-2.05s-1.07-.68-1.96-.68c-1.18 0-2.04.32-2.58.95s-.82 1.68-.82 3.15v5.9h-1.7V35.64h1.38l.28 1.54h.08c.35-.55.84-.98 1.47-1.29.63-.3 1.33-.46 2.1-.46 1.35 0 2.37.33 3.06.98.68.65 1.03 1.7 1.03 3.13v7.33h-1.71zM133.25 45.68c.3 0 .59-.02.87-.07.28-.04.5-.09.67-.14v1.3c-.19.09-.46.16-.82.22-.36.06-.68.09-.97.09-2.17 0-3.26-1.15-3.26-3.44v-6.69h-1.61v-.82l1.61-.71.72-2.4h.98v2.6h3.26v1.32h-3.26v6.61c0 .68.16 1.2.48 1.56.33.39.77.57 1.33.57zM141.47 47.09c-1.66 0-2.97-.51-3.93-1.52s-1.44-2.42-1.44-4.21c0-1.81.45-3.25 1.34-4.32.89-1.07 2.09-1.6 3.59-1.6 1.41 0 2.52.46 3.34 1.39.82.93 1.23 2.15 1.23 3.67v1.08h-7.74c.03 1.32.37 2.32 1 3 .63.68 1.52 1.03 2.67 1.03 1.21 0 2.41-.25 3.59-.76v1.52c-.6.26-1.17.45-1.71.56-.53.1-1.18.16-1.94.16zm-.46-10.23c-.9 0-1.62.29-2.16.88-.54.59-.85 1.4-.95 2.44h5.88c0-1.07-.24-1.89-.72-2.47-.48-.56-1.16-.85-2.05-.85zM153.32 35.44c.5 0 .95.04 1.34.12l-.24 1.58c-.46-.1-.88-.15-1.23-.15-.91 0-1.69.37-2.33 1.11-.65.74-.97 1.66-.97 2.76v6.03h-1.7V35.64h1.4l.2 2.08h.08c.42-.73.92-1.29 1.51-1.69.59-.39 1.23-.59 1.94-.59zM166.65 36.97h-2.86v9.92h-1.7v-9.92h-2.01v-.77l2.01-.62v-.63c0-2.76 1.21-4.14 3.62-4.14.59 0 1.29.12 2.09.36l-.44 1.36c-.66-.21-1.22-.32-1.68-.32-.64 0-1.12.21-1.43.64-.31.43-.46 1.11-.46 2.06v.73h2.86v1.33zM178.09 41.25c0 1.83-.46 3.26-1.38 4.29-.92 1.03-2.2 1.54-3.83 1.54-1 0-1.9-.24-2.68-.71s-1.38-1.15-1.8-2.03-.63-1.91-.63-3.1c0-1.83.46-3.26 1.37-4.28.92-1.02 2.19-1.53 3.81-1.53 1.57 0 2.82.52 3.75 1.57.93 1.05 1.39 2.47 1.39 4.25zm-8.56 0c0 1.44.29 2.53.86 3.28s1.42 1.13 2.53 1.13 1.96-.37 2.54-1.12c.58-.75.87-1.84.87-3.29 0-1.43-.29-2.51-.87-3.25-.58-.74-1.43-1.11-2.56-1.11-1.11 0-1.96.37-2.52 1.1s-.85 1.81-.85 3.26zM185.88 35.44c.5 0 .95.04 1.34.12l-.24 1.58c-.46-.1-.88-.15-1.23-.15-.91 0-1.69.37-2.33 1.11-.65.74-.97 1.66-.97 2.76v6.03h-1.7V35.64h1.4l.2 2.08h.08c.42-.73.92-1.29 1.51-1.69.59-.39 1.24-.59 1.94-.59zM199.03 46.88h-1.74V33.44h-4.75v-1.55h11.24v1.55h-4.75v13.44zM210.21 47.09c-1.66 0-2.97-.51-3.93-1.52s-1.44-2.42-1.44-4.21c0-1.81.45-3.25 1.34-4.32.89-1.07 2.09-1.6 3.59-1.6 1.41 0 2.52.46 3.34 1.39.82.93 1.23 2.15 1.23 3.67v1.08h-7.74c.03 1.32.37 2.32 1 3 .63.68 1.52 1.03 2.67 1.03 1.21 0 2.41-.25 3.59-.76v1.52c-.6.26-1.17.45-1.71.56-.54.1-1.19.16-1.94.16zm-.47-10.23c-.9 0-1.62.29-2.16.88-.54.59-.85 1.4-.95 2.44h5.88c0-1.07-.24-1.89-.72-2.47-.47-.56-1.16-.85-2.05-.85zM219.63 41.13l-3.91-5.49h1.94l2.96 4.31 2.95-4.31h1.92l-3.91 5.49 4.11 5.75h-1.93l-3.15-4.55-3.18 4.55h-1.93l4.13-5.75zM234.52 46.88l-.34-1.6h-.08c-.56.7-1.12 1.18-1.68 1.43-.56.25-1.25.37-2.09.37-1.11 0-1.99-.29-2.62-.86-.63-.57-.95-1.39-.95-2.45 0-2.27 1.82-3.46 5.44-3.57l1.91-.06v-.7c0-.88-.19-1.53-.57-1.95-.38-.42-.99-.63-1.82-.63-.94 0-2 .29-3.18.86l-.52-1.3c.55-.3 1.16-.54 1.82-.71.66-.17 1.32-.26 1.98-.26 1.34 0 2.33.3 2.98.89.65.59.97 1.55.97 2.86v7.67h-1.25zm-3.84-1.2c1.06 0 1.89-.29 2.5-.87.61-.58.91-1.39.91-2.44v-1.02l-1.7.07c-1.35.05-2.33.26-2.93.63-.6.37-.9.95-.9 1.74 0 .62.19 1.08.56 1.41.37.32.89.48 1.56.48zM246.23 43.82c0 1.05-.39 1.85-1.17 2.42s-1.87.85-3.28.85c-1.49 0-2.65-.24-3.49-.71V44.8c.54.27 1.12.49 1.74.65.62.16 1.21.24 1.79.24.89 0 1.57-.14 2.05-.42.48-.28.72-.72.72-1.3 0-.44-.19-.81-.57-1.12-.38-.31-1.12-.68-2.22-1.1-1.05-.39-1.79-.73-2.23-1.02-.44-.29-.77-.62-.98-.99-.22-.37-.32-.81-.32-1.32 0-.92.37-1.64 1.12-2.17.74-.53 1.77-.79 3.07-.79 1.21 0 2.39.25 3.55.74l-.61 1.38c-1.13-.46-2.15-.7-3.07-.7-.81 0-1.42.13-1.83.38s-.62.6-.62 1.05c0 .3.08.56.23.77.15.21.4.41.74.61.34.19 1 .47 1.97.83 1.33.49 2.23.97 2.7 1.47.47.46.71 1.08.71 1.83zM92.91 55.6h4.23c1.99 0 3.43.3 4.32.89s1.33 1.53 1.33 2.82c0 .89-.25 1.62-.74 2.2-.5.58-1.22.95-2.17 1.12v.1c2.28.39 3.41 1.59 3.41 3.59 0 1.34-.45 2.39-1.36 3.14-.91.75-2.17 1.13-3.8 1.13H92.9V55.6zm1.74 6.42h2.87c1.23 0 2.12-.19 2.66-.58s.81-1.04.81-1.95c0-.84-.3-1.45-.9-1.82s-1.56-.56-2.87-.56h-2.56v4.91zm0 1.47v5.61h3.13c1.21 0 2.12-.23 2.73-.7.61-.47.92-1.2.92-2.2 0-.93-.31-1.61-.94-2.05-.63-.44-1.58-.66-2.86-.66h-2.98zM110.69 70.79c-1.66 0-2.97-.51-3.93-1.52s-1.44-2.42-1.44-4.21c0-1.81.45-3.25 1.34-4.32.89-1.07 2.09-1.6 3.59-1.6 1.41 0 2.52.46 3.34 1.39s1.23 2.15 1.23 3.67v1.08h-7.74c.03 1.32.37 2.32 1 3s1.52 1.03 2.67 1.03c1.21 0 2.41-.25 3.59-.76v1.52c-.6.26-1.17.45-1.71.56-.53.11-1.18.16-1.94.16zm-.46-10.22c-.9 0-1.62.29-2.16.88-.54.59-.85 1.4-.95 2.44H113c0-1.07-.24-1.9-.72-2.47-.48-.57-1.16-.85-2.05-.85zM124.32 70.59l-.34-1.6h-.08c-.56.7-1.12 1.18-1.68 1.43-.56.25-1.25.37-2.09.37-1.11 0-1.99-.29-2.62-.86s-.95-1.39-.95-2.45c0-2.27 1.81-3.46 5.44-3.57l1.91-.06v-.7c0-.88-.19-1.53-.57-1.95-.38-.42-.99-.63-1.82-.63-.94 0-2 .29-3.18.86l-.52-1.3c.55-.3 1.16-.54 1.82-.71s1.32-.26 1.98-.26c1.34 0 2.33.3 2.98.89.65.59.97 1.55.97 2.86v7.67h-1.25zm-3.84-1.2c1.06 0 1.89-.29 2.5-.87.61-.58.91-1.39.91-2.44v-1.02l-1.7.07c-1.35.05-2.33.26-2.93.63-.6.37-.9.95-.9 1.74 0 .62.19 1.08.56 1.4s.89.49 1.56.49zM133.27 70.79c-1.63 0-2.89-.5-3.78-1.5-.89-1-1.34-2.42-1.34-4.25 0-1.88.45-3.33 1.36-4.36.91-1.03 2.2-1.54 3.87-1.54.54 0 1.08.06 1.62.17.54.12.96.25 1.27.41l-.52 1.45c-.38-.15-.79-.27-1.23-.37s-.84-.15-1.18-.15c-2.28 0-3.42 1.46-3.42 4.37 0 1.38.28 2.44.84 3.18.56.74 1.38 1.11 2.48 1.11.94 0 1.9-.2 2.88-.6v1.51c-.77.38-1.71.57-2.85.57zM146.15 70.59v-7.27c0-.92-.21-1.6-.63-2.05s-1.07-.68-1.96-.68c-1.18 0-2.05.32-2.59.96-.54.64-.82 1.7-.82 3.16v5.88h-1.7V54.63h1.7v4.83c0 .58-.03 1.06-.08 1.45h.1c.33-.54.81-.97 1.43-1.28.62-.31 1.32-.47 2.12-.47 1.37 0 2.4.33 3.09.98.69.65 1.03 1.69 1.03 3.11v7.33h-1.69zM155.78 70.79c-1.66 0-2.97-.51-3.93-1.52s-1.44-2.42-1.44-4.21c0-1.81.45-3.25 1.34-4.32.89-1.07 2.09-1.6 3.59-1.6 1.41 0 2.52.46 3.34 1.39s1.23 2.15 1.23 3.67v1.08h-7.74c.03 1.32.37 2.32 1 3 .63.68 1.52 1.03 2.67 1.03 1.21 0 2.41-.25 3.59-.76v1.52c-.6.26-1.17.45-1.71.56-.53.11-1.18.16-1.94.16zm-.46-10.22c-.9 0-1.62.29-2.16.88-.54.59-.85 1.4-.95 2.44h5.88c0-1.07-.24-1.9-.72-2.47-.48-.57-1.16-.85-2.05-.85zM169.75 67.52c0 1.05-.39 1.85-1.17 2.42s-1.87.85-3.28.85c-1.49 0-2.65-.24-3.49-.71V68.5c.54.27 1.12.49 1.74.65.62.16 1.21.24 1.79.24.89 0 1.57-.14 2.05-.43s.72-.72.72-1.3c0-.44-.19-.81-.57-1.12-.38-.31-1.12-.68-2.22-1.1-1.05-.39-1.79-.73-2.23-1.02-.44-.29-.77-.62-.98-.99-.22-.37-.32-.81-.32-1.32 0-.92.37-1.64 1.12-2.17.74-.53 1.77-.79 3.07-.79 1.21 0 2.39.25 3.55.74l-.61 1.38c-1.13-.46-2.15-.7-3.07-.7-.81 0-1.42.13-1.83.38s-.62.6-.62 1.05c0 .3.08.56.23.77.15.21.4.41.74.6.34.19 1 .47 1.97.83 1.33.49 2.23.97 2.7 1.47.47.49.71 1.11.71 1.85zM184.25 70.59l-.34-1.6h-.08c-.56.7-1.12 1.18-1.68 1.43-.56.25-1.25.37-2.09.37-1.11 0-1.99-.29-2.62-.86-.63-.57-.95-1.39-.95-2.45 0-2.27 1.82-3.46 5.44-3.57l1.91-.06v-.7c0-.88-.19-1.53-.57-1.95-.38-.42-.99-.63-1.82-.63-.94 0-2 .29-3.18.86l-.52-1.3c.55-.3 1.16-.54 1.82-.71.66-.17 1.32-.26 1.98-.26 1.34 0 2.33.3 2.98.89.65.59.97 1.55.97 2.86v7.67h-1.25zm-3.84-1.2c1.06 0 1.89-.29 2.5-.87.61-.58.91-1.39.91-2.44v-1.02l-1.7.07c-1.35.05-2.33.26-2.93.63-.6.37-.9.95-.9 1.74 0 .62.19 1.08.56 1.4.37.33.89.49 1.56.49zM196.4 70.59v-7.27c0-.92-.21-1.6-.63-2.05s-1.07-.68-1.96-.68c-1.18 0-2.04.32-2.58.95s-.82 1.69-.82 3.15v5.9h-1.7V59.35h1.38l.28 1.54h.08c.35-.55.84-.98 1.47-1.29.63-.3 1.33-.46 2.1-.46 1.35 0 2.37.33 3.06.98s1.03 1.7 1.03 3.13v7.33h-1.71zM208.93 69.08h-.09c-.79 1.14-1.96 1.71-3.53 1.71-1.47 0-2.61-.5-3.43-1.51-.82-1-1.22-2.43-1.22-4.29s.41-3.29 1.23-4.32 1.96-1.54 3.42-1.54c1.52 0 2.69.55 3.51 1.66h.13l-.07-.79-.04-.79v-4.57h1.7V70.6h-1.38l-.23-1.52zm-3.41.29c1.16 0 2-.32 2.53-.95.52-.63.78-1.65.78-3.06V65c0-1.59-.26-2.73-.79-3.41-.53-.68-1.38-1.02-2.54-1.02-1 0-1.76.39-2.29 1.16-.53.78-.79 1.87-.79 3.29 0 1.44.26 2.52.79 3.25s1.3 1.1 2.31 1.1zM227.69 66.6c0 1.32-.48 2.35-1.44 3.09s-2.26 1.11-3.9 1.11c-1.78 0-3.14-.23-4.1-.69v-1.68c.62.26 1.29.46 2.01.62s1.44.23 2.15.23c1.16 0 2.04-.22 2.63-.66.59-.44.88-1.05.88-1.84 0-.52-.1-.94-.31-1.28-.21-.33-.56-.64-1.05-.92s-1.23-.6-2.23-.95c-1.39-.5-2.39-1.09-2.99-1.77-.6-.68-.9-1.58-.9-2.68 0-1.16.43-2.07 1.3-2.76s2.02-1.03 3.45-1.03c1.49 0 2.86.27 4.11.82l-.54 1.52c-1.24-.52-2.44-.78-3.61-.78-.92 0-1.64.2-2.16.59s-.78.95-.78 1.65c0 .52.1.95.29 1.28.19.33.51.64.97.91.45.28 1.15.58 2.09.92 1.57.56 2.65 1.16 3.25 1.8.58.64.88 1.47.88 2.5zM237.87 70.59v-7.27c0-.92-.21-1.6-.63-2.05s-1.07-.68-1.96-.68c-1.18 0-2.05.32-2.59.96-.54.64-.82 1.7-.82 3.16v5.88h-1.7V54.63h1.7v4.83c0 .58-.03 1.06-.08 1.45h.1c.33-.54.81-.97 1.43-1.28.62-.31 1.32-.47 2.12-.47 1.37 0 2.4.33 3.09.98.69.65 1.03 1.69 1.03 3.11v7.33h-1.69zM252.46 64.96c0 1.83-.46 3.26-1.38 4.29-.92 1.03-2.2 1.54-3.83 1.54-1 0-1.9-.24-2.68-.71s-1.38-1.15-1.8-2.03-.63-1.91-.63-3.1c0-1.83.46-3.26 1.37-4.28s2.19-1.53 3.81-1.53c1.57 0 2.82.52 3.75 1.57.92 1.05 1.39 2.46 1.39 4.25zm-8.56 0c0 1.44.29 2.53.86 3.28s1.42 1.13 2.53 1.13 1.96-.37 2.54-1.12c.58-.75.87-1.84.87-3.29 0-1.43-.29-2.51-.87-3.26-.58-.74-1.43-1.11-2.56-1.11-1.11 0-1.96.37-2.52 1.1s-.85 1.82-.85 3.27zM260.25 59.14c.5 0 .95.04 1.34.12l-.24 1.58c-.46-.1-.88-.15-1.23-.15-.91 0-1.69.37-2.33 1.11-.65.74-.97 1.66-.97 2.76v6.03h-1.7V59.35h1.4l.2 2.08h.08c.42-.73.92-1.3 1.51-1.69.59-.4 1.24-.6 1.94-.6zM268.13 70.79c-1.66 0-2.97-.51-3.93-1.52s-1.44-2.42-1.44-4.21c0-1.81.45-3.25 1.34-4.32.89-1.07 2.09-1.6 3.59-1.6 1.41 0 2.52.46 3.34 1.39s1.23 2.15 1.23 3.67v1.08h-7.74c.03 1.32.37 2.32 1 3 .63.68 1.52 1.03 2.67 1.03 1.21 0 2.41-.25 3.59-.76v1.52c-.6.26-1.17.45-1.71.56-.53.11-1.18.16-1.94.16zm-.46-10.22c-.9 0-1.62.29-2.16.88-.54.59-.85 1.4-.95 2.44h5.88c0-1.07-.24-1.9-.72-2.47-.48-.57-1.16-.85-2.05-.85zM282.1 67.52c0 1.05-.39 1.85-1.17 2.42s-1.87.85-3.28.85c-1.49 0-2.65-.24-3.49-.71V68.5c.54.27 1.12.49 1.74.65.62.16 1.21.24 1.79.24.89 0 1.57-.14 2.05-.43s.72-.72.72-1.3c0-.44-.19-.81-.57-1.12-.38-.31-1.12-.68-2.22-1.1-1.05-.39-1.79-.73-2.23-1.02-.44-.29-.77-.62-.98-.99-.22-.37-.32-.81-.32-1.32 0-.92.37-1.64 1.12-2.17.74-.53 1.77-.79 3.07-.79 1.21 0 2.39.25 3.55.74l-.61 1.38c-1.13-.46-2.15-.7-3.07-.7-.81 0-1.42.13-1.83.38s-.62.6-.62 1.05c0 .3.08.56.23.77.15.21.4.41.74.6.34.19 1 .47 1.97.83 1.33.49 2.23.97 2.7 1.47.48.49.71 1.11.71 1.85z"/></svg>