<?xml version="1.0" encoding="utf-8"?>
<!-- Generator: Adobe Illustrator 23.1.0, SVG Export Plug-In . SVG Version: 6.00 Build 0)  -->
<svg version="1.1" id="Layer_1" xmlns="http://www.w3.org/2000/svg" xmlns:xlink="http://www.w3.org/1999/xlink" x="0px" y="0px"
	 viewBox="0 0 346.37 87.33" style="enable-background:new 0 0 346.37 87.33;" xml:space="preserve">
<style type="text/css">
	.st0{fill:#500000;}
	.st1{fill:#FFFFFF;}
	.st2{fill:#B1B3B6;}
	.st3{fill:#231F20;}
</style>
<g>
	<g>
		<rect x="12.59" y="12.79" class="st0" width="61.26" height="61.75"/>
		<polygon class="st1" points="65.71,37.37 61.16,37.37 60.9,37.37 60.78,37.6 57.48,44.47 54.17,37.6 54.06,37.37 53.79,37.37 
			49.4,37.37 48.98,37.37 48.98,37.78 48.98,40.13 48.98,40.54 49.4,40.54 50.15,40.54 50.15,50.38 49.34,50.38 48.92,50.38 
			48.92,50.8 48.92,53.14 48.92,53.56 49.34,53.56 54.27,53.56 54.69,53.56 54.69,53.14 54.69,50.8 54.69,50.38 54.27,50.38 
			53.42,50.38 53.42,43.4 57.11,51.01 57.48,51.78 57.86,51.01 61.59,43.38 61.59,50.38 60.78,50.38 60.36,50.38 60.36,50.8 
			60.36,53.14 60.36,53.56 60.78,53.56 65.71,53.56 66.13,53.56 66.13,53.14 66.13,50.8 66.13,50.38 65.71,50.38 64.86,50.38 
			64.86,40.54 65.71,40.54 66.13,40.54 66.13,40.13 66.13,37.78 66.13,37.37 		"/>
		<path class="st1" d="M37.03,50.37h-1.31l-4.27-9.87h0.82v-3.19h-6.86v3.18h0.95l-4.27,9.87H20.3v3.18h6.23v-3.18h-0.91l0.71-1.64
			h5.14l0.71,1.64h-0.96v3.18h6.23v-3.18L37.03,50.37z M30.1,45.55h-2.38l1.19-2.76L30.1,45.55z"/>
		<polygon class="st1" points="60.49,25.02 25.84,25.02 25.36,25.02 25.36,25.5 25.36,34.75 25.36,35.23 25.84,35.23 31.82,35.23 
			32.3,35.23 32.3,34.75 32.3,31.31 39.69,31.31 39.69,55.71 36.25,55.71 35.77,55.71 35.77,56.19 35.77,62.17 35.77,62.65 
			36.25,62.65 50.07,62.65 50.55,62.65 50.55,62.17 50.55,56.19 50.55,55.71 50.07,55.71 46.63,55.71 46.63,31.31 53.98,31.31 
			53.98,34.71 53.98,35.19 54.46,35.19 60.49,35.19 60.96,35.19 60.96,34.71 60.96,25.5 60.96,25.02 		"/>
		<polygon class="st2" points="47.66,58.55 49.12,57.05 49.12,61.18 47.66,59.78 		"/>
		<polygon class="st2" points="45.22,57.16 43.75,58.6 43.75,28.44 45.22,29.9 		"/>
		<polygon class="st2" points="28.29,27.91 26.79,26.44 58.81,26.44 56.92,27.91 		"/>
		<polygon class="st2" points="59.58,33.85 58.12,32.45 58.12,28.72 59.58,27.22 		"/>
		<path class="st0" d="M76.02,73.31c0-0.68,0.55-1.23,1.23-1.23c0.68,0,1.23,0.55,1.23,1.23s-0.55,1.23-1.23,1.23
			C76.57,74.54,76.02,73.99,76.02,73.31L76.02,73.31z M78.18,73.31c-0.03-0.51-0.48-0.9-0.99-0.87c-0.51,0.03-0.9,0.48-0.87,0.99
			c0.03,0.49,0.44,0.87,0.93,0.87c0.52-0.01,0.94-0.43,0.93-0.96C78.18,73.34,78.18,73.33,78.18,73.31z M76.78,72.61h0.52
			c0.34,0,0.51,0.12,0.51,0.41c0.02,0.19-0.12,0.35-0.3,0.37c-0.02,0-0.04,0-0.06,0L77.82,74h-0.27l-0.36-0.61h-0.16v0.6h-0.26
			L76.78,72.61z M77.04,73.21h0.23c0.15,0,0.29-0.02,0.29-0.21s-0.15-0.19-0.28-0.19h-0.23V73.21z"/>
	</g>
	<g>
		<path class="st3" d="M104.52,60.55c0,2.65-0.72,4.68-2.16,6.08c-1.44,1.4-3.51,2.1-6.21,2.1H91.7V52.68h4.92
			c2.5,0,4.44,0.69,5.82,2.08C103.83,56.14,104.52,58.07,104.52,60.55z M102.54,60.62c0-2.09-0.53-3.67-1.58-4.73
			c-1.05-1.06-2.61-1.59-4.69-1.59h-2.71v12.83h2.27c2.23,0,3.9-0.55,5.02-1.64C101.98,64.38,102.54,62.76,102.54,60.62z"/>
		<path class="st3" d="M114.9,68.74l-0.36-1.71h-0.09c-0.6,0.75-1.2,1.27-1.8,1.53c-0.6,0.27-1.34,0.4-2.24,0.4
			c-1.19,0-2.13-0.31-2.81-0.92c-0.68-0.62-1.02-1.49-1.02-2.63c0-2.43,1.94-3.71,5.83-3.82l2.04-0.07v-0.75
			c0-0.95-0.2-1.64-0.61-2.09c-0.41-0.45-1.06-0.68-1.95-0.68c-1,0-2.14,0.31-3.41,0.92l-0.56-1.4c0.59-0.32,1.24-0.57,1.95-0.76
			c0.71-0.18,1.42-0.27,2.13-0.27c1.44,0,2.5,0.32,3.19,0.96c0.69,0.64,1.04,1.66,1.04,3.07v8.22H114.9z M110.78,67.45
			c1.13,0,2.03-0.31,2.67-0.93c0.65-0.62,0.97-1.49,0.97-2.61v-1.09l-1.82,0.08c-1.45,0.05-2.5,0.28-3.14,0.68
			c-0.64,0.4-0.96,1.02-0.96,1.86c0,0.66,0.2,1.16,0.6,1.5C109.5,67.28,110.06,67.45,110.78,67.45z"/>
		<path class="st3" d="M123.56,67.45c0.32,0,0.63-0.02,0.93-0.07c0.3-0.05,0.54-0.1,0.71-0.15v1.4c-0.2,0.1-0.49,0.17-0.87,0.24
			c-0.38,0.06-0.73,0.09-1.04,0.09c-2.33,0-3.49-1.23-3.49-3.68v-7.16h-1.72v-0.88l1.72-0.76l0.77-2.57h1.05v2.79h3.49v1.42h-3.49
			v7.09c0,0.73,0.17,1.28,0.52,1.67S122.96,67.45,123.56,67.45z"/>
		<path class="st3" d="M134.68,68.74l-0.36-1.71h-0.09c-0.6,0.75-1.2,1.27-1.8,1.53c-0.6,0.27-1.34,0.4-2.24,0.4
			c-1.19,0-2.13-0.31-2.81-0.92c-0.68-0.62-1.02-1.49-1.02-2.63c0-2.43,1.94-3.71,5.83-3.82l2.04-0.07v-0.75
			c0-0.95-0.2-1.64-0.61-2.09c-0.41-0.45-1.06-0.68-1.95-0.68c-1,0-2.14,0.31-3.41,0.92l-0.56-1.4c0.59-0.32,1.24-0.57,1.95-0.76
			c0.71-0.18,1.42-0.27,2.13-0.27c1.44,0,2.5,0.32,3.19,0.96c0.69,0.64,1.04,1.66,1.04,3.07v8.22H134.68z M130.56,67.45
			c1.13,0,2.03-0.31,2.67-0.93s0.97-1.49,0.97-2.61v-1.09l-1.82,0.08c-1.45,0.05-2.5,0.28-3.14,0.68c-0.64,0.4-0.96,1.02-0.96,1.86
			c0,0.66,0.2,1.16,0.6,1.5C129.28,67.28,129.84,67.45,130.56,67.45z"/>
		<path class="st3" d="M154.29,64.46c0,1.41-0.51,2.52-1.54,3.31c-1.03,0.79-2.42,1.19-4.18,1.19c-1.9,0-3.37-0.25-4.39-0.74v-1.8
			c0.66,0.28,1.38,0.5,2.15,0.66c0.78,0.16,1.54,0.24,2.31,0.24c1.25,0,2.18-0.24,2.81-0.71c0.63-0.47,0.95-1.13,0.95-1.97
			c0-0.56-0.11-1.01-0.34-1.37c-0.22-0.35-0.6-0.68-1.12-0.98c-0.52-0.3-1.32-0.64-2.39-1.02c-1.49-0.53-2.56-1.17-3.2-1.9
			c-0.64-0.73-0.96-1.69-0.96-2.87c0-1.24,0.46-2.22,1.4-2.96c0.93-0.73,2.16-1.1,3.69-1.1c1.6,0,3.07,0.29,4.41,0.88l-0.58,1.63
			c-1.33-0.56-2.62-0.83-3.87-0.83c-0.99,0-1.76,0.21-2.32,0.64s-0.83,1.01-0.83,1.77c0,0.56,0.1,1.01,0.31,1.37
			c0.21,0.36,0.55,0.68,1.04,0.98c0.49,0.3,1.23,0.62,2.24,0.98c1.68,0.6,2.84,1.25,3.48,1.93
			C153.98,62.47,154.29,63.37,154.29,64.46z"/>
		<path class="st3" d="M161.78,68.96c-1.74,0-3.09-0.54-4.05-1.61c-0.96-1.07-1.43-2.59-1.43-4.55c0-2.01,0.49-3.57,1.46-4.67
			c0.97-1.1,2.35-1.65,4.15-1.65c0.58,0,1.16,0.06,1.74,0.19c0.58,0.13,1.03,0.27,1.36,0.44l-0.56,1.55
			c-0.4-0.16-0.84-0.29-1.32-0.4c-0.48-0.11-0.9-0.16-1.26-0.16c-2.45,0-3.67,1.56-3.67,4.68c0,1.48,0.3,2.62,0.9,3.41
			c0.6,0.79,1.48,1.19,2.65,1.19c1,0,2.03-0.22,3.09-0.65v1.62C164.02,68.75,163,68.96,161.78,68.96z"/>
		<path class="st3" d="M167.19,53.43c0-0.42,0.1-0.72,0.31-0.92c0.2-0.19,0.46-0.29,0.77-0.29c0.29,0,0.55,0.1,0.76,0.3
			c0.21,0.2,0.32,0.5,0.32,0.91s-0.11,0.72-0.32,0.92c-0.21,0.2-0.46,0.3-0.76,0.3c-0.31,0-0.56-0.1-0.77-0.3
			C167.29,54.15,167.19,53.84,167.19,53.43z M169.17,68.74h-1.82V56.7h1.82V68.74z"/>
		<path class="st3" d="M177.78,68.96c-1.78,0-3.18-0.54-4.21-1.63c-1.03-1.08-1.54-2.59-1.54-4.52c0-1.94,0.48-3.48,1.43-4.63
			s2.24-1.71,3.85-1.71c1.51,0,2.7,0.5,3.58,1.49c0.88,0.99,1.32,2.3,1.32,3.93v1.15h-8.29c0.04,1.41,0.39,2.49,1.07,3.22
			c0.68,0.73,1.63,1.1,2.86,1.1c1.3,0,2.58-0.27,3.85-0.81v1.63c-0.64,0.28-1.25,0.48-1.83,0.6
			C179.29,68.9,178.59,68.96,177.78,68.96z M177.29,58c-0.97,0-1.74,0.31-2.31,0.94c-0.57,0.63-0.91,1.5-1.02,2.62h6.29
			c0-1.15-0.26-2.03-0.77-2.64C178.97,58.31,178.24,58,177.29,58z"/>
		<path class="st3" d="M193.22,68.74v-7.79c0-0.98-0.22-1.71-0.67-2.2c-0.45-0.48-1.15-0.73-2.1-0.73c-1.26,0-2.18,0.34-2.77,1.02
			c-0.59,0.68-0.88,1.81-0.88,3.37v6.32h-1.82V56.7h1.48l0.3,1.65h0.09c0.37-0.59,0.9-1.05,1.57-1.38c0.67-0.33,1.42-0.49,2.25-0.49
			c1.45,0,2.54,0.35,3.27,1.05c0.73,0.7,1.1,1.82,1.1,3.36v7.86H193.22z"/>
		<path class="st3" d="M203.26,68.96c-1.74,0-3.09-0.54-4.05-1.61c-0.96-1.07-1.43-2.59-1.43-4.55c0-2.01,0.49-3.57,1.46-4.67
			c0.97-1.1,2.35-1.65,4.15-1.65c0.58,0,1.16,0.06,1.74,0.19c0.58,0.13,1.03,0.27,1.36,0.44l-0.56,1.55
			c-0.4-0.16-0.84-0.29-1.32-0.4c-0.48-0.11-0.9-0.16-1.26-0.16c-2.45,0-3.67,1.56-3.67,4.68c0,1.48,0.3,2.62,0.9,3.41
			c0.6,0.79,1.48,1.19,2.65,1.19c1,0,2.03-0.22,3.09-0.65v1.62C205.5,68.75,204.49,68.96,203.26,68.96z"/>
		<path class="st3" d="M213.91,68.96c-1.78,0-3.18-0.54-4.21-1.63c-1.03-1.08-1.54-2.59-1.54-4.52c0-1.94,0.48-3.48,1.43-4.63
			s2.24-1.71,3.85-1.71c1.51,0,2.7,0.5,3.58,1.49c0.88,0.99,1.32,2.3,1.32,3.93v1.15h-8.29c0.04,1.41,0.39,2.49,1.07,3.22
			c0.68,0.73,1.63,1.1,2.86,1.1c1.3,0,2.58-0.27,3.85-0.81v1.63c-0.64,0.28-1.25,0.48-1.83,0.6
			C215.42,68.9,214.73,68.96,213.91,68.96z M213.42,58c-0.97,0-1.74,0.31-2.31,0.94c-0.57,0.63-0.91,1.5-1.02,2.62h6.29
			c0-1.15-0.26-2.03-0.77-2.64C215.1,58.31,214.37,58,213.42,58z"/>
	</g>
	<g>
		<path class="st3" d="M91.7,35.5V19.44h1.87V35.5H91.7z"/>
		<path class="st3" d="M105.6,35.5v-7.79c0-0.98-0.22-1.71-0.67-2.2s-1.15-0.73-2.1-0.73c-1.26,0-2.18,0.34-2.77,1.02
			s-0.88,1.81-0.88,3.37v6.32h-1.82V23.46h1.48l0.3,1.65h0.09c0.37-0.59,0.9-1.05,1.57-1.38c0.67-0.33,1.42-0.49,2.25-0.49
			c1.45,0,2.54,0.35,3.27,1.05c0.73,0.7,1.1,1.82,1.1,3.36v7.86H105.6z"/>
		<path class="st3" d="M118.6,32.21c0,1.12-0.42,1.99-1.25,2.59c-0.83,0.61-2.01,0.91-3.52,0.91c-1.6,0-2.84-0.25-3.74-0.76v-1.69
			c0.58,0.29,1.2,0.52,1.86,0.69c0.66,0.17,1.3,0.25,1.92,0.25c0.95,0,1.68-0.15,2.2-0.46c0.51-0.3,0.77-0.77,0.77-1.39
			c0-0.47-0.2-0.87-0.61-1.2c-0.41-0.33-1.2-0.73-2.38-1.18c-1.12-0.42-1.92-0.78-2.39-1.09c-0.47-0.31-0.82-0.66-1.05-1.06
			c-0.23-0.4-0.35-0.87-0.35-1.42c0-0.98,0.4-1.76,1.2-2.32c0.8-0.57,1.89-0.85,3.28-0.85c1.3,0,2.56,0.26,3.8,0.79l-0.65,1.48
			c-1.21-0.5-2.3-0.75-3.28-0.75c-0.86,0-1.52,0.14-1.96,0.41s-0.66,0.64-0.66,1.12c0,0.32,0.08,0.6,0.25,0.82
			c0.17,0.23,0.43,0.44,0.8,0.65c0.37,0.21,1.07,0.5,2.11,0.89c1.43,0.52,2.39,1.04,2.89,1.57C118.35,30.75,118.6,31.42,118.6,32.21
			z"/>
		<path class="st3" d="M125.12,34.21c0.32,0,0.63-0.02,0.93-0.07c0.3-0.05,0.54-0.1,0.71-0.15v1.4c-0.2,0.1-0.49,0.17-0.87,0.24
			c-0.38,0.06-0.73,0.09-1.04,0.09c-2.33,0-3.49-1.23-3.49-3.68v-7.16h-1.72V24l1.72-0.76l0.77-2.57h1.05v2.79h3.49v1.42h-3.49v7.09
			c0,0.73,0.17,1.28,0.52,1.67S124.52,34.21,125.12,34.21z"/>
		<path class="st3" d="M128.68,20.19c0-0.42,0.1-0.72,0.31-0.92c0.21-0.19,0.46-0.29,0.77-0.29c0.29,0,0.55,0.1,0.76,0.3
			c0.21,0.2,0.32,0.5,0.32,0.91s-0.11,0.72-0.32,0.92c-0.21,0.2-0.46,0.3-0.76,0.3c-0.31,0-0.56-0.1-0.77-0.3
			C128.78,20.91,128.68,20.6,128.68,20.19z M130.66,35.5h-1.82V23.46h1.82V35.5z"/>
		<path class="st3" d="M138.08,34.21c0.32,0,0.63-0.02,0.93-0.07c0.3-0.05,0.54-0.1,0.71-0.15v1.4c-0.2,0.1-0.49,0.17-0.87,0.24
			c-0.38,0.06-0.73,0.09-1.04,0.09c-2.33,0-3.49-1.23-3.49-3.68v-7.16h-1.72V24l1.72-0.76l0.77-2.57h1.05v2.79h3.49v1.42h-3.49v7.09
			c0,0.73,0.17,1.28,0.52,1.67C137.01,34.02,137.48,34.21,138.08,34.21z"/>
		<path class="st3" d="M143.51,23.46v7.81c0,0.98,0.22,1.71,0.67,2.2c0.45,0.48,1.15,0.72,2.1,0.72c1.26,0,2.18-0.34,2.76-1.03
			c0.58-0.69,0.87-1.81,0.87-3.37v-6.33h1.82V35.5h-1.5l-0.26-1.62h-0.1c-0.37,0.59-0.89,1.05-1.55,1.36
			c-0.66,0.31-1.42,0.47-2.27,0.47c-1.46,0-2.56-0.35-3.29-1.04c-0.73-0.7-1.09-1.81-1.09-3.34v-7.88H143.51z"/>
		<path class="st3" d="M159.16,34.21c0.32,0,0.63-0.02,0.93-0.07c0.3-0.05,0.54-0.1,0.71-0.15v1.4c-0.2,0.1-0.49,0.17-0.87,0.24
			c-0.38,0.06-0.73,0.09-1.04,0.09c-2.33,0-3.49-1.23-3.49-3.68v-7.16h-1.72V24l1.72-0.76l0.77-2.57h1.05v2.79h3.49v1.42h-3.49v7.09
			c0,0.73,0.17,1.28,0.52,1.67C158.08,34.02,158.56,34.21,159.16,34.21z"/>
		<path class="st3" d="M167.96,35.72c-1.78,0-3.18-0.54-4.21-1.63c-1.03-1.08-1.54-2.59-1.54-4.52c0-1.94,0.48-3.48,1.43-4.63
			s2.24-1.71,3.85-1.71c1.51,0,2.7,0.5,3.58,1.49c0.88,0.99,1.32,2.3,1.32,3.93v1.15h-8.29c0.04,1.41,0.39,2.49,1.07,3.22
			c0.68,0.73,1.63,1.1,2.86,1.1c1.3,0,2.58-0.27,3.85-0.81v1.63c-0.64,0.28-1.25,0.48-1.83,0.6
			C169.47,35.66,168.77,35.72,167.96,35.72z M167.46,24.76c-0.97,0-1.74,0.31-2.31,0.94c-0.57,0.63-0.91,1.5-1.02,2.62h6.29
			c0-1.15-0.26-2.03-0.77-2.64C169.15,25.07,168.42,24.76,167.46,24.76z"/>
		<path class="st3" d="M191.06,29.47c0,1.96-0.49,3.5-1.48,4.6c-0.99,1.1-2.36,1.65-4.1,1.65c-1.08,0-2.03-0.25-2.87-0.76
			c-0.83-0.51-1.48-1.23-1.93-2.18c-0.45-0.94-0.68-2.05-0.68-3.32c0-1.96,0.49-3.49,1.47-4.59c0.98-1.1,2.34-1.64,4.09-1.64
			c1.68,0,3.02,0.56,4.02,1.68C190.56,26.04,191.06,27.55,191.06,29.47z M181.89,29.47c0,1.54,0.31,2.71,0.92,3.52
			s1.52,1.21,2.71,1.21c1.19,0,2.1-0.4,2.72-1.2c0.62-0.8,0.93-1.98,0.93-3.52c0-1.53-0.31-2.69-0.93-3.49
			c-0.62-0.79-1.53-1.19-2.74-1.19c-1.19,0-2.09,0.39-2.7,1.18C182.19,26.75,181.89,27.91,181.89,29.47z"/>
		<path class="st3" d="M199.35,24.87h-3.07V35.5h-1.82V24.87h-2.15v-0.82l2.15-0.66v-0.67c0-2.96,1.29-4.44,3.88-4.44
			c0.64,0,1.38,0.13,2.24,0.38l-0.47,1.46c-0.7-0.23-1.3-0.34-1.8-0.34c-0.69,0-1.2,0.23-1.53,0.69c-0.33,0.46-0.49,1.19-0.49,2.2
			v0.78h3.07V24.87z"/>
	</g>
</g>
</svg>
