<?xml version="1.0" encoding="utf-8"?>
<!-- Generator: Adobe Illustrator 22.1.0, SVG Export Plug-In . SVG Version: 6.00 Build 0)  -->
<svg version="1.1" id="Layer_1" xmlns="http://www.w3.org/2000/svg" xmlns:xlink="http://www.w3.org/1999/xlink" x="0px" y="0px"
	 viewBox="0 0 269.4 87.3" style="enable-background:new 0 0 269.4 87.3;" xml:space="preserve">
<style type="text/css">
	.st0{fill:#500000;}
	.st1{fill:#FFFFFF;}
	.st2{fill:#B1B3B6;}
	.st3{fill:#231F20;}
</style>
<g>
	<g>
		<rect x="12.6" y="12.8" class="st0" width="61.3" height="61.7"/>
		<polygon class="st1" points="65.7,37.4 61.2,37.4 60.9,37.4 60.8,37.6 57.5,44.5 54.2,37.6 54.1,37.4 53.8,37.4 49.4,37.4 
			49,37.4 49,37.8 49,40.1 49,40.5 49.4,40.5 50.1,40.5 50.1,50.4 49.3,50.4 48.9,50.4 48.9,50.8 48.9,53.1 48.9,53.6 49.3,53.6 
			54.3,53.6 54.7,53.6 54.7,53.1 54.7,50.8 54.7,50.4 54.3,50.4 53.4,50.4 53.4,43.4 57.1,51 57.5,51.8 57.9,51 61.6,43.4 
			61.6,50.4 60.8,50.4 60.4,50.4 60.4,50.8 60.4,53.1 60.4,53.6 60.8,53.6 65.7,53.6 66.1,53.6 66.1,53.1 66.1,50.8 66.1,50.4 
			65.7,50.4 64.9,50.4 64.9,40.5 65.7,40.5 66.1,40.5 66.1,40.1 66.1,37.8 66.1,37.4 		"/>
		<path class="st1" d="M37,50.4h-1.3l-4.3-9.9h0.8v-3.2h-6.9v3.2h0.9l-4.3,9.9h-1.8v3.2h6.2v-3.2h-0.9l0.7-1.6h5.1l0.7,1.6h-1v3.2
			h6.2v-3.2L37,50.4z M30.1,45.5h-2.4l1.2-2.8L30.1,45.5z"/>
		<polygon class="st1" points="60.5,25 25.8,25 25.4,25 25.4,25.5 25.4,34.8 25.4,35.2 25.8,35.2 31.8,35.2 32.3,35.2 32.3,34.8 
			32.3,31.3 39.7,31.3 39.7,55.7 36.3,55.7 35.8,55.7 35.8,56.2 35.8,62.2 35.8,62.6 36.3,62.6 50.1,62.6 50.5,62.6 50.5,62.2 
			50.5,56.2 50.5,55.7 50.1,55.7 46.6,55.7 46.6,31.3 54,31.3 54,34.7 54,35.2 54.5,35.2 60.5,35.2 61,35.2 61,34.7 61,25.5 61,25 
					"/>
		<polygon class="st2" points="47.7,58.6 49.1,57 49.1,61.2 47.7,59.8 		"/>
		<polygon class="st2" points="45.2,57.2 43.8,58.6 43.8,28.4 45.2,29.9 		"/>
		<polygon class="st2" points="28.3,27.9 26.8,26.4 58.8,26.4 56.9,27.9 		"/>
		<polygon class="st2" points="59.6,33.8 58.1,32.4 58.1,28.7 59.6,27.2 		"/>
		<path class="st0" d="M76,73.3c0-0.7,0.6-1.2,1.2-1.2c0.7,0,1.2,0.6,1.2,1.2s-0.6,1.2-1.2,1.2C76.6,74.5,76,74,76,73.3L76,73.3z
			 M78.2,73.3c0-0.5-0.5-0.9-1-0.9c-0.5,0-0.9,0.5-0.9,1c0,0.5,0.4,0.9,0.9,0.9C77.8,74.3,78.2,73.9,78.2,73.3
			C78.2,73.3,78.2,73.3,78.2,73.3z M76.8,72.6h0.5c0.3,0,0.5,0.1,0.5,0.4c0,0.2-0.1,0.4-0.3,0.4c0,0,0,0-0.1,0l0.4,0.6h-0.3
			l-0.4-0.6H77V74h-0.3L76.8,72.6z M77,73.2h0.2c0.2,0,0.3,0,0.3-0.2s-0.1-0.2-0.3-0.2H77V73.2z"/>
	</g>
	<g>
		<g>
			<path class="st3" d="M94.4,23.5h-1.3v-6.8h-2.3v-1.1h5.9v1.1h-2.3V23.5z"/>
			<path class="st3" d="M102.9,23.5h-4.4v-7.9h4.4v1.1h-3.2v2.1h3V20h-3v2.5h3.2V23.5z"/>
			<path class="st3" d="M110.9,23.5h-1.5l-2-3.2l-2,3.2h-1.4l2.6-4.1l-2.4-3.8h1.4l1.8,3l1.8-3h1.4l-2.5,3.8L110.9,23.5z"/>
			<path class="st3" d="M117.4,23.5l-0.8-2.2h-3l-0.8,2.2h-1.4l2.9-7.9h1.4l2.9,7.9H117.4z M116.3,20.2l-0.7-2.1
				c-0.1-0.1-0.1-0.4-0.2-0.7c-0.1-0.3-0.2-0.5-0.2-0.7c-0.1,0.4-0.2,0.9-0.4,1.4l-0.7,2H116.3z"/>
			<path class="st3" d="M124.9,21.4c0,0.7-0.3,1.2-0.8,1.6s-1.2,0.6-2.1,0.6s-1.6-0.1-2.2-0.4V22c0.4,0.2,0.7,0.3,1.1,0.4
				c0.4,0.1,0.8,0.1,1.1,0.1c0.5,0,0.9-0.1,1.1-0.3c0.2-0.2,0.4-0.5,0.4-0.8c0-0.3-0.1-0.5-0.3-0.7s-0.7-0.4-1.4-0.7
				c-0.7-0.3-1.2-0.6-1.5-1c-0.3-0.4-0.4-0.8-0.4-1.3c0-0.7,0.2-1.2,0.7-1.5s1.1-0.6,1.9-0.6c0.8,0,1.5,0.2,2.2,0.5l-0.4,1
				c-0.7-0.3-1.3-0.4-1.9-0.4c-0.4,0-0.7,0.1-0.9,0.3c-0.2,0.2-0.3,0.4-0.3,0.7c0,0.2,0,0.4,0.1,0.5c0.1,0.1,0.2,0.3,0.4,0.4
				s0.6,0.3,1.1,0.5c0.6,0.2,1,0.5,1.3,0.7c0.3,0.2,0.5,0.4,0.6,0.7C124.8,20.7,124.9,21,124.9,21.4z"/>
			<path class="st3" d="M135.2,23.5l-0.8-2.2h-3l-0.8,2.2h-1.4l2.9-7.9h1.4l2.9,7.9H135.2z M134.1,20.2l-0.7-2.1
				c-0.1-0.1-0.1-0.4-0.2-0.7c-0.1-0.3-0.2-0.5-0.2-0.7c-0.1,0.4-0.2,0.9-0.4,1.4l-0.7,2H134.1z"/>
			<path class="st3" d="M137.7,21.4c0-0.5,0.1-0.9,0.3-1.2c0.2-0.3,0.6-0.7,1.2-1c-0.3-0.4-0.6-0.7-0.7-1c-0.1-0.3-0.2-0.6-0.2-0.9
				c0-0.5,0.2-1,0.6-1.3c0.4-0.3,0.9-0.5,1.6-0.5c0.6,0,1.1,0.2,1.5,0.5c0.4,0.3,0.5,0.7,0.5,1.2c0,0.4-0.1,0.8-0.4,1.1
				c-0.2,0.3-0.6,0.7-1.2,1l1.9,1.8c0.3-0.4,0.5-0.9,0.7-1.7h1.3c-0.3,1-0.7,1.8-1.2,2.5l1.6,1.6h-1.6l-0.8-0.8
				c-0.4,0.3-0.8,0.5-1.2,0.7c-0.4,0.1-0.9,0.2-1.4,0.2c-0.8,0-1.5-0.2-1.9-0.6C137.9,22.7,137.7,22.1,137.7,21.4z M140.4,22.5
				c0.7,0,1.2-0.2,1.7-0.6l-2.1-2c-0.4,0.2-0.6,0.5-0.8,0.7s-0.2,0.5-0.2,0.7c0,0.4,0.1,0.6,0.4,0.9
				C139.6,22.4,139.9,22.5,140.4,22.5z M139.6,17.4c0,0.2,0.1,0.4,0.2,0.6c0.1,0.2,0.3,0.4,0.5,0.6c0.4-0.2,0.7-0.4,0.9-0.6
				c0.2-0.2,0.2-0.4,0.2-0.7c0-0.2-0.1-0.4-0.2-0.6c-0.2-0.1-0.4-0.2-0.6-0.2c-0.3,0-0.5,0.1-0.7,0.2
				C139.7,16.9,139.6,17.1,139.6,17.4z"/>
			<path class="st3" d="M150.3,23.5L148,17h0c0.1,1,0.1,1.9,0.1,2.7v3.8h-1.2v-7.9h1.8l2.2,6.2h0l2.2-6.2h1.8v7.9h-1.2v-3.9
				c0-0.4,0-0.9,0-1.5c0-0.6,0-1,0.1-1.1h0l-2.4,6.5H150.3z"/>
			<path class="st3" d="M167.1,15.7v5.1c0,0.6-0.1,1.1-0.4,1.5c-0.2,0.4-0.6,0.8-1.1,1c-0.5,0.2-1,0.4-1.7,0.4c-1,0-1.7-0.3-2.3-0.8
				c-0.5-0.5-0.8-1.2-0.8-2.1v-5.1h1.3v5c0,0.6,0.2,1.1,0.5,1.4c0.3,0.3,0.8,0.5,1.4,0.5c1.2,0,1.8-0.6,1.8-1.9v-5H167.1z"/>
			<path class="st3" d="M176.2,23.5h-1.6l-3.9-6.3h0l0,0.3c0,0.7,0.1,1.3,0.1,1.8v4.1h-1.2v-7.9h1.6l3.9,6.2h0c0-0.1,0-0.4,0-0.9
				s0-0.9,0-1.2v-4.1h1.2V23.5z"/>
			<path class="st3" d="M178.9,23.5v-7.9h1.3v7.9H178.9z"/>
			<path class="st3" d="M187.2,15.7h1.3l-2.8,7.9h-1.4l-2.7-7.9h1.3l1.6,4.9c0.1,0.2,0.2,0.5,0.3,0.9c0.1,0.4,0.2,0.6,0.2,0.8
				c0-0.3,0.1-0.6,0.2-0.9c0.1-0.4,0.2-0.6,0.2-0.8L187.2,15.7z"/>
			<path class="st3" d="M194.6,23.5h-4.4v-7.9h4.4v1.1h-3.2v2.1h3V20h-3v2.5h3.2V23.5z"/>
			<path class="st3" d="M198.1,20.4v3.1h-1.3v-7.9h2.2c1,0,1.8,0.2,2.3,0.6c0.5,0.4,0.7,1,0.7,1.7c0,1-0.5,1.7-1.5,2.1l2.2,3.5h-1.5
				l-1.9-3.1H198.1z M198.1,19.3h0.9c0.6,0,1-0.1,1.3-0.3c0.3-0.2,0.4-0.6,0.4-1c0-0.4-0.1-0.8-0.4-1s-0.7-0.3-1.3-0.3h-0.8V19.3z"
				/>
			<path class="st3" d="M209,21.4c0,0.7-0.3,1.2-0.8,1.6c-0.5,0.4-1.2,0.6-2.1,0.6s-1.6-0.1-2.2-0.4V22c0.4,0.2,0.7,0.3,1.1,0.4
				c0.4,0.1,0.8,0.1,1.1,0.1c0.5,0,0.9-0.1,1.1-0.3c0.2-0.2,0.4-0.5,0.4-0.8c0-0.3-0.1-0.5-0.3-0.7c-0.2-0.2-0.7-0.4-1.4-0.7
				c-0.7-0.3-1.2-0.6-1.5-1c-0.3-0.4-0.4-0.8-0.4-1.3c0-0.7,0.2-1.2,0.7-1.5c0.5-0.4,1.1-0.6,1.9-0.6c0.8,0,1.5,0.2,2.2,0.5l-0.4,1
				c-0.7-0.3-1.3-0.4-1.9-0.4c-0.4,0-0.7,0.1-0.9,0.3c-0.2,0.2-0.3,0.4-0.3,0.7c0,0.2,0,0.4,0.1,0.5c0.1,0.1,0.2,0.3,0.4,0.4
				c0.2,0.1,0.6,0.3,1.1,0.5c0.6,0.2,1,0.5,1.3,0.7c0.3,0.2,0.5,0.4,0.6,0.7C208.9,20.7,209,21,209,21.4z"/>
			<path class="st3" d="M211,23.5v-7.9h1.3v7.9H211z"/>
			<path class="st3" d="M217.7,23.5h-1.3v-6.8h-2.3v-1.1h5.9v1.1h-2.3V23.5z"/>
			<path class="st3" d="M223.9,19.3l1.9-3.6h1.4l-2.6,4.8v3h-1.3v-3l-2.6-4.8h1.4L223.9,19.3z"/>
		</g>
		<g>
			<path class="st3" d="M99.5,46.9l-5.1-13.3h-0.1c0.1,1.1,0.1,2.3,0.1,3.8v9.5h-1.6v-15h2.6l4.7,12.4h0.1l4.8-12.4h2.6v15H106v-9.7
				c0-1.1,0-2.3,0.1-3.6h-0.1l-5.1,13.3H99.5z"/>
			<path class="st3" d="M118.2,46.9l-0.3-1.6h-0.1c-0.6,0.7-1.1,1.2-1.7,1.4c-0.6,0.2-1.3,0.4-2.1,0.4c-1.1,0-2-0.3-2.6-0.9
				s-0.9-1.4-0.9-2.5c0-2.3,1.8-3.5,5.4-3.6l1.9-0.1v-0.7c0-0.9-0.2-1.5-0.6-2c-0.4-0.4-1-0.6-1.8-0.6c-0.9,0-2,0.3-3.2,0.9
				l-0.5-1.3c0.6-0.3,1.2-0.5,1.8-0.7s1.3-0.3,2-0.3c1.3,0,2.3,0.3,3,0.9c0.6,0.6,1,1.5,1,2.9v7.7H118.2z M114.4,45.7
				c1.1,0,1.9-0.3,2.5-0.9c0.6-0.6,0.9-1.4,0.9-2.4v-1l-1.7,0.1c-1.4,0-2.3,0.3-2.9,0.6c-0.6,0.4-0.9,1-0.9,1.7
				c0,0.6,0.2,1.1,0.6,1.4S113.7,45.7,114.4,45.7z"/>
			<path class="st3" d="M127.9,47.1c-0.7,0-1.4-0.1-2-0.4c-0.6-0.3-1.1-0.7-1.5-1.2h-0.1c0.1,0.7,0.1,1.3,0.1,1.9v4.6h-1.7V35.6h1.4
				l0.2,1.5h0.1c0.4-0.6,0.9-1.1,1.5-1.3s1.2-0.4,2-0.4c1.5,0,2.6,0.5,3.5,1.5c0.8,1,1.2,2.4,1.2,4.3c0,1.8-0.4,3.3-1.2,4.3
				C130.5,46.6,129.4,47.1,127.9,47.1z M127.6,36.9c-1.1,0-2,0.3-2.5,1s-0.8,1.6-0.8,3v0.4c0,1.6,0.3,2.7,0.8,3.4
				c0.5,0.7,1.4,1,2.5,1c1,0,1.7-0.4,2.3-1.2s0.8-1.9,0.8-3.3c0-1.4-0.3-2.5-0.8-3.2C129.4,37.3,128.6,36.9,127.6,36.9z"/>
			<path class="st3" d="M140.4,47.1c-0.7,0-1.4-0.1-2-0.4c-0.6-0.3-1.1-0.7-1.5-1.2h-0.1c0.1,0.7,0.1,1.3,0.1,1.9v4.6h-1.7V35.6h1.4
				l0.2,1.5h0.1c0.4-0.6,0.9-1.1,1.5-1.3c0.6-0.3,1.2-0.4,2-0.4c1.5,0,2.6,0.5,3.5,1.5c0.8,1,1.2,2.4,1.2,4.3c0,1.8-0.4,3.3-1.2,4.3
				C143,46.6,141.9,47.1,140.4,47.1z M140.2,36.9c-1.1,0-2,0.3-2.5,1c-0.5,0.6-0.8,1.6-0.8,3v0.4c0,1.6,0.3,2.7,0.8,3.4
				c0.5,0.7,1.4,1,2.5,1c1,0,1.7-0.4,2.3-1.2c0.6-0.8,0.8-1.9,0.8-3.3c0-1.4-0.3-2.5-0.8-3.2C142,37.3,141.2,36.9,140.2,36.9z"/>
			<path class="st3" d="M147.6,32.6c0-0.4,0.1-0.7,0.3-0.9c0.2-0.2,0.4-0.3,0.7-0.3c0.3,0,0.5,0.1,0.7,0.3s0.3,0.5,0.3,0.9
				s-0.1,0.7-0.3,0.9c-0.2,0.2-0.4,0.3-0.7,0.3c-0.3,0-0.5-0.1-0.7-0.3C147.7,33.3,147.6,33,147.6,32.6z M149.5,46.9h-1.7V35.6h1.7
				V46.9z"/>
			<path class="st3" d="M160.5,46.9v-7.3c0-0.9-0.2-1.6-0.6-2.1s-1.1-0.7-2-0.7c-1.2,0-2,0.3-2.6,1s-0.8,1.7-0.8,3.1v5.9h-1.7V35.6
				h1.4l0.3,1.5h0.1c0.3-0.6,0.8-1,1.5-1.3c0.6-0.3,1.3-0.5,2.1-0.5c1.4,0,2.4,0.3,3.1,1c0.7,0.7,1,1.7,1,3.1v7.3H160.5z"/>
			<path class="st3" d="M174.5,35.6v1.1l-2.1,0.2c0.2,0.2,0.4,0.6,0.5,0.9c0.2,0.4,0.2,0.8,0.2,1.3c0,1.1-0.4,2-1.1,2.6
				s-1.8,1-3.1,1c-0.3,0-0.6,0-0.9-0.1c-0.7,0.4-1.1,0.9-1.1,1.4c0,0.3,0.1,0.5,0.4,0.7c0.3,0.1,0.7,0.2,1.3,0.2h2
				c1.2,0,2.2,0.3,2.8,0.8c0.7,0.5,1,1.3,1,2.2c0,1.2-0.5,2.2-1.5,2.8c-1,0.7-2.5,1-4.4,1c-1.5,0-2.6-0.3-3.4-0.8
				c-0.8-0.5-1.2-1.3-1.2-2.3c0-0.7,0.2-1.3,0.7-1.8c0.4-0.5,1.1-0.8,1.8-1c-0.3-0.1-0.5-0.3-0.7-0.6c-0.2-0.3-0.3-0.6-0.3-1
				c0-0.4,0.1-0.8,0.3-1.1s0.6-0.6,1-0.9c-0.6-0.2-1.1-0.6-1.4-1.2c-0.4-0.6-0.5-1.2-0.5-2c0-1.2,0.4-2.2,1.1-2.8
				c0.7-0.7,1.8-1,3.1-1c0.6,0,1.1,0.1,1.6,0.2H174.5z M165.6,48.8c0,0.6,0.3,1.1,0.8,1.4s1.2,0.5,2.2,0.5c1.4,0,2.5-0.2,3.2-0.6
				c0.7-0.4,1-1,1-1.7c0-0.6-0.2-1-0.6-1.3c-0.4-0.2-1.1-0.4-2.1-0.4h-2c-0.8,0-1.4,0.2-1.8,0.6S165.6,48.1,165.6,48.8z M166.5,39.2
				c0,0.8,0.2,1.4,0.7,1.8s1.1,0.6,1.9,0.6c1.7,0,2.5-0.8,2.5-2.4c0-1.7-0.8-2.5-2.5-2.5c-0.8,0-1.4,0.2-1.8,0.6
				S166.5,38.4,166.5,39.2z"/>
			<path class="st3" d="M181,43c0-0.9,0.2-1.7,0.7-2.4c0.5-0.7,1.3-1.4,2.6-2.1c-0.6-0.6-1-1.1-1.2-1.5c-0.2-0.3-0.4-0.7-0.5-1
				s-0.2-0.7-0.2-1.1c0-1,0.3-1.8,1-2.4s1.6-0.9,2.8-0.9c1.1,0,2,0.3,2.6,0.9c0.6,0.6,1,1.4,1,2.4c0,0.7-0.2,1.4-0.7,2
				c-0.5,0.6-1.2,1.2-2.3,1.9l4.2,4c0.4-0.4,0.7-0.9,0.9-1.5c0.2-0.6,0.4-1.2,0.6-1.9h1.7c-0.5,2-1.2,3.4-2.1,4.5l3.1,3h-2.3
				l-1.9-1.8c-0.8,0.7-1.6,1.2-2.5,1.6s-1.8,0.5-2.8,0.5c-1.5,0-2.6-0.4-3.4-1.1C181.4,45.3,181,44.3,181,43z M185.7,45.6
				c1.6,0,3-0.5,4.1-1.6l-4.5-4.3c-0.8,0.5-1.3,0.8-1.6,1.2c-0.3,0.3-0.5,0.6-0.7,1c-0.2,0.3-0.2,0.7-0.2,1.2c0,0.8,0.3,1.4,0.8,1.9
				C184.1,45.3,184.8,45.6,185.7,45.6z M184.1,34.9c0,0.5,0.1,0.9,0.4,1.3c0.2,0.4,0.7,0.9,1.3,1.5c0.9-0.5,1.5-1,1.8-1.4
				c0.3-0.4,0.5-0.9,0.5-1.5c0-0.5-0.2-1-0.5-1.3c-0.4-0.3-0.8-0.5-1.4-0.5c-0.6,0-1.1,0.2-1.5,0.5
				C184.3,33.9,184.1,34.3,184.1,34.9z"/>
			<path class="st3" d="M210.5,42.9c0,1.3-0.5,2.3-1.4,3.1s-2.3,1.1-3.9,1.1c-1.8,0-3.1-0.2-4.1-0.7v-1.7c0.6,0.3,1.3,0.5,2,0.6
				s1.4,0.2,2.2,0.2c1.2,0,2-0.2,2.6-0.7c0.6-0.4,0.9-1.1,0.9-1.8c0-0.5-0.1-0.9-0.3-1.3c-0.2-0.3-0.6-0.6-1-0.9
				c-0.5-0.3-1.2-0.6-2.2-1c-1.4-0.5-2.4-1.1-3-1.8c-0.6-0.7-0.9-1.6-0.9-2.7c0-1.2,0.4-2.1,1.3-2.8s2-1,3.4-1
				c1.5,0,2.9,0.3,4.1,0.8l-0.5,1.5c-1.2-0.5-2.4-0.8-3.6-0.8c-0.9,0-1.6,0.2-2.2,0.6s-0.8,0.9-0.8,1.7c0,0.5,0.1,0.9,0.3,1.3
				c0.2,0.3,0.5,0.6,1,0.9c0.5,0.3,1.1,0.6,2.1,0.9c1.6,0.6,2.7,1.2,3.2,1.8C210.2,41,210.5,41.9,210.5,42.9z"/>
			<path class="st3" d="M218.3,47.1c-0.7,0-1.4-0.1-2-0.4c-0.6-0.3-1.1-0.7-1.5-1.2h-0.1c0.1,0.7,0.1,1.3,0.1,1.9v4.6H213V35.6h1.4
				l0.2,1.5h0.1c0.4-0.6,0.9-1.1,1.5-1.3c0.6-0.3,1.2-0.4,2-0.4c1.5,0,2.6,0.5,3.5,1.5c0.8,1,1.2,2.4,1.2,4.3c0,1.8-0.4,3.3-1.2,4.3
				C220.9,46.6,219.7,47.1,218.3,47.1z M218,36.9c-1.1,0-2,0.3-2.5,1c-0.5,0.6-0.8,1.6-0.8,3v0.4c0,1.6,0.3,2.7,0.8,3.4
				c0.5,0.7,1.4,1,2.5,1c1,0,1.7-0.4,2.3-1.2c0.6-0.8,0.8-1.9,0.8-3.3c0-1.4-0.3-2.5-0.8-3.2C219.8,37.3,219,36.9,218,36.9z"/>
			<path class="st3" d="M232.5,46.9l-0.3-1.6h-0.1c-0.6,0.7-1.1,1.2-1.7,1.4c-0.6,0.2-1.3,0.4-2.1,0.4c-1.1,0-2-0.3-2.6-0.9
				c-0.6-0.6-0.9-1.4-0.9-2.5c0-2.3,1.8-3.5,5.4-3.6l1.9-0.1v-0.7c0-0.9-0.2-1.5-0.6-2c-0.4-0.4-1-0.6-1.8-0.6c-0.9,0-2,0.3-3.2,0.9
				l-0.5-1.3c0.6-0.3,1.2-0.5,1.8-0.7c0.7-0.2,1.3-0.3,2-0.3c1.3,0,2.3,0.3,3,0.9c0.6,0.6,1,1.5,1,2.9v7.7H232.5z M228.7,45.7
				c1.1,0,1.9-0.3,2.5-0.9c0.6-0.6,0.9-1.4,0.9-2.4v-1l-1.7,0.1c-1.4,0-2.3,0.3-2.9,0.6c-0.6,0.4-0.9,1-0.9,1.7
				c0,0.6,0.2,1.1,0.6,1.4C227.5,45.5,228,45.7,228.7,45.7z"/>
			<path class="st3" d="M241.4,47.1c-1.6,0-2.9-0.5-3.8-1.5c-0.9-1-1.3-2.4-1.3-4.3c0-1.9,0.5-3.3,1.4-4.4c0.9-1,2.2-1.5,3.9-1.5
				c0.5,0,1.1,0.1,1.6,0.2c0.5,0.1,1,0.3,1.3,0.4l-0.5,1.4c-0.4-0.2-0.8-0.3-1.2-0.4c-0.4-0.1-0.8-0.1-1.2-0.1
				c-2.3,0-3.4,1.5-3.4,4.4c0,1.4,0.3,2.4,0.8,3.2c0.6,0.7,1.4,1.1,2.5,1.1c0.9,0,1.9-0.2,2.9-0.6v1.5
				C243.5,46.9,242.6,47.1,241.4,47.1z"/>
			<path class="st3" d="M251.4,47.1c-1.7,0-3-0.5-3.9-1.5c-1-1-1.4-2.4-1.4-4.2c0-1.8,0.4-3.3,1.3-4.3c0.9-1.1,2.1-1.6,3.6-1.6
				c1.4,0,2.5,0.5,3.3,1.4c0.8,0.9,1.2,2.1,1.2,3.7v1.1h-7.7c0,1.3,0.4,2.3,1,3c0.6,0.7,1.5,1,2.7,1c1.2,0,2.4-0.3,3.6-0.8v1.5
				c-0.6,0.3-1.2,0.4-1.7,0.6C252.8,47,252.1,47.1,251.4,47.1z M250.9,36.9c-0.9,0-1.6,0.3-2.2,0.9c-0.5,0.6-0.9,1.4-0.9,2.4h5.9
				c0-1.1-0.2-1.9-0.7-2.5C252.5,37.1,251.8,36.9,250.9,36.9z"/>
		</g>
		<g>
			<path class="st3" d="M92.9,70.6v-15h1.7v15H92.9z"/>
			<path class="st3" d="M105.9,70.6v-7.3c0-0.9-0.2-1.6-0.6-2.1s-1.1-0.7-2-0.7c-1.2,0-2,0.3-2.6,1s-0.8,1.7-0.8,3.1v5.9h-1.7V59.3
				h1.4l0.3,1.5h0.1c0.3-0.6,0.8-1,1.5-1.3c0.6-0.3,1.3-0.5,2.1-0.5c1.4,0,2.4,0.3,3.1,1s1,1.7,1,3.1v7.3H105.9z"/>
			<path class="st3" d="M115.8,60.7H113v9.9h-1.7v-9.9h-2v-0.8l2-0.6v-0.6c0-2.8,1.2-4.1,3.6-4.1c0.6,0,1.3,0.1,2.1,0.4l-0.4,1.4
				c-0.7-0.2-1.2-0.3-1.7-0.3c-0.6,0-1.1,0.2-1.4,0.6c-0.3,0.4-0.5,1.1-0.5,2.1v0.7h2.9V60.7z"/>
			<path class="st3" d="M127.3,65c0,1.8-0.5,3.3-1.4,4.3s-2.2,1.5-3.8,1.5c-1,0-1.9-0.2-2.7-0.7s-1.4-1.1-1.8-2s-0.6-1.9-0.6-3.1
				c0-1.8,0.5-3.3,1.4-4.3s2.2-1.5,3.8-1.5c1.6,0,2.8,0.5,3.7,1.6S127.3,63.2,127.3,65z M118.7,65c0,1.4,0.3,2.5,0.9,3.3
				s1.4,1.1,2.5,1.1s2-0.4,2.5-1.1c0.6-0.7,0.9-1.8,0.9-3.3c0-1.4-0.3-2.5-0.9-3.3c-0.6-0.7-1.4-1.1-2.6-1.1c-1.1,0-2,0.4-2.5,1.1
				S118.7,63.5,118.7,65z"/>
			<path class="st3" d="M135.1,59.1c0.5,0,0.9,0,1.3,0.1l-0.2,1.6c-0.5-0.1-0.9-0.2-1.2-0.2c-0.9,0-1.7,0.4-2.3,1.1
				c-0.6,0.7-1,1.7-1,2.8v6h-1.7V59.3h1.4l0.2,2.1h0.1c0.4-0.7,0.9-1.3,1.5-1.7C133.7,59.3,134.4,59.1,135.1,59.1z"/>
			<path class="st3" d="M152.5,70.6v-7.3c0-0.9-0.2-1.6-0.6-2c-0.4-0.4-1-0.7-1.8-0.7c-1.1,0-1.8,0.3-2.3,0.9s-0.8,1.5-0.8,2.8v6.3
				h-1.7v-7.3c0-0.9-0.2-1.6-0.6-2c-0.4-0.4-1-0.7-1.8-0.7c-1.1,0-1.8,0.3-2.3,1c-0.5,0.6-0.7,1.7-0.7,3.1v5.9h-1.7V59.3h1.4
				l0.3,1.5h0.1c0.3-0.5,0.8-1,1.4-1.3c0.6-0.3,1.2-0.5,2-0.5c1.8,0,2.9,0.6,3.4,1.9h0.1c0.3-0.6,0.8-1.1,1.5-1.4s1.4-0.5,2.2-0.5
				c1.3,0,2.2,0.3,2.9,1c0.6,0.7,0.9,1.7,0.9,3.1v7.3H152.5z"/>
			<path class="st3" d="M164.3,70.6L164,69h-0.1c-0.6,0.7-1.1,1.2-1.7,1.4c-0.6,0.2-1.3,0.4-2.1,0.4c-1.1,0-2-0.3-2.6-0.9
				c-0.6-0.6-0.9-1.4-0.9-2.5c0-2.3,1.8-3.5,5.4-3.6l1.9-0.1v-0.7c0-0.9-0.2-1.5-0.6-2c-0.4-0.4-1-0.6-1.8-0.6c-0.9,0-2,0.3-3.2,0.9
				l-0.5-1.3c0.6-0.3,1.2-0.5,1.8-0.7c0.7-0.2,1.3-0.3,2-0.3c1.3,0,2.3,0.3,3,0.9c0.6,0.6,1,1.5,1,2.9v7.7H164.3z M160.5,69.4
				c1.1,0,1.9-0.3,2.5-0.9c0.6-0.6,0.9-1.4,0.9-2.4v-1l-1.7,0.1c-1.4,0-2.3,0.3-2.9,0.6c-0.6,0.4-0.9,1-0.9,1.7
				c0,0.6,0.2,1.1,0.6,1.4C159.3,69.2,159.8,69.4,160.5,69.4z"/>
			<path class="st3" d="M172.4,69.4c0.3,0,0.6,0,0.9-0.1c0.3,0,0.5-0.1,0.7-0.1v1.3c-0.2,0.1-0.5,0.2-0.8,0.2
				c-0.4,0.1-0.7,0.1-1,0.1c-2.2,0-3.3-1.1-3.3-3.4v-6.7h-1.6v-0.8l1.6-0.7l0.7-2.4h1v2.6h3.3v1.3h-3.3v6.6c0,0.7,0.2,1.2,0.5,1.6
				S171.8,69.4,172.4,69.4z"/>
			<path class="st3" d="M175.7,56.3c0-0.4,0.1-0.7,0.3-0.9s0.4-0.3,0.7-0.3c0.3,0,0.5,0.1,0.7,0.3s0.3,0.5,0.3,0.9s-0.1,0.7-0.3,0.9
				c-0.2,0.2-0.4,0.3-0.7,0.3c-0.3,0-0.5-0.1-0.7-0.3C175.8,57,175.7,56.7,175.7,56.3z M177.6,70.6h-1.7V59.3h1.7V70.6z"/>
			<path class="st3" d="M190.6,65c0,1.8-0.5,3.3-1.4,4.3c-0.9,1-2.2,1.5-3.8,1.5c-1,0-1.9-0.2-2.7-0.7s-1.4-1.1-1.8-2
				s-0.6-1.9-0.6-3.1c0-1.8,0.5-3.3,1.4-4.3s2.2-1.5,3.8-1.5c1.6,0,2.8,0.5,3.7,1.6C190.1,61.8,190.6,63.2,190.6,65z M182,65
				c0,1.4,0.3,2.5,0.9,3.3s1.4,1.1,2.5,1.1s2-0.4,2.5-1.1c0.6-0.7,0.9-1.8,0.9-3.3c0-1.4-0.3-2.5-0.9-3.3c-0.6-0.7-1.4-1.1-2.6-1.1
				c-1.1,0-2,0.4-2.5,1.1S182,63.5,182,65z"/>
			<path class="st3" d="M200.9,70.6v-7.3c0-0.9-0.2-1.6-0.6-2.1s-1.1-0.7-2-0.7c-1.2,0-2,0.3-2.6,1s-0.8,1.7-0.8,3.1v5.9h-1.7V59.3
				h1.4l0.3,1.5h0.1c0.3-0.6,0.8-1,1.5-1.3c0.6-0.3,1.3-0.5,2.1-0.5c1.4,0,2.4,0.3,3.1,1s1,1.7,1,3.1v7.3H200.9z"/>
		</g>
	</g>
</g>
</svg>
