<?xml version="1.0" encoding="utf-8"?>
<!-- Generator: Adobe Illustrator 21.1.0, SVG Export Plug-In . SVG Version: 6.00 Build 0)  -->
<svg version="1.1" id="Layer_1" xmlns="http://www.w3.org/2000/svg" xmlns:xlink="http://www.w3.org/1999/xlink" x="0px" y="0px"
	 viewBox="0 0 1366 250" style="enable-background:new 0 0 1366 250;" xml:space="preserve">
<style type="text/css">
	.st0{fill:#500000;}
</style>
<g>
	<g>
		<rect x="357.8" y="7" class="st0" width="6" height="234.4"/>
	</g>
	<g>
		<polygon class="st0" points="256.8,87.6 231,87.6 229.5,87.6 228.9,89 210.2,127.8 191.5,89 190.9,87.6 189.4,87.6 164.6,87.6 
			162.2,87.6 162.2,90 162.2,103.3 162.2,105.6 164.6,105.6 168.8,105.6 168.8,161.2 164.2,161.2 161.8,161.2 161.8,163.6 
			161.8,176.8 161.8,179.2 164.2,179.2 192.1,179.2 194.5,179.2 194.5,176.8 194.5,163.6 194.5,161.2 192.1,161.2 187.3,161.2 
			187.3,121.8 208.1,164.8 210.2,169.1 212.4,164.8 233.4,121.7 233.4,161.2 228.8,161.2 226.5,161.2 226.5,163.6 226.5,176.8 
			226.5,179.2 228.8,179.2 256.8,179.2 259.1,179.2 259.1,176.8 259.1,163.6 259.1,161.2 256.8,161.2 251.9,161.2 251.9,105.6 
			256.8,105.6 259.1,105.6 259.1,103.3 259.1,90 259.1,87.6 		"/>
		<path class="st0" d="M94.7,161.1h-7.4l-24.1-55.8h2.3h2.4V103V89.7v-2.4h-2.4H31.4H29v2.4V103v2.3h2.3h3l-24.2,55.8H2.5H0.2v2.4
			v13.2v2.4h2.4H33h2.4v-2.4v-13.2v-2.4H33h-2.8l4-9.3h29l4,9.3h-3h-2.4v2.4v13.2v2.4h2.4h30.5h2.3v-2.4v-13.2v-2.4H94.7z
			 M55.5,133.9H42l6.8-15.6L55.5,133.9z"/>
		<path class="st0" d="M227.2,17.9H31.4h-2.7v2.7v52.3v2.7h2.7h33.8h2.7v-2.7V53.5h41.8v137.8H90.3h-2.7v2.7v33.8v2.7h2.7h78.1h2.7
			v-2.7V194v-2.7h-2.7h-19.4V53.5h41.5v19.2v2.7h2.7h34h2.7v-2.7v-52v-2.7L227.2,17.9L227.2,17.9z M154.8,207.4l8.3-8.5v23.3
			l-8.3-7.9V207.4z M140.9,199.5l-8.3,8.1V37.2l8.3,8.3V199.5z M45.3,34.2l-8.5-8.3h180.9L207,34.2H45.3z M222.1,67.8l-8.3-7.9V38.8
			l8.3-8.5V67.8z"/>
	</g>
	<g>
		<g>
			<path class="st0" d="M490.8,205.9h-2c-0.2-1.8-0.6-3.1-1.2-3.9c-0.6-0.8-1.2-1.4-1.9-1.6c-0.7-0.2-1.5-0.3-2.4-0.3h-3.6v21
				c0,0.8,0.1,1.5,0.3,1.9c0.2,0.5,0.6,0.8,1.2,1.1c0.6,0.3,1.5,0.4,2.7,0.4v1.9h-14.4v-1.9c1.8,0,2.9-0.3,3.4-0.8
				c0.5-0.5,0.8-1.4,0.8-2.6v-21h-3c-1.2,0-2.2,0.1-3,0.3c-0.8,0.2-1.5,0.7-2.1,1.6c-0.6,0.9-0.9,2.2-1,3.9h-2v-8.1h28.3
				L490.8,205.9L490.8,205.9z"/>
			<path class="st0" d="M538.2,217l-0.2,9.4h-25.5v-1.9c1.8,0,2.9-0.2,3.4-0.8c0.5-0.5,0.8-1.4,0.8-2.6v-18c0-0.8-0.1-1.5-0.2-1.9
				c-0.2-0.5-0.5-0.8-1.1-1.1c-0.6-0.3-1.5-0.4-2.8-0.4v-1.9h23.8l0.4,7.4h-1.9c-0.4-1.6-0.9-2.8-1.5-3.5c-0.6-0.7-1.2-1.1-1.9-1.3
				c-0.7-0.2-1.8-0.2-3.2-0.2h-5.4v10.1h2.9c1,0,1.7-0.1,2.2-0.3c0.5-0.2,0.8-0.5,1-1c0.2-0.5,0.3-1.3,0.4-2.3h2v9.5h-1.9
				c-0.1-1.1-0.2-1.8-0.4-2.3c-0.2-0.5-0.6-0.8-1.1-1c-0.5-0.2-1.2-0.3-2.2-0.3h-3v6.7c0,1.1,0,2,0.1,2.5c0.1,0.5,0.2,1,0.5,1.3
				c0.2,0.3,0.6,0.6,1.2,0.7c0.6,0.2,1.3,0.2,2.4,0.2h2.3c1,0,1.9-0.1,2.8-0.4c0.9-0.2,1.7-0.9,2.6-1.9c0.8-1,1.4-2.6,1.8-4.8
				L538.2,217L538.2,217z"/>
			<path class="st0" d="M593,226.4h-16.7v-1.9h1.3c0.7,0,1.4-0.1,2-0.3c0.6-0.2,0.9-0.6,0.9-1.3c0-0.3-0.4-1-1.1-2l-4.6-6.1
				l-4.5,5.2c-1,1.2-1.6,2.1-1.6,2.7c0,0.5,0.2,0.9,0.5,1.2c0.3,0.3,0.8,0.4,1.3,0.5c0.5,0.1,1.2,0.1,2,0.1v1.9h-12.6v-1.9
				c0.9,0,1.7-0.2,2.4-0.4c0.7-0.2,1.5-0.7,2.4-1.5c0.9-0.8,2-2,3.5-3.7l5.1-6l-6.9-9.1c-1-1.3-1.8-2.3-2.3-2.8
				c-0.5-0.5-1-0.8-1.6-1c-0.6-0.2-1.5-0.3-2.6-0.3v-1.9h15.6v1.9h-1.1c-0.8,0-1.4,0.1-1.8,0.2c-0.4,0.1-0.6,0.4-0.6,1
				c0,0.3,0.4,1.1,1.3,2.3l4,5.2l4.5-5.3c0.4-0.5,0.7-0.9,0.8-1.1c0.1-0.2,0.2-0.5,0.2-0.8c0-0.5-0.2-0.8-0.5-1
				c-0.4-0.2-1-0.3-2-0.3h-1v-1.9h11.8v1.9c-1.1,0-2,0.2-2.8,0.5c-0.8,0.3-1.4,0.8-2,1.4c-0.6,0.6-1.4,1.5-2.5,2.8l-5.1,5.9l7,9.1
				c1,1.4,1.9,2.4,2.6,3.1c0.7,0.7,1.3,1.2,2,1.5c0.7,0.3,1.6,0.5,2.7,0.5L593,226.4L593,226.4z"/>
			<path class="st0" d="M643.7,226.4h-13.5v-1.9c1.1,0,2-0.1,2.5-0.2c0.5-0.2,0.8-0.5,0.8-1.2c0-0.4-0.1-0.9-0.3-1.3l-1.4-3.4h-9.3
				l-0.7,1.9c-0.4,1-0.6,1.8-0.6,2.3c0,0.8,0.3,1.4,1,1.6c0.7,0.2,1.4,0.3,2.3,0.3v1.9h-9.9v-1.9c0.8,0,1.5-0.1,2-0.4
				c0.5-0.3,1.1-0.9,1.6-1.7c0.5-0.8,1-2,1.6-3.5l8.3-21.6h2l8.7,22.3c0.6,1.6,1.1,2.6,1.4,3.2c0.3,0.6,0.7,1,1.2,1.3
				c0.5,0.3,1.3,0.5,2.2,0.5L643.7,226.4L643.7,226.4z M631.1,216.4l-3.9-10l-3.8,10H631.1z"/>
			<path class="st0" d="M685.3,217.9c0,0.9-0.2,1.8-0.6,2.8c-0.4,1-0.9,1.9-1.7,2.8c-0.7,0.9-1.7,1.6-2.8,2.2
				c-1.2,0.6-2.5,0.8-4,0.8c-1.5,0-3-0.3-4.4-1c-1.5-0.6-2.7-1.6-3.7-2.9c-0.4,1-0.7,2-0.8,2.8h-1.9v-9.6h1.9
				c0.3,1.4,0.8,2.7,1.4,3.9c0.6,1.2,1.5,2.3,2.6,3.1c1.1,0.9,2.5,1.3,4.1,1.3c1.4,0,2.5-0.4,3.4-1.2c0.9-0.8,1.3-1.7,1.3-2.9
				c0-0.7-0.1-1.2-0.4-1.7c-0.3-0.5-0.6-0.9-1.1-1.3c-0.5-0.4-1.2-0.8-2-1.3c-0.9-0.5-1.8-0.9-3-1.4c-1.7-0.8-3.1-1.6-4.2-2.4
				c-1.1-0.8-1.9-1.6-2.5-2.4c-0.6-0.8-1-1.5-1.2-2.2c-0.2-0.7-0.3-1.4-0.3-2.1c0-1.3,0.3-2.5,1-3.7c0.7-1.2,1.7-2.2,3-3
				c1.3-0.8,2.8-1.2,4.5-1.2c1.3,0,2.6,0.3,3.7,0.9c1.2,0.6,2.2,1.4,3.1,2.4c0.2-0.6,0.5-1.4,0.7-2.5h1.9v7.8h-1.9
				c-1.4-4.3-3.8-6.4-7.2-6.4c-1.2,0-2.2,0.3-3,1c-0.8,0.6-1.1,1.5-1.1,2.5c0,0.8,0.2,1.5,0.7,2.1c0.5,0.6,1.1,1.1,1.8,1.5
				c0.8,0.4,2,1,3.7,1.8c2.1,1,3.7,1.8,4.9,2.5c1.2,0.7,2.1,1.6,3,2.7C684.9,215,685.3,216.4,685.3,217.9z"/>
		</g>
		<g>
			<path class="st0" d="M944.3,199.7c-1.3,0-2.2,0.2-2.8,0.5c-0.6,0.3-0.9,0.7-1,1.3c-0.1,0.6-0.2,1.4-0.2,2.5v10.6
				c0,2-0.1,3.4-0.2,4.4c-0.1,1-0.5,2-1.1,3c-1.1,1.9-2.6,3.3-4.5,4c-1.9,0.7-3.8,1.1-5.6,1.1c-1.3,0-2.7-0.2-4.1-0.5
				c-1.4-0.4-2.7-0.9-3.9-1.7c-1.2-0.8-2.1-1.8-2.7-3.1c-0.3-0.7-0.6-1.4-0.8-2.1c-0.2-0.7-0.3-1.4-0.3-2c0-0.6-0.1-1.4-0.1-2.5
				l0-11.9c0-1.2-0.2-2.1-0.7-2.6c-0.5-0.5-1.6-0.8-3.4-0.8v-1.9h14.5v1.9c-1.2,0-2.1,0.1-2.8,0.4c-0.6,0.2-1,0.6-1.2,1.1
				c-0.2,0.5-0.3,1.1-0.3,2v11.9c0,1.2,0.1,2.3,0.2,3.2c0.1,0.9,0.3,1.7,0.6,2.4c0.5,1.1,1.3,2.1,2.4,2.7c1.1,0.7,2.4,1,3.8,1
				c1.5,0,2.9-0.4,4.1-1.1c1.3-0.7,2.2-1.7,2.7-2.8c0.4-0.9,0.6-1.8,0.8-2.8c0.1-1,0.2-2.1,0.2-3.5V204c0-0.9,0-1.6-0.1-2.1
				c-0.1-0.4-0.2-0.9-0.5-1.2c-0.3-0.3-0.7-0.6-1.3-0.8c-0.6-0.2-1.4-0.2-2.4-0.2v-1.9h10.6L944.3,199.7L944.3,199.7z"/>
			<path class="st0" d="M997.3,199.7c-1.4,0-2.4,0.1-2.9,0.4c-0.6,0.3-1,0.7-1.1,1.2c-0.1,0.5-0.2,1.4-0.2,2.6v22.7h-1.9l-18.8-22.3
				v15.8c0,1.2,0.1,2.1,0.2,2.6c0.1,0.5,0.5,1,1.1,1.2c0.6,0.3,1.6,0.4,2.9,0.4v1.9h-10.7v-1.9c1.3,0,2.2-0.2,2.8-0.4
				c0.6-0.3,0.9-0.7,1.1-1.2c0.1-0.6,0.2-1.4,0.2-2.6v-14.6c0-1.2,0-2.1-0.1-2.7c-0.1-0.6-0.2-1.1-0.5-1.5c-0.2-0.4-0.6-0.8-1.2-1.1
				c-0.5-0.3-1.3-0.5-2.3-0.6v-1.9h8.4l16.4,19.3V204c0-1.1-0.1-1.9-0.2-2.5c-0.2-0.6-0.5-1-1.1-1.3c-0.6-0.3-1.5-0.5-2.8-0.5v-1.9
				h10.7L997.3,199.7L997.3,199.7z"/>
			<path class="st0" d="M1033.5,226.5h-14.6v-1.9c1.2,0,2.1-0.1,2.7-0.4c0.6-0.2,1-0.6,1.2-1c0.2-0.5,0.3-1.1,0.3-2v-18
				c0-1.2-0.2-2.1-0.8-2.6c-0.5-0.5-1.7-0.8-3.5-0.8v-1.9h14.6v1.9c-1.2,0-2.1,0.1-2.8,0.4c-0.6,0.2-1,0.6-1.2,1
				c-0.2,0.5-0.3,1.1-0.3,2v18c0,0.8,0.1,1.5,0.3,1.9c0.2,0.5,0.6,0.8,1.2,1.1c0.6,0.3,1.5,0.4,2.8,0.4V226.5z"/>
			<path class="st0" d="M1086.8,199.7c-0.7,0-1.3,0.1-1.8,0.3c-0.5,0.2-0.9,0.4-1.2,0.8c-0.3,0.4-0.6,0.8-1,1.5
				c-0.3,0.6-0.8,1.6-1.3,2.9l-9.3,21.8h-2l-9.8-22.9c-0.6-1.4-1.1-2.4-1.4-2.9c-0.3-0.5-0.8-0.9-1.4-1.1c-0.6-0.2-1.4-0.3-2.5-0.3
				v-1.9h14.6v1.9c-1.4,0.1-2.3,0.2-2.9,0.3c-0.5,0.2-0.8,0.6-0.8,1.3c0,0.6,0.2,1.3,0.5,2l6.6,15.3l6.1-14.3
				c0.5-1.2,0.8-2.1,0.8-2.6c0-0.9-0.3-1.5-0.9-1.7c-0.6-0.2-1.6-0.4-2.9-0.4v-1.9h10.6L1086.8,199.7L1086.8,199.7z"/>
			<path class="st0" d="M1134.3,217l-0.2,9.4h-25.6v-1.9c1.8,0,2.9-0.3,3.4-0.8c0.5-0.5,0.7-1.4,0.7-2.6v-18c0-0.8-0.1-1.5-0.2-1.9
				c-0.2-0.5-0.5-0.8-1.1-1.1c-0.6-0.3-1.5-0.4-2.8-0.4v-1.9h23.8l0.4,7.4h-1.9c-0.4-1.7-0.9-2.8-1.5-3.5c-0.6-0.7-1.2-1.1-1.9-1.3
				c-0.7-0.2-1.8-0.3-3.2-0.3h-5.4v10.1h2.9c1,0,1.8-0.1,2.2-0.3c0.5-0.2,0.8-0.5,1-1c0.2-0.5,0.3-1.3,0.4-2.3h2v9.5h-1.9
				c-0.1-1.1-0.2-1.8-0.4-2.4c-0.2-0.5-0.6-0.8-1.1-1c-0.5-0.2-1.2-0.3-2.2-0.3h-3v6.7c0,1.1,0,2,0.1,2.5c0.1,0.5,0.2,0.9,0.5,1.3
				c0.2,0.4,0.6,0.6,1.2,0.8c0.6,0.2,1.3,0.2,2.4,0.2h2.3c1,0,1.9-0.1,2.8-0.4c0.9-0.2,1.7-0.9,2.6-1.9c0.8-1,1.4-2.6,1.8-4.8
				L1134.3,217L1134.3,217z"/>
			<path class="st0" d="M1186.9,226.5h-7.7c-0.3-0.3-0.7-0.8-1.1-1.3c-0.4-0.6-0.9-1.3-1.4-2.1c-0.5-0.8-0.9-1.5-1.2-2l-1.9-3.2
				c-0.9-1.4-1.5-2.4-2-3c-0.4-0.5-0.9-0.9-1.5-1c-0.6-0.2-1.5-0.2-2.9-0.2h-1.1v7.5c0,0.8,0.1,1.4,0.3,1.9c0.2,0.5,0.6,0.8,1.2,1.1
				c0.6,0.3,1.5,0.4,2.7,0.4v1.9h-14.4v-1.9c1.7,0,2.9-0.3,3.4-0.8c0.5-0.5,0.7-1.4,0.7-2.6V203c0-1.2-0.2-2.1-0.7-2.6
				c-0.5-0.5-1.6-0.8-3.4-0.8v-2l6.6-0.2c0.5,0,1.1-0.1,1.7-0.1c0.7,0,1.3,0,1.8,0c0.4,0,1.2,0,2.2,0c1.4,0,2.8,0.1,4,0.3
				c1.2,0.1,2.2,0.3,2.9,0.5c1.1,0.3,2.1,0.7,3,1.3c0.9,0.6,1.7,1.4,2.3,2.5c0.6,1,0.9,2.2,0.9,3.5c0,0.9-0.2,1.9-0.6,2.8
				c-0.4,0.9-1.1,1.7-2,2.4c-0.9,0.7-2.1,1.3-3.6,1.7c1,0.6,1.9,1.4,2.6,2.3c0.7,0.9,1.8,2.5,3.4,4.9c0.9,1.4,1.6,2.4,2.2,3.1
				c0.6,0.7,1.1,1.2,1.6,1.4c0.5,0.2,1.1,0.4,1.9,0.5V226.5z M1175,205.4c0-2.3-0.7-3.8-2.1-4.5c-1.4-0.7-3.2-1.1-5.4-1.1
				c-0.3,0-0.6,0-0.7,0c-0.2,0-0.4,0-0.6,0v11.5h1.3c2.1,0,3.9-0.4,5.4-1C1174.3,209.6,1175,207.9,1175,205.4z"/>
			<path class="st0" d="M1229,218.2c0,0.9-0.2,1.8-0.6,2.8c-0.4,1-0.9,1.9-1.7,2.9c-0.8,0.9-1.7,1.6-2.9,2.2
				c-1.2,0.6-2.5,0.9-4.1,0.9c-1.5,0-3.1-0.3-4.5-1c-1.5-0.7-2.8-1.7-3.8-3c-0.4,1-0.7,2-0.9,2.9h-1.9v-9.8h1.9
				c0.4,1.4,0.8,2.7,1.5,4c0.6,1.2,1.5,2.3,2.6,3.2c1.1,0.9,2.5,1.3,4.2,1.3c1.4,0,2.6-0.4,3.4-1.2c0.9-0.8,1.3-1.8,1.3-3
				c0-0.7-0.1-1.3-0.4-1.8c-0.3-0.5-0.7-1-1.2-1.4c-0.5-0.4-1.2-0.8-2.1-1.3c-0.9-0.4-1.9-0.9-3-1.4c-1.7-0.8-3.2-1.6-4.3-2.5
				c-1.1-0.8-2-1.6-2.5-2.4c-0.6-0.8-0.9-1.5-1.2-2.2c-0.2-0.7-0.3-1.4-0.3-2.1c0-1.3,0.3-2.6,1-3.8c0.7-1.3,1.7-2.3,3-3.1
				c1.3-0.8,2.9-1.2,4.6-1.2c1.3,0,2.6,0.3,3.8,0.9c1.2,0.6,2.3,1.4,3.1,2.5c0.3-0.6,0.5-1.4,0.7-2.5h2v8h-2
				c-1.4-4.4-3.8-6.6-7.3-6.6c-1.3,0-2.3,0.3-3.1,1c-0.8,0.7-1.1,1.5-1.1,2.6c0,0.8,0.2,1.5,0.7,2.2c0.5,0.6,1.1,1.1,1.9,1.6
				c0.8,0.4,2.1,1.1,3.8,1.9c2.1,1,3.8,1.9,4.9,2.6c1.2,0.7,2.2,1.7,3,2.8C1228.5,215.3,1229,216.6,1229,218.2z"/>
			<path class="st0" d="M1265.2,226.5h-14.6v-1.9c1.2,0,2.1-0.1,2.8-0.4c0.6-0.2,1-0.6,1.2-1c0.2-0.5,0.3-1.1,0.3-2v-18
				c0-1.2-0.3-2.1-0.8-2.6c-0.5-0.5-1.7-0.8-3.5-0.8v-1.9h14.6v1.9c-1.2,0-2.1,0.1-2.7,0.4c-0.6,0.2-1,0.6-1.2,1
				c-0.2,0.5-0.3,1.1-0.3,2v18c0,0.8,0.1,1.5,0.3,1.9c0.2,0.5,0.6,0.8,1.2,1.1c0.6,0.3,1.5,0.4,2.8,0.4L1265.2,226.5L1265.2,226.5z"
				/>
			<path class="st0" d="M1315.2,205.9h-2c-0.2-1.8-0.6-3.1-1.2-3.9c-0.6-0.8-1.2-1.4-1.9-1.6c-0.7-0.2-1.5-0.3-2.4-0.3h-3.6v21
				c0,0.8,0.1,1.5,0.2,1.9s0.6,0.8,1.2,1.1c0.6,0.3,1.5,0.4,2.7,0.4v1.9h-14.4v-1.9c1.8,0,2.9-0.3,3.4-0.8c0.5-0.5,0.8-1.4,0.8-2.6
				v-21h-3c-1.2,0-2.2,0.1-3,0.3c-0.8,0.2-1.5,0.7-2.1,1.6s-0.9,2.2-1,3.9h-2v-8.1h28.3L1315.2,205.9L1315.2,205.9z"/>
			<path class="st0" d="M1366,199.7c-0.8,0.1-1.4,0.2-1.9,0.5c-0.5,0.3-1,0.8-1.5,1.5c-0.5,0.7-1.3,1.8-2.3,3.3l-6,9.3v6.8
				c0,0.8,0.1,1.4,0.3,1.9c0.1,0.5,0.5,0.8,1.1,1.1c0.6,0.3,1.5,0.4,2.8,0.4v1.9h-14.4v-1.9c1.2,0,2.1-0.1,2.7-0.4
				c0.6-0.2,1-0.6,1.2-1c0.2-0.5,0.3-1.1,0.3-2v-6.4l-7.2-12c-0.1-0.1-0.1-0.2-0.2-0.3c0-0.1-0.1-0.2-0.1-0.2c-0.6-1-1.2-1.7-1.7-2
				c-0.5-0.3-1.2-0.5-2.1-0.5v-1.9h13.5v1.9c-0.7,0-1.2,0-1.6,0.1c-0.4,0-0.7,0.2-1,0.3c-0.3,0.2-0.4,0.5-0.4,0.9
				c0,0.3,0.1,0.6,0.2,1c0.2,0.4,0.6,1.1,1.2,2.1l4.5,7.6l4.3-6.7c0.9-1.5,1.4-2.5,1.4-3.2c0-0.9-0.3-1.4-0.9-1.7
				c-0.6-0.2-1.4-0.3-2.4-0.3v-1.9h10.4L1366,199.7L1366,199.7z"/>
		</g>
		<g>
			<path class="st0" d="M757.6,226.4h-13.5v-1.9c1.1,0,2-0.1,2.5-0.2c0.5-0.2,0.8-0.5,0.8-1.2c0-0.4-0.1-0.9-0.3-1.3l-1.4-3.4h-9.3
				l-0.7,1.9c-0.4,1-0.6,1.8-0.6,2.3c0,0.8,0.3,1.4,1,1.6c0.6,0.2,1.4,0.3,2.3,0.3v1.9h-9.9v-1.9c0.8,0,1.5-0.1,2-0.4
				c0.5-0.3,1.1-0.9,1.6-1.7c0.5-0.8,1-2,1.6-3.5l8.3-21.6h2l8.7,22.3c0.6,1.6,1.1,2.6,1.4,3.2c0.3,0.6,0.7,1,1.2,1.3
				c0.5,0.3,1.3,0.5,2.2,0.5L757.6,226.4L757.6,226.4z M745,216.4l-4-10l-3.8,10H745z"/>
			<path class="st0" d="M869.7,226.4h-14.4v-1.9c1.2,0,2.1-0.1,2.7-0.4c0.6-0.2,1-0.6,1.1-1.1c0.2-0.5,0.3-1.1,0.3-1.9v-18
				l-10.8,23.3h-1.3l-11-23.3v17.1c0,0.9,0,1.6,0.1,2.1c0.1,0.5,0.2,0.9,0.5,1.2c0.3,0.3,0.7,0.6,1.2,0.8c0.6,0.2,1.4,0.2,2.3,0.2
				v1.9h-10.6v-1.9c1,0,1.8-0.1,2.4-0.3c0.6-0.2,1-0.4,1.2-0.8c0.3-0.3,0.4-0.7,0.5-1.2c0.1-0.5,0.1-1.2,0.1-2.1V204
				c0-1.2-0.1-2.1-0.2-2.6c-0.1-0.5-0.5-0.9-1-1.2c-0.6-0.3-1.5-0.4-2.9-0.4v-1.9h10.5l9.5,20.2l9.5-20.2h10.2v1.9
				c-1.8,0-2.9,0.3-3.4,0.8c-0.5,0.5-0.8,1.4-0.8,2.6v18c0,0.8,0.1,1.4,0.3,1.9c0.2,0.5,0.6,0.8,1.2,1.1c0.6,0.3,1.5,0.4,2.7,0.4
				L869.7,226.4L869.7,226.4z"/>
			<path class="st0" d="M807,222L807,222c-0.9,1.3-1.8,1.9-3.1,1.9c-0.9,0-1.8-0.3-2.6-0.8c-0.8-0.6-2-1.9-3.4-3.9
				c0.6-0.9,1.3-2.1,2-3.9c0.9-2.1,1.7-3.6,2.6-4.4c0.8-0.8,1.8-1.3,2.9-1.6l0.2,0v-1.4H796v1.4l0.2,0c2.1,0.2,3.1,1.1,3.1,2.6
				c0,0.6-0.2,1.6-0.7,2.7c-0.4,1.1-1,2.1-1.7,3.1c-0.4-0.6-6.5-9-6.8-9.4c4-2,6-4.2,6-6.4c0-1.5-0.6-2.7-1.9-3.6
				c-1.3-0.9-2.7-1.3-4.3-1.3c-1.8,0-3.3,0.6-4.4,1.8c-1.2,1.2-1.8,2.6-1.8,4.1c0,1.9,0.8,3.9,2.4,6.2c-2.6,1.8-4.5,3.3-5.4,4.5
				c-1,1.2-1.5,2.8-1.5,4.6c0,1.6,0.4,3,1.2,4.2c0.8,1.2,1.8,2.2,3.1,2.8c1.3,0.7,2.6,1,4,1c2.8,0,5.4-1.4,7.9-4.1
				c2.1,2.7,4.5,4.1,7.3,4.1c1.3,0,2.5-0.4,3.5-1.1c1-0.7,1.7-1.7,2-2.9l0.1-0.3H807z M787.8,199.5c0.6-0.6,1.3-0.9,2.3-0.9
				c1,0,1.7,0.3,2.3,1c0.6,0.7,0.9,1.5,0.9,2.6c0,1.8-1.4,3.4-4,5c-1.6-2.2-2.4-4-2.4-5.3C786.9,200.9,787.2,200.2,787.8,199.5z
				 M789.4,223.8c-1.7,0-3.2-0.8-4.6-2.2c-1.4-1.5-2-3.1-2-4.8c0-1.1,0.4-2.2,1.2-3.4c0.7-1.1,1.8-2.1,3.2-2.9
				c2.1,2.7,4.6,6.3,7.4,10.6C792.9,222.8,791.2,223.8,789.4,223.8z"/>
		</g>
		<g>
			<path class="st0" d="M512.2,94.8c-3.9,1.2-9.8,2.5-15.2,2.5c-18.3,0-33-10.8-33-32.9c0-20.8,15.3-31.2,33-31.2
				c5.8,0,9.3,0.8,15,2v16.3c-3.5-1.2-7-2.3-10.6-2.3c-9,0-15.8,5.4-15.8,15.5c0,10.7,6.3,16.1,15.1,16.1c3.9,0,7.6-0.9,11.4-2.4
				V94.8z"/>
			<path class="st0" d="M520.9,34.3h47.8v14.9h-27.1V58h25.9v14.9h-25.9v8.4h27.6v14.9h-48.3V34.3z"/>
			<path class="st0" d="M579.2,34.3h31.7l10.2,43.7h0.2V34.3h18.2v62h-31.1l-10.7-44.9h-0.2v44.9h-18.2V34.3z"/>
			<path class="st0" d="M695.5,51.2c-4.7-1.9-10.3-3.1-16.3-3.1c-3.3,0-9.1,0.1-9.1,4.1c0,8.1,29,0.4,29,24.3
				c0,16.6-14.6,20.8-26.8,20.8c-8.1,0-14.8-0.9-22.7-2.9V78.3c5.7,2.7,12.6,4.1,19,4.1c5,0,9.5-1.2,9.5-4.3c0-8.3-29-0.8-29-24.9
				c0-17,15.8-20.1,28.3-20.1c5.9,0,12.5,0.8,18.2,2.1V51.2z"/>
			<path class="st0" d="M730,71c0,5.9,1.5,10.3,6.6,10.3c5.5,0,6.7-4.2,6.7-10.2V34.3h20.7v36.4c0,20.1-11,26.6-27.6,26.6
				c-15.4,0-27.5-7.1-27.5-25.4V34.3H730V71z"/>
			<path class="st0" d="M820.3,51.2c-4.7-1.9-10.3-3.1-16.3-3.1c-3.3,0-9.1,0.1-9.1,4.1c0,8.1,29,0.4,29,24.3
				c0,16.6-14.6,20.8-26.8,20.8c-8.1,0-14.8-0.9-22.7-2.9V78.3c5.7,2.7,12.6,4.1,19,4.1c5,0,9.5-1.2,9.5-4.3c0-8.3-29-0.8-29-24.9
				c0-17,15.8-20.1,28.3-20.1c5.9,0,12.5,0.8,18.2,2.1V51.2z"/>
			<path class="st0" d="M866.9,34.3h31c15.8,0,26.9,6,26.9,31.2c0,23.4-12,30.8-27.8,30.8h-30.2V34.3z M888,80.8h5.3
				c7.7,0,9.4-5.7,9.4-16c0-10.7-1.9-16.2-9.5-16.2H888V80.8z"/>
			<path class="st0" d="M949.4,34.3h29.1l19.7,62H976l-3.6-13.4h-17.8l-3.4,13.4H930L949.4,34.3z M957.4,67.9h12.2l-6-20.3h-0.2
				L957.4,67.9z"/>
			<path class="st0" d="M1054.8,52.6h-18.6v43.7H1015V52.6h-18.6V34.3h58.4V52.6z"/>
			<path class="st0" d="M1071.9,34.3h29.1l19.7,62h-22.2l-3.6-13.4H1077l-3.4,13.4h-21.1L1071.9,34.3z M1079.9,67.9h12.2l-6-20.3
				h-0.2L1079.9,67.9z"/>
		</g>
		<g>
			<path class="st0" d="M465.8,116H500c13.2,0,21.3,4.6,21.3,16.5c0,9.5-5.3,14.3-13.2,16.4v0.2c4.6,0.9,7.3,3.4,9.3,6.7
				c3.2,6.6,3,16.2,5.2,22.2h-22c-0.9-4.4-1.2-14.1-2.9-17.8c-1.3-2.8-3.4-3.2-6-3.2h-4.7v21h-21.2V116z M486,143.1h5.5
				c4.3,0,8.6-0.5,8.6-6.8c0-5.6-4-6.4-8.3-6.4H486V143.1z"/>
			<path class="st0" d="M531.2,116h47.8V131h-27.1v8.8h25.9v14.9h-25.9v8.4h27.6V178h-48.3V116z"/>
			<path class="st0" d="M634.5,133c-4.7-1.9-10.3-3.1-16.3-3.1c-3.3,0-9.1,0.1-9.1,4.1c0,8.1,29,0.4,29,24.3
				c0,16.6-14.6,20.8-26.8,20.8c-8.1,0-14.8-0.9-22.7-2.9v-16.1c5.7,2.7,12.6,4.1,19,4.1c5,0,9.5-1.2,9.5-4.3c0-8.3-29-0.8-29-24.9
				c0-17,15.8-20.1,28.3-20.1c5.9,0,12.5,0.8,18.2,2.1V133z"/>
			<path class="st0" d="M647.2,116H695V131h-27.1v8.8h25.9v14.9h-25.9v8.4h27.6V178h-48.3V116z"/>
			<path class="st0" d="M720.2,116h29.1l19.7,62h-22.2l-3.6-13.4h-17.8l-3.4,13.4h-21.1L720.2,116z M728.2,149.7h12.2l-6-20.3h-0.2
				L728.2,149.7z"/>
			<path class="st0" d="M775,116h34.2c13.2,0,21.3,4.6,21.3,16.5c0,9.5-5.3,14.3-13.2,16.4v0.2c4.6,0.9,7.3,3.4,9.3,6.7
				c3.2,6.6,3,16.2,5.2,22.2h-22c-0.9-4.4-1.2-14.1-2.9-17.8c-1.3-2.8-3.4-3.2-6-3.2h-4.7v21H775V116z M795.2,143.1h5.5
				c4.3,0,8.6-0.5,8.6-6.8c0-5.6-4-6.4-8.3-6.4h-5.8V143.1z"/>
			<path class="st0" d="M886.8,176.6c-3.9,1.2-9.8,2.5-15.2,2.5c-18.3,0-33-10.8-33-32.9c0-20.8,15.3-31.2,33-31.2
				c5.8,0,9.3,0.8,15,2v16.3c-3.5-1.2-7-2.3-10.6-2.3c-9,0-15.8,5.4-15.8,15.5c0,10.7,6.3,16.1,15.1,16.1c3.9,0,7.6-0.9,11.5-2.4
				V176.6z"/>
			<path class="st0" d="M931.5,116h21.2v62h-21.2v-22.3h-14.1V178h-21.2v-62h21.2v21.4h14.1V116z"/>
			<path class="st0" d="M1043.4,176.6c-3.9,1.2-9.8,2.5-15.2,2.5c-18.3,0-33-10.8-33-32.9c0-20.8,15.3-31.2,33-31.2
				c5.8,0,9.3,0.8,15,2v16.3c-3.5-1.2-7-2.3-10.6-2.3c-9,0-15.8,5.4-15.8,15.5c0,10.7,6.3,16.1,15.1,16.1c3.9,0,7.6-0.9,11.5-2.4
				V176.6z"/>
			<path class="st0" d="M1052,116h47.8V131h-27.1v8.8h25.9v14.9h-25.9v8.4h27.6V178H1052V116z"/>
			<path class="st0" d="M1110.4,116h31.7l10.2,43.7h0.2V116h18.2v62h-31.1l-10.7-44.9h-0.2V178h-18.2V116z"/>
			<path class="st0" d="M1237.3,134.3h-18.6V178h-21.2v-43.7h-18.6V116h58.4V134.3z"/>
			<path class="st0" d="M1245.3,116h47.8V131h-27.1v8.8h25.9v14.9h-25.9v8.4h27.6V178h-48.3V116z"/>
			<path class="st0" d="M1303.3,116h34.2c13.2,0,21.3,4.6,21.3,16.5c0,9.5-5.3,14.3-13.2,16.4v0.2c4.6,0.9,7.3,3.4,9.3,6.7
				c3.2,6.6,3,16.2,5.2,22.2h-22c-0.9-4.4-1.2-14.1-2.9-17.8c-1.3-2.8-3.4-3.2-6-3.2h-4.7v21h-21.2V116z M1323.5,143.1h5.5
				c4.3,0,8.6-0.5,8.6-6.8c0-5.6-4-6.4-8.3-6.4h-5.8V143.1z"/>
		</g>
	</g>
</g>
</svg>
