<?xml version="1.0" encoding="utf-8"?>
<!-- Generator: Adobe Illustrator 23.1.0, SVG Export Plug-In . SVG Version: 6.00 Build 0)  -->
<svg version="1.1" id="Layer_1" xmlns="http://www.w3.org/2000/svg" xmlns:xlink="http://www.w3.org/1999/xlink" x="0px" y="0px"
	 viewBox="0 0 333.37 87.33" style="enable-background:new 0 0 333.37 87.33;" xml:space="preserve">
<style type="text/css">
	.st0{fill:#500000;}
	.st1{fill:#FFFFFF;}
	.st2{fill:#B1B3B6;}
	.st3{fill:#231F20;}
</style>
<g>
	<g>
		<rect x="12.59" y="12.79" class="st0" width="61.26" height="61.75"/>
		<polygon class="st1" points="65.71,37.37 61.16,37.37 60.9,37.37 60.78,37.6 57.48,44.47 54.17,37.6 54.06,37.37 53.79,37.37 
			49.4,37.37 48.98,37.37 48.98,37.78 48.98,40.13 48.98,40.54 49.4,40.54 50.15,40.54 50.15,50.38 49.34,50.38 48.92,50.38 
			48.92,50.8 48.92,53.14 48.92,53.56 49.34,53.56 54.27,53.56 54.69,53.56 54.69,53.14 54.69,50.8 54.69,50.38 54.27,50.38 
			53.42,50.38 53.42,43.4 57.11,51.01 57.48,51.78 57.86,51.01 61.59,43.38 61.59,50.38 60.78,50.38 60.36,50.38 60.36,50.8 
			60.36,53.14 60.36,53.56 60.78,53.56 65.71,53.56 66.13,53.56 66.13,53.14 66.13,50.8 66.13,50.38 65.71,50.38 64.86,50.38 
			64.86,40.54 65.71,40.54 66.13,40.54 66.13,40.13 66.13,37.78 66.13,37.37 		"/>
		<path class="st1" d="M37.03,50.37h-1.31l-4.27-9.87h0.82v-3.19h-6.86v3.18h0.95l-4.27,9.87H20.3v3.18h6.23v-3.18h-0.91l0.71-1.64
			h5.14l0.71,1.64h-0.96v3.18h6.23v-3.18L37.03,50.37z M30.1,45.55h-2.38l1.19-2.76L30.1,45.55z"/>
		<polygon class="st1" points="60.49,25.02 25.84,25.02 25.36,25.02 25.36,25.5 25.36,34.75 25.36,35.23 25.84,35.23 31.82,35.23 
			32.3,35.23 32.3,34.75 32.3,31.31 39.69,31.31 39.69,55.71 36.25,55.71 35.77,55.71 35.77,56.19 35.77,62.17 35.77,62.65 
			36.25,62.65 50.07,62.65 50.55,62.65 50.55,62.17 50.55,56.19 50.55,55.71 50.07,55.71 46.63,55.71 46.63,31.31 53.98,31.31 
			53.98,34.71 53.98,35.19 54.46,35.19 60.49,35.19 60.96,35.19 60.96,34.71 60.96,25.5 60.96,25.02 		"/>
		<polygon class="st2" points="47.66,58.55 49.12,57.05 49.12,61.18 47.66,59.78 		"/>
		<polygon class="st2" points="45.22,57.16 43.75,58.6 43.75,28.44 45.22,29.9 		"/>
		<polygon class="st2" points="28.29,27.91 26.79,26.44 58.81,26.44 56.92,27.91 		"/>
		<polygon class="st2" points="59.58,33.85 58.12,32.45 58.12,28.72 59.58,27.22 		"/>
		<path class="st0" d="M76.02,73.31c0-0.68,0.55-1.23,1.23-1.23c0.68,0,1.23,0.55,1.23,1.23s-0.55,1.23-1.23,1.23
			C76.57,74.54,76.02,73.99,76.02,73.31L76.02,73.31z M78.18,73.31c-0.03-0.51-0.48-0.9-0.99-0.87c-0.51,0.03-0.9,0.48-0.87,0.99
			c0.03,0.49,0.44,0.87,0.93,0.87c0.52-0.01,0.94-0.43,0.93-0.96C78.18,73.34,78.18,73.33,78.18,73.31z M76.78,72.61h0.52
			c0.34,0,0.51,0.12,0.51,0.41c0.02,0.19-0.12,0.35-0.3,0.37c-0.02,0-0.04,0-0.06,0L77.82,74h-0.27l-0.36-0.61h-0.16v0.6h-0.26
			L76.78,72.61z M77.04,73.21h0.23c0.15,0,0.29-0.02,0.29-0.21s-0.15-0.19-0.28-0.19h-0.23V73.21z"/>
	</g>
	<g>
		<g>
			<path class="st3" d="M94.39,23.52H93.1v-6.75h-2.31v-1.1h5.9v1.1h-2.31V23.52z"/>
			<path class="st3" d="M102.89,23.52h-4.44v-7.85h4.44v1.08h-3.16v2.14h2.96v1.07h-2.96v2.47h3.16V23.52z"/>
			<path class="st3" d="M110.92,23.52h-1.48l-1.97-3.21l-1.98,3.21h-1.38l2.6-4.07l-2.44-3.78h1.43l1.82,2.97l1.82-2.97h1.39
				l-2.45,3.8L110.92,23.52z"/>
			<path class="st3" d="M117.4,23.52l-0.78-2.18h-3l-0.77,2.18h-1.35l2.94-7.88h1.4l2.94,7.88H117.4z M116.28,20.24l-0.74-2.14
				c-0.05-0.14-0.13-0.37-0.22-0.68c-0.1-0.31-0.16-0.53-0.2-0.68c-0.1,0.44-0.24,0.92-0.42,1.45l-0.71,2.05H116.28z"/>
			<path class="st3" d="M124.88,21.39c0,0.7-0.25,1.25-0.76,1.64s-1.2,0.6-2.09,0.6s-1.61-0.14-2.18-0.41V22
				c0.36,0.17,0.74,0.3,1.14,0.4c0.4,0.1,0.78,0.14,1.13,0.14c0.51,0,0.88-0.1,1.13-0.29c0.24-0.19,0.36-0.45,0.36-0.78
				c0-0.29-0.11-0.54-0.33-0.75s-0.68-0.45-1.38-0.72c-0.72-0.29-1.22-0.62-1.51-0.99c-0.29-0.37-0.44-0.82-0.44-1.34
				c0-0.66,0.23-1.17,0.7-1.55s1.09-0.56,1.87-0.56c0.75,0,1.5,0.16,2.25,0.49l-0.41,1.05c-0.7-0.29-1.32-0.44-1.87-0.44
				c-0.42,0-0.73,0.09-0.95,0.27s-0.32,0.42-0.32,0.72c0,0.2,0.04,0.38,0.13,0.52c0.09,0.15,0.23,0.28,0.42,0.41s0.55,0.3,1.06,0.51
				c0.58,0.24,1,0.46,1.27,0.67c0.27,0.21,0.47,0.44,0.59,0.7C124.82,20.73,124.88,21.04,124.88,21.39z"/>
			<path class="st3" d="M135.23,23.52l-0.78-2.18h-3l-0.77,2.18h-1.35l2.94-7.88h1.4l2.94,7.88H135.23z M134.11,20.24l-0.74-2.14
				c-0.05-0.14-0.13-0.37-0.22-0.68c-0.09-0.31-0.16-0.53-0.2-0.68c-0.1,0.44-0.24,0.92-0.42,1.45l-0.71,2.05H134.11z"/>
			<path class="st3" d="M137.66,21.44c0-0.47,0.11-0.88,0.34-1.23c0.23-0.35,0.64-0.7,1.24-1.04c-0.34-0.4-0.57-0.73-0.7-1.01
				c-0.12-0.27-0.19-0.56-0.19-0.85c0-0.54,0.19-0.97,0.58-1.29c0.39-0.32,0.91-0.47,1.57-0.47c0.63,0,1.13,0.15,1.49,0.46
				c0.36,0.31,0.54,0.72,0.54,1.24c0,0.41-0.12,0.78-0.36,1.11c-0.24,0.33-0.65,0.67-1.21,1l1.86,1.79
				c0.29-0.38,0.53-0.95,0.73-1.69h1.3c-0.25,1.02-0.65,1.85-1.2,2.49l1.62,1.56h-1.63l-0.8-0.78c-0.37,0.29-0.75,0.51-1.17,0.66
				c-0.41,0.15-0.87,0.22-1.37,0.22c-0.82,0-1.47-0.2-1.94-0.58C137.9,22.65,137.66,22.12,137.66,21.44z M140.37,22.54
				c0.66,0,1.22-0.19,1.68-0.57l-2.06-2.03c-0.38,0.24-0.64,0.47-0.78,0.68c-0.14,0.21-0.21,0.46-0.21,0.73
				c0,0.35,0.12,0.64,0.37,0.86C139.61,22.43,139.95,22.54,140.37,22.54z M139.57,17.36c0,0.23,0.06,0.44,0.18,0.64
				c0.12,0.2,0.29,0.41,0.5,0.64c0.4-0.23,0.69-0.44,0.85-0.64c0.16-0.2,0.24-0.42,0.24-0.67c0-0.23-0.08-0.42-0.23-0.56
				c-0.16-0.14-0.36-0.21-0.62-0.21c-0.28,0-0.51,0.07-0.67,0.22C139.65,16.92,139.57,17.12,139.57,17.36z"/>
			<path class="st3" d="M150.27,23.52l-2.28-6.56h-0.04c0.06,0.97,0.09,1.89,0.09,2.74v3.82h-1.17v-7.85h1.81l2.18,6.25h0.03
				l2.25-6.25h1.82v7.85h-1.24v-3.88c0-0.39,0.01-0.9,0.03-1.53c0.02-0.63,0.04-1.01,0.05-1.14h-0.04l-2.36,6.55H150.27z"/>
			<path class="st3" d="M167.14,15.67v5.08c0,0.58-0.12,1.09-0.37,1.52c-0.25,0.44-0.61,0.77-1.08,1s-1.03,0.35-1.69,0.35
				c-0.97,0-1.73-0.26-2.27-0.77c-0.54-0.52-0.81-1.22-0.81-2.13v-5.06h1.29v4.97c0,0.65,0.15,1.13,0.45,1.43
				c0.3,0.31,0.76,0.46,1.39,0.46c1.21,0,1.82-0.64,1.82-1.91v-4.96H167.14z"/>
			<path class="st3" d="M176.24,23.52h-1.57l-3.86-6.26h-0.04l0.03,0.35c0.05,0.67,0.08,1.28,0.08,1.83v4.08h-1.17v-7.85h1.56
				l3.85,6.23h0.03c-0.01-0.08-0.02-0.38-0.04-0.9c-0.02-0.52-0.03-0.92-0.03-1.21v-4.11h1.18V23.52z"/>
			<path class="st3" d="M178.86,23.52v-7.85h1.28v7.85H178.86z"/>
			<path class="st3" d="M187.24,15.67h1.33l-2.75,7.85h-1.35l-2.74-7.85h1.32l1.64,4.88c0.09,0.23,0.18,0.53,0.27,0.9
				s0.16,0.64,0.19,0.82c0.05-0.27,0.12-0.59,0.21-0.95c0.1-0.36,0.17-0.62,0.24-0.79L187.24,15.67z"/>
			<path class="st3" d="M194.6,23.52h-4.44v-7.85h4.44v1.08h-3.16v2.14h2.96v1.07h-2.96v2.47h3.16V23.52z"/>
			<path class="st3" d="M198.14,20.39v3.14h-1.28v-7.85h2.22c1.01,0,1.76,0.19,2.25,0.57c0.49,0.38,0.73,0.95,0.73,1.72
				c0,0.98-0.51,1.67-1.53,2.09l2.22,3.47h-1.46l-1.88-3.14H198.14z M198.14,19.32h0.89c0.6,0,1.03-0.11,1.3-0.33
				c0.27-0.22,0.4-0.55,0.4-0.99c0-0.44-0.14-0.76-0.43-0.96s-0.73-0.29-1.31-0.29h-0.85V19.32z"/>
			<path class="st3" d="M208.96,21.39c0,0.7-0.25,1.25-0.76,1.64c-0.5,0.4-1.2,0.6-2.09,0.6s-1.62-0.14-2.18-0.41V22
				c0.36,0.17,0.74,0.3,1.14,0.4c0.4,0.1,0.78,0.14,1.13,0.14c0.51,0,0.88-0.1,1.13-0.29c0.24-0.19,0.36-0.45,0.36-0.78
				c0-0.29-0.11-0.54-0.33-0.75c-0.22-0.2-0.68-0.45-1.38-0.72c-0.72-0.29-1.22-0.62-1.52-0.99c-0.29-0.37-0.44-0.82-0.44-1.34
				c0-0.66,0.23-1.17,0.7-1.55c0.47-0.38,1.09-0.56,1.88-0.56c0.75,0,1.5,0.16,2.25,0.49l-0.41,1.05c-0.7-0.29-1.32-0.44-1.87-0.44
				c-0.42,0-0.73,0.09-0.95,0.27s-0.32,0.42-0.32,0.72c0,0.2,0.04,0.38,0.13,0.52c0.09,0.15,0.23,0.28,0.42,0.41
				c0.2,0.13,0.55,0.3,1.06,0.51c0.58,0.24,1,0.46,1.27,0.67c0.27,0.21,0.47,0.44,0.59,0.7C208.9,20.73,208.96,21.04,208.96,21.39z"
				/>
			<path class="st3" d="M211.03,23.52v-7.85h1.28v7.85H211.03z"/>
			<path class="st3" d="M217.65,23.52h-1.28v-6.75h-2.31v-1.1h5.9v1.1h-2.31V23.52z"/>
			<path class="st3" d="M223.93,19.25l1.86-3.58h1.4l-2.62,4.81v3.04h-1.29v-3l-2.61-4.85h1.4L223.93,19.25z"/>
			<path class="st3" d="M235.39,19.26h2.89v3.94c-0.47,0.15-0.93,0.26-1.36,0.33c-0.43,0.06-0.91,0.1-1.41,0.1
				c-1.19,0-2.11-0.35-2.75-1.06c-0.64-0.7-0.97-1.7-0.97-2.98c0-1.26,0.36-2.25,1.09-2.97c0.73-0.71,1.73-1.07,3-1.07
				c0.82,0,1.6,0.16,2.33,0.47l-0.45,1.07c-0.64-0.29-1.28-0.44-1.91-0.44c-0.84,0-1.5,0.26-1.99,0.79
				c-0.49,0.53-0.73,1.25-0.73,2.16c0,0.96,0.22,1.69,0.66,2.19c0.44,0.5,1.07,0.75,1.89,0.75c0.42,0,0.86-0.05,1.33-0.16v-2.03
				h-1.63V19.26z"/>
			<path class="st3" d="M245.59,23.52l-0.78-2.18h-3l-0.77,2.18h-1.35l2.94-7.88h1.4l2.94,7.88H245.59z M244.46,20.24l-0.74-2.14
				c-0.05-0.14-0.13-0.37-0.22-0.68c-0.09-0.31-0.16-0.53-0.2-0.68c-0.1,0.44-0.24,0.92-0.42,1.45l-0.71,2.05H244.46z"/>
			<path class="st3" d="M248.54,23.52v-7.85h1.28v6.75h3.32v1.1H248.54z"/>
			<path class="st3" d="M259.52,15.67h1.33l-2.75,7.85h-1.35l-2.74-7.85h1.32l1.64,4.88c0.09,0.23,0.18,0.53,0.27,0.9
				s0.16,0.64,0.19,0.82c0.05-0.27,0.12-0.59,0.21-0.95c0.1-0.36,0.17-0.62,0.24-0.79L259.52,15.67z"/>
			<path class="st3" d="M266.89,23.52h-4.44v-7.85h4.44v1.08h-3.16v2.14h2.96v1.07h-2.96v2.47h3.16V23.52z"/>
			<path class="st3" d="M273.66,21.39c0,0.7-0.25,1.25-0.76,1.64c-0.5,0.4-1.2,0.6-2.09,0.6s-1.62-0.14-2.18-0.41V22
				c0.36,0.17,0.74,0.3,1.14,0.4c0.4,0.1,0.78,0.14,1.13,0.14c0.51,0,0.88-0.1,1.13-0.29c0.24-0.19,0.36-0.45,0.36-0.78
				c0-0.29-0.11-0.54-0.33-0.75c-0.22-0.2-0.68-0.45-1.38-0.72c-0.72-0.29-1.22-0.62-1.52-0.99c-0.29-0.37-0.44-0.82-0.44-1.34
				c0-0.66,0.23-1.17,0.7-1.55c0.47-0.38,1.09-0.56,1.88-0.56c0.75,0,1.5,0.16,2.25,0.49l-0.41,1.05c-0.7-0.29-1.32-0.44-1.87-0.44
				c-0.42,0-0.73,0.09-0.95,0.27S270,17.35,270,17.65c0,0.2,0.04,0.38,0.13,0.52c0.09,0.15,0.23,0.28,0.42,0.41
				c0.2,0.13,0.55,0.3,1.06,0.51c0.58,0.24,1,0.46,1.27,0.67c0.27,0.21,0.47,0.44,0.59,0.7C273.6,20.73,273.66,21.04,273.66,21.39z"
				/>
			<path class="st3" d="M278.44,23.52h-1.28v-6.75h-2.31v-1.1h5.9v1.1h-2.31V23.52z"/>
			<path class="st3" d="M289.48,19.59c0,1.28-0.32,2.27-0.96,2.98c-0.64,0.71-1.54,1.06-2.72,1.06c-1.18,0-2.09-0.35-2.73-1.06
				c-0.64-0.7-0.95-1.7-0.95-3c0-1.3,0.32-2.29,0.96-2.99c0.64-0.7,1.55-1.04,2.74-1.04c1.17,0,2.07,0.35,2.71,1.06
				C289.16,17.31,289.48,18.3,289.48,19.59z M283.48,19.59c0,0.97,0.2,1.7,0.59,2.2c0.39,0.5,0.97,0.75,1.73,0.75
				c0.76,0,1.34-0.25,1.73-0.74s0.58-1.23,0.58-2.21c0-0.96-0.19-1.69-0.58-2.19c-0.38-0.5-0.96-0.75-1.72-0.75
				c-0.77,0-1.35,0.25-1.74,0.75C283.68,17.89,283.48,18.62,283.48,19.59z"/>
			<path class="st3" d="M298.26,23.52h-1.57l-3.86-6.26h-0.04l0.03,0.35c0.05,0.67,0.08,1.28,0.08,1.83v4.08h-1.17v-7.85h1.56
				l3.85,6.23h0.03c-0.01-0.08-0.02-0.38-0.04-0.9c-0.02-0.52-0.03-0.92-0.03-1.21v-4.11h1.18V23.52z"/>
		</g>
		<g>
			<path class="st3" d="M99.33,33.23c-1.65,0-2.95,0.55-3.9,1.65c-0.95,1.1-1.43,2.6-1.43,4.51c0,1.96,0.46,3.48,1.38,4.55
				c0.92,1.07,2.23,1.6,3.93,1.6c1.05,0,2.24-0.19,3.58-0.56v1.53c-1.04,0.39-2.32,0.58-3.85,0.58c-2.21,0-3.91-0.67-5.11-2.01
				c-1.2-1.34-1.8-3.24-1.8-5.71c0-1.54,0.29-2.9,0.87-4.06c0.58-1.16,1.41-2.06,2.5-2.69c1.09-0.63,2.37-0.94,3.85-0.94
				c1.57,0,2.95,0.29,4.12,0.86l-0.74,1.5C101.6,33.5,100.46,33.23,99.33,33.23z"/>
			<path class="st3" d="M110.33,47.09c-1.66,0-2.97-0.51-3.93-1.52c-0.96-1.01-1.44-2.42-1.44-4.21c0-1.81,0.45-3.25,1.34-4.32
				c0.89-1.07,2.09-1.6,3.59-1.6c1.41,0,2.52,0.46,3.34,1.39c0.82,0.93,1.23,2.15,1.23,3.67v1.08h-7.74c0.03,1.32,0.37,2.32,1,3
				s1.52,1.03,2.67,1.03c1.21,0,2.41-0.25,3.59-0.76v1.52c-0.6,0.26-1.17,0.45-1.71,0.56C111.74,47.03,111.09,47.09,110.33,47.09z
				 M109.87,36.86c-0.9,0-1.62,0.29-2.16,0.88c-0.54,0.59-0.85,1.4-0.95,2.44h5.88c0-1.07-0.24-1.89-0.72-2.47
				C111.44,37.15,110.76,36.86,109.87,36.86z"/>
			<path class="st3" d="M124.74,46.88v-7.27c0-0.92-0.21-1.6-0.63-2.05s-1.07-0.68-1.96-0.68c-1.18,0-2.04,0.32-2.58,0.95
				s-0.82,1.68-0.82,3.15v5.9h-1.7V35.64h1.38l0.28,1.54h0.08c0.35-0.55,0.84-0.98,1.47-1.29c0.63-0.3,1.33-0.46,2.1-0.46
				c1.35,0,2.37,0.33,3.06,0.98c0.68,0.65,1.03,1.7,1.03,3.13v7.33H124.74z"/>
			<path class="st3" d="M133.25,45.68c0.3,0,0.59-0.02,0.87-0.07c0.28-0.04,0.5-0.09,0.67-0.14v1.3c-0.19,0.09-0.46,0.16-0.82,0.22
				c-0.36,0.06-0.68,0.09-0.97,0.09c-2.17,0-3.26-1.15-3.26-3.44v-6.69h-1.61v-0.82l1.61-0.71l0.72-2.4h0.98v2.6h3.26v1.32h-3.26
				v6.61c0,0.68,0.16,1.2,0.48,1.56C132.25,45.5,132.69,45.68,133.25,45.68z"/>
			<path class="st3" d="M141.47,47.09c-1.66,0-2.97-0.51-3.93-1.52c-0.96-1.01-1.44-2.42-1.44-4.21c0-1.81,0.45-3.25,1.34-4.32
				c0.89-1.07,2.09-1.6,3.59-1.6c1.41,0,2.52,0.46,3.34,1.39c0.82,0.93,1.23,2.15,1.23,3.67v1.08h-7.74c0.03,1.32,0.37,2.32,1,3
				c0.63,0.68,1.52,1.03,2.67,1.03c1.21,0,2.41-0.25,3.59-0.76v1.52c-0.6,0.26-1.17,0.45-1.71,0.56
				C142.88,47.03,142.23,47.09,141.47,47.09z M141.01,36.86c-0.9,0-1.62,0.29-2.16,0.88c-0.54,0.59-0.85,1.4-0.95,2.44h5.88
				c0-1.07-0.24-1.89-0.72-2.47C142.58,37.15,141.9,36.86,141.01,36.86z"/>
			<path class="st3" d="M153.32,35.44c0.5,0,0.95,0.04,1.34,0.12l-0.24,1.58c-0.46-0.1-0.88-0.15-1.23-0.15
				c-0.91,0-1.69,0.37-2.33,1.11c-0.65,0.74-0.97,1.66-0.97,2.76v6.03h-1.7V35.64h1.4l0.2,2.08h0.08c0.42-0.73,0.92-1.29,1.51-1.69
				C151.97,35.64,152.61,35.44,153.32,35.44z"/>
			<path class="st3" d="M166.65,36.97h-2.86v9.92h-1.7v-9.92h-2.01V36.2l2.01-0.62v-0.63c0-2.76,1.21-4.14,3.62-4.14
				c0.59,0,1.29,0.12,2.09,0.36l-0.44,1.36c-0.66-0.21-1.22-0.32-1.68-0.32c-0.64,0-1.12,0.21-1.43,0.64
				c-0.31,0.43-0.46,1.11-0.46,2.06v0.73h2.86V36.97z"/>
			<path class="st3" d="M178.09,41.25c0,1.83-0.46,3.26-1.38,4.29c-0.92,1.03-2.2,1.54-3.83,1.54c-1,0-1.9-0.24-2.68-0.71
				s-1.38-1.15-1.8-2.03s-0.63-1.91-0.63-3.1c0-1.83,0.46-3.26,1.37-4.28c0.92-1.02,2.19-1.53,3.81-1.53c1.57,0,2.82,0.52,3.75,1.57
				C177.63,38.05,178.09,39.47,178.09,41.25z M169.53,41.25c0,1.44,0.29,2.53,0.86,3.28s1.42,1.13,2.53,1.13s1.96-0.37,2.54-1.12
				c0.58-0.75,0.87-1.84,0.87-3.29c0-1.43-0.29-2.51-0.87-3.25c-0.58-0.74-1.43-1.11-2.56-1.11c-1.11,0-1.96,0.37-2.52,1.1
				S169.53,39.8,169.53,41.25z"/>
			<path class="st3" d="M185.88,35.44c0.5,0,0.95,0.04,1.34,0.12l-0.24,1.58c-0.46-0.1-0.88-0.15-1.23-0.15
				c-0.91,0-1.69,0.37-2.33,1.11c-0.65,0.74-0.97,1.66-0.97,2.76v6.03h-1.7V35.64h1.4l0.2,2.08h0.08c0.42-0.73,0.92-1.29,1.51-1.69
				C184.53,35.64,185.18,35.44,185.88,35.44z"/>
			<path class="st3" d="M199.03,46.88h-1.74V33.44h-4.75v-1.55h11.24v1.55h-4.75V46.88z"/>
			<path class="st3" d="M210.21,47.09c-1.66,0-2.97-0.51-3.93-1.52c-0.96-1.01-1.44-2.42-1.44-4.21c0-1.81,0.45-3.25,1.34-4.32
				c0.89-1.07,2.09-1.6,3.59-1.6c1.41,0,2.52,0.46,3.34,1.39c0.82,0.93,1.23,2.15,1.23,3.67v1.08h-7.74c0.03,1.32,0.37,2.32,1,3
				c0.63,0.68,1.52,1.03,2.67,1.03c1.21,0,2.41-0.25,3.59-0.76v1.52c-0.6,0.26-1.17,0.45-1.71,0.56
				C211.61,47.03,210.96,47.09,210.21,47.09z M209.74,36.86c-0.9,0-1.62,0.29-2.16,0.88c-0.54,0.59-0.85,1.4-0.95,2.44h5.88
				c0-1.07-0.24-1.89-0.72-2.47C211.32,37.15,210.63,36.86,209.74,36.86z"/>
			<path class="st3" d="M219.63,41.13l-3.91-5.49h1.94l2.96,4.31l2.95-4.31h1.92l-3.91,5.49l4.11,5.75h-1.93l-3.15-4.55l-3.18,4.55
				h-1.93L219.63,41.13z"/>
			<path class="st3" d="M234.52,46.88l-0.34-1.6h-0.08c-0.56,0.7-1.12,1.18-1.68,1.43c-0.56,0.25-1.25,0.37-2.09,0.37
				c-1.11,0-1.99-0.29-2.62-0.86c-0.63-0.57-0.95-1.39-0.95-2.45c0-2.27,1.82-3.46,5.44-3.57l1.91-0.06v-0.7
				c0-0.88-0.19-1.53-0.57-1.95c-0.38-0.42-0.99-0.63-1.82-0.63c-0.94,0-2,0.29-3.18,0.86l-0.52-1.3c0.55-0.3,1.16-0.54,1.82-0.71
				c0.66-0.17,1.32-0.26,1.98-0.26c1.34,0,2.33,0.3,2.98,0.89c0.65,0.59,0.97,1.55,0.97,2.86v7.67H234.52z M230.68,45.68
				c1.06,0,1.89-0.29,2.5-0.87c0.61-0.58,0.91-1.39,0.91-2.44v-1.02l-1.7,0.07c-1.35,0.05-2.33,0.26-2.93,0.63
				c-0.6,0.37-0.9,0.95-0.9,1.74c0,0.62,0.19,1.08,0.56,1.41C229.49,45.52,230.01,45.68,230.68,45.68z"/>
			<path class="st3" d="M246.23,43.82c0,1.05-0.39,1.85-1.17,2.42s-1.87,0.85-3.28,0.85c-1.49,0-2.65-0.24-3.49-0.71V44.8
				c0.54,0.27,1.12,0.49,1.74,0.65c0.62,0.16,1.21,0.24,1.79,0.24c0.89,0,1.57-0.14,2.05-0.42c0.48-0.28,0.72-0.72,0.72-1.3
				c0-0.44-0.19-0.81-0.57-1.12c-0.38-0.31-1.12-0.68-2.22-1.1c-1.05-0.39-1.79-0.73-2.23-1.02c-0.44-0.29-0.77-0.62-0.98-0.99
				c-0.22-0.37-0.32-0.81-0.32-1.32c0-0.92,0.37-1.64,1.12-2.17c0.74-0.53,1.77-0.79,3.07-0.79c1.21,0,2.39,0.25,3.55,0.74
				l-0.61,1.38c-1.13-0.46-2.15-0.7-3.07-0.7c-0.81,0-1.42,0.13-1.83,0.38s-0.62,0.6-0.62,1.05c0,0.3,0.08,0.56,0.23,0.77
				c0.15,0.21,0.4,0.41,0.74,0.61c0.34,0.19,1,0.47,1.97,0.83c1.33,0.49,2.23,0.97,2.7,1.47C245.99,42.45,246.23,43.07,246.23,43.82
				z"/>
		</g>
		<g>
			<path class="st3" d="M92.91,55.6h4.23c1.99,0,3.43,0.3,4.32,0.89s1.33,1.53,1.33,2.82c0,0.89-0.25,1.62-0.74,2.2
				c-0.5,0.58-1.22,0.95-2.17,1.12v0.1c2.28,0.39,3.41,1.59,3.41,3.59c0,1.34-0.45,2.39-1.36,3.14c-0.91,0.75-2.17,1.13-3.8,1.13
				h-5.23V55.6z M94.65,62.02h2.87c1.23,0,2.12-0.19,2.66-0.58s0.81-1.04,0.81-1.95c0-0.84-0.3-1.45-0.9-1.82s-1.56-0.56-2.87-0.56
				h-2.56V62.02z M94.65,63.49v5.61h3.13c1.21,0,2.12-0.23,2.73-0.7c0.61-0.47,0.92-1.2,0.92-2.2c0-0.93-0.31-1.61-0.94-2.05
				c-0.63-0.44-1.58-0.66-2.86-0.66H94.65z"/>
			<path class="st3" d="M110.69,70.79c-1.66,0-2.97-0.51-3.93-1.52c-0.96-1.01-1.44-2.42-1.44-4.21c0-1.81,0.45-3.25,1.34-4.32
				c0.89-1.07,2.09-1.6,3.59-1.6c1.41,0,2.52,0.46,3.34,1.39s1.23,2.15,1.23,3.67v1.08h-7.74c0.03,1.32,0.37,2.32,1,3
				s1.52,1.03,2.67,1.03c1.21,0,2.41-0.25,3.59-0.76v1.52c-0.6,0.26-1.17,0.45-1.71,0.56C112.1,70.74,111.45,70.79,110.69,70.79z
				 M110.23,60.57c-0.9,0-1.62,0.29-2.16,0.88c-0.54,0.59-0.85,1.4-0.95,2.44H113c0-1.07-0.24-1.9-0.72-2.47
				C111.8,60.85,111.12,60.57,110.23,60.57z"/>
			<path class="st3" d="M124.32,70.59l-0.34-1.6h-0.08c-0.56,0.7-1.12,1.18-1.68,1.43c-0.56,0.25-1.25,0.37-2.09,0.37
				c-1.11,0-1.99-0.29-2.62-0.86s-0.95-1.39-0.95-2.45c0-2.27,1.81-3.46,5.44-3.57l1.91-0.06v-0.7c0-0.88-0.19-1.53-0.57-1.95
				c-0.38-0.42-0.99-0.63-1.82-0.63c-0.94,0-2,0.29-3.18,0.86l-0.52-1.3c0.55-0.3,1.16-0.54,1.82-0.71s1.32-0.26,1.98-0.26
				c1.34,0,2.33,0.3,2.98,0.89c0.65,0.59,0.97,1.55,0.97,2.86v7.67H124.32z M120.48,69.39c1.06,0,1.89-0.29,2.5-0.87
				c0.61-0.58,0.91-1.39,0.91-2.44v-1.02l-1.7,0.07c-1.35,0.05-2.33,0.26-2.93,0.63c-0.6,0.37-0.9,0.95-0.9,1.74
				c0,0.62,0.19,1.08,0.56,1.4S119.81,69.39,120.48,69.39z"/>
			<path class="st3" d="M133.27,70.79c-1.63,0-2.89-0.5-3.78-1.5c-0.89-1-1.34-2.42-1.34-4.25c0-1.88,0.45-3.33,1.36-4.36
				c0.91-1.03,2.2-1.54,3.87-1.54c0.54,0,1.08,0.06,1.62,0.17c0.54,0.12,0.96,0.25,1.27,0.41l-0.52,1.45
				c-0.38-0.15-0.79-0.27-1.23-0.37s-0.84-0.15-1.18-0.15c-2.28,0-3.42,1.46-3.42,4.37c0,1.38,0.28,2.44,0.84,3.18
				c0.56,0.74,1.38,1.11,2.48,1.11c0.94,0,1.9-0.2,2.88-0.6v1.51C135.35,70.6,134.41,70.79,133.27,70.79z"/>
			<path class="st3" d="M146.15,70.59v-7.27c0-0.92-0.21-1.6-0.63-2.05s-1.07-0.68-1.96-0.68c-1.18,0-2.05,0.32-2.59,0.96
				c-0.54,0.64-0.82,1.7-0.82,3.16v5.88h-1.7V54.63h1.7v4.83c0,0.58-0.03,1.06-0.08,1.45h0.1c0.33-0.54,0.81-0.97,1.43-1.28
				c0.62-0.31,1.32-0.47,2.12-0.47c1.37,0,2.4,0.33,3.09,0.98c0.69,0.65,1.03,1.69,1.03,3.11v7.33H146.15z"/>
			<path class="st3" d="M155.78,70.79c-1.66,0-2.97-0.51-3.93-1.52c-0.96-1.01-1.44-2.42-1.44-4.21c0-1.81,0.45-3.25,1.34-4.32
				c0.89-1.07,2.09-1.6,3.59-1.6c1.41,0,2.52,0.46,3.34,1.39s1.23,2.15,1.23,3.67v1.08h-7.74c0.03,1.32,0.37,2.32,1,3
				c0.63,0.68,1.52,1.03,2.67,1.03c1.21,0,2.41-0.25,3.59-0.76v1.52c-0.6,0.26-1.17,0.45-1.71,0.56
				C157.19,70.74,156.54,70.79,155.78,70.79z M155.32,60.57c-0.9,0-1.62,0.29-2.16,0.88c-0.54,0.59-0.85,1.4-0.95,2.44h5.88
				c0-1.07-0.24-1.9-0.72-2.47C156.89,60.85,156.21,60.57,155.32,60.57z"/>
			<path class="st3" d="M169.75,67.52c0,1.05-0.39,1.85-1.17,2.42s-1.87,0.85-3.28,0.85c-1.49,0-2.65-0.24-3.49-0.71v-1.58
				c0.54,0.27,1.12,0.49,1.74,0.65c0.62,0.16,1.21,0.24,1.79,0.24c0.89,0,1.57-0.14,2.05-0.43s0.72-0.72,0.72-1.3
				c0-0.44-0.19-0.81-0.57-1.12c-0.38-0.31-1.12-0.68-2.22-1.1c-1.05-0.39-1.79-0.73-2.23-1.02c-0.44-0.29-0.77-0.62-0.98-0.99
				c-0.22-0.37-0.32-0.81-0.32-1.32c0-0.92,0.37-1.64,1.12-2.17c0.74-0.53,1.77-0.79,3.07-0.79c1.21,0,2.39,0.25,3.55,0.74
				l-0.61,1.38c-1.13-0.46-2.15-0.7-3.07-0.7c-0.81,0-1.42,0.13-1.83,0.38s-0.62,0.6-0.62,1.05c0,0.3,0.08,0.56,0.23,0.77
				c0.15,0.21,0.4,0.41,0.74,0.6c0.34,0.19,1,0.47,1.97,0.83c1.33,0.49,2.23,0.97,2.7,1.47C169.51,66.16,169.75,66.78,169.75,67.52z
				"/>
			<path class="st3" d="M184.25,70.59l-0.34-1.6h-0.08c-0.56,0.7-1.12,1.18-1.68,1.43c-0.56,0.25-1.25,0.37-2.09,0.37
				c-1.11,0-1.99-0.29-2.62-0.86c-0.63-0.57-0.95-1.39-0.95-2.45c0-2.27,1.82-3.46,5.44-3.57l1.91-0.06v-0.7
				c0-0.88-0.19-1.53-0.57-1.95c-0.38-0.42-0.99-0.63-1.82-0.63c-0.94,0-2,0.29-3.18,0.86l-0.52-1.3c0.55-0.3,1.16-0.54,1.82-0.71
				c0.66-0.17,1.32-0.26,1.98-0.26c1.34,0,2.33,0.3,2.98,0.89c0.65,0.59,0.97,1.55,0.97,2.86v7.67H184.25z M180.41,69.39
				c1.06,0,1.89-0.29,2.5-0.87c0.61-0.58,0.91-1.39,0.91-2.44v-1.02l-1.7,0.07c-1.35,0.05-2.33,0.26-2.93,0.63
				c-0.6,0.37-0.9,0.95-0.9,1.74c0,0.62,0.19,1.08,0.56,1.4C179.22,69.23,179.74,69.39,180.41,69.39z"/>
			<path class="st3" d="M196.4,70.59v-7.27c0-0.92-0.21-1.6-0.63-2.05s-1.07-0.68-1.96-0.68c-1.18,0-2.04,0.32-2.58,0.95
				s-0.82,1.69-0.82,3.15v5.9h-1.7V59.35h1.38l0.28,1.54h0.08c0.35-0.55,0.84-0.98,1.47-1.29c0.63-0.3,1.33-0.46,2.1-0.46
				c1.35,0,2.37,0.33,3.06,0.98s1.03,1.7,1.03,3.13v7.33H196.4z"/>
			<path class="st3" d="M208.93,69.08h-0.09c-0.79,1.14-1.96,1.71-3.53,1.71c-1.47,0-2.61-0.5-3.43-1.51
				c-0.82-1-1.22-2.43-1.22-4.29s0.41-3.29,1.23-4.32s1.96-1.54,3.42-1.54c1.52,0,2.69,0.55,3.51,1.66h0.13L208.88,60l-0.04-0.79
				v-4.57h1.7v15.96h-1.38L208.93,69.08z M205.52,69.37c1.16,0,2-0.32,2.53-0.95c0.52-0.63,0.78-1.65,0.78-3.06V65
				c0-1.59-0.26-2.73-0.79-3.41c-0.53-0.68-1.38-1.02-2.54-1.02c-1,0-1.76,0.39-2.29,1.16c-0.53,0.78-0.79,1.87-0.79,3.29
				c0,1.44,0.26,2.52,0.79,3.25S204.51,69.37,205.52,69.37z"/>
			<path class="st3" d="M227.69,66.6c0,1.32-0.48,2.35-1.44,3.09s-2.26,1.11-3.9,1.11c-1.78,0-3.14-0.23-4.1-0.69v-1.68
				c0.62,0.26,1.29,0.46,2.01,0.62s1.44,0.23,2.15,0.23c1.16,0,2.04-0.22,2.63-0.66c0.59-0.44,0.88-1.05,0.88-1.84
				c0-0.52-0.1-0.94-0.31-1.28c-0.21-0.33-0.56-0.64-1.05-0.92c-0.49-0.28-1.23-0.6-2.23-0.95c-1.39-0.5-2.39-1.09-2.99-1.77
				c-0.6-0.68-0.9-1.58-0.9-2.68c0-1.16,0.43-2.07,1.3-2.76s2.02-1.03,3.45-1.03c1.49,0,2.86,0.27,4.11,0.82l-0.54,1.52
				c-1.24-0.52-2.44-0.78-3.61-0.78c-0.92,0-1.64,0.2-2.16,0.59s-0.78,0.95-0.78,1.65c0,0.52,0.1,0.95,0.29,1.28
				c0.19,0.33,0.51,0.64,0.97,0.91c0.45,0.28,1.15,0.58,2.09,0.92c1.57,0.56,2.65,1.16,3.25,1.8
				C227.39,64.74,227.69,65.57,227.69,66.6z"/>
			<path class="st3" d="M237.87,70.59v-7.27c0-0.92-0.21-1.6-0.63-2.05s-1.07-0.68-1.96-0.68c-1.18,0-2.05,0.32-2.59,0.96
				c-0.54,0.64-0.82,1.7-0.82,3.16v5.88h-1.7V54.63h1.7v4.83c0,0.58-0.03,1.06-0.08,1.45h0.1c0.33-0.54,0.81-0.97,1.43-1.28
				c0.62-0.31,1.32-0.47,2.12-0.47c1.37,0,2.4,0.33,3.09,0.98c0.69,0.65,1.03,1.69,1.03,3.11v7.33H237.87z"/>
			<path class="st3" d="M252.46,64.96c0,1.83-0.46,3.26-1.38,4.29c-0.92,1.03-2.2,1.54-3.83,1.54c-1,0-1.9-0.24-2.68-0.71
				s-1.38-1.15-1.8-2.03s-0.63-1.91-0.63-3.1c0-1.83,0.46-3.26,1.37-4.28s2.19-1.53,3.81-1.53c1.57,0,2.82,0.52,3.75,1.57
				C251.99,61.76,252.46,63.17,252.46,64.96z M243.9,64.96c0,1.44,0.29,2.53,0.86,3.28s1.42,1.13,2.53,1.13s1.96-0.37,2.54-1.12
				c0.58-0.75,0.87-1.84,0.87-3.29c0-1.43-0.29-2.51-0.87-3.26c-0.58-0.74-1.43-1.11-2.56-1.11c-1.11,0-1.96,0.37-2.52,1.1
				S243.9,63.51,243.9,64.96z"/>
			<path class="st3" d="M260.25,59.14c0.5,0,0.95,0.04,1.34,0.12l-0.24,1.58c-0.46-0.1-0.88-0.15-1.23-0.15
				c-0.91,0-1.69,0.37-2.33,1.11c-0.65,0.74-0.97,1.66-0.97,2.76v6.03h-1.7V59.35h1.4l0.2,2.08h0.08c0.42-0.73,0.92-1.3,1.51-1.69
				C258.9,59.34,259.55,59.14,260.25,59.14z"/>
			<path class="st3" d="M268.13,70.79c-1.66,0-2.97-0.51-3.93-1.52c-0.96-1.01-1.44-2.42-1.44-4.21c0-1.81,0.45-3.25,1.34-4.32
				c0.89-1.07,2.09-1.6,3.59-1.6c1.41,0,2.52,0.46,3.34,1.39s1.23,2.15,1.23,3.67v1.08h-7.74c0.03,1.32,0.37,2.32,1,3
				c0.63,0.68,1.52,1.03,2.67,1.03c1.21,0,2.41-0.25,3.59-0.76v1.52c-0.6,0.26-1.17,0.45-1.71,0.56
				C269.54,70.74,268.89,70.79,268.13,70.79z M267.67,60.57c-0.9,0-1.62,0.29-2.16,0.88c-0.54,0.59-0.85,1.4-0.95,2.44h5.88
				c0-1.07-0.24-1.9-0.72-2.47C269.24,60.85,268.56,60.57,267.67,60.57z"/>
			<path class="st3" d="M282.1,67.52c0,1.05-0.39,1.85-1.17,2.42s-1.87,0.85-3.28,0.85c-1.49,0-2.65-0.24-3.49-0.71v-1.58
				c0.54,0.27,1.12,0.49,1.74,0.65c0.62,0.16,1.21,0.24,1.79,0.24c0.89,0,1.57-0.14,2.05-0.43s0.72-0.72,0.72-1.3
				c0-0.44-0.19-0.81-0.57-1.12c-0.38-0.31-1.12-0.68-2.22-1.1c-1.05-0.39-1.79-0.73-2.23-1.02c-0.44-0.29-0.77-0.62-0.98-0.99
				c-0.22-0.37-0.32-0.81-0.32-1.32c0-0.92,0.37-1.64,1.12-2.17c0.74-0.53,1.77-0.79,3.07-0.79c1.21,0,2.39,0.25,3.55,0.74
				l-0.61,1.38c-1.13-0.46-2.15-0.7-3.07-0.7c-0.81,0-1.42,0.13-1.83,0.38s-0.62,0.6-0.62,1.05c0,0.3,0.08,0.56,0.23,0.77
				c0.15,0.21,0.4,0.41,0.74,0.6c0.34,0.19,1,0.47,1.97,0.83c1.33,0.49,2.23,0.97,2.7,1.47C281.87,66.16,282.1,66.78,282.1,67.52z"
				/>
		</g>
	</g>
</g>
</svg>
