<?xml version="1.0" encoding="utf-8"?>
<!-- Generator: Adobe Illustrator 22.1.0, SVG Export Plug-In . SVG Version: 6.00 Build 0)  -->
<svg version="1.1" id="Layer_1" xmlns="http://www.w3.org/2000/svg" xmlns:xlink="http://www.w3.org/1999/xlink" x="0px" y="0px"
	 viewBox="0 0 282.4 87.3" style="enable-background:new 0 0 282.4 87.3;" xml:space="preserve">
<style type="text/css">
	.st0{fill:#500000;}
	.st1{fill:#FFFFFF;}
	.st2{fill:#B1B3B6;}
	.st3{fill:#231F20;}
</style>
<g>
	<g>
		<rect x="12.6" y="12.8" class="st0" width="61.3" height="61.7"/>
		<polygon class="st1" points="65.7,37.4 61.2,37.4 60.9,37.4 60.8,37.6 57.5,44.5 54.2,37.6 54.1,37.4 53.8,37.4 49.4,37.4 
			49,37.4 49,37.8 49,40.1 49,40.5 49.4,40.5 50.1,40.5 50.1,50.4 49.3,50.4 48.9,50.4 48.9,50.8 48.9,53.1 48.9,53.6 49.3,53.6 
			54.3,53.6 54.7,53.6 54.7,53.1 54.7,50.8 54.7,50.4 54.3,50.4 53.4,50.4 53.4,43.4 57.1,51 57.5,51.8 57.9,51 61.6,43.4 
			61.6,50.4 60.8,50.4 60.4,50.4 60.4,50.8 60.4,53.1 60.4,53.6 60.8,53.6 65.7,53.6 66.1,53.6 66.1,53.1 66.1,50.8 66.1,50.4 
			65.7,50.4 64.9,50.4 64.9,40.5 65.7,40.5 66.1,40.5 66.1,40.1 66.1,37.8 66.1,37.4 		"/>
		<path class="st1" d="M37,50.4h-1.3l-4.3-9.9h0.8v-3.2h-6.9v3.2h0.9l-4.3,9.9h-1.8v3.2h6.2v-3.2h-0.9l0.7-1.6h5.1l0.7,1.6h-1v3.2
			h6.2v-3.2L37,50.4z M30.1,45.5h-2.4l1.2-2.8L30.1,45.5z"/>
		<polygon class="st1" points="60.5,25 25.8,25 25.4,25 25.4,25.5 25.4,34.8 25.4,35.2 25.8,35.2 31.8,35.2 32.3,35.2 32.3,34.8 
			32.3,31.3 39.7,31.3 39.7,55.7 36.3,55.7 35.8,55.7 35.8,56.2 35.8,62.2 35.8,62.6 36.3,62.6 50.1,62.6 50.5,62.6 50.5,62.2 
			50.5,56.2 50.5,55.7 50.1,55.7 46.6,55.7 46.6,31.3 54,31.3 54,34.7 54,35.2 54.5,35.2 60.5,35.2 61,35.2 61,34.7 61,25.5 61,25 
					"/>
		<polygon class="st2" points="47.7,58.6 49.1,57 49.1,61.2 47.7,59.8 		"/>
		<polygon class="st2" points="45.2,57.2 43.8,58.6 43.8,28.4 45.2,29.9 		"/>
		<polygon class="st2" points="28.3,27.9 26.8,26.4 58.8,26.4 56.9,27.9 		"/>
		<polygon class="st2" points="59.6,33.8 58.1,32.4 58.1,28.7 59.6,27.2 		"/>
		<path class="st0" d="M76,73.3c0-0.7,0.6-1.2,1.2-1.2c0.7,0,1.2,0.6,1.2,1.2s-0.6,1.2-1.2,1.2C76.6,74.5,76,74,76,73.3L76,73.3z
			 M78.2,73.3c0-0.5-0.5-0.9-1-0.9c-0.5,0-0.9,0.5-0.9,1c0,0.5,0.4,0.9,0.9,0.9C77.8,74.3,78.2,73.9,78.2,73.3
			C78.2,73.3,78.2,73.3,78.2,73.3z M76.8,72.6h0.5c0.3,0,0.5,0.1,0.5,0.4c0,0.2-0.1,0.4-0.3,0.4c0,0,0,0-0.1,0l0.4,0.6h-0.3
			l-0.4-0.6H77V74h-0.3L76.8,72.6z M77,73.2h0.2c0.2,0,0.3,0,0.3-0.2s-0.1-0.2-0.3-0.2H77V73.2z"/>
	</g>
	<g>
		<g>
			<path class="st3" d="M94.4,23.5h-1.3v-6.8h-2.3v-1.1h5.9v1.1h-2.3V23.5z"/>
			<path class="st3" d="M102.9,23.5h-4.4v-7.9h4.4v1.1h-3.2v2.1h3V20h-3v2.5h3.2V23.5z"/>
			<path class="st3" d="M110.9,23.5h-1.5l-2-3.2l-2,3.2h-1.4l2.6-4.1l-2.4-3.8h1.4l1.8,3l1.8-3h1.4l-2.5,3.8L110.9,23.5z"/>
			<path class="st3" d="M117.4,23.5l-0.8-2.2h-3l-0.8,2.2h-1.4l2.9-7.9h1.4l2.9,7.9H117.4z M116.3,20.2l-0.7-2.1
				c-0.1-0.1-0.1-0.4-0.2-0.7c-0.1-0.3-0.2-0.5-0.2-0.7c-0.1,0.4-0.2,0.9-0.4,1.4l-0.7,2H116.3z"/>
			<path class="st3" d="M124.9,21.4c0,0.7-0.3,1.2-0.8,1.6s-1.2,0.6-2.1,0.6s-1.6-0.1-2.2-0.4V22c0.4,0.2,0.7,0.3,1.1,0.4
				c0.4,0.1,0.8,0.1,1.1,0.1c0.5,0,0.9-0.1,1.1-0.3c0.2-0.2,0.4-0.5,0.4-0.8c0-0.3-0.1-0.5-0.3-0.7s-0.7-0.4-1.4-0.7
				c-0.7-0.3-1.2-0.6-1.5-1c-0.3-0.4-0.4-0.8-0.4-1.3c0-0.7,0.2-1.2,0.7-1.5s1.1-0.6,1.9-0.6c0.8,0,1.5,0.2,2.2,0.5l-0.4,1
				c-0.7-0.3-1.3-0.4-1.9-0.4c-0.4,0-0.7,0.1-0.9,0.3c-0.2,0.2-0.3,0.4-0.3,0.7c0,0.2,0,0.4,0.1,0.5c0.1,0.1,0.2,0.3,0.4,0.4
				s0.6,0.3,1.1,0.5c0.6,0.2,1,0.5,1.3,0.7c0.3,0.2,0.5,0.4,0.6,0.7C124.8,20.7,124.9,21,124.9,21.4z"/>
			<path class="st3" d="M135.2,23.5l-0.8-2.2h-3l-0.8,2.2h-1.4l2.9-7.9h1.4l2.9,7.9H135.2z M134.1,20.2l-0.7-2.1
				c-0.1-0.1-0.1-0.4-0.2-0.7c-0.1-0.3-0.2-0.5-0.2-0.7c-0.1,0.4-0.2,0.9-0.4,1.4l-0.7,2H134.1z"/>
			<path class="st3" d="M137.7,21.4c0-0.5,0.1-0.9,0.3-1.2c0.2-0.3,0.6-0.7,1.2-1c-0.3-0.4-0.6-0.7-0.7-1c-0.1-0.3-0.2-0.6-0.2-0.9
				c0-0.5,0.2-1,0.6-1.3c0.4-0.3,0.9-0.5,1.6-0.5c0.6,0,1.1,0.2,1.5,0.5c0.4,0.3,0.5,0.7,0.5,1.2c0,0.4-0.1,0.8-0.4,1.1
				c-0.2,0.3-0.6,0.7-1.2,1l1.9,1.8c0.3-0.4,0.5-0.9,0.7-1.7h1.3c-0.3,1-0.7,1.8-1.2,2.5l1.6,1.6h-1.6l-0.8-0.8
				c-0.4,0.3-0.8,0.5-1.2,0.7c-0.4,0.1-0.9,0.2-1.4,0.2c-0.8,0-1.5-0.2-1.9-0.6C137.9,22.7,137.7,22.1,137.7,21.4z M140.4,22.5
				c0.7,0,1.2-0.2,1.7-0.6l-2.1-2c-0.4,0.2-0.6,0.5-0.8,0.7s-0.2,0.5-0.2,0.7c0,0.4,0.1,0.6,0.4,0.9
				C139.6,22.4,139.9,22.5,140.4,22.5z M139.6,17.4c0,0.2,0.1,0.4,0.2,0.6c0.1,0.2,0.3,0.4,0.5,0.6c0.4-0.2,0.7-0.4,0.9-0.6
				c0.2-0.2,0.2-0.4,0.2-0.7c0-0.2-0.1-0.4-0.2-0.6c-0.2-0.1-0.4-0.2-0.6-0.2c-0.3,0-0.5,0.1-0.7,0.2
				C139.7,16.9,139.6,17.1,139.6,17.4z"/>
			<path class="st3" d="M150.3,23.5L148,17h0c0.1,1,0.1,1.9,0.1,2.7v3.8h-1.2v-7.9h1.8l2.2,6.2h0l2.2-6.2h1.8v7.9h-1.2v-3.9
				c0-0.4,0-0.9,0-1.5c0-0.6,0-1,0.1-1.1h0l-2.4,6.5H150.3z"/>
			<path class="st3" d="M167.1,15.7v5.1c0,0.6-0.1,1.1-0.4,1.5c-0.2,0.4-0.6,0.8-1.1,1c-0.5,0.2-1,0.4-1.7,0.4c-1,0-1.7-0.3-2.3-0.8
				c-0.5-0.5-0.8-1.2-0.8-2.1v-5.1h1.3v5c0,0.6,0.2,1.1,0.5,1.4c0.3,0.3,0.8,0.5,1.4,0.5c1.2,0,1.8-0.6,1.8-1.9v-5H167.1z"/>
			<path class="st3" d="M176.2,23.5h-1.6l-3.9-6.3h0l0,0.3c0,0.7,0.1,1.3,0.1,1.8v4.1h-1.2v-7.9h1.6l3.9,6.2h0c0-0.1,0-0.4,0-0.9
				s0-0.9,0-1.2v-4.1h1.2V23.5z"/>
			<path class="st3" d="M178.9,23.5v-7.9h1.3v7.9H178.9z"/>
			<path class="st3" d="M187.2,15.7h1.3l-2.8,7.9h-1.4l-2.7-7.9h1.3l1.6,4.9c0.1,0.2,0.2,0.5,0.3,0.9c0.1,0.4,0.2,0.6,0.2,0.8
				c0-0.3,0.1-0.6,0.2-0.9c0.1-0.4,0.2-0.6,0.2-0.8L187.2,15.7z"/>
			<path class="st3" d="M194.6,23.5h-4.4v-7.9h4.4v1.1h-3.2v2.1h3V20h-3v2.5h3.2V23.5z"/>
			<path class="st3" d="M198.1,20.4v3.1h-1.3v-7.9h2.2c1,0,1.8,0.2,2.3,0.6c0.5,0.4,0.7,1,0.7,1.7c0,1-0.5,1.7-1.5,2.1l2.2,3.5h-1.5
				l-1.9-3.1H198.1z M198.1,19.3h0.9c0.6,0,1-0.1,1.3-0.3c0.3-0.2,0.4-0.6,0.4-1c0-0.4-0.1-0.8-0.4-1s-0.7-0.3-1.3-0.3h-0.8V19.3z"
				/>
			<path class="st3" d="M209,21.4c0,0.7-0.3,1.2-0.8,1.6c-0.5,0.4-1.2,0.6-2.1,0.6s-1.6-0.1-2.2-0.4V22c0.4,0.2,0.7,0.3,1.1,0.4
				c0.4,0.1,0.8,0.1,1.1,0.1c0.5,0,0.9-0.1,1.1-0.3c0.2-0.2,0.4-0.5,0.4-0.8c0-0.3-0.1-0.5-0.3-0.7c-0.2-0.2-0.7-0.4-1.4-0.7
				c-0.7-0.3-1.2-0.6-1.5-1c-0.3-0.4-0.4-0.8-0.4-1.3c0-0.7,0.2-1.2,0.7-1.5c0.5-0.4,1.1-0.6,1.9-0.6c0.8,0,1.5,0.2,2.2,0.5l-0.4,1
				c-0.7-0.3-1.3-0.4-1.9-0.4c-0.4,0-0.7,0.1-0.9,0.3c-0.2,0.2-0.3,0.4-0.3,0.7c0,0.2,0,0.4,0.1,0.5c0.1,0.1,0.2,0.3,0.4,0.4
				c0.2,0.1,0.6,0.3,1.1,0.5c0.6,0.2,1,0.5,1.3,0.7c0.3,0.2,0.5,0.4,0.6,0.7C208.9,20.7,209,21,209,21.4z"/>
			<path class="st3" d="M211,23.5v-7.9h1.3v7.9H211z"/>
			<path class="st3" d="M217.7,23.5h-1.3v-6.8h-2.3v-1.1h5.9v1.1h-2.3V23.5z"/>
			<path class="st3" d="M223.9,19.3l1.9-3.6h1.4l-2.6,4.8v3h-1.3v-3l-2.6-4.8h1.4L223.9,19.3z"/>
		</g>
		<g>
			<path class="st3" d="M104.3,46.9h-1.7v-7.1h-7.9v7.1h-1.7v-15h1.7v6.4h7.9v-6.4h1.7V46.9z"/>
			<path class="st3" d="M114.7,46.9l-0.3-1.6h-0.1c-0.6,0.7-1.1,1.2-1.7,1.4c-0.6,0.2-1.3,0.4-2.1,0.4c-1.1,0-2-0.3-2.6-0.9
				s-0.9-1.4-0.9-2.5c0-2.3,1.8-3.5,5.4-3.6l1.9-0.1v-0.7c0-0.9-0.2-1.5-0.6-2c-0.4-0.4-1-0.6-1.8-0.6c-0.9,0-2,0.3-3.2,0.9
				l-0.5-1.3c0.6-0.3,1.2-0.5,1.8-0.7s1.3-0.3,2-0.3c1.3,0,2.3,0.3,3,0.9c0.6,0.6,1,1.5,1,2.9v7.7H114.7z M110.9,45.7
				c1.1,0,1.9-0.3,2.5-0.9c0.6-0.6,0.9-1.4,0.9-2.4v-1l-1.7,0.1c-1.4,0-2.3,0.3-2.9,0.6c-0.6,0.4-0.9,1-0.9,1.7
				c0,0.6,0.2,1.1,0.6,1.4S110.2,45.7,110.9,45.7z"/>
			<path class="st3" d="M126.4,46.9h-8.2v-1.2l6.1-8.8h-5.8v-1.3h7.6V37l-6,8.6h6.2V46.9z"/>
			<path class="st3" d="M135.6,46.9l-0.3-1.6h-0.1c-0.6,0.7-1.1,1.2-1.7,1.4s-1.3,0.4-2.1,0.4c-1.1,0-2-0.3-2.6-0.9
				s-0.9-1.4-0.9-2.5c0-2.3,1.8-3.5,5.4-3.6l1.9-0.1v-0.7c0-0.9-0.2-1.5-0.6-2c-0.4-0.4-1-0.6-1.8-0.6c-0.9,0-2,0.3-3.2,0.9
				l-0.5-1.3c0.6-0.3,1.2-0.5,1.8-0.7c0.7-0.2,1.3-0.3,2-0.3c1.3,0,2.3,0.3,3,0.9c0.6,0.6,1,1.5,1,2.9v7.7H135.6z M131.8,45.7
				c1.1,0,1.9-0.3,2.5-0.9c0.6-0.6,0.9-1.4,0.9-2.4v-1l-1.7,0.1c-1.4,0-2.3,0.3-2.9,0.6c-0.6,0.4-0.9,1-0.9,1.7
				c0,0.6,0.2,1.1,0.6,1.4S131.1,45.7,131.8,45.7z"/>
			<path class="st3" d="M145.2,35.4c0.5,0,0.9,0,1.3,0.1l-0.2,1.6c-0.5-0.1-0.9-0.2-1.2-0.2c-0.9,0-1.7,0.4-2.3,1.1
				c-0.6,0.7-1,1.7-1,2.8v6h-1.7V35.6h1.4l0.2,2.1h0.1c0.4-0.7,0.9-1.3,1.5-1.7C143.8,35.6,144.5,35.4,145.2,35.4z"/>
			<path class="st3" d="M156,45.4L156,45.4c-0.9,1.1-2.1,1.7-3.6,1.7c-1.5,0-2.6-0.5-3.4-1.5c-0.8-1-1.2-2.4-1.2-4.3
				s0.4-3.3,1.2-4.3s2-1.5,3.4-1.5c1.5,0,2.7,0.6,3.5,1.7h0.1l-0.1-0.8l0-0.8v-4.6h1.7v16h-1.4L156,45.4z M152.6,45.7
				c1.2,0,2-0.3,2.5-0.9c0.5-0.6,0.8-1.7,0.8-3.1v-0.4c0-1.6-0.3-2.7-0.8-3.4c-0.5-0.7-1.4-1-2.5-1c-1,0-1.8,0.4-2.3,1.2
				c-0.5,0.8-0.8,1.9-0.8,3.3c0,1.4,0.3,2.5,0.8,3.3S151.6,45.7,152.6,45.7z"/>
			<path class="st3" d="M168,40.6v6.2h-1.7v-15h4.1c1.8,0,3.2,0.4,4.1,1.1c0.9,0.7,1.3,1.8,1.3,3.2c0,2-1,3.3-3,4l4.1,6.7h-2.1
				l-3.6-6.2H168z M168,39.1h2.4c1.2,0,2.1-0.2,2.7-0.7c0.6-0.5,0.9-1.2,0.9-2.2c0-1-0.3-1.7-0.9-2.1c-0.6-0.4-1.5-0.7-2.8-0.7H168
				V39.1z"/>
			<path class="st3" d="M183.4,47.1c-1.7,0-3-0.5-3.9-1.5c-1-1-1.4-2.4-1.4-4.2c0-1.8,0.4-3.3,1.3-4.3c0.9-1.1,2.1-1.6,3.6-1.6
				c1.4,0,2.5,0.5,3.3,1.4c0.8,0.9,1.2,2.1,1.2,3.7v1.1h-7.7c0,1.3,0.4,2.3,1,3c0.6,0.7,1.5,1,2.7,1c1.2,0,2.4-0.3,3.6-0.8v1.5
				c-0.6,0.3-1.2,0.4-1.7,0.6C184.8,47,184.2,47.1,183.4,47.1z M183,36.9c-0.9,0-1.6,0.3-2.2,0.9c-0.5,0.6-0.9,1.4-0.9,2.4h5.9
				c0-1.1-0.2-1.9-0.7-2.5C184.5,37.1,183.9,36.9,183,36.9z"/>
			<path class="st3" d="M197.8,45.4L197.8,45.4c-0.9,1.1-2.1,1.7-3.6,1.7c-1.5,0-2.6-0.5-3.4-1.5c-0.8-1-1.2-2.4-1.2-4.3
				s0.4-3.3,1.2-4.3s2-1.5,3.4-1.5c1.5,0,2.7,0.6,3.5,1.7h0.1l-0.1-0.8l0-0.8v-4.6h1.7v16H198L197.8,45.4z M194.4,45.7
				c1.2,0,2-0.3,2.5-0.9c0.5-0.6,0.8-1.7,0.8-3.1v-0.4c0-1.6-0.3-2.7-0.8-3.4c-0.5-0.7-1.4-1-2.5-1c-1,0-1.8,0.4-2.3,1.2
				c-0.5,0.8-0.8,1.9-0.8,3.3c0,1.4,0.3,2.5,0.8,3.3S193.4,45.7,194.4,45.7z"/>
			<path class="st3" d="M204.3,35.6v7.3c0,0.9,0.2,1.6,0.6,2.1s1.1,0.7,2,0.7c1.2,0,2-0.3,2.6-1c0.5-0.6,0.8-1.7,0.8-3.1v-5.9h1.7
				v11.2h-1.4l-0.2-1.5h-0.1c-0.3,0.6-0.8,1-1.5,1.3c-0.6,0.3-1.3,0.4-2.1,0.4c-1.4,0-2.4-0.3-3.1-1c-0.7-0.6-1-1.7-1-3.1v-7.4
				H204.3z"/>
			<path class="st3" d="M219.8,47.1c-1.6,0-2.9-0.5-3.8-1.5c-0.9-1-1.3-2.4-1.3-4.3c0-1.9,0.5-3.3,1.4-4.4c0.9-1,2.2-1.5,3.9-1.5
				c0.5,0,1.1,0.1,1.6,0.2c0.5,0.1,1,0.3,1.3,0.4l-0.5,1.4c-0.4-0.2-0.8-0.3-1.2-0.4c-0.4-0.1-0.8-0.1-1.2-0.1
				c-2.3,0-3.4,1.5-3.4,4.4c0,1.4,0.3,2.4,0.8,3.2c0.6,0.7,1.4,1.1,2.5,1.1c0.9,0,1.9-0.2,2.9-0.6v1.5
				C221.9,46.9,220.9,47.1,219.8,47.1z"/>
			<path class="st3" d="M228.6,45.7c0.3,0,0.6,0,0.9-0.1c0.3,0,0.5-0.1,0.7-0.1v1.3c-0.2,0.1-0.5,0.2-0.8,0.2
				c-0.4,0.1-0.7,0.1-1,0.1c-2.2,0-3.3-1.1-3.3-3.4V37h-1.6v-0.8l1.6-0.7l0.7-2.4h1v2.6h3.3V37h-3.3v6.6c0,0.7,0.2,1.2,0.5,1.6
				S228,45.7,228.6,45.7z"/>
			<path class="st3" d="M231.9,32.6c0-0.4,0.1-0.7,0.3-0.9c0.2-0.2,0.4-0.3,0.7-0.3c0.3,0,0.5,0.1,0.7,0.3s0.3,0.5,0.3,0.9
				s-0.1,0.7-0.3,0.9c-0.2,0.2-0.4,0.3-0.7,0.3c-0.3,0-0.5-0.1-0.7-0.3C232,33.3,231.9,33,231.9,32.6z M233.8,46.9h-1.7V35.6h1.7
				V46.9z"/>
			<path class="st3" d="M246.8,41.3c0,1.8-0.5,3.3-1.4,4.3c-0.9,1-2.2,1.5-3.8,1.5c-1,0-1.9-0.2-2.7-0.7s-1.4-1.1-1.8-2
				s-0.6-1.9-0.6-3.1c0-1.8,0.5-3.3,1.4-4.3c0.9-1,2.2-1.5,3.8-1.5c1.6,0,2.8,0.5,3.7,1.6C246.3,38.1,246.8,39.5,246.8,41.3z
				 M238.2,41.3c0,1.4,0.3,2.5,0.9,3.3s1.4,1.1,2.5,1.1s2-0.4,2.5-1.1c0.6-0.7,0.9-1.8,0.9-3.3c0-1.4-0.3-2.5-0.9-3.3
				c-0.6-0.7-1.4-1.1-2.6-1.1c-1.1,0-2,0.4-2.5,1.1S238.2,39.8,238.2,41.3z"/>
			<path class="st3" d="M257.1,46.9v-7.3c0-0.9-0.2-1.6-0.6-2.1s-1.1-0.7-2-0.7c-1.2,0-2,0.3-2.6,1s-0.8,1.7-0.8,3.1v5.9h-1.7V35.6
				h1.4l0.3,1.5h0.1c0.3-0.6,0.8-1,1.5-1.3c0.6-0.3,1.3-0.5,2.1-0.5c1.4,0,2.4,0.3,3.1,1c0.7,0.7,1,1.7,1,3.1v7.3H257.1z"/>
		</g>
		<g>
			<path class="st3" d="M92,66.7c0-0.9,0.2-1.7,0.7-2.4s1.3-1.4,2.6-2.1c-0.6-0.6-1-1.1-1.2-1.5s-0.4-0.7-0.5-1s-0.2-0.7-0.2-1.1
				c0-1,0.3-1.8,1-2.4s1.6-0.9,2.8-0.9c1.1,0,2,0.3,2.6,0.9c0.6,0.6,1,1.4,1,2.4c0,0.7-0.2,1.4-0.7,2c-0.5,0.6-1.2,1.2-2.3,1.9
				l4.2,4c0.4-0.4,0.7-0.9,0.9-1.5s0.4-1.2,0.6-1.9h1.7c-0.5,2-1.2,3.4-2.1,4.5l3.1,3h-2.3l-1.9-1.8c-0.8,0.7-1.6,1.2-2.5,1.6
				s-1.8,0.5-2.8,0.5c-1.5,0-2.6-0.4-3.4-1.1C92.4,69,92,68,92,66.7z M96.7,69.3c1.6,0,3-0.5,4.1-1.6l-4.5-4.3
				c-0.8,0.5-1.3,0.8-1.6,1.2s-0.5,0.6-0.7,1s-0.2,0.7-0.2,1.2c0,0.8,0.3,1.4,0.8,1.9C95.1,69,95.8,69.3,96.7,69.3z M95.1,58.6
				c0,0.5,0.1,0.9,0.4,1.3c0.2,0.4,0.7,0.9,1.3,1.5c0.9-0.5,1.5-1,1.8-1.4c0.3-0.4,0.5-0.9,0.5-1.5c0-0.5-0.2-1-0.5-1.3
				c-0.4-0.3-0.8-0.5-1.4-0.5c-0.6,0-1.1,0.2-1.5,0.5C95.3,57.6,95.1,58,95.1,58.6z"/>
			<path class="st3" d="M114.8,64.4v6.2h-1.7v-15h4.1c1.8,0,3.2,0.4,4.1,1.1c0.9,0.7,1.3,1.8,1.3,3.2c0,2-1,3.3-3,4l4.1,6.7h-2.1
				l-3.6-6.2H114.8z M114.8,62.9h2.4c1.2,0,2.1-0.2,2.7-0.7c0.6-0.5,0.9-1.2,0.9-2.2c0-1-0.3-1.7-0.9-2.1c-0.6-0.4-1.5-0.7-2.8-0.7
				h-2.3V62.9z"/>
			<path class="st3" d="M130.2,70.8c-1.7,0-3-0.5-3.9-1.5c-1-1-1.4-2.4-1.4-4.2c0-1.8,0.4-3.3,1.3-4.3c0.9-1.1,2.1-1.6,3.6-1.6
				c1.4,0,2.5,0.5,3.3,1.4s1.2,2.1,1.2,3.7v1.1h-7.7c0,1.3,0.4,2.3,1,3c0.6,0.7,1.5,1,2.7,1c1.2,0,2.4-0.3,3.6-0.8v1.5
				c-0.6,0.3-1.2,0.4-1.7,0.6C131.6,70.7,131,70.8,130.2,70.8z M129.8,60.6c-0.9,0-1.6,0.3-2.2,0.9c-0.5,0.6-0.9,1.4-0.9,2.4h5.9
				c0-1.1-0.2-1.9-0.7-2.5C131.3,60.9,130.6,60.6,129.8,60.6z"/>
			<path class="st3" d="M141.4,70.8c-1.6,0-2.9-0.5-3.8-1.5c-0.9-1-1.3-2.4-1.3-4.3c0-1.9,0.5-3.3,1.4-4.4c0.9-1,2.2-1.5,3.9-1.5
				c0.5,0,1.1,0.1,1.6,0.2c0.5,0.1,1,0.3,1.3,0.4l-0.5,1.4c-0.4-0.2-0.8-0.3-1.2-0.4s-0.8-0.1-1.2-0.1c-2.3,0-3.4,1.5-3.4,4.4
				c0,1.4,0.3,2.4,0.8,3.2c0.6,0.7,1.4,1.1,2.5,1.1c0.9,0,1.9-0.2,2.9-0.6v1.5C143.5,70.6,142.6,70.8,141.4,70.8z"/>
			<path class="st3" d="M156.3,65c0,1.8-0.5,3.3-1.4,4.3c-0.9,1-2.2,1.5-3.8,1.5c-1,0-1.9-0.2-2.7-0.7s-1.4-1.1-1.8-2
				S146,66.1,146,65c0-1.8,0.5-3.3,1.4-4.3s2.2-1.5,3.8-1.5c1.6,0,2.8,0.5,3.7,1.6C155.9,61.8,156.3,63.2,156.3,65z M147.8,65
				c0,1.4,0.3,2.5,0.9,3.3s1.4,1.1,2.5,1.1s2-0.4,2.5-1.1c0.6-0.7,0.9-1.8,0.9-3.3c0-1.4-0.3-2.5-0.9-3.3c-0.6-0.7-1.4-1.1-2.6-1.1
				c-1.1,0-2,0.4-2.5,1.1S147.8,63.5,147.8,65z"/>
			<path class="st3" d="M161.5,70.6l-4.3-11.2h1.8l2.4,6.7c0.5,1.6,0.9,2.6,1,3h0.1c0.1-0.4,0.3-1.1,0.7-2.3
				c0.4-1.1,1.3-3.6,2.7-7.4h1.8l-4.3,11.2H161.5z"/>
			<path class="st3" d="M173.9,70.8c-1.7,0-3-0.5-3.9-1.5c-1-1-1.4-2.4-1.4-4.2c0-1.8,0.4-3.3,1.3-4.3c0.9-1.1,2.1-1.6,3.6-1.6
				c1.4,0,2.5,0.5,3.3,1.4s1.2,2.1,1.2,3.7v1.1h-7.7c0,1.3,0.4,2.3,1,3c0.6,0.7,1.5,1,2.7,1c1.2,0,2.4-0.3,3.6-0.8v1.5
				c-0.6,0.3-1.2,0.4-1.7,0.6C175.3,70.7,174.7,70.8,173.9,70.8z M173.5,60.6c-0.9,0-1.6,0.3-2.2,0.9c-0.5,0.6-0.9,1.4-0.9,2.4h5.9
				c0-1.1-0.2-1.9-0.7-2.5C175.1,60.9,174.4,60.6,173.5,60.6z"/>
			<path class="st3" d="M185.8,59.1c0.5,0,0.9,0,1.3,0.1l-0.2,1.6c-0.5-0.1-0.9-0.2-1.2-0.2c-0.9,0-1.7,0.4-2.3,1.1
				c-0.6,0.7-1,1.7-1,2.8v6h-1.7V59.3h1.4l0.2,2.1h0.1c0.4-0.7,0.9-1.3,1.5-1.7C184.4,59.3,185.1,59.1,185.8,59.1z"/>
			<path class="st3" d="M187.1,59.3h1.8l2.5,6.4c0.5,1.5,0.9,2.5,1,3.2h0.1c0.1-0.3,0.3-0.9,0.6-1.8c0.3-0.8,1.2-3.4,2.8-7.8h1.8
				l-4.8,12.8c-0.5,1.3-1,2.2-1.7,2.7c-0.6,0.5-1.4,0.8-2.4,0.8c-0.5,0-1-0.1-1.5-0.2v-1.4c0.4,0.1,0.8,0.1,1.3,0.1
				c1.2,0,2-0.7,2.5-2l0.6-1.6L187.1,59.3z"/>
			<path class="st3" d="M211,56.9c-1.6,0-2.9,0.5-3.9,1.6c-1,1.1-1.4,2.6-1.4,4.5c0,2,0.5,3.5,1.4,4.5c0.9,1.1,2.2,1.6,3.9,1.6
				c1,0,2.2-0.2,3.6-0.6v1.5c-1,0.4-2.3,0.6-3.8,0.6c-2.2,0-3.9-0.7-5.1-2c-1.2-1.3-1.8-3.2-1.8-5.7c0-1.5,0.3-2.9,0.9-4.1
				c0.6-1.2,1.4-2.1,2.5-2.7c1.1-0.6,2.4-0.9,3.8-0.9c1.6,0,2.9,0.3,4.1,0.9l-0.7,1.5C213.3,57.2,212.1,56.9,211,56.9z"/>
			<path class="st3" d="M222,70.8c-1.7,0-3-0.5-3.9-1.5c-1-1-1.4-2.4-1.4-4.2c0-1.8,0.4-3.3,1.3-4.3c0.9-1.1,2.1-1.6,3.6-1.6
				c1.4,0,2.5,0.5,3.3,1.4s1.2,2.1,1.2,3.7v1.1h-7.7c0,1.3,0.4,2.3,1,3c0.6,0.7,1.5,1,2.7,1c1.2,0,2.4-0.3,3.6-0.8v1.5
				c-0.6,0.3-1.2,0.4-1.7,0.6C223.4,70.7,222.8,70.8,222,70.8z M221.5,60.6c-0.9,0-1.6,0.3-2.2,0.9c-0.5,0.6-0.9,1.4-0.9,2.4h5.9
				c0-1.1-0.2-1.9-0.7-2.5C223.1,60.9,222.4,60.6,221.5,60.6z"/>
			<path class="st3" d="M236.4,70.6v-7.3c0-0.9-0.2-1.6-0.6-2.1s-1.1-0.7-2-0.7c-1.2,0-2,0.3-2.6,1s-0.8,1.7-0.8,3.1v5.9h-1.7V59.3
				h1.4l0.3,1.5h0.1c0.3-0.6,0.8-1,1.5-1.3c0.6-0.3,1.3-0.5,2.1-0.5c1.4,0,2.4,0.3,3.1,1s1,1.7,1,3.1v7.3H236.4z"/>
			<path class="st3" d="M244.9,69.4c0.3,0,0.6,0,0.9-0.1c0.3,0,0.5-0.1,0.7-0.1v1.3c-0.2,0.1-0.5,0.2-0.8,0.2
				c-0.4,0.1-0.7,0.1-1,0.1c-2.2,0-3.3-1.1-3.3-3.4v-6.7h-1.6v-0.8l1.6-0.7l0.7-2.4h1v2.6h3.3v1.3h-3.3v6.6c0,0.7,0.2,1.2,0.5,1.6
				S244.4,69.4,244.9,69.4z"/>
			<path class="st3" d="M253.1,70.8c-1.7,0-3-0.5-3.9-1.5c-1-1-1.4-2.4-1.4-4.2c0-1.8,0.4-3.3,1.3-4.3c0.9-1.1,2.1-1.6,3.6-1.6
				c1.4,0,2.5,0.5,3.3,1.4c0.8,0.9,1.2,2.1,1.2,3.7v1.1h-7.7c0,1.3,0.4,2.3,1,3c0.6,0.7,1.5,1,2.7,1c1.2,0,2.4-0.3,3.6-0.8v1.5
				c-0.6,0.3-1.2,0.4-1.7,0.6C254.6,70.7,253.9,70.8,253.1,70.8z M252.7,60.6c-0.9,0-1.6,0.3-2.2,0.9c-0.5,0.6-0.9,1.4-0.9,2.4h5.9
				c0-1.1-0.2-1.9-0.7-2.5C254.3,60.9,253.6,60.6,252.7,60.6z"/>
			<path class="st3" d="M265,59.1c0.5,0,0.9,0,1.3,0.1l-0.2,1.6c-0.5-0.1-0.9-0.2-1.2-0.2c-0.9,0-1.7,0.4-2.3,1.1
				c-0.6,0.7-1,1.7-1,2.8v6h-1.7V59.3h1.4l0.2,2.1h0.1c0.4-0.7,0.9-1.3,1.5-1.7C263.6,59.3,264.3,59.1,265,59.1z"/>
		</g>
	</g>
</g>
</svg>
