<svg version="1.1" id="Layer_1" xmlns="http://www.w3.org/2000/svg" x="0" y="0" viewBox="0 0 372.4 87.3" style="enable-background:new 0 0 372.4 87.3" xml:space="preserve"><style>.st0{fill:#500000}.st1{fill:#fff}.st2{fill:#b1b3b6}.st3{fill:#231f20}</style><path class="st0" d="M12.6 12.8h61.3v61.7H12.6z"/><path class="st1" d="M65.7 37.4h-4.8l-.1.2-3.3 6.9-3.3-6.9-.1-.2H49V40.5h1.1v9.9H48.9V53.6H54.7V50.4h-1.3v-7l3.7 7.6.4.8.4-.8 3.7-7.6v7H60.4V53.6H66.1V50.4H64.9v-9.9H66.1V37.4zM37 50.4h-1.3l-4.3-9.9h.8v-3.2h-6.9v3.2h.9l-4.3 9.9h-1.8v3.2h6.2v-3.2h-.9l.7-1.6h5.1l.7 1.6h-1v3.2h6.2v-3.2H37zm-6.9-4.9h-2.4l1.2-2.8 1.2 2.8z"/><path class="st1" d="M60.5 25H25.4V35.2h6.9v-3.9h7.4v24.4h-3.9v6.9H50.5v-6.9h-3.9V31.3H54v3.9h7V25z"/><path class="st2" d="m47.7 58.6 1.4-1.6v4.2l-1.4-1.4zM45.2 57.2l-1.4 1.4V28.4l1.4 1.5zM28.3 27.9l-1.5-1.5h32l-1.9 1.5zM59.6 33.8l-1.5-1.4v-3.7l1.5-1.5z"/><path class="st0" d="M76 73.3c0-.7.6-1.2 1.2-1.2.7 0 1.2.6 1.2 1.2s-.6 1.2-1.2 1.2S76 74 76 73.3zm2.2 0c0-.5-.5-.9-1-.9s-.9.5-.9 1 .4.9.9.9c.6 0 1-.4 1-1zm-1.4-.7h.5c.3 0 .5.1.5.4 0 .2-.1.4-.3.4h-.1l.4.6h-.3l-.4-.6H77v.6h-.3l.1-1.4zm.2.6h.2c.2 0 .3 0 .3-.2s-.1-.2-.3-.2H77v.4z"/><path class="st3" d="M95 30.8h-1.5v-8h-2.8v-1.3h7v1.3H95v8zM105.1 30.8h-5.3v-9.4h5.3v1.3h-3.8v2.5h3.5v1.3h-3.5v2.9h3.8v1.4zM114.7 30.8h-1.8l-2.3-3.8-2.4 3.8h-1.6l3.1-4.8-2.9-4.5h1.7l2.2 3.5 2.2-3.5h1.6l-2.9 4.5 3.1 4.8zM122.4 30.8l-.9-2.6h-3.6l-.9 2.6h-1.6l3.5-9.4h1.7l3.5 9.4h-1.7zm-1.3-3.9-.9-2.5c-.1-.2-.2-.4-.3-.8-.1-.4-.2-.6-.2-.8-.1.5-.3 1.1-.5 1.7l-.8 2.4h2.7zM131.3 28.3c0 .8-.3 1.5-.9 2-.6.5-1.4.7-2.5.7s-1.9-.2-2.6-.5V29c.4.2.9.4 1.4.5.5.1.9.2 1.3.2.6 0 1.1-.1 1.3-.3.3-.2.4-.5.4-.9 0-.3-.1-.6-.4-.9-.3-.2-.8-.5-1.6-.9-.9-.3-1.5-.7-1.8-1.2s-.5-1-.5-1.6c0-.8.3-1.4.8-1.8.6-.4 1.3-.7 2.2-.7.9 0 1.8.2 2.7.6l-.5 1.2c-.8-.3-1.6-.5-2.2-.5-.5 0-.9.1-1.1.3s-.4.5-.4.9c0 .2.1.5.2.6.1.2.3.3.5.5s.7.4 1.3.6c.7.3 1.2.6 1.5.8.3.2.6.5.7.8.1.3.2.6.2 1.1zM143.6 30.8l-.9-2.6h-3.6l-.9 2.6h-1.6l3.5-9.4h1.7l3.5 9.4h-1.7zm-1.3-3.9-.9-2.5c-.1-.2-.2-.4-.3-.8-.1-.4-.2-.6-.2-.8-.1.5-.3 1.1-.5 1.7l-.8 2.4h2.7zM146.5 28.3c0-.6.1-1 .4-1.5.3-.4.8-.8 1.5-1.2-.4-.5-.7-.9-.8-1.2-.1-.3-.2-.7-.2-1 0-.6.2-1.2.7-1.5.5-.4 1.1-.6 1.9-.6.8 0 1.3.2 1.8.5.4.4.6.9.6 1.5 0 .5-.1.9-.4 1.3s-.8.8-1.4 1.2l2.2 2.1c.3-.5.6-1.1.9-2h1.5c-.3 1.2-.8 2.2-1.4 3l1.9 1.9h-1.9l-1-.9c-.4.4-.9.6-1.4.8-.5.2-1 .3-1.6.3-1 0-1.8-.2-2.3-.7s-1-1.2-1-2zm3.3 1.3c.8 0 1.4-.2 2-.7l-2.4-2.4c-.5.3-.8.6-.9.8-.2.3-.3.5-.3.9s.1.8.4 1c.3.3.7.4 1.2.4zm-1-6.1c0 .3.1.5.2.8.1.2.3.5.6.8.5-.3.8-.5 1-.8.2-.2.3-.5.3-.8 0-.3-.1-.5-.3-.7-.2-.2-.4-.2-.7-.2-.3 0-.6.1-.8.3s-.3.3-.3.6zM161.5 30.8l-2.7-7.8h-.1c.1 1.2.1 2.2.1 3.3v4.5h-1.4v-9.4h2.2l2.6 7.4 2.7-7.4h2.2v9.4h-1.5V24.4c0-.7 0-1.2.1-1.4h-.1l-2.8 7.8h-1.3zM181.6 21.5v6.1c0 .7-.1 1.3-.4 1.8-.3.5-.7.9-1.3 1.2-.6.3-1.2.4-2 .4-1.2 0-2.1-.3-2.7-.9-.6-.6-1-1.5-1-2.5v-6h1.5v5.9c0 .8.2 1.3.5 1.7s.9.6 1.7.6c1.4 0 2.2-.8 2.2-2.3v-5.9h1.5zM192.5 30.8h-1.9l-4.6-7.5v.4c.1.8.1 1.5.1 2.2v4.9h-1.4v-9.4h1.9l4.6 7.4c0-.1 0-.5-.1-1.1V21.4h1.4v9.4zM195.6 30.8v-9.4h1.5v9.4h-1.5zM205.6 21.5h1.6l-3.3 9.4h-1.6l-3.3-9.4h1.6l2 5.8c.1.3.2.6.3 1.1s.2.8.2 1c.1-.3.1-.7.3-1.1.1-.4.2-.7.3-.9l1.9-5.9zM214.3 30.8H209v-9.4h5.3v1.3h-3.8v2.5h3.5v1.3h-3.5v2.9h3.8v1.4zM218.6 27.1v3.7H217v-9.4h2.6c1.2 0 2.1.2 2.7.7.6.5.9 1.1.9 2 0 1.2-.6 2-1.8 2.5l2.6 4.1h-1.7l-2.2-3.7h-1.5zm0-1.3h1.1c.7 0 1.2-.1 1.5-.4.3-.3.5-.7.5-1.2s-.2-.9-.5-1.1c-.3-.2-.9-.3-1.6-.3h-1v3zM231.4 28.3c0 .8-.3 1.5-.9 2-.6.5-1.4.7-2.5.7s-1.9-.2-2.6-.5V29c.4.2.9.4 1.4.5s.9.2 1.3.2c.6 0 1.1-.1 1.3-.3.3-.2.4-.5.4-.9 0-.3-.1-.6-.4-.9-.3-.2-.8-.5-1.6-.9-.9-.3-1.5-.7-1.8-1.2s-.5-1-.5-1.6c0-.8.3-1.4.8-1.8.6-.4 1.3-.7 2.2-.7.9 0 1.8.2 2.7.6l-.5 1.2c-.8-.3-1.6-.5-2.2-.5-.5 0-.9.1-1.1.3s-.4.5-.4.9c0 .2.1.5.2.6l.5.5c.2.2.7.4 1.3.6.7.3 1.2.6 1.5.8.3.2.6.5.7.8.2.3.2.6.2 1.1zM233.9 30.8v-9.4h1.5v9.4h-1.5zM241.8 30.8h-1.5v-8h-2.8v-1.3h7v1.3h-2.8v8zM249.3 25.7l2.2-4.3h1.7l-3.1 5.7v3.6h-1.5v-3.6l-3.1-5.8h1.7l2.1 4.4zM101.3 44.3c-2.1 0-3.7.7-4.9 2.1-1.2 1.4-1.8 3.2-1.8 5.6 0 2.5.6 4.3 1.7 5.7 1.1 1.3 2.8 2 4.9 2 1.3 0 2.8-.2 4.5-.7v1.9c-1.3.5-2.9.7-4.8.7-2.8 0-4.9-.8-6.4-2.5S92.3 55 92.3 52c0-1.9.4-3.6 1.1-5.1s1.8-2.6 3.1-3.4c1.4-.8 3-1.2 4.8-1.2 2 0 3.7.4 5.2 1.1l-.9 1.9c-1.4-.7-2.8-1-4.3-1zM121.3 54.3c0 2.3-.6 4.1-1.7 5.4-1.2 1.3-2.7 1.9-4.8 1.9-1.3 0-2.4-.3-3.3-.9-1-.6-1.7-1.4-2.3-2.5-.5-1.1-.8-2.4-.8-3.9 0-2.3.6-4.1 1.7-5.4 1.1-1.3 2.7-1.9 4.8-1.9 2 0 3.5.7 4.7 2 1.1 1.3 1.7 3.1 1.7 5.3zm-10.7 0c0 1.8.4 3.2 1.1 4.1s1.8 1.4 3.2 1.4c1.4 0 2.5-.5 3.2-1.4s1.1-2.3 1.1-4.1c0-1.8-.4-3.1-1.1-4.1-.7-.9-1.8-1.4-3.2-1.4-1.4 0-2.4.5-3.2 1.4-.8.9-1.1 2.3-1.1 4.1zM126.8 61.4h-2.1v-20h2.1v20zM133 61.4h-2.1v-20h2.1v20zM143.1 61.6c-2.1 0-3.7-.6-4.9-1.9-1.2-1.3-1.8-3-1.8-5.3s.6-4.1 1.7-5.4 2.6-2 4.5-2c1.8 0 3.2.6 4.2 1.7s1.5 2.7 1.5 4.6v1.3h-9.7c0 1.6.5 2.9 1.3 3.8.8.9 1.9 1.3 3.3 1.3 1.5 0 3-.3 4.5-.9v1.9c-.8.3-1.5.6-2.1.7s-1.6.2-2.5.2zm-.6-12.8c-1.1 0-2 .4-2.7 1.1-.7.7-1.1 1.8-1.2 3.1h7.3c0-1.3-.3-2.4-.9-3.1-.6-.7-1.4-1.1-2.5-1.1zM162.9 47.3v1.3l-2.6.3c.2.3.5.7.6 1.2.2.5.3 1 .3 1.6 0 1.4-.5 2.5-1.4 3.3-.9.8-2.2 1.2-3.9 1.2-.4 0-.8 0-1.2-.1-.9.5-1.4 1.1-1.4 1.8 0 .4.2.7.5.9.3.2.9.3 1.6.3h2.5c1.5 0 2.7.3 3.5 1 .8.6 1.2 1.6 1.2 2.8 0 1.6-.6 2.7-1.9 3.6s-3.1 1.2-5.5 1.2c-1.8 0-3.3-.3-4.2-1-1-.7-1.5-1.6-1.5-2.9 0-.9.3-1.6.8-2.2s1.3-1 2.3-1.3c-.4-.2-.7-.4-.9-.8s-.4-.7-.4-1.2.1-1 .4-1.3c.3-.4.7-.8 1.3-1.1-.7-.3-1.3-.8-1.8-1.5s-.7-1.5-.7-2.5c0-1.5.5-2.7 1.4-3.6.9-.8 2.2-1.2 3.9-1.2.7 0 1.4.1 2 .3h5.1zm-11.2 16.4c0 .8.3 1.3 1 1.7.6.4 1.6.6 2.8.6 1.8 0 3.1-.3 4-.8.9-.5 1.3-1.3 1.3-2.2 0-.8-.2-1.3-.7-1.6-.5-.3-1.4-.4-2.7-.4h-2.6c-1 0-1.7.2-2.3.7s-.8 1.1-.8 2zm1.2-11.9c0 1 .3 1.7.8 2.2.6.5 1.3.8 2.3.8 2.1 0 3.1-1 3.1-3 0-2.1-1.1-3.2-3.2-3.2-1 0-1.8.3-2.3.8s-.7 1.3-.7 2.4zM171.4 61.6c-2.1 0-3.7-.6-4.9-1.9-1.2-1.3-1.8-3-1.8-5.3s.6-4.1 1.7-5.4 2.6-2 4.5-2c1.8 0 3.2.6 4.2 1.7s1.5 2.7 1.5 4.6v1.3h-9.7c0 1.6.5 2.9 1.3 3.8.8.9 1.9 1.3 3.3 1.3 1.5 0 3-.3 4.5-.9v1.9c-.8.3-1.5.6-2.1.7s-1.6.2-2.5.2zm-.6-12.8c-1.1 0-2 .4-2.7 1.1-.7.7-1.1 1.8-1.2 3.1h7.3c0-1.3-.3-2.4-.9-3.1-.5-.7-1.4-1.1-2.5-1.1zM198.3 54.3c0 2.3-.6 4.1-1.7 5.4-1.2 1.3-2.7 1.9-4.8 1.9-1.3 0-2.4-.3-3.3-.9-1-.6-1.7-1.4-2.3-2.5-.5-1.1-.8-2.4-.8-3.9 0-2.3.6-4.1 1.7-5.4 1.1-1.3 2.7-1.9 4.8-1.9 2 0 3.5.7 4.7 2 1.1 1.3 1.7 3.1 1.7 5.3zm-10.7 0c0 1.8.4 3.2 1.1 4.1s1.8 1.4 3.2 1.4 2.5-.5 3.2-1.4c.7-.9 1.1-2.3 1.1-4.1 0-1.8-.4-3.1-1.1-4.1-.7-.9-1.8-1.4-3.2-1.4-1.4 0-2.4.5-3.2 1.4-.7.9-1.1 2.3-1.1 4.1zM208 49h-3.6v12.4h-2.1V49h-2.5v-1l2.5-.8v-.8c0-3.5 1.5-5.2 4.5-5.2.7 0 1.6.1 2.6.4l-.6 1.7c-.8-.3-1.5-.4-2.1-.4-.8 0-1.4.3-1.8.8-.4.5-.6 1.4-.6 2.6v.9h3.6V49zM228.7 61.4l-2.3-6h-7.5l-2.3 6h-2.2l7.4-18.8h1.8l7.4 18.8h-2.3zm-3-8-2.2-5.8c-.3-.7-.6-1.6-.9-2.7-.2.8-.5 1.7-.8 2.7l-2.2 5.8h6.1zM239.2 47c.6 0 1.2.1 1.7.2l-.3 2c-.6-.1-1.1-.2-1.5-.2-1.1 0-2.1.5-2.9 1.4s-1.2 2.1-1.2 3.4v7.5h-2.1v-14h1.8l.2 2.6h.1c.5-.9 1.1-1.6 1.9-2.1.6-.5 1.4-.8 2.3-.8zM248.7 61.6c-2 0-3.6-.6-4.7-1.9-1.1-1.3-1.7-3-1.7-5.3 0-2.4.6-4.2 1.7-5.4 1.1-1.3 2.7-1.9 4.8-1.9.7 0 1.4.1 2 .2.7.1 1.2.3 1.6.5l-.7 1.8c-.5-.2-1-.3-1.5-.5-.6-.1-1-.2-1.5-.2-2.9 0-4.3 1.8-4.3 5.5 0 1.7.3 3.1 1 4 .7.9 1.7 1.4 3.1 1.4 1.2 0 2.4-.3 3.6-.8v1.9c-.8.5-1.9.7-3.4.7zM264.8 61.4v-9.1c0-1.1-.3-2-.8-2.6s-1.3-.8-2.4-.8c-1.5 0-2.6.4-3.2 1.2-.7.8-1 2.1-1 3.9v7.3h-2.1V41.4h2.1v6c0 .7 0 1.3-.1 1.8h.1c.4-.7 1-1.2 1.8-1.6s1.7-.6 2.6-.6c1.7 0 3 .4 3.9 1.2.9.8 1.3 2.1 1.3 3.9v9.2h-2.2zM270.8 43.5c0-.5.1-.8.4-1.1s.5-.3.9-.3c.3 0 .6.1.9.3s.4.6.4 1.1-.1.8-.4 1.1-.5.4-.9.4-.7-.1-.9-.4-.4-.6-.4-1.1zm2.3 17.9H271v-14h2.1v14zM281.7 59.9c.4 0 .7 0 1.1-.1.4-.1.6-.1.8-.2v1.6c-.2.1-.6.2-1 .3-.4.1-.9.1-1.2.1-2.7 0-4.1-1.4-4.1-4.3V49h-2v-1l2-.9.9-3h1.2v3.3h4.1V49h-4.1v8.3c0 .8.2 1.5.6 1.9.5.4 1 .7 1.7.7zM292 61.6c-2.1 0-3.7-.6-4.9-1.9-1.2-1.3-1.8-3-1.8-5.3s.6-4.1 1.7-5.4 2.6-2 4.5-2c1.8 0 3.2.6 4.2 1.7s1.5 2.7 1.5 4.6v1.3h-9.7c0 1.6.5 2.9 1.3 3.8.8.9 1.9 1.3 3.3 1.3 1.5 0 3-.3 4.5-.9v1.9c-.8.3-1.5.6-2.1.7s-1.6.2-2.5.2zm-.6-12.8c-1.1 0-2 .4-2.7 1.1-.7.7-1.1 1.8-1.2 3.1h7.3c0-1.3-.3-2.4-.9-3.1-.5-.7-1.4-1.1-2.5-1.1zM306 61.6c-2 0-3.6-.6-4.7-1.9-1.1-1.3-1.7-3-1.7-5.3 0-2.4.6-4.2 1.7-5.4 1.1-1.3 2.7-1.9 4.8-1.9.7 0 1.4.1 2 .2.7.1 1.2.3 1.6.5l-.7 1.8c-.5-.2-1-.3-1.5-.5-.6-.1-1-.2-1.5-.2-2.9 0-4.3 1.8-4.3 5.5 0 1.7.3 3.1 1 4 .7.9 1.7 1.4 3.1 1.4 1.2 0 2.4-.3 3.6-.8v1.9c-.8.5-2 .7-3.4.7zM317 59.9c.4 0 .7 0 1.1-.1.4-.1.6-.1.8-.2v1.6c-.2.1-.6.2-1 .3-.4.1-.9.1-1.2.1-2.7 0-4.1-1.4-4.1-4.3V49h-2v-1l2-.9.9-3h1.2v3.3h4.1V49h-4.1v8.3c0 .8.2 1.5.6 1.9.5.4 1 .7 1.7.7zM323.4 47.3v9.1c0 1.1.3 2 .8 2.6s1.3.8 2.4.8c1.5 0 2.5-.4 3.2-1.2s1-2.1 1-3.9v-7.4h2.1v14h-1.8l-.3-1.9h-.1c-.4.7-1 1.2-1.8 1.6-.8.4-1.7.6-2.6.6-1.7 0-3-.4-3.8-1.2-.8-.8-1.3-2.1-1.3-3.9v-9.2h2.2zM343.5 47c.6 0 1.2.1 1.7.2l-.3 2c-.6-.1-1.1-.2-1.5-.2-1.1 0-2.1.5-2.9 1.4s-1.2 2.1-1.2 3.4v7.5h-2.1v-14h1.8l.2 2.6h.1c.5-.9 1.1-1.6 1.9-2.1.6-.5 1.4-.8 2.3-.8zM353.3 61.6c-2.1 0-3.7-.6-4.9-1.9-1.2-1.3-1.8-3-1.8-5.3s.6-4.1 1.7-5.4 2.6-2 4.5-2c1.8 0 3.2.6 4.2 1.7s1.5 2.7 1.5 4.6v1.3h-9.7c0 1.6.5 2.9 1.3 3.8.8.9 1.9 1.3 3.3 1.3 1.5 0 3-.3 4.5-.9v1.9c-.8.3-1.5.6-2.1.7s-1.5.2-2.5.2zm-.5-12.8c-1.1 0-2 .4-2.7 1.1-.7.7-1.1 1.8-1.2 3.1h7.3c0-1.3-.3-2.4-.9-3.1-.6-.7-1.4-1.1-2.5-1.1z"/></svg>