<?xml version="1.0" encoding="utf-8"?>
<!-- Generator: Adobe Illustrator 22.1.0, SVG Export Plug-In . SVG Version: 6.00 Build 0)  -->
<svg version="1.1" id="Layer_1" xmlns="http://www.w3.org/2000/svg" xmlns:xlink="http://www.w3.org/1999/xlink" x="0px" y="0px"
	 viewBox="0 0 346.4 87.3" style="enable-background:new 0 0 346.4 87.3;" xml:space="preserve">
<style type="text/css">
	.st0{fill:#500000;}
	.st1{fill:#FFFFFF;}
	.st2{fill:#B1B3B6;}
	.st3{fill:#231F20;}
</style>
<g>
	<g>
		<rect x="12.6" y="12.8" class="st0" width="61.3" height="61.7"/>
		<polygon class="st1" points="65.7,37.4 61.2,37.4 60.9,37.4 60.8,37.6 57.5,44.5 54.2,37.6 54.1,37.4 53.8,37.4 49.4,37.4 
			49,37.4 49,37.8 49,40.1 49,40.5 49.4,40.5 50.1,40.5 50.1,50.4 49.3,50.4 48.9,50.4 48.9,50.8 48.9,53.1 48.9,53.6 49.3,53.6 
			54.3,53.6 54.7,53.6 54.7,53.1 54.7,50.8 54.7,50.4 54.3,50.4 53.4,50.4 53.4,43.4 57.1,51 57.5,51.8 57.9,51 61.6,43.4 
			61.6,50.4 60.8,50.4 60.4,50.4 60.4,50.8 60.4,53.1 60.4,53.6 60.8,53.6 65.7,53.6 66.1,53.6 66.1,53.1 66.1,50.8 66.1,50.4 
			65.7,50.4 64.9,50.4 64.9,40.5 65.7,40.5 66.1,40.5 66.1,40.1 66.1,37.8 66.1,37.4 		"/>
		<path class="st1" d="M37,50.4h-1.3l-4.3-9.9h0.8v-3.2h-6.9v3.2h0.9l-4.3,9.9h-1.8v3.2h6.2v-3.2h-0.9l0.7-1.6h5.1l0.7,1.6h-1v3.2
			h6.2v-3.2L37,50.4z M30.1,45.5h-2.4l1.2-2.8L30.1,45.5z"/>
		<polygon class="st1" points="60.5,25 25.8,25 25.4,25 25.4,25.5 25.4,34.8 25.4,35.2 25.8,35.2 31.8,35.2 32.3,35.2 32.3,34.8 
			32.3,31.3 39.7,31.3 39.7,55.7 36.3,55.7 35.8,55.7 35.8,56.2 35.8,62.2 35.8,62.6 36.3,62.6 50.1,62.6 50.5,62.6 50.5,62.2 
			50.5,56.2 50.5,55.7 50.1,55.7 46.6,55.7 46.6,31.3 54,31.3 54,34.7 54,35.2 54.5,35.2 60.5,35.2 61,35.2 61,34.7 61,25.5 61,25 
					"/>
		<polygon class="st2" points="47.7,58.6 49.1,57 49.1,61.2 47.7,59.8 		"/>
		<polygon class="st2" points="45.2,57.2 43.8,58.6 43.8,28.4 45.2,29.9 		"/>
		<polygon class="st2" points="28.3,27.9 26.8,26.4 58.8,26.4 56.9,27.9 		"/>
		<polygon class="st2" points="59.6,33.8 58.1,32.4 58.1,28.7 59.6,27.2 		"/>
		<path class="st0" d="M76,73.3c0-0.7,0.6-1.2,1.2-1.2c0.7,0,1.2,0.6,1.2,1.2s-0.6,1.2-1.2,1.2C76.6,74.5,76,74,76,73.3L76,73.3z
			 M78.2,73.3c0-0.5-0.5-0.9-1-0.9c-0.5,0-0.9,0.5-0.9,1c0,0.5,0.4,0.9,0.9,0.9C77.8,74.3,78.2,73.9,78.2,73.3
			C78.2,73.3,78.2,73.3,78.2,73.3z M76.8,72.6h0.5c0.3,0,0.5,0.1,0.5,0.4c0,0.2-0.1,0.4-0.3,0.4c0,0,0,0-0.1,0l0.4,0.6h-0.3
			l-0.4-0.6H77V74h-0.3L76.8,72.6z M77,73.2h0.2c0.2,0,0.3,0,0.3-0.2s-0.1-0.2-0.3-0.2H77V73.2z"/>
	</g>
	<g>
		<path class="st3" d="M91.7,68.7V52.7h1.9v16.1H91.7z"/>
		<path class="st3" d="M105.6,68.7v-7.8c0-1-0.2-1.7-0.7-2.2s-1.1-0.7-2.1-0.7c-1.3,0-2.2,0.3-2.8,1s-0.9,1.8-0.9,3.4v6.3h-1.8v-12
			h1.5l0.3,1.6h0.1c0.4-0.6,0.9-1.1,1.6-1.4c0.7-0.3,1.4-0.5,2.3-0.5c1.5,0,2.5,0.3,3.3,1c0.7,0.7,1.1,1.8,1.1,3.4v7.9H105.6z"/>
		<path class="st3" d="M116.3,58.1h-3.1v10.6h-1.8V58.1h-2.2v-0.8l2.2-0.7V56c0-3,1.3-4.4,3.9-4.4c0.6,0,1.4,0.1,2.2,0.4l-0.5,1.5
			c-0.7-0.2-1.3-0.3-1.8-0.3c-0.7,0-1.2,0.2-1.5,0.7c-0.3,0.5-0.5,1.2-0.5,2.2v0.8h3.1V58.1z"/>
		<path class="st3" d="M128.5,62.7c0,2-0.5,3.5-1.5,4.6c-1,1.1-2.4,1.7-4.1,1.7c-1.1,0-2-0.3-2.9-0.8c-0.8-0.5-1.5-1.2-1.9-2.2
			c-0.5-0.9-0.7-2.1-0.7-3.3c0-2,0.5-3.5,1.5-4.6c1-1.1,2.3-1.6,4.1-1.6c1.7,0,3,0.6,4,1.7C128,59.3,128.5,60.8,128.5,62.7z
			 M119.3,62.7c0,1.5,0.3,2.7,0.9,3.5s1.5,1.2,2.7,1.2s2.1-0.4,2.7-1.2c0.6-0.8,0.9-2,0.9-3.5c0-1.5-0.3-2.7-0.9-3.5
			c-0.6-0.8-1.5-1.2-2.7-1.2c-1.2,0-2.1,0.4-2.7,1.2S119.3,61.2,119.3,62.7z"/>
		<path class="st3" d="M136.9,56.5c0.5,0,1,0,1.4,0.1l-0.3,1.7c-0.5-0.1-0.9-0.2-1.3-0.2c-1,0-1.8,0.4-2.5,1.2c-0.7,0.8-1,1.8-1,3
			v6.5h-1.8v-12h1.5l0.2,2.2h0.1c0.4-0.8,1-1.4,1.6-1.8C135.4,56.7,136.1,56.5,136.9,56.5z"/>
		<path class="st3" d="M155.6,68.7v-7.8c0-1-0.2-1.7-0.6-2.2c-0.4-0.5-1-0.7-1.9-0.7c-1.1,0-2,0.3-2.5,1s-0.8,1.7-0.8,3v6.7h-1.8
			v-7.8c0-1-0.2-1.7-0.6-2.2c-0.4-0.5-1.1-0.7-1.9-0.7c-1.1,0-2,0.3-2.5,1c-0.5,0.7-0.8,1.8-0.8,3.4v6.3h-1.8v-12h1.5l0.3,1.6h0.1
			c0.3-0.6,0.8-1,1.5-1.4c0.6-0.3,1.3-0.5,2.1-0.5c1.9,0,3.1,0.7,3.7,2h0.1c0.4-0.6,0.9-1.1,1.6-1.5s1.5-0.5,2.3-0.5
			c1.4,0,2.4,0.3,3.1,1c0.7,0.7,1,1.8,1,3.4v7.9H155.6z"/>
		<path class="st3" d="M168.2,68.7l-0.4-1.7h-0.1c-0.6,0.8-1.2,1.3-1.8,1.5c-0.6,0.3-1.3,0.4-2.2,0.4c-1.2,0-2.1-0.3-2.8-0.9
			s-1-1.5-1-2.6c0-2.4,1.9-3.7,5.8-3.8l2-0.1v-0.7c0-0.9-0.2-1.6-0.6-2.1c-0.4-0.5-1.1-0.7-2-0.7c-1,0-2.1,0.3-3.4,0.9l-0.6-1.4
			c0.6-0.3,1.2-0.6,2-0.8s1.4-0.3,2.1-0.3c1.4,0,2.5,0.3,3.2,1c0.7,0.6,1,1.7,1,3.1v8.2H168.2z M164.1,67.5c1.1,0,2-0.3,2.7-0.9
			s1-1.5,1-2.6v-1.1l-1.8,0.1c-1.5,0.1-2.5,0.3-3.1,0.7c-0.6,0.4-1,1-1,1.9c0,0.7,0.2,1.2,0.6,1.5S163.4,67.5,164.1,67.5z"/>
		<path class="st3" d="M176.9,67.5c0.3,0,0.6,0,0.9-0.1c0.3,0,0.5-0.1,0.7-0.1v1.4c-0.2,0.1-0.5,0.2-0.9,0.2c-0.4,0.1-0.7,0.1-1,0.1
			c-2.3,0-3.5-1.2-3.5-3.7v-7.2h-1.7v-0.9l1.7-0.8l0.8-2.6h1.1v2.8h3.5v1.4h-3.5v7.1c0,0.7,0.2,1.3,0.5,1.7
			C175.8,67.3,176.3,67.5,176.9,67.5z"/>
		<path class="st3" d="M180.4,53.4c0-0.4,0.1-0.7,0.3-0.9c0.2-0.2,0.5-0.3,0.8-0.3c0.3,0,0.5,0.1,0.8,0.3c0.2,0.2,0.3,0.5,0.3,0.9
			s-0.1,0.7-0.3,0.9c-0.2,0.2-0.5,0.3-0.8,0.3c-0.3,0-0.6-0.1-0.8-0.3C180.5,54.1,180.4,53.8,180.4,53.4z M182.4,68.7h-1.8v-12h1.8
			V68.7z"/>
		<path class="st3" d="M196.3,62.7c0,2-0.5,3.5-1.5,4.6c-1,1.1-2.4,1.7-4.1,1.7c-1.1,0-2-0.3-2.9-0.8c-0.8-0.5-1.5-1.2-1.9-2.2
			c-0.5-0.9-0.7-2.1-0.7-3.3c0-2,0.5-3.5,1.5-4.6c1-1.1,2.3-1.6,4.1-1.6c1.7,0,3,0.6,4,1.7C195.8,59.3,196.3,60.8,196.3,62.7z
			 M187.2,62.7c0,1.5,0.3,2.7,0.9,3.5s1.5,1.2,2.7,1.2c1.2,0,2.1-0.4,2.7-1.2c0.6-0.8,0.9-2,0.9-3.5c0-1.5-0.3-2.7-0.9-3.5
			c-0.6-0.8-1.5-1.2-2.7-1.2c-1.2,0-2.1,0.4-2.7,1.2C187.5,60,187.2,61.2,187.2,62.7z"/>
		<path class="st3" d="M207.4,68.7v-7.8c0-1-0.2-1.7-0.7-2.2c-0.4-0.5-1.1-0.7-2.1-0.7c-1.3,0-2.2,0.3-2.8,1
			c-0.6,0.7-0.9,1.8-0.9,3.4v6.3h-1.8v-12h1.5l0.3,1.6h0.1c0.4-0.6,0.9-1.1,1.6-1.4c0.7-0.3,1.4-0.5,2.3-0.5c1.4,0,2.5,0.3,3.3,1
			c0.7,0.7,1.1,1.8,1.1,3.4v7.9H207.4z"/>
		<path class="st3" d="M223.4,68.7h-1.9V54.3h-5.1v-1.7h12v1.7h-5.1V68.7z"/>
		<path class="st3" d="M235.4,69c-1.8,0-3.2-0.5-4.2-1.6c-1-1.1-1.5-2.6-1.5-4.5c0-1.9,0.5-3.5,1.4-4.6s2.2-1.7,3.9-1.7
			c1.5,0,2.7,0.5,3.6,1.5c0.9,1,1.3,2.3,1.3,3.9V63h-8.3c0,1.4,0.4,2.5,1.1,3.2c0.7,0.7,1.6,1.1,2.9,1.1c1.3,0,2.6-0.3,3.8-0.8v1.6
			c-0.6,0.3-1.3,0.5-1.8,0.6C236.9,68.9,236.2,69,235.4,69z M234.9,58c-1,0-1.7,0.3-2.3,0.9c-0.6,0.6-0.9,1.5-1,2.6h6.3
			c0-1.1-0.3-2-0.8-2.6C236.6,58.3,235.8,58,234.9,58z"/>
		<path class="st3" d="M247.4,69c-1.7,0-3.1-0.5-4-1.6c-1-1.1-1.4-2.6-1.4-4.6c0-2,0.5-3.6,1.5-4.7c1-1.1,2.4-1.6,4.1-1.6
			c0.6,0,1.2,0.1,1.7,0.2c0.6,0.1,1,0.3,1.4,0.4l-0.6,1.5c-0.4-0.2-0.8-0.3-1.3-0.4c-0.5-0.1-0.9-0.2-1.3-0.2
			c-2.4,0-3.7,1.6-3.7,4.7c0,1.5,0.3,2.6,0.9,3.4c0.6,0.8,1.5,1.2,2.7,1.2c1,0,2-0.2,3.1-0.6v1.6C249.6,68.7,248.6,69,247.4,69z"/>
		<path class="st3" d="M261.2,68.7v-7.8c0-1-0.2-1.7-0.7-2.2c-0.4-0.5-1.1-0.7-2.1-0.7c-1.3,0-2.2,0.3-2.8,1
			c-0.6,0.7-0.9,1.8-0.9,3.4v6.3h-1.8V51.6h1.8v5.2c0,0.6,0,1.1-0.1,1.5h0.1c0.4-0.6,0.9-1,1.5-1.4c0.7-0.3,1.4-0.5,2.3-0.5
			c1.5,0,2.6,0.3,3.3,1c0.7,0.7,1.1,1.8,1.1,3.3v7.9H261.2z"/>
		<path class="st3" d="M274.7,68.7v-7.8c0-1-0.2-1.7-0.7-2.2c-0.4-0.5-1.1-0.7-2.1-0.7c-1.3,0-2.2,0.3-2.8,1
			c-0.6,0.7-0.9,1.8-0.9,3.4v6.3h-1.8v-12h1.5l0.3,1.6h0.1c0.4-0.6,0.9-1.1,1.6-1.4c0.7-0.3,1.4-0.5,2.3-0.5c1.4,0,2.5,0.3,3.3,1
			c0.7,0.7,1.1,1.8,1.1,3.4v7.9H274.7z"/>
		<path class="st3" d="M290.3,62.7c0,2-0.5,3.5-1.5,4.6c-1,1.1-2.4,1.7-4.1,1.7c-1.1,0-2-0.3-2.9-0.8c-0.8-0.5-1.5-1.2-1.9-2.2
			c-0.5-0.9-0.7-2.1-0.7-3.3c0-2,0.5-3.5,1.5-4.6c1-1.1,2.3-1.6,4.1-1.6c1.7,0,3,0.6,4,1.7C289.8,59.3,290.3,60.8,290.3,62.7z
			 M281.1,62.7c0,1.5,0.3,2.7,0.9,3.5s1.5,1.2,2.7,1.2c1.2,0,2.1-0.4,2.7-1.2c0.6-0.8,0.9-2,0.9-3.5c0-1.5-0.3-2.7-0.9-3.5
			c-0.6-0.8-1.5-1.2-2.7-1.2c-1.2,0-2.1,0.4-2.7,1.2C281.4,60,281.1,61.2,281.1,62.7z"/>
		<path class="st3" d="M295,68.7h-1.8V51.6h1.8V68.7z"/>
		<path class="st3" d="M308.9,62.7c0,2-0.5,3.5-1.5,4.6c-1,1.1-2.4,1.7-4.1,1.7c-1.1,0-2-0.3-2.9-0.8c-0.8-0.5-1.5-1.2-1.9-2.2
			c-0.5-0.9-0.7-2.1-0.7-3.3c0-2,0.5-3.5,1.5-4.6c1-1.1,2.3-1.6,4.1-1.6c1.7,0,3,0.6,4,1.7C308.4,59.3,308.9,60.8,308.9,62.7z
			 M299.7,62.7c0,1.5,0.3,2.7,0.9,3.5s1.5,1.2,2.7,1.2c1.2,0,2.1-0.4,2.7-1.2c0.6-0.8,0.9-2,0.9-3.5c0-1.5-0.3-2.7-0.9-3.5
			c-0.6-0.8-1.5-1.2-2.7-1.2c-1.2,0-2.1,0.4-2.7,1.2C300,60,299.7,61.2,299.7,62.7z"/>
		<path class="st3" d="M321.6,56.7v1.2l-2.2,0.3c0.2,0.3,0.4,0.6,0.5,1c0.2,0.4,0.2,0.9,0.2,1.4c0,1.2-0.4,2.1-1.2,2.8
			s-1.9,1.1-3.3,1.1c-0.4,0-0.7,0-1-0.1c-0.8,0.4-1.2,0.9-1.2,1.5c0,0.3,0.1,0.6,0.4,0.7c0.3,0.2,0.7,0.2,1.4,0.2h2.1
			c1.3,0,2.3,0.3,3,0.8c0.7,0.5,1,1.3,1,2.4c0,1.3-0.5,2.3-1.6,3c-1.1,0.7-2.6,1-4.7,1c-1.6,0-2.8-0.3-3.6-0.9
			c-0.9-0.6-1.3-1.4-1.3-2.5c0-0.7,0.2-1.4,0.7-1.9c0.5-0.5,1.1-0.9,2-1.1c-0.3-0.1-0.6-0.4-0.8-0.6c-0.2-0.3-0.3-0.6-0.3-1
			c0-0.4,0.1-0.8,0.4-1.2c0.2-0.3,0.6-0.6,1.1-1c-0.6-0.3-1.1-0.7-1.5-1.3s-0.6-1.3-0.6-2.1c0-1.3,0.4-2.3,1.2-3
			c0.8-0.7,1.9-1.1,3.4-1.1c0.6,0,1.2,0.1,1.7,0.2H321.6z M312,70.8c0,0.7,0.3,1.1,0.8,1.5c0.5,0.3,1.3,0.5,2.4,0.5
			c1.5,0,2.7-0.2,3.4-0.7c0.7-0.5,1.1-1.1,1.1-1.9c0-0.7-0.2-1.1-0.6-1.4c-0.4-0.3-1.2-0.4-2.3-0.4h-2.2c-0.8,0-1.5,0.2-1.9,0.6
			C312.2,69.5,312,70,312,70.8z M313,60.6c0,0.8,0.2,1.5,0.7,1.9c0.5,0.4,1.1,0.6,2,0.6c1.8,0,2.7-0.9,2.7-2.6
			c0-1.8-0.9-2.7-2.7-2.7c-0.9,0-1.5,0.2-2,0.7S313,59.6,313,60.6z"/>
		<path class="st3" d="M321.8,56.7h2l2.6,6.9c0.6,1.6,0.9,2.7,1.1,3.4h0.1c0.1-0.4,0.3-1,0.6-1.9c0.3-0.9,1.3-3.7,3-8.3h2l-5.2,13.7
			c-0.5,1.4-1.1,2.3-1.8,2.9c-0.7,0.6-1.5,0.9-2.5,0.9c-0.6,0-1.1-0.1-1.6-0.2v-1.5c0.4,0.1,0.9,0.1,1.4,0.1c1.3,0,2.1-0.7,2.7-2.1
			l0.7-1.7L321.8,56.7z"/>
	</g>
	<g>
		<path class="st3" d="M104.5,27.3c0,2.7-0.7,4.7-2.2,6.1c-1.4,1.4-3.5,2.1-6.2,2.1h-4.4V19.4h4.9c2.5,0,4.4,0.7,5.8,2.1
			C103.8,22.9,104.5,24.8,104.5,27.3z M102.5,27.4c0-2.1-0.5-3.7-1.6-4.7c-1.1-1.1-2.6-1.6-4.7-1.6h-2.7v12.8h2.3
			c2.2,0,3.9-0.5,5-1.6C102,31.1,102.5,29.5,102.5,27.4z"/>
		<path class="st3" d="M107.3,20.2c0-0.4,0.1-0.7,0.3-0.9c0.2-0.2,0.5-0.3,0.8-0.3c0.3,0,0.5,0.1,0.8,0.3s0.3,0.5,0.3,0.9
			s-0.1,0.7-0.3,0.9c-0.2,0.2-0.5,0.3-0.8,0.3c-0.3,0-0.6-0.1-0.8-0.3C107.4,20.9,107.3,20.6,107.3,20.2z M109.3,35.5h-1.8v-12h1.8
			V35.5z"/>
		<path class="st3" d="M115.5,35.5l-4.6-12h2l2.6,7.1c0.6,1.7,0.9,2.8,1,3.3h0.1c0.1-0.4,0.3-1.2,0.8-2.4c0.4-1.2,1.4-3.9,2.9-8h2
			l-4.6,12H115.5z"/>
		<path class="st3" d="M123.6,20.2c0-0.4,0.1-0.7,0.3-0.9c0.2-0.2,0.5-0.3,0.8-0.3c0.3,0,0.5,0.1,0.8,0.3s0.3,0.5,0.3,0.9
			s-0.1,0.7-0.3,0.9c-0.2,0.2-0.5,0.3-0.8,0.3c-0.3,0-0.6-0.1-0.8-0.3C123.7,20.9,123.6,20.6,123.6,20.2z M125.6,35.5h-1.8v-12h1.8
			V35.5z"/>
		<path class="st3" d="M136.9,32.2c0,1.1-0.4,2-1.3,2.6c-0.8,0.6-2,0.9-3.5,0.9c-1.6,0-2.8-0.3-3.7-0.8v-1.7
			c0.6,0.3,1.2,0.5,1.9,0.7c0.7,0.2,1.3,0.3,1.9,0.3c1,0,1.7-0.2,2.2-0.5c0.5-0.3,0.8-0.8,0.8-1.4c0-0.5-0.2-0.9-0.6-1.2
			c-0.4-0.3-1.2-0.7-2.4-1.2c-1.1-0.4-1.9-0.8-2.4-1.1c-0.5-0.3-0.8-0.7-1.1-1.1c-0.2-0.4-0.3-0.9-0.3-1.4c0-1,0.4-1.8,1.2-2.3
			c0.8-0.6,1.9-0.9,3.3-0.9c1.3,0,2.6,0.3,3.8,0.8l-0.6,1.5c-1.2-0.5-2.3-0.7-3.3-0.7c-0.9,0-1.5,0.1-2,0.4s-0.7,0.6-0.7,1.1
			c0,0.3,0.1,0.6,0.2,0.8c0.2,0.2,0.4,0.4,0.8,0.6s1.1,0.5,2.1,0.9c1.4,0.5,2.4,1,2.9,1.6S136.9,31.4,136.9,32.2z"/>
		<path class="st3" d="M139.4,20.2c0-0.4,0.1-0.7,0.3-0.9c0.2-0.2,0.5-0.3,0.8-0.3c0.3,0,0.5,0.1,0.8,0.3c0.2,0.2,0.3,0.5,0.3,0.9
			s-0.1,0.7-0.3,0.9c-0.2,0.2-0.5,0.3-0.8,0.3c-0.3,0-0.6-0.1-0.8-0.3C139.5,20.9,139.4,20.6,139.4,20.2z M141.4,35.5h-1.8v-12h1.8
			V35.5z"/>
		<path class="st3" d="M155.3,29.5c0,2-0.5,3.5-1.5,4.6c-1,1.1-2.4,1.7-4.1,1.7c-1.1,0-2-0.3-2.9-0.8c-0.8-0.5-1.5-1.2-1.9-2.2
			c-0.5-0.9-0.7-2.1-0.7-3.3c0-2,0.5-3.5,1.5-4.6c1-1.1,2.3-1.6,4.1-1.6c1.7,0,3,0.6,4,1.7C154.8,26,155.3,27.6,155.3,29.5z
			 M146.1,29.5c0,1.5,0.3,2.7,0.9,3.5s1.5,1.2,2.7,1.2c1.2,0,2.1-0.4,2.7-1.2c0.6-0.8,0.9-2,0.9-3.5c0-1.5-0.3-2.7-0.9-3.5
			c-0.6-0.8-1.5-1.2-2.7-1.2c-1.2,0-2.1,0.4-2.7,1.2C146.4,26.7,146.1,27.9,146.1,29.5z"/>
		<path class="st3" d="M166.4,35.5v-7.8c0-1-0.2-1.7-0.7-2.2c-0.4-0.5-1.1-0.7-2.1-0.7c-1.3,0-2.2,0.3-2.8,1
			c-0.6,0.7-0.9,1.8-0.9,3.4v6.3h-1.8v-12h1.5l0.3,1.6h0.1c0.4-0.6,0.9-1.1,1.6-1.4c0.7-0.3,1.4-0.5,2.3-0.5c1.4,0,2.5,0.3,3.3,1
			c0.7,0.7,1.1,1.8,1.1,3.4v7.9H166.4z"/>
		<path class="st3" d="M187.5,29.5c0,2-0.5,3.5-1.5,4.6c-1,1.1-2.4,1.7-4.1,1.7c-1.1,0-2-0.3-2.9-0.8c-0.8-0.5-1.5-1.2-1.9-2.2
			c-0.5-0.9-0.7-2.1-0.7-3.3c0-2,0.5-3.5,1.5-4.6c1-1.1,2.3-1.6,4.1-1.6c1.7,0,3,0.6,4,1.7C187,26,187.5,27.6,187.5,29.5z
			 M178.3,29.5c0,1.5,0.3,2.7,0.9,3.5s1.5,1.2,2.7,1.2c1.2,0,2.1-0.4,2.7-1.2c0.6-0.8,0.9-2,0.9-3.5c0-1.5-0.3-2.7-0.9-3.5
			c-0.6-0.8-1.5-1.2-2.7-1.2c-1.2,0-2.1,0.4-2.7,1.2C178.6,26.7,178.3,27.9,178.3,29.5z"/>
		<path class="st3" d="M195.8,24.9h-3.1v10.6h-1.8V24.9h-2.2v-0.8l2.2-0.7v-0.7c0-3,1.3-4.4,3.9-4.4c0.6,0,1.4,0.1,2.2,0.4l-0.5,1.5
			c-0.7-0.2-1.3-0.3-1.8-0.3c-0.7,0-1.2,0.2-1.5,0.7c-0.3,0.5-0.5,1.2-0.5,2.2v0.8h3.1V24.9z"/>
	</g>
</g>
</svg>
