<?xml version="1.0" encoding="utf-8"?>
<!-- Generator: Adobe Illustrator 23.1.0, SVG Export Plug-In . SVG Version: 6.00 Build 0)  -->
<svg version="1.1" id="Layer_1" xmlns="http://www.w3.org/2000/svg" xmlns:xlink="http://www.w3.org/1999/xlink" x="0px" y="0px"
	 viewBox="0 0 346.37 87.33" style="enable-background:new 0 0 346.37 87.33;" xml:space="preserve">
<style type="text/css">
	.st0{fill:#500000;}
	.st1{fill:#FFFFFF;}
	.st2{fill:#B1B3B6;}
	.st3{fill:#231F20;}
</style>
<g>
	<g>
		<rect x="12.59" y="12.79" class="st0" width="61.26" height="61.75"/>
		<polygon class="st1" points="65.71,37.37 61.16,37.37 60.9,37.37 60.78,37.6 57.48,44.47 54.17,37.6 54.06,37.37 53.79,37.37 
			49.4,37.37 48.98,37.37 48.98,37.78 48.98,40.13 48.98,40.54 49.4,40.54 50.15,40.54 50.15,50.38 49.34,50.38 48.92,50.38 
			48.92,50.8 48.92,53.14 48.92,53.56 49.34,53.56 54.27,53.56 54.69,53.56 54.69,53.14 54.69,50.8 54.69,50.38 54.27,50.38 
			53.42,50.38 53.42,43.4 57.11,51.01 57.48,51.78 57.86,51.01 61.59,43.38 61.59,50.38 60.78,50.38 60.36,50.38 60.36,50.8 
			60.36,53.14 60.36,53.56 60.78,53.56 65.71,53.56 66.13,53.56 66.13,53.14 66.13,50.8 66.13,50.38 65.71,50.38 64.86,50.38 
			64.86,40.54 65.71,40.54 66.13,40.54 66.13,40.13 66.13,37.78 66.13,37.37 		"/>
		<path class="st1" d="M37.03,50.37h-1.31l-4.27-9.87h0.82v-3.19h-6.86v3.18h0.95l-4.27,9.87H20.3v3.18h6.23v-3.18h-0.91l0.71-1.64
			h5.14l0.71,1.64h-0.96v3.18h6.23v-3.18L37.03,50.37z M30.1,45.55h-2.38l1.19-2.76L30.1,45.55z"/>
		<polygon class="st1" points="60.49,25.02 25.84,25.02 25.36,25.02 25.36,25.5 25.36,34.75 25.36,35.23 25.84,35.23 31.82,35.23 
			32.3,35.23 32.3,34.75 32.3,31.31 39.69,31.31 39.69,55.71 36.25,55.71 35.77,55.71 35.77,56.19 35.77,62.17 35.77,62.65 
			36.25,62.65 50.07,62.65 50.55,62.65 50.55,62.17 50.55,56.19 50.55,55.71 50.07,55.71 46.63,55.71 46.63,31.31 53.98,31.31 
			53.98,34.71 53.98,35.19 54.46,35.19 60.49,35.19 60.96,35.19 60.96,34.71 60.96,25.5 60.96,25.02 		"/>
		<polygon class="st2" points="47.66,58.55 49.12,57.05 49.12,61.18 47.66,59.78 		"/>
		<polygon class="st2" points="45.22,57.16 43.75,58.6 43.75,28.44 45.22,29.9 		"/>
		<polygon class="st2" points="28.29,27.91 26.79,26.44 58.81,26.44 56.92,27.91 		"/>
		<polygon class="st2" points="59.58,33.85 58.12,32.45 58.12,28.72 59.58,27.22 		"/>
		<path class="st0" d="M76.02,73.31c0-0.68,0.55-1.23,1.23-1.23c0.68,0,1.23,0.55,1.23,1.23s-0.55,1.23-1.23,1.23
			C76.57,74.54,76.02,73.99,76.02,73.31L76.02,73.31z M78.18,73.31c-0.03-0.51-0.48-0.9-0.99-0.87c-0.51,0.03-0.9,0.48-0.87,0.99
			c0.03,0.49,0.44,0.87,0.93,0.87c0.52-0.01,0.94-0.43,0.93-0.96C78.18,73.34,78.18,73.33,78.18,73.31z M76.78,72.61h0.52
			c0.34,0,0.51,0.12,0.51,0.41c0.02,0.19-0.12,0.35-0.3,0.37c-0.02,0-0.04,0-0.06,0L77.82,74h-0.27l-0.36-0.61h-0.16v0.6h-0.26
			L76.78,72.61z M77.04,73.21h0.23c0.15,0,0.29-0.02,0.29-0.21s-0.15-0.19-0.28-0.19h-0.23V73.21z"/>
	</g>
	<g>
		<path class="st3" d="M104.52,60.55c0,2.65-0.72,4.68-2.16,6.08c-1.44,1.4-3.51,2.1-6.21,2.1H91.7V52.68h4.92
			c2.5,0,4.44,0.69,5.82,2.08C103.83,56.14,104.52,58.07,104.52,60.55z M102.54,60.62c0-2.09-0.53-3.67-1.58-4.73
			c-1.05-1.06-2.61-1.59-4.69-1.59h-2.71v12.83h2.27c2.23,0,3.9-0.55,5.02-1.64C101.98,64.38,102.54,62.76,102.54,60.62z"/>
		<path class="st3" d="M114.9,68.74l-0.36-1.71h-0.09c-0.6,0.75-1.2,1.27-1.8,1.53c-0.6,0.27-1.34,0.4-2.24,0.4
			c-1.19,0-2.13-0.31-2.81-0.92c-0.68-0.62-1.02-1.49-1.02-2.63c0-2.43,1.94-3.71,5.83-3.82l2.04-0.07v-0.75
			c0-0.95-0.2-1.64-0.61-2.09c-0.41-0.45-1.06-0.68-1.95-0.68c-1,0-2.14,0.31-3.41,0.92l-0.56-1.4c0.59-0.32,1.24-0.57,1.95-0.76
			c0.71-0.18,1.42-0.27,2.13-0.27c1.44,0,2.5,0.32,3.19,0.96c0.69,0.64,1.04,1.66,1.04,3.07v8.22H114.9z M110.78,67.45
			c1.13,0,2.03-0.31,2.67-0.93c0.65-0.62,0.97-1.49,0.97-2.61v-1.09l-1.82,0.08c-1.45,0.05-2.5,0.28-3.14,0.68
			c-0.64,0.4-0.96,1.02-0.96,1.86c0,0.66,0.2,1.16,0.6,1.5C109.5,67.28,110.06,67.45,110.78,67.45z"/>
		<path class="st3" d="M123.56,67.45c0.32,0,0.63-0.02,0.93-0.07c0.3-0.05,0.54-0.1,0.71-0.15v1.4c-0.2,0.1-0.49,0.17-0.87,0.24
			c-0.38,0.06-0.73,0.09-1.04,0.09c-2.33,0-3.49-1.23-3.49-3.68v-7.16h-1.72v-0.88l1.72-0.76l0.77-2.57h1.05v2.79h3.49v1.42h-3.49
			v7.09c0,0.73,0.17,1.28,0.52,1.67S122.96,67.45,123.56,67.45z"/>
		<path class="st3" d="M134.68,68.74l-0.36-1.71h-0.09c-0.6,0.75-1.2,1.27-1.8,1.53c-0.6,0.27-1.34,0.4-2.24,0.4
			c-1.19,0-2.13-0.31-2.81-0.92c-0.68-0.62-1.02-1.49-1.02-2.63c0-2.43,1.94-3.71,5.83-3.82l2.04-0.07v-0.75
			c0-0.95-0.2-1.64-0.61-2.09c-0.41-0.45-1.06-0.68-1.95-0.68c-1,0-2.14,0.31-3.41,0.92l-0.56-1.4c0.59-0.32,1.24-0.57,1.95-0.76
			c0.71-0.18,1.42-0.27,2.13-0.27c1.44,0,2.5,0.32,3.19,0.96c0.69,0.64,1.04,1.66,1.04,3.07v8.22H134.68z M130.56,67.45
			c1.13,0,2.03-0.31,2.67-0.93s0.97-1.49,0.97-2.61v-1.09l-1.82,0.08c-1.45,0.05-2.5,0.28-3.14,0.68c-0.64,0.4-0.96,1.02-0.96,1.86
			c0,0.66,0.2,1.16,0.6,1.5C129.28,67.28,129.84,67.45,130.56,67.45z"/>
		<path class="st3" d="M152.11,54.11c-1.77,0-3.16,0.59-4.18,1.76c-1.02,1.18-1.53,2.79-1.53,4.83c0,2.1,0.49,3.73,1.48,4.87
			c0.99,1.15,2.39,1.72,4.21,1.72c1.12,0,2.4-0.2,3.83-0.6v1.64c-1.11,0.42-2.49,0.63-4.12,0.63c-2.37,0-4.19-0.72-5.48-2.15
			c-1.29-1.44-1.93-3.48-1.93-6.12c0-1.66,0.31-3.11,0.93-4.35s1.51-2.2,2.68-2.88c1.17-0.67,2.54-1.01,4.13-1.01
			c1.68,0,3.16,0.31,4.42,0.92l-0.79,1.6C154.54,54.4,153.32,54.11,152.11,54.11z"/>
		<path class="st3" d="M163.9,68.96c-1.78,0-3.18-0.54-4.21-1.63c-1.03-1.08-1.54-2.59-1.54-4.52c0-1.94,0.48-3.48,1.43-4.63
			s2.24-1.71,3.85-1.71c1.51,0,2.7,0.5,3.58,1.49c0.88,0.99,1.32,2.3,1.32,3.93v1.15h-8.29c0.04,1.41,0.39,2.49,1.07,3.22
			c0.68,0.73,1.63,1.1,2.86,1.1c1.3,0,2.58-0.27,3.85-0.81v1.63c-0.64,0.28-1.25,0.48-1.83,0.6
			C165.41,68.9,164.71,68.96,163.9,68.96z M163.4,58c-0.97,0-1.74,0.31-2.31,0.94c-0.57,0.63-0.91,1.5-1.02,2.62h6.29
			c0-1.15-0.26-2.03-0.77-2.64C165.09,58.31,164.36,58,163.4,58z"/>
		<path class="st3" d="M179.34,68.74v-7.79c0-0.98-0.22-1.71-0.67-2.2c-0.45-0.48-1.15-0.73-2.1-0.73c-1.26,0-2.18,0.34-2.77,1.02
			c-0.59,0.68-0.88,1.81-0.88,3.37v6.32h-1.82V56.7h1.48l0.3,1.65h0.09c0.37-0.59,0.9-1.05,1.57-1.38c0.67-0.33,1.42-0.49,2.25-0.49
			c1.45,0,2.54,0.35,3.27,1.05c0.73,0.7,1.1,1.82,1.1,3.36v7.86H179.34z"/>
		<path class="st3" d="M188.46,67.45c0.32,0,0.63-0.02,0.93-0.07c0.3-0.05,0.54-0.1,0.71-0.15v1.4c-0.2,0.1-0.49,0.17-0.87,0.24
			c-0.38,0.06-0.73,0.09-1.04,0.09c-2.33,0-3.49-1.23-3.49-3.68v-7.16h-1.72v-0.88l1.72-0.76l0.77-2.57h1.05v2.79h3.49v1.42h-3.49
			v7.09c0,0.73,0.17,1.28,0.52,1.67C187.39,67.26,187.86,67.45,188.46,67.45z"/>
		<path class="st3" d="M197.26,68.96c-1.78,0-3.18-0.54-4.21-1.63c-1.03-1.08-1.54-2.59-1.54-4.52c0-1.94,0.48-3.48,1.43-4.63
			s2.24-1.71,3.85-1.71c1.51,0,2.7,0.5,3.58,1.49c0.88,0.99,1.32,2.3,1.32,3.93v1.15h-8.29c0.04,1.41,0.39,2.49,1.07,3.22
			c0.68,0.73,1.63,1.1,2.86,1.1c1.3,0,2.58-0.27,3.85-0.81v1.63c-0.64,0.28-1.25,0.48-1.83,0.6
			C198.77,68.9,198.08,68.96,197.26,68.96z M196.77,58c-0.97,0-1.74,0.31-2.31,0.94c-0.57,0.63-0.91,1.5-1.02,2.62h6.29
			c0-1.15-0.26-2.03-0.77-2.64C198.45,58.31,197.72,58,196.77,58z"/>
		<path class="st3" d="M209.96,56.48c0.53,0,1.01,0.04,1.44,0.13l-0.25,1.69c-0.5-0.11-0.94-0.16-1.32-0.16
			c-0.97,0-1.81,0.4-2.5,1.19c-0.69,0.79-1.04,1.78-1.04,2.96v6.46h-1.82V56.7h1.5l0.21,2.23h0.09c0.45-0.78,0.99-1.39,1.62-1.81
			S209.2,56.48,209.96,56.48z"/>
	</g>
	<g>
		<path class="st3" d="M96.64,35.5h-1.87v-14.4h-5.09v-1.66h12.04v1.66h-5.09V35.5z"/>
		<path class="st3" d="M108.62,35.72c-1.78,0-3.18-0.54-4.21-1.63c-1.03-1.08-1.54-2.59-1.54-4.52c0-1.94,0.48-3.48,1.43-4.63
			c0.96-1.14,2.24-1.71,3.85-1.71c1.51,0,2.7,0.5,3.58,1.49c0.88,0.99,1.32,2.3,1.32,3.93v1.15h-8.29c0.04,1.41,0.39,2.49,1.07,3.22
			c0.68,0.73,1.63,1.1,2.86,1.1c1.3,0,2.58-0.27,3.85-0.81v1.63c-0.65,0.28-1.25,0.48-1.83,0.6
			C110.13,35.66,109.44,35.72,108.62,35.72z M108.13,24.76c-0.97,0-1.74,0.31-2.31,0.94c-0.58,0.63-0.91,1.5-1.02,2.62h6.29
			c0-1.15-0.26-2.03-0.77-2.64C109.81,25.07,109.08,24.76,108.13,24.76z"/>
		<path class="st3" d="M118.72,29.33l-4.19-5.88h2.08l3.17,4.61l3.16-4.61h2.05l-4.19,5.88l4.41,6.16h-2.07l-3.37-4.88l-3.41,4.88
			h-2.07L118.72,29.33z"/>
		<path class="st3" d="M134.68,35.5l-0.36-1.71h-0.09c-0.6,0.75-1.2,1.27-1.8,1.53c-0.6,0.27-1.34,0.4-2.24,0.4
			c-1.19,0-2.13-0.31-2.81-0.92c-0.68-0.62-1.02-1.49-1.02-2.63c0-2.43,1.94-3.71,5.83-3.82l2.04-0.07v-0.75
			c0-0.95-0.2-1.64-0.61-2.09c-0.41-0.45-1.06-0.68-1.95-0.68c-1,0-2.14,0.31-3.41,0.92l-0.56-1.4c0.59-0.32,1.24-0.57,1.95-0.76
			c0.71-0.18,1.42-0.27,2.13-0.27c1.44,0,2.5,0.32,3.19,0.96c0.69,0.64,1.04,1.66,1.04,3.07v8.22H134.68z M130.56,34.21
			c1.13,0,2.03-0.31,2.67-0.93s0.97-1.49,0.97-2.61v-1.09l-1.82,0.08c-1.45,0.05-2.5,0.28-3.14,0.68c-0.64,0.4-0.96,1.02-0.96,1.86
			c0,0.66,0.2,1.16,0.6,1.5C129.28,34.04,129.84,34.21,130.56,34.21z"/>
		<path class="st3" d="M147.22,32.21c0,1.12-0.42,1.99-1.25,2.59c-0.83,0.61-2.01,0.91-3.52,0.91c-1.6,0-2.84-0.25-3.74-0.76v-1.69
			c0.58,0.29,1.2,0.52,1.86,0.69s1.3,0.25,1.92,0.25c0.95,0,1.68-0.15,2.2-0.46c0.51-0.3,0.77-0.77,0.77-1.39
			c0-0.47-0.2-0.87-0.61-1.2c-0.41-0.33-1.2-0.73-2.38-1.18c-1.12-0.42-1.92-0.78-2.39-1.09c-0.47-0.31-0.82-0.66-1.05-1.06
			s-0.35-0.87-0.35-1.42c0-0.98,0.4-1.76,1.2-2.32c0.8-0.57,1.89-0.85,3.28-0.85c1.3,0,2.56,0.26,3.8,0.79l-0.65,1.48
			c-1.21-0.5-2.3-0.75-3.28-0.75c-0.87,0-1.52,0.14-1.96,0.41s-0.66,0.64-0.66,1.12c0,0.32,0.08,0.6,0.25,0.82
			c0.17,0.23,0.43,0.44,0.8,0.65s1.07,0.5,2.11,0.89c1.43,0.52,2.39,1.04,2.89,1.57S147.22,31.42,147.22,32.21z"/>
		<path class="st3" d="M162.5,20.88c-1.77,0-3.16,0.59-4.18,1.76c-1.02,1.18-1.53,2.79-1.53,4.83c0,2.1,0.49,3.73,1.48,4.87
			c0.99,1.15,2.39,1.72,4.21,1.72c1.12,0,2.4-0.2,3.83-0.6v1.64c-1.11,0.42-2.49,0.63-4.12,0.63c-2.37,0-4.19-0.72-5.48-2.15
			c-1.29-1.44-1.93-3.48-1.93-6.12c0-1.66,0.31-3.11,0.93-4.35s1.51-2.2,2.68-2.88c1.17-0.67,2.54-1.01,4.13-1.01
			c1.68,0,3.16,0.31,4.42,0.92l-0.79,1.6C164.93,21.16,163.72,20.88,162.5,20.88z"/>
		<path class="st3" d="M174.29,35.72c-1.78,0-3.18-0.54-4.21-1.63c-1.03-1.08-1.54-2.59-1.54-4.52c0-1.94,0.48-3.48,1.43-4.63
			s2.24-1.71,3.85-1.71c1.51,0,2.7,0.5,3.58,1.49c0.88,0.99,1.32,2.3,1.32,3.93v1.15h-8.29c0.04,1.41,0.39,2.49,1.07,3.22
			c0.68,0.73,1.63,1.1,2.86,1.1c1.3,0,2.58-0.27,3.85-0.81v1.63c-0.64,0.28-1.25,0.48-1.83,0.6
			C175.8,35.66,175.11,35.72,174.29,35.72z M173.8,24.76c-0.97,0-1.74,0.31-2.31,0.94c-0.57,0.63-0.91,1.5-1.02,2.62h6.29
			c0-1.15-0.26-2.03-0.77-2.64C175.48,25.07,174.75,24.76,173.8,24.76z"/>
		<path class="st3" d="M189.73,35.5v-7.79c0-0.98-0.22-1.71-0.67-2.2c-0.45-0.48-1.15-0.73-2.1-0.73c-1.26,0-2.18,0.34-2.77,1.02
			c-0.59,0.68-0.88,1.81-0.88,3.37v6.32h-1.82V23.46h1.48l0.3,1.65h0.09c0.37-0.59,0.9-1.05,1.57-1.38
			c0.67-0.33,1.42-0.49,2.25-0.49c1.45,0,2.54,0.35,3.27,1.05c0.73,0.7,1.1,1.82,1.1,3.36v7.86H189.73z"/>
		<path class="st3" d="M202.73,32.21c0,1.12-0.42,1.99-1.25,2.59c-0.83,0.61-2.01,0.91-3.52,0.91c-1.6,0-2.84-0.25-3.74-0.76v-1.69
			c0.58,0.29,1.2,0.52,1.86,0.69s1.3,0.25,1.92,0.25c0.95,0,1.68-0.15,2.2-0.46c0.51-0.3,0.77-0.77,0.77-1.39
			c0-0.47-0.2-0.87-0.61-1.2c-0.41-0.33-1.2-0.73-2.38-1.18c-1.12-0.42-1.92-0.78-2.39-1.09c-0.47-0.31-0.82-0.66-1.05-1.06
			s-0.35-0.87-0.35-1.42c0-0.98,0.4-1.76,1.2-2.32c0.8-0.57,1.89-0.85,3.28-0.85c1.3,0,2.56,0.26,3.8,0.79l-0.65,1.48
			c-1.21-0.5-2.3-0.75-3.28-0.75c-0.87,0-1.52,0.14-1.96,0.41s-0.66,0.64-0.66,1.12c0,0.32,0.08,0.6,0.25,0.82
			c0.17,0.23,0.43,0.44,0.8,0.65s1.07,0.5,2.11,0.89c1.43,0.52,2.39,1.04,2.89,1.57S202.73,31.42,202.73,32.21z"/>
		<path class="st3" d="M207.08,23.46v7.81c0,0.98,0.22,1.71,0.67,2.2c0.45,0.48,1.15,0.72,2.1,0.72c1.26,0,2.18-0.34,2.76-1.03
			c0.58-0.69,0.87-1.81,0.87-3.37v-6.33h1.82V35.5h-1.5l-0.26-1.62h-0.1c-0.37,0.59-0.89,1.05-1.55,1.36
			c-0.66,0.31-1.42,0.47-2.27,0.47c-1.46,0-2.56-0.35-3.29-1.04c-0.73-0.7-1.09-1.81-1.09-3.34v-7.88H207.08z"/>
		<path class="st3" d="M226.6,32.21c0,1.12-0.42,1.99-1.25,2.59c-0.83,0.61-2.01,0.91-3.52,0.91c-1.6,0-2.84-0.25-3.73-0.76v-1.69
			c0.58,0.29,1.2,0.52,1.86,0.69s1.3,0.25,1.92,0.25c0.95,0,1.68-0.15,2.2-0.46c0.51-0.3,0.77-0.77,0.77-1.39
			c0-0.47-0.2-0.87-0.61-1.2c-0.41-0.33-1.2-0.73-2.38-1.18c-1.12-0.42-1.92-0.78-2.39-1.09c-0.47-0.31-0.82-0.66-1.05-1.06
			s-0.35-0.87-0.35-1.42c0-0.98,0.4-1.76,1.2-2.32c0.8-0.57,1.89-0.85,3.28-0.85c1.3,0,2.56,0.26,3.8,0.79l-0.65,1.48
			c-1.21-0.5-2.3-0.75-3.28-0.75c-0.87,0-1.52,0.14-1.96,0.41s-0.66,0.64-0.66,1.12c0,0.32,0.08,0.6,0.25,0.82
			c0.17,0.23,0.43,0.44,0.8,0.65c0.37,0.21,1.07,0.5,2.11,0.89c1.43,0.52,2.39,1.04,2.89,1.57S226.6,31.42,226.6,32.21z"/>
		<path class="st3" d="M236.88,28.82v6.68h-1.87V19.44h4.41c1.97,0,3.43,0.38,4.37,1.13c0.94,0.75,1.41,1.89,1.41,3.41
			c0,2.12-1.08,3.56-3.23,4.31l4.36,7.22h-2.21l-3.89-6.68H236.88z M236.88,27.21h2.56c1.32,0,2.29-0.26,2.9-0.79
			c0.62-0.52,0.92-1.31,0.92-2.36c0-1.06-0.31-1.83-0.94-2.3s-1.63-0.7-3.02-0.7h-2.43V27.21z"/>
		<path class="st3" d="M253.4,35.72c-1.78,0-3.18-0.54-4.21-1.63c-1.03-1.08-1.54-2.59-1.54-4.52c0-1.94,0.48-3.48,1.43-4.63
			s2.24-1.71,3.85-1.71c1.51,0,2.7,0.5,3.58,1.49c0.88,0.99,1.32,2.3,1.32,3.93v1.15h-8.29c0.04,1.41,0.39,2.49,1.07,3.22
			c0.68,0.73,1.63,1.1,2.86,1.1c1.3,0,2.58-0.27,3.85-0.81v1.63c-0.64,0.28-1.25,0.48-1.83,0.6
			C254.9,35.66,254.21,35.72,253.4,35.72z M252.9,24.76c-0.97,0-1.74,0.31-2.31,0.94c-0.57,0.63-0.91,1.5-1.02,2.62h6.29
			c0-1.15-0.26-2.03-0.77-2.64C254.58,25.07,253.85,24.76,252.9,24.76z"/>
		<path class="st3" d="M268.36,32.21c0,1.12-0.42,1.99-1.25,2.59c-0.83,0.61-2.01,0.91-3.52,0.91c-1.6,0-2.84-0.25-3.74-0.76v-1.69
			c0.58,0.29,1.2,0.52,1.86,0.69s1.3,0.25,1.92,0.25c0.95,0,1.68-0.15,2.2-0.46c0.51-0.3,0.77-0.77,0.77-1.39
			c0-0.47-0.2-0.87-0.61-1.2c-0.41-0.33-1.2-0.73-2.38-1.18c-1.12-0.42-1.92-0.78-2.39-1.09c-0.47-0.31-0.82-0.66-1.05-1.06
			s-0.35-0.87-0.35-1.42c0-0.98,0.4-1.76,1.2-2.32c0.8-0.57,1.89-0.85,3.28-0.85c1.3,0,2.56,0.26,3.8,0.79l-0.65,1.48
			c-1.21-0.5-2.3-0.75-3.28-0.75c-0.87,0-1.52,0.14-1.96,0.41s-0.66,0.64-0.66,1.12c0,0.32,0.08,0.6,0.25,0.82
			c0.17,0.23,0.43,0.44,0.8,0.65s1.07,0.5,2.11,0.89c1.43,0.52,2.39,1.04,2.89,1.57S268.36,31.42,268.36,32.21z"/>
		<path class="st3" d="M276.08,35.72c-1.78,0-3.18-0.54-4.21-1.63c-1.03-1.08-1.54-2.59-1.54-4.52c0-1.94,0.48-3.48,1.43-4.63
			s2.24-1.71,3.85-1.71c1.51,0,2.7,0.5,3.58,1.49c0.88,0.99,1.32,2.3,1.32,3.93v1.15h-8.29c0.04,1.41,0.39,2.49,1.07,3.22
			c0.68,0.73,1.63,1.1,2.86,1.1c1.3,0,2.58-0.27,3.85-0.81v1.63c-0.64,0.28-1.25,0.48-1.83,0.6
			C277.58,35.66,276.89,35.72,276.08,35.72z M275.58,24.76c-0.97,0-1.74,0.31-2.31,0.94c-0.57,0.63-0.91,1.5-1.02,2.62h6.29
			c0-1.15-0.26-2.03-0.77-2.64C277.27,25.07,276.53,24.76,275.58,24.76z"/>
		<path class="st3" d="M290.68,35.5l-0.36-1.71h-0.09c-0.6,0.75-1.2,1.27-1.8,1.53c-0.6,0.27-1.34,0.4-2.24,0.4
			c-1.19,0-2.13-0.31-2.81-0.92s-1.02-1.49-1.02-2.63c0-2.43,1.94-3.71,5.83-3.82l2.04-0.07v-0.75c0-0.95-0.2-1.64-0.61-2.09
			c-0.41-0.45-1.06-0.68-1.95-0.68c-1,0-2.14,0.31-3.41,0.92l-0.56-1.4c0.59-0.32,1.24-0.57,1.95-0.76s1.42-0.27,2.13-0.27
			c1.44,0,2.5,0.32,3.19,0.96c0.69,0.64,1.04,1.66,1.04,3.07v8.22H290.68z M286.56,34.21c1.13,0,2.03-0.31,2.67-0.93
			s0.97-1.49,0.97-2.61v-1.09l-1.82,0.08c-1.45,0.05-2.5,0.28-3.14,0.68c-0.64,0.4-0.96,1.02-0.96,1.86c0,0.66,0.2,1.16,0.6,1.5
			S285.84,34.21,286.56,34.21z"/>
		<path class="st3" d="M300.94,23.24c0.53,0,1.01,0.04,1.44,0.13l-0.25,1.69c-0.5-0.11-0.94-0.16-1.32-0.16
			c-0.97,0-1.81,0.4-2.5,1.19c-0.69,0.79-1.04,1.78-1.04,2.96v6.46h-1.82V23.46h1.5l0.21,2.23h0.09c0.45-0.78,0.99-1.39,1.62-1.81
			S300.19,23.24,300.94,23.24z"/>
		<path class="st3" d="M309.11,35.72c-1.74,0-3.09-0.54-4.05-1.61c-0.96-1.07-1.43-2.59-1.43-4.55c0-2.01,0.49-3.57,1.46-4.67
			c0.97-1.1,2.35-1.65,4.15-1.65c0.58,0,1.16,0.06,1.74,0.19c0.58,0.13,1.03,0.27,1.36,0.44l-0.56,1.55
			c-0.4-0.16-0.84-0.29-1.32-0.4c-0.48-0.11-0.9-0.16-1.26-0.16c-2.45,0-3.67,1.56-3.67,4.68c0,1.48,0.3,2.62,0.9,3.41
			c0.6,0.79,1.48,1.19,2.65,1.19c1,0,2.03-0.22,3.09-0.65v1.62C311.35,35.51,310.33,35.72,309.11,35.72z"/>
		<path class="st3" d="M322.91,35.5v-7.79c0-0.98-0.22-1.71-0.67-2.2c-0.45-0.48-1.15-0.73-2.1-0.73c-1.27,0-2.19,0.34-2.77,1.03
			s-0.87,1.82-0.87,3.38v6.29h-1.82V18.4h1.82v5.17c0,0.62-0.03,1.14-0.09,1.55h0.11c0.36-0.58,0.87-1.03,1.53-1.37
			c0.66-0.33,1.42-0.5,2.27-0.5c1.47,0,2.58,0.35,3.31,1.05c0.74,0.7,1.1,1.81,1.1,3.33v7.86H322.91z"/>
	</g>
</g>
</svg>
