<?xml version="1.0" encoding="utf-8"?>
<!-- Generator: Adobe Illustrator 21.1.0, SVG Export Plug-In . SVG Version: 6.00 Build 0)  -->
<svg version="1.1" id="Layer_1" xmlns="http://www.w3.org/2000/svg" xmlns:xlink="http://www.w3.org/1999/xlink" x="0px" y="0px"
	 viewBox="0 0 1366 250" style="enable-background:new 0 0 1366 250;" xml:space="preserve">
<style type="text/css">
	.st0{fill:#500000;}
	.st1{enable-background:new    ;}
</style>
<g>
	<g>
		<rect x="336.2" y="14" class="st0" width="5.6" height="220.4"/>
	</g>
	<g>
		<polygon class="st0" points="241.2,89.8 217,89.8 215.6,89.8 215,91.1 197.5,127.6 179.9,91.1 179.3,89.8 177.9,89.8 154.5,89.8 
			152.3,89.8 152.3,92 152.3,104.5 152.3,106.7 154.5,106.7 158.5,106.7 158.5,159 154.2,159 152,159 152,161.2 152,173.6 
			152,175.9 154.2,175.9 180.4,175.9 182.7,175.9 182.7,173.6 182.7,161.2 182.7,159 180.4,159 175.9,159 175.9,121.9 195.5,162.3 
			197.5,166.4 199.5,162.3 219.3,121.8 219.3,159 215,159 212.8,159 212.8,161.2 212.8,173.6 212.8,175.9 215,175.9 241.2,175.9 
			243.4,175.9 243.4,173.6 243.4,161.2 243.4,159 241.2,159 236.7,159 236.7,106.7 241.2,106.7 243.4,106.7 243.4,104.5 243.4,92 
			243.4,89.8 		"/>
		<path class="st0" d="M88.9,158.9h-7l-22.7-52.5h2.2h2.2v-2.2V91.8v-2.2h-2.2h-32h-2.2v2.2v12.5v2.2h2.2h2.8L9.4,158.9H2.2H0v2.2
			v12.5v2.2h2.2h28.6H33v-2.2v-12.5v-2.2h-2.2h-2.6l3.8-8.7h27.3l3.8,8.7h-2.8H58v2.2v12.5v2.2h2.2h28.6H91v-2.2v-12.5v-2.2H88.9z
			 M52,133.3H39.3l6.3-14.7L52,133.3z"/>
		<path class="st0" d="M213.4,24.2h-184h-2.5v2.5V76v2.5h2.5h31.8h2.5V76V57.7H103v129.6H84.7h-2.5v2.5v31.8v2.5h2.5h73.4h2.6v-2.5
			v-31.8v-2.5h-2.6h-18.3V57.7h39v18v2.6h2.6h32h2.5v-2.6V26.8v-2.5L213.4,24.2L213.4,24.2z M145.3,202.4l7.8-8v21.9l-7.8-7.4V202.4
			z M132.3,195l-7.8,7.7V42.4l7.8,7.8V195z M42.4,39.6l-8-7.8h170.1l-10,7.8H42.4z M208.6,71.1l-7.8-7.4V43.9l7.8-8V71.1z"/>
	</g>
	<g>
		<g>
			<path class="st0" d="M461.3,194.7h-1.9c-0.2-1.7-0.5-2.9-1.1-3.7s-1.2-1.3-1.8-1.5c-0.7-0.2-1.4-0.3-2.2-0.3h-3.4V209
				c0,0.8,0.1,1.4,0.2,1.8c0.2,0.4,0.5,0.8,1.1,1s1.4,0.4,2.6,0.4v1.8h-13.5v-1.8c1.7,0,2.7-0.2,3.2-0.7s0.7-1.3,0.7-2.5v-19.7h-2.9
				c-1.1,0-2.1,0.1-2.8,0.3c-0.7,0.2-1.4,0.7-2,1.5s-0.9,2-1,3.7h-1.9v-7.6h26.6L461.3,194.7L461.3,194.7z"/>
			<path class="st0" d="M509.9,205.2l-0.2,8.9h-24v-1.8c1.7,0,2.7-0.2,3.2-0.7s0.7-1.3,0.7-2.5v-16.9c0-0.8-0.1-1.4-0.2-1.8
				c-0.2-0.4-0.5-0.8-1.1-1s-1.4-0.4-2.6-0.4v-1.8H508l0.4,7h-1.8c-0.4-1.5-0.9-2.7-1.4-3.3c-0.5-0.7-1.1-1.1-1.8-1.2
				c-0.7-0.1-1.7-0.2-3-0.2h-5v9.5h2.7c0.9,0,1.6-0.1,2.1-0.2s0.8-0.5,1-0.9c0.2-0.5,0.3-1.2,0.4-2.2h1.9v9h-1.8
				c-0.1-1-0.2-1.7-0.4-2.2c-0.2-0.5-0.5-0.8-1-0.9c-0.5-0.2-1.2-0.2-2.1-0.2h-2.8v6.3c0,1.1,0,1.8,0.1,2.3s0.2,0.9,0.4,1.2
				c0.2,0.3,0.6,0.6,1.1,0.7c0.5,0.1,1.3,0.2,2.2,0.2h2.2c0.9,0,1.8-0.1,2.6-0.3c0.8-0.2,1.6-0.8,2.4-1.8s1.4-2.5,1.7-4.5
				L509.9,205.2L509.9,205.2z"/>
			<path class="st0" d="M565.5,214h-15.7v-1.8h1.3c0.7,0,1.3-0.1,1.9-0.3c0.5-0.2,0.8-0.6,0.8-1.2c0-0.3-0.4-0.9-1.1-1.9l-4.4-5.7
				l-4.2,4.9c-1,1.1-1.5,2-1.5,2.6c0,0.5,0.2,0.9,0.5,1.1c0.3,0.2,0.7,0.4,1.2,0.4c0.5,0.1,1.1,0.1,1.9,0.1v1.8h-11.8v-1.8
				c0.9,0,1.6-0.1,2.3-0.4c0.7-0.2,1.4-0.7,2.3-1.4c0.8-0.7,1.9-1.9,3.3-3.4l4.8-5.6l-6.5-8.5c-1-1.3-1.7-2.1-2.1-2.6
				c-0.4-0.5-0.9-0.8-1.5-1s-1.4-0.3-2.5-0.3v-1.8H549v1.8h-1c-0.8,0-1.3,0.1-1.7,0.2c-0.4,0.1-0.6,0.4-0.6,0.9c0,0.3,0.4,1,1.2,2.1
				l3.8,4.8l4.3-5c0.4-0.5,0.6-0.9,0.8-1.1c0.1-0.2,0.2-0.5,0.2-0.8c0-0.4-0.2-0.8-0.5-0.9c-0.3-0.2-1-0.3-1.9-0.3h-0.9v-1.8h11.1
				v1.8c-1,0-1.9,0.2-2.6,0.5c-0.7,0.3-1.4,0.7-1.9,1.3c-0.5,0.5-1.3,1.4-2.4,2.6l-4.8,5.5l6.6,8.6c1,1.3,1.8,2.3,2.4,2.9
				c0.6,0.7,1.3,1.1,1.9,1.4c0.6,0.3,1.5,0.4,2.6,0.5L565.5,214L565.5,214z"/>
			<path class="st0" d="M617.2,214h-12.7v-1.8c1.1,0,1.9-0.1,2.3-0.2c0.5-0.2,0.7-0.5,0.7-1.1c0-0.4-0.1-0.8-0.2-1.2l-1.3-3.2h-8.7
				l-0.7,1.7c-0.4,1-0.6,1.7-0.6,2.1c0,0.8,0.3,1.3,0.9,1.5c0.6,0.2,1.3,0.3,2.2,0.3v1.8h-9.3v-1.8c0.7,0,1.4-0.1,1.9-0.4
				c0.5-0.3,1-0.8,1.5-1.6s1-1.9,1.5-3.3l7.8-20.3h1.9l8.2,21c0.6,1.5,1,2.5,1.3,3s0.7,0.9,1.2,1.2s1.2,0.4,2.1,0.4L617.2,214
				L617.2,214z M605.4,204.6l-3.7-9.4l-3.5,9.4H605.4z"/>
			<path class="st0" d="M660.4,206c0,0.8-0.2,1.7-0.5,2.6c-0.3,0.9-0.9,1.8-1.6,2.6c-0.7,0.8-1.6,1.5-2.7,2
				c-1.1,0.5-2.3,0.8-3.7,0.8s-2.8-0.3-4.2-0.9c-1.4-0.6-2.6-1.5-3.5-2.7c-0.4,1-0.7,1.8-0.8,2.7h-1.8v-9h1.8
				c0.3,1.3,0.8,2.5,1.3,3.6c0.6,1.1,1.4,2.1,2.4,2.9c1,0.8,2.3,1.2,3.8,1.2c1.3,0,2.4-0.4,3.2-1.1c0.8-0.7,1.2-1.6,1.2-2.7
				c0-0.6-0.1-1.2-0.4-1.6c-0.3-0.5-0.6-0.9-1.1-1.3c-0.5-0.4-1.1-0.8-1.9-1.2c-0.8-0.4-1.7-0.9-2.8-1.3c-1.6-0.7-2.9-1.5-3.9-2.3
				s-1.8-1.5-2.3-2.2s-0.9-1.4-1.1-2.1c-0.2-0.7-0.3-1.3-0.3-2c0-1.2,0.3-2.3,1-3.5c0.6-1.1,1.6-2.1,2.8-2.8s2.6-1.1,4.2-1.1
				c1.2,0,2.4,0.3,3.5,0.8c1.1,0.6,2.1,1.3,2.9,2.3c0.2-0.5,0.4-1.3,0.6-2.3h1.8v7.4h-1.8c-1.3-4-3.6-6-6.8-6
				c-1.2,0-2.1,0.3-2.8,0.9c-0.7,0.6-1.1,1.4-1.1,2.4c0,0.8,0.2,1.4,0.7,2c0.4,0.6,1,1,1.7,1.4s1.9,1,3.5,1.7
				c1.9,0.9,3.5,1.7,4.6,2.4s2,1.5,2.8,2.6C660,203.3,660.4,204.6,660.4,206z"/>
		</g>
		<g>
			<path class="st0" d="M929.3,188.9c-1.2,0-2.1,0.1-2.6,0.4c-0.5,0.3-0.9,0.7-1,1.2s-0.2,1.3-0.2,2.4v10c0,1.8-0.1,3.2-0.2,4.1
				c-0.1,0.9-0.5,1.8-1,2.8c-1,1.8-2.4,3.1-4.2,3.7c-1.8,0.7-3.5,1-5.2,1c-1.2,0-2.5-0.2-3.8-0.5s-2.5-0.9-3.6-1.6
				c-1.1-0.7-2-1.7-2.6-2.9c-0.3-0.7-0.6-1.3-0.7-2c-0.2-0.7-0.3-1.3-0.3-1.9c0-0.6-0.1-1.4-0.1-2.3v-11.2c0-1.2-0.2-2-0.7-2.5
				s-1.5-0.7-3.2-0.7v-1.8h13.6v1.8c-1.2,0-2,0.1-2.6,0.4c-0.6,0.2-0.9,0.6-1.1,1c-0.2,0.4-0.3,1-0.3,1.8v11.2c0,1.2,0.1,2.2,0.2,3
				c0.1,0.9,0.3,1.6,0.5,2.3c0.5,1.1,1.2,1.9,2.3,2.6c1.1,0.6,2.3,1,3.6,1c1.4,0,2.7-0.3,3.9-1s2-1.6,2.5-2.7
				c0.4-0.9,0.6-1.7,0.7-2.6c0.1-0.9,0.2-2,0.2-3.3v-9.7c0-0.9,0-1.5-0.1-1.9s-0.2-0.8-0.4-1.1s-0.6-0.6-1.2-0.7
				c-0.5-0.1-1.3-0.2-2.3-0.2v-1.8h9.9L929.3,188.9L929.3,188.9z"/>
			<path class="st0" d="M983.2,188.9c-1.3,0-2.2,0.1-2.8,0.4c-0.6,0.3-0.9,0.6-1,1.1s-0.2,1.3-0.2,2.5v21.4h-1.8l-17.7-21v14.8
				c0,1.1,0.1,1.9,0.2,2.5c0.1,0.5,0.5,0.9,1.1,1.2s1.5,0.4,2.8,0.4v1.8h-10v-1.8c1.2,0,2.1-0.2,2.6-0.4c0.5-0.3,0.9-0.7,1-1.2
				s0.2-1.3,0.2-2.5v-13.8c0-1.1,0-2-0.1-2.5c-0.1-0.6-0.2-1-0.4-1.5c-0.2-0.4-0.6-0.8-1.1-1c-0.5-0.3-1.2-0.4-2.1-0.5V187h7.9
				l15.4,18.1v-12.3c0-1-0.1-1.8-0.2-2.3c-0.1-0.5-0.5-1-1-1.2c-0.5-0.3-1.4-0.4-2.6-0.4v-1.8h10.1L983.2,188.9L983.2,188.9z"/>
			<path class="st0" d="M1021.3,214h-13.7v-1.8c1.1,0,2-0.1,2.6-0.3s1-0.5,1.1-1c0.2-0.4,0.3-1.1,0.3-1.9v-16.9c0-1.2-0.2-2-0.7-2.5
				s-1.6-0.7-3.3-0.7v-1.8h13.7v1.8c-1.1,0-2,0.1-2.6,0.3s-1,0.5-1.1,1c-0.2,0.4-0.3,1.1-0.3,1.9V209c0,0.8,0.1,1.4,0.3,1.8
				c0.2,0.4,0.5,0.8,1.1,1c0.6,0.3,1.4,0.4,2.6,0.4L1021.3,214L1021.3,214z"/>
			<path class="st0" d="M1075.5,188.9c-0.6,0-1.2,0.1-1.7,0.3s-0.9,0.4-1.2,0.8c-0.3,0.3-0.6,0.8-0.9,1.4c-0.3,0.6-0.7,1.5-1.3,2.8
				l-8.8,20.5h-1.8l-9.2-21.5c-0.6-1.4-1-2.3-1.3-2.8s-0.8-0.9-1.3-1c-0.5-0.2-1.3-0.3-2.4-0.3v-1.8h13.7v1.8
				c-1.3,0.1-2.2,0.2-2.7,0.3c-0.5,0.2-0.8,0.6-0.8,1.2c0,0.6,0.2,1.2,0.5,1.9l6.2,14.4l5.7-13.5c0.5-1.2,0.7-2,0.7-2.4
				c0-0.9-0.3-1.4-0.9-1.6c-0.6-0.2-1.5-0.3-2.7-0.4v-1.8h10L1075.5,188.9L1075.5,188.9z"/>
			<path class="st0" d="M1124.2,205.2l-0.2,8.9h-24v-1.8c1.7,0,2.7-0.3,3.2-0.7c0.5-0.5,0.7-1.3,0.7-2.5v-16.9
				c0-0.8-0.1-1.4-0.2-1.8c-0.2-0.4-0.5-0.8-1.1-1s-1.4-0.4-2.6-0.4v-1.8h22.4l0.3,7h-1.8c-0.4-1.6-0.9-2.7-1.4-3.3
				c-0.5-0.7-1.2-1.1-1.8-1.2c-0.7-0.2-1.7-0.2-3-0.2h-5.1v9.5h2.7c0.9,0,1.7-0.1,2.1-0.3c0.5-0.2,0.8-0.5,1-0.9
				c0.2-0.5,0.3-1.2,0.4-2.2h1.9v9h-1.8c-0.1-1-0.2-1.7-0.4-2.2c-0.2-0.5-0.5-0.8-1-0.9c-0.5-0.2-1.2-0.3-2.1-0.3h-2.8v6.3
				c0,1.1,0,1.8,0.1,2.3s0.2,0.9,0.4,1.2c0.2,0.3,0.6,0.6,1.1,0.7c0.5,0.1,1.3,0.2,2.2,0.2h2.2c0.9,0,1.8-0.1,2.6-0.3
				c0.8-0.2,1.6-0.8,2.4-1.8s1.4-2.5,1.7-4.5L1124.2,205.2L1124.2,205.2z"/>
			<path class="st0" d="M1177.7,214h-7.2c-0.3-0.3-0.6-0.7-1-1.3c-0.4-0.5-0.8-1.2-1.3-2c-0.4-0.8-0.8-1.4-1.1-1.9l-1.8-3
				c-0.8-1.4-1.4-2.3-1.9-2.8c-0.4-0.5-0.9-0.8-1.4-1c-0.5-0.1-1.5-0.2-2.7-0.2h-1v7c0,0.7,0.1,1.3,0.3,1.8c0.1,0.4,0.5,0.8,1.1,1
				c0.6,0.3,1.4,0.4,2.6,0.4v1.8h-13.5V212c1.6,0,2.7-0.3,3.2-0.7c0.5-0.5,0.7-1.3,0.7-2.5v-17c0-1.2-0.2-2-0.7-2.5
				s-1.5-0.7-3.2-0.7V187l6.2-0.2c0.5,0,1-0.1,1.6-0.1s1.2,0,1.7,0c0.4,0,1.1,0,2,0c1.4,0,2.6,0.1,3.8,0.3c1.2,0.1,2.1,0.3,2.8,0.5
				c1,0.3,1.9,0.7,2.8,1.2c0.9,0.6,1.6,1.4,2.2,2.3c0.6,0.9,0.8,2.1,0.8,3.3c0,0.9-0.2,1.8-0.6,2.6c-0.4,0.9-1,1.6-1.9,2.3
				c-0.9,0.6-2,1.2-3.4,1.6c1,0.6,1.8,1.3,2.5,2.1s1.7,2.4,3.2,4.7c0.8,1.3,1.5,2.3,2.1,2.9c0.5,0.7,1,1.1,1.5,1.4
				c0.5,0.2,1,0.4,1.7,0.4L1177.7,214L1177.7,214z M1166.5,194.3c0-2.1-0.7-3.6-2-4.3s-3-1.1-5.1-1.1c-0.3,0-0.5,0-0.7,0
				s-0.3,0-0.6,0v10.8h1.3c2,0,3.7-0.3,5.1-1C1165.9,198.2,1166.5,196.6,1166.5,194.3z"/>
			<path class="st0" d="M1221.3,206.3c0,0.8-0.2,1.7-0.6,2.7c-0.4,0.9-0.9,1.8-1.6,2.7s-1.6,1.5-2.7,2.1c-1.1,0.5-2.4,0.8-3.8,0.8
				s-2.9-0.3-4.3-0.9c-1.4-0.6-2.6-1.6-3.6-2.8c-0.4,1-0.7,1.9-0.8,2.7h-1.8v-9.2h1.8c0.3,1.3,0.8,2.6,1.4,3.7
				c0.6,1.2,1.4,2.2,2.5,3s2.4,1.3,3.9,1.3c1.4,0,2.4-0.4,3.2-1.1c0.8-0.8,1.2-1.7,1.2-2.8c0-0.6-0.1-1.2-0.4-1.7s-0.6-0.9-1.1-1.3
				c-0.5-0.4-1.1-0.8-1.9-1.2s-1.8-0.9-2.8-1.4c-1.6-0.8-3-1.5-4-2.3s-1.8-1.5-2.4-2.3c-0.5-0.7-0.9-1.4-1.1-2.1
				c-0.2-0.7-0.3-1.3-0.3-2c0-1.2,0.3-2.4,1-3.6c0.7-1.2,1.6-2.1,2.9-2.9c1.2-0.7,2.7-1.1,4.3-1.1c1.2,0,2.4,0.3,3.6,0.8
				c1.1,0.6,2.1,1.3,3,2.3c0.3-0.6,0.4-1.3,0.6-2.3h1.9v7.5h-1.9c-1.3-4.1-3.6-6.2-6.9-6.2c-1.2,0-2.2,0.3-2.9,0.9
				c-0.7,0.6-1.1,1.4-1.1,2.4c0,0.8,0.2,1.5,0.7,2c0.4,0.6,1,1.1,1.8,1.5c0.7,0.4,1.9,1,3.6,1.8c2,0.9,3.5,1.8,4.7,2.4
				c1.1,0.7,2.1,1.6,2.9,2.6C1220.9,203.6,1221.3,204.8,1221.3,206.3z"/>
			<path class="st0" d="M1259.4,214h-13.7v-1.8c1.2,0,2-0.1,2.6-0.3s1-0.5,1.1-1c0.2-0.4,0.3-1.1,0.3-1.9v-16.9c0-1.2-0.3-2-0.7-2.5
				c-0.5-0.5-1.6-0.7-3.3-0.7v-1.8h13.7v1.8c-1.1,0-2,0.1-2.6,0.3s-1,0.5-1.2,1c-0.2,0.4-0.3,1.1-0.3,1.9V209c0,0.8,0.1,1.4,0.3,1.8
				c0.2,0.4,0.5,0.8,1.1,1c0.6,0.3,1.4,0.4,2.6,0.4L1259.4,214L1259.4,214z"/>
			<path class="st0" d="M1310.5,194.7h-1.9c-0.2-1.7-0.5-2.9-1.1-3.7s-1.2-1.3-1.8-1.5c-0.6-0.2-1.4-0.3-2.2-0.3h-3.4V209
				c0,0.8,0.1,1.4,0.2,1.8s0.5,0.8,1.1,1c0.6,0.3,1.4,0.4,2.6,0.4v1.8h-13.5v-1.8c1.7,0,2.7-0.3,3.2-0.7c0.5-0.5,0.7-1.3,0.7-2.5
				v-19.7h-2.9c-1.1,0-2.1,0.1-2.8,0.3c-0.7,0.2-1.4,0.7-2,1.5s-0.9,2-1,3.7h-1.9v-7.6h26.6L1310.5,194.7L1310.5,194.7z"/>
			<path class="st0" d="M1362.4,188.9c-0.7,0.1-1.3,0.2-1.8,0.5s-1,0.7-1.4,1.4c-0.5,0.6-1.2,1.7-2.2,3.1l-5.7,8.8v6.4
				c0,0.7,0.1,1.3,0.2,1.8c0.1,0.4,0.5,0.8,1.1,1c0.6,0.3,1.4,0.4,2.6,0.4v1.8h-13.6v-1.8c1.1,0,2-0.1,2.6-0.3s0.9-0.5,1.1-1
				c0.2-0.4,0.3-1.1,0.3-1.9v-6l-6.8-11.3c-0.1-0.1-0.1-0.2-0.2-0.3c0-0.1-0.1-0.2-0.1-0.2c-0.6-1-1.1-1.6-1.6-1.9
				c-0.4-0.3-1.1-0.5-2-0.5v-1.8h12.7v1.8c-0.7,0-1.1,0-1.5,0.1c-0.4,0-0.7,0.1-0.9,0.3c-0.2,0.2-0.3,0.5-0.3,0.8
				c0,0.2,0.1,0.6,0.2,0.9c0.2,0.4,0.5,1,1.1,2l4.2,7.1l4-6.3c0.9-1.4,1.3-2.4,1.3-3c0-0.8-0.3-1.4-0.8-1.6
				c-0.5-0.2-1.3-0.3-2.3-0.3v-1.8h9.8L1362.4,188.9L1362.4,188.9z"/>
		</g>
		<g>
			<path class="st0" d="M736.5,214h-12.7v-1.8c1.1,0,1.8-0.1,2.3-0.2c0.5-0.2,0.7-0.5,0.7-1.1c0-0.4-0.1-0.8-0.2-1.2l-1.3-3.2h-8.7
				l-0.7,1.7c-0.4,1-0.6,1.7-0.6,2.1c0,0.8,0.3,1.3,0.9,1.5c0.6,0.2,1.3,0.3,2.1,0.3v1.8H709v-1.8c0.7,0,1.4-0.1,1.9-0.4
				c0.5-0.3,1-0.8,1.5-1.6s1-1.9,1.5-3.3l7.8-20.3h1.9l8.2,21c0.6,1.5,1,2.5,1.3,3s0.7,0.9,1.2,1.2s1.2,0.4,2.1,0.4L736.5,214
				L736.5,214z M724.7,204.6l-3.7-9.4l-3.5,9.4H724.7z"/>
			<path class="st0" d="M851,214h-13.5v-1.8c1.2,0,2-0.1,2.6-0.3c0.5-0.2,0.9-0.6,1.1-1c0.2-0.4,0.3-1.1,0.3-1.8v-16.9L831.2,214
				H830l-10.3-21.9v16c0,0.8,0,1.5,0.1,1.9c0.1,0.5,0.2,0.8,0.4,1.2c0.2,0.3,0.6,0.6,1.2,0.7c0.5,0.1,1.3,0.2,2.2,0.2v1.8h-10v-1.8
				c1,0,1.7-0.1,2.2-0.2c0.5-0.2,0.9-0.4,1.1-0.7c0.2-0.3,0.4-0.7,0.4-1.1c0.1-0.4,0.1-1.1,0.1-1.9v-15.3c0-1.1-0.1-2-0.2-2.5
				c-0.1-0.5-0.4-0.9-1-1.1c-0.5-0.3-1.4-0.4-2.7-0.4v-1.8h9.8l8.9,19l9-19h9.6v1.8c-1.6,0-2.7,0.2-3.2,0.7s-0.7,1.3-0.7,2.5V209
				c0,0.7,0.1,1.3,0.2,1.8c0.2,0.4,0.5,0.8,1.1,1s1.4,0.4,2.6,0.4L851,214L851,214z"/>
			<path class="st0" d="M787.4,209.9L787.4,209.9c-0.8,1.2-1.7,1.8-2.9,1.8c-0.9,0-1.7-0.3-2.5-0.8s-1.9-1.8-3.2-3.7
				c0.6-0.8,1.2-2,1.9-3.6c0.8-2,1.6-3.4,2.4-4.1c0.8-0.7,1.7-1.2,2.7-1.5h0.2v-1.3h-9v1.3h0.2c2,0.2,2.9,1,2.9,2.4
				c0,0.6-0.2,1.5-0.6,2.6c-0.4,1-1,2-1.6,3c-0.4-0.5-6.1-8.4-6.3-8.8c3.7-1.9,5.6-3.9,5.6-6c0-1.4-0.6-2.5-1.8-3.4
				c-1.2-0.8-2.5-1.3-4-1.3c-1.7,0-3.1,0.6-4.2,1.7c-1.1,1.1-1.7,2.4-1.7,3.8c0,1.7,0.8,3.7,2.3,5.8c-2.5,1.7-4.2,3.1-5.1,4.2
				c-0.9,1.2-1.4,2.6-1.4,4.3c0,1.5,0.4,2.8,1.1,4c0.8,1.1,1.7,2,2.9,2.7c1.2,0.6,2.5,0.9,3.8,0.9c2.6,0,5.1-1.3,7.4-3.8
				c2,2.5,4.3,3.8,6.8,3.8c1.2,0,2.3-0.4,3.3-1c0.9-0.7,1.6-1.6,1.9-2.8l0.1-0.3h-1.2V209.9z M769.4,188.7c0.6-0.6,1.3-0.9,2.2-0.9
				s1.6,0.3,2.2,0.9c0.6,0.6,0.8,1.5,0.8,2.5c0,1.7-1.3,3.2-3.7,4.7c-1.5-2.1-2.2-3.8-2.2-5C768.6,190,768.8,189.3,769.4,188.7z
				 M770.9,211.5c-1.6,0-3-0.7-4.3-2.1c-1.3-1.4-1.9-2.9-1.9-4.5c0-1,0.4-2.1,1.1-3.2c0.7-1,1.7-2,3-2.8c2,2.6,4.3,5.9,7,10
				C774.2,210.6,772.6,211.5,770.9,211.5z"/>
		</g>
		<g class="st1">
			<path class="st0" d="M442.3,37.4H483v84.1h50v35.2h-90.8V37.4z"/>
			<path class="st0" d="M587.5,37.4v119.3h-40.8V37.4H587.5z"/>
			<path class="st0" d="M605.8,37.4h66.8c18.4,0,36.5,6.7,36.5,29.4c0,16.4-7.8,25.1-21.9,29.2v0.3c14.8,2.2,23.9,15.2,23.9,27.2
				c0,30.1-21.6,33.2-43.6,33.2h-61.6V37.4z M644.1,83.1h10.2c7.1,0,14.9-2.4,14.9-11.5c0-8.9-6.7-11.6-14-11.6h-11.1V83.1z
				 M644.1,132.1h10.6c7.5,0,15.5-3.1,15.5-12.3c0-10.3-7.6-12.1-15.2-12.1h-10.9V132.1z"/>
			<path class="st0" d="M725.6,37.4h65.8c25.4,0,41.1,8.9,41.1,31.8c0,18.3-10.2,27.5-25.4,31.6v0.3c8.8,1.7,14.1,6.5,17.9,12.8
				c6.2,12.6,5.8,31.1,10,42.7h-42.4c-1.8-8.5-2.3-27.2-5.6-34.4c-2.4-5.5-6.5-6.2-11.6-6.2h-9.1v40.5h-40.8V37.4z M764.5,89.6h10.6
				c8.4,0,16.6-1,16.6-13.2c0-10.8-7.8-12.3-16-12.3h-11.3V89.6z"/>
			<path class="st0" d="M875.5,37.4h56.1l37.9,119.3h-42.7l-7-25.8h-34.4l-6.5,25.8h-40.6L875.5,37.4z M891,102.2h23.6l-11.6-39.1
				h-0.3L891,102.2z"/>
			<path class="st0" d="M976.4,37.4h65.8c25.4,0,41.1,8.9,41.1,31.8c0,18.3-10.2,27.5-25.4,31.6v0.3c8.8,1.7,14.1,6.5,17.9,12.8
				c6.2,12.6,5.8,31.1,10,42.7h-42.4c-1.8-8.5-2.3-27.2-5.6-34.4c-2.4-5.5-6.5-6.2-11.6-6.2h-9.1v40.5h-40.8V37.4z M1015.3,89.6
				h10.6c8.4,0,16.6-1,16.6-13.2c0-10.8-7.8-12.3-16-12.3h-11.3V89.6z"/>
			<path class="st0" d="M1139.8,37.4v119.3h-40.8V37.4H1139.8z"/>
			<path class="st0" d="M1156.7,37.4h92v28.7h-52.2v16.9h49.9v28.7h-49.9V128h53.2v28.7h-93.1V37.4z"/>
			<path class="st0" d="M1351.1,70.1c-9.1-3.6-19.9-6-31.5-6c-6.4,0-17.5,0.2-17.5,7.9c0,15.6,55.8,0.9,55.8,46.8
				c0,32-28.1,40-51.7,40c-15.7,0-28.6-1.7-43.8-5.6v-30.9c10.9,5.1,24.3,7.9,36.5,7.9c9.6,0,18.2-2.2,18.2-8.2
				c0-16.1-55.8-1.5-55.8-47.9c0-32.8,30.4-38.6,54.6-38.6c11.4,0,24,1.5,35.1,4.1V70.1z"/>
		</g>
	</g>
</g>
</svg>
