<svg version="1.1" id="Layer_1" xmlns="http://www.w3.org/2000/svg" x="0" y="0" viewBox="0 0 1366 250" style="enable-background:new 0 0 1366 250" xml:space="preserve"><style>.st0{fill:#500000}</style><path class="st0" d="M496 223.3h-2c-.2-1.8-.6-3.1-1.2-4-.6-.8-1.3-1.4-2-1.6-.7-.2-1.5-.3-2.4-.3h-3.7v21.2c0 .8.1 1.5.3 2 .2.5.6.8 1.2 1.1.6.3 1.5.4 2.7.4v2h-14.5v-2c1.8 0 2.9-.3 3.4-.8s.8-1.4.8-2.6v-21.2h-3.1c-1.2 0-2.2.1-3 .3-.8.2-1.5.7-2.1 1.6-.6.9-1 2.2-1 4h-2v-8.2H496v8.1zM543.8 234.5l-.2 9.5h-25.7v-2c1.8 0 2.9-.3 3.4-.8s.8-1.4.8-2.6v-18.2c0-.8-.1-1.5-.2-1.9-.2-.5-.5-.8-1.1-1.1-.6-.3-1.5-.4-2.8-.4v-2h24l.4 7.5h-2c-.4-1.7-.9-2.9-1.5-3.6-.6-.7-1.2-1.2-1.9-1.3-.7-.2-1.8-.2-3.2-.2h-5.4v10.2h2.9c1 0 1.8-.1 2.3-.3.5-.2.8-.5 1-1 .2-.5.3-1.3.4-2.3h2v9.6h-2c-.1-1.1-.2-1.9-.4-2.4s-.6-.8-1.1-1c-.5-.2-1.2-.3-2.2-.3h-3v6.8c0 1.1 0 2 .1 2.5s.2 1 .5 1.3c.3.3.7.6 1.2.8.6.2 1.4.2 2.4.2h2.3c1 0 1.9-.1 2.8-.4.9-.2 1.8-.9 2.6-1.9.9-1 1.5-2.6 1.8-4.8l1.8.1zM599.1 244h-16.9v-2h1.3c.7 0 1.4-.1 2-.3.6-.2.9-.6.9-1.3 0-.3-.4-1-1.1-2l-4.7-6.2-4.5 5.2c-1.1 1.2-1.6 2.1-1.6 2.7 0 .5.2.9.5 1.2.3.3.8.4 1.3.5.5.1 1.2.1 2 .1v2h-12.7v-2c.9 0 1.7-.2 2.5-.4.7-.2 1.5-.7 2.4-1.5.9-.8 2.1-2 3.5-3.7l5.1-6-7-9.2c-1.1-1.4-1.8-2.3-2.3-2.8-.5-.5-1-.8-1.6-1.1-.6-.2-1.5-.3-2.6-.3v-2h15.8v2h-1.1c-.8 0-1.4.1-1.8.2-.4.1-.6.4-.6 1 0 .3.4 1.1 1.3 2.3l4 5.2 4.6-5.4c.4-.5.7-.9.8-1.1.1-.2.2-.5.2-.8 0-.5-.2-.8-.5-1s-1-.3-2-.3h-1v-2h12v2c-1.1 0-2 .2-2.8.5-.8.3-1.5.8-2.1 1.4-.6.6-1.4 1.5-2.6 2.8l-5.2 5.9 7 9.2c1.1 1.4 1.9 2.4 2.6 3.2.7.7 1.4 1.2 2.1 1.5.7.3 1.6.5 2.8.5v2zM650.2 244h-13.6v-2c1.1 0 2-.1 2.5-.2.5-.2.8-.6.8-1.2 0-.4-.1-.9-.3-1.3l-1.4-3.4h-9.4l-.7 1.9c-.4 1.1-.6 1.8-.6 2.3 0 .9.3 1.4 1 1.6.7.2 1.4.3 2.3.3v2h-10v-2c.8 0 1.5-.1 2-.4.5-.3 1.1-.9 1.6-1.7.5-.8 1-2 1.6-3.5l8.3-21.8h2l8.8 22.5c.6 1.6 1.1 2.7 1.4 3.2.3.6.7 1 1.2 1.3.5.3 1.3.5 2.2.5l.3 1.9zm-12.7-10.1-4-10.1-3.8 10.1h7.8zM692.2 235.4c0 .9-.2 1.8-.6 2.8-.4 1-.9 1.9-1.7 2.8-.8.9-1.7 1.6-2.9 2.2-1.2.6-2.5.8-4 .8s-3-.3-4.5-1-2.7-1.6-3.8-2.9c-.4 1-.7 2-.9 2.9H672v-9.7h1.9c.3 1.4.8 2.7 1.4 3.9.6 1.2 1.5 2.3 2.6 3.2 1.1.9 2.5 1.3 4.1 1.3 1.4 0 2.6-.4 3.4-1.2.9-.8 1.3-1.8 1.3-2.9 0-.7-.1-1.2-.4-1.7-.3-.5-.7-1-1.2-1.3-.5-.4-1.2-.8-2-1.3-.9-.5-1.9-.9-3-1.4-1.7-.8-3.1-1.6-4.2-2.4-1.1-.8-1.9-1.6-2.5-2.4-.6-.8-1-1.5-1.2-2.2-.2-.7-.3-1.4-.3-2.1 0-1.3.3-2.5 1-3.7.7-1.2 1.7-2.2 3-3 1.3-.8 2.8-1.2 4.6-1.2 1.3 0 2.6.3 3.8.9 1.2.6 2.2 1.4 3.1 2.4.2-.6.5-1.4.7-2.5h2v7.9h-2c-1.4-4.3-3.8-6.4-7.3-6.4-1.2 0-2.3.3-3 1-.8.7-1.1 1.5-1.1 2.5 0 .8.2 1.5.7 2.1.5.6 1.1 1.1 1.9 1.5.8.4 2 1.1 3.7 1.9 2.1 1 3.7 1.8 4.9 2.6 1.2.7 2.2 1.6 3 2.7.9 1 1.3 2.4 1.3 3.9zM935.9 217.1c-1.3 0-2.2.2-2.8.5-.6.3-.9.7-1 1.3s-.2 1.4-.2 2.6V232c0 2-.1 3.4-.2 4.4-.1 1-.5 2-1.1 3-1.1 1.9-2.6 3.3-4.5 4-1.9.7-3.8 1.1-5.6 1.1-1.3 0-2.7-.2-4.1-.5-1.4-.4-2.7-.9-3.9-1.7-1.2-.8-2.1-1.8-2.8-3.1-.3-.7-.6-1.4-.8-2.1-.2-.7-.3-1.4-.3-2 0-.6-.1-1.4-.1-2.5v-12c0-1.3-.3-2.1-.7-2.7-.5-.5-1.6-.8-3.4-.8v-1.9H919v1.9c-1.2 0-2.2.1-2.8.4-.6.3-1 .6-1.2 1.1-.2.5-.3 1.1-.3 2v12c0 1.2.1 2.3.2 3.3.1.9.3 1.8.6 2.4.5 1.2 1.3 2.1 2.5 2.8 1.2.7 2.4 1 3.8 1 1.5 0 2.9-.4 4.2-1.1 1.3-.7 2.2-1.7 2.7-2.8.4-.9.7-1.9.8-2.8.1-1 .2-2.1.2-3.5v-10.4c0-.9 0-1.6-.1-2.1s-.2-.9-.5-1.2c-.3-.3-.7-.6-1.3-.8-.6-.2-1.4-.2-2.5-.2v-1.9H936l-.1 1.8zM989.4 217.1c-1.4 0-2.4.1-3 .4-.6.3-1 .7-1.1 1.2-.1.5-.2 1.4-.2 2.6v22.9h-1.9l-18.9-22.5v15.9c0 1.2.1 2.1.2 2.6s.5 1 1.1 1.3c.6.3 1.6.5 3 .5v1.9h-10.8V242c1.3 0 2.2-.2 2.8-.5.6-.3.9-.7 1.1-1.3.1-.6.2-1.4.2-2.6V223c0-1.2 0-2.1-.1-2.7-.1-.6-.2-1.1-.5-1.6-.2-.5-.6-.8-1.2-1.1-.6-.3-1.3-.5-2.3-.6v-1.9h8.4l16.5 19.5v-13.2c0-1.1-.1-1.9-.2-2.5-.2-.6-.5-1-1.1-1.3-.6-.3-1.5-.5-2.8-.5v-1.9h10.8v1.9zM1025.9 244h-14.7v-1.9c1.2 0 2.1-.1 2.8-.4.6-.2 1-.6 1.2-1 .2-.5.3-1.1.3-2v-18.2c0-1.3-.3-2.1-.8-2.7-.5-.5-1.7-.8-3.5-.8v-1.9h14.7v1.9c-1.2 0-2.2.1-2.8.4-.6.2-1 .6-1.2 1.1-.2.5-.3 1.1-.3 2v18.2c0 .8.1 1.5.3 2 .2.5.6.8 1.2 1.1.6.3 1.5.4 2.8.4v1.8zM1079.7 217.1c-.7 0-1.3.1-1.8.3-.5.2-.9.4-1.2.8-.3.4-.7.9-1 1.5-.3.6-.8 1.6-1.4 3l-9.4 22h-2l-9.9-23.1c-.6-1.4-1.1-2.4-1.4-3-.3-.5-.8-.9-1.4-1.1-.6-.2-1.4-.3-2.5-.3v-1.9h14.7v1.9c-1.4.1-2.4.2-2.9.3-.5.2-.8.6-.8 1.3 0 .6.2 1.3.5 2.1l6.7 15.5 6.2-14.4c.5-1.2.8-2.1.8-2.6 0-.9-.3-1.5-1-1.7-.6-.2-1.6-.4-2.9-.4v-1.9h10.7v1.7zM1127.6 234.5l-.3 9.5h-25.8v-1.9c1.8 0 2.9-.3 3.5-.8.5-.5.8-1.4.8-2.7v-18.2c0-.8-.1-1.5-.2-1.9-.2-.5-.5-.8-1.2-1.1-.6-.3-1.5-.4-2.8-.4v-1.9h24l.4 7.5h-2c-.4-1.7-.9-2.9-1.5-3.6-.6-.7-1.2-1.1-1.9-1.3-.7-.2-1.8-.3-3.2-.3h-5.4v10.2h2.9c1 0 1.8-.1 2.3-.3.5-.2.9-.5 1.1-1 .2-.5.3-1.3.4-2.3h2v9.6h-2c-.1-1.1-.2-1.9-.4-2.4s-.6-.8-1.1-1c-.5-.2-1.2-.3-2.3-.3h-3v6.8c0 1.1 0 2 .1 2.5s.2 1 .5 1.3c.2.4.7.6 1.2.8.6.2 1.4.2 2.4.2h2.3c1 0 1.9-.1 2.8-.4.9-.2 1.8-.9 2.6-1.9.9-1 1.4-2.6 1.8-4.9l2 .2zM1180.7 244h-7.7c-.3-.3-.7-.8-1.1-1.4-.4-.6-.9-1.3-1.4-2.1-.5-.8-.9-1.5-1.2-2l-2-3.2c-.9-1.4-1.5-2.4-2-3-.4-.5-.9-.9-1.5-1-.6-.2-1.6-.2-2.9-.2h-1.1v7.5c0 .8.1 1.4.3 1.9.2.5.6.9 1.2 1.1.6.3 1.6.4 2.8.4v1.9h-14.5V242c1.8 0 2.9-.3 3.4-.8s.7-1.4.7-2.6v-18.2c0-1.2-.2-2.1-.7-2.6-.5-.5-1.6-.8-3.4-.8v-2l6.7-.2c.5 0 1.1-.1 1.8-.1h4c1.4 0 2.8.1 4 .3 1.3.1 2.2.3 3 .5 1.1.3 2.1.7 3.1 1.3.9.6 1.7 1.5 2.3 2.5.6 1 .9 2.2.9 3.6 0 1-.2 1.9-.6 2.8-.4.9-1.1 1.7-2 2.4-.9.7-2.2 1.3-3.7 1.7 1 .6 1.9 1.4 2.6 2.3.7.9 1.8 2.6 3.4 5 .9 1.4 1.6 2.4 2.2 3.1.6.7 1.1 1.2 1.6 1.4.5.2 1.1.4 1.9.5v1.9zm-12-21.2c0-2.3-.7-3.8-2.1-4.6-1.4-.8-3.2-1.1-5.5-1.1H1159.8v11.6h1.4c2.2 0 4-.4 5.4-1.1 1.4-.6 2.1-2.2 2.1-4.8zM1223.1 235.7c0 .9-.2 1.8-.6 2.8-.4 1-1 2-1.7 2.9-.8.9-1.8 1.7-2.9 2.2-1.2.6-2.5.9-4.1.9-1.5 0-3.1-.3-4.6-1-1.5-.7-2.8-1.7-3.8-3-.5 1.1-.7 2-.9 2.9h-2v-9.9h2c.4 1.4.9 2.8 1.5 4 .6 1.3 1.5 2.3 2.7 3.2 1.1.9 2.5 1.4 4.2 1.4 1.4 0 2.6-.4 3.5-1.2.9-.8 1.3-1.8 1.3-3 0-.7-.1-1.3-.4-1.8-.3-.5-.7-1-1.2-1.4-.5-.4-1.2-.8-2.1-1.3-.9-.5-1.9-.9-3-1.4-1.8-.8-3.2-1.7-4.3-2.5-1.1-.8-2-1.7-2.6-2.4-.6-.8-.9-1.5-1.2-2.2-.2-.7-.3-1.4-.3-2.2 0-1.3.3-2.6 1-3.8.7-1.3 1.7-2.3 3.1-3.1 1.3-.8 2.9-1.2 4.7-1.2 1.3 0 2.6.3 3.9.9 1.2.6 2.3 1.4 3.2 2.5.3-.6.5-1.4.7-2.5h2v8.1h-2c-1.4-4.4-3.9-6.6-7.4-6.6-1.3 0-2.3.3-3.1 1-.8.7-1.2 1.5-1.2 2.6 0 .8.2 1.6.7 2.2.5.6 1.1 1.1 1.9 1.6.8.4 2.1 1.1 3.8 1.9 2.1 1 3.8 1.9 5 2.6 1.2.7 2.2 1.7 3.1 2.8.7 1.1 1.1 2.4 1.1 4zM1259.6 244h-14.7v-1.9c1.2 0 2.2-.1 2.8-.4.6-.2 1-.6 1.2-1 .2-.5.3-1.1.3-2v-18.2c0-1.3-.3-2.1-.8-2.7-.5-.5-1.7-.8-3.5-.8v-1.9h14.7v1.9c-1.2 0-2.1.1-2.8.4-.6.2-1 .6-1.2 1.1-.2.5-.3 1.1-.3 2v18.2c0 .8.1 1.5.3 2 .2.5.6.8 1.2 1.1.6.3 1.6.4 2.8.4v1.8zM1310.1 223.3h-2c-.2-1.8-.6-3.1-1.2-4-.6-.9-1.3-1.4-2-1.6-.7-.2-1.5-.3-2.4-.3h-3.7v21.2c0 .9.1 1.5.3 2 .2.5.6.8 1.2 1.1.6.3 1.5.4 2.8.4v1.9h-14.5v-1.9c1.8 0 2.9-.3 3.4-.8s.8-1.4.8-2.6v-21.2h-3.1c-1.2 0-2.2.1-3 .3-.8.2-1.5.7-2.1 1.6-.6.9-.9 2.2-1 4h-2v-8.2h28.6l-.1 8.1zM1361.3 217.1c-.8.1-1.4.2-2 .5-.5.3-1 .8-1.5 1.5s-1.3 1.8-2.3 3.3l-6.1 9.4v6.8c0 .8.1 1.4.3 1.9.1.5.5.8 1.1 1.1.6.3 1.5.4 2.8.4v1.9H1339V242c1.2 0 2.1-.1 2.7-.4.6-.2 1-.6 1.2-1 .2-.5.3-1.1.3-2v-6.5l-7.3-12.1c-.1-.1-.1-.2-.2-.3 0-.1-.1-.2-.1-.2-.6-1-1.2-1.7-1.7-2-.5-.3-1.2-.5-2.2-.5v-1.9h13.6v1.9c-.7 0-1.2 0-1.6.1-.4 0-.7.2-1 .3-.3.2-.4.5-.4.9 0 .3.1.6.3 1 .2.4.6 1.1 1.2 2.2l4.5 7.6 4.3-6.8c.9-1.5 1.4-2.6 1.4-3.2 0-.9-.3-1.4-.9-1.7-.6-.2-1.4-.3-2.4-.3v-1.9h10.5l.1 1.9zM756.4 244h-13.6v-2c1.1 0 2-.1 2.5-.2.5-.2.8-.6.8-1.2 0-.4-.1-.9-.3-1.3l-1.4-3.4H735l-.7 1.9c-.4 1.1-.6 1.8-.6 2.3 0 .9.3 1.4 1 1.6.7.2 1.4.3 2.3.3v2h-9.9v-2c.8 0 1.5-.1 2-.4.5-.3 1.1-.9 1.6-1.7.5-.8 1-2 1.6-3.5l8.3-21.8h2l8.8 22.5c.6 1.6 1.1 2.7 1.4 3.2.3.6.7 1 1.2 1.3.5.3 1.3.5 2.2.5l.2 1.9zm-12.7-10.1-4-10.1-3.8 10.1h7.8zM869.4 244h-14.5v-2c1.2 0 2.2-.1 2.7-.4.6-.2 1-.6 1.1-1.1.2-.5.3-1.1.3-2v-18.1L848.2 244h-1.3l-11.1-23.5v17.2c0 .9 0 1.6.1 2.1s.2.9.5 1.2c.3.3.7.6 1.2.8.6.2 1.4.2 2.4.2v2h-10.7v-2c1 0 1.8-.1 2.4-.3.6-.2 1-.4 1.2-.8.3-.3.4-.8.5-1.2.1-.5.1-1.2.1-2.1v-16.4c0-1.2-.1-2.1-.2-2.6s-.5-1-1.1-1.2c-.6-.3-1.5-.4-2.9-.4v-2h10.5l9.6 20.4L859 215h10.3v2c-1.8 0-2.9.3-3.4.8s-.8 1.4-.8 2.6v18.2c0 .8.1 1.4.3 1.9.2.5.6.9 1.2 1.1.6.3 1.5.4 2.8.4v2zM806.2 239.5c-.9 1.3-1.9 1.9-3.1 1.9-.9 0-1.8-.3-2.6-.8-.8-.6-2-1.9-3.4-4 .6-.9 1.3-2.1 2-3.9.9-2.2 1.8-3.7 2.6-4.4.8-.8 1.8-1.3 2.9-1.6l.2-.1v-1.4h-9.6v1.4h.2c2.1.2 3.1 1.1 3.1 2.6 0 .7-.2 1.6-.7 2.8-.4 1.1-1 2.1-1.7 3.2-.4-.6-6.5-9-6.8-9.4 4-2.1 6.1-4.2 6.1-6.4 0-1.5-.7-2.7-2-3.6-1.3-.9-2.7-1.4-4.3-1.4-1.8 0-3.3.6-4.5 1.8-1.2 1.2-1.8 2.6-1.8 4.1 0 1.9.8 4 2.4 6.2-2.6 1.8-4.5 3.3-5.5 4.5-1 1.3-1.5 2.8-1.5 4.7 0 1.6.4 3 1.2 4.3.8 1.2 1.9 2.2 3.1 2.9 1.3.7 2.6 1 4 1 2.8 0 5.4-1.4 7.9-4.1 2.1 2.7 4.6 4.1 7.3 4.1 1.3 0 2.5-.4 3.5-1.1 1-.7 1.7-1.8 2-3l.1-.3h-1.1zm-19.4-22.6c.6-.6 1.3-.9 2.3-.9 1 0 1.8.3 2.3 1 .6.7.9 1.6.9 2.6 0 1.8-1.4 3.5-4 5-1.6-2.2-2.4-4.1-2.4-5.3 0-1 .3-1.8.9-2.4zm1.6 24.4c-1.7 0-3.3-.8-4.6-2.3-1.4-1.5-2.1-3.1-2.1-4.8 0-1.1.4-2.2 1.2-3.4.7-1.1 1.9-2.1 3.2-3 2.1 2.8 4.6 6.3 7.5 10.7-1.6 1.9-3.3 2.8-5.2 2.8zM361.8 11.9h6v236.5h-6zM259.8 91.7h-27.4l-.7 1.3-18.8 39.2L194.1 93l-.7-1.3H164.5v18.1h6.6v56.1h-7V184H197v-18.1H189.8v-39.8l21 43.4 2.1 4.4 2.2-4.4 21.2-43.5v39.9h-7V184h32.9v-18.1H255v-56.1H262.2V91.7zM96.4 165.8h-7.5l-24.4-56.3H69.2V91.4H30.1v18.2h5.4l-24.4 56.3H1v18.2h35.5v-18.2H31.3l4.1-9.4h29.3l4 9.4h-5.4v18.2h35.5v-18.2h-2.4zm-39.6-27.5H43.2l6.8-15.7 6.8 15.7z"/><path class="st0" d="M230 21.3H29.8v58.2H69.3V57.2h42.1v139.1H89.2V235.8H173.3V196.3H151V57.2h42v22.1h39.7v-58H230zm-73 191.2 8.3-8.6v23.5l-8.3-8v-6.9zm-14-8-8.3 8.2V40.8l8.3 8.3v155.4zM46.5 37.8l-8.6-8.4h182.5l-10.8 8.4H46.5zm178.4 33.8-8.3-8V42.4l8.3-8.6v37.8zM471.6 15.9H532V35h-33.3v12.8H531v19.1h-32.3v28.3h-27.1V15.9zM554.5 15.9h37.3L617 95.2h-28.4L584 78.1h-22.8l-4.3 17.1h-27l24.6-79.3zM564.8 59h15.7l-7.7-26h-.2l-7.8 26zM681 93.4c-5.1 1.6-12.5 3.2-19.4 3.2-23.4 0-42.2-13.9-42.2-42.1 0-26.6 19.6-39.9 42.2-39.9 7.5 0 11.9 1 19.2 2.5V38c-4.4-1.6-9-3-13.5-3-11.5 0-20.2 6.9-20.2 19.9 0 13.6 8.1 20.6 19.3 20.6 4.9 0 9.7-1.1 14.6-3.1v21zM717.2 15.9v79.3h-27.1V15.9h27.1zM729.4 15.9h27.1v55.9h33.2v23.4h-60.3V15.9zM825.9 15.9v79.3h-27.1V15.9h27.1zM908.9 39.3H885v55.9h-27V39.3h-23.8V15.9H909v23.4zM944.1 15.9v79.3H917V15.9h27.1zM955.5 15.9h61.1V35H982v11.2h33.1v19.1H982v10.8h35.4v19.1h-61.8V15.9zM1084.7 37.6c-6.1-2.4-13.2-4-20.9-4-4.2 0-11.6.1-11.6 5.2 0 10.3 37.1.6 37.1 31.1 0 21.2-18.7 26.6-34.3 26.6-10.4 0-19-1.1-29.1-3.7V72.3c7.3 3.4 16.2 5.2 24.2 5.2 6.4 0 12.1-1.5 12.1-5.5 0-10.7-37.1-1-37.1-31.8 0-21.8 20.2-25.7 36.3-25.7 7.6 0 16 1 23.3 2.7v20.4zM531 193.3c-5.1 1.6-12.5 3.2-19.4 3.2-23.4 0-42.2-13.9-42.2-42.1 0-26.6 19.6-39.9 42.2-39.9 7.5 0 11.9 1 19.2 2.5v20.9c-4.4-1.6-9-3-13.5-3-11.5 0-20.2 6.9-20.2 19.9 0 13.6 8.1 20.6 19.3 20.6 4.9 0 9.7-1.1 14.6-3.1v21zM575.9 196.5c-24.6 0-39.1-14-39.1-41 0-26.6 14.4-41 39.1-41 24.6 0 39.4 14.4 39.4 41 0 27.1-14.7 41-39.4 41zm0-19.1c10.7 0 11-13.4 11.1-21.9-.1-7.4-.8-21.9-11.1-21.9-10 0-10.8 14.5-10.8 21.9 0 8.5 1.1 21.9 10.8 21.9zM660.3 196.5c-24.6 0-39.1-14-39.1-41 0-26.6 14.4-41 39.1-41s39.4 14.4 39.4 41c0 27.1-14.8 41-39.4 41zm0-19.1c10.7 0 11-13.4 11.1-21.9-.1-7.4-.8-21.9-11.1-21.9-10 0-10.8 14.5-10.8 21.9 0 8.5 1.1 21.9 10.8 21.9zM707.8 115.9h43.7c16.9 0 27.3 5.9 27.3 21.1 0 12.2-6.8 18.3-16.9 21v.2c5.9 1.1 9.4 4.3 11.9 8.5 4.1 8.4 3.8 20.7 6.7 28.4h-28.2c-1.2-5.7-1.5-18.1-3.7-22.8-1.6-3.6-4.3-4.1-7.7-4.1h-6.1v26.9h-27.1v-79.2zm25.8 34.6h7.1c5.6 0 11-.7 11-8.7 0-7.2-5.2-8.2-10.6-8.2h-7.5v16.9zM789.3 115.9H829c20.2 0 34.4 7.7 34.4 39.9 0 30-15.4 39.4-35.6 39.4h-38.6v-79.3zm27.1 59.5h6.8c9.8 0 12-7.3 12-20.4 0-13.6-2.4-20.7-12.1-20.7h-6.7v41.1zM900.8 115.9v79.3h-27.1v-79.3h27.1zM912.5 115.9H953l13 55.9h.2v-55.9h23.2v79.3h-39.8L936 137.7h-.2v57.5h-23.2v-79.3zM1019.3 115.9h37.3l25.2 79.3h-28.4l-4.6-17.1H1026l-4.3 17.1h-27l24.6-79.3zm10.3 43h15.7l-7.7-26h-.2l-7.8 26zM1151.1 139.3h-23.8v55.9h-27.1v-55.9h-23.8v-23.4h74.8v23.4zM1186.4 115.9v79.3h-27.1v-79.3h27.1zM1234.6 196.5c-24.6 0-39.1-14-39.1-41 0-26.6 14.4-41 39.1-41 24.6 0 39.4 14.4 39.4 41 0 27.1-14.8 41-39.4 41zm0-19.1c10.7 0 11-13.4 11.1-21.9-.1-7.4-.8-21.9-11.1-21.9-10 0-10.8 14.5-10.8 21.9 0 8.5 1.1 21.9 10.8 21.9zM1282.5 115.9h40.5l13 55.9h.2v-55.9h23.2v79.3h-39.8l-13.7-57.5h-.2v57.5h-23.2v-79.3z"/></svg>