<?xml version="1.0" encoding="utf-8"?>
<!-- Generator: Adobe Illustrator 21.1.0, SVG Export Plug-In . SVG Version: 6.00 Build 0)  -->
<svg version="1.1" id="Layer_1" xmlns="http://www.w3.org/2000/svg" xmlns:xlink="http://www.w3.org/1999/xlink" x="0px" y="0px"
	 viewBox="0 0 1366 250" style="enable-background:new 0 0 1366 250;" xml:space="preserve">
<style type="text/css">
	.st0{fill:#500000;}
</style>
<g>
	<g>
		<rect x="339.4" y="11" class="st0" width="5.7" height="222.7"/>
	</g>
	<g>
		<polygon class="st0" points="243.4,87.6 218.9,87.6 217.5,87.6 216.9,88.9 199.2,125.8 181.4,88.9 180.8,87.6 179.4,87.6 
			155.8,87.6 153.5,87.6 153.5,89.9 153.5,102.5 153.5,104.7 155.8,104.7 159.8,104.7 159.8,157.5 155.4,157.5 153.2,157.5 
			153.2,159.8 153.2,172.3 153.2,174.6 155.4,174.6 181.9,174.6 184.2,174.6 184.2,172.3 184.2,159.8 184.2,157.5 181.9,157.5 
			177.4,157.5 177.4,120 197.2,160.9 199.2,165 201.2,160.9 221.2,120 221.2,157.5 216.8,157.5 214.6,157.5 214.6,159.8 
			214.6,172.3 214.6,174.6 216.8,174.6 243.4,174.6 245.6,174.6 245.6,172.3 245.6,159.8 245.6,157.5 243.4,157.5 238.8,157.5 
			238.8,104.7 243.4,104.7 245.6,104.7 245.6,102.5 245.6,89.9 245.6,87.6 		"/>
		<path class="st0" d="M89.4,157.5h-7.1l-22.9-53h2.2h2.2v-2.2V89.6v-2.2h-2.2H29.2H27v2.2v12.6v2.2h2.2H32l-22.9,53H1.8h-2.3v2.3
			v12.6v2.2h2.3h28.9H33v-2.2v-12.6v-2.3h-2.3h-2.6l3.8-8.8h27.6l3.8,8.8h-2.9h-2.3v2.3v12.6v2.2h2.3h28.9h2.2v-2.2v-12.6v-2.3H89.4
			z M52.1,131.5H39.3l6.4-14.8L52.1,131.5z"/>
		<path class="st0" d="M215.3,21.3h-186h-2.6v2.6v49.7v2.6h2.6h32.1H64v-2.6V55.2h39.7v131H85.2h-2.6v2.6v32.1v2.6h2.6h74.2h2.6
			v-2.6v-32.1v-2.6h-2.6h-18.4v-131h39.5v18.2V76h2.6h32.3h2.6v-2.6V23.9v-2.6L215.3,21.3L215.3,21.3z M146.5,201.4l7.8-8.1v22.2
			l-7.8-7.5V201.4z M133.3,193.9l-7.9,7.7V39.7l7.9,7.8V193.9z M42.4,36.9L34.4,29h171.9l-10.2,7.9H42.4z M210.4,68.8l-7.8-7.5v-20
			l7.8-8.1V68.8z"/>
	</g>
	<g>
		<g>
			<path class="st0" d="M465.8,200h-1.9c-0.2-1.7-0.5-2.9-1.1-3.7c-0.6-0.8-1.2-1.3-1.8-1.5c-0.7-0.2-1.4-0.3-2.3-0.3h-3.5v19.9
				c0,0.8,0.1,1.4,0.2,1.8c0.2,0.4,0.5,0.8,1.1,1c0.6,0.2,1.5,0.4,2.6,0.4v1.8h-13.6v-1.8c1.7,0,2.7-0.2,3.2-0.7
				c0.5-0.5,0.7-1.3,0.7-2.5v-19.9h-2.9c-1.1,0-2.1,0.1-2.8,0.3c-0.7,0.2-1.4,0.7-2,1.5c-0.6,0.8-0.9,2.1-1,3.7h-1.9v-7.7h26.9
				L465.8,200L465.8,200z"/>
			<path class="st0" d="M514.9,210.6l-0.2,8.9h-24.2v-1.8c1.7,0,2.8-0.2,3.2-0.7c0.5-0.5,0.7-1.3,0.7-2.5v-17.1
				c0-0.8-0.1-1.4-0.2-1.8c-0.2-0.4-0.5-0.8-1.1-1c-0.6-0.2-1.5-0.4-2.6-0.4v-1.8H513l0.4,7.1h-1.8c-0.4-1.6-0.9-2.7-1.4-3.4
				c-0.5-0.7-1.2-1.1-1.8-1.2c-0.7-0.2-1.7-0.2-3-0.2h-5.1v9.6h2.8c1,0,1.7-0.1,2.1-0.2s0.8-0.5,1-1c0.2-0.5,0.3-1.2,0.4-2.2h1.9v9
				h-1.8c-0.1-1-0.2-1.7-0.4-2.2c-0.2-0.5-0.6-0.8-1-1c-0.5-0.2-1.2-0.2-2.1-0.2h-2.8v6.4c0,1.1,0,1.9,0.1,2.4
				c0.1,0.5,0.2,0.9,0.4,1.2c0.2,0.3,0.6,0.6,1.1,0.7c0.5,0.2,1.3,0.2,2.3,0.2h2.2c0.9,0,1.8-0.1,2.6-0.3c0.8-0.2,1.7-0.8,2.5-1.8
				c0.8-1,1.4-2.5,1.7-4.6L514.9,210.6L514.9,210.6z"/>
			<path class="st0" d="M571.1,219.5h-15.9v-1.8h1.3c0.7,0,1.3-0.1,1.9-0.3c0.6-0.2,0.8-0.6,0.8-1.2c0-0.3-0.4-0.9-1.1-1.9l-4.4-5.8
				l-4.2,4.9c-1,1.1-1.5,2-1.5,2.6c0,0.5,0.2,0.9,0.5,1.1c0.3,0.2,0.7,0.4,1.2,0.4c0.5,0.1,1.1,0.1,1.9,0.1v1.8h-12v-1.8
				c0.9,0,1.6-0.2,2.3-0.4c0.7-0.2,1.4-0.7,2.3-1.4c0.8-0.7,1.9-1.9,3.3-3.5l4.8-5.7l-6.6-8.6c-1-1.3-1.7-2.2-2.1-2.6
				c-0.4-0.5-1-0.8-1.5-1c-0.6-0.2-1.4-0.3-2.5-0.3v-1.8h14.9v1.8h-1c-0.8,0-1.3,0.1-1.7,0.2c-0.4,0.1-0.6,0.4-0.6,0.9
				c0,0.3,0.4,1,1.2,2.2l3.8,4.9l4.3-5.1c0.4-0.5,0.6-0.9,0.8-1.1c0.1-0.2,0.2-0.5,0.2-0.8c0-0.4-0.2-0.8-0.5-1
				c-0.3-0.2-1-0.3-1.9-0.3h-0.9v-1.8h11.3v1.8c-1,0-1.9,0.2-2.6,0.5c-0.7,0.3-1.4,0.8-1.9,1.3c-0.6,0.5-1.4,1.4-2.4,2.6l-4.9,5.6
				l6.6,8.7c1,1.3,1.8,2.3,2.4,3c0.6,0.7,1.3,1.1,1.9,1.4c0.7,0.3,1.5,0.4,2.6,0.5L571.1,219.5L571.1,219.5z"/>
			<path class="st0" d="M623.4,219.5h-12.8v-1.8c1.1,0,1.9-0.1,2.4-0.2c0.5-0.2,0.7-0.5,0.7-1.1c0-0.4-0.1-0.8-0.2-1.2l-1.3-3.2
				h-8.8l-0.7,1.8c-0.4,1-0.6,1.7-0.6,2.1c0,0.8,0.3,1.3,0.9,1.5c0.6,0.2,1.4,0.3,2.2,0.3v1.8h-9.4v-1.8c0.8,0,1.4-0.1,1.9-0.4
				c0.5-0.3,1-0.8,1.5-1.6c0.5-0.8,1-1.9,1.5-3.3l7.8-20.5h1.9l8.3,21.2c0.6,1.5,1,2.5,1.3,3c0.3,0.5,0.7,0.9,1.2,1.2
				c0.5,0.3,1.2,0.4,2.1,0.4L623.4,219.5L623.4,219.5z M611.4,209.9l-3.8-9.5l-3.6,9.5H611.4z"/>
			<path class="st0" d="M667,211.4c0,0.8-0.2,1.7-0.5,2.6c-0.4,0.9-0.9,1.8-1.6,2.7c-0.7,0.8-1.6,1.5-2.7,2.1
				c-1.1,0.5-2.3,0.8-3.8,0.8c-1.4,0-2.8-0.3-4.2-0.9c-1.4-0.6-2.6-1.5-3.5-2.7c-0.4,1-0.7,1.9-0.8,2.7H648v-9.1h1.8
				c0.3,1.3,0.8,2.5,1.4,3.7c0.6,1.2,1.4,2.1,2.4,3c1,0.8,2.4,1.2,3.9,1.2c1.3,0,2.4-0.4,3.2-1.1c0.8-0.7,1.2-1.7,1.2-2.8
				c0-0.6-0.1-1.2-0.4-1.6c-0.3-0.5-0.6-0.9-1.1-1.3c-0.5-0.4-1.1-0.8-1.9-1.2c-0.8-0.4-1.8-0.9-2.8-1.3c-1.6-0.8-2.9-1.5-4-2.3
				c-1-0.8-1.8-1.5-2.3-2.3c-0.5-0.7-0.9-1.4-1.1-2.1c-0.2-0.7-0.3-1.3-0.3-2c0-1.2,0.3-2.4,1-3.5c0.6-1.2,1.6-2.1,2.8-2.9
				c1.2-0.7,2.7-1.1,4.3-1.1c1.2,0,2.4,0.3,3.6,0.8c1.1,0.6,2.1,1.3,2.9,2.3c0.2-0.6,0.5-1.3,0.6-2.3h1.8v7.4h-1.8
				c-1.3-4-3.6-6.1-6.8-6.1c-1.2,0-2.1,0.3-2.8,0.9c-0.7,0.6-1.1,1.4-1.1,2.4c0,0.8,0.2,1.4,0.7,2c0.4,0.6,1,1.1,1.8,1.5
				c0.7,0.4,1.9,1,3.5,1.7c2,0.9,3.5,1.7,4.6,2.4c1.1,0.7,2,1.5,2.8,2.6C666.6,208.7,667,209.9,667,211.4z"/>
		</g>
		<g>
			<path class="st0" d="M922.3,194.1c-1.2,0-2.1,0.1-2.6,0.4c-0.5,0.3-0.9,0.7-1,1.2c-0.1,0.5-0.2,1.3-0.2,2.4v10.1
				c0,1.9-0.1,3.2-0.2,4.2c-0.1,0.9-0.5,1.9-1,2.8c-1,1.8-2.4,3.1-4.3,3.8c-1.8,0.7-3.6,1-5.3,1c-1.2,0-2.5-0.2-3.8-0.5
				c-1.3-0.3-2.5-0.9-3.7-1.6c-1.1-0.7-2-1.7-2.6-2.9c-0.3-0.7-0.6-1.3-0.7-2c-0.2-0.7-0.3-1.3-0.3-1.9c0-0.6-0.1-1.4-0.1-2.3
				l0-11.3c0-1.2-0.2-2-0.7-2.5c-0.5-0.5-1.5-0.7-3.2-0.7v-1.8h13.7v1.8c-1.2,0-2,0.1-2.6,0.4c-0.6,0.2-0.9,0.6-1.1,1
				c-0.2,0.4-0.3,1.1-0.3,1.9v11.3c0,1.2,0.1,2.2,0.2,3.1c0.1,0.9,0.3,1.7,0.5,2.3c0.5,1.1,1.2,2,2.3,2.6c1.1,0.6,2.3,1,3.6,1
				c1.4,0,2.7-0.4,3.9-1c1.2-0.7,2.1-1.6,2.5-2.7c0.4-0.9,0.6-1.7,0.7-2.7c0.1-0.9,0.2-2,0.2-3.3v-9.8c0-0.9,0-1.5-0.1-2
				c-0.1-0.4-0.2-0.8-0.4-1.1c-0.2-0.3-0.6-0.6-1.2-0.7c-0.6-0.1-1.3-0.2-2.3-0.2v-1.8h10L922.3,194.1L922.3,194.1z"/>
			<path class="st0" d="M976.8,194.1c-1.3,0-2.2,0.1-2.8,0.4c-0.6,0.3-0.9,0.7-1.1,1.2c-0.1,0.5-0.2,1.3-0.2,2.5v21.6h-1.8
				L953,198.6v15c0,1.1,0.1,2,0.2,2.5c0.1,0.5,0.5,0.9,1.1,1.2c0.6,0.3,1.5,0.4,2.8,0.4v1.8H947v-1.8c1.2,0,2.1-0.2,2.6-0.4
				c0.5-0.3,0.9-0.7,1-1.2c0.1-0.5,0.2-1.3,0.2-2.5v-13.9c0-1.1,0-2-0.1-2.5c-0.1-0.6-0.2-1.1-0.4-1.5c-0.2-0.4-0.6-0.8-1.1-1
				c-0.5-0.3-1.2-0.5-2.1-0.5v-1.8h7.9l15.5,18.3v-12.4c0-1-0.1-1.8-0.2-2.3c-0.1-0.5-0.5-1-1.1-1.3c-0.6-0.3-1.4-0.4-2.7-0.4v-1.8
				h10.2L976.8,194.1L976.8,194.1z"/>
			<path class="st0" d="M1015.3,219.5h-13.8v-1.8c1.2,0,2-0.1,2.6-0.4c0.6-0.2,1-0.5,1.2-1c0.2-0.5,0.3-1.1,0.3-1.9v-17.1
				c0-1.2-0.2-2-0.7-2.5c-0.5-0.5-1.6-0.7-3.3-0.7v-1.8h13.8v1.8c-1.2,0-2,0.1-2.6,0.3c-0.6,0.2-1,0.6-1.2,1
				c-0.2,0.5-0.3,1.1-0.3,1.9v17.1c0,0.8,0.1,1.4,0.3,1.8c0.2,0.4,0.5,0.8,1.1,1c0.6,0.3,1.5,0.4,2.7,0.4V219.5z"/>
			<path class="st0" d="M1070.1,194.1c-0.6,0-1.2,0.1-1.7,0.3c-0.5,0.2-0.9,0.4-1.2,0.8c-0.3,0.3-0.6,0.8-0.9,1.4
				c-0.3,0.6-0.7,1.5-1.3,2.8l-8.9,20.7h-1.9l-9.3-21.7c-0.6-1.4-1-2.3-1.3-2.8c-0.3-0.5-0.8-0.9-1.3-1.1c-0.5-0.2-1.3-0.3-2.4-0.3
				v-1.8h13.9v1.8c-1.3,0.1-2.2,0.2-2.7,0.3c-0.5,0.2-0.8,0.6-0.8,1.2c0,0.6,0.2,1.2,0.5,1.9l6.3,14.6l5.8-13.6
				c0.5-1.2,0.7-2,0.7-2.4c0-0.9-0.3-1.4-0.9-1.6c-0.6-0.2-1.5-0.3-2.7-0.4v-1.8h10.1L1070.1,194.1L1070.1,194.1z"/>
			<path class="st0" d="M1119.3,210.6l-0.2,9h-24.3v-1.8c1.7,0,2.8-0.3,3.3-0.7c0.5-0.5,0.7-1.3,0.7-2.5v-17.1
				c0-0.8-0.1-1.4-0.2-1.8c-0.2-0.4-0.5-0.8-1.1-1c-0.6-0.2-1.4-0.4-2.6-0.4v-1.8h22.6l0.3,7.1h-1.8c-0.4-1.6-0.9-2.7-1.4-3.4
				c-0.6-0.7-1.2-1.1-1.8-1.2c-0.7-0.2-1.7-0.2-3-0.2h-5.1v9.6h2.8c1,0,1.7-0.1,2.1-0.3c0.5-0.2,0.8-0.5,1-0.9
				c0.2-0.5,0.3-1.2,0.4-2.2h1.9v9.1h-1.9c-0.1-1-0.2-1.8-0.4-2.2c-0.2-0.5-0.5-0.8-1-0.9c-0.5-0.2-1.2-0.3-2.1-0.3h-2.8v6.4
				c0,1.1,0,1.9,0.1,2.4c0.1,0.5,0.2,0.9,0.4,1.2c0.2,0.3,0.6,0.6,1.1,0.7c0.5,0.1,1.3,0.2,2.3,0.2h2.2c0.9,0,1.8-0.1,2.6-0.4
				c0.8-0.2,1.7-0.8,2.5-1.8c0.8-1,1.4-2.5,1.7-4.6L1119.3,210.6L1119.3,210.6z"/>
			<path class="st0" d="M1173.4,219.5h-7.3c-0.3-0.3-0.6-0.7-1-1.3c-0.4-0.6-0.8-1.2-1.3-2c-0.5-0.8-0.8-1.4-1.1-1.9l-1.9-3.1
				c-0.8-1.4-1.5-2.3-1.9-2.8c-0.4-0.5-0.9-0.8-1.4-1c-0.5-0.1-1.5-0.2-2.8-0.2h-1v7.1c0,0.7,0.1,1.4,0.3,1.8c0.1,0.5,0.5,0.8,1.1,1
				c0.6,0.3,1.5,0.4,2.6,0.4v1.8H1144v-1.8c1.7,0,2.7-0.3,3.2-0.7c0.5-0.5,0.7-1.3,0.7-2.5v-17.2c0-1.2-0.2-2-0.7-2.5
				c-0.5-0.5-1.5-0.7-3.2-0.7v-1.9l6.3-0.2c0.5,0,1-0.1,1.7-0.1c0.6,0,1.2,0,1.7,0c0.4,0,1.1,0,2.1,0c1.4,0,2.6,0.1,3.8,0.3
				c1.2,0.1,2.1,0.3,2.8,0.5c1,0.3,2,0.7,2.9,1.3c0.9,0.6,1.6,1.4,2.2,2.3c0.6,1,0.8,2.1,0.8,3.4c0,0.9-0.2,1.8-0.6,2.6
				c-0.4,0.9-1,1.6-1.9,2.3c-0.9,0.7-2,1.2-3.5,1.6c1,0.6,1.8,1.3,2.5,2.1c0.7,0.9,1.7,2.4,3.2,4.7c0.8,1.3,1.5,2.3,2.1,2.9
				c0.5,0.7,1.1,1.1,1.5,1.4c0.5,0.2,1.1,0.4,1.8,0.5V219.5z M1162.1,199.5c0-2.2-0.7-3.6-2-4.3c-1.3-0.7-3-1.1-5.2-1.1
				c-0.3,0-0.5,0-0.7,0c-0.2,0-0.4,0-0.6,0v11h1.3c2,0,3.7-0.3,5.1-1C1161.4,203.5,1162.1,201.9,1162.1,199.5z"/>
			<path class="st0" d="M1217.5,211.7c0,0.9-0.2,1.7-0.6,2.7c-0.4,0.9-0.9,1.9-1.6,2.7c-0.7,0.9-1.7,1.6-2.8,2.1
				c-1.1,0.5-2.4,0.8-3.8,0.8s-2.9-0.3-4.3-0.9c-1.4-0.6-2.6-1.6-3.6-2.8c-0.4,1-0.7,1.9-0.8,2.8h-1.8v-9.3h1.8
				c0.3,1.3,0.8,2.6,1.4,3.8c0.6,1.2,1.4,2.2,2.5,3c1.1,0.8,2.4,1.3,4,1.3c1.4,0,2.5-0.4,3.3-1.1c0.8-0.8,1.2-1.7,1.2-2.8
				c0-0.6-0.1-1.2-0.4-1.7c-0.3-0.5-0.6-0.9-1.1-1.3c-0.5-0.4-1.1-0.8-2-1.2c-0.8-0.4-1.8-0.9-2.9-1.4c-1.7-0.8-3-1.6-4.1-2.4
				c-1.1-0.8-1.9-1.6-2.4-2.3c-0.5-0.7-0.9-1.4-1.1-2.1c-0.2-0.7-0.3-1.4-0.3-2c0-1.2,0.3-2.4,1-3.6c0.7-1.2,1.6-2.2,2.9-2.9
				c1.3-0.7,2.7-1.1,4.4-1.1c1.3,0,2.5,0.3,3.6,0.9c1.2,0.6,2.1,1.3,3,2.3c0.3-0.6,0.5-1.4,0.7-2.4h1.9v7.6h-1.9
				c-1.3-4.2-3.7-6.2-7-6.2c-1.2,0-2.2,0.3-2.9,1c-0.7,0.6-1.1,1.5-1.1,2.5c0,0.8,0.2,1.5,0.7,2.1c0.5,0.6,1.1,1.1,1.8,1.5
				c0.7,0.4,2,1,3.6,1.8c2,0.9,3.6,1.8,4.7,2.5c1.1,0.7,2.1,1.6,2.9,2.6C1217.1,208.9,1217.5,210.2,1217.5,211.7z"/>
			<path class="st0" d="M1256,219.5h-13.8v-1.8c1.2,0,2-0.1,2.6-0.4c0.6-0.2,1-0.5,1.2-1c0.2-0.5,0.3-1.1,0.3-1.9v-17.1
				c0-1.2-0.3-2-0.7-2.5c-0.5-0.5-1.6-0.7-3.3-0.7v-1.8h13.8v1.8c-1.1,0-2,0.1-2.6,0.3c-0.6,0.2-1,0.6-1.2,1
				c-0.2,0.5-0.3,1.1-0.3,1.9v17.1c0,0.8,0.1,1.4,0.3,1.8c0.2,0.4,0.6,0.8,1.1,1c0.6,0.3,1.5,0.4,2.7,0.4L1256,219.5L1256,219.5z"/>
			<path class="st0" d="M1307.6,200h-1.9c-0.2-1.7-0.5-2.9-1.1-3.7c-0.6-0.8-1.2-1.3-1.9-1.5c-0.6-0.2-1.4-0.3-2.2-0.3h-3.5v20
				c0,0.8,0.1,1.4,0.2,1.8c0.2,0.4,0.5,0.8,1.1,1c0.6,0.3,1.5,0.4,2.6,0.4v1.8h-13.7v-1.8c1.7,0,2.7-0.3,3.2-0.7
				c0.5-0.5,0.7-1.3,0.7-2.5v-20h-2.9c-1.1,0-2.1,0.1-2.8,0.3c-0.7,0.2-1.4,0.7-2,1.5s-0.9,2.1-1,3.8h-1.9v-7.7h26.9L1307.6,200
				L1307.6,200z"/>
			<path class="st0" d="M1360,194.1c-0.7,0.1-1.3,0.2-1.8,0.5c-0.5,0.3-1,0.7-1.5,1.4c-0.5,0.6-1.2,1.7-2.2,3.1l-5.7,8.9v6.4
				c0,0.7,0.1,1.3,0.2,1.8c0.1,0.4,0.5,0.8,1.1,1c0.6,0.3,1.4,0.4,2.7,0.4v1.8h-13.7v-1.8c1.1,0,2-0.1,2.6-0.4c0.6-0.2,1-0.5,1.1-1
				c0.2-0.5,0.3-1.1,0.3-1.9v-6.1l-6.8-11.4c-0.1-0.1-0.1-0.2-0.2-0.3c0-0.1-0.1-0.2-0.1-0.2c-0.6-1-1.1-1.6-1.6-1.9
				c-0.4-0.3-1.1-0.5-2-0.5v-1.8h12.8v1.8c-0.7,0-1.2,0-1.5,0.1c-0.4,0-0.7,0.1-0.9,0.3c-0.2,0.2-0.3,0.5-0.3,0.8
				c0,0.2,0.1,0.6,0.2,0.9c0.2,0.4,0.5,1,1.1,2l4.2,7.2l4-6.4c0.9-1.4,1.3-2.4,1.3-3c0-0.8-0.3-1.4-0.8-1.6
				c-0.5-0.2-1.3-0.3-2.3-0.3v-1.8h9.9L1360,194.1L1360,194.1z"/>
		</g>
		<g>
			<path class="st0" d="M735.7,219.5h-12.8v-1.8c1.1,0,1.9-0.1,2.4-0.2c0.5-0.2,0.7-0.5,0.7-1.1c0-0.4-0.1-0.8-0.2-1.2l-1.3-3.2
				h-8.8l-0.7,1.8c-0.4,1-0.6,1.7-0.6,2.1c0,0.8,0.3,1.3,0.9,1.5c0.6,0.2,1.3,0.3,2.2,0.3v1.8h-9.4v-1.8c0.7,0,1.4-0.1,1.9-0.4
				c0.5-0.3,1-0.8,1.5-1.6c0.5-0.8,1-1.9,1.5-3.3l7.9-20.5h1.9l8.3,21.2c0.6,1.5,1,2.5,1.3,3c0.3,0.5,0.7,0.9,1.2,1.2
				c0.5,0.3,1.2,0.4,2.1,0.4L735.7,219.5L735.7,219.5z M723.7,209.9l-3.8-9.5l-3.6,9.5H723.7z"/>
			<path class="st0" d="M851.4,219.5h-13.6v-1.8c1.2,0,2-0.1,2.6-0.4c0.5-0.2,0.9-0.6,1.1-1c0.2-0.4,0.3-1.1,0.3-1.8v-17.1
				l-10.3,22.1h-1.2l-10.4-22.1v16.2c0,0.9,0,1.5,0.1,2c0.1,0.5,0.2,0.8,0.5,1.2c0.2,0.3,0.6,0.6,1.2,0.7c0.5,0.1,1.3,0.2,2.2,0.2
				v1.8h-10.1v-1.8c1,0,1.7-0.1,2.2-0.2c0.5-0.2,0.9-0.4,1.2-0.7c0.2-0.3,0.4-0.7,0.4-1.2c0.1-0.4,0.1-1.1,0.1-2v-15.4
				c0-1.1-0.1-2-0.2-2.5c-0.1-0.5-0.4-0.9-1-1.2c-0.5-0.3-1.5-0.4-2.7-0.4v-1.8h9.9l9,19.2l9-19.2h9.7v1.8c-1.7,0-2.7,0.2-3.2,0.7
				c-0.5,0.5-0.7,1.3-0.7,2.5v17.1c0,0.7,0.1,1.3,0.2,1.8c0.2,0.5,0.5,0.8,1.1,1.1c0.6,0.2,1.5,0.4,2.6,0.4L851.4,219.5L851.4,219.5
				z"/>
			<path class="st0" d="M787.2,215.3L787.2,215.3c-0.8,1.2-1.7,1.8-2.9,1.8c-0.9,0-1.7-0.3-2.5-0.8c-0.8-0.5-1.9-1.8-3.2-3.7
				c0.6-0.8,1.2-2,1.9-3.7c0.8-2,1.7-3.4,2.5-4.2c0.8-0.7,1.7-1.2,2.8-1.5l0.2,0v-1.3h-9.1v1.3l0.2,0c2,0.2,2.9,1,2.9,2.5
				c0,0.6-0.2,1.5-0.6,2.6c-0.4,1-1,2-1.6,3c-0.4-0.5-6.1-8.5-6.4-8.9c3.8-1.9,5.7-4,5.7-6.1c0-1.4-0.6-2.5-1.8-3.4
				c-1.2-0.8-2.6-1.3-4-1.3c-1.7,0-3.1,0.6-4.2,1.7c-1.1,1.1-1.7,2.4-1.7,3.9c0,1.8,0.8,3.7,2.3,5.9c-2.5,1.7-4.2,3.1-5.2,4.3
				c-0.9,1.2-1.4,2.7-1.4,4.4c0,1.5,0.4,2.9,1.1,4c0.8,1.2,1.8,2.1,2.9,2.7c1.2,0.6,2.5,1,3.8,1c2.6,0,5.1-1.3,7.5-3.9
				c2,2.5,4.3,3.9,6.9,3.9c1.2,0,2.4-0.4,3.3-1.1c1-0.7,1.6-1.7,1.9-2.8l0.1-0.3H787.2z M768.9,193.9c0.6-0.6,1.3-0.9,2.2-0.9
				c0.9,0,1.7,0.3,2.2,0.9c0.6,0.6,0.8,1.5,0.8,2.5c0,1.7-1.3,3.3-3.8,4.8c-1.5-2.1-2.3-3.8-2.3-5
				C768.1,195.3,768.4,194.5,768.9,193.9z M770.4,217c-1.6,0-3.1-0.7-4.3-2.1c-1.3-1.4-1.9-2.9-1.9-4.5c0-1,0.4-2.1,1.1-3.2
				c0.7-1.1,1.7-2,3-2.8c2,2.6,4.3,6,7,10.1C773.8,216.1,772.2,217,770.4,217z"/>
		</g>
		<g>
			<path class="st0" d="M476.2,36.9h20.1v58.9h-20.1V74.6h-13.4v21.2h-20.1V36.9h20.1v20.3h13.4V36.9z"/>
			<path class="st0" d="M518.8,36.9h27.7l18.7,58.9h-21.1L540.6,83h-17l-3.2,12.7h-20L518.8,36.9z M526.4,68.9h11.6l-5.7-19.3h-0.2
				L526.4,68.9z"/>
			<path class="st0" d="M614.6,36.9v17.9l-24.8,25.3h25.7v15.7H567V77.9l25.7-25.8h-24.8V36.9H614.6z"/>
			<path class="st0" d="M635.7,36.9h27.7L682,95.8h-21.1L657.5,83h-17l-3.2,12.7h-20L635.7,36.9z M643.3,68.9h11.6l-5.7-19.3h-0.2
				L643.3,68.9z"/>
			<path class="st0" d="M685.5,36.9H718c12.5,0,20.3,4.4,20.3,15.7c0,9-5,13.6-12.5,15.6v0.2c4.4,0.8,7,3.2,8.9,6.3
				c3.1,6.2,2.9,15.3,5,21.1h-20.9c-0.9-4.2-1.1-13.4-2.8-17c-1.2-2.7-3.2-3-5.7-3h-4.5v20h-20.1V36.9z M704.7,62.6h5.3
				c4.1,0,8.2-0.5,8.2-6.5c0-5.3-3.8-6.1-7.9-6.1h-5.6V62.6z"/>
			<path class="st0" d="M746,36.9h29.5c15,0,25.6,5.7,25.6,29.6c0,22.3-11.4,29.3-26.4,29.3H746V36.9z M766.1,81.1h5
				c7.3,0,8.9-5.4,8.9-15.2c0-10.1-1.8-15.3-9-15.3h-5V81.1z"/>
			<path class="st0" d="M837.2,36.9h32.5c12.5,0,20.3,4.4,20.3,15.7c0,9-5,13.6-12.5,15.6v0.2c4.4,0.8,7,3.2,8.9,6.3
				c3.1,6.2,2.9,15.3,5,21.1h-20.9c-0.9-4.2-1.1-13.4-2.8-17c-1.2-2.7-3.2-3-5.7-3h-4.5v20h-20.1V36.9z M856.5,62.6h5.3
				c4.1,0,8.2-0.5,8.2-6.5c0-5.3-3.8-6.1-7.9-6.1h-5.6V62.6z"/>
			<path class="st0" d="M897.1,36.9h45.4v14.2h-25.7v8.3h24.6v14.2h-24.6v8H943v14.2h-45.9V36.9z"/>
			<path class="st0" d="M950.7,36.9h29.5c15,0,25.6,5.7,25.6,29.6c0,22.3-11.4,29.3-26.4,29.3h-28.7V36.9z M970.8,81.1h5
				c7.3,0,8.9-5.4,8.9-15.2c0-10.1-1.8-15.3-9-15.3h-5V81.1z"/>
			<path class="st0" d="M1033.4,71.8c0,5.6,1.4,9.8,6.2,9.8c5.3,0,6.4-4,6.4-9.7v-35h19.7v34.6c0,19.1-10.4,25.3-26.3,25.3
				c-14.6,0-26.1-6.7-26.1-24.1V36.9h20.1V71.8z"/>
			<path class="st0" d="M1118,94.4c-3.8,1.2-9.3,2.4-14.4,2.4c-17.4,0-31.4-10.3-31.4-31.3c0-19.7,14.6-29.6,31.4-29.6
				c5.6,0,8.9,0.8,14.3,1.9v15.5c-3.3-1.2-6.7-2.2-10.1-2.2c-8.6,0-15,5.1-15,14.8c0,10.1,6,15.3,14.3,15.3c3.7,0,7.2-0.8,10.9-2.3
				V94.4z"/>
			<path class="st0" d="M1177.2,54.3h-17.7v41.5h-20.1V54.3h-17.7V36.9h55.5V54.3z"/>
			<path class="st0" d="M1203.4,36.9v58.9h-20.1V36.9H1203.4z"/>
			<path class="st0" d="M1239.1,96.8c-18.3,0-29-10.4-29-30.4c0-19.7,10.7-30.4,29-30.4s29.3,10.7,29.3,30.4
				C1268.4,86.4,1257.4,96.8,1239.1,96.8z M1239.1,82.6c8,0,8.2-10,8.3-16.3c-0.1-5.5-0.6-16.3-8.3-16.3c-7.4,0-8,10.8-8,16.3
				C1231.1,72.7,1231.9,82.6,1239.1,82.6z"/>
			<path class="st0" d="M1274.7,36.9h30.1l9.7,41.5h0.2V36.9h17.3v58.9h-29.6l-10.2-42.7h-0.1v42.7h-17.3V36.9z"/>
		</g>
		<g>
			<path class="st0" d="M505,140.1c-1.5,7.6-5.3,13.4-9.8,18.2c5.4,5,10.7,9.9,15.8,15.2h-25.1l-3.2-3.7c-5.2,3.5-12.2,4.7-18.3,4.7
				c-10.4,0-23.4-3.4-23.4-17.4c0-7.4,5-12.1,10.7-14.8c-4.4-3-7.8-6.9-7.8-13c0-12.6,11.6-15.8,22.8-15.8c9.8,0,22.7,1.4,22.7,12.9
				c0,7.6-8.3,12.8-13.9,14.9c2.5,1.9,4.9,3.8,7.1,5.7c1.7-2,3-4.4,3.7-7.1H505z M462,150.7c-1.9,1.9-2.9,3.2-2.9,6.2
				c0,3.7,3.5,5.5,6.8,5.5c2.3,0,4.5-1,6.2-2.6L462,150.7z M472,128.3c0-3.1-2.2-4.6-5.3-4.6s-5.8,1.4-5.8,4.6
				c0,3.2,3.2,5.1,5.6,6.7C469,133.2,472,131.7,472,128.3z"/>
			<path class="st0" d="M545,114.6h32.5c12.5,0,20.3,4.4,20.3,15.7c0,9-5,13.6-12.5,15.6v0.2c4.4,0.8,7,3.2,8.9,6.3
				c3.1,6.2,2.9,15.3,5,21.1h-20.9c-0.9-4.2-1.1-13.4-2.8-17c-1.2-2.7-3.2-3-5.7-3h-4.5v20H545V114.6z M564.2,140.3h5.3
				c4.1,0,8.2-0.5,8.2-6.5c0-5.3-3.8-6.1-7.9-6.1h-5.6V140.3z"/>
			<path class="st0" d="M604.8,114.6h45.4v14.2h-25.7v8.3h24.6v14.2h-24.6v8h26.3v14.2h-45.9V114.6z"/>
			<path class="st0" d="M701.8,172.1c-3.8,1.2-9.3,2.4-14.4,2.4c-17.4,0-31.4-10.3-31.4-31.3c0-19.7,14.6-29.6,31.4-29.6
				c5.6,0,8.9,0.8,14.3,1.9V131c-3.3-1.2-6.7-2.2-10.1-2.2c-8.6,0-15,5.1-15,14.8c0,10.1,6,15.3,14.3,15.3c3.7,0,7.2-0.8,10.9-2.3
				V172.1z"/>
			<path class="st0" d="M735.2,174.5c-18.3,0-29-10.4-29-30.4c0-19.7,10.7-30.4,29-30.4s29.3,10.7,29.3,30.4
				C764.5,164.1,753.5,174.5,735.2,174.5z M735.2,160.3c8,0,8.2-10,8.3-16.3c-0.1-5.5-0.6-16.3-8.3-16.3c-7.4,0-8,10.8-8,16.3
				C727.2,150.4,728,160.3,735.2,160.3z"/>
			<path class="st0" d="M766.4,114.6h21.5l9.8,35.3h0.1l9.8-35.3h20.6l-19.4,58.9H785L766.4,114.6z"/>
			<path class="st0" d="M831.7,114.6h45.4v14.2h-25.7v8.3H876v14.2h-24.6v8h26.3v14.2h-45.9V114.6z"/>
			<path class="st0" d="M884.6,114.6h32.5c12.5,0,20.3,4.4,20.3,15.7c0,9-5,13.6-12.5,15.6v0.2c4.4,0.8,7,3.2,8.9,6.3
				c3.1,6.2,2.9,15.3,5,21.1h-20.9c-0.9-4.2-1.1-13.4-2.8-17c-1.2-2.7-3.2-3-5.7-3h-4.5v20h-20.1V114.6z M903.8,140.3h5.3
				c4.1,0,8.2-0.5,8.2-6.5c0-5.3-3.8-6.1-7.9-6.1h-5.6V140.3z"/>
			<path class="st0" d="M977,155.4v18h-20.1v-18l-19.4-40.8h21.8l8.2,24.6h0.1l8.3-24.6h20.8L977,155.4z"/>
			<path class="st0" d="M1073.5,172.1c-3.8,1.2-9.3,2.4-14.4,2.4c-17.4,0-31.4-10.3-31.4-31.3c0-19.7,14.6-29.6,31.4-29.6
				c5.6,0,8.9,0.8,14.3,1.9V131c-3.3-1.2-6.7-2.2-10.1-2.2c-8.6,0-15,5.1-15,14.8c0,10.1,6,15.3,14.3,15.3c3.7,0,7.2-0.8,10.9-2.3
				V172.1z"/>
			<path class="st0" d="M1079.5,114.6h45.4v14.2h-25.7v8.3h24.6v14.2h-24.6v8h26.3v14.2h-45.9V114.6z"/>
			<path class="st0" d="M1132.7,114.6h30.1l9.7,41.5h0.2v-41.5h17.3v58.9h-29.6l-10.2-42.7h-0.1v42.7h-17.3V114.6z"/>
			<path class="st0" d="M1251,132h-17.7v41.5h-20.1V132h-17.7v-17.4h55.5V132z"/>
			<path class="st0" d="M1256.3,114.6h45.4v14.2H1276v8.3h24.6v14.2H1276v8h26.3v14.2h-45.9V114.6z"/>
			<path class="st0" d="M1309.2,114.6h32.5c12.5,0,20.3,4.4,20.3,15.7c0,9-5,13.6-12.5,15.6v0.2c4.4,0.8,7,3.2,8.9,6.3
				c3.1,6.2,2.9,15.3,5,21.1h-20.9c-0.9-4.2-1.1-13.4-2.8-17c-1.2-2.7-3.2-3-5.7-3h-4.5v20h-20.1V114.6z M1328.4,140.3h5.3
				c4.1,0,8.2-0.5,8.2-6.5c0-5.3-3.8-6.1-7.9-6.1h-5.6V140.3z"/>
		</g>
	</g>
</g>
</svg>
