<?xml version="1.0" encoding="utf-8"?>
<!-- Generator: Adobe Illustrator 23.1.0, SVG Export Plug-In . SVG Version: 6.00 Build 0)  -->
<svg version="1.1" id="Layer_1" xmlns="http://www.w3.org/2000/svg" xmlns:xlink="http://www.w3.org/1999/xlink" x="0px" y="0px"
	 viewBox="0 0 326.4 87.3" style="enable-background:new 0 0 326.4 87.3;" xml:space="preserve">
<style type="text/css">
	.st0{fill:#500000;}
	.st1{fill:#FFFFFF;}
	.st2{fill:#B1B3B6;}
	.st3{fill:#231F20;}
	.st4{display:none;}
	.st5{display:inline;}
</style>
<g>
	<g>
		<rect x="12.6" y="12.8" class="st0" width="61.3" height="61.7"/>
		<polygon class="st1" points="65.7,37.4 61.2,37.4 60.9,37.4 60.8,37.6 57.5,44.5 54.2,37.6 54.1,37.4 53.8,37.4 49.4,37.4 
			49,37.4 49,37.8 49,40.1 49,40.5 49.4,40.5 50.1,40.5 50.1,50.4 49.3,50.4 48.9,50.4 48.9,50.8 48.9,53.1 48.9,53.6 49.3,53.6 
			54.3,53.6 54.7,53.6 54.7,53.1 54.7,50.8 54.7,50.4 54.3,50.4 53.4,50.4 53.4,43.4 57.1,51 57.5,51.8 57.9,51 61.6,43.4 
			61.6,50.4 60.8,50.4 60.4,50.4 60.4,50.8 60.4,53.1 60.4,53.6 60.8,53.6 65.7,53.6 66.1,53.6 66.1,53.1 66.1,50.8 66.1,50.4 
			65.7,50.4 64.9,50.4 64.9,40.5 65.7,40.5 66.1,40.5 66.1,40.1 66.1,37.8 66.1,37.4 		"/>
		<path class="st1" d="M37,50.4h-1.3l-4.3-9.9h0.8v-3.2h-6.9v3.2h0.9l-4.3,9.9h-1.8v3.2h6.2v-3.2h-0.9l0.7-1.6h5.1l0.7,1.6h-1v3.2
			h6.2v-3.2L37,50.4z M30.1,45.5h-2.4l1.2-2.8L30.1,45.5z"/>
		<polygon class="st1" points="60.5,25 25.8,25 25.4,25 25.4,25.5 25.4,34.8 25.4,35.2 25.8,35.2 31.8,35.2 32.3,35.2 32.3,34.8 
			32.3,31.3 39.7,31.3 39.7,55.7 36.3,55.7 35.8,55.7 35.8,56.2 35.8,62.2 35.8,62.6 36.3,62.6 50.1,62.6 50.5,62.6 50.5,62.2 
			50.5,56.2 50.5,55.7 50.1,55.7 46.6,55.7 46.6,31.3 54,31.3 54,34.7 54,35.2 54.5,35.2 60.5,35.2 61,35.2 61,34.7 61,25.5 61,25 
					"/>
		<polygon class="st2" points="47.7,58.6 49.1,57 49.1,61.2 47.7,59.8 		"/>
		<polygon class="st2" points="45.2,57.2 43.8,58.6 43.8,28.4 45.2,29.9 		"/>
		<polygon class="st2" points="28.3,27.9 26.8,26.4 58.8,26.4 56.9,27.9 		"/>
		<polygon class="st2" points="59.6,33.8 58.1,32.4 58.1,28.7 59.6,27.2 		"/>
		<path class="st0" d="M76,73.3c0-0.7,0.6-1.2,1.2-1.2c0.7,0,1.2,0.6,1.2,1.2s-0.6,1.2-1.2,1.2C76.6,74.5,76,74,76,73.3L76,73.3z
			 M78.2,73.3c0-0.5-0.5-0.9-1-0.9c-0.5,0-0.9,0.5-0.9,1c0,0.5,0.4,0.9,0.9,0.9C77.8,74.3,78.2,73.9,78.2,73.3
			C78.2,73.3,78.2,73.3,78.2,73.3z M76.8,72.6h0.5c0.3,0,0.5,0.1,0.5,0.4c0,0.2-0.1,0.4-0.3,0.4c0,0,0,0-0.1,0l0.4,0.6h-0.3
			l-0.4-0.6H77V74h-0.3L76.8,72.6z M77,73.2h0.2c0.2,0,0.3,0,0.3-0.2s-0.1-0.2-0.3-0.2H77V73.2z"/>
	</g>
	<g>
		<path class="st3" d="M95,30.8h-1.5v-8h-2.8v-1.3h7v1.3H95V30.8z"/>
		<path class="st3" d="M105.1,30.8h-5.3v-9.4h5.3v1.3h-3.8v2.5h3.5v1.3h-3.5v2.9h3.8V30.8z"/>
		<path class="st3" d="M114.7,30.8h-1.8l-2.3-3.8l-2.4,3.8h-1.6l3.1-4.8l-2.9-4.5h1.7l2.2,3.5l2.2-3.5h1.6l-2.9,4.5L114.7,30.8z"/>
		<path class="st3" d="M122.4,30.8l-0.9-2.6h-3.6l-0.9,2.6h-1.6l3.5-9.4h1.7l3.5,9.4H122.4z M121.1,26.9l-0.9-2.5
			c-0.1-0.2-0.2-0.4-0.3-0.8c-0.1-0.4-0.2-0.6-0.2-0.8c-0.1,0.5-0.3,1.1-0.5,1.7l-0.8,2.4H121.1z"/>
		<path class="st3" d="M131.3,28.3c0,0.8-0.3,1.5-0.9,2c-0.6,0.5-1.4,0.7-2.5,0.7c-1.1,0-1.9-0.2-2.6-0.5V29
			c0.4,0.2,0.9,0.4,1.4,0.5c0.5,0.1,0.9,0.2,1.3,0.2c0.6,0,1.1-0.1,1.3-0.3c0.3-0.2,0.4-0.5,0.4-0.9c0-0.3-0.1-0.6-0.4-0.9
			c-0.3-0.2-0.8-0.5-1.6-0.9c-0.9-0.3-1.5-0.7-1.8-1.2s-0.5-1-0.5-1.6c0-0.8,0.3-1.4,0.8-1.8c0.6-0.4,1.3-0.7,2.2-0.7
			c0.9,0,1.8,0.2,2.7,0.6l-0.5,1.2c-0.8-0.3-1.6-0.5-2.2-0.5c-0.5,0-0.9,0.1-1.1,0.3s-0.4,0.5-0.4,0.9c0,0.2,0.1,0.5,0.2,0.6
			c0.1,0.2,0.3,0.3,0.5,0.5c0.2,0.2,0.7,0.4,1.3,0.6c0.7,0.3,1.2,0.6,1.5,0.8c0.3,0.2,0.6,0.5,0.7,0.8
			C131.2,27.5,131.3,27.8,131.3,28.3z"/>
		<path class="st3" d="M143.6,30.8l-0.9-2.6h-3.6l-0.9,2.6h-1.6l3.5-9.4h1.7l3.5,9.4H143.6z M142.3,26.9l-0.9-2.5
			c-0.1-0.2-0.2-0.4-0.3-0.8c-0.1-0.4-0.2-0.6-0.2-0.8c-0.1,0.5-0.3,1.1-0.5,1.7l-0.8,2.4H142.3z"/>
		<path class="st3" d="M146.5,28.3c0-0.6,0.1-1,0.4-1.5c0.3-0.4,0.8-0.8,1.5-1.2c-0.4-0.5-0.7-0.9-0.8-1.2c-0.1-0.3-0.2-0.7-0.2-1
			c0-0.6,0.2-1.2,0.7-1.5c0.5-0.4,1.1-0.6,1.9-0.6c0.8,0,1.3,0.2,1.8,0.5c0.4,0.4,0.6,0.9,0.6,1.5c0,0.5-0.1,0.9-0.4,1.3
			s-0.8,0.8-1.4,1.2l2.2,2.1c0.3-0.5,0.6-1.1,0.9-2h1.5c-0.3,1.2-0.8,2.2-1.4,3l1.9,1.9h-1.9l-1-0.9c-0.4,0.4-0.9,0.6-1.4,0.8
			c-0.5,0.2-1,0.3-1.6,0.3c-1,0-1.8-0.2-2.3-0.7S146.5,29.1,146.5,28.3z M149.8,29.6c0.8,0,1.4-0.2,2-0.7l-2.4-2.4
			c-0.5,0.3-0.8,0.6-0.9,0.8c-0.2,0.3-0.3,0.5-0.3,0.9c0,0.4,0.1,0.8,0.4,1C148.9,29.5,149.3,29.6,149.8,29.6z M148.8,23.5
			c0,0.3,0.1,0.5,0.2,0.8c0.1,0.2,0.3,0.5,0.6,0.8c0.5-0.3,0.8-0.5,1-0.8c0.2-0.2,0.3-0.5,0.3-0.8c0-0.3-0.1-0.5-0.3-0.7
			c-0.2-0.2-0.4-0.2-0.7-0.2c-0.3,0-0.6,0.1-0.8,0.3S148.8,23.2,148.8,23.5z"/>
		<path class="st3" d="M161.5,30.8l-2.7-7.8h-0.1c0.1,1.2,0.1,2.2,0.1,3.3v4.5h-1.4v-9.4h2.2l2.6,7.4h0l2.7-7.4h2.2v9.4h-1.5v-4.6
			c0-0.5,0-1.1,0-1.8c0-0.7,0-1.2,0.1-1.4h-0.1l-2.8,7.8H161.5z"/>
		<path class="st3" d="M181.6,21.5v6.1c0,0.7-0.1,1.3-0.4,1.8c-0.3,0.5-0.7,0.9-1.3,1.2c-0.6,0.3-1.2,0.4-2,0.4
			c-1.2,0-2.1-0.3-2.7-0.9c-0.6-0.6-1-1.5-1-2.5v-6h1.5v5.9c0,0.8,0.2,1.3,0.5,1.7s0.9,0.6,1.7,0.6c1.4,0,2.2-0.8,2.2-2.3v-5.9
			H181.6z"/>
		<path class="st3" d="M192.5,30.8h-1.9l-4.6-7.5H186l0,0.4c0.1,0.8,0.1,1.5,0.1,2.2v4.9h-1.4v-9.4h1.9l4.6,7.4h0
			c0-0.1,0-0.5-0.1-1.1c0-0.6,0-1.1,0-1.4v-4.9h1.4V30.8z"/>
		<path class="st3" d="M195.6,30.8v-9.4h1.5v9.4H195.6z"/>
		<path class="st3" d="M205.6,21.5h1.6l-3.3,9.4h-1.6l-3.3-9.4h1.6l2,5.8c0.1,0.3,0.2,0.6,0.3,1.1s0.2,0.8,0.2,1
			c0.1-0.3,0.1-0.7,0.3-1.1c0.1-0.4,0.2-0.7,0.3-0.9L205.6,21.5z"/>
		<path class="st3" d="M214.3,30.8h-5.3v-9.4h5.3v1.3h-3.8v2.5h3.5v1.3h-3.5v2.9h3.8V30.8z"/>
		<path class="st3" d="M218.6,27.1v3.7H217v-9.4h2.6c1.2,0,2.1,0.2,2.7,0.7c0.6,0.5,0.9,1.1,0.9,2c0,1.2-0.6,2-1.8,2.5l2.6,4.1h-1.7
			l-2.2-3.7H218.6z M218.6,25.8h1.1c0.7,0,1.2-0.1,1.5-0.4c0.3-0.3,0.5-0.7,0.5-1.2c0-0.5-0.2-0.9-0.5-1.1c-0.3-0.2-0.9-0.3-1.6-0.3
			h-1V25.8z"/>
		<path class="st3" d="M231.4,28.3c0,0.8-0.3,1.5-0.9,2c-0.6,0.5-1.4,0.7-2.5,0.7s-1.9-0.2-2.6-0.5V29c0.4,0.2,0.9,0.4,1.4,0.5
			s0.9,0.2,1.3,0.2c0.6,0,1.1-0.1,1.3-0.3c0.3-0.2,0.4-0.5,0.4-0.9c0-0.3-0.1-0.6-0.4-0.9c-0.3-0.2-0.8-0.5-1.6-0.9
			c-0.9-0.3-1.5-0.7-1.8-1.2s-0.5-1-0.5-1.6c0-0.8,0.3-1.4,0.8-1.8c0.6-0.4,1.3-0.7,2.2-0.7c0.9,0,1.8,0.2,2.7,0.6l-0.5,1.2
			c-0.8-0.3-1.6-0.5-2.2-0.5c-0.5,0-0.9,0.1-1.1,0.3s-0.4,0.5-0.4,0.9c0,0.2,0.1,0.5,0.2,0.6s0.3,0.3,0.5,0.5s0.7,0.4,1.3,0.6
			c0.7,0.3,1.2,0.6,1.5,0.8c0.3,0.2,0.6,0.5,0.7,0.8C231.4,27.5,231.4,27.8,231.4,28.3z"/>
		<path class="st3" d="M233.9,30.8v-9.4h1.5v9.4H233.9z"/>
		<path class="st3" d="M241.8,30.8h-1.5v-8h-2.8v-1.3h7v1.3h-2.8V30.8z"/>
		<path class="st3" d="M249.3,25.7l2.2-4.3h1.7l-3.1,5.7v3.6h-1.5v-3.6l-3.1-5.8h1.7L249.3,25.7z"/>
	</g>
	<g>
		<path class="st3" d="M107.3,42.6v12c0,2.1-0.6,3.8-1.9,5s-3,1.8-5.3,1.8s-4-0.6-5.2-1.8s-1.8-2.9-1.8-5v-12h2.2v12.1
			c0,1.5,0.4,2.7,1.3,3.6s2.1,1.2,3.7,1.2c1.6,0,2.8-0.4,3.6-1.3s1.3-2,1.3-3.6V42.6H107.3z"/>
		<path class="st3" d="M121,61.2v-9c0-1.1-0.3-2-0.8-2.5s-1.3-0.8-2.4-0.8c-1.5,0-2.5,0.4-3.2,1.2s-1,2.1-1,3.9v7.3h-2.1V47.2h1.7
			l0.3,1.9h0.1c0.4-0.7,1-1.2,1.8-1.6s1.6-0.6,2.6-0.6c1.7,0,2.9,0.4,3.8,1.2s1.3,2.1,1.3,3.9v9.1H121z"/>
		<path class="st3" d="M126.9,43.5c0-0.5,0.1-0.8,0.4-1.1s0.5-0.3,0.9-0.3c0.3,0,0.6,0.1,0.9,0.3s0.4,0.6,0.4,1.1s-0.1,0.8-0.4,1.1
			s-0.5,0.3-0.9,0.3c-0.4,0-0.7-0.1-0.9-0.3S126.9,44,126.9,43.5z M129.2,61.2h-2.1V47.2h2.1V61.2z"/>
		<path class="st3" d="M136.3,61.2L131,47.2h2.3l3,8.3c0.7,1.9,1.1,3.2,1.2,3.8h0.1c0.1-0.4,0.4-1.4,0.9-2.8
			c0.5-1.4,1.6-4.5,3.3-9.2h2.3l-5.3,13.9H136.3z"/>
		<path class="st3" d="M151.8,61.4c-2.1,0-3.7-0.6-4.9-1.9c-1.2-1.3-1.8-3-1.8-5.2c0-2.2,0.6-4,1.7-5.3c1.1-1.3,2.6-2,4.4-2
			c1.7,0,3.1,0.6,4.1,1.7s1.5,2.7,1.5,4.5v1.3h-9.6c0,1.6,0.5,2.9,1.2,3.7c0.8,0.8,1.9,1.3,3.3,1.3c1.5,0,3-0.3,4.4-0.9v1.9
			c-0.7,0.3-1.4,0.6-2.1,0.7C153.5,61.3,152.7,61.4,151.8,61.4z M151.2,48.8c-1.1,0-2,0.4-2.7,1.1c-0.7,0.7-1.1,1.7-1.2,3h7.3
			c0-1.3-0.3-2.3-0.9-3.1S152.3,48.8,151.2,48.8z"/>
		<path class="st3" d="M166.4,47c0.6,0,1.2,0.1,1.7,0.2l-0.3,2c-0.6-0.1-1.1-0.2-1.5-0.2c-1.1,0-2.1,0.5-2.9,1.4
			c-0.8,0.9-1.2,2.1-1.2,3.4v7.5h-2.1V47.2h1.7l0.2,2.6h0.1c0.5-0.9,1.1-1.6,1.9-2.1S165.6,47,166.4,47z"/>
		<path class="st3" d="M179.3,57.4c0,1.3-0.5,2.3-1.4,3s-2.3,1.1-4.1,1.1c-1.8,0-3.3-0.3-4.3-0.9v-2c0.7,0.3,1.4,0.6,2.2,0.8
			c0.8,0.2,1.5,0.3,2.2,0.3c1.1,0,1.9-0.2,2.5-0.5s0.9-0.9,0.9-1.6c0-0.5-0.2-1-0.7-1.4c-0.5-0.4-1.4-0.8-2.7-1.4
			c-1.3-0.5-2.2-0.9-2.8-1.3c-0.5-0.4-1-0.8-1.2-1.2c-0.3-0.5-0.4-1-0.4-1.6c0-1.1,0.5-2,1.4-2.7s2.2-1,3.8-1c1.5,0,3,0.3,4.4,0.9
			l-0.7,1.7c-1.4-0.6-2.7-0.9-3.8-0.9c-1,0-1.8,0.2-2.3,0.5s-0.8,0.7-0.8,1.3c0,0.4,0.1,0.7,0.3,1c0.2,0.3,0.5,0.5,0.9,0.7
			s1.2,0.6,2.4,1c1.7,0.6,2.8,1.2,3.3,1.8C179,55.7,179.3,56.4,179.3,57.4z"/>
		<path class="st3" d="M182.2,43.5c0-0.5,0.1-0.8,0.4-1.1s0.5-0.3,0.9-0.3c0.3,0,0.6,0.1,0.9,0.3s0.4,0.6,0.4,1.1s-0.1,0.8-0.4,1.1
			s-0.5,0.3-0.9,0.3c-0.4,0-0.7-0.1-0.9-0.3S182.2,44,182.2,43.5z M184.4,61.2h-2.1V47.2h2.1V61.2z"/>
		<path class="st3" d="M193,59.7c0.4,0,0.7,0,1.1-0.1s0.6-0.1,0.8-0.2V61c-0.2,0.1-0.6,0.2-1,0.3c-0.4,0.1-0.8,0.1-1.2,0.1
			c-2.7,0-4-1.4-4-4.3v-8.3h-2v-1l2-0.9l0.9-3h1.2v3.2h4v1.6h-4v8.2c0,0.8,0.2,1.5,0.6,1.9S192.3,59.7,193,59.7z"/>
		<path class="st3" d="M195.1,47.2h2.3l3,7.9c0.7,1.8,1.1,3.1,1.2,3.9h0.1c0.1-0.4,0.3-1.2,0.7-2.2c0.4-1,1.5-4.3,3.4-9.6h2.3
			l-6,15.8c-0.6,1.6-1.3,2.7-2.1,3.3c-0.8,0.7-1.8,1-2.9,1c-0.6,0-1.3-0.1-1.9-0.2v-1.7c0.5,0.1,1,0.2,1.6,0.2
			c1.4,0,2.5-0.8,3.1-2.4l0.8-2L195.1,47.2z"/>
		<path class="st3" d="M228.4,61.2l-2.3-5.9h-7.4l-2.3,5.9h-2.2l7.3-18.6h1.8l7.3,18.6H228.4z M225.4,53.3l-2.2-5.8
			c-0.3-0.7-0.6-1.6-0.9-2.7c-0.2,0.8-0.5,1.7-0.8,2.7l-2.2,5.8H225.4z"/>
		<path class="st3" d="M238.8,47c0.6,0,1.2,0.1,1.7,0.2l-0.3,2c-0.6-0.1-1.1-0.2-1.5-0.2c-1.1,0-2.1,0.5-2.9,1.4
			c-0.8,0.9-1.2,2.1-1.2,3.4v7.5h-2.1V47.2h1.7l0.2,2.6h0.1c0.5-0.9,1.1-1.6,1.9-2.1S237.9,47,238.8,47z"/>
		<path class="st3" d="M248.2,61.4c-2,0-3.6-0.6-4.7-1.9c-1.1-1.2-1.7-3-1.7-5.3c0-2.3,0.6-4.1,1.7-5.4c1.1-1.3,2.7-1.9,4.8-1.9
			c0.7,0,1.3,0.1,2,0.2s1.2,0.3,1.6,0.5l-0.6,1.8c-0.5-0.2-1-0.3-1.5-0.5s-1-0.2-1.5-0.2c-2.8,0-4.2,1.8-4.2,5.4c0,1.7,0.3,3,1,3.9
			c0.7,0.9,1.7,1.4,3.1,1.4c1.2,0,2.3-0.2,3.6-0.7v1.9C250.8,61.2,249.6,61.4,248.2,61.4z"/>
		<path class="st3" d="M264.2,61.2v-9c0-1.1-0.3-2-0.8-2.5s-1.3-0.8-2.4-0.8c-1.5,0-2.5,0.4-3.2,1.2c-0.7,0.8-1,2.1-1,3.9v7.3h-2.1
			V41.4h2.1v6c0,0.7,0,1.3-0.1,1.8h0.1c0.4-0.7,1-1.2,1.8-1.6c0.8-0.4,1.6-0.6,2.6-0.6c1.7,0,3,0.4,3.8,1.2c0.8,0.8,1.3,2.1,1.3,3.9
			v9.1H264.2z"/>
		<path class="st3" d="M270.1,43.5c0-0.5,0.1-0.8,0.4-1.1s0.5-0.3,0.9-0.3c0.3,0,0.6,0.1,0.9,0.3s0.4,0.6,0.4,1.1s-0.1,0.8-0.4,1.1
			s-0.5,0.3-0.9,0.3c-0.4,0-0.7-0.1-0.9-0.3S270.1,44,270.1,43.5z M272.3,61.2h-2.1V47.2h2.1V61.2z"/>
		<path class="st3" d="M280.9,59.7c0.4,0,0.7,0,1.1-0.1s0.6-0.1,0.8-0.2V61c-0.2,0.1-0.6,0.2-1,0.3c-0.4,0.1-0.8,0.1-1.2,0.1
			c-2.7,0-4-1.4-4-4.3v-8.3h-2v-1l2-0.9l0.9-3h1.2v3.2h4v1.6h-4v8.2c0,0.8,0.2,1.5,0.6,1.9S280.2,59.7,280.9,59.7z"/>
		<path class="st3" d="M291.1,61.4c-2.1,0-3.7-0.6-4.9-1.9c-1.2-1.3-1.8-3-1.8-5.2c0-2.2,0.6-4,1.7-5.3c1.1-1.3,2.6-2,4.4-2
			c1.7,0,3.1,0.6,4.1,1.7s1.5,2.7,1.5,4.5v1.3h-9.6c0,1.6,0.5,2.9,1.2,3.7c0.8,0.8,1.9,1.3,3.3,1.3c1.5,0,3-0.3,4.4-0.9v1.9
			c-0.7,0.3-1.4,0.6-2.1,0.7C292.8,61.3,292,61.4,291.1,61.4z M290.5,48.8c-1.1,0-2,0.4-2.7,1.1c-0.7,0.7-1.1,1.7-1.2,3h7.3
			c0-1.3-0.3-2.3-0.9-3.1S291.6,48.8,290.5,48.8z"/>
		<path class="st3" d="M305,61.4c-2,0-3.6-0.6-4.7-1.9c-1.1-1.2-1.7-3-1.7-5.3c0-2.3,0.6-4.1,1.7-5.4c1.1-1.3,2.7-1.9,4.8-1.9
			c0.7,0,1.3,0.1,2,0.2s1.2,0.3,1.6,0.5l-0.6,1.8c-0.5-0.2-1-0.3-1.5-0.5s-1-0.2-1.5-0.2c-2.8,0-4.2,1.8-4.2,5.4c0,1.7,0.3,3,1,3.9
			c0.7,0.9,1.7,1.4,3.1,1.4c1.2,0,2.3-0.2,3.6-0.7v1.9C307.5,61.2,306.4,61.4,305,61.4z"/>
		<path class="st3" d="M315.9,59.7c0.4,0,0.7,0,1.1-0.1s0.6-0.1,0.8-0.2V61c-0.2,0.1-0.6,0.2-1,0.3c-0.4,0.1-0.8,0.1-1.2,0.1
			c-2.7,0-4-1.4-4-4.3v-8.3h-2v-1l2-0.9l0.9-3h1.2v3.2h4v1.6h-4v8.2c0,0.8,0.2,1.5,0.6,1.9S315.2,59.7,315.9,59.7z"/>
	</g>
</g>
<g class="st4">
	<g class="st5">
		<rect x="12.9" y="13" class="st0" width="61.2" height="61.6"/>
		<polygon class="st1" points="65.9,37.5 61.4,37.5 61.1,37.5 61,37.7 57.7,44.6 54.4,37.7 54.3,37.5 54,37.5 49.6,37.5 49.2,37.5 
			49.2,37.9 49.2,40.2 49.2,40.6 49.6,40.6 50.3,40.6 50.3,50.5 49.5,50.5 49.1,50.5 49.1,50.9 49.1,53.2 49.1,53.7 49.5,53.7 
			54.5,53.7 54.9,53.7 54.9,53.2 54.9,50.9 54.9,50.5 54.5,50.5 53.6,50.5 53.6,43.5 57.3,51.1 57.7,51.9 58.1,51.1 61.8,43.5 
			61.8,50.5 61,50.5 60.6,50.5 60.6,50.9 60.6,53.2 60.6,53.7 61,53.7 65.9,53.7 66.3,53.7 66.3,53.2 66.3,50.9 66.3,50.5 
			65.9,50.5 65.1,50.5 65.1,40.6 65.9,40.6 66.3,40.6 66.3,40.2 66.3,37.9 66.3,37.5 		"/>
		<path class="st1" d="M37.2,50.5h-1.3l-4.3-9.9h0.8v-3.2h-6.9v3.2h0.9l-4.3,9.9h-1.8v3.2h6.2v-3.2h-0.9l0.7-1.6h5.1l0.7,1.6h-1v3.2
			h6.2L37.2,50.5L37.2,50.5z M30.3,45.6h-2.4l1.2-2.8L30.3,45.6z"/>
		<polygon class="st1" points="60.7,25.2 26,25.2 25.6,25.2 25.6,25.7 25.6,34.9 25.6,35.3 26,35.3 32,35.3 32.5,35.3 32.5,34.9 
			32.5,31.5 39.9,31.5 39.9,55.8 36.5,55.8 36,55.8 36,56.3 36,62.3 36,62.7 36.5,62.7 50.3,62.7 50.7,62.7 50.7,62.3 50.7,56.3 
			50.7,55.8 50.3,55.8 46.8,55.8 46.8,31.5 54.2,31.5 54.2,34.8 54.2,35.3 54.7,35.3 60.7,35.3 61.2,35.3 61.2,34.8 61.2,25.7 
			61.2,25.2 		"/>
		<polygon class="st2" points="47.9,58.7 49.3,57.1 49.3,61.3 47.9,59.9 		"/>
		<polygon class="st2" points="45.4,57.3 44,58.7 44,28.6 45.4,30.1 		"/>
		<polygon class="st2" points="28.5,28.1 27,26.6 59,26.6 57.1,28.1 		"/>
		<polygon class="st2" points="59.8,33.9 58.3,32.6 58.3,28.9 59.8,27.4 		"/>
		<path class="st0" d="M76.1,73.4c0-0.7,0.6-1.2,1.2-1.2c0.7,0,1.2,0.6,1.2,1.2c0,0.6-0.6,1.2-1.2,1.2S76.1,74.1,76.1,73.4
			L76.1,73.4z M78.3,73.4c0-0.5-0.5-0.9-1-0.9s-0.9,0.5-0.9,1c0,0.5,0.4,0.9,0.9,0.9C77.9,74.4,78.3,74,78.3,73.4L78.3,73.4z
			 M76.9,72.7h0.5c0.3,0,0.5,0.1,0.5,0.4c0,0.2-0.1,0.4-0.3,0.4c0,0,0,0-0.1,0l0.4,0.6h-0.3l-0.4-0.6h-0.1v0.6h-0.3L76.9,72.7z
			 M77.1,73.3h0.2c0.2,0,0.3,0,0.3-0.2s-0.1-0.2-0.3-0.2h-0.2V73.3z"/>
	</g>
	<g class="st5">
		<path class="st3" d="M95.1,31h-1.5v-8h-2.8v-1.3h7V23h-2.7V31z"/>
		<path class="st3" d="M105.2,31h-5.3v-9.4h5.3v1.3h-3.8v2.5h3.5v1.3h-3.5v2.9h3.8V31z"/>
		<path class="st3" d="M114.8,31H113l-2.3-3.8l-2.4,3.8h-1.6l3.1-4.8l-2.9-4.5h1.7l2.2,3.5l2.2-3.5h1.6l-2.9,4.5L114.8,31z"/>
		<path class="st3" d="M122.4,31l-0.9-2.6h-3.6l-0.9,2.6h-1.6l3.5-9.4h1.7l3.5,9.4H122.4z M121.1,27.1l-0.9-2.5
			c-0.1-0.2-0.2-0.4-0.3-0.8c-0.1-0.4-0.2-0.6-0.2-0.8c-0.1,0.5-0.3,1.1-0.5,1.7l-0.8,2.4C118.4,27.1,121.1,27.1,121.1,27.1z"/>
		<path class="st3" d="M131.3,28.5c0,0.8-0.3,1.5-0.9,2s-1.4,0.7-2.5,0.7c-1.1,0-1.9-0.2-2.6-0.5v-1.5c0.4,0.2,0.9,0.4,1.4,0.5
			s0.9,0.2,1.3,0.2c0.6,0,1.1-0.1,1.3-0.3c0.3-0.2,0.4-0.5,0.4-0.9c0-0.3-0.1-0.6-0.4-0.9c-0.3-0.2-0.8-0.5-1.6-0.9
			c-0.9-0.3-1.5-0.7-1.8-1.2c-0.3-0.5-0.5-1-0.5-1.6c0-0.8,0.3-1.4,0.8-1.8c0.6-0.4,1.3-0.7,2.2-0.7c0.9,0,1.8,0.2,2.7,0.6l-0.5,1.2
			c-0.8-0.3-1.6-0.5-2.2-0.5c-0.5,0-0.9,0.1-1.1,0.3c-0.2,0.2-0.4,0.5-0.4,0.9c0,0.2,0.1,0.5,0.2,0.6c0.1,0.2,0.3,0.3,0.5,0.5
			c0.2,0.2,0.7,0.4,1.3,0.6c0.7,0.3,1.2,0.6,1.5,0.8c0.3,0.2,0.6,0.5,0.7,0.8C131.2,27.7,131.3,28,131.3,28.5z"/>
		<path class="st3" d="M143.6,31l-0.9-2.6h-3.6l-0.9,2.6h-1.6l3.5-9.4h1.7l3.5,9.4H143.6z M142.3,27.1l-0.9-2.5
			c-0.1-0.2-0.2-0.4-0.3-0.8c-0.1-0.4-0.2-0.6-0.2-0.8c-0.1,0.5-0.3,1.1-0.5,1.7l-0.8,2.4C139.6,27.1,142.3,27.1,142.3,27.1z"/>
		<path class="st3" d="M146.5,28.5c0-0.6,0.1-1,0.4-1.5c0.3-0.4,0.8-0.8,1.5-1.2c-0.4-0.5-0.7-0.9-0.8-1.2c-0.1-0.3-0.2-0.7-0.2-1
			c0-0.6,0.2-1.2,0.7-1.5c0.5-0.4,1.1-0.6,1.9-0.6c0.8,0,1.3,0.2,1.8,0.5c0.4,0.4,0.6,0.9,0.6,1.5c0,0.5-0.1,0.9-0.4,1.3
			c-0.3,0.4-0.8,0.8-1.4,1.2l2.2,2.1c0.3-0.5,0.6-1.1,0.9-2h1.5c-0.3,1.2-0.8,2.2-1.4,3l1.9,1.9h-1.9l-1-0.9
			c-0.4,0.4-0.9,0.6-1.4,0.8c-0.5,0.2-1,0.3-1.6,0.3c-1,0-1.8-0.2-2.3-0.7S146.5,29.3,146.5,28.5z M149.8,29.8c0.8,0,1.4-0.2,2-0.7
			l-2.4-2.4c-0.5,0.3-0.8,0.6-0.9,0.8c-0.2,0.3-0.3,0.5-0.3,0.9s0.1,0.8,0.4,1C148.9,29.7,149.3,29.8,149.8,29.8z M148.8,23.7
			c0,0.3,0.1,0.5,0.2,0.8c0.1,0.2,0.3,0.5,0.6,0.8c0.5-0.3,0.8-0.5,1-0.8c0.2-0.2,0.3-0.5,0.3-0.8c0-0.3-0.1-0.5-0.3-0.7
			c-0.2-0.2-0.4-0.2-0.7-0.2c-0.3,0-0.6,0.1-0.8,0.3C148.9,23.3,148.8,23.4,148.8,23.7z"/>
		<path class="st3" d="M161.5,31l-2.7-7.8h-0.1c0.1,1.2,0.1,2.2,0.1,3.3V31h-1.4v-9.4h2.2l2.6,7.4l0,0l2.7-7.4h2.2V31h-1.5v-4.6
			c0-0.5,0-1.1,0-1.8s0-1.2,0.1-1.4h-0.1l-2.8,7.8H161.5z"/>
		<path class="st3" d="M181.5,21.7v6.1c0,0.7-0.1,1.3-0.4,1.8c-0.3,0.5-0.7,0.9-1.3,1.2s-1.2,0.4-2,0.4c-1.2,0-2.1-0.3-2.7-0.9
			c-0.6-0.6-1-1.5-1-2.5v-6h1.5v5.9c0,0.8,0.2,1.3,0.5,1.7c0.3,0.4,0.9,0.6,1.7,0.6c1.4,0,2.2-0.8,2.2-2.3v-5.9L181.5,21.7
			L181.5,21.7z"/>
		<path class="st3" d="M192.4,31h-1.9l-4.6-7.5l0,0v0.4c0.1,0.8,0.1,1.5,0.1,2.2V31h-1.4v-9.4h1.9l4.6,7.4l0,0c0-0.1,0-0.5-0.1-1.1
			c0-0.6,0-1.1,0-1.4v-4.9h1.4V31z"/>
		<path class="st3" d="M195.5,31v-9.4h1.5V31H195.5z"/>
		<path class="st3" d="M205.5,21.7h1.6l-3.3,9.4h-1.6l-3.3-9.4h1.6l2,5.8c0.1,0.3,0.2,0.6,0.3,1.1c0.1,0.5,0.2,0.8,0.2,1
			c0.1-0.3,0.1-0.7,0.3-1.1c0.1-0.4,0.2-0.7,0.3-0.9L205.5,21.7z"/>
		<path class="st3" d="M214.2,31h-5.3v-9.4h5.3v1.3h-3.8v2.5h3.5v1.3h-3.5v2.9h3.8V31z"/>
		<path class="st3" d="M218.4,27.3V31h-1.6v-9.4h2.6c1.2,0,2.1,0.2,2.7,0.7c0.6,0.5,0.9,1.1,0.9,2c0,1.2-0.6,2-1.8,2.5l2.6,4.1h-1.7
			l-2.2-3.7L218.4,27.3L218.4,27.3z M218.4,26h1.1c0.7,0,1.2-0.1,1.5-0.4c0.3-0.3,0.5-0.7,0.5-1.2s-0.2-0.9-0.5-1.1
			c-0.3-0.2-0.9-0.3-1.6-0.3h-1V26z"/>
		<path class="st3" d="M231.2,28.5c0,0.8-0.3,1.5-0.9,2s-1.4,0.7-2.5,0.7s-1.9-0.2-2.6-0.5v-1.5c0.4,0.2,0.9,0.4,1.4,0.5
			s0.9,0.2,1.3,0.2c0.6,0,1.1-0.1,1.3-0.3c0.3-0.2,0.4-0.5,0.4-0.9c0-0.3-0.1-0.6-0.4-0.9c-0.3-0.2-0.8-0.5-1.6-0.9
			c-0.9-0.3-1.5-0.7-1.8-1.2c-0.3-0.5-0.5-1-0.5-1.6c0-0.8,0.3-1.4,0.8-1.8c0.6-0.4,1.3-0.7,2.2-0.7s1.8,0.2,2.7,0.6l-0.5,1.2
			c-0.8-0.3-1.6-0.5-2.2-0.5c-0.5,0-0.9,0.1-1.1,0.3c-0.2,0.2-0.4,0.5-0.4,0.9c0,0.2,0.1,0.5,0.2,0.6c0.1,0.1,0.3,0.3,0.5,0.5
			c0.2,0.2,0.7,0.4,1.3,0.6c0.7,0.3,1.2,0.6,1.5,0.8c0.3,0.2,0.6,0.5,0.7,0.8C231.2,27.7,231.2,28,231.2,28.5z"/>
		<path class="st3" d="M233.7,31v-9.4h1.5V31H233.7z"/>
		<path class="st3" d="M241.6,31h-1.5v-8h-2.8v-1.3h7V23h-2.8L241.6,31L241.6,31z"/>
		<path class="st3" d="M249.1,25.9l2.2-4.3h1.7l-3.1,5.7v3.6h-1.5v-3.6l-3.1-5.8h1.7L249.1,25.9z"/>
	</g>
	<g class="st5">
		<path class="st3" d="M93.4,61.5V42.7h2.2v16.8h8.3v2L93.4,61.5z"/>
		<path class="st3" d="M106.1,43.6c0-0.5,0.1-0.8,0.4-1.1c0.2-0.2,0.5-0.3,0.9-0.3c0.3,0,0.6,0.1,0.9,0.3c0.3,0.2,0.4,0.6,0.4,1.1
			s-0.1,0.8-0.4,1.1c-0.3,0.3-0.5,0.4-0.9,0.4s-0.7-0.1-0.9-0.4C106.3,44.4,106.1,44.1,106.1,43.6z M108.5,61.5h-2.1v-14h2.1V61.5z"
			/>
		<path class="st3" d="M119,47.2c1.8,0,3.3,0.6,4.3,1.9c1,1.3,1.5,3,1.5,5.4c0,2.4-0.5,4.1-1.5,5.4c-1,1.3-2.5,1.9-4.3,1.9
			c-0.9,0-1.8-0.2-2.5-0.5c-0.8-0.3-1.4-0.9-1.9-1.6h-0.2l-0.4,1.8h-1.5v-20h2.1v4.8c0,1.1,0,2.1-0.1,2.9h0.1
			C115.7,47.9,117.2,47.2,119,47.2z M118.7,49c-1.5,0-2.5,0.4-3.1,1.3c-0.6,0.8-1,2.2-1,4.2c0,2,0.3,3.4,1,4.2
			c0.7,0.9,1.7,1.3,3.2,1.3c1.3,0,2.3-0.5,2.9-1.4c0.6-1,1-2.3,1-4.1s-0.3-3.2-1-4.1C121,49.4,120,49,118.7,49z"/>
		<path class="st3" d="M134.6,47.1c0.6,0,1.2,0.1,1.7,0.2l-0.3,2c-0.6-0.1-1.1-0.2-1.5-0.2c-1.1,0-2.1,0.5-2.9,1.4
			c-0.8,0.9-1.2,2.1-1.2,3.4v7.5h-2.1v-14h1.8l0.2,2.6h0.1c0.5-0.9,1.1-1.6,1.9-2.1C132.9,47.4,133.7,47.1,134.6,47.1z"/>
		<path class="st3" d="M147.1,61.5l-0.4-2h-0.1c-0.7,0.9-1.4,1.5-2.1,1.8c-0.7,0.3-1.6,0.5-2.6,0.5c-1.4,0-2.5-0.4-3.3-1.1
			c-0.8-0.7-1.2-1.7-1.2-3.1c0-2.8,2.3-4.3,6.8-4.5l2.4-0.1v-0.9c0-1.1-0.2-1.9-0.7-2.4c-0.5-0.5-1.2-0.8-2.3-0.8
			c-1.2,0-2.5,0.4-4,1.1l-0.7-1.6c0.7-0.4,1.5-0.7,2.3-0.9c0.8-0.2,1.7-0.3,2.5-0.3c1.7,0,2.9,0.4,3.7,1.1c0.8,0.7,1.2,1.9,1.2,3.6
			v9.6H147.1z M142.3,60c1.3,0,2.4-0.4,3.1-1.1c0.8-0.7,1.1-1.7,1.1-3.1v-1.3l-2.1,0.1c-1.7,0.1-2.9,0.3-3.7,0.8
			c-0.7,0.5-1.1,1.2-1.1,2.2c0,0.8,0.2,1.4,0.7,1.8C140.8,59.8,141.5,60,142.3,60z"/>
		<path class="st3" d="M159.1,47.1c0.6,0,1.2,0.1,1.7,0.2l-0.3,2c-0.6-0.1-1.1-0.2-1.5-0.2c-1.1,0-2.1,0.5-2.9,1.4
			c-0.8,0.9-1.2,2.1-1.2,3.4v7.5h-2.1v-14h1.8l0.2,2.6h0.1c0.5-0.9,1.1-1.6,1.9-2.1C157.4,47.4,158.2,47.1,159.1,47.1z"/>
		<path class="st3" d="M162.8,43.6c0-0.5,0.1-0.8,0.4-1.1c0.3-0.3,0.5-0.3,0.9-0.3c0.3,0,0.6,0.1,0.9,0.3c0.3,0.2,0.4,0.6,0.4,1.1
			s-0.1,0.8-0.4,1.1c-0.3,0.3-0.5,0.4-0.9,0.4s-0.7-0.1-0.9-0.4C163,44.4,162.8,44.1,162.8,43.6z M165.1,61.5H163v-14h2.1V61.5z"/>
		<path class="st3" d="M175.1,61.7c-2.1,0-3.7-0.6-4.9-1.9c-1.2-1.3-1.8-3-1.8-5.3c0-2.3,0.6-4.1,1.7-5.4c1.1-1.3,2.6-2,4.5-2
			c1.8,0,3.2,0.6,4.2,1.7s1.5,2.7,1.5,4.6v1.3h-9.7c0,1.6,0.5,2.9,1.3,3.8c0.8,0.9,1.9,1.3,3.3,1.3c1.5,0,3-0.3,4.5-0.9v1.9
			c-0.8,0.3-1.5,0.6-2.1,0.7C177,61.6,176,61.7,175.1,61.7z M174.5,48.9c-1.1,0-2,0.4-2.7,1.1c-0.7,0.7-1.1,1.8-1.2,3.1h7.3
			c0-1.3-0.3-2.4-0.9-3.1C176.5,49.3,175.6,48.9,174.5,48.9z"/>
		<path class="st3" d="M192.6,57.6c0,1.3-0.5,2.3-1.5,3s-2.3,1.1-4.1,1.1c-1.9,0-3.3-0.3-4.4-0.9v-2c0.7,0.3,1.4,0.6,2.2,0.8
			c0.8,0.2,1.5,0.3,2.2,0.3c1.1,0,2-0.2,2.6-0.5c0.6-0.4,0.9-0.9,0.9-1.6c0-0.5-0.2-1-0.7-1.4c-0.5-0.4-1.4-0.8-2.8-1.4
			c-1.3-0.5-2.2-0.9-2.8-1.3c-0.6-0.4-1-0.8-1.2-1.2c-0.3-0.5-0.4-1-0.4-1.7c0-1.1,0.5-2,1.4-2.7c0.9-0.7,2.2-1,3.8-1
			c1.5,0,3,0.3,4.4,0.9l-0.8,1.7c-1.4-0.6-2.7-0.9-3.8-0.9c-1,0-1.8,0.2-2.3,0.5c-0.5,0.3-0.8,0.8-0.8,1.3c0,0.4,0.1,0.7,0.3,1
			c0.2,0.3,0.5,0.5,0.9,0.8c0.4,0.2,1.2,0.6,2.5,1c1.7,0.6,2.8,1.2,3.4,1.8C192.3,55.9,192.6,56.7,192.6,57.6z"/>
	</g>
</g>
</svg>
