<?xml version="1.0" encoding="utf-8"?>
<!-- Generator: Adobe Illustrator 22.1.0, SVG Export Plug-In . SVG Version: 6.00 Build 0)  -->
<svg version="1.1" id="Layer_1" xmlns="http://www.w3.org/2000/svg" xmlns:xlink="http://www.w3.org/1999/xlink" x="0px" y="0px"
	 viewBox="0 0 372.4 87.3" style="enable-background:new 0 0 372.4 87.3;" xml:space="preserve">
<style type="text/css">
	.st0{fill:#500000;}
	.st1{fill:#FFFFFF;}
	.st2{fill:#B1B3B6;}
	.st3{fill:#231F20;}
</style>
<g>
	<g>
		<rect x="12.6" y="12.8" class="st0" width="61.3" height="61.7"/>
		<polygon class="st1" points="65.7,37.4 61.2,37.4 60.9,37.4 60.8,37.6 57.5,44.5 54.2,37.6 54.1,37.4 53.8,37.4 49.4,37.4 
			49,37.4 49,37.8 49,40.1 49,40.5 49.4,40.5 50.1,40.5 50.1,50.4 49.3,50.4 48.9,50.4 48.9,50.8 48.9,53.1 48.9,53.6 49.3,53.6 
			54.3,53.6 54.7,53.6 54.7,53.1 54.7,50.8 54.7,50.4 54.3,50.4 53.4,50.4 53.4,43.4 57.1,51 57.5,51.8 57.9,51 61.6,43.4 
			61.6,50.4 60.8,50.4 60.4,50.4 60.4,50.8 60.4,53.1 60.4,53.6 60.8,53.6 65.7,53.6 66.1,53.6 66.1,53.1 66.1,50.8 66.1,50.4 
			65.7,50.4 64.9,50.4 64.9,40.5 65.7,40.5 66.1,40.5 66.1,40.1 66.1,37.8 66.1,37.4 		"/>
		<path class="st1" d="M37,50.4h-1.3l-4.3-9.9h0.8v-3.2h-6.9v3.2h0.9l-4.3,9.9h-1.8v3.2h6.2v-3.2h-0.9l0.7-1.6h5.1l0.7,1.6h-1v3.2
			h6.2v-3.2L37,50.4z M30.1,45.5h-2.4l1.2-2.8L30.1,45.5z"/>
		<polygon class="st1" points="60.5,25 25.8,25 25.4,25 25.4,25.5 25.4,34.8 25.4,35.2 25.8,35.2 31.8,35.2 32.3,35.2 32.3,34.8 
			32.3,31.3 39.7,31.3 39.7,55.7 36.3,55.7 35.8,55.7 35.8,56.2 35.8,62.2 35.8,62.6 36.3,62.6 50.1,62.6 50.5,62.6 50.5,62.2 
			50.5,56.2 50.5,55.7 50.1,55.7 46.6,55.7 46.6,31.3 54,31.3 54,34.7 54,35.2 54.5,35.2 60.5,35.2 61,35.2 61,34.7 61,25.5 61,25 
					"/>
		<polygon class="st2" points="47.7,58.6 49.1,57 49.1,61.2 47.7,59.8 		"/>
		<polygon class="st2" points="45.2,57.2 43.8,58.6 43.8,28.4 45.2,29.9 		"/>
		<polygon class="st2" points="28.3,27.9 26.8,26.4 58.8,26.4 56.9,27.9 		"/>
		<polygon class="st2" points="59.6,33.8 58.1,32.4 58.1,28.7 59.6,27.2 		"/>
		<path class="st0" d="M76,73.3c0-0.7,0.6-1.2,1.2-1.2c0.7,0,1.2,0.6,1.2,1.2s-0.6,1.2-1.2,1.2C76.6,74.5,76,74,76,73.3L76,73.3z
			 M78.2,73.3c0-0.5-0.5-0.9-1-0.9c-0.5,0-0.9,0.5-0.9,1c0,0.5,0.4,0.9,0.9,0.9C77.8,74.3,78.2,73.9,78.2,73.3
			C78.2,73.3,78.2,73.3,78.2,73.3z M76.8,72.6h0.5c0.3,0,0.5,0.1,0.5,0.4c0,0.2-0.1,0.4-0.3,0.4c0,0,0,0-0.1,0l0.4,0.6h-0.3
			l-0.4-0.6H77V74h-0.3L76.8,72.6z M77,73.2h0.2c0.2,0,0.3,0,0.3-0.2s-0.1-0.2-0.3-0.2H77V73.2z"/>
	</g>
	<g>
		<path class="st3" d="M95,30.8h-1.5v-8h-2.8v-1.3h7v1.3H95V30.8z"/>
		<path class="st3" d="M105.1,30.8h-5.3v-9.4h5.3v1.3h-3.8v2.5h3.5v1.3h-3.5v2.9h3.8V30.8z"/>
		<path class="st3" d="M114.7,30.8h-1.8l-2.3-3.8l-2.4,3.8h-1.6l3.1-4.8l-2.9-4.5h1.7l2.2,3.5l2.2-3.5h1.6l-2.9,4.5L114.7,30.8z"/>
		<path class="st3" d="M122.4,30.8l-0.9-2.6h-3.6l-0.9,2.6h-1.6l3.5-9.4h1.7l3.5,9.4H122.4z M121.1,26.9l-0.9-2.5
			c-0.1-0.2-0.2-0.4-0.3-0.8c-0.1-0.4-0.2-0.6-0.2-0.8c-0.1,0.5-0.3,1.1-0.5,1.7l-0.8,2.4H121.1z"/>
		<path class="st3" d="M131.3,28.3c0,0.8-0.3,1.5-0.9,2c-0.6,0.5-1.4,0.7-2.5,0.7c-1.1,0-1.9-0.2-2.6-0.5V29
			c0.4,0.2,0.9,0.4,1.4,0.5c0.5,0.1,0.9,0.2,1.3,0.2c0.6,0,1.1-0.1,1.3-0.3c0.3-0.2,0.4-0.5,0.4-0.9c0-0.3-0.1-0.6-0.4-0.9
			c-0.3-0.2-0.8-0.5-1.6-0.9c-0.9-0.3-1.5-0.7-1.8-1.2s-0.5-1-0.5-1.6c0-0.8,0.3-1.4,0.8-1.8c0.6-0.4,1.3-0.7,2.2-0.7
			c0.9,0,1.8,0.2,2.7,0.6l-0.5,1.2c-0.8-0.3-1.6-0.5-2.2-0.5c-0.5,0-0.9,0.1-1.1,0.3s-0.4,0.5-0.4,0.9c0,0.2,0.1,0.5,0.2,0.6
			c0.1,0.2,0.3,0.3,0.5,0.5c0.2,0.2,0.7,0.4,1.3,0.6c0.7,0.3,1.2,0.6,1.5,0.8c0.3,0.2,0.6,0.5,0.7,0.8
			C131.2,27.5,131.3,27.8,131.3,28.3z"/>
		<path class="st3" d="M143.6,30.8l-0.9-2.6h-3.6l-0.9,2.6h-1.6l3.5-9.4h1.7l3.5,9.4H143.6z M142.3,26.9l-0.9-2.5
			c-0.1-0.2-0.2-0.4-0.3-0.8c-0.1-0.4-0.2-0.6-0.2-0.8c-0.1,0.5-0.3,1.1-0.5,1.7l-0.8,2.4H142.3z"/>
		<path class="st3" d="M146.5,28.3c0-0.6,0.1-1,0.4-1.5c0.3-0.4,0.8-0.8,1.5-1.2c-0.4-0.5-0.7-0.9-0.8-1.2c-0.1-0.3-0.2-0.7-0.2-1
			c0-0.6,0.2-1.2,0.7-1.5c0.5-0.4,1.1-0.6,1.9-0.6c0.8,0,1.3,0.2,1.8,0.5c0.4,0.4,0.6,0.9,0.6,1.5c0,0.5-0.1,0.9-0.4,1.3
			s-0.8,0.8-1.4,1.2l2.2,2.1c0.3-0.5,0.6-1.1,0.9-2h1.5c-0.3,1.2-0.8,2.2-1.4,3l1.9,1.9h-1.9l-1-0.9c-0.4,0.4-0.9,0.6-1.4,0.8
			c-0.5,0.2-1,0.3-1.6,0.3c-1,0-1.8-0.2-2.3-0.7S146.5,29.1,146.5,28.3z M149.8,29.6c0.8,0,1.4-0.2,2-0.7l-2.4-2.4
			c-0.5,0.3-0.8,0.6-0.9,0.8c-0.2,0.3-0.3,0.5-0.3,0.9c0,0.4,0.1,0.8,0.4,1C148.9,29.5,149.3,29.6,149.8,29.6z M148.8,23.5
			c0,0.3,0.1,0.5,0.2,0.8c0.1,0.2,0.3,0.5,0.6,0.8c0.5-0.3,0.8-0.5,1-0.8c0.2-0.2,0.3-0.5,0.3-0.8c0-0.3-0.1-0.5-0.3-0.7
			c-0.2-0.2-0.4-0.2-0.7-0.2c-0.3,0-0.6,0.1-0.8,0.3S148.8,23.2,148.8,23.5z"/>
		<path class="st3" d="M161.5,30.8l-2.7-7.8h-0.1c0.1,1.2,0.1,2.2,0.1,3.3v4.5h-1.4v-9.4h2.2l2.6,7.4h0l2.7-7.4h2.2v9.4h-1.5v-4.6
			c0-0.5,0-1.1,0-1.8c0-0.7,0-1.2,0.1-1.4h-0.1l-2.8,7.8H161.5z"/>
		<path class="st3" d="M181.6,21.5v6.1c0,0.7-0.1,1.3-0.4,1.8c-0.3,0.5-0.7,0.9-1.3,1.2c-0.6,0.3-1.2,0.4-2,0.4
			c-1.2,0-2.1-0.3-2.7-0.9c-0.6-0.6-1-1.5-1-2.5v-6h1.5v5.9c0,0.8,0.2,1.3,0.5,1.7s0.9,0.6,1.7,0.6c1.4,0,2.2-0.8,2.2-2.3v-5.9
			H181.6z"/>
		<path class="st3" d="M192.5,30.8h-1.9l-4.6-7.5H186l0,0.4c0.1,0.8,0.1,1.5,0.1,2.2v4.9h-1.4v-9.4h1.9l4.6,7.4h0
			c0-0.1,0-0.5-0.1-1.1c0-0.6,0-1.1,0-1.4v-4.9h1.4V30.8z"/>
		<path class="st3" d="M195.6,30.8v-9.4h1.5v9.4H195.6z"/>
		<path class="st3" d="M205.6,21.5h1.6l-3.3,9.4h-1.6l-3.3-9.4h1.6l2,5.8c0.1,0.3,0.2,0.6,0.3,1.1s0.2,0.8,0.2,1
			c0.1-0.3,0.1-0.7,0.3-1.1c0.1-0.4,0.2-0.7,0.3-0.9L205.6,21.5z"/>
		<path class="st3" d="M214.3,30.8h-5.3v-9.4h5.3v1.3h-3.8v2.5h3.5v1.3h-3.5v2.9h3.8V30.8z"/>
		<path class="st3" d="M218.6,27.1v3.7H217v-9.4h2.6c1.2,0,2.1,0.2,2.7,0.7c0.6,0.5,0.9,1.1,0.9,2c0,1.2-0.6,2-1.8,2.5l2.6,4.1h-1.7
			l-2.2-3.7H218.6z M218.6,25.8h1.1c0.7,0,1.2-0.1,1.5-0.4c0.3-0.3,0.5-0.7,0.5-1.2c0-0.5-0.2-0.9-0.5-1.1c-0.3-0.2-0.9-0.3-1.6-0.3
			h-1V25.8z"/>
		<path class="st3" d="M231.4,28.3c0,0.8-0.3,1.5-0.9,2c-0.6,0.5-1.4,0.7-2.5,0.7s-1.9-0.2-2.6-0.5V29c0.4,0.2,0.9,0.4,1.4,0.5
			s0.9,0.2,1.3,0.2c0.6,0,1.1-0.1,1.3-0.3c0.3-0.2,0.4-0.5,0.4-0.9c0-0.3-0.1-0.6-0.4-0.9c-0.3-0.2-0.8-0.5-1.6-0.9
			c-0.9-0.3-1.5-0.7-1.8-1.2s-0.5-1-0.5-1.6c0-0.8,0.3-1.4,0.8-1.8c0.6-0.4,1.3-0.7,2.2-0.7c0.9,0,1.8,0.2,2.7,0.6l-0.5,1.2
			c-0.8-0.3-1.6-0.5-2.2-0.5c-0.5,0-0.9,0.1-1.1,0.3s-0.4,0.5-0.4,0.9c0,0.2,0.1,0.5,0.2,0.6s0.3,0.3,0.5,0.5s0.7,0.4,1.3,0.6
			c0.7,0.3,1.2,0.6,1.5,0.8c0.3,0.2,0.6,0.5,0.7,0.8C231.4,27.5,231.4,27.8,231.4,28.3z"/>
		<path class="st3" d="M233.9,30.8v-9.4h1.5v9.4H233.9z"/>
		<path class="st3" d="M241.8,30.8h-1.5v-8h-2.8v-1.3h7v1.3h-2.8V30.8z"/>
		<path class="st3" d="M249.3,25.7l2.2-4.3h1.7l-3.1,5.7v3.6h-1.5v-3.6l-3.1-5.8h1.7L249.3,25.7z"/>
	</g>
	<g>
		<path class="st3" d="M101.3,44.3c-2.1,0-3.7,0.7-4.9,2.1c-1.2,1.4-1.8,3.2-1.8,5.6c0,2.5,0.6,4.3,1.7,5.7c1.1,1.3,2.8,2,4.9,2
			c1.3,0,2.8-0.2,4.5-0.7v1.9c-1.3,0.5-2.9,0.7-4.8,0.7c-2.8,0-4.9-0.8-6.4-2.5S92.3,55,92.3,52c0-1.9,0.4-3.6,1.1-5.1
			s1.8-2.6,3.1-3.4c1.4-0.8,3-1.2,4.8-1.2c2,0,3.7,0.4,5.2,1.1l-0.9,1.9C104.2,44.6,102.8,44.3,101.3,44.3z"/>
		<path class="st3" d="M121.3,54.3c0,2.3-0.6,4.1-1.7,5.4c-1.2,1.3-2.7,1.9-4.8,1.9c-1.3,0-2.4-0.3-3.3-0.9c-1-0.6-1.7-1.4-2.3-2.5
			c-0.5-1.1-0.8-2.4-0.8-3.9c0-2.3,0.6-4.1,1.7-5.4c1.1-1.3,2.7-1.9,4.8-1.9c2,0,3.5,0.7,4.7,2C120.7,50.3,121.3,52.1,121.3,54.3z
			 M110.6,54.3c0,1.8,0.4,3.2,1.1,4.1s1.8,1.4,3.2,1.4c1.4,0,2.5-0.5,3.2-1.4s1.1-2.3,1.1-4.1c0-1.8-0.4-3.1-1.1-4.1
			c-0.7-0.9-1.8-1.4-3.2-1.4c-1.4,0-2.4,0.5-3.2,1.4C110.9,51.1,110.6,52.5,110.6,54.3z"/>
		<path class="st3" d="M126.8,61.4h-2.1V41.4h2.1V61.4z"/>
		<path class="st3" d="M133,61.4h-2.1V41.4h2.1V61.4z"/>
		<path class="st3" d="M143.1,61.6c-2.1,0-3.7-0.6-4.9-1.9c-1.2-1.3-1.8-3-1.8-5.3c0-2.3,0.6-4.1,1.7-5.4s2.6-2,4.5-2
			c1.8,0,3.2,0.6,4.2,1.7s1.5,2.7,1.5,4.6v1.3h-9.7c0,1.6,0.5,2.9,1.3,3.8c0.8,0.9,1.9,1.3,3.3,1.3c1.5,0,3-0.3,4.5-0.9v1.9
			c-0.8,0.3-1.5,0.6-2.1,0.7S144,61.6,143.1,61.6z M142.5,48.8c-1.1,0-2,0.4-2.7,1.1c-0.7,0.7-1.1,1.8-1.2,3.1h7.3
			c0-1.3-0.3-2.4-0.9-3.1C144.4,49.2,143.6,48.8,142.5,48.8z"/>
		<path class="st3" d="M162.9,47.3v1.3l-2.6,0.3c0.2,0.3,0.5,0.7,0.6,1.2c0.2,0.5,0.3,1,0.3,1.6c0,1.4-0.5,2.5-1.4,3.3
			c-0.9,0.8-2.2,1.2-3.9,1.2c-0.4,0-0.8,0-1.2-0.1c-0.9,0.5-1.4,1.1-1.4,1.8c0,0.4,0.2,0.7,0.5,0.9c0.3,0.2,0.9,0.3,1.6,0.3h2.5
			c1.5,0,2.7,0.3,3.5,1c0.8,0.6,1.2,1.6,1.2,2.8c0,1.6-0.6,2.7-1.9,3.6s-3.1,1.2-5.5,1.2c-1.8,0-3.3-0.3-4.2-1
			c-1-0.7-1.5-1.6-1.5-2.9c0-0.9,0.3-1.6,0.8-2.2s1.3-1,2.3-1.3c-0.4-0.2-0.7-0.4-0.9-0.8s-0.4-0.7-0.4-1.2c0-0.5,0.1-1,0.4-1.3
			c0.3-0.4,0.7-0.8,1.3-1.1c-0.7-0.3-1.3-0.8-1.8-1.5s-0.7-1.5-0.7-2.5c0-1.5,0.5-2.7,1.4-3.6c0.9-0.8,2.2-1.2,3.9-1.2
			c0.7,0,1.4,0.1,2,0.3H162.9z M151.7,63.7c0,0.8,0.3,1.3,1,1.7c0.6,0.4,1.6,0.6,2.8,0.6c1.8,0,3.1-0.3,4-0.8
			c0.9-0.5,1.3-1.3,1.3-2.2c0-0.8-0.2-1.3-0.7-1.6c-0.5-0.3-1.4-0.4-2.7-0.4h-2.6c-1,0-1.7,0.2-2.3,0.7S151.7,62.8,151.7,63.7z
			 M152.9,51.8c0,1,0.3,1.7,0.8,2.2c0.6,0.5,1.3,0.8,2.3,0.8c2.1,0,3.1-1,3.1-3c0-2.1-1.1-3.2-3.2-3.2c-1,0-1.8,0.3-2.3,0.8
			S152.9,50.7,152.9,51.8z"/>
		<path class="st3" d="M171.4,61.6c-2.1,0-3.7-0.6-4.9-1.9c-1.2-1.3-1.8-3-1.8-5.3c0-2.3,0.6-4.1,1.7-5.4s2.6-2,4.5-2
			c1.8,0,3.2,0.6,4.2,1.7s1.5,2.7,1.5,4.6v1.3h-9.7c0,1.6,0.5,2.9,1.3,3.8c0.8,0.9,1.9,1.3,3.3,1.3c1.5,0,3-0.3,4.5-0.9v1.9
			c-0.8,0.3-1.5,0.6-2.1,0.7S172.3,61.6,171.4,61.6z M170.8,48.8c-1.1,0-2,0.4-2.7,1.1c-0.7,0.7-1.1,1.8-1.2,3.1h7.3
			c0-1.3-0.3-2.4-0.9-3.1C172.8,49.2,171.9,48.8,170.8,48.8z"/>
		<path class="st3" d="M198.3,54.3c0,2.3-0.6,4.1-1.7,5.4c-1.2,1.3-2.7,1.9-4.8,1.9c-1.3,0-2.4-0.3-3.3-0.9c-1-0.6-1.7-1.4-2.3-2.5
			c-0.5-1.1-0.8-2.4-0.8-3.9c0-2.3,0.6-4.1,1.7-5.4c1.1-1.3,2.7-1.9,4.8-1.9c2,0,3.5,0.7,4.7,2C197.7,50.3,198.3,52.1,198.3,54.3z
			 M187.6,54.3c0,1.8,0.4,3.2,1.1,4.1s1.8,1.4,3.2,1.4s2.5-0.5,3.2-1.4c0.7-0.9,1.1-2.3,1.1-4.1c0-1.8-0.4-3.1-1.1-4.1
			c-0.7-0.9-1.8-1.4-3.2-1.4c-1.4,0-2.4,0.5-3.2,1.4C188,51.1,187.6,52.5,187.6,54.3z"/>
		<path class="st3" d="M208,49h-3.6v12.4h-2.1V49h-2.5v-1l2.5-0.8v-0.8c0-3.5,1.5-5.2,4.5-5.2c0.7,0,1.6,0.1,2.6,0.4l-0.6,1.7
			c-0.8-0.3-1.5-0.4-2.1-0.4c-0.8,0-1.4,0.3-1.8,0.8c-0.4,0.5-0.6,1.4-0.6,2.6v0.9h3.6V49z"/>
		<path class="st3" d="M228.7,61.4l-2.3-6h-7.5l-2.3,6h-2.2l7.4-18.8h1.8l7.4,18.8H228.7z M225.7,53.4l-2.2-5.8
			c-0.3-0.7-0.6-1.6-0.9-2.7c-0.2,0.8-0.5,1.7-0.8,2.7l-2.2,5.8H225.7z"/>
		<path class="st3" d="M239.2,47c0.6,0,1.2,0.1,1.7,0.2l-0.3,2c-0.6-0.1-1.1-0.2-1.5-0.2c-1.1,0-2.1,0.5-2.9,1.4s-1.2,2.1-1.2,3.4
			v7.5h-2.1v-14h1.8l0.2,2.6h0.1c0.5-0.9,1.1-1.6,1.9-2.1C237.5,47.3,238.3,47,239.2,47z"/>
		<path class="st3" d="M248.7,61.6c-2,0-3.6-0.6-4.7-1.9c-1.1-1.3-1.7-3-1.7-5.3c0-2.4,0.6-4.2,1.7-5.4c1.1-1.3,2.7-1.9,4.8-1.9
			c0.7,0,1.4,0.1,2,0.2c0.7,0.1,1.2,0.3,1.6,0.5l-0.7,1.8c-0.5-0.2-1-0.3-1.5-0.5c-0.6-0.1-1-0.2-1.5-0.2c-2.9,0-4.3,1.8-4.3,5.5
			c0,1.7,0.3,3.1,1,4c0.7,0.9,1.7,1.4,3.1,1.4c1.2,0,2.4-0.3,3.6-0.8v1.9C251.3,61.4,250.2,61.6,248.7,61.6z"/>
		<path class="st3" d="M264.8,61.4v-9.1c0-1.1-0.3-2-0.8-2.6s-1.3-0.8-2.4-0.8c-1.5,0-2.6,0.4-3.2,1.2c-0.7,0.8-1,2.1-1,3.9v7.3
			h-2.1V41.4h2.1v6c0,0.7,0,1.3-0.1,1.8h0.1c0.4-0.7,1-1.2,1.8-1.6s1.7-0.6,2.6-0.6c1.7,0,3,0.4,3.9,1.2c0.9,0.8,1.3,2.1,1.3,3.9
			v9.2H264.8z"/>
		<path class="st3" d="M270.8,43.5c0-0.5,0.1-0.8,0.4-1.1s0.5-0.3,0.9-0.3c0.3,0,0.6,0.1,0.9,0.3s0.4,0.6,0.4,1.1s-0.1,0.8-0.4,1.1
			s-0.5,0.4-0.9,0.4c-0.4,0-0.7-0.1-0.9-0.4S270.8,44,270.8,43.5z M273.1,61.4h-2.1v-14h2.1V61.4z"/>
		<path class="st3" d="M281.7,59.9c0.4,0,0.7,0,1.1-0.1c0.4-0.1,0.6-0.1,0.8-0.2v1.6c-0.2,0.1-0.6,0.2-1,0.3
			c-0.4,0.1-0.9,0.1-1.2,0.1c-2.7,0-4.1-1.4-4.1-4.3V49h-2v-1l2-0.9l0.9-3h1.2v3.3h4.1V49h-4.1v8.3c0,0.8,0.2,1.5,0.6,1.9
			C280.5,59.6,281,59.9,281.7,59.9z"/>
		<path class="st3" d="M292,61.6c-2.1,0-3.7-0.6-4.9-1.9c-1.2-1.3-1.8-3-1.8-5.3c0-2.3,0.6-4.1,1.7-5.4s2.6-2,4.5-2
			c1.8,0,3.2,0.6,4.2,1.7s1.5,2.7,1.5,4.6v1.3h-9.7c0,1.6,0.5,2.9,1.3,3.8c0.8,0.9,1.9,1.3,3.3,1.3c1.5,0,3-0.3,4.5-0.9v1.9
			c-0.8,0.3-1.5,0.6-2.1,0.7S292.9,61.6,292,61.6z M291.4,48.8c-1.1,0-2,0.4-2.7,1.1c-0.7,0.7-1.1,1.8-1.2,3.1h7.3
			c0-1.3-0.3-2.4-0.9-3.1C293.4,49.2,292.5,48.8,291.4,48.8z"/>
		<path class="st3" d="M306,61.6c-2,0-3.6-0.6-4.7-1.9c-1.1-1.3-1.7-3-1.7-5.3c0-2.4,0.6-4.2,1.7-5.4c1.1-1.3,2.7-1.9,4.8-1.9
			c0.7,0,1.4,0.1,2,0.2c0.7,0.1,1.2,0.3,1.6,0.5l-0.7,1.8c-0.5-0.2-1-0.3-1.5-0.5c-0.6-0.1-1-0.2-1.5-0.2c-2.9,0-4.3,1.8-4.3,5.5
			c0,1.7,0.3,3.1,1,4c0.7,0.9,1.7,1.4,3.1,1.4c1.2,0,2.4-0.3,3.6-0.8v1.9C308.6,61.4,307.4,61.6,306,61.6z"/>
		<path class="st3" d="M317,59.9c0.4,0,0.7,0,1.1-0.1c0.4-0.1,0.6-0.1,0.8-0.2v1.6c-0.2,0.1-0.6,0.2-1,0.3c-0.4,0.1-0.9,0.1-1.2,0.1
			c-2.7,0-4.1-1.4-4.1-4.3V49h-2v-1l2-0.9l0.9-3h1.2v3.3h4.1V49h-4.1v8.3c0,0.8,0.2,1.5,0.6,1.9C315.8,59.6,316.3,59.9,317,59.9z"/>
		<path class="st3" d="M323.4,47.3v9.1c0,1.1,0.3,2,0.8,2.6s1.3,0.8,2.4,0.8c1.5,0,2.5-0.4,3.2-1.2s1-2.1,1-3.9v-7.4h2.1v14h-1.8
			l-0.3-1.9h-0.1c-0.4,0.7-1,1.2-1.8,1.6c-0.8,0.4-1.7,0.6-2.6,0.6c-1.7,0-3-0.4-3.8-1.2c-0.8-0.8-1.3-2.1-1.3-3.9v-9.2H323.4z"/>
		<path class="st3" d="M343.5,47c0.6,0,1.2,0.1,1.7,0.2l-0.3,2c-0.6-0.1-1.1-0.2-1.5-0.2c-1.1,0-2.1,0.5-2.9,1.4s-1.2,2.1-1.2,3.4
			v7.5h-2.1v-14h1.8l0.2,2.6h0.1c0.5-0.9,1.1-1.6,1.9-2.1C341.8,47.3,342.6,47,343.5,47z"/>
		<path class="st3" d="M353.3,61.6c-2.1,0-3.7-0.6-4.9-1.9c-1.2-1.3-1.8-3-1.8-5.3c0-2.3,0.6-4.1,1.7-5.4s2.6-2,4.5-2
			c1.8,0,3.2,0.6,4.2,1.7s1.5,2.7,1.5,4.6v1.3h-9.7c0,1.6,0.5,2.9,1.3,3.8c0.8,0.9,1.9,1.3,3.3,1.3c1.5,0,3-0.3,4.5-0.9v1.9
			c-0.8,0.3-1.5,0.6-2.1,0.7S354.3,61.6,353.3,61.6z M352.8,48.8c-1.1,0-2,0.4-2.7,1.1c-0.7,0.7-1.1,1.8-1.2,3.1h7.3
			c0-1.3-0.3-2.4-0.9-3.1C354.7,49.2,353.9,48.8,352.8,48.8z"/>
	</g>
</g>
</svg>
