<?xml version="1.0" encoding="utf-8"?>
<!-- Generator: Adobe Illustrator 23.1.0, SVG Export Plug-In . SVG Version: 6.00 Build 0)  -->
<svg version="1.1" id="Layer_1" xmlns="http://www.w3.org/2000/svg" xmlns:xlink="http://www.w3.org/1999/xlink" x="0px" y="0px"
	 viewBox="0 0 1069.41 174.1" style="enable-background:new 0 0 1069.41 174.1;" xml:space="preserve">
<style type="text/css">
	.st0{fill:#020202;}
	.st1{fill:#A65F35;}
</style>
<g>
	<path class="st0" d="M53.68,50.33v92.04h-8.23c0,0,0.3-92.34,0-92.04s-8.75,0-8.75,0v-8.32h26.33v8.15L53.68,50.33z"/>
	<path class="st0" d="M736.31,50.33v92.04h-8.23c0,0,0.3-92.34,0-92.04s-8.75,0-8.75,0v-8.32h26.33v8.15L736.31,50.33z"/>
	<polygon class="st0" points="108.66,42.01 130.45,42.01 131.65,49.65 117.41,49.65 117.41,91.25 132.42,91.25 132.42,99.05 
		117.41,99.05 117.41,134.74 131.22,134.74 131.22,142.8 108.66,142.8 108.66,99.23 103.26,99.23 103.26,91.25 108.41,91.25 	"/>
	<polygon class="st0" points="315.56,42.01 337.35,42.01 338.55,49.65 324.31,49.65 324.31,91.25 339.32,91.25 339.32,99.05 
		324.31,99.05 324.31,134.74 338.12,134.74 338.12,142.8 315.56,142.8 315.56,99.23 310.16,99.23 310.16,91.25 315.3,91.25 	"/>
	<path class="st0" d="M195.21,39.95l4.03,8.06c0,0-17.24,8.32-17.24,19.13s22.39,29.85,22.39,49.49s-15.44,24.19-22.39,27.71
		l-4.29-7.98c0,0,12.87-3.52,17.41-14.07s-9.09-26.68-13.3-33.54c-4.2-6.86-16.21-22.73,0.6-40.74
		C182.43,48.02,186.64,44.24,195.21,39.95z"/>
	<path class="st0" d="M260.51,39.95l4.03,8.06c0,0-17.24,8.32-17.24,19.13s22.39,29.85,22.39,49.49s-15.44,24.19-22.39,27.71
		l-4.29-7.98c0,0,12.87-3.52,17.41-14.07c4.55-10.55-9.09-26.68-13.3-33.54c-4.2-6.86-16.21-22.73,0.6-40.74
		C247.73,48.02,251.93,44.24,260.51,39.95z"/>
	<path class="st0" d="M1034.57,39.95l4.03,8.06c0,0-17.24,8.32-17.24,19.13s22.39,29.85,22.39,49.49s-15.44,24.19-22.39,27.71
		l-4.29-7.98c0,0,12.87-3.52,17.41-14.07s-9.09-26.68-13.3-33.54c-4.2-6.86-16.21-22.73,0.6-40.74
		C1021.79,48.02,1026,44.24,1034.57,39.95z"/>
	<rect x="788.69" y="42.01" class="st0" width="8.58" height="100.36"/>
	<path class="st0" d="M882.24,60.31c-2.74-9.04-6.06-20.36-17.84-20.36c-11.78,0-16.7,10.52-18.53,18.3
		c-1.83,7.78-3.43,17.73-3.43,34.65s0.57,26.65,2.29,33.4c1.72,6.75,7.66,18.07,17.96,18.07c10.29,0,14.75-6.75,17.73-16.81
		c2.97-10.06,3.77-15.57,3.77-38.09C884.19,89.48,884.99,69.35,882.24,60.31z M872.75,124.47c-2.74,8.46-5.03,10.87-9.04,10.87
		c-4,0-11.32-4.8-11.32-21.84c0-17.04,0-23.56,0-23.56s-1.14-13.72,1.03-26.53s7.88-15.2,10.29-14.64c0,0,9.26-0.34,10.41,17.38
		c1.14,17.73,0.69,24.02,0.69,24.02S875.5,116.01,872.75,124.47z"/>
	<polygon class="st0" points="937.71,142.31 937.71,77.35 963.79,142.31 967.68,142.31 967.68,41.55 958.87,41.55 959.44,106.63 
		933.25,41.55 929.14,41.55 929.14,142.31 	"/>
	<polygon class="st1" points="387.93,139.7 486.02,139.7 388.33,42.01 	"/>
	<polygon class="st0" points="418.58,109.15 466.33,109.15 418.78,61.59 	"/>
	<polygon class="st1" points="493.52,139.7 591.62,139.7 493.93,42.01 	"/>
	<polygon class="st0" points="524.18,109.15 571.92,109.15 524.37,61.59 	"/>
	<polygon class="st1" points="596.77,140.71 646.64,43.5 687.35,142.37 	"/>
	<polygon class="st0" points="618.41,150.59 644.6,99.54 665.98,151.46 	"/>
</g>
</svg>
