<?xml version="1.0" encoding="utf-8"?>
<!-- Generator: Adobe Illustrator 22.1.0, SVG Export Plug-In . SVG Version: 6.00 Build 0)  -->
<svg version="1.1" xmlns="http://www.w3.org/2000/svg" xmlns:xlink="http://www.w3.org/1999/xlink" x="0px" y="0px"
	 viewBox="0 0 2510 1108" style="enable-background:new 0 0 2510 1108;" xml:space="preserve">
<style type="text/css">
	.st0{fill:#B5B5B5;}
	.st1{fill:#838383;}
	.st2{fill:#B4B4B4;}
	.st3{fill:#A4A4A4;}
	.st4{fill:#878787;}
	.st5{fill:#7D7D7D;}
	.st6{fill:#727272;}
	.st7{fill:#B2B2B2;}
	.st8{fill:#C0C0C0;}
	.st9{fill:#B8B8B8;}
	.st10{fill:#01206D;}
	.st11{fill:url(#Gradient_overlay_1_);}
	.st12{fill:#055092;}
</style>
<g id="Star_Gradient">
	<g id="Star">
		<polygon class="st0" points="1036.3,102.1 926.6,421.2 1036.7,572.5 1036.3,102.1 		"/>
		<polygon class="st1" points="1147.2,420.1 1036.3,102.1 1036.7,572.5 1036.7,572.5 		"/>
		<polygon class="st2" points="1146.6,421 1036.7,572.5 1484,426.8 		"/>
		<polygon class="st3" points="1036.7,572.5 1215.9,630.5 1484,426.8 		"/>
		<polygon class="st4" points="1214.8,630.1 1036.7,572.5 1313.9,952.6 		"/>
		<polygon class="st5" points="1036.7,572.5 1037.1,760.8 1313.9,952.6 		"/>
		<polygon class="st6" points="1036.7,572.5 761.1,953.8 1037.1,759.7 		"/>
		<polygon class="st7" points="857.8,631.3 761.1,953.8 1036.7,572.5 		"/>
		<polygon class="st8" points="925.5,420.6 588.9,428.4 1036.7,572.5 		"/>
		<polygon class="st9" points="588.9,428.4 858.8,630.8 1036.7,572.5 		"/>
	</g>
	<g id="Bar">
		<polygon class="st10" points="176,650 2387.9,650.1 2387.9,658 176.1,658 		"/>
	</g>
	
		<radialGradient id="Gradient_overlay_1_" cx="1034" cy="569.3333" r="756.1423" gradientTransform="matrix(1 0 0 0.35 0 370.0667)" gradientUnits="userSpaceOnUse">
		<stop  offset="0" style="stop-color:#FFFFFF"/>
		<stop  offset="5.733955e-02" style="stop-color:#FFFFFF;stop-opacity:0.9929"/>
		<stop  offset="0.4057" style="stop-color:#FFFFFF;stop-opacity:0.95"/>
		<stop  offset="0.9553" style="stop-color:#FFFFFF;stop-opacity:0"/>
		<stop  offset="1" style="stop-color:#FFFFFF;stop-opacity:0"/>
	</radialGradient>
	<ellipse id="Gradient_overlay" class="st11" cx="1034" cy="569.3" rx="1029" ry="368.2"/>
</g>
<g id="Bottom">
	<g>
		<path d="M1552.3,738.8h27v0.2c0,20.4-12.4,32.7-31.9,32.7c-18.7,0-31.2-12.5-31.2-31c0-10.4,3.8-19.8,10.6-26.3
			c6.6-6.3,15.2-9.6,25.2-9.6c11.7,0,20.2,4,27.1,13.1l-3.8,3.6c-5.9-7.9-13.4-11.8-23.4-11.8c-8,0-15.2,3-20.6,8.5
			c-5.9,5.9-9.2,14.1-9.2,22.7c0,15.4,10.1,25.9,25.5,25.9c14.6,0,25-9.3,25.6-23.1h-21.5L1552.3,738.8z"/>
	</g>
	<g>
		<path d="M1597.9,706.4h5.4l-8.4,63.6h-5.5L1597.9,706.4z"/>
	</g>
	<g>
		<path d="M2216.6,724.6h5.6l-5.4,45.5h-5.6L2216.6,724.6z M2221.1,703.2c2.4,0,4.2,2,4.2,4.6c0,2.6-1.8,4.6-4.2,4.6
			c-2.4,0-4.2-2-4.2-4.6C2217,705.2,2218.8,703.2,2221.1,703.2z"/>
	</g>
	<g>
		<path d="M1801.8,704.8l19.7,65.2h-6l-6.1-20.8h-27.4l-11.7,20.8h-6.1L1801.8,704.8z M1800.2,716.7l-15.4,27.9h23.3L1800.2,716.7z"
			/>
	</g>
	<g>
		<path d="M2293.2,724.3h6.1l-1.1,7.3c4.8-6,10.4-9,17.3-9c8.8,0,14.4,4.9,14.4,13.1c0,1.1-0.1,2.8-0.4,5l-3.9,28.7h-6.3l3.9-28.3
			c0.2-1.5,0.3-2.8,0.3-4.4c0-5.8-3.8-8.9-10.6-8.9c-9.1,0-14.7,6.3-16.4,19l-3,22.5h-6.3L2293.2,724.3z"/>
	</g>
	<g>
		<path d="M2079.4,722.2c13.5,0,22.7,9.3,22.7,22.2c0,15.2-10.6,26.1-25.3,26.1c-13.8,0-22.8-9.1-22.8-22.4
			C2053.9,733.3,2064.8,722.2,2079.4,722.2z M2060.3,747.8c0,10.2,6.7,17.3,16.5,17.3c10.6,0,18.7-8.6,18.7-20.2
			c0-10-6.8-17.3-16.5-17.3C2068.3,727.7,2060.3,736.1,2060.3,747.8z"/>
	</g>
	<g>
		<path d="M2255.4,722.2c13.5,0,22.7,9.3,22.7,22.2c0,15.2-10.6,26.1-25.3,26.1c-13.8,0-22.8-9.1-22.8-22.4
			C2229.9,733.3,2240.8,722.2,2255.4,722.2z M2236.3,747.8c0,10.2,6.7,17.3,16.5,17.3c10.6,0,18.7-8.6,18.7-20.2
			c0-10-6.8-17.3-16.5-17.3C2244.3,727.7,2236.3,736.1,2236.3,747.8z"/>
	</g>
	<g>
		<path d="M2119.9,705h5.2l-9,67.8h-5.2L2119.9,705z"/>
	</g>
	<g>
		<path d="M2144.4,723.5l-2.5,18.8c-0.7,5.2-1.2,9.3-1.2,12.3c0,5.9,4.1,9.6,11.2,9.6c9.6,0,13-6.4,14.8-19.5l2.9-21.3h5.9
			l-2.9,21.8c-1.1,8.3-2.2,14.5-6.1,19c-3.3,3.6-8.4,5.5-14.8,5.5c-10.7,0-17-5.6-17-14.4c0-3.6,0.5-7.6,1.1-12l2.7-19.9H2144.4z"/>
	</g>
	<g>
		<path d="M1959.8,729l0.6-5.4h7.2l2.3-18.7h5.7l-2.3,18.7h8.7l-0.7,5.4h-8.7l-4.9,40.2h-5.7l4.9-40.2H1959.8z"/>
	</g>
	<g>
		<path d="M2184.8,729l0.6-5.4h7.2l2.3-18.7h5.7l-2.3,18.7h8.7l-0.7,5.4h-8.7l-4.9,40.2h-5.7l4.9-40.2H2184.8z"/>
	</g>
	<g>
		<path d="M1908.1,747.3v1.2c0,11.2,6,17.6,16.2,17.6c6.3,0,11.3-2.9,15.3-8.7l4.3,4.2c-5.1,6.9-11.3,10-19.6,10
			c-13.9,0-22.6-9.1-22.6-22.2c0-16.5,10.5-27.7,25.1-27.7c13,0,20.5,7.7,20.5,21c0,1.3-0.1,2.9-0.3,4.7H1908.1z M1927.3,726.9
			c-9.6,0-15.9,5.2-18.6,15.2h32.2C1941,732.4,1936,726.9,1927.3,726.9z"/>
	</g>
	<g>
		<path d="M1844.8,766.5c5.3,0,8.7-3.9,8.7-8.5c0-5.1-2.8-6.6-7.8-9.1c-7.3-3.5-11.2-6.3-11.2-13.4c0-8.2,5.1-14,13-14
			c4.4,0,8.5,2.2,12.5,6.8l-3.1,4.2c-3-4-6.4-6-10-6c-4.5,0-7.6,3.5-7.6,8.5c0,5.2,3.9,6.2,9.6,9.1c6.6,3.4,9.7,7.1,9.7,13.2
			c0,8.5-5.3,14.4-14.2,14.4c-6.5,0-11.3-2.8-15.2-9.1l3.4-4C1836.2,764.1,1840,766.5,1844.8,766.5z"/>
	</g>
	<g>
		<path d="M1878.8,766.5c5.3,0,8.7-3.9,8.7-8.5c0-5.1-2.8-6.6-7.8-9.1c-7.3-3.5-11.2-6.3-11.2-13.4c0-8.2,5.1-14,13-14
			c4.4,0,8.5,2.2,12.5,6.8l-3.1,4.2c-3-4-6.4-6-10-6c-4.5,0-7.6,3.5-7.6,8.5c0,5.2,3.9,6.2,9.6,9.1c6.6,3.4,9.7,7.1,9.7,13.2
			c0,8.5-5.3,14.4-14.2,14.4c-6.5,0-11.3-2.8-15.2-9.1l3.4-4C1870.2,764.1,1874,766.5,1878.8,766.5z"/>
	</g>
	<g>
		<path d="M2352.8,766.5c5.3,0,8.7-3.9,8.7-8.5c0-5.1-2.8-6.6-7.8-9.1c-7.3-3.5-11.2-6.3-11.2-13.4c0-8.2,5.1-14,13-14
			c4.4,0,8.5,2.2,12.5,6.8l-3.1,4.2c-3-4-6.4-6-10-6c-4.5,0-7.6,3.5-7.6,8.5c0,5.2,3.9,6.2,9.6,9.1c6.6,3.4,9.7,7.1,9.7,13.2
			c0,8.5-5.3,14.4-14.2,14.4c-6.5,0-11.3-2.8-15.2-9.1l3.4-4C2344.2,764.1,2348,766.5,2352.8,766.5z"/>
	</g>
	<g>
		<path d="M1718.9,762c-7.3,6.8-13.7,10.3-20.8,10.3c-9.9,0-17.2-7.6-17.2-17.2c0-8.4,5.9-14.7,18.2-21.1c-3.3-5.2-5.1-9.4-5.1-13.2
			c0-7.6,5.8-13.1,13.7-13.1c7.6,0,12.8,4.9,12.8,11.5c0,6.3-5,11.2-14.8,16.2l13.9,19.2c2.8-2.6,5.8-5.6,8.8-9l3.3,3.6
			c-2.3,2.5-5.3,5.6-9,9.6l8.7,11.9h-6L1718.9,762z M1701.5,737.8c-10.5,5.6-15.5,10.7-15.5,17.4c0,6.9,4.9,12.1,12,12.1
			c6.1,0,11.6-3.2,18.1-9.4L1701.5,737.8z M1715.5,719.3c0-4.1-3.3-7.4-8.1-7.4c-5.1,0-8.6,3.6-8.6,8.9c0,3,1.5,6.5,4.4,10.7
			C1711.5,727.4,1715.5,723.6,1715.5,719.3z"/>
	</g>
	<g>
		<path d="M1626.1,766.9c7.2,0,11.9-5.2,11.9-13.3c0-6.9-3.3-9.6-9.7-13.3c-8.3-4.8-12.8-8.3-12.8-17.7c0-9.5,6.6-16.5,16.3-16.5
			c6.2,0,10.7,2.9,14.5,9.3l-3.3,3.2c-2.8-5.1-6.6-7.7-11.3-7.7c-6.7,0-11.5,5-11.5,11.9c0,6.8,3.8,9.2,10.3,13
			c8.1,4.7,12.6,8.3,12.6,17.8c0,10.9-7,18.3-17.1,18.3c-7.9,0-13.5-4.2-17.2-12.9l3.4-3.6C1615.6,763.1,1619.9,766.9,1626.1,766.9z
			"/>
	</g>
	<g>
		<path d="M2029.1,766.9c7.2,0,11.9-5.2,11.9-13.3c0-6.9-3.3-9.6-9.7-13.3c-8.3-4.8-12.8-8.3-12.8-17.7c0-9.5,6.6-16.5,16.3-16.5
			c6.2,0,10.7,2.9,14.5,9.3l-3.3,3.2c-2.8-5.1-6.6-7.7-11.3-7.7c-6.7,0-11.5,5-11.5,11.9c0,6.8,3.8,9.2,10.3,13
			c8.1,4.7,12.6,8.3,12.6,17.8c0,10.9-7,18.3-17.1,18.3c-7.9,0-13.5-4.2-17.2-12.9l3.4-3.6C2018.6,763.1,2022.9,766.9,2029.1,766.9z
			"/>
	</g>
</g>
<g id="Top">
	<polygon class="st12" points="258,623.9 258,512.9 306.9,512.9 306.9,488.3 175.4,488.3 175.4,512.8 224.1,512.8 224.1,623.9 	"/>
	<polygon class="st12" points="1990.8,623.9 1990.8,512.9 2039.6,512.9 2039.6,488.3 1908.1,488.3 1908.1,512.8 1956.9,512.8 
		1956.9,623.9 	"/>
	<polygon class="st12" points="309,488 407,488 407,513 342,513 342,541 404,541 404,566 342,566 342,599 409,599 409,624 309,624 	
		"/>
	<polygon class="st12" points="1208,488 1306,488 1306,513 1241,513 1241,541 1303,541 1303,566 1241,566 1241,599 1308,599 
		1308,624 1208,624 	"/>
	<polygon class="st12" points="425,488 468,488 501,528.5 532.5,488 575,488 522,554 581,624 537.1,624 501,579 464.3,624 421,624 
		479,554 	"/>
	<polygon class="st12" points="599,488 632,488 632,624 599,623.6 	"/>
	<polygon class="st12" points="2063,488 2096,488 2096,624 2063,623.6 	"/>
	<path class="st12" d="M743.9,488H705l-55,136h35.4l9.6-26h62.3l10.8,26h36L743.9,488z M704.9,572.9l20.1-52.4l22.3,52.4H704.9z"/>
	<path class="st12" d="M1840.3,488h-38.9l-55,136h35.4l9.6-26h62.3l10.8,26h36L1840.3,488z M1801.3,572.9l20.1-52.4l22.3,52.4
		H1801.3z"/>
	<path class="st12" d="M2207.6,488h-38.9l-55,136h35.4l9.6-26h62.3l10.8,26h36L2207.6,488z M2168.6,572.9l20.1-52.4l22.3,52.4
		H2168.6z"/>
	<polygon class="st12" points="821,624 854,624 854,537.1 930,624 958,624 958,488 925,488 925,571.4 852,488 821,488 	"/>
	<path class="st12" d="M1408.3,486c-41.5,0-79.3,26-79.3,66.7c0,69.3,67.6,73.3,77.9,73.3c10.4,0,73.9-5.1,77.1-70
		C1479.5,484,1408.3,486,1408.3,486z M1406.8,598c0,0-43.6,2-43.6-44c0,0,0-40,44.4-40c0,0,42.1-1,42.4,42S1406.8,598,1406.8,598z"
		/>
	<path class="st12" d="M1125,552.1h53v55.8c0,0-17.4,18.1-60.6,18.1s-78.4-30.1-78.4-70.3s32.3-69.9,86-69.9
		c24.5-0.6,50,11.3,50,11.3v29.5c0,0-24.1-12.8-50-12.8s-43.5,12.2-48.1,27.1s-2,25-2,25c9.8,37.6,50.1,32.4,50.1,32.4
		c8.5-0.8,19-5.1,19-5.1v-16.1l-19-0.1V552.1z"/>
	<path class="st12" d="M1600.9,522v-25.8c0,0-22.6-10.2-44.9-10.2s-51.9,8.4-51.9,40.1s26.3,37.9,52.6,47.2s19.6,27.9-4.2,27.9
		s-46-16.9-46-16.9l0.6,28.4c0,0,18.9,13.4,48.9,13.4s51.9-15.1,51.9-41.6s-20.6-36.7-46.7-45.5c-15.9-5.4-23.3-10.8-23.3-16.3
		c0-5.4,2.5-11.7,22.8-11.7S1600.9,522,1600.9,522z"/>
	<path class="st12" d="M1695.8,488h-63.9v136h33.3v-54.9h30.5c0,0,41.9-1.6,41.9-40.8S1695.8,488,1695.8,488z M1689.1,543.6h-24V513
		c0,0,12.3,0,22.9,0c0,0,15,1.6,15,15.3S1689.1,543.6,1689.1,543.6z"/>
	<polygon class="st12" points="2284.5,488 2284.5,624 2387.9,624 2387.9,599 2318.3,599 2318.3,488 	"/>
</g>
</svg>
