<?xml version="1.0" encoding="utf-8"?>
<!-- Generator: Adobe Illustrator 23.1.0, SVG Export Plug-In . SVG Version: 6.00 Build 0)  -->
<svg version="1.1" id="Layer_1" xmlns="http://www.w3.org/2000/svg" xmlns:xlink="http://www.w3.org/1999/xlink" x="0px" y="0px"
	 viewBox="0 0 152.63 44.93" style="enable-background:new 0 0 152.63 44.93;" xml:space="preserve">
<style type="text/css">
	.st0{fill:#01295B;}
</style>
<g>
	<g>
		<path class="st0" d="M26.35,26.54c0,3.19,0,5.94,0.17,7.43c0.1,0.97,0.31,1.74,1.35,1.88c0.49,0.07,1.25,0.14,1.77,0.14
			c0.38,0,0.56,0.1,0.56,0.28c0,0.24-0.28,0.35-0.66,0.35c-2.29,0-4.48-0.1-5.45-0.1c-0.8,0-2.99,0.1-4.37,0.1
			c-0.45,0-0.69-0.1-0.69-0.35c0-0.17,0.14-0.28,0.56-0.28c0.52,0,0.94-0.07,1.25-0.14c0.69-0.14,0.9-0.9,1.01-1.91
			c0.17-1.46,0.17-4.2,0.17-7.39V12.31c-1.32,0.04-3.47,0.1-5.17,0.14c-2.01,0.07-2.85,0.24-3.37,1.01
			c-0.35,0.52-0.52,0.94-0.59,1.21c-0.07,0.28-0.17,0.42-0.38,0.42c-0.24,0-0.31-0.17-0.31-0.56c0-0.56,0.66-3.71,0.73-3.99
			c0.1-0.45,0.21-0.66,0.42-0.66c0.28,0,0.63,0.35,1.49,0.42c1.01,0.1,2.33,0.17,3.47,0.17h13.75c1.11,0,1.88-0.1,2.4-0.17
			c0.52-0.1,0.8-0.17,0.94-0.17c0.24,0,0.28,0.21,0.28,0.73c0,0.73-0.1,3.12-0.1,4.03c-0.03,0.35-0.1,0.55-0.31,0.55
			c-0.28,0-0.35-0.17-0.38-0.69c0-0.1-0.04-0.28-0.04-0.38c-0.07-0.9-1.01-1.87-4.1-1.94c-0.9-0.04-2.33-0.07-4.37-0.1V26.54z"/>
	</g>
	<g>
		<path class="st0" d="M84.75,31.31c0-2.73,2.28-4.67,3.65-5.35c-0.96-1.31-1.07-2.29-1.09-3.34c-0.02-1.84,1.57-4.3,5.54-4.3
			c1.12,0,2.14,0.23,2.76,0.49c0.39,0.14,0.39,0.33,0.39,0.61c0,0.77-0.18,2.64-0.25,2.99c-0.05,0.35-0.14,0.4-0.27,0.4
			s-0.16-0.09-0.16-0.44c0-0.61-0.16-1.35-0.66-1.96c-0.46-0.56-1.25-1.05-2.53-1.05c-0.96,0-2.44,0.68-2.44,2.66
			c0,2.19,1.96,4.06,3.79,6.14c0.78,0.91,3.58,3.5,4.01,3.9c0.46-0.65,1.1-2.17,1.1-3.6c0-0.35-0.09-0.77-0.43-1.07
			c-0.3-0.28-0.73-0.33-1.07-0.35c-0.14,0-0.37-0.05-0.37-0.19c0-0.19,0.23-0.23,0.41-0.23c0.55,0,1.46,0.05,2.74,0.16
			c0.55,0.05,0.78,0.19,0.78,0.47c0,1.8-0.94,3.97-2.24,5.53c1.53,1.28,2.55,1.91,3.17,2.29c0.73,0.44,1.76,0.77,2.44,0.82
			c0.21,0.02,0.32,0.05,0.32,0.21c0,0.14-0.16,0.21-0.66,0.21c-0.16,0-1.62,0-1.78,0c-2.6,0-3.51-0.12-5.48-1.66
			c-0.75,0.7-2.19,1.98-5.31,1.98C86.21,36.63,84.75,33.48,84.75,31.31z M95.51,33.9c-2.9-2.8-4.33-4.44-6.52-7.05
			c-0.78,0.58-1.51,1.66-1.51,3.53c0,2.92,2.03,4.76,4.47,4.76C93.71,35.14,95.03,34.37,95.51,33.9z"/>
	</g>
	<g>
		<path class="st0" d="M107.6,34.09c-2.29-2.01-2.89-4.62-2.89-6.89c0-1.59,0.49-4.34,2.73-6.4c1.68-1.54,3.9-2.47,7.38-2.47
			c1.45,0,2.31,0.09,3.39,0.23c0.89,0.12,1.7,0.33,2.4,0.4c0.26,0.02,0.28,0.14,0.28,0.28c0,0.19-0.07,0.47-0.12,1.28
			c-0.05,0.77-0.02,2.05-0.07,2.52c-0.02,0.35-0.07,0.56-0.28,0.56c-0.19,0-0.23-0.21-0.23-0.54c-0.02-0.72-0.33-1.54-0.91-2.15
			c-0.77-0.82-2.59-1.45-4.74-1.45c-2.03,0-3.36,0.51-4.39,1.45c-1.7,1.56-2.15,3.78-2.15,6.05c0,5.56,4.23,8.31,7.35,8.31
			c2.08,0,3.34-0.23,4.27-1.31c0.4-0.44,0.7-1.12,0.79-1.54c0.07-0.37,0.12-0.47,0.3-0.47c0.16,0,0.21,0.16,0.21,0.35
			c0,0.28-0.28,2.31-0.51,3.1c-0.12,0.4-0.21,0.51-0.61,0.68c-0.93,0.37-2.71,0.54-4.2,0.54C112.41,36.63,109.73,35.93,107.6,34.09z
			"/>
	</g>
	<g>
		<path class="st0" d="M121.66,27.45c0-4,2.64-9.16,9.65-9.16c5.82,0,9.44,3.39,9.44,8.74c0,5.35-3.74,9.58-9.68,9.58
			C124.37,36.62,121.66,31.59,121.66,27.45z M137.48,27.9c0-5.24-3.02-8.49-6.85-8.49c-2.69,0-5.75,1.5-5.75,7.32
			c0,4.86,2.69,8.72,7.18,8.72C133.7,35.45,137.48,34.65,137.48,27.9z"/>
	</g>
	<g>
		<path class="st0" d="M39.17,20.43c0-5.28,0-6.25-0.07-7.36c-0.07-1.18-0.34-1.74-1.45-1.98c-0.27-0.07-0.84-0.1-1.31-0.1
			c-0.37,0-0.57-0.07-0.57-0.31c0-0.24,0.24-0.31,0.74-0.31c1.78,0,3.9,0.1,4.84,0.1c1.38,0,3.33-0.1,4.88-0.1
			c4.2,0,5.55,1.32,6.32,2.08c0.74,0.76,1.61,2.15,1.61,4.55c0,4.27-3.5,7.88-8.27,7.88c-0.17,0-0.54,0-0.71-0.04
			c-0.17-0.03-0.4-0.07-0.4-0.31c0-0.28,0.24-0.38,0.94-0.38c1.88,0,4.51-2.22,4.51-5.76c0-1.15,0-3.44-1.88-5.17
			c-1.21-1.15-2.69-1.35-3.46-1.35c-0.5,0-1.01,0.04-1.31,0.14c-0.17,0.07-0.27,0.28-0.27,0.66v13.88c0,3.19,0,5.94,0.17,7.43
			c0.1,0.97,0.3,1.74,1.31,1.88c0.47,0.07,1.21,0.14,1.71,0.14c0.37,0,0.54,0.1,0.54,0.28c0,0.24-0.27,0.35-0.64,0.35
			c-2.22,0-4.34-0.1-5.21-0.1c-0.77,0-2.89,0.1-4.24,0.1c-0.44,0-0.67-0.1-0.67-0.35c0-0.17,0.13-0.28,0.54-0.28
			c0.5,0,0.91-0.07,1.21-0.14c0.67-0.14,0.84-0.9,0.98-1.91c0.17-1.46,0.17-4.2,0.17-7.39V20.43z"/>
	</g>
	<g>
		<path class="st0" d="M74.72,21.41c0.1,0,0.2-0.07,0.2-0.24v-0.73c0-5.28,0-6.25-0.07-7.36c-0.07-1.18-0.33-1.74-1.41-1.98
			c-0.26-0.07-0.82-0.1-1.28-0.1c-0.36,0-0.56-0.07-0.56-0.31c0-0.24,0.23-0.31,0.69-0.31c1.77,0,3.84,0.1,4.73,0.1
			c0.79,0,2.86-0.1,4.14-0.1c0.46,0,0.69,0.07,0.69,0.31c0,0.24-0.2,0.31-0.59,0.31c-0.26,0-0.56,0.04-0.95,0.1
			c-0.89,0.17-1.15,0.76-1.21,1.98c-0.07,1.11-0.07,2.08-0.07,7.36v6.11c0,3.19,0,5.94,0.16,7.43c0.1,0.97,0.3,1.74,1.28,1.88
			c0.46,0.07,1.18,0.14,1.67,0.14c0.36,0,0.53,0.1,0.53,0.28c0,0.24-0.26,0.35-0.66,0.35c-2.13,0-4.2-0.1-5.12-0.1
			c-0.75,0-2.82,0.1-4.1,0.1c-0.46,0-0.69-0.1-0.69-0.35c0-0.17,0.13-0.28,0.53-0.28c0.49,0,0.89-0.07,1.18-0.14
			c0.66-0.14,0.82-0.9,0.95-1.91c0.16-1.46,0.16-4.2,0.16-7.39v-3.05c0-0.14-0.1-0.21-0.2-0.21H62.17c-0.1,0-0.2,0.03-0.2,0.21v3.05
			c0,3.19,0,5.94,0.16,7.43c0.1,0.97,0.29,1.74,1.28,1.88c0.46,0.07,1.18,0.14,1.67,0.14c0.36,0,0.53,0.1,0.53,0.28
			c0,0.24-0.26,0.35-0.66,0.35c-2.13,0-4.2-0.1-5.12-0.1c-0.75,0-2.82,0.1-4.14,0.1c-0.43,0-0.66-0.1-0.66-0.35
			c0-0.17,0.13-0.28,0.53-0.28c0.49,0,0.89-0.07,1.18-0.14c0.66-0.14,0.82-0.9,0.95-1.91c0.16-1.46,0.16-4.2,0.16-7.39v-6.11
			c0-5.28,0-6.25-0.07-7.36c-0.07-1.18-0.33-1.74-1.41-1.98c-0.26-0.07-0.82-0.1-1.28-0.1c-0.36,0-0.56-0.07-0.56-0.31
			c0-0.24,0.23-0.31,0.69-0.31c1.77,0,3.84,0.1,4.73,0.1c0.79,0,2.86-0.1,4.14-0.1c0.46,0,0.69,0.07,0.69,0.31
			c0,0.24-0.29,0.31-0.59,0.31c-0.26,0-0.69,0.04-0.95,0.07c-0.89,0.14-1.15,0.8-1.21,2.01c-0.07,1.11-0.07,2.08-0.07,7.36v0.73
			c0,0.17,0.1,0.24,0.2,0.24H74.72z"/>
	</g>
</g>
<g>
</g>
<g>
</g>
<g>
</g>
<g>
</g>
<g>
</g>
<g>
</g>
<g>
</g>
<g>
</g>
<g>
</g>
<g>
</g>
<g>
</g>
<g>
</g>
<g>
</g>
<g>
</g>
<g>
</g>
</svg>
