<?xml version="1.0" encoding="utf-8"?>
<!-- Generator: Adobe Illustrator 23.1.0, SVG Export Plug-In . SVG Version: 6.00 Build 0)  -->
<svg version="1.1" id="Layer_1" xmlns="http://www.w3.org/2000/svg" xmlns:xlink="http://www.w3.org/1999/xlink" x="0px" y="0px"
	 viewBox="0 0 897.41 186.2" style="enable-background:new 0 0 897.41 186.2;" xml:space="preserve">
<style type="text/css">
	.st0{fill:#212121;}
	.st1{fill:#1B99E8;}
</style>
<g>
	<path class="st0" d="M238.87,126.6c-3.71,0-6.95-0.49-9.72-1.46c-2.77-0.98-5.13-2.43-7.09-4.35c-2.21-2.21-3.76-4.84-4.67-7.91
		c-0.91-3.07-1.36-6.85-1.36-11.35V62.1h8.4v39.42c0,2.91,0.18,5.37,0.55,7.36c0.37,2,1.09,3.79,2.16,5.37
		c1.13,1.7,2.67,2.98,4.6,3.86c1.94,0.88,4.31,1.31,7.11,1.31c2.63,0,4.96-0.44,7-1.31c2.04-0.88,3.62-2.16,4.75-3.86
		c1.05-1.61,1.76-3.39,2.14-5.35c0.38-1.95,0.57-4.34,0.57-7.17V62.1h8.4v39.42c0,4.39-0.45,8.15-1.34,11.29
		c-0.89,3.14-2.45,5.8-4.69,7.98c-2.01,1.95-4.35,3.41-7.02,4.37C246.02,126.12,242.75,126.6,238.87,126.6z"/>
	<path class="st0" d="M266.54,125.28l21.3-63.19h10.35l21.3,63.19h-8.87l-5.73-17.65h-24.15l-5.73,17.65H266.54z M302.57,100.46
		l-9.76-29.79l-9.72,29.79H302.57z"/>
	<path class="st0" d="M368.94,62.1l-21.73,63.19h-9.08L316.4,62.1h9l17.48,52.45l17.48-52.45H368.94z"/>
	<path class="st1" d="M419.78,126.43c-4.58,0-8.48-0.47-11.69-1.42c-3.21-0.95-6.23-2.11-9.06-3.5v-10.52h0.59
		c2.77,2.6,5.91,4.62,9.42,6.05c3.51,1.43,6.89,2.14,10.14,2.14c4.64,0,8.15-0.97,10.52-2.91c2.38-1.94,3.56-4.49,3.56-7.66
		c0-2.52-0.62-4.57-1.87-6.15c-1.25-1.58-3.23-2.76-5.94-3.52c-1.95-0.57-3.73-1.03-5.35-1.4c-1.61-0.37-3.64-0.86-6.07-1.49
		c-2.18-0.57-4.13-1.29-5.86-2.16c-1.73-0.88-3.25-2.02-4.58-3.44c-1.3-1.39-2.31-3.02-3.03-4.9c-0.72-1.88-1.08-4.05-1.08-6.51
		c0-5.12,1.99-9.41,5.98-12.88c3.99-3.46,9.08-5.2,15.28-5.2c3.54,0,6.88,0.35,10.04,1.06c3.15,0.71,6.08,1.71,8.76,3.01v10.06
		h-0.64c-2.01-1.84-4.58-3.44-7.72-4.82c-3.14-1.37-6.44-2.06-9.89-2.06c-3.9,0-7.06,0.91-9.46,2.74c-2.4,1.82-3.61,4.22-3.61,7.19
		c0,2.69,0.71,4.82,2.12,6.41c1.41,1.58,3.46,2.74,6.15,3.48c1.78,0.48,3.96,1.03,6.54,1.63c2.57,0.61,4.71,1.17,6.41,1.68
		c4.36,1.33,7.54,3.34,9.55,6.03c2.01,2.69,3.01,6,3.01,9.93c0,2.46-0.5,4.89-1.51,7.3c-1,2.4-2.41,4.44-4.22,6.11
		c-2.04,1.84-4.34,3.25-6.9,4.24C426.83,125.93,423.63,126.43,419.78,126.43z"/>
	<path class="st1" d="M472.65,126.6c-3.71,0-6.95-0.49-9.72-1.46c-2.77-0.98-5.14-2.43-7.09-4.35c-2.21-2.21-3.76-4.84-4.67-7.91
		c-0.91-3.07-1.36-6.85-1.36-11.35V62.1h8.4v39.42c0,2.91,0.18,5.37,0.55,7.36c0.37,2,1.09,3.79,2.16,5.37
		c1.13,1.7,2.67,2.98,4.6,3.86c1.94,0.88,4.31,1.31,7.11,1.31c2.63,0,4.96-0.44,7-1.31c2.04-0.88,3.62-2.16,4.75-3.86
		c1.05-1.61,1.76-3.39,2.14-5.35c0.38-1.95,0.57-4.34,0.57-7.17V62.1h8.4v39.42c0,4.39-0.45,8.15-1.34,11.29
		c-0.89,3.14-2.45,5.8-4.69,7.98c-2.01,1.95-4.35,3.41-7.02,4.37C479.8,126.12,476.53,126.6,472.65,126.6z"/>
	<path class="st1" d="M556.51,125.28H545.6l-20.03-25.12h-9.59v25.12h-8.4V62.1h16.3c3.62,0,6.65,0.2,9.1,0.59
		c2.45,0.4,4.77,1.32,6.98,2.76c2.21,1.42,3.95,3.24,5.24,5.47c1.29,2.23,1.93,5.01,1.93,8.32c0,4.64-1.17,8.52-3.52,11.63
		c-2.35,3.11-5.54,5.42-9.59,6.92L556.51,125.28z M538.34,79.88c0-1.84-0.33-3.47-0.98-4.9c-0.65-1.43-1.66-2.59-3.01-3.5
		c-1.19-0.79-2.57-1.35-4.16-1.68c-1.59-0.32-3.55-0.49-5.9-0.49h-8.32v23.85h7.38c2.4,0,4.57-0.21,6.49-0.64
		c1.92-0.42,3.56-1.3,4.92-2.63c1.22-1.19,2.11-2.6,2.69-4.24C538.05,84.01,538.34,82.08,538.34,79.88z"/>
	<path class="st1" d="M607.3,62.1l-21.73,63.19h-9.08L554.77,62.1h9l17.48,52.45l17.48-52.45H607.3z"/>
	<path class="st1" d="M613.37,125.28V62.1h39.51v7.47h-31.11v17.31h28.98v7.47h-28.98v23.47h31.11v7.47H613.37z"/>
	<path class="st1" d="M706.35,62.1L685,97.32v27.97h-8.4V98.21L655.26,62.1h9.34l16.3,27.88l16.55-27.88H706.35z"/>
	<path class="st1" d="M775.99,125.28h-36.62V62.1h8.4v55.72h28.22V125.28z"/>
	<path class="st1" d="M819.23,125.28h-36.62V62.1h8.4v55.72h28.22V125.28z"/>
	<path class="st1" d="M849.78,126.43c-4.13,0-7.93-0.69-11.39-2.08s-6.46-3.45-8.97-6.2c-2.52-2.74-4.47-6.17-5.86-10.27
		c-1.39-4.1-2.08-8.81-2.08-14.13c0-5.29,0.67-9.9,2.02-13.83c1.34-3.93,3.3-7.36,5.88-10.27c2.52-2.83,5.5-4.99,8.95-6.47
		c3.45-1.49,7.31-2.23,11.59-2.23c2.12,0,4.11,0.16,5.96,0.47c1.85,0.31,3.57,0.71,5.16,1.19c1.36,0.42,2.75,0.95,4.18,1.59
		c1.43,0.64,2.84,1.34,4.22,2.1v10.14h-0.68c-0.74-0.68-1.68-1.5-2.84-2.46c-1.16-0.96-2.58-1.91-4.24-2.84
		c-1.61-0.88-3.37-1.6-5.26-2.16c-1.9-0.57-4.09-0.85-6.58-0.85c-2.69,0-5.23,0.55-7.64,1.65c-2.4,1.1-4.51,2.73-6.32,4.88
		c-1.78,2.15-3.17,4.85-4.16,8.11c-0.99,3.25-1.49,6.92-1.49,10.99c0,4.33,0.52,8.06,1.57,11.18c1.05,3.13,2.48,5.76,4.29,7.91
		c1.75,2.09,3.82,3.67,6.2,4.73c2.38,1.06,4.89,1.59,7.55,1.59c2.43,0,4.68-0.3,6.75-0.89c2.06-0.59,3.9-1.34,5.52-2.25
		c1.55-0.88,2.9-1.78,4.03-2.69c1.13-0.92,2.02-1.7,2.67-2.36h0.64V121c-1.39,0.65-2.69,1.27-3.92,1.87
		c-1.23,0.59-2.72,1.17-4.48,1.74c-1.84,0.59-3.54,1.05-5.11,1.36C854.34,126.27,852.3,126.43,849.78,126.43z"/>
</g>
<g>
	<path class="st0" d="M143.22,107.88c-2.13,0.09-2.92,0.2-3.71,0.38c0,0-1.39,0.18-1.39,2.34s2.21,2.3,2.21,2.3
		c1.15-0.03,1.75-0.09,2.86-0.05c10.75,0,19.47,8.72,19.47,19.47c0,10.75-8.72,19.47-19.47,19.47c-10.75,0-19.41-8.72-19.41-19.47
		c0.03-1.55-0.03-2.17,0.08-3.95c0,0-0.03-2.18-2.15-2.18s-2.23,1.21-2.45,1.83c-0.22,0.62-0.35,2.01-0.35,4.21
		c0,13.53,10.77,24.5,24.3,24.5c13.53,0,24.5-10.97,24.5-24.5C167.72,118.69,156.75,107.88,143.22,107.88z"/>
	<path class="st0" d="M118.92,54.82c0.16,2.13,0.3,2.91,0.51,3.69c0,0,0.22,1.38,2.38,1.31c2.16-0.07,2.22-2.29,2.22-2.29
		c-0.07-1.15-0.15-1.75-0.15-2.86c-0.36-10.74,8.05-19.75,18.79-20.12c10.74-0.36,19.75,8.05,20.12,18.79
		c0.36,10.74-8.05,19.69-18.8,20.06c-1.55,0.02-2.16,0.1-3.95,0.05c0,0-2.18,0.1-2.11,2.22c0.07,2.12,1.29,2.19,1.92,2.39
		c0.63,0.2,2.02,0.28,4.22,0.2c13.52-0.46,24.12-11.59,23.66-25.12c-0.46-13.52-11.79-24.12-25.32-23.66
		C128.89,29.97,118.46,41.3,118.92,54.82z"/>
	<path class="st0" d="M64.74,78.31c2.13-0.08,2.92-0.2,3.71-0.37c0,0,1.39-0.17,1.39-2.33c0.01-2.16-2.2-2.3-2.2-2.3
		c-1.15,0.03-1.75,0.08-2.86,0.04c-10.75-0.03-19.45-8.76-19.42-19.51s8.76-19.45,19.51-19.42c10.75,0.03,19.39,8.76,19.36,19.51
		c-0.03,1.55,0.02,2.17-0.09,3.95c0,0,0.02,2.18,2.14,2.19s2.23-1.21,2.45-1.83c0.22-0.62,0.35-2.01,0.36-4.21
		C89.13,40.5,78.39,29.5,64.86,29.47C51.32,29.44,40.33,40.39,40.3,53.92C40.27,67.45,51.21,78.28,64.74,78.31z"/>
	<path class="st0" d="M89.09,131.1c-0.18-2.13-0.34-2.91-0.55-3.69c0,0-0.24-1.38-2.4-1.28c-2.16,0.1-2.2,2.31-2.2,2.31
		c0.08,1.15,0.16,1.74,0.18,2.86c0.48,10.74-7.83,19.84-18.57,20.32s-19.84-7.83-20.32-18.57c-0.48-10.74,7.83-19.78,18.57-20.26
		c1.54-0.04,2.16-0.13,3.95-0.1c0,0,2.18-0.13,2.09-2.24c-0.1-2.11-1.31-2.17-1.94-2.36s-2.03-0.26-4.22-0.16
		c-13.52,0.61-23.99,11.86-23.39,25.37c0.61,13.52,12.06,23.98,25.58,23.38C79.39,156.07,89.7,144.62,89.09,131.1z"/>
	<path class="st0" d="M125.33,92.48c0,0-0.47-11.33,17.21-31.61c0,0,1.09-1.27,1.85-2.55s0.25-3.43-0.45-4.09
		c-0.7-0.66-2.06-1.48-4.24-1.07c-2.18,0.41-11.33,9.46-21.14,14.4s-10.35,5.1-14.68,5.1c-4.33,0-10.99-1.69-24.54-11.66
		c0,0-8.68-6.33-10.38-7.55c-1.69-1.23-4.07-0.02-4.61,0.55c-0.55,0.56-2.53,2.18,0.55,6.38c3.08,4.2,10.55,12.07,13.78,19.45
		c3.23,7.38,3.68,8.24,3.95,13.23c0.27,4.99-4.09,14.45-7.57,19.57s-9.25,12.21-11.21,14.52c-1.97,2.32,0.41,7.26,4.19,5.61
		c3.78-1.65,16.43-12.61,26.53-17.11c0,0,5.84-2.42,9.99-2.42c4.15,0,13.37,4.53,18.1,7.74c4.73,3.21,13.84,10.06,16.03,11.34
		s7.83,0.55,5.4-5.09c0,0-11.18-13.64-14.16-19.07c-2.98-5.43-3.88-9.37-4.23-11.12C125.33,95.27,125.33,92.48,125.33,92.48z"/>
</g>
</svg>
