<?xml version="1.0" encoding="utf-8"?>
<!-- Generator: Adobe Illustrator 26.5.0, SVG Export Plug-In . SVG Version: 6.00 Build 0)  -->
<svg version="1.1" id="Layer_1" xmlns="http://www.w3.org/2000/svg" xmlns:xlink="http://www.w3.org/1999/xlink" x="0px" y="0px"
	 viewBox="0 0 219.06 60.82" style="enable-background:new 0 0 219.06 60.82;" xml:space="preserve">
<style type="text/css">
	.st0{fill:#5D0025;}
	.st1{fill:#FFFFFF;}
	.st2{fill:#B1B3B6;}
	.st3{fill:#231F20;}
</style>
<g>
	<rect x="3.72" y="3.41" class="st0" width="53.58" height="54"/>
	<g>
		<polygon class="st1" points="50.18,24.9 46.2,24.9 45.97,24.9 45.87,25.11 42.99,31.12 40.09,25.11 39.99,24.9 39.76,24.9 
			35.92,24.9 35.55,24.9 35.55,25.27 35.55,27.32 35.55,27.68 35.92,27.68 36.57,27.68 36.57,36.28 35.86,36.28 35.5,36.28 
			35.5,36.65 35.5,38.7 35.5,39.06 35.86,39.06 40.18,39.06 40.55,39.06 40.55,38.7 40.55,36.65 40.55,36.28 40.18,36.28 
			39.43,36.28 39.43,30.18 42.66,36.83 42.99,37.51 43.32,36.83 46.58,30.16 46.58,36.28 45.87,36.28 45.5,36.28 45.5,36.65 
			45.5,38.7 45.5,39.06 45.87,39.06 50.18,39.06 50.55,39.06 50.55,38.7 50.55,36.65 50.55,36.28 50.18,36.28 49.44,36.28 
			49.44,27.68 50.18,27.68 50.55,27.68 50.55,27.32 50.55,25.27 50.55,24.9 		"/>
		<path class="st1" d="M25.11,36.27h-1.15l-3.74-8.64h0.36h0.37v-0.37v-2.05v-0.37h-0.37H15.3h-0.37v0.37v2.05v0.37h0.37h0.46
			l-3.74,8.64h-1.19h-0.37v0.37v2.05v0.37h0.37h4.71h0.37v-0.37v-2.05v-0.37h-0.37h-0.43l0.62-1.44h4.49l0.62,1.44h-0.47h-0.37v0.37
			v2.05v0.37h0.37h4.72h0.37v-0.37v-2.05v-0.37H25.11z M19.04,32.06h-2.09l1.04-2.41L19.04,32.06z"/>
		<polygon class="st1" points="45.61,14.1 15.31,14.1 14.89,14.1 14.89,14.52 14.89,22.62 14.89,23.03 15.31,23.03 20.54,23.03 
			20.96,23.03 20.96,22.62 20.96,19.61 27.43,19.61 27.43,40.94 24.42,40.94 24,40.94 24,41.36 24,46.59 24,47.01 24.42,47.01 
			36.5,47.01 36.92,47.01 36.92,46.59 36.92,41.36 36.92,40.94 36.5,40.94 33.5,40.94 33.5,19.61 39.92,19.61 39.92,22.58 39.92,23 
			40.35,23 45.61,23 46.03,23 46.03,22.58 46.03,14.52 46.03,14.1 		"/>
		<g>
			<polygon class="st2" points="34.4,43.43 35.68,42.11 35.68,45.73 34.4,44.5 			"/>
			<polygon class="st2" points="32.26,42.21 30.98,43.47 30.98,17.09 32.26,18.37 			"/>
			<polygon class="st2" points="17.46,16.63 16.14,15.35 44.15,15.35 42.49,16.63 			"/>
			<polygon class="st2" points="44.83,21.82 43.54,20.6 43.54,17.34 44.83,16.03 			"/>
		</g>
	</g>
	<path class="st0" d="M59.2,56.34c0-0.59,0.48-1.07,1.07-1.07c0.59,0,1.07,0.48,1.07,1.07c0,0.59-0.48,1.07-1.07,1.07
		C59.69,57.41,59.2,56.93,59.2,56.34z M61.09,56.34c0-0.5-0.36-0.87-0.81-0.87c-0.45,0-0.81,0.36-0.81,0.87
		c0,0.5,0.36,0.87,0.81,0.87C60.73,57.2,61.09,56.84,61.09,56.34z M59.86,55.72h0.45c0.29,0,0.45,0.1,0.45,0.36
		c0,0.21-0.12,0.31-0.32,0.33l0.33,0.53h-0.23l-0.32-0.52h-0.14v0.52h-0.23V55.72z M60.09,56.24h0.2c0.13,0,0.25-0.02,0.25-0.18
		c0-0.14-0.13-0.17-0.25-0.17h-0.2V56.24z"/>
</g>
<g>
	<path class="st3" d="M75.93,19.04h-1.34v-7.06h-2.41v-1.15h6.17v1.15h-2.41V19.04z"/>
	<path class="st3" d="M84.82,19.04h-4.64v-8.21h4.64v1.13h-3.3v2.24h3.09v1.12h-3.09v2.58h3.3V19.04z"/>
	<path class="st3" d="M93.22,19.04h-1.54l-2.05-3.36l-2.07,3.36h-1.44l2.72-4.26l-2.55-3.95h1.49l1.9,3.1l1.9-3.1h1.45l-2.57,3.97
		L93.22,19.04z"/>
	<path class="st3" d="M99.99,19.04l-0.82-2.28h-3.14l-0.8,2.28h-1.42l3.07-8.24h1.46l3.07,8.24H99.99z M98.82,15.6l-0.77-2.24
		c-0.06-0.15-0.13-0.38-0.23-0.71c-0.1-0.32-0.17-0.56-0.21-0.71c-0.1,0.46-0.25,0.96-0.44,1.51l-0.74,2.14H98.82z"/>
	<path class="st3" d="M107.81,16.81c0,0.73-0.26,1.3-0.79,1.72c-0.53,0.42-1.26,0.62-2.18,0.62c-0.93,0-1.69-0.14-2.28-0.43v-1.27
		c0.37,0.18,0.77,0.31,1.19,0.42c0.42,0.1,0.81,0.15,1.18,0.15c0.53,0,0.92-0.1,1.18-0.3s0.38-0.47,0.38-0.81
		c0-0.31-0.12-0.57-0.35-0.78c-0.23-0.21-0.71-0.47-1.44-0.76c-0.75-0.3-1.28-0.65-1.58-1.04c-0.31-0.39-0.46-0.86-0.46-1.4
		c0-0.68,0.24-1.22,0.73-1.62c0.49-0.39,1.14-0.59,1.96-0.59c0.79,0,1.57,0.17,2.35,0.52l-0.43,1.09c-0.73-0.31-1.38-0.46-1.96-0.46
		c-0.43,0-0.76,0.09-0.99,0.28c-0.22,0.19-0.34,0.44-0.34,0.75c0,0.21,0.04,0.4,0.13,0.55s0.24,0.29,0.44,0.43s0.58,0.31,1.11,0.53
		c0.6,0.25,1.04,0.49,1.33,0.7c0.28,0.22,0.49,0.46,0.62,0.74C107.75,16.12,107.81,16.44,107.81,16.81z"/>
	<path class="st3" d="M118.63,19.04l-0.82-2.28h-3.14l-0.8,2.28h-1.42l3.07-8.24h1.46l3.07,8.24H118.63z M117.46,15.6l-0.77-2.24
		c-0.06-0.15-0.13-0.38-0.23-0.71c-0.1-0.32-0.17-0.56-0.21-0.71c-0.1,0.46-0.25,0.96-0.44,1.51l-0.74,2.14H117.46z"/>
	<path class="st3" d="M121.17,16.87c0-0.49,0.12-0.92,0.36-1.28c0.24-0.37,0.67-0.73,1.3-1.09c-0.36-0.42-0.6-0.77-0.73-1.05
		s-0.19-0.58-0.19-0.89c0-0.57,0.2-1.02,0.61-1.35c0.41-0.33,0.95-0.49,1.64-0.49c0.66,0,1.18,0.16,1.56,0.48
		c0.38,0.32,0.57,0.75,0.57,1.29c0,0.43-0.12,0.81-0.38,1.16c-0.25,0.35-0.67,0.7-1.27,1.04l1.94,1.87c0.3-0.4,0.55-0.99,0.76-1.76
		h1.36c-0.26,1.06-0.68,1.93-1.26,2.6l1.69,1.63h-1.7l-0.84-0.81c-0.38,0.31-0.79,0.54-1.22,0.69c-0.43,0.16-0.91,0.23-1.43,0.23
		c-0.86,0-1.54-0.2-2.03-0.61S121.17,17.57,121.17,16.87z M124,18.02c0.69,0,1.27-0.2,1.76-0.6l-2.15-2.12
		c-0.4,0.25-0.67,0.49-0.82,0.72c-0.15,0.22-0.22,0.48-0.22,0.76c0,0.37,0.13,0.67,0.39,0.9S123.56,18.02,124,18.02z M123.17,12.6
		c0,0.24,0.06,0.46,0.19,0.67s0.3,0.43,0.53,0.67c0.42-0.24,0.72-0.46,0.89-0.67c0.17-0.21,0.25-0.44,0.25-0.7
		c0-0.24-0.08-0.44-0.24-0.58c-0.16-0.15-0.38-0.22-0.65-0.22c-0.29,0-0.53,0.08-0.7,0.23C123.25,12.14,123.17,12.34,123.17,12.6z"
		/>
	<path class="st3" d="M134.35,19.04l-2.38-6.86h-0.04c0.06,1.02,0.1,1.97,0.1,2.86v3.99h-1.22v-8.21h1.89l2.28,6.53h0.03l2.35-6.53
		h1.9v8.21h-1.29v-4.06c0-0.41,0.01-0.94,0.03-1.59c0.02-0.66,0.04-1.05,0.05-1.19H138l-2.46,6.84H134.35z"/>
	<path class="st3" d="M151.99,10.83v5.31c0,0.61-0.13,1.14-0.39,1.59s-0.64,0.8-1.13,1.05s-1.08,0.37-1.77,0.37
		c-1.02,0-1.81-0.27-2.38-0.81c-0.57-0.54-0.85-1.28-0.85-2.22v-5.29h1.35v5.19c0,0.68,0.16,1.18,0.47,1.5
		c0.31,0.32,0.8,0.48,1.45,0.48c1.27,0,1.9-0.66,1.9-1.99v-5.18H151.99z"/>
	<path class="st3" d="M161.5,19.04h-1.64l-4.04-6.54h-0.04l0.03,0.37c0.05,0.7,0.08,1.33,0.08,1.91v4.27h-1.22v-8.21h1.63l4.03,6.51
		h0.03c-0.01-0.09-0.02-0.4-0.04-0.94c-0.02-0.54-0.03-0.96-0.03-1.27v-4.3h1.23V19.04z"/>
	<path class="st3" d="M164.25,19.04v-8.21h1.34v8.21H164.25z"/>
	<path class="st3" d="M173.01,10.83h1.39l-2.88,8.21h-1.42l-2.86-8.21h1.38l1.71,5.1c0.09,0.24,0.19,0.56,0.29,0.94
		c0.1,0.38,0.17,0.67,0.2,0.86c0.05-0.28,0.12-0.61,0.22-0.99c0.1-0.37,0.18-0.65,0.25-0.83L173.01,10.83z"/>
	<path class="st3" d="M180.7,19.04h-4.64v-8.21h4.64v1.13h-3.3v2.24h3.09v1.12h-3.09v2.58h3.3V19.04z"/>
	<path class="st3" d="M184.39,15.76v3.28h-1.34v-8.21h2.32c1.06,0,1.84,0.2,2.35,0.59s0.76,1,0.76,1.8c0,1.02-0.53,1.75-1.59,2.18
		l2.32,3.63h-1.53l-1.96-3.28H184.39z M184.39,14.65h0.93c0.63,0,1.08-0.12,1.36-0.35s0.42-0.58,0.42-1.03c0-0.46-0.15-0.8-0.46-1
		c-0.3-0.2-0.76-0.3-1.37-0.3h-0.89V14.65z"/>
	<path class="st3" d="M195.71,16.81c0,0.73-0.26,1.3-0.79,1.72c-0.53,0.42-1.26,0.62-2.18,0.62s-1.69-0.14-2.28-0.43v-1.27
		c0.37,0.18,0.77,0.31,1.19,0.42c0.42,0.1,0.81,0.15,1.18,0.15c0.53,0,0.92-0.1,1.18-0.3c0.25-0.2,0.38-0.47,0.38-0.81
		c0-0.31-0.12-0.57-0.35-0.78c-0.23-0.21-0.71-0.47-1.44-0.76c-0.75-0.3-1.28-0.65-1.58-1.04c-0.31-0.39-0.46-0.86-0.46-1.4
		c0-0.68,0.24-1.22,0.73-1.62c0.49-0.39,1.14-0.59,1.96-0.59c0.79,0,1.57,0.17,2.35,0.52l-0.43,1.09c-0.73-0.31-1.38-0.46-1.96-0.46
		c-0.43,0-0.76,0.09-0.99,0.28c-0.22,0.19-0.34,0.44-0.34,0.75c0,0.21,0.04,0.4,0.13,0.55s0.24,0.29,0.44,0.43
		c0.21,0.13,0.58,0.31,1.11,0.53c0.6,0.25,1.04,0.49,1.33,0.7s0.49,0.46,0.62,0.74C195.65,16.12,195.71,16.44,195.71,16.81z"/>
	<path class="st3" d="M197.88,19.04v-8.21h1.34v8.21H197.88z"/>
	<path class="st3" d="M204.8,19.04h-1.34v-7.06h-2.41v-1.15h6.17v1.15h-2.41V19.04z"/>
	<path class="st3" d="M211.36,14.58l1.94-3.75h1.46l-2.73,5.03v3.18h-1.35V15.9l-2.72-5.07h1.46L211.36,14.58z"/>
</g>
<g>
	<path class="st3" d="M81.49,37.49h5.58v7.99c-0.87,0.28-1.75,0.49-2.65,0.63c-0.9,0.14-1.94,0.21-3.12,0.21
		c-2.49,0-4.42-0.74-5.81-2.22s-2.08-3.55-2.08-6.22c0-1.71,0.34-3.2,1.03-4.49c0.68-1.28,1.67-2.26,2.96-2.94s2.8-1.02,4.53-1.02
		c1.75,0,3.38,0.32,4.9,0.96l-0.74,1.69c-1.48-0.63-2.91-0.94-4.28-0.94c-2,0-3.56,0.59-4.68,1.78s-1.68,2.84-1.68,4.95
		c0,2.22,0.54,3.9,1.62,5.04s2.67,1.72,4.77,1.72c1.14,0,2.25-0.13,3.33-0.39v-5.05h-3.67V37.49z"/>
	<path class="st3" d="M95.93,46.31c-1.82,0-3.25-0.55-4.31-1.66s-1.58-2.65-1.58-4.62c0-1.98,0.49-3.56,1.47-4.73
		c0.98-1.17,2.29-1.75,3.94-1.75c1.54,0,2.76,0.51,3.66,1.52s1.35,2.35,1.35,4.02v1.18h-8.48c0.04,1.45,0.4,2.54,1.1,3.29
		c0.69,0.75,1.67,1.12,2.93,1.12c1.32,0,2.63-0.28,3.93-0.83v1.66c-0.66,0.28-1.28,0.49-1.87,0.61
		C97.47,46.25,96.76,46.31,95.93,46.31z M95.43,35.12c-0.99,0-1.78,0.32-2.36,0.97c-0.59,0.64-0.93,1.53-1.04,2.67h6.44
		c0-1.17-0.26-2.08-0.79-2.7S96.4,35.12,95.43,35.12z"/>
	<path class="st3" d="M114.26,39.92c0,2.01-0.5,3.57-1.52,4.7c-1.01,1.13-2.41,1.69-4.19,1.69c-1.1,0-2.08-0.26-2.93-0.78
		c-0.85-0.52-1.51-1.26-1.98-2.22c-0.46-0.97-0.7-2.1-0.7-3.39c0-2.01,0.5-3.57,1.51-4.69c1-1.12,2.4-1.68,4.18-1.68
		c1.72,0,3.09,0.57,4.1,1.72C113.75,36.42,114.26,37.97,114.26,39.92z M104.88,39.92c0,1.57,0.31,2.77,0.94,3.59
		c0.63,0.82,1.55,1.24,2.77,1.24s2.15-0.41,2.78-1.23c0.63-0.82,0.95-2.02,0.95-3.6c0-1.56-0.32-2.75-0.95-3.57s-1.57-1.22-2.8-1.22
		c-1.22,0-2.14,0.4-2.76,1.2S104.88,38.34,104.88,39.92z"/>
	<path class="st3" d="M125.47,42.73c0,1.14-0.43,2.03-1.28,2.65c-0.85,0.62-2.05,0.93-3.59,0.93c-1.63,0-2.9-0.26-3.82-0.78v-1.73
		c0.59,0.3,1.23,0.54,1.9,0.71s1.33,0.26,1.96,0.26c0.97,0,1.72-0.16,2.25-0.47s0.79-0.78,0.79-1.42c0-0.48-0.21-0.89-0.62-1.23
		c-0.41-0.34-1.22-0.74-2.43-1.21c-1.14-0.43-1.96-0.8-2.44-1.12s-0.84-0.68-1.08-1.08s-0.35-0.89-0.35-1.45c0-1,0.41-1.8,1.22-2.38
		c0.82-0.58,1.94-0.87,3.36-0.87c1.32,0,2.62,0.27,3.88,0.81l-0.66,1.52c-1.24-0.51-2.36-0.76-3.36-0.76c-0.88,0-1.55,0.14-2,0.42
		s-0.67,0.66-0.67,1.15c0,0.33,0.08,0.61,0.25,0.84c0.17,0.23,0.44,0.45,0.81,0.66c0.38,0.21,1.09,0.51,2.16,0.91
		c1.46,0.53,2.45,1.07,2.96,1.61C125.21,41.24,125.47,41.92,125.47,42.73z"/>
	<path class="st3" d="M133.7,46.31c-1.82,0-3.26-0.55-4.31-1.66c-1.05-1.11-1.58-2.65-1.58-4.62c0-1.98,0.49-3.56,1.46-4.73
		c0.98-1.17,2.29-1.75,3.94-1.75c1.54,0,2.76,0.51,3.66,1.52s1.35,2.35,1.35,4.02v1.18h-8.48c0.04,1.45,0.4,2.54,1.1,3.29
		c0.69,0.75,1.67,1.12,2.93,1.12c1.32,0,2.63-0.28,3.93-0.83v1.66c-0.66,0.28-1.28,0.49-1.87,0.61
		C135.24,46.25,134.53,46.31,133.7,46.31z M133.19,35.12c-0.99,0-1.78,0.32-2.36,0.97c-0.59,0.64-0.93,1.53-1.04,2.67h6.44
		c0-1.17-0.26-2.08-0.79-2.7C134.92,35.43,134.17,35.12,133.19,35.12z"/>
	<path class="st3" d="M147.02,33.56c0.55,0,1.04,0.04,1.47,0.13l-0.26,1.73c-0.51-0.11-0.96-0.17-1.35-0.17c-1,0-1.85,0.4-2.55,1.21
		s-1.06,1.82-1.06,3.02v6.6h-1.87V33.78h1.54l0.21,2.28h0.09c0.46-0.8,1.01-1.42,1.65-1.85C145.54,33.77,146.25,33.56,147.02,33.56z
		"/>
	<path class="st3" d="M153.49,46.09l-4.67-12.31h2l2.65,7.3c0.6,1.71,0.95,2.82,1.05,3.32h0.09c0.08-0.4,0.34-1.22,0.78-2.46
		c0.44-1.25,1.42-3.97,2.95-8.16h2l-4.67,12.31H153.49z"/>
	<path class="st3" d="M162.16,30.45c0-0.43,0.1-0.74,0.31-0.94c0.21-0.2,0.47-0.3,0.79-0.3c0.3,0,0.56,0.1,0.78,0.3
		s0.33,0.51,0.33,0.93c0,0.42-0.11,0.73-0.33,0.94s-0.47,0.31-0.78,0.31c-0.31,0-0.58-0.1-0.79-0.31
		C162.26,31.18,162.16,30.87,162.16,30.45z M164.18,46.09h-1.87V33.78h1.87V46.09z"/>
	<path class="st3" d="M173.05,46.31c-1.78,0-3.16-0.55-4.14-1.65s-1.47-2.65-1.47-4.66c0-2.06,0.5-3.65,1.49-4.77
		s2.41-1.68,4.24-1.68c0.59,0,1.18,0.06,1.77,0.19c0.59,0.13,1.06,0.28,1.39,0.45l-0.57,1.58c-0.41-0.17-0.86-0.3-1.35-0.41
		s-0.92-0.16-1.29-0.16c-2.5,0-3.75,1.6-3.75,4.79c0,1.51,0.31,2.67,0.92,3.48c0.61,0.81,1.51,1.21,2.71,1.21
		c1.03,0,2.08-0.22,3.15-0.66v1.65C175.34,46.1,174.3,46.31,173.05,46.31z"/>
	<path class="st3" d="M184.28,46.31c-1.82,0-3.26-0.55-4.31-1.66c-1.05-1.11-1.58-2.65-1.58-4.62c0-1.98,0.49-3.56,1.46-4.73
		c0.98-1.17,2.29-1.75,3.94-1.75c1.54,0,2.76,0.51,3.66,1.52s1.35,2.35,1.35,4.02v1.18h-8.48c0.04,1.45,0.4,2.54,1.1,3.29
		c0.69,0.75,1.67,1.12,2.93,1.12c1.32,0,2.63-0.28,3.93-0.83v1.66c-0.66,0.28-1.28,0.49-1.87,0.61
		C185.82,46.25,185.11,46.31,184.28,46.31z M183.78,35.12c-0.99,0-1.78,0.32-2.36,0.97c-0.59,0.64-0.93,1.53-1.04,2.67h6.44
		c0-1.17-0.26-2.08-0.79-2.7C185.5,35.43,184.75,35.12,183.78,35.12z"/>
	<path class="st3" d="M199.93,42.73c0,1.14-0.43,2.03-1.28,2.65c-0.85,0.62-2.05,0.93-3.59,0.93c-1.63,0-2.9-0.26-3.82-0.78v-1.73
		c0.59,0.3,1.23,0.54,1.9,0.71s1.33,0.26,1.96,0.26c0.97,0,1.72-0.16,2.25-0.47s0.79-0.78,0.79-1.42c0-0.48-0.21-0.89-0.62-1.23
		c-0.41-0.34-1.22-0.74-2.43-1.21c-1.14-0.43-1.96-0.8-2.44-1.12s-0.84-0.68-1.08-1.08s-0.35-0.89-0.35-1.45c0-1,0.41-1.8,1.22-2.38
		c0.82-0.58,1.94-0.87,3.36-0.87c1.32,0,2.62,0.27,3.88,0.81l-0.66,1.52c-1.24-0.51-2.36-0.76-3.36-0.76c-0.88,0-1.55,0.14-2,0.42
		s-0.67,0.66-0.67,1.15c0,0.33,0.08,0.61,0.25,0.84c0.17,0.23,0.44,0.45,0.81,0.66c0.38,0.21,1.09,0.51,2.16,0.91
		c1.46,0.53,2.45,1.07,2.96,1.61C199.67,41.24,199.93,41.92,199.93,42.73z"/>
</g>
<g>
</g>
<g>
</g>
<g>
</g>
<g>
</g>
<g>
</g>
<g>
</g>
</svg>
