<?xml version="1.0" encoding="utf-8"?>
<!-- Generator: Adobe Illustrator 21.1.0, SVG Export Plug-In . SVG Version: 6.00 Build 0)  -->
<svg version="1.1" id="Layer_1" xmlns="http://www.w3.org/2000/svg" xmlns:xlink="http://www.w3.org/1999/xlink" x="0px" y="0px"
	 viewBox="0 0 178.3 27.1" style="enable-background:new 0 0 178.3 27.1;" xml:space="preserve">
<style type="text/css">
	.st0{fill:#B6B6B6;}
</style>
<g>
	<rect x="41.3" class="st0" width="0.7" height="27.1"/>
	<polygon class="st0" points="29.6,9.1 26.7,9.1 26.5,9.1 26.4,9.3 24.3,13.8 22.1,9.3 22,9.1 21.9,9.1 19,9.1 18.7,9.1 18.7,9.4 
		18.7,10.9 18.7,11.2 19,11.2 19.5,11.2 19.5,17.6 19,17.6 18.7,17.6 18.7,17.9 18.7,19.4 18.7,19.7 19,19.7 22.2,19.7 22.4,19.7 
		22.4,19.4 22.4,17.9 22.4,17.6 22.2,17.6 21.6,17.6 21.6,13.1 24,18 24.3,18.5 24.5,18 27,13.1 27,17.6 26.4,17.6 26.1,17.6 
		26.1,17.9 26.1,19.4 26.1,19.7 26.4,19.7 29.6,19.7 29.9,19.7 29.9,19.4 29.9,17.9 29.9,17.6 29.6,17.6 29.1,17.6 29.1,11.2 
		29.6,11.2 29.9,11.2 29.9,10.9 29.9,9.4 29.9,9.1 	"/>
	<path class="st0" d="M10.9,17.6H10l-2.8-6.5h0.6v-2H3.3v2.1H4l-2.8,6.5H0v2.1h4.1v-2.1H3.5L4,16.6h3.4l0.5,1.1H7.1v2.1h4.1v-2.1
		h-0.3V17.6z M6.4,14.5H4.8l0.8-1.8L6.4,14.5z"/>
	<path class="st0" d="M26.2,1.1H3.3v6.7h4.5V5.2h4.8v15.9H10v4.5h9.6v-4.5H17V5.2h5v2.5h4.6V1.1H26.2z M17.8,23l1-1v2.7l-1-0.9V23z
		 M16.2,22l-1,0.9V3.3l1,1V22z M5.2,3l-1-1h20.9l-1.2,1H5.2z M25.6,6.8l-1-0.9V3.5l1-1V6.8z"/>
</g>
<g>
	<path class="st0" d="M59.2,12.3h4.9v7.2c-1.9,1.2-3.2,1.5-5.3,1.5c-3.5,0-5.3-1.5-5.3-4.2v-0.7V9.3V8.5c0-2.8,1.8-4.2,5.4-4.2
		c1.8,0,3.5,0.4,5.2,1.2v4.3h-3.5V9.6c0-0.7-0.1-1-0.3-1.3c-0.3-0.5-0.8-0.7-1.4-0.7c-0.6,0-1.2,0.3-1.4,0.7s-0.3,0.6-0.3,1.5V10
		v5.3v0.4c0,0.7,0.1,1,0.3,1.3c0.3,0.5,0.8,0.7,1.4,0.7c0.6,0,1.2-0.3,1.4-0.7c0.2-0.3,0.3-0.6,0.3-1.3v-0.1v-0.8h-1.5v-2.5H59.2z"
		/>
	<path class="st0" d="M65.9,18.1c0.7-0.2,0.8-0.5,0.8-1.3v-0.3V8.9V8.6c0-0.8-0.2-1.1-0.8-1.3V4.7h5.4v2.7c-0.6,0.1-0.8,0.5-0.8,1.3
		V9v7.6v0.3c0,0.8,0.2,1.1,0.8,1.3v2.6h-5.4V18.1z"/>
	<path class="st0" d="M83.8,10h-3.6V9.8V9.7V9.3c0-1.1-0.7-1.7-1.7-1.7s-1.7,0.6-1.7,1.5c0,0.7,0.5,1.2,1.9,1.7l1.5,0.6
		c2.9,1.1,3.8,2.3,3.8,4.7c0,3.2-2.1,5.1-5.5,5.1c-2,0-3.7-0.6-5.5-1.8v-4.1h3.7v0.2c0,0.8,0,1.2,0.2,1.6c0.3,0.5,0.9,0.9,1.6,0.9
		c1,0,1.7-0.7,1.7-1.7s-0.5-1.4-2.7-2.3c-1.5-0.6-1.8-0.7-2.4-1c-1.4-0.8-2.1-2-2.1-3.7c0-3,2-4.7,5.5-4.7c1.9,0,3.9,0.7,5.2,1.8
		L83.8,10L83.8,10z"/>
	<path class="st0" d="M90.9,4.7h5.8h0.5c1.9,0,2.9,0.3,3.8,1.2c1,0.9,1.4,2.1,1.4,4.1v0.5V15v0.5c0,2.1-0.4,3.2-1.4,4.1
		c-0.9,0.8-2,1.1-3.8,1.1h-0.5h-5.8v-2.6c0.7-0.2,0.8-0.5,0.8-1.3v-0.3V8.9V8.6c0-0.8-0.2-1.1-0.8-1.3V4.7z M95.5,17.6h1h0.4
		c1.3,0,2-0.5,2-1.6v-0.5V10V9.4c0-1.1-0.6-1.6-2-1.6h-0.4h-1V17.6z"/>
	<path class="st0" d="M114.9,16.7c0.2,1,0.4,1.3,0.9,1.4v2.6h-5.5v-2.6c0.5,0,0.8-0.3,0.8-0.7c0-0.1,0-0.1-0.1-0.4v-0.1l-0.1-0.7
		h-3.1l-0.1,0.7c0,0.1,0,0.4,0,0.5c0,0.5,0.3,0.7,0.9,0.7v2.6h-4.9v-2.6c0.5-0.2,0.7-0.5,0.9-1.5l2.3-11.9h5.5L114.9,16.7z
		 M109.4,8.6l-1,5.3h2.2L109.4,8.6z"/>
	<path class="st0" d="M118.4,18.1c0.7-0.2,0.8-0.5,0.8-1.3v-0.3v-2l-3-6.1c-0.4-0.8-0.6-1.1-1-1.2V4.7h4.8v1.9c0,0.2,0,0.3,0,0.4
		s0,0.1,0,0.2v0.1v0.1c0,0.3,0.1,0.7,0.3,1.1l1,2.2l1.1-2.1c0.3-0.6,0.3-0.8,0.3-1.6V6.4V4.7h4.2v2.7c-0.4,0.1-0.6,0.3-1,1.1
		l-0.1,0.2l-2.9,5.9v2V17c0,0.8,0.2,1.1,0.8,1.3v2.6h-5.4L118.4,18.1L118.4,18.1z"/>
	<path class="st0" d="M144.2,20.7h-11V17c0-1.9,0.3-2.4,2.5-4.1l2.9-2.3c1.3-1,1.6-1.3,1.6-2c0-0.8-0.7-1.4-1.6-1.4
		c-1,0-1.7,0.7-1.7,1.8v1.2h-3.6V5.9c1.7-1,3.3-1.5,5.3-1.5c3.6,0,5.3,1.4,5.3,4.3c0,2.2-0.3,2.8-2.7,4.6l-3.4,2.7
		c-0.6,0.4-0.9,0.8-0.9,1.7h2.1c0.6,0,0.9-0.2,1-0.6c0-0.2,0.1-0.5,0.1-1.4h4L144.2,20.7L144.2,20.7z"/>
	<path class="st0" d="M146.1,9.3V8.6c0-2.8,1.8-4.2,5.4-4.2c3.6,0,5.4,1.4,5.4,4.2v0.7v6.8v0.7c0,2.8-1.8,4.2-5.4,4.2
		s-5.4-1.4-5.4-4.2v-0.7V9.3z M149.8,15.4v0.2c0,0.8,0,1.1,0.3,1.5c0.3,0.5,0.8,0.7,1.4,0.7s1.2-0.3,1.4-0.7
		c0.2-0.3,0.3-0.6,0.3-1.4v-0.3V10V9.8c0-0.8,0-1.1-0.3-1.5c-0.3-0.5-0.9-0.7-1.4-0.7c-0.6,0-1.2,0.3-1.4,0.7
		c-0.2,0.3-0.3,0.6-0.3,1.4V10V15.4z"/>
	<path class="st0" d="M159,18.1c0.6-0.2,0.8-0.5,0.8-1.3v-0.3V8.9V8.6c0-0.8-0.2-1.1-0.8-1.3V4.7h4.5v11.9v0.3
		c0,0.8,0.2,1.1,0.8,1.3v2.6H159V18.1z"/>
	<path class="st0" d="M166.2,8.9c0-1.8,0.5-2.9,1.5-3.6s2.3-1,4-1c1.6,0,3,0.3,4,1c1.1,0.7,1.5,1.8,1.5,3.5c0,1.9-0.5,2.8-2.1,3.6
		c1.7,0.6,2.4,1.7,2.4,3.9c0,3.2-1.8,4.7-5.5,4.7c-2.3,0-3.7-0.4-4.7-1.3c-0.9-0.8-1.3-1.9-1.3-3.5c0-2.2,0.7-3.3,2.3-3.9
		C166.8,11.8,166.2,10.8,166.2,8.9z M171.7,18c1.2,0,1.8-0.7,1.8-2.2s-0.6-2.2-1.8-2.2s-1.8,0.7-1.8,2.2S170.5,18,171.7,18z
		 M173.4,9.3c0-1.1-0.7-1.8-1.7-1.8S170,8.2,170,9.3s0.7,1.8,1.7,1.8C172.7,11.2,173.4,10.5,173.4,9.3z"/>
</g>
</svg>
