<?xml version="1.0" encoding="utf-8"?>
<!-- Generator: Adobe Illustrator 23.1.0, SVG Export Plug-In . SVG Version: 6.00 Build 0)  -->
<svg version="1.1" id="Capa_1" xmlns="http://www.w3.org/2000/svg" xmlns:xlink="http://www.w3.org/1999/xlink" x="0px" y="0px"
	 viewBox="0 0 512 512" style="enable-background:new 0 0 512 512;" xml:space="preserve">
<style type="text/css">
	.st0{fill:#72D8FF;}
	.st1{fill:#36D28F;}
	.st2{fill:#212121;}
</style>
<path class="st0" d="M501.3,149.3v256c0,11.8-9.6,21.3-21.3,21.3H330.7L288,469.3v-42.7H138.7c-11.8,0-21.3-9.6-21.3-21.3v-64H192
	V384l42.7-42.7h138.7c11.8,0,21.3-9.6,21.3-21.3V128H480C491.8,128,501.3,137.6,501.3,149.3z"/>
<path class="st1" d="M394.7,128v192c0,11.8-9.6,21.3-21.3,21.3H234.7L192,384v-42.7H32c-11.8,0-21.3-9.6-21.3-21.3V64
	c0-11.8,9.6-21.3,21.3-21.3h341.3c11.8,0,21.3,9.6,21.3,21.3L394.7,128L394.7,128z"/>
<g>
	<path class="st2" d="M288,480c-5.9,0-10.7-4.8-10.7-10.7v-32H138.7c-17.7,0-32-14.3-32-32v-32H128v32c0,5.9,4.8,10.7,10.7,10.7H288
		c5.9,0,10.7,4.8,10.7,10.7v16.9l24.5-24.5c2-2,4.7-3.1,7.5-3.1H480c5.9,0,10.7-4.8,10.7-10.7v-256c0-5.9-4.8-10.7-10.7-10.7h-53.3
		v-21.3H480c17.7,0,32,14.3,32,32v256c0,17.7-14.3,32-32,32H335.1l-39.5,39.5C293.5,478.9,290.8,480,288,480L288,480z"/>
	<path class="st2" d="M192,394.7c-5.9,0-10.7-4.8-10.7-10.7v-32H32c-17.7,0-32-14.3-32-32V64c0-17.7,14.3-32,32-32h341.3
		c17.7,0,32,14.3,32,32v256c0,17.7-14.3,32-32,32H239.1l-39.5,39.5C197.5,393.5,194.8,394.7,192,394.7L192,394.7z M32,53.3
		c-5.9,0-10.7,4.8-10.7,10.7v256c0,5.9,4.8,10.7,10.7,10.7h160c5.9,0,10.7,4.8,10.7,10.7v16.9l24.5-24.5c2-2,4.7-3.1,7.5-3.1h138.7
		c5.9,0,10.7-4.8,10.7-10.7V64c0-5.9-4.8-10.7-10.7-10.7H32z"/>
	<path class="st2" d="M53.3,117.3h117.3v21.3H53.3V117.3z"/>
	<path class="st2" d="M53.3,181.3H352v21.3H53.3V181.3z"/>
	<path class="st2" d="M53.3,245.3H352v21.3H53.3V245.3z"/>
	<path class="st2" d="M330.7,117.3H352v21.3h-21.3V117.3z"/>
	<path class="st2" d="M288,117.3h21.3v21.3H288V117.3z"/>
</g>
</svg>
