<?xml version="1.0" encoding="utf-8"?>
<!-- Generator: Adobe Illustrator 19.1.0, SVG Export Plug-In . SVG Version: 6.00 Build 0)  -->
<svg version="1.1" xmlns="http://www.w3.org/2000/svg" xmlns:xlink="http://www.w3.org/1999/xlink" x="0px" y="0px"
	 viewBox="0 0 250 150" style="enable-background:new 0 0 250 150;" xml:space="preserve">
<style type="text/css">
	.st0{display:none;fill:#FFFFFF;}
	.st1{display:none;}
	.st2{opacity:0.13;fill:none;stroke:#757575;stroke-width:0.5;stroke-miterlimit:10;stroke-dasharray:3.5;}
	.st3{opacity:0.15;}
	.st4{display:inline;}
	.st5{fill:#BDBDBD;}
	.st6{display:inline;opacity:0.9;}
	.st7{fill:none;stroke:#757575;stroke-width:0.2;stroke-miterlimit:10;stroke-dasharray:1.5;}
	.st8{fill:#EEEEEE;}
	.st9{opacity:0.5;}
	.st10{fill:none;stroke:#757575;stroke-width:0.5;stroke-miterlimit:10;}
	.st11{fill:none;stroke:#757575;stroke-width:0.5;stroke-miterlimit:10;stroke-dasharray:3.3847,3.3847;}
	.st12{fill:#A1887F;}
	.st13{fill:#FFD54F;}
	.st14{fill:#64B5F6;}
	.st15{fill:#332C2C;}
	.st16{fill:#424242;}
	.st17{fill:none;stroke:#785555;stroke-width:0.4;stroke-miterlimit:10;}
	.st18{fill:#785555;}
	.st19{fill:#FFFFFF;}
	.st20{fill:#E0E0E0;}
	.st21{opacity:0.25;fill:none;stroke:#757575;stroke-width:0.5;stroke-miterlimit:10;}
	.st22{opacity:0.5;fill:#757575;}
	.st23{fill:#9E9E9E;}
</style>
<g id="Guides">
	<rect id="XMLID_5_" x="125" y="75" class="st0" width="125" height="75"/>
</g>
<g id="strokes" class="st1">
	<line class="st2" x1="143.9" y1="33.6" x2="250" y2="0"/>
	<line class="st2" x1="112.7" y1="33.6" x2="0" y2="0"/>
	<line class="st2" x1="128.3" y1="17.9" x2="128.3" y2="0"/>
	<line class="st2" x1="63.4" y1="121.4" x2="0" y2="150"/>
	<line class="st2" x1="193.4" y1="119.6" x2="250" y2="150"/>
	<line class="st2" x1="177.8" y1="135.2" x2="177.8" y2="150"/>
	<line class="st2" x1="78.9" y1="134.9" x2="78.9" y2="150"/>
	<g id="BG" class="st3">
		<g id="sectors" class="st4">
			<circle class="st5" cx="25.7" cy="111.6" r="6"/>
			<circle class="st5" cx="37.7" cy="58.9" r="6"/>
			<circle class="st5" cx="94.5" cy="57.2" r="6"/>
			<circle class="st5" cx="119.4" cy="135.7" r="6"/>
			<circle class="st5" cx="130" cy="90.9" r="6"/>
			<circle class="st5" cx="221.7" cy="58.9" r="6"/>
			<circle class="st5" cx="162.1" cy="9" r="6"/>
			<circle class="st5" cx="164.4" cy="51.2" r="6"/>
			<circle class="st5" cx="229.4" cy="17.9" r="6"/>
			<circle class="st5" cx="238" cy="103.6" r="6"/>
			<circle class="st5" cx="203" cy="142.6" r="6"/>
			<circle class="st5" cx="197" cy="87.6" r="6"/>
			<circle class="st5" cx="92.5" cy="10.8" r="6"/>
			<circle class="st5" cx="22.2" cy="23.9" r="6"/>
			<circle class="st5" cx="65.2" cy="93.6" r="6"/>
			<circle class="st5" cx="49.7" cy="141.7" r="6"/>
		</g>
		<g class="st6">
			<line class="st7" x1="28.2" y1="23.9" x2="86.5" y2="10.8"/>
			<line class="st7" x1="98.5" y1="10.8" x2="156.1" y2="9"/>
			<line class="st7" x1="168.1" y1="9" x2="223.6" y2="16.4"/>
			<line class="st7" x1="229.4" y1="23.9" x2="221.7" y2="52.9"/>
			<line class="st7" x1="221.7" y1="64.9" x2="238" y2="97.6"/>
			<line class="st7" x1="238" y1="109.6" x2="209" y2="142.6"/>
			<line class="st7" x1="197" y1="142.6" x2="125.4" y2="135.7"/>
			<line class="st7" x1="113.4" y1="135.7" x2="55.7" y2="141.7"/>
			<line class="st7" x1="43.7" y1="141.7" x2="25.7" y2="117.6"/>
			<line class="st7" x1="31.7" y1="111.6" x2="59.2" y2="93.6"/>
			<line class="st7" x1="65.2" y1="87.6" x2="37.7" y2="64.9"/>
			<line class="st7" x1="37.7" y1="52.9" x2="22.2" y2="29.9"/>
			<line class="st7" x1="92.5" y1="16.8" x2="94.5" y2="51.2"/>
			<line class="st7" x1="88.5" y1="57.2" x2="43.7" y2="58.9"/>
			<line class="st7" x1="100.5" y1="57.2" x2="158.4" y2="51.2"/>
			<line class="st7" x1="164.4" y1="45.2" x2="162.1" y2="15"/>
			<line class="st7" x1="164.4" y1="57.2" x2="130" y2="84.9"/>
			<line class="st7" x1="124" y1="90.9" x2="94.5" y2="63.2"/>
			<line class="st7" x1="71.2" y1="93.6" x2="124" y2="90.9"/>
			<line class="st7" x1="130" y1="96.9" x2="119.4" y2="129.7"/>
			<line class="st7" x1="136" y1="90.9" x2="191" y2="87.6"/>
			<line class="st7" x1="197" y1="93.6" x2="203" y2="136.6"/>
			<line class="st7" x1="232" y1="103.6" x2="203" y2="87.6"/>
			<line class="st7" x1="197" y1="81.6" x2="215.7" y2="58.9"/>
			<line class="st7" x1="215.7" y1="58.9" x2="170.4" y2="51.2"/>
			<line class="st7" x1="31.7" y1="58.9" x2="0" y2="77.1"/>
			<line class="st7" x1="25.7" y1="105.6" x2="37.7" y2="64.9"/>
			<line class="st7" x1="19.7" y1="111.6" x2="0" y2="77.1"/>
			<line class="st7" x1="25.7" y1="117.6" x2="0" y2="150"/>
			<line class="st7" x1="49.7" y1="135.7" x2="65.2" y2="99.6"/>
			<line class="st7" x1="49.7" y1="147.7" x2="49.7" y2="150"/>
			<line class="st7" x1="119.4" y1="141.7" x2="119.4" y2="150"/>
			<line class="st7" x1="203" y1="148.6" x2="203" y2="150"/>
			<line class="st7" x1="244" y1="103.6" x2="250" y2="103.6"/>
			<line class="st7" x1="227.7" y1="58.9" x2="250" y2="58.9"/>
			<line class="st7" x1="235.4" y1="17.9" x2="250" y2="0"/>
			<line class="st7" x1="229.4" y1="11.9" x2="229.4" y2="0"/>
			<line class="st7" x1="162.1" y1="3" x2="162.1" y2="0"/>
			<line class="st7" x1="92.5" y1="4.8" x2="92.5" y2="0"/>
			<line class="st7" x1="22.2" y1="17.9" x2="22.2" y2="0"/>
			<line class="st7" x1="16.2" y1="23.9" x2="0" y2="23.9"/>
		</g>
	</g>
</g>
<g id="base">
	<circle class="st8" cx="125" cy="75" r="75"/>
</g>
<g id="icon">
	<g class="st9">
		<g>
			<polyline class="st10" points="82.9,102.6 81.1,102.6 82,101.1 			"/>
			<line class="st11" x1="83.7" y1="98.2" x2="123.5" y2="29.3"/>
			<polyline class="st10" points="124.3,27.8 125.2,26.3 126.1,27.8 			"/>
			<line class="st11" x1="127.7" y1="30.7" x2="167.5" y2="99.6"/>
			<polyline class="st10" points="168.4,101.1 169.2,102.6 167.5,102.6 			"/>
			<line class="st11" x1="164.1" y1="102.6" x2="84.6" y2="102.6"/>
		</g>
	</g>
	<circle class="st12" cx="124.8" cy="25.6" r="14"/>
	<circle class="st13" cx="80.6" cy="102.2" r="14"/>
	<circle class="st14" cx="169" cy="102.6" r="14"/>
	<g id="Oil">
		<g id="Drop_2_1_">
			<path class="st15" d="M130.4,27.8c0,1.2-0.1,2.2-1,3.5c-0.9,1.4-2.1,1.9-2.7,2.2c-0.1,0-0.3,0.1-0.4,0.1c0,0-0.1,0-0.2,0
				c0,0-0.1,0-0.2,0c-0.1,0-0.2,0-0.3,0.1c-0.6,0.1-1.1,0-1.5,0c-0.1,0-0.2,0-0.3-0.1c-0.2,0-0.3-0.1-0.3-0.1s0,0-0.1,0
				c0,0-0.1,0-0.1,0c-0.1,0-0.2-0.1-0.3-0.1c0,0-0.1,0-0.1,0c-0.7-0.2-1.8-0.8-2.6-2.1c-0.9-1.3-1-2.4-1-3.5c0-4,5.2-12,5.6-12.5
				c0,0,0,0,0,0s0,0,0,0C125.2,15.8,130.4,23.8,130.4,27.8z"/>
		</g>
		<g id="Drop_2_3_">
			<path class="st16" d="M122.2,33.1c1.7,1.1,4,0.5,4,0.5s1.9-0.3,3.2-2.3c0.9-1.3,1-2.4,1-3.5c0-4.1-5.6-12.5-5.6-12.5
				s4,8.4,4,11.9c0.1,2.2-0.4,2.8-1.1,3.7C125.1,33.5,122.2,33.1,122.2,33.1z"/>
		</g>
	</g>
	<g id="Education">
		
			<rect x="73.8" y="96.1" transform="matrix(0.7071 0.7071 -0.7071 0.7071 96.4005 -26.8395)" class="st16" width="13.6" height="13.6"/>
		
			<rect x="73.8" y="95.4" transform="matrix(0.7071 0.7071 -0.7071 0.7071 95.9137 -27.0411)" class="st15" width="13.6" height="13.6"/>
		<path class="st17" d="M80.6,102.3c0.1,0,0.3-0.1,0.9,0.3c1.8,1.3,2.2,9.3,2.2,9.3"/>
		<circle class="st16" cx="80.6" cy="102.3" r="0.7"/>
		<path class="st18" d="M83.4,111.2l-0.3,2.5c0,0.2,0.1,0.4,0.4,0.4l1.2-0.1c0.2,0,0.3-0.2,0.3-0.4l-0.8-2.3L83.4,111.2z"/>
		<path class="st15" d="M83.9,111.4l-0.4,0c-0.1,0-0.2-0.1-0.3-0.2l0-0.3c0-0.1,0.1-0.2,0.2-0.3l0.4,0c0.1,0,0.2,0.1,0.3,0.2l0,0.3
			C84.2,111.3,84.1,111.4,83.9,111.4z"/>
	</g>
	<g id="Bus">
		<path class="st19" d="M175.9,101.9c0,3.7-0.4,5.8-0.6,6.8c-0.2,1-0.6,1.3-1.3,1.3h-9.6c-0.7,0-1.1-0.4-1.3-1.3
			c-0.2-1-0.6-3.2-0.6-6.8c0-3.7,0.4-5.8,0.6-6.8c0.2-1,0.6-1.3,1.3-1.3h3.2v-0.2c0-0.3,0.2-0.5,0.5-0.5h2.2c0.3,0,0.5,0.2,0.5,0.5
			v0.2h3.2c0.7,0,1.1,0.4,1.3,1.3C175.4,96.1,175.8,98.2,175.9,101.9z"/>
		<g>
			<path class="st20" d="M174.8,95.7c-0.1-0.9-0.5-1.2-1.2-1.2h-8.8c-0.6,0-1,0.3-1.2,1.2c-0.1,0.9-0.5,2.9-0.5,6.2
				c0,0.1,0,0.2,0,0.3c0,0.3,0.2,0.5,0.5,0.5h11.1c0.3,0,0.5-0.2,0.5-0.5c0-0.1,0-0.2,0-0.3C175.3,98.5,174.9,96.6,174.8,95.7z"/>
			<line class="st21" x1="169.2" y1="96.3" x2="169.2" y2="102.8"/>
			<path class="st22" d="M174.3,94.7c0,0-0.3-0.2-0.7-0.2c-0.4,0-4.4,0-4.4,0h-4.4c0,0-0.5,0-0.8,0.3c-0.3,0.3-0.4,1.1-0.4,1.1
				l-0.1,0.4h11.3C174.9,96.3,174.7,94.9,174.3,94.7z"/>
		</g>
		<rect x="163.5" y="105.2" class="st20" width="3.5" height="1.2"/>
		<rect x="171.4" y="105.2" class="st20" width="3.5" height="1.2"/>
		<path class="st20" d="M175.3,108.7c0-0.3,0.1-0.6,0.2-1H163c0.1,0.4,0.1,0.7,0.2,1c0.2,1,0.6,1.3,1.3,1.3h9.6
			C174.7,110.1,175.1,109.7,175.3,108.7z"/>
		<path class="st20" d="M162.6,103.9c0,0.2,0,0.3,0,0.5h13.2c0-0.2,0-0.3,0-0.5H162.6z"/>
		<path class="st5" d="M165.4,112h-0.2c-0.5,0-0.9-0.4-0.9-0.9v-1.1h2.1v1.1C166.3,111.6,165.9,112,165.4,112z"/>
		<path class="st5" d="M173.2,112H173c-0.5,0-0.9-0.4-0.9-0.9v-1.1h2.1v1.1C174.1,111.6,173.7,112,173.2,112z"/>
		<path class="st23" d="M176.8,101.7h-1.1c-0.1,0-0.2,0.1-0.2,0.2v0.1c0,0.1,0.1,0.2,0.2,0.2h1.1c0.1,0,0.2-0.1,0.2-0.2v-0.1
			C176.9,101.8,176.8,101.7,176.8,101.7z"/>
		<path class="st23" d="M176.1,101v0.6c0,0.2,0.2,0.5,0.5,0.5h0.2c0.2,0,0.5-0.2,0.5-0.5V101c0-0.2-0.2-0.5-0.5-0.5h-0.2
			C176.3,100.6,176.1,100.8,176.1,101z"/>
		<path class="st23" d="M161.7,97.2h1.4c0.1,0,0.2-0.1,0.2-0.2V97c0-0.1-0.1-0.2-0.2-0.2h-1.4c-0.1,0-0.2,0.1-0.2,0.2V97
			C161.6,97.1,161.6,97.2,161.7,97.2z"/>
		<path class="st23" d="M162.6,98.2v-0.9c0-0.2-0.2-0.5-0.5-0.5h-0.3c-0.2,0-0.5,0.2-0.5,0.5v0.9c0,0.2,0.2,0.5,0.5,0.5h0.3
			C162.4,98.6,162.6,98.4,162.6,98.2z"/>
	</g>
</g>
</svg>
