<?xml version="1.0" encoding="utf-8"?>
<!-- Generator: Adobe Illustrator 21.1.0, SVG Export Plug-In . SVG Version: 6.00 Build 0)  -->
<svg version="1.1" id="Layer_1" xmlns="http://www.w3.org/2000/svg" xmlns:xlink="http://www.w3.org/1999/xlink" x="0px" y="0px"
	 viewBox="0 0 142.6 78.8" style="enable-background:new 0 0 142.6 78.8;" xml:space="preserve">
<style type="text/css">
	.st0{fill:#500000;}
	.st1{fill:#424242;}
</style>
<g>
	<g>
		<path class="st0" d="M27,4.7c4.4,0,6.5,2.2,6.5,6.5v5.4c0,3-1,4.5-2.9,5.2c2.1,0.6,3,2,3,4.5v7.5c0,4.4-2.1,6.5-6.5,6.5h-2.4
			c-4.3,0-6.5-2.1-6.5-6.5v-7.5c0-2.6,0.9-3.9,3-4.5c-1.8-0.7-2.9-2.2-2.9-5.2v-5.4c0-4.4,2.2-6.5,6.5-6.5H27z M23.5,33.6
			c0,1.4,0.7,2,2,2h0.9c1.4,0,2-0.7,2-2v-7.3c0-1.4-0.6-2-2-2h-0.9c-1.4,0-2,0.7-2,2V33.6z M26.4,19.8c1.3,0,2-0.6,2-2v-6.5
			c0-1.4-0.7-2-2-2h-0.8c-1.4,0-2.1,0.6-2.1,2v6.5c0,1.4,0.7,2,2.1,2H26.4z"/>
		<path class="st0" d="M48.4,40H43V5h8.4c4.4,0,6.5,2.1,6.5,6.5v9.3c0,4.4-2.1,6.5-6.5,6.5h-3.1V40z M50.6,9.7h-2.2v12.9h2.2
			c1.4,0,2-0.7,2-2.1v-8.8C52.6,10.3,51.9,9.7,50.6,9.7z"/>
		<path class="st0" d="M64,40V9.8h-4.8V5h15v4.9h-4.8V40H64z"/>
		<path class="st0" d="M91,28.1v5.7c0,4.4-2.1,6.5-6.5,6.5h-2.4c-4.3,0-6.5-2.1-6.5-6.5v-7.4h5.2v7.2c0,1.4,0.7,2,2.1,2h0.7
			c1.4,0,2.1-0.7,2.1-2v-4.8c0-1.4-0.5-2.1-1.5-2.9l-5.4-4c-2.4-1.7-3.1-3.4-3.1-6.1v-4.8c0-4.4,2.2-6.5,6.5-6.5h2.3
			c4.3,0,6.5,2.2,6.5,6.5v6.4h-5.3v-6.2c0-1.4-0.7-2-2-2H83c-1.4,0-2,0.6-2,2v3.9c0,1.5,0.5,2.1,1.5,2.9l5.4,4
			C90.2,23.7,91,25.2,91,28.1z"/>
	</g>
	<g>
		<path class="st1" d="M110.6,22.6h-1.2V12.2h2.1c1.3,0,2,0.6,2,1.9v2.7c0,1.3-0.6,2-2,2h-0.9V22.6z M111.4,13.2h-0.8v4.4h0.8
			c0.5,0,0.8-0.3,0.8-0.8V14C112.2,13.5,111.9,13.2,111.4,13.2z"/>
		<path class="st1" d="M117.7,12.2v1.1h-2.1v3.5h2v1.1h-2v3.7h2.1v1.1h-3.3V12.2H117.7z"/>
		<path class="st1" d="M122.9,19.1v3.5h-1.2v-3.5c0-0.6-0.3-0.9-0.9-0.9h-0.9v4.4h-1.2V12.2h2.2c1.3,0,2,0.6,2,1.9v2
			c0,0.9-0.3,1.4-0.9,1.7C122.6,17.9,122.9,18.3,122.9,19.1z M120.9,13.2h-1v3.9h0.9c0.6,0,0.9-0.3,0.9-0.9V14
			C121.7,13.5,121.4,13.2,120.9,13.2z"/>
		<path class="st1" d="M105,35.6h-1.2V25.2h2.1c1.3,0,2,0.6,2,1.9v2.7c0,1.3-0.6,2-2,2H105V35.6z M105.9,26.2H105v4.4h0.8
			c0.5,0,0.8-0.3,0.8-0.8V27C106.7,26.5,106.4,26.2,105.9,26.2z"/>
		<path class="st1" d="M112,29.7v-4.6h1.2v10.5H112v-4.8h-2v4.8h-1.2V25.2h1.2v4.6H112z"/>
		<path class="st1" d="M116.7,35.7h-0.5c-1.3,0-2-0.6-2-1.9V27c0-1.3,0.6-1.9,2-1.9h0.5c1.3,0,1.9,0.6,1.9,1.9v6.8
			C118.6,35.1,118,35.7,116.7,35.7z M116.7,26.2h-0.4c-0.5,0-0.8,0.3-0.8,0.8v6.9c0,0.5,0.3,0.8,0.8,0.8h0.4c0.5,0,0.8-0.3,0.8-0.8
			V27C117.5,26.4,117.2,26.2,116.7,26.2z"/>
		<path class="st1" d="M120.8,35.6v-9.4h-1.6v-1.1h4.3v1.1H122v9.4H120.8z"/>
		<path class="st1" d="M126.5,35.7H126c-1.3,0-2-0.6-2-1.9V27c0-1.3,0.6-1.9,2-1.9h0.5c1.3,0,1.9,0.6,1.9,1.9v6.8
			C128.4,35.1,127.8,35.7,126.5,35.7z M126.4,26.2h-0.4c-0.5,0-0.8,0.3-0.8,0.8v6.9c0,0.5,0.3,0.8,0.8,0.8h0.4
			c0.5,0,0.8-0.3,0.8-0.8V27C127.2,26.4,127,26.2,126.4,26.2z"/>
	</g>
</g>
<g>
	<path class="st1" d="M24.2,59.6v-9h5.7v1.1h-4.3v3.2h3.8v1h-3.8v3.8H24.2z"/>
	<path class="st1" d="M31,59.6v-6.7h1.3v6.7H31z M31,51.6v-1.5h1.3v1.5H31z"/>
	<path class="st1" d="M34.4,59.6v-6.7h1.3l0,1.6c0.4-1.2,1.3-1.9,2.2-1.9v1.2c-0.8-0.1-2.2,0.7-2.2,3v2.8H34.4z"/>
	<path class="st1" d="M43.1,54.7c-0.1-0.7-0.6-1.1-1.5-1.1c-0.8,0-1.3,0.3-1.3,1c0,0.7,0.7,0.9,1.8,1.1c1.5,0.2,2.4,0.9,2.4,2.2
		c0,1.4-1.2,2.1-2.8,2.1c-1.7,0-2.6-0.8-2.8-2.2l1.2,0c0.1,0.8,0.7,1.3,1.7,1.3c0.9,0,1.5-0.4,1.5-1.1c0-0.7-0.6-1.1-1.8-1.3
		c-1.4-0.2-2.4-0.9-2.4-2.1c0-1.2,1.1-1.9,2.5-1.9c1.5,0,2.5,0.7,2.6,1.9L43.1,54.7z"/>
	<path class="st1" d="M49,59.7c0,0-0.3,0.1-0.9,0.1c-1.1,0-1.8-0.5-1.8-2.2v-3.9h-0.8v-0.8h0.8v-1.7h1.3v1.7h1.2v0.8h-1.2v3.8
		c0,1,0.3,1.3,0.9,1.3c0.3,0,0.5,0,0.5,0V59.7z"/>
	<path class="st1" d="M55.6,51.7l-0.3,2.9c0.5-0.5,1.2-0.8,2-0.8c1.6,0,2.9,1.2,2.9,3c0,1.8-1.4,3-3.3,3c-1.9,0-3-1.1-3.3-2.7
		l1.2-0.1c0.2,1.2,1,1.9,2.1,1.9c1.1,0,1.9-0.8,1.9-2.1c0-1.3-0.8-2.1-1.9-2.1c-0.9,0-1.6,0.6-1.8,1.2L54,55.7l0.5-5.1h5l0,1H55.6z"
		/>
	<path class="st1" d="M66.5,62.3h-1.3v-9.4h1.3l0,1.4c0.4-1,1.2-1.6,2.3-1.6c1.7,0,3,1.5,3,3.6c0,2.1-1.2,3.6-3,3.6
		c-1.1,0-1.8-0.6-2.2-1.5V62.3z M70.4,56.3c0-1.4-0.8-2.7-2-2.7c-1.1,0-2,1.1-2,2.7s0.9,2.6,2,2.6C69.6,58.9,70.4,57.7,70.4,56.3z"
		/>
	<path class="st1" d="M74.2,56.5c0.1,1.5,0.9,2.4,2,2.4c1.1,0,1.8-1,1.9-1.5l1.2,0c0,1-1.3,2.5-3.2,2.5c-1.9,0-3.3-1.6-3.3-3.6
		c0-2.1,1.4-3.6,3.3-3.6c1.8,0,3.2,1.5,3.2,3.3v0.5H74.2z M78.1,55.7c-0.2-1.2-1-2-1.9-2c-0.9,0-1.7,0.8-1.9,2H78.1z"/>
	<path class="st1" d="M80.5,56.3c0-2.2,1.4-3.6,3.3-3.6s3.4,1.4,3.4,3.6s-1.4,3.6-3.3,3.6C81.9,59.9,80.5,58.5,80.5,56.3z
		 M85.9,56.3c0-1.5-0.9-2.6-2-2.6c-1.2,0-2,1.2-2,2.6c0,1.5,0.9,2.6,2,2.6C85,58.9,85.9,57.8,85.9,56.3z"/>
	<path class="st1" d="M90.2,62.3h-1.3v-9.4h1.3l0,1.4c0.4-1,1.2-1.6,2.3-1.6c1.7,0,3,1.5,3,3.6c0,2.1-1.2,3.6-3,3.6
		c-1.1,0-1.8-0.6-2.2-1.5V62.3z M94,56.3c0-1.4-0.8-2.7-2-2.7c-1.1,0-2,1.1-2,2.7s0.9,2.6,2,2.6C93.2,58.9,94,57.7,94,56.3z"/>
	<path class="st1" d="M97,59.6v-9.6h1.3v9.6H97z"/>
	<path class="st1" d="M101.3,56.5c0.1,1.5,0.9,2.4,2,2.4c1.1,0,1.8-1,1.9-1.5l1.2,0c0,1-1.3,2.5-3.2,2.5c-1.9,0-3.3-1.6-3.3-3.6
		c0-2.1,1.4-3.6,3.3-3.6s3.2,1.5,3.2,3.3v0.5H101.3z M105.1,55.7c-0.2-1.2-1-2-1.9-2c-0.9,0-1.7,0.8-1.9,2H105.1z"/>
	<path class="st1" d="M114.5,59.7c0,0-0.3,0.1-0.9,0.1c-1.1,0-1.8-0.5-1.8-2.2v-3.9H111v-0.8h0.8v-1.7h1.3v1.7h1.2v0.8h-1.2v3.8
		c0,1,0.3,1.3,0.9,1.3c0.3,0,0.5,0,0.5,0V59.7z"/>
	<path class="st1" d="M115.5,56.3c0-2.2,1.4-3.6,3.3-3.6s3.4,1.4,3.4,3.6s-1.4,3.6-3.3,3.6C116.8,59.9,115.5,58.5,115.5,56.3z
		 M120.8,56.3c0-1.5-0.9-2.6-2-2.6c-1.2,0-2,1.2-2,2.6c0,1.5,0.9,2.6,2,2.6C119.9,58.9,120.8,57.8,120.8,56.3z"/>
	<path class="st1" d="M22.6,70.2c-0.3,1.6-1.5,2.7-3.2,2.7c-1.9,0-3.3-1.5-3.3-3.6c0-2.1,1.4-3.6,3.3-3.6c1.6,0,2.8,1,3.1,2.6
		l-1.3,0c-0.3-0.9-0.9-1.6-1.8-1.6c-1.2,0-2,1.2-2,2.6c0,1.4,0.9,2.7,2,2.7c0.9,0,1.6-0.9,1.8-1.8L22.6,70.2z"/>
	<path class="st1" d="M30.3,72.6H29l0-1.4c-0.4,1-1.2,1.6-2.3,1.6c-1.7,0-3-1.5-3-3.6c0-2.1,1.2-3.6,3-3.6c1.1,0,1.8,0.6,2.3,1.6
		l0-1.3h1.3V72.6z M29,69.3c0-1.5-0.9-2.6-2-2.6c-1.1,0-2,1.2-2,2.6c0,1.4,0.8,2.6,2,2.6C28.1,71.9,29,70.8,29,69.3z"/>
	<path class="st1" d="M33.7,75.3h-1.3v-9.4h1.3l0,1.4c0.4-1,1.2-1.6,2.3-1.6c1.7,0,3,1.5,3,3.6c0,2.1-1.2,3.6-3,3.6
		c-1.1,0-1.8-0.6-2.2-1.5V75.3z M37.6,69.3c0-1.4-0.8-2.7-2-2.7c-1.1,0-2,1.1-2,2.7s0.9,2.6,2,2.6C36.7,71.9,37.6,70.7,37.6,69.3z"
		/>
	<path class="st1" d="M43.4,72.7c0,0-0.3,0.1-0.9,0.1c-1.1,0-1.8-0.5-1.8-2.2v-3.9h-0.8v-0.8h0.8v-1.7H42v1.7h1.2v0.8H42v3.8
		c0,1,0.3,1.3,0.9,1.3c0.3,0,0.5,0,0.5,0V72.7z"/>
	<path class="st1" d="M49.9,72.6l0-1.4c-0.4,1-1.3,1.6-2.4,1.6c-1.4,0-2.3-0.9-2.3-2.8v-4.2h1.3v4c0,1.4,0.5,2,1.5,2
		c1.1,0,1.9-1,1.9-2.7v-3.3h1.3v6.7H49.9z"/>
	<path class="st1" d="M53.3,72.6v-6.7h1.3l0,1.6c0.4-1.2,1.3-1.9,2.2-1.9v1.2c-0.8-0.1-2.2,0.7-2.2,3v2.8H53.3z"/>
	<path class="st1" d="M58.9,69.5c0.1,1.5,0.9,2.4,2,2.4c1.1,0,1.8-1,1.9-1.5l1.2,0c0,1-1.3,2.5-3.2,2.5c-1.9,0-3.3-1.6-3.3-3.6
		c0-2.1,1.4-3.6,3.3-3.6s3.2,1.5,3.2,3.3v0.5H58.9z M62.7,68.7c-0.2-1.2-1-2-1.9-2c-0.9,0-1.7,0.8-1.9,2H62.7z"/>
	<path class="st1" d="M75.1,72.6h-1.3l0-1.4c-0.4,1-1.2,1.6-2.3,1.6c-1.7,0-3-1.5-3-3.6c0-2.1,1.2-3.6,3-3.6c1.1,0,1.8,0.6,2.3,1.6
		l0-1.3h1.3V72.6z M73.8,69.3c0-1.5-0.9-2.6-2-2.6c-1.1,0-2,1.2-2,2.6c0,1.4,0.8,2.6,2,2.6C72.9,71.9,73.8,70.8,73.8,69.3z"/>
	<path class="st1" d="M81.8,72.6h-1.3v-9.6h1.3v4.2c0.4-0.9,1.2-1.5,2.2-1.5c1.7,0,3,1.5,3,3.6c0,2.1-1.2,3.6-3,3.6
		c-1.1,0-1.8-0.6-2.3-1.6L81.8,72.6z M85.7,69.3c0-1.4-0.8-2.6-2-2.6c-1.1,0-2,1.1-2,2.6s0.9,2.7,2,2.7
		C84.9,71.9,85.7,70.7,85.7,69.3z"/>
	<path class="st1" d="M93.3,72.6l0-1.4c-0.4,1-1.3,1.6-2.4,1.6c-1.4,0-2.3-0.9-2.3-2.8v-4.2h1.3v4c0,1.4,0.5,2,1.5,2
		c1.1,0,1.9-1,1.9-2.7v-3.3h1.3v6.7H93.3z"/>
	<path class="st1" d="M96.6,72.6v-6.7H98v6.7H96.6z M96.7,64.6v-1.5H98v1.5H96.7z"/>
	<path class="st1" d="M100.1,72.6v-9.6h1.3v9.6H100.1z"/>
	<path class="st1" d="M109.6,72.6h-1.3l0-1.4c-0.4,1-1.2,1.6-2.3,1.6c-1.7,0-3-1.5-3-3.6c0-2.1,1.2-3.6,3-3.6c1.1,0,1.8,0.6,2.2,1.5
		v-4.2h1.3V72.6z M108.3,69.3c0-1.5-0.9-2.6-2-2.6c-1.1,0-2,1.2-2,2.6c0,1.5,0.8,2.7,2,2.7C107.4,71.9,108.3,70.8,108.3,69.3z"/>
	<path class="st1" d="M111.6,72.6v-6.7h1.3v6.7H111.6z M111.6,64.6v-1.5h1.3v1.5H111.6z"/>
	<path class="st1" d="M119.8,72.6v-3.9c0-1.4-0.5-2-1.5-2c-1.1,0-1.9,1-1.9,2.7v3.2H115v-6.7h1.3l0,1.4c0.4-1,1.3-1.6,2.5-1.6
		c1.4,0,2.3,0.9,2.3,2.8v4.2H119.8z"/>
	<path class="st1" d="M128,71.3c-0.4,1-1.2,1.6-2.3,1.6c-1.7,0-3-1.5-3-3.6c0-2.1,1.2-3.6,3-3.6c1.1,0,1.8,0.6,2.3,1.6l0.1-1.4h1.2
		v6.4c0,2.2-1.4,3.2-3.1,3.2c-1.8,0-2.7-0.9-2.9-2.1h1.3c0.1,0.8,0.7,1.3,1.6,1.3c0.9,0,1.9-0.5,1.9-2.2V71.3z M128,69.3
		c0-1.5-0.9-2.6-2-2.6c-1.1,0-2,1.2-2,2.6c0,1.5,0.9,2.7,2,2.7C127.1,72,128,70.8,128,69.3z"/>
</g>
</svg>
