<?xml version="1.0" encoding="utf-8"?>
<!-- Generator: Adobe Illustrator 21.1.0, SVG Export Plug-In . SVG Version: 6.00 Build 0)  -->
<svg version="1.1" id="Layer_1" xmlns="http://www.w3.org/2000/svg" xmlns:xlink="http://www.w3.org/1999/xlink" x="0px" y="0px"
	 viewBox="0 0 142.6 78.8" style="enable-background:new 0 0 142.6 78.8;" xml:space="preserve">
<style type="text/css">
	.st0{fill:#500000;}
	.st1{fill:#424242;}
</style>
<g>
	<g>
		<g>
			<path class="st0" d="M16.9,27.8l7-23.9h7v24.4h2.5V33h-2.5v6h-4.8v-6h-9.2V27.8z M26.1,11.3l-4.9,17h4.9V11.3z"/>
			<path class="st0" d="M47,39h-5.4V4h8.4c4.4,0,6.5,2.1,6.5,6.5v9.3c0,4.4-2.2,6.5-6.5,6.5h-3V39z M49.2,8.7H47v12.9h2.2
				c1.3,0,2-0.7,2-2.1v-8.8C51.2,9.3,50.6,8.7,49.2,8.7z"/>
			<path class="st0" d="M62.6,39V8.8h-4.8V4h15v4.9H68V39H62.6z"/>
			<path class="st0" d="M89.6,27.1v5.7c0,4.4-2.1,6.5-6.5,6.5h-2.4c-4.3,0-6.5-2.1-6.5-6.5v-7.4h5.2v7.2c0,1.4,0.7,2,2.1,2h0.7
				c1.4,0,2.1-0.7,2.1-2v-4.8c0-1.4-0.5-2.1-1.5-2.9l-5.4-4c-2.4-1.7-3.1-3.4-3.1-6.1v-4.8c0-4.4,2.2-6.5,6.5-6.5h2.3
				c4.3,0,6.5,2.2,6.5,6.5v6.4h-5.3v-6.2c0-1.4-0.7-2-2-2h-0.6c-1.4,0-2,0.6-2,2v3.9c0,1.5,0.5,2.1,1.5,2.9l5.4,4
				C88.9,22.7,89.6,24.2,89.6,27.1z"/>
		</g>
		<g>
			<path class="st1" d="M109.2,21.6H108V11.2h2.1c1.3,0,2,0.6,2,1.9v2.7c0,1.3-0.6,2-2,2h-0.9V21.6z M110.1,12.2h-0.8v4.4h0.8
				c0.5,0,0.8-0.3,0.8-0.8V13C110.9,12.5,110.6,12.2,110.1,12.2z"/>
			<path class="st1" d="M116.3,11.2v1.1h-2.1v3.5h2v1.1h-2v3.7h2.1v1.1H113V11.2H116.3z"/>
			<path class="st1" d="M121.5,18.1v3.5h-1.2v-3.5c0-0.6-0.3-0.9-0.9-0.9h-0.9v4.4h-1.2V11.2h2.2c1.3,0,2,0.6,2,1.9v2
				c0,0.9-0.3,1.4-0.9,1.7C121.3,16.9,121.5,17.3,121.5,18.1z M119.5,12.2h-1v3.9h0.9c0.6,0,0.9-0.3,0.9-0.9V13
				C120.3,12.5,120.1,12.2,119.5,12.2z"/>
			<path class="st1" d="M103.7,34.6h-1.2V24.2h2.1c1.3,0,2,0.6,2,1.9v2.7c0,1.3-0.6,2-2,2h-0.9V34.6z M104.5,25.2h-0.8v4.4h0.8
				c0.5,0,0.8-0.3,0.8-0.8V26C105.3,25.5,105.1,25.2,104.5,25.2z"/>
			<path class="st1" d="M110.6,28.7v-4.6h1.2v10.5h-1.2v-4.8h-1.9v4.8h-1.2V24.2h1.2v4.6H110.6z"/>
			<path class="st1" d="M115.4,34.7h-0.5c-1.3,0-1.9-0.6-1.9-1.9V26c0-1.3,0.6-1.9,1.9-1.9h0.5c1.3,0,2,0.6,2,1.9v6.8
				C117.3,34.1,116.7,34.7,115.4,34.7z M115.3,25.2h-0.4c-0.5,0-0.8,0.3-0.8,0.8v6.9c0,0.5,0.3,0.8,0.8,0.8h0.4
				c0.5,0,0.8-0.3,0.8-0.8V26C116.1,25.4,115.8,25.2,115.3,25.2z"/>
			<path class="st1" d="M119.4,34.6v-9.4h-1.6v-1.1h4.4v1.1h-1.6v9.4H119.4z"/>
			<path class="st1" d="M125.1,34.7h-0.5c-1.3,0-1.9-0.6-1.9-1.9V26c0-1.3,0.6-1.9,1.9-1.9h0.5c1.3,0,2,0.6,2,1.9v6.8
				C127.1,34.1,126.4,34.7,125.1,34.7z M125.1,25.2h-0.4c-0.5,0-0.8,0.3-0.8,0.8v6.9c0,0.5,0.3,0.8,0.8,0.8h0.4
				c0.5,0,0.8-0.3,0.8-0.8V26C125.9,25.4,125.6,25.2,125.1,25.2z"/>
		</g>
	</g>
	<g>
		<path class="st1" d="M13.3,58.6v-9H19v1.1h-4.3v3.2h3.8v1h-3.8v3.8H13.3z"/>
		<path class="st1" d="M20.1,58.6v-6.7h1.3v6.7H20.1z M20.2,50.6v-1.5h1.3v1.5H20.2z"/>
		<path class="st1" d="M23.6,58.6v-6.7h1.3l0,1.6c0.4-1.2,1.3-1.9,2.2-1.9v1.2c-0.8-0.1-2.2,0.7-2.2,3v2.8H23.6z"/>
		<path class="st1" d="M32.2,53.7c-0.1-0.7-0.6-1.1-1.5-1.1c-0.8,0-1.3,0.3-1.3,1c0,0.7,0.7,0.9,1.8,1.1c1.5,0.2,2.4,0.9,2.4,2.2
			c0,1.4-1.2,2.1-2.8,2.1c-1.7,0-2.6-0.8-2.8-2.2l1.2,0c0.1,0.8,0.7,1.3,1.7,1.3c0.9,0,1.5-0.4,1.5-1.1c0-0.7-0.6-1.1-1.8-1.3
			c-1.4-0.2-2.4-0.9-2.4-2.1c0-1.2,1.1-1.9,2.5-1.9c1.5,0,2.5,0.7,2.6,1.9L32.2,53.7z"/>
		<path class="st1" d="M38.2,58.7c0,0-0.3,0.1-0.9,0.1c-1.1,0-1.8-0.5-1.8-2.2v-3.9h-0.8v-0.8h0.8v-1.7h1.3v1.7H38v0.8h-1.2v3.8
			c0,1,0.3,1.3,0.9,1.3c0.3,0,0.5,0,0.5,0V58.7z"/>
		<path class="st1" d="M47.9,51.8c-0.1-0.4-0.6-1.2-1.6-1.2s-2.2,1-2.2,3.8c0,0.1,0,0.1,0,0.2c0.4-1.1,1.3-1.8,2.4-1.8
			c1.5,0,2.9,1.2,2.9,3c0,1.7-1.5,3-3.3,3c-1.8,0-3.3-1.6-3.4-4.6c0-3.4,1.9-4.7,3.5-4.7c1.6,0,2.6,1,2.8,2.3L47.9,51.8z M48.2,55.8
			c0-1.2-0.8-2.1-1.9-2.1c-1.1,0-1.9,0.8-1.9,2.1c0,1.1,0.8,2,1.9,2C47.3,57.8,48.2,56.9,48.2,55.8z"/>
		<path class="st1" d="M57.5,58.7c0,0-0.3,0.1-0.9,0.1c-1.1,0-1.8-0.5-1.8-2.2v-3.9h-0.8v-0.8h0.8v-1.7h1.3v1.7h1.2v0.8h-1.2v3.8
			c0,1,0.3,1.3,0.9,1.3c0.3,0,0.5,0,0.5,0V58.7z"/>
		<path class="st1" d="M58.4,55.3c0-2.2,1.4-3.6,3.3-3.6s3.4,1.4,3.4,3.6s-1.4,3.6-3.3,3.6C59.8,58.9,58.4,57.5,58.4,55.3z
			 M63.8,55.3c0-1.5-0.9-2.6-2-2.6c-1.2,0-2,1.2-2,2.6c0,1.5,0.9,2.6,2,2.6C62.9,57.9,63.8,56.8,63.8,55.3z"/>
		<path class="st1" d="M69.7,58.6v-1.1c2.6-1.9,4.7-3.6,4.7-5.4c0-1.2-0.7-1.8-1.6-1.8c-1.1,0-1.8,0.8-1.8,2.3l-1.3,0
			c0-2,1.3-3.3,3.1-3.3c1.7,0,3,1,3,2.7c0,2.1-1.7,3.7-4.1,5.4h4.3v1.1H69.7z"/>
		<path class="st1" d="M77.2,54.2c0-2.7,1.6-4.7,3.8-4.7c2.2,0,3.8,2,3.8,4.7c0,2.7-1.6,4.7-3.8,4.7C78.8,58.9,77.2,56.9,77.2,54.2z
			 M83.4,54.2c0-2.2-1-3.6-2.4-3.6c-1.4,0-2.4,1.5-2.4,3.6c0,2.1,1,3.6,2.4,3.6C82.4,57.8,83.4,56.3,83.4,54.2z"/>
		<path class="st1" d="M91.1,61.3h-1.3v-9.4h1.3l0,1.4c0.4-1,1.2-1.6,2.3-1.6c1.7,0,3,1.5,3,3.6c0,2.1-1.2,3.6-3,3.6
			c-1.1,0-1.8-0.6-2.2-1.5V61.3z M95,55.3c0-1.4-0.8-2.7-2-2.7c-1.1,0-2,1.1-2,2.7s0.9,2.6,2,2.6C94.2,57.9,95,56.7,95,55.3z"/>
		<path class="st1" d="M98.9,55.5c0.1,1.5,0.9,2.4,2,2.4c1.1,0,1.8-1,1.9-1.5l1.2,0c0,1-1.3,2.5-3.2,2.5c-1.9,0-3.3-1.6-3.3-3.6
			c0-2.1,1.4-3.6,3.3-3.6s3.2,1.5,3.2,3.3v0.5H98.9z M102.7,54.7c-0.2-1.2-1-2-1.9-2c-0.9,0-1.7,0.8-1.9,2H102.7z"/>
		<path class="st1" d="M105.2,55.3c0-2.2,1.4-3.6,3.3-3.6c1.9,0,3.4,1.4,3.4,3.6s-1.4,3.6-3.3,3.6C106.5,58.9,105.2,57.5,105.2,55.3
			z M110.5,55.3c0-1.5-0.9-2.6-2-2.6c-1.2,0-2,1.2-2,2.6c0,1.5,0.9,2.6,2,2.6C109.6,57.9,110.5,56.8,110.5,55.3z"/>
		<path class="st1" d="M114.8,61.3h-1.3v-9.4h1.3l0,1.4c0.4-1,1.2-1.6,2.3-1.6c1.7,0,3,1.5,3,3.6c0,2.1-1.2,3.6-3,3.6
			c-1.1,0-1.8-0.6-2.2-1.5V61.3z M118.7,55.3c0-1.4-0.8-2.7-2-2.7c-1.1,0-2,1.1-2,2.7s0.9,2.6,2,2.6
			C117.8,57.9,118.7,56.7,118.7,55.3z"/>
		<path class="st1" d="M121.6,58.6v-9.6h1.3v9.6H121.6z"/>
		<path class="st1" d="M125.9,55.5c0.1,1.5,0.9,2.4,2,2.4c1.1,0,1.8-1,1.9-1.5l1.2,0c0,1-1.3,2.5-3.2,2.5c-1.9,0-3.3-1.6-3.3-3.6
			c0-2.1,1.4-3.6,3.3-3.6c1.8,0,3.2,1.5,3.2,3.3v0.5H125.9z M129.8,54.7c-0.2-1.2-1-2-1.9-2c-0.9,0-1.7,0.8-1.9,2H129.8z"/>
		<path class="st1" d="M10.9,71.7c0,0-0.3,0.1-0.9,0.1c-1.1,0-1.8-0.5-1.8-2.2v-3.9H7.3v-0.8h0.8v-1.7h1.3v1.7h1.2v0.8H9.5v3.8
			c0,1,0.3,1.3,0.9,1.3c0.3,0,0.5,0,0.5,0V71.7z"/>
		<path class="st1" d="M11.8,68.3c0-2.2,1.4-3.6,3.3-3.6s3.4,1.4,3.4,3.6s-1.4,3.6-3.3,3.6C13.2,71.9,11.8,70.5,11.8,68.3z
			 M17.1,68.3c0-1.5-0.9-2.6-2-2.6c-1.2,0-2,1.2-2,2.6c0,1.5,0.9,2.6,2,2.6C16.3,70.9,17.1,69.8,17.1,68.3z"/>
		<path class="st1" d="M29.5,69.2c-0.3,1.6-1.5,2.7-3.2,2.7c-1.9,0-3.3-1.5-3.3-3.6c0-2.1,1.4-3.6,3.3-3.6c1.6,0,2.8,1,3.1,2.6
			l-1.3,0c-0.3-0.9-0.9-1.6-1.8-1.6c-1.2,0-2,1.2-2,2.6c0,1.4,0.9,2.7,2,2.7c0.9,0,1.6-0.9,1.8-1.8L29.5,69.2z"/>
		<path class="st1" d="M37.1,71.6h-1.3l0-1.4c-0.4,1-1.2,1.6-2.3,1.6c-1.7,0-3-1.5-3-3.6c0-2.1,1.2-3.6,3-3.6c1.1,0,1.8,0.6,2.3,1.6
			l0-1.3h1.3V71.6z M35.9,68.3c0-1.5-0.9-2.6-2-2.6c-1.1,0-2,1.2-2,2.6c0,1.4,0.8,2.6,2,2.6C35,70.9,35.9,69.8,35.9,68.3z"/>
		<path class="st1" d="M40.5,74.3h-1.3v-9.4h1.3l0,1.4c0.4-1,1.2-1.6,2.3-1.6c1.7,0,3,1.5,3,3.6c0,2.1-1.2,3.6-3,3.6
			c-1.1,0-1.8-0.6-2.2-1.5V74.3z M44.4,68.3c0-1.4-0.8-2.7-2-2.7c-1.1,0-2,1.1-2,2.7s0.9,2.6,2,2.6C43.6,70.9,44.4,69.7,44.4,68.3z"
			/>
		<path class="st1" d="M50.3,71.7c0,0-0.3,0.1-0.9,0.1c-1.1,0-1.8-0.5-1.8-2.2v-3.9h-0.8v-0.8h0.8v-1.7h1.3v1.7h1.2v0.8h-1.2v3.8
			c0,1,0.3,1.3,0.9,1.3c0.3,0,0.5,0,0.5,0V71.7z"/>
		<path class="st1" d="M56.8,71.6l0-1.4c-0.4,1-1.3,1.6-2.4,1.6c-1.4,0-2.3-0.9-2.3-2.8v-4.2h1.3v4c0,1.4,0.5,2,1.5,2
			c1.1,0,1.9-1,1.9-2.7v-3.3h1.3v6.7H56.8z"/>
		<path class="st1" d="M60.2,71.6v-6.7h1.3l0,1.6c0.4-1.2,1.3-1.9,2.2-1.9v1.2c-0.8-0.1-2.2,0.7-2.2,3v2.8H60.2z"/>
		<path class="st1" d="M65.8,68.5c0.1,1.5,0.9,2.4,2,2.4c1.1,0,1.8-1,1.9-1.5l1.2,0c0,1-1.3,2.5-3.2,2.5c-1.9,0-3.3-1.6-3.3-3.6
			c0-2.1,1.4-3.6,3.3-3.6c1.8,0,3.2,1.5,3.2,3.3v0.5H65.8z M69.6,67.7c-0.2-1.2-1-2-1.9-2c-0.9,0-1.7,0.8-1.9,2H69.6z"/>
		<path class="st1" d="M82,71.6h-1.3l0-1.4c-0.4,1-1.2,1.6-2.3,1.6c-1.7,0-3-1.5-3-3.6c0-2.1,1.2-3.6,3-3.6c1.1,0,1.8,0.6,2.3,1.6
			l0-1.3H82V71.6z M80.7,68.3c0-1.5-0.9-2.6-2-2.6c-1.1,0-2,1.2-2,2.6c0,1.4,0.8,2.6,2,2.6C79.8,70.9,80.7,69.8,80.7,68.3z"/>
		<path class="st1" d="M88.6,71.6h-1.3v-9.6h1.3v4.2c0.4-0.9,1.2-1.5,2.2-1.5c1.7,0,3,1.5,3,3.6c0,2.1-1.2,3.6-3,3.6
			c-1.1,0-1.8-0.6-2.3-1.6L88.6,71.6z M92.6,68.3c0-1.4-0.8-2.6-2-2.6c-1.1,0-2,1.1-2,2.6s0.9,2.7,2,2.7
			C91.8,70.9,92.6,69.7,92.6,68.3z"/>
		<path class="st1" d="M100.2,71.6l0-1.4c-0.4,1-1.3,1.6-2.4,1.6c-1.4,0-2.3-0.9-2.3-2.8v-4.2h1.3v4c0,1.4,0.5,2,1.5,2
			c1.1,0,1.9-1,1.9-2.7v-3.3h1.3v6.7H100.2z"/>
		<path class="st1" d="M103.5,71.6v-6.7h1.3v6.7H103.5z M103.5,63.6v-1.5h1.3v1.5H103.5z"/>
		<path class="st1" d="M106.9,71.6v-9.6h1.3v9.6H106.9z"/>
		<path class="st1" d="M116.4,71.6h-1.3l0-1.4c-0.4,1-1.2,1.6-2.3,1.6c-1.7,0-3-1.5-3-3.6c0-2.1,1.2-3.6,3-3.6
			c1.1,0,1.8,0.6,2.2,1.5v-4.2h1.3V71.6z M115.1,68.3c0-1.5-0.9-2.6-2-2.6c-1.1,0-2,1.2-2,2.6c0,1.5,0.8,2.7,2,2.7
			C114.3,70.9,115.1,69.8,115.1,68.3z"/>
		<path class="st1" d="M118.5,71.6v-6.7h1.3v6.7H118.5z M118.5,63.6v-1.5h1.3v1.5H118.5z"/>
		<path class="st1" d="M126.7,71.6v-3.9c0-1.4-0.5-2-1.5-2c-1.1,0-1.9,1-1.9,2.7v3.2h-1.3v-6.7h1.3l0,1.4c0.4-1,1.3-1.6,2.5-1.6
			c1.4,0,2.3,0.9,2.3,2.8v4.2H126.7z"/>
		<path class="st1" d="M134.8,70.3c-0.4,1-1.2,1.6-2.3,1.6c-1.7,0-3-1.5-3-3.6c0-2.1,1.2-3.6,3-3.6c1.1,0,1.8,0.6,2.3,1.6l0.1-1.4
			h1.2v6.4c0,2.2-1.4,3.2-3.1,3.2c-1.8,0-2.7-0.9-2.9-2.1h1.3c0.1,0.8,0.7,1.3,1.6,1.3c0.9,0,1.9-0.5,1.9-2.2V70.3z M134.8,68.3
			c0-1.5-0.9-2.6-2-2.6c-1.1,0-2,1.2-2,2.6c0,1.5,0.9,2.7,2,2.7C134,71,134.8,69.8,134.8,68.3z"/>
	</g>
</g>
</svg>
