<svg height="512pt" viewBox="0 0 512.0001 512" width="512pt" xmlns="http://www.w3.org/2000/svg"><path d="m481.484375 501.964844h-450.96875c-13.910156 0-23.773437-13.5625-19.488281-26.796875l68.335937-211.007813c2.734375-8.453125 10.605469-14.175781 19.488281-14.175781h314.296876c8.882812 0 16.753906 5.722656 19.492187 14.175781l68.332031 211.007813c4.289063 13.234375-5.578125 26.796875-19.488281 26.796875zm0 0" fill="#36d28f"/><path d="m351.492188 249.984375h61.65625c8.882812 0 16.753906 5.722656 19.492187 14.175781l68.332031 211.007813c4.289063 13.234375-5.578125 26.796875-19.488281 26.796875h-450.96875c-13.910156 0-23.773437-13.5625-19.488281-26.796875l68.335937-211.007813c2.734375-8.453125 10.605469-14.175781 19.488281-14.175781zm0 0" fill="#ffc66c"/><path d="m432.640625 264.15625c-2.738281-8.449219-10.609375-14.171875-19.492187-14.171875h-314.296876c-8.882812 0-16.753906 5.722656-19.488281 14.171875l-42.351562 130.769531h153.992187l253.21875-94.996093zm0 0" fill="#36d28f"/><path d="m500.972656 475.167969-43.519531-134.390625-98.605469 37.605468 95.699219 123.582032h26.9375c13.910156 0 23.777344-13.5625 19.488281-26.796875zm0 0" fill="#b2f0bf"/><path d="m27.011719 437.640625h173.882812l119.082031-44.671875 83.011719 108.996094h51.128907l-95.269532-123.582032 95.269532-35.738281-9.894532-42.714843-253.21875 94.996093h-153.992187zm0 0" fill="#fff"/><path d="m118.886719 147.113281c0-76.050781 61.914062-137.636719 138.082031-137.109375 74.257812.515625 135.066406 60.851563 136.128906 135.101563.480469 33.605469-11.136718 64.480469-30.765625 88.566406h.007813l-98.460938 126.199219c-4.003906 5.132812-11.761718 5.132812-15.765625.003906l-97.949219-125.488281h.078126c-19.585938-23.710938-31.355469-54.117188-31.355469-87.273438zm0 0" fill="#ff5d5d"/><path d="m331.992188 147.113281c0 41.96875-34.023438 75.992188-75.996094 75.992188-41.96875 0-75.992188-34.023438-75.992188-75.992188 0-41.972656 34.023438-75.996093 75.992188-75.996093 41.972656 0 75.996094 34.023437 75.996094 75.996093zm0 0" fill="#fff"/><path d="m510.488281 472.085938-68.335937-211.007813c-4.085938-12.617187-15.742188-21.09375-29.003906-21.09375h-43.050782l.125-.164063c.039063-.046874.074219-.09375.113282-.144531 21.621093-26.675781 33.25-60.292969 32.757812-94.714843-.550781-38.539063-16.023438-74.820313-43.570312-102.15625-27.542969-27.332032-63.9375-42.53125-102.484376-42.80078175-39.511718-.30468725-76.683593 14.89843775-104.699218 42.72265575-28.023438 27.828126-43.453125 64.898438-43.453125 104.386719 0 33.722657 11.667969 66.59375 32.882812 92.710938.039063.054687.078125.105469.117188.160156h-43.035157c-13.261718 0-24.917968 8.476563-29.003906 21.09375l-68.335937 211.007813c-3.039063 9.386718-1.4531252 19.347656 4.351562 27.324218 5.800781 7.980469 14.789063 12.554688 24.652344 12.554688h450.96875c9.867187 0 18.851563-4.574219 24.65625-12.554688 5.800781-7.976562 7.386719-17.9375 4.347656-27.324218zm-97.339843-212.101563c4.5625 0 8.570312 2.914063 9.976562 7.253906l8.644531 26.6875-146.6875 55.027344 69.414063-88.96875zm-284.265626-112.871094c0-34.121093 13.335938-66.152343 37.546876-90.195312 24.207031-24.042969 56.316406-37.125 90.472656-36.914063 68.601562.472656 125.214844 56.660156 126.195312 125.246094.425782 29.859375-9.699218 59.015625-28.519531 82.105469-.125.152343-.246094.3125-.363281.472656l-98.21875 125.894531-97.230469-124.566406c-.242187-.394531-.511719-.773438-.8125-1.140625-18.746094-22.6875-29.070313-51.417969-29.070313-80.902344zm-40.007812 120.125c1.402344-4.339843 5.414062-7.253906 9.976562-7.253906h58.605469l82.625 105.851563-50.894531 19.089843h-138.425781zm319.066406 224.730469-80.011718-105.058594c-2.671876-3.511718-7.335938-4.851562-11.464844-3.304687l-117.382813 44.035156h-89.074219c-5.523437 0-10 4.476563-10 10s4.476563 10 10 10h90.886719c1.199219 0 2.390625-.214844 3.511719-.636719l112.121094-42.0625 66.277344 87.027344h-352.289063c-3.394531 0-6.484375-1.574219-8.480469-4.320312-1.996094-2.742188-2.542968-6.167969-1.496094-9.398438l23.746094-73.324219h146.71875c1.199219 0 2.386719-.21875 3.511719-.636719l243.417969-91.320312 7.242187 22.351562-89.839843 33.703126c-2.96875 1.113281-5.234376 3.570312-6.105469 6.621093-.867188 3.050781-.238281 6.332031 1.699219 8.847657l82.851562 107.476562zm82.023438-4.320312c-1.996094 2.746093-5.085938 4.320312-8.480469 4.320312h-22.449219l-84.007812-108.972656 76.316406-28.628906 40.117188 123.882812c1.046874 3.226562.5 6.652344-1.496094 9.398438zm0 0"/><path d="m255.996094 233.105469c47.417968 0 85.996094-38.578125 85.996094-85.992188 0-47.417969-38.578126-85.996093-85.996094-85.996093-47.414063 0-85.992188 38.578124-85.992188 85.996093 0 47.414063 38.578125 85.992188 85.992188 85.992188zm0-151.988281c36.390625 0 65.996094 29.605468 65.996094 65.996093s-29.605469 65.996094-65.996094 65.996094-65.992188-29.605469-65.992188-65.996094 29.601563-65.996093 65.992188-65.996093zm0 0"/><path d="m70.011719 427.640625c-2.632813 0-5.210938 1.070313-7.070313 2.929687-1.859375 1.859376-2.929687 4.441407-2.929687 7.070313s1.070312 5.210937 2.929687 7.070313c1.859375 1.859374 4.4375 2.929687 7.070313 2.929687 2.628906 0 5.207031-1.070313 7.070312-2.929687 1.859375-1.859376 2.929688-4.441407 2.929688-7.070313s-1.070313-5.210937-2.929688-7.070313c-1.863281-1.859374-4.441406-2.929687-7.070312-2.929687zm0 0"/></svg>