<?xml version="1.0" encoding="utf-8"?>
<!-- Generator: Adobe Illustrator 19.1.0, SVG Export Plug-In . SVG Version: 6.00 Build 0)  -->
<svg version="1.1" id="Layer_1" xmlns="http://www.w3.org/2000/svg" xmlns:xlink="http://www.w3.org/1999/xlink" x="0px" y="0px"
	 viewBox="-180 322 250 150" style="enable-background:new -180 322 250 150;" xml:space="preserve">
<style type="text/css">
	.st0{display:none;fill:#FFFFFF;}
	.st1{clip-path:url(#SVGID_4_);fill:#9E9E9E;}
	.st2{clip-path:url(#SVGID_6_);}
	.st3{fill:none;stroke:#757575;stroke-width:0.3;stroke-miterlimit:10;}
	.st4{clip-path:url(#SVGID_8_);fill:none;stroke:#616161;stroke-width:1.25;stroke-miterlimit:10;}
	.st5{clip-path:url(#SVGID_10_);fill:none;stroke:#616161;stroke-width:1.25;stroke-miterlimit:10;}
	.st6{fill:none;stroke:#616161;stroke-width:0.5;stroke-miterlimit:10;}
	.st7{fill:none;stroke:#616161;stroke-width:6;stroke-linecap:square;stroke-miterlimit:10;}
	.st8{fill:#757575;}
	.st9{fill:#616161;}
	.st10{clip-path:url(#SVGID_12_);fill:none;stroke:#616161;stroke-width:4;stroke-miterlimit:10;}
	.st11{clip-path:url(#SVGID_14_);fill:none;stroke:#757575;stroke-miterlimit:10;}
	.st12{clip-path:url(#SVGID_16_);fill:none;stroke:#757575;stroke-miterlimit:10;}
	.st13{clip-path:url(#SVGID_18_);fill:none;stroke:#757575;stroke-width:0.5;stroke-miterlimit:10;}
	.st14{clip-path:url(#SVGID_20_);fill:none;stroke:#757575;stroke-width:0.5;stroke-miterlimit:10;}
	.st15{opacity:2.000000e-002;clip-path:url(#SVGID_22_);fill:#FAFAFA;enable-background:new    ;}
	.st16{fill:none;stroke:#616161;stroke-width:4;stroke-miterlimit:10;}
	.st17{opacity:3.000000e-002;fill:#FAFAFA;enable-background:new    ;}
	.st18{fill:#BDBDBD;}
	.st19{fill:none;stroke:#757575;stroke-width:0.6;stroke-linecap:round;stroke-miterlimit:10;}
</style>
<g id="Guides">
	<rect id="XMLID_5_" x="-415" y="1041" class="st0" width="125" height="75"/>
</g>
<g id="Layer_2">
	<g>
		<g>
			<g>
				<g>
					<defs>
						<path id="SVGID_2_" d="M-9.9,383.3l-7.2,4.2c-7.3,4.2-16.7,1.7-21-5.5l-0.4-0.5c-4.2-7.3-1.7-16.7,5.5-21l7.2-4.2
							c7.3-4.2,16.7-1.7,21,5.5l0.4,0.5C0,369.6-2.6,379.1-9.9,383.3z"/>
					</defs>
					<clipPath id="SVGID_4_">
						<use xlink:href="#SVGID_2_"  style="overflow:visible;"/>
					</clipPath>
					<path class="st1" d="M-9.8,383.3l-7.3,4.2c-7.3,4.2-16.7,1.7-20.9-5.5l-0.4-0.6c-4.2-7.3-1.7-16.7,5.5-20.9l7.3-4.2
						c7.3-4.2,16.7-1.7,20.9,5.5l0.4,0.6C0,369.7-2.6,379.1-9.8,383.3z"/>
				</g>
			</g>
		</g>
		<g>
			<g>
				<g>
					<defs>
						<path id="SVGID_5_" d="M-9.9,383.3l-7.2,4.2c-7.3,4.2-16.7,1.7-21-5.5l-0.4-0.5c-4.2-7.3-1.7-16.7,5.5-21l7.2-4.2
							c7.3-4.2,16.7-1.7,21,5.5l0.4,0.5C0,369.6-2.6,379.1-9.9,383.3z"/>
					</defs>
					<clipPath id="SVGID_6_">
						<use xlink:href="#SVGID_5_"  style="overflow:visible;"/>
					</clipPath>
					<g id="Mesh" class="st2">
						<line class="st3" x1="-34.4" y1="347.8" x2="-44.3" y2="385.5"/>
						<line class="st3" x1="-32.7" y1="348.3" x2="-42.8" y2="385.8"/>
						<line class="st3" x1="-31" y1="348.6" x2="-41.1" y2="386.3"/>
						<line class="st3" x1="-29.4" y1="349.1" x2="-39.4" y2="386.8"/>
						<line class="st3" x1="-27.8" y1="349.6" x2="-38" y2="387.2"/>
						<line class="st3" x1="-26.1" y1="350" x2="-36.3" y2="387.6"/>
						<line class="st3" x1="-24.6" y1="350.4" x2="-34.6" y2="388"/>
						<line class="st3" x1="-23" y1="350.9" x2="-33" y2="388.4"/>
						<line class="st3" x1="-21.3" y1="351.3" x2="-31.4" y2="388.8"/>
						<line class="st3" x1="-19.7" y1="351.7" x2="-29.8" y2="389.3"/>
						<line class="st3" x1="-18" y1="352.1" x2="-28.2" y2="389.7"/>
						<line class="st3" x1="-16.5" y1="352.5" x2="-26.6" y2="390.2"/>
						<line class="st3" x1="-14.9" y1="352.9" x2="-24.9" y2="390.5"/>
						<line class="st3" x1="-13.2" y1="353.3" x2="-23.3" y2="391"/>
						<line class="st3" x1="-11.7" y1="353.8" x2="-21.6" y2="391.5"/>
						<line class="st3" x1="-10" y1="354.3" x2="-20.1" y2="391.8"/>
						<line class="st3" x1="-8.3" y1="354.6" x2="-18.5" y2="392.3"/>
						<line class="st3" x1="-6.9" y1="355.1" x2="-16.8" y2="392.8"/>
						<line class="st3" x1="-5.2" y1="355.6" x2="-15.3" y2="393.2"/>
						<line class="st3" x1="-3.5" y1="356" x2="-13.6" y2="393.6"/>
						<line class="st3" x1="-1.9" y1="356.4" x2="-11.9" y2="394.1"/>
						<line class="st3" x1="-0.3" y1="356.9" x2="-10.5" y2="394.5"/>
						<line class="st3" x1="1.4" y1="357.3" x2="-8.8" y2="395"/>
						<line class="st3" x1="2.9" y1="357.7" x2="-7.1" y2="395.3"/>
						<line class="st3" x1="-44.4" y1="385.1" x2="-6.9" y2="395.3"/>
						<line class="st3" x1="-44.1" y1="383.4" x2="-6.5" y2="393.6"/>
						<line class="st3" x1="-43.6" y1="382" x2="-6" y2="392"/>
						<line class="st3" x1="-43.1" y1="380.3" x2="-5.7" y2="390.4"/>
						<line class="st3" x1="-42.9" y1="378.6" x2="-5.2" y2="388.7"/>
						<line class="st3" x1="-42.4" y1="377.1" x2="-4.7" y2="387"/>
						<line class="st3" x1="-41.9" y1="375.4" x2="-4.3" y2="385.6"/>
						<line class="st3" x1="-41.6" y1="373.7" x2="-3.9" y2="383.9"/>
						<line class="st3" x1="-41.1" y1="372.3" x2="-3.4" y2="382.2"/>
						<line class="st3" x1="-40.6" y1="370.6" x2="-3" y2="380.7"/>
						<line class="st3" x1="-40.2" y1="368.9" x2="-2.6" y2="379"/>
						<line class="st3" x1="-39.8" y1="367.3" x2="-2.1" y2="377.4"/>
						<line class="st3" x1="-39.3" y1="365.7" x2="-1.7" y2="375.9"/>
						<line class="st3" x1="-38.9" y1="364.1" x2="-1.2" y2="374.2"/>
						<line class="st3" x1="-38.4" y1="362.5" x2="-0.9" y2="372.5"/>
						<line class="st3" x1="-38.1" y1="360.9" x2="-0.4" y2="370.9"/>
						<line class="st3" x1="-37.6" y1="359.3" x2="0.1" y2="369.3"/>
						<line class="st3" x1="-37.1" y1="357.6" x2="0.5" y2="367.7"/>
						<line class="st3" x1="-36.8" y1="356" x2="0.9" y2="366.1"/>
						<line class="st3" x1="-36.3" y1="354.5" x2="1.4" y2="364.5"/>
						<line class="st3" x1="-35.8" y1="352.8" x2="1.8" y2="362.9"/>
						<line class="st3" x1="-35.4" y1="351.2" x2="2.2" y2="361.2"/>
						<line class="st3" x1="-35" y1="349.6" x2="2.7" y2="359.6"/>
						<line class="st3" x1="-34.5" y1="347.9" x2="3.1" y2="358.1"/>
					</g>
				</g>
			</g>
		</g>
		<g>
			<g>
				<g>
					<defs>
						<path id="SVGID_7_" d="M-9.9,383.3l-7.2,4.2c-7.3,4.2-16.7,1.7-21-5.5l-0.4-0.5c-4.2-7.3-1.7-16.7,5.5-21l7.2-4.2
							c7.3-4.2,16.7-1.7,21,5.5l0.4,0.5C0,369.6-2.6,379.1-9.9,383.3z"/>
					</defs>
					<clipPath id="SVGID_8_">
						<use xlink:href="#SVGID_7_"  style="overflow:visible;"/>
					</clipPath>
					<line id="Neck_ring_1_" class="st4" x1="-27.4" y1="357.5" x2="-11.8" y2="384.5"/>
				</g>
			</g>
		</g>
		<g>
			<g>
				<g>
					<defs>
						<path id="SVGID_9_" d="M-9.9,383.3l-7.2,4.2c-7.3,4.2-16.7,1.7-21-5.5l-0.4-0.5c-4.2-7.3-1.7-16.7,5.5-21l7.2-4.2
							c7.3-4.2,16.7-1.7,21,5.5l0.4,0.5C0,369.6-2.6,379.1-9.9,383.3z"/>
					</defs>
					<clipPath id="SVGID_10_">
						<use xlink:href="#SVGID_9_"  style="overflow:visible;"/>
					</clipPath>
					<line id="Neck_ring_2_" class="st5" x1="-26.2" y1="356.8" x2="-10.6" y2="383.8"/>
				</g>
			</g>
		</g>
		<g>
			<path id="SVGID_1_" class="st6" d="M-9.9,383.3l-7.2,4.2c-7.3,4.2-16.7,1.7-21-5.5l-0.4-0.5c-4.2-7.3-1.7-16.7,5.5-21l7.2-4.2
				c7.3-4.2,16.7-1.7,21,5.5l0.4,0.5C0,369.6-2.6,379.1-9.9,383.3z"/>
		</g>
	</g>
	<path id="cord_relief_1_" class="st7" d="M-104.1,422.1c2.8-3.8,5-5.2,6-5.6"/>
	<path id="Switch" class="st8" d="M-52.7,378.3l-4.6,3.4c-0.5,0.4-1.2,0.2-1.6-0.2l0,0c-0.4-0.5-0.2-1.2,0.2-1.6l4.6-3.4
		c0.5-0.4,1.2-0.2,1.6,0.2l0,0C-52.1,377.2-52.2,377.9-52.7,378.3z"/>
	<g id="Microphone_Body">
		<g>
			<polygon id="SVGID_3_" class="st9" points="-39.6,366.9 -100.7,412.1 -96.1,420.5 -26.1,390.3 			"/>
		</g>
		<g>
			<g>
				<g>
					<defs>
						<polygon id="SVGID_11_" points="-39.6,366.9 -100.7,412.1 -96.1,420.5 -26.1,390.3 						"/>
					</defs>
					<clipPath id="SVGID_12_">
						<use xlink:href="#SVGID_11_"  style="overflow:visible;"/>
					</clipPath>
					<line id="Neck_ring" class="st10" x1="-39.6" y1="366.6" x2="-26.1" y2="390.4"/>
				</g>
			</g>
		</g>
		<g>
			<g>
				<g>
					<defs>
						<polygon id="SVGID_13_" points="-39.6,366.9 -100.7,412.1 -96.1,420.5 -26.1,390.3 						"/>
					</defs>
					<clipPath id="SVGID_14_">
						<use xlink:href="#SVGID_13_"  style="overflow:visible;"/>
					</clipPath>
					<polyline id="Neck_ring_3_" class="st11" points="-44.8,368.8 -37.2,381.9 -30.2,394.1 					"/>
				</g>
			</g>
		</g>
		<g>
			<g>
				<g>
					<defs>
						<polygon id="SVGID_15_" points="-39.6,366.9 -100.7,412.1 -96.1,420.5 -26.1,390.3 						"/>
					</defs>
					<clipPath id="SVGID_16_">
						<use xlink:href="#SVGID_15_"  style="overflow:visible;"/>
					</clipPath>
					<line id="Neck_ring_4_" class="st12" x1="-43.7" y1="366.9" x2="-28.1" y2="394"/>
				</g>
			</g>
		</g>
		<g>
			<g>
				<g>
					<defs>
						<polygon id="SVGID_17_" points="-39.6,366.9 -100.7,412.1 -96.1,420.5 -26.1,390.3 						"/>
					</defs>
					<clipPath id="SVGID_18_">
						<use xlink:href="#SVGID_17_"  style="overflow:visible;"/>
					</clipPath>
					<line id="Neck_ring_5_" class="st13" x1="-99.3" y1="410.1" x2="-93.4" y2="420.3"/>
				</g>
			</g>
		</g>
		<g>
			<g>
				<g>
					<defs>
						<polygon id="SVGID_19_" points="-39.6,366.9 -100.7,412.1 -96.1,420.5 -26.1,390.3 						"/>
					</defs>
					<clipPath id="SVGID_20_">
						<use xlink:href="#SVGID_19_"  style="overflow:visible;"/>
					</clipPath>
					<line id="Neck_ring_6_" class="st14" x1="-98" y1="409.4" x2="-92.1" y2="419.4"/>
				</g>
			</g>
		</g>
		<g>
			<g>
				<g>
					<defs>
						<polygon id="SVGID_21_" points="-39.6,366.9 -100.7,412.1 -96.1,420.5 -26.1,390.3 						"/>
					</defs>
					<clipPath id="SVGID_22_">
						<use xlink:href="#SVGID_21_"  style="overflow:visible;"/>
					</clipPath>
					<polygon class="st15" points="-39.6,366.9 -100.7,412.1 -100.1,413.4 -99.4,414.5 -32,380.2 					"/>
				</g>
			</g>
		</g>
	</g>
	<path class="st16" d="M-98.1,416.4c0,0-9.6,5.3-9.6,16.7v6.6"/>
	<rect x="-65.9" y="406.1" class="st8" width="10.1" height="33.7"/>
	<polygon class="st17" points="-59.9,406.1 -65.9,406.1 -65.9,439.7 -63.5,439.7 	"/>
	<path class="st8" d="M-46.1,393.8c-0.6-1.9-0.6-1.9-2.3-4.9c-1.7-3-3.2-5.3-3.2-5.3c-1.4-1.9-4.4-2.2-6.8-0.6l-20.9,14.6
		c-2.4,1.7-2.4,4.2-1.8,6.6c0.7,1.8,0.8,2.3,1.6,3.4c0.6,1.1,1.8,2.6,1.8,2.6c1.4,1.9,1.4,1.9,2.6,2.3c1.9-0.4,27.8-11.9,29.9-13.4
		C-45,398.4-45.4,395.7-46.1,393.8z"/>
	<path class="st17" d="M-51.8,383.6c-1.4-1.9-4.4-2.2-6.8-0.6l-20.9,14.6c-2.4,1.7-2.4,4.2-1.8,6.6l0,0L-49,388
		C-50.3,385.4-51.8,383.6-51.8,383.6z"/>
	<circle class="st9" cx="-60.9" cy="406.1" r="7"/>
	<circle class="st18" cx="-60.9" cy="406.1" r="0.8"/>
	<path class="st19" d="M-66.3,405.4c0-2.8,2.2-4.9,4.9-4.9"/>
</g>
</svg>
