<?xml version="1.0" encoding="utf-8"?>
<!-- Generator: Adobe Illustrator 19.1.0, SVG Export Plug-In . SVG Version: 6.00 Build 0)  -->
<svg version="1.1" xmlns="http://www.w3.org/2000/svg" xmlns:xlink="http://www.w3.org/1999/xlink" x="0px" y="0px"
	 viewBox="0 0 250 150" style="enable-background:new 0 0 250 150;" xml:space="preserve">
<style type="text/css">
	.st0{display:none;fill:#FFFFFF;}
	.st1{fill:#90A4AE;}
	.st2{display:none;fill:#B3E5FC;}
	.st3{fill:#FFD54F;}
	.st4{fill:#E57373;}
	.st5{fill:#424242;}
	.st6{fill:#E0E0E0;}
	.st7{fill:none;stroke:#E0E0E0;stroke-width:0.5;stroke-miterlimit:10;}
	.st8{fill:none;stroke:#BDBDBD;stroke-width:0.2;stroke-linecap:round;stroke-miterlimit:10;}
	.st9{fill:none;stroke:#BDBDBD;stroke-width:0.5;stroke-linecap:round;stroke-miterlimit:10;}
	
		.st10{fill:none;stroke:#BDBDBD;stroke-width:0.5;stroke-linecap:round;stroke-miterlimit:10;stroke-dasharray:4.885359e-002,1.4656;}
	
		.st11{fill:none;stroke:#BDBDBD;stroke-width:0.5;stroke-linecap:round;stroke-miterlimit:10;stroke-dasharray:5.075225e-002,1.5226;}
	
		.st12{fill:none;stroke:#BDBDBD;stroke-width:0.5;stroke-linecap:round;stroke-miterlimit:10;stroke-dasharray:5.049922e-002,1.515;}
	
		.st13{fill:none;stroke:#BDBDBD;stroke-width:0.5;stroke-linecap:round;stroke-miterlimit:10;stroke-dasharray:5.080980e-002,1.5243;}
	
		.st14{fill:none;stroke:#BDBDBD;stroke-width:0.5;stroke-linecap:round;stroke-miterlimit:10;stroke-dasharray:4.818892e-002,1.4457;}
	.st15{fill:#332C2C;}
	.st16{fill:#FAFAFA;}
	.st17{fill:none;stroke:#FAFAFA;stroke-width:0.2;stroke-miterlimit:10;}
	.st18{fill:#9E9E9E;}
	.st19{fill:#785555;}
	.st20{fill:#BDBDBD;}
	.st21{fill:#212121;stroke:#BDBDBD;stroke-width:0.2;stroke-miterlimit:10;}
	.st22{fill:#E0E0E0;stroke:#BDBDBD;stroke-width:0.2;stroke-miterlimit:10;}
	.st23{fill:none;stroke:#BDBDBD;stroke-width:0.5;stroke-miterlimit:10;}
	.st24{fill:none;stroke:#BDBDBD;stroke-width:0.2;stroke-miterlimit:10;}
	
		.st25{fill:none;stroke:#BDBDBD;stroke-width:0.5;stroke-linecap:round;stroke-miterlimit:10;stroke-dasharray:5.402026e-002,1.6206;}
</style>
<g id="Guides">
	<rect id="XMLID_5_" x="125" y="75" class="st0" width="125" height="75"/>
</g>
<g id="Layer_3">
	<circle class="st1" cx="125" cy="75" r="74.1"/>
</g>
<g id="Layer_2">
	<rect id="base" class="st2" width="250" height="150"/>
	<ellipse class="st3" cx="175.8" cy="81.6" rx="1.4" ry="2.1"/>
	<ellipse class="st4" cx="74.2" cy="82.2" rx="1.4" ry="1.7"/>
	<ellipse class="st3" cx="74.2" cy="85.6" rx="1.4" ry="1.7"/>
	<path class="st5" d="M173.1,96.5H77.1c-0.6,0-1-0.4-1-1v-7.6c0-0.6,0.4-1,1-1h96.1c0.6,0,1,0.4,1,1v7.6
		C174.1,96.1,173.7,96.5,173.1,96.5z"/>
	<path class="st6" d="M174.4,76.9l-9.2-3l-9.5-15.4c-1.5-2.5-4.2-4.1-7.2-4.1H74.3c-0.5,0-1,0.4-1,1v37.1c0,0.5,0.4,1,1,1h11.4v0
		c1.3-3.8,4.8-6.6,9-6.6c5,0,9,3.9,9.4,8.8c0,0.5,0.5,0.9,1,0.9h42c0.3,0,0.5-0.1,0.7-0.3c1-1.1,4.6-4.8,6.1-6.2
		c1.8-1.9,4.3-3.2,7.1-3.2c3.9,0,7.3,2.4,8.7,5.9c0.2,0.4,0.5,0.6,0.9,0.6c1.1,0,3.4,0,4.7,0c0.5,0,1-0.4,1-1V79.8
		C176.3,78.5,175.6,77.4,174.4,76.9z M150.2,73.4h-12.4V60.8h10.8c0.9,0,1.6,0.7,1.6,1.6V73.4z M161,73.9h-6.2
		c-0.4,0-0.6-0.3-0.6-0.6l0-11c0-0.7,0.9-0.9,1.2-0.3l6.2,11C161.8,73.4,161.5,73.9,161,73.9z"/>
	<path class="st7" d="M85.4,94.3"/>
	<path class="st8" d="M148.6,59.1H136v35.2h10.9l5.1-4.8V62.4C152,60.6,150.4,59.1,148.6,59.1z M150.2,73.4h-12.4V60.8h10.8
		c0.9,0,1.6,0.7,1.6,1.6V73.4z"/>
	<path class="st8" d="M148.6,60.8h-10.8v12.6h12.4v-11C150.2,61.5,149.5,60.8,148.6,60.8z"/>
	<g>
		<g>
			<line class="st9" x1="105.3" y1="94.3" x2="105.3" y2="94.3"/>
			<line class="st10" x1="106.8" y1="94.3" x2="131.8" y2="94.3"/>
			<polyline class="st9" points="132.5,94.3 132.5,94.3 132.5,94.3 			"/>
			<line class="st11" x1="132.5" y1="92.8" x2="132.5" y2="58.9"/>
			<polyline class="st9" points="132.5,58.2 132.5,58.1 132.5,58.1 			"/>
			<line class="st12" x1="131" y1="58.1" x2="77" y2="58.1"/>
			<polyline class="st9" points="76.2,58.1 76.2,58.1 76.2,58.2 			"/>
			<line class="st13" x1="76.2" y1="59.7" x2="76.2" y2="90.4"/>
			<polyline class="st9" points="76.2,91.2 76.2,91.2 76.2,91.2 			"/>
			<line class="st14" x1="77.7" y1="91.2" x2="84.4" y2="91.2"/>
			<line class="st9" x1="85.1" y1="91.2" x2="85.1" y2="91.2"/>
		</g>
	</g>
	<circle class="st15" cx="94.7" cy="96.5" r="8.2"/>
	<circle class="st16" cx="94.7" cy="96.5" r="4.2"/>
	<circle class="st17" cx="94.7" cy="96.5" r="5.2"/>
	<g id="Aggieland_x2C__its_spatial">
		<g id="T_3_">
			<path id="XMLID_248_" class="st18" d="M116.9,76.7v3.4c0,0.7-0.6,1.2-1.2,1.2c0,0-0.1,0-0.1,0v-4.6H116.9z"/>
			<rect id="XMLID_247_" x="114.4" y="76.7" class="st19" width="3.6" height="1.3"/>
		</g>
		<g id="T_2_">
			<path id="XMLID_237_" class="st18" d="M96.9,76.7v3.4c0,0.7-0.6,1.2-1.2,1.2c0,0-0.1,0-0.1,0v-4.6H96.9z"/>
			<rect id="XMLID_236_" x="94.4" y="76.7" class="st19" width="3.6" height="1.3"/>
		</g>
		<g id="S_6_">
			<path id="XMLID_241_" class="st19" d="M106.5,76.7c-0.9,0-1.6,0.7-1.6,1.6c0,0.5,0.2,0.9,0.5,1.2l2.3-2.3
				C107.4,76.9,107,76.7,106.5,76.7z"/>
			<path id="XMLID_240_" class="st18" d="M105.2,81.3c0.9,0,1.6-0.7,1.6-1.6c0-0.5-0.2-0.9-0.5-1.2l-2.3,2.3
				C104.4,81.1,104.8,81.3,105.2,81.3z"/>
		</g>
		<g id="S_5_">
			<path id="XMLID_239_" class="st19" d="M101.5,76.7c-0.9,0-1.6,0.7-1.6,1.6c0,0.5,0.2,0.9,0.5,1.2l2.3-2.3
				C102.3,76.9,101.9,76.7,101.5,76.7z"/>
			<path id="XMLID_238_" class="st18" d="M100.2,81.3c0.9,0,1.6-0.7,1.6-1.6c0-0.5-0.2-0.9-0.5-1.2L99,80.8
				C99.3,81.1,99.7,81.3,100.2,81.3z"/>
		</g>
		<g id="P-3_2_">
			<circle id="XMLID_244_" class="st18" cx="109.6" cy="78" r="1.3"/>
			<path id="XMLID_243_" class="st19" d="M108.3,81.3L108.3,81.3C108.4,81.3,108.3,81.3,108.3,81.3L108.3,81.3z"/>
			<path id="XMLID_242_" class="st19" d="M109.6,76.7v3.4c0,0.7-0.6,1.2-1.2,1.2h0c0,0-0.1,0-0.1,0v-4.6H109.6z"/>
		</g>
		<g id="N-2_2_">
			<rect id="XMLID_230_" x="113.3" y="68.5" class="st18" width="1.3" height="4.6"/>
			<g id="M_8_">
				<polygon id="XMLID_229_" class="st19" points="111.1,73.1 114.7,73.1 111.1,68.5 				"/>
			</g>
		</g>
		<g id="L-2_3_">
			<rect id="XMLID_256_" x="125" y="79.9" class="st18" width="3.1" height="1.3"/>
			<polygon id="XMLID_255_" class="st19" points="126.3,76.7 125,76.7 125,81.3 125,81.3 126.3,81.3 			"/>
		</g>
		<g id="L-2_2_">
			<rect id="XMLID_204_" x="103.3" y="71.8" class="st18" width="3.1" height="1.3"/>
			<polygon id="XMLID_123_" class="st19" points="104.6,68.5 103.3,68.5 103.3,73.1 103.3,73.1 104.6,73.1 			"/>
		</g>
		<g id="I-2_6_">
			<path id="XMLID_250_" class="st19" d="M118.6,81.3L118.6,81.3L118.6,81.3C118.7,81.3,118.6,81.3,118.6,81.3L118.6,81.3z"/>
			<path id="XMLID_249_" class="st19" d="M119.9,80L119.9,80c0,0.4-0.2,0.7-0.4,0.9c-0.2,0.2-0.5,0.3-0.9,0.3c0,0-0.1,0-0.1,0v-4.6
				h1.3L119.9,80z"/>
		</g>
		<g id="I-2_5_">
			<path id="XMLID_235_" class="st19" d="M92.5,81.3L92.5,81.3L92.5,81.3C92.5,81.3,92.5,81.3,92.5,81.3L92.5,81.3z"/>
			<path id="XMLID_234_" class="st19" d="M93.8,80L93.8,80c0,0.4-0.2,0.7-0.4,0.9s-0.5,0.3-0.9,0.3c0,0-0.1,0-0.1,0v-4.6h1.3
				L93.8,80z"/>
		</g>
		<g id="I-2_4_">
			<path id="XMLID_118_" class="st19" d="M97.6,73.1L97.6,73.1L97.6,73.1C97.6,73.1,97.6,73.1,97.6,73.1L97.6,73.1z"/>
			<path id="XMLID_117_" class="st19" d="M98.9,71.9L98.9,71.9c0,0.4-0.2,0.7-0.4,0.9c-0.2,0.2-0.5,0.3-0.9,0.3c0,0-0.1,0-0.1,0
				v-4.6h1.3L98.9,71.9z"/>
		</g>
		<g id="G-4_4_">
			<path id="XMLID_113_" class="st18" d="M92.9,71.8h-3.5c0.2,0.8,0.9,1.3,1.8,1.3S92.7,72.6,92.9,71.8z"/>
			<path id="XMLID_111_" class="st18" d="M91.7,70.5L91.7,70.5l-0.1,1.3h1.2c0,0,0-0.1,0-0.1C92.9,71.1,92.4,70.5,91.7,70.5z"/>
			<path id="XMLID_12_" class="st19" d="M89.3,70.4v1c0,0.8,0.6,1.5,1.3,1.8v-3.2h2.2c-0.2-0.8-0.9-1.3-1.8-1.3
				c-0.2,0-0.3,0-0.5,0.1c0,0-0.6,0.1-1,0.6C89.3,69.8,89.3,70.4,89.3,70.4z"/>
		</g>
		<g id="G-4_5_">
			<path id="XMLID_116_" class="st18" d="M97.1,71.8h-3.5c0.2,0.8,0.9,1.3,1.8,1.3S96.9,72.5,97.1,71.8z"/>
			<path id="XMLID_114_" class="st18" d="M95.9,70.4L95.9,70.4l-0.1,1.3h1.2c0,0,0-0.1,0-0.1C97.1,71,96.5,70.5,95.9,70.4z"/>
			<path id="XMLID_8_" class="st19" d="M93.5,70.3v1c0,0.8,0.6,1.5,1.3,1.8v-3.2h2.2c-0.2-0.8-0.9-1.3-1.8-1.3c-0.2,0-0.3,0-0.5,0.1
				c0,0-0.6,0.1-1,0.6C93.5,69.8,93.5,70.3,93.5,70.3z"/>
		</g>
		<g id="E-2_2_">
			<rect id="XMLID_122_" x="99.6" y="71.8" class="st18" width="3.1" height="1.3"/>
			<rect id="XMLID_121_" x="99.6" y="68.5" class="st18" width="3.1" height="1.3"/>
			<rect id="XMLID_120_" x="99.6" y="70.3" class="st18" width="2" height="1"/>
			<polygon id="XMLID_119_" class="st19" points="100.9,68.5 99.6,68.5 99.6,73.1 99.6,73.1 100.9,73.1 			"/>
		</g>
		<g id="B_6_">
			<g id="XMLID_232_">
				<path id="XMLID_233_" class="st18" d="M116.8,68.5v4.6h0h0c1.3,0,2.3-1,2.3-2.3S118.1,68.5,116.8,68.5z"/>
			</g>
			<g id="L_7_">
				<rect id="XMLID_231_" x="115.5" y="68.5" class="st19" width="1.3" height="4.6"/>
			</g>
		</g>
		<g id="A_7_">
			<polygon id="XMLID_254_" class="st19" points="122.4,76.7 121.6,78.4 123.2,78.4 			"/>
			<polygon id="XMLID_251_" class="st18" points="120.4,81.3 124.4,81.3 123.4,79.1 121.4,79.1 			"/>
		</g>
		<g id="A_6_">
			<polygon id="XMLID_246_" class="st19" points="112.9,76.7 112.2,78.4 113.7,78.4 			"/>
			<polygon id="XMLID_245_" class="st18" points="111,81.3 114.9,81.3 114,79.1 111.9,79.1 			"/>
		</g>
		<g id="A_5_">
			<polygon id="XMLID_228_" class="st19" points="108.7,68.5 107.9,70.3 109.4,70.3 			"/>
			<polygon id="XMLID_222_" class="st18" points="106.7,73.1 110.7,73.1 109.7,71 107.6,71 			"/>
		</g>
		<g id="A_4_">
			<polygon id="XMLID_110_" class="st19" points="87,68.6 86.2,70.4 87.7,70.4 			"/>
			<polygon id="XMLID_57_" class="st18" points="85,73.2 88.9,73.2 88,71 85.9,71 			"/>
		</g>
		<polygon id="XMLID_257_" class="st19" points="99.3,77.4 99.7,76.4 98.8,76.4 		"/>
	</g>
	<path class="st19" d="M152.1,55.1c-1.6-0.8-3.2-0.8-3.2-0.8l-74.4,0c-0.6,0-1,0.5-1,1v1.1h80.8C154.2,56.5,153.2,55.6,152.1,55.1z"
		/>
	<path class="st20" d="M138.5,78.2h-0.2c-0.1,0-0.2-0.1-0.2-0.2v-2.5c0-0.1,0.1-0.2,0.2-0.2h0.2c0.1,0,0.2,0.1,0.2,0.2V78
		C138.7,78.1,138.7,78.2,138.5,78.2z"/>
	<path class="st20" d="M152,66.2h-0.1c-0.1,0-0.1-0.1-0.1-0.1v-2.7c0-0.1,0.1-0.1,0.1-0.1h0.1c0.1,0,0.1,0.1,0.1,0.1v2.7
		C152.2,66.1,152.1,66.2,152,66.2z"/>
	<path class="st20" d="M152,77.3h-0.1c-0.1,0-0.1-0.1-0.1-0.1v-2.7c0-0.1,0.1-0.1,0.1-0.1h0.1c0.1,0,0.1,0.1,0.1,0.1v2.7
		C152.2,77.3,152.1,77.3,152,77.3z"/>
	<path class="st20" d="M152,88.8h-0.1c-0.1,0-0.1-0.1-0.1-0.1v-2.7c0-0.1,0.1-0.1,0.1-0.1h0.1c0.1,0,0.1,0.1,0.1,0.1v2.7
		C152.2,88.7,152.1,88.8,152,88.8z"/>
	<line class="st21" x1="134.4" y1="96.5" x2="134.4" y2="56.5"/>
	<circle class="st4" cx="77.9" cy="89.8" r="0.7"/>
	<circle class="st4" cx="174.3" cy="89.8" r="0.7"/>
	<path class="st4" d="M79.5,60h-1.9c-0.2,0-0.3-0.1-0.3-0.3v-0.3c0-0.2,0.1-0.3,0.3-0.3h1.9c0.2,0,0.3,0.1,0.3,0.3v0.3
		C79.7,59.9,79.6,60,79.5,60z"/>
	<path class="st3" d="M131.1,60h-1.9c-0.2,0-0.3-0.1-0.3-0.3v-0.3c0-0.2,0.1-0.3,0.3-0.3h1.9c0.2,0,0.3,0.1,0.3,0.3v0.3
		C131.4,59.9,131.3,60,131.1,60z"/>
	<circle class="st6" cx="94.7" cy="96.5" r="1.1"/>
	<circle class="st6" cx="97.4" cy="95.6" r="0.3"/>
	<circle class="st6" cx="94.7" cy="93.7" r="0.3"/>
	<circle class="st6" cx="96.4" cy="98.8" r="0.3"/>
	<circle class="st6" cx="93" cy="98.8" r="0.3"/>
	<circle class="st6" cx="92" cy="95.6" r="0.3"/>
	<circle class="st15" cx="161" cy="96.5" r="8.2"/>
	<circle class="st16" cx="161" cy="96.5" r="4.2"/>
	<circle class="st17" cx="161" cy="96.5" r="5.2"/>
	<circle class="st6" cx="161" cy="96.5" r="1.1"/>
	<circle class="st6" cx="163.6" cy="95.6" r="0.3"/>
	<circle class="st6" cx="161" cy="93.7" r="0.3"/>
	<circle class="st6" cx="162.6" cy="98.8" r="0.3"/>
	<circle class="st6" cx="159.3" cy="98.8" r="0.3"/>
	<circle class="st6" cx="158.3" cy="95.6" r="0.3"/>
	<rect x="106.3" y="53" class="st22" width="18.7" height="1.4"/>
	<path class="st22" d="M116.4,43.6h-0.5c-0.2,0-0.4,0.2-0.4,0.4v7.2c0,0.2,0.2,0.4,0.4,0.4h0.5c0.2,0,0.4-0.2,0.4-0.4V44
		C116.8,43.8,116.6,43.6,116.4,43.6z"/>
	<path class="st22" d="M120,46.8l-0.4-0.4c-0.2-0.2-0.4-0.2-0.6,0l-4.1,4.1c-0.2,0.2-0.2,0.4,0,0.6l0.4,0.4c0.2,0.2,0.4,0.2,0.6,0
		l4.1-4.1C120.2,47.2,120.2,47,120,46.8z"/>
	<rect x="109.6" y="49.9" class="st22" width="12.1" height="3.1"/>
	<path class="st22" d="M115.8,45.7c4.2,4.2,10.3,5.3,15.5,3.2l-18.7-18.7C110.6,35.4,111.7,41.5,115.8,45.7z"/>
	<path class="st23" d="M122.3,36.3c1.6,0,2.9,1.3,2.9,2.9"/>
	<path class="st23" d="M121.7,30.1c5.5,0,10,4.5,10,10"/>
	<path class="st23" d="M121.5,21.6c10.8,0,19.5,8.7,19.5,19.5"/>
	<path class="st24" d="M154.1,73.2l0-10.9c0-0.7,0.9-0.9,1.2-0.4l6.2,10.9c0.3,0.4,0,1-0.6,1h-6.2C154.4,73.9,154.1,73.6,154.1,73.2
		z"/>
	<g>
		<g>
			<line class="st9" x1="110.7" y1="51.5" x2="110.7" y2="51.5"/>
			<line class="st25" x1="112.3" y1="51.5" x2="119.9" y2="51.5"/>
			<line class="st9" x1="120.7" y1="51.5" x2="120.7" y2="51.5"/>
		</g>
	</g>
</g>
</svg>
