<?xml version="1.0" encoding="utf-8"?>
<!-- Generator: Adobe Illustrator 23.1.0, SVG Export Plug-In . SVG Version: 6.00 Build 0)  -->
<svg version="1.1" id="Layer_1" xmlns="http://www.w3.org/2000/svg" xmlns:xlink="http://www.w3.org/1999/xlink" x="0px" y="0px"
	 viewBox="0 0 169.5 86.2" style="enable-background:new 0 0 169.5 86.2;" xml:space="preserve">
<style type="text/css">
	.st0{fill:#500000;}
	.st1{fill:#424242;}
	.st2{fill:none;}
</style>
<g>
	<g>
		<g>
			<path class="st0" d="M14.8,45.7c-1.6,0-3-0.2-4.2-0.6c-1.2-0.4-2.2-0.9-2.9-1.6C7,42.9,6.4,42.1,5.9,41c-0.4-1-0.8-2.1-0.9-3.3
				c-0.2-1.2-0.3-2.5-0.3-4H12c0,1.1,0,2.1,0.1,2.8s0.2,1.4,0.4,2c0.2,0.6,0.5,1,1,1.3c0.4,0.3,0.9,0.4,1.6,0.4c0,0,0.1,0,0.1,0
				c0.4,0,0.7-0.1,1-0.2c0.3-0.1,0.5-0.3,0.7-0.5c0.2-0.2,0.4-0.5,0.5-0.7c0.1-0.2,0.3-0.6,0.4-1c0.1-0.4,0.2-0.8,0.2-1.2
				c0.1-0.3,0.1-0.8,0.1-1.4c0-0.6,0-1.2,0-1.6c0-0.4,0-1,0-1.8c0-0.7,0-1.4,0-1.9c0-0.5-0.1-1.1-0.2-1.7c-0.1-0.6-0.2-1.1-0.3-1.4
				c-0.2-0.4-0.4-0.7-0.6-1s-0.5-0.5-0.9-0.7c-0.4-0.2-0.8-0.2-1.3-0.2c-1.8,0-2.9,1.2-3.3,3.5H5.2L5.6,6h18.1v6.5H11.8L11.4,21
				c0.4-0.5,1.1-0.9,2-1.2c0.9-0.3,1.9-0.6,3-0.6c0.3,0,0.5,0,0.8,0c2.6,0,4.5,1,5.9,2.9c1.5,2.2,2.3,5.2,2.3,9.3
				c0,1.5-0.1,2.8-0.2,3.9c-0.1,1.2-0.3,2.3-0.6,3.4c-0.3,1.1-0.7,2.1-1.2,2.9c-0.5,0.8-1.1,1.5-1.9,2.2s-1.7,1.1-2.8,1.4
				C17.6,45.5,16.3,45.7,14.8,45.7z"/>
			<path class="st0" d="M42.1,45.1V6h12.2C61,6,64.4,9.8,64.4,17.2c0,2-0.3,3.8-0.8,5.2c-0.5,1.4-1.3,2.6-2.3,3.4
				c-1,0.8-2.1,1.4-3.4,1.7c-1.3,0.4-2.7,0.5-4.4,0.5H50v17H42.1z M50,22.5h2.5c1.8,0,2.9-0.4,3.5-1.2c0.6-0.8,0.9-2.2,0.9-4.2
				c0-1,0-1.8-0.1-2.4c-0.1-0.6-0.3-1.1-0.6-1.7c-0.3-0.5-0.7-0.9-1.3-1.1c-0.6-0.2-1.4-0.3-2.4-0.3H50V22.5z"/>
			<path class="st0" d="M72.1,45.1V11.9h-6.2V6h20.3v5.9H80v33.2H72.1z"/>
			<path class="st0" d="M99.5,45.6c-3.6,0-6.3-1-8.1-3c-1.8-2-2.8-5.1-2.9-9.2l6.9-1.2c0,2.4,0.4,4.3,1,5.5c0.6,1.2,1.6,1.8,2.9,1.8
				c0.9,0,1.6-0.3,2-0.9c0.4-0.6,0.6-1.4,0.6-2.3c0-1.5-0.3-2.8-1-3.9c-0.7-1-1.7-2.2-3.2-3.5l-4.2-3.6c-1.1-0.9-1.9-1.8-2.6-2.6
				s-1.2-1.8-1.6-3.1c-0.4-1.2-0.7-2.6-0.7-4.2c0-3.2,0.9-5.6,2.8-7.3c1.9-1.7,4.4-2.6,7.7-2.6c1.1,0,2.1,0.1,3,0.3
				c0.9,0.2,1.7,0.5,2.3,0.9c0.7,0.4,1.2,0.8,1.7,1.4c0.5,0.6,0.9,1.1,1.2,1.8c0.3,0.6,0.6,1.3,0.8,2c0.2,0.8,0.4,1.5,0.5,2.2
				c0.1,0.7,0.2,1.4,0.2,2.2l-6.8,1.1c0-0.8-0.1-1.5-0.1-2s-0.1-1.1-0.3-1.7c-0.1-0.6-0.3-1-0.5-1.3s-0.5-0.6-0.9-0.8
				c-0.4-0.2-0.8-0.3-1.3-0.3c-0.9,0-1.6,0.4-2,1c-0.5,0.6-0.7,1.4-0.7,2.3c0,0.7,0.1,1.3,0.2,1.9c0.2,0.6,0.4,1.1,0.8,1.6
				c0.4,0.5,0.7,0.9,1,1.2c0.3,0.3,0.8,0.7,1.3,1.3l4.1,3.6c0.9,0.8,1.6,1.5,2.3,2.3c0.7,0.7,1.3,1.6,1.8,2.5c0.6,0.9,1,2,1.3,3.1
				c0.3,1.1,0.5,2.3,0.5,3.6c0,2.8-0.9,5.2-2.8,7C104.9,44.7,102.5,45.6,99.5,45.6z"/>
		</g>
		<g>
			<path class="st1" d="M132.7,28.3V16.6h3.7c2,0,3.1,1.1,3.1,3.4c0,0.6-0.1,1.1-0.2,1.6s-0.4,0.8-0.7,1c-0.3,0.2-0.6,0.4-1,0.5
				c-0.4,0.1-0.8,0.2-1.3,0.2h-1.1v5.1H132.7z M135.1,21.6h0.8c0.5,0,0.9-0.1,1.1-0.4s0.3-0.7,0.3-1.3c0-0.3,0-0.5,0-0.7
				c0-0.2-0.1-0.3-0.2-0.5c-0.1-0.2-0.2-0.3-0.4-0.3c-0.2-0.1-0.4-0.1-0.7-0.1h-0.8V21.6z"/>
			<path class="st1" d="M140.6,28.3V16.6h5.1v1.7H143v3.1h2.1V23H143v3.7h2.7v1.6H140.6z"/>
			<path class="st1" d="M147,28.3V16.6h3c0.6,0,1.2,0,1.6,0.1c0.4,0.1,0.8,0.3,1.2,0.5c0.3,0.2,0.6,0.6,0.8,1
				c0.2,0.4,0.3,0.9,0.3,1.5c0,0.8-0.1,1.4-0.3,1.8c-0.2,0.5-0.6,0.8-1.1,1.1l1.6,5.7h-2.4l-1.3-5.3h-0.8v5.3H147z M149.3,21.6h0.6
				c0.6,0,1-0.1,1.2-0.4c0.2-0.3,0.4-0.7,0.4-1.3c0-0.6-0.1-1-0.3-1.3s-0.6-0.4-1.1-0.4h-0.7V21.6z"/>
			<path class="st1" d="M119.4,40.9V29.2h5v1.6h-2.6v3.2h2.1v1.7h-2.1v5.3H119.4z"/>
			<path class="st1" d="M125.5,40.9V29.2h5.1v1.7h-2.7v3.1h2.1v1.7h-2.1v3.7h2.7v1.6H125.5z"/>
			<path class="st1" d="M131.3,40.9l2.3-11.7h2.6l2.3,11.7h-2.2l-0.4-2.6H134l-0.4,2.6H131.3z M134.2,36.8h1.4l-0.7-4.7L134.2,36.8z
				"/>
			<path class="st1" d="M140.4,40.9v-10h-1.9v-1.8h6.1v1.8h-1.8v10H140.4z"/>
			<path class="st1" d="M148.9,41c-0.7,0-1.2-0.1-1.6-0.3c-0.4-0.2-0.8-0.4-1-0.8c-0.3-0.4-0.4-0.8-0.5-1.2s-0.2-1-0.2-1.7v-7.9h2.3
				v8.2c0,0.2,0,0.4,0,0.6c0,0.2,0,0.3,0.1,0.5c0,0.2,0.1,0.3,0.2,0.4c0.1,0.1,0.2,0.2,0.3,0.3c0.1,0.1,0.3,0.1,0.5,0.1
				s0.3,0,0.5-0.1c0.1-0.1,0.2-0.2,0.3-0.3c0.1-0.1,0.1-0.3,0.2-0.4c0-0.2,0.1-0.3,0.1-0.5c0-0.2,0-0.3,0-0.6v-8.2h2.3v7.9
				c0,0.7-0.1,1.2-0.2,1.7s-0.3,0.9-0.5,1.2c-0.2,0.4-0.6,0.6-1,0.8C150.1,40.9,149.5,41,148.9,41z"/>
			<path class="st1" d="M153.9,40.9V29.2h3c0.6,0,1.2,0,1.6,0.1c0.4,0.1,0.8,0.3,1.2,0.5c0.3,0.2,0.6,0.6,0.8,1
				c0.2,0.4,0.3,0.9,0.3,1.5c0,0.8-0.1,1.4-0.3,1.8c-0.2,0.5-0.6,0.8-1.1,1.1l1.6,5.7h-2.4l-1.3-5.3h-0.8v5.3H153.9z M156.3,34.1
				h0.6c0.6,0,1-0.1,1.2-0.4c0.2-0.3,0.4-0.7,0.4-1.3c0-0.6-0.1-1-0.3-1.3s-0.6-0.4-1.1-0.4h-0.7V34.1z"/>
			<path class="st1" d="M162.3,40.9V29.2h5.1v1.7h-2.7v3.1h2.1v1.7h-2.1v3.7h2.7v1.6H162.3z"/>
		</g>
	</g>
	<g>
		<rect x="2.3" y="53.9" class="st2" width="163.5" height="30.7"/>
		<path class="st1" d="M27,63.4v-7.9h1.3v7.9H27z"/>
		<path class="st1" d="M33.3,58.4h-1.5v5h-1.3v-5h-1v-0.6l1-0.4V57c0-0.7,0.2-1.2,0.5-1.6c0.3-0.3,0.8-0.5,1.5-0.5
			c0.4,0,0.9,0.1,1.3,0.2l-0.3,1c-0.3-0.1-0.6-0.2-0.9-0.2c-0.3,0-0.5,0.1-0.6,0.3s-0.2,0.4-0.2,0.8v0.4h1.5V58.4z"/>
		<path class="st1" d="M41.2,61.7c0,0.6-0.2,1-0.6,1.3c-0.4,0.3-1,0.5-1.8,0.5c-0.8,0-1.4-0.1-1.9-0.4V62c0.7,0.3,1.4,0.5,2,0.5
			c0.8,0,1.2-0.2,1.2-0.7c0-0.2,0-0.3-0.1-0.4c-0.1-0.1-0.2-0.2-0.4-0.3c-0.2-0.1-0.5-0.2-0.8-0.4c-0.7-0.3-1.2-0.5-1.4-0.8
			c-0.2-0.3-0.4-0.6-0.4-1c0-0.5,0.2-0.9,0.6-1.2c0.4-0.3,1-0.4,1.7-0.4c0.7,0,1.4,0.1,2,0.4l-0.4,1c-0.6-0.3-1.2-0.4-1.6-0.4
			c-0.7,0-1,0.2-1,0.6c0,0.2,0.1,0.3,0.3,0.5c0.2,0.1,0.6,0.3,1.1,0.5c0.5,0.2,0.9,0.4,1.1,0.5c0.2,0.2,0.4,0.3,0.5,0.5
			C41.2,61.1,41.2,61.4,41.2,61.7z"/>
		<path class="st1" d="M42.5,55.8c0-0.2,0.1-0.4,0.2-0.5c0.1-0.1,0.3-0.2,0.5-0.2c0.2,0,0.4,0.1,0.5,0.2c0.1,0.1,0.2,0.3,0.2,0.5
			c0,0.2-0.1,0.4-0.2,0.5c-0.1,0.1-0.3,0.2-0.5,0.2c-0.2,0-0.4-0.1-0.5-0.2C42.6,56.2,42.5,56,42.5,55.8z M43.9,63.4h-1.3v-6h1.3
			V63.4z"/>
		<path class="st1" d="M50.8,57.4v0.7l-1,0.2c0.1,0.1,0.2,0.3,0.2,0.5c0.1,0.2,0.1,0.4,0.1,0.6c0,0.6-0.2,1.1-0.6,1.5
			c-0.4,0.4-1,0.5-1.8,0.5c-0.2,0-0.4,0-0.5,0c-0.3,0.2-0.4,0.4-0.4,0.6c0,0.1,0.1,0.2,0.2,0.3s0.4,0.1,0.7,0.1h1
			c0.7,0,1.2,0.1,1.5,0.4c0.3,0.3,0.5,0.7,0.5,1.2c0,0.7-0.3,1.2-0.8,1.6s-1.4,0.6-2.4,0.6c-0.8,0-1.4-0.1-1.9-0.4
			c-0.4-0.3-0.6-0.7-0.6-1.2c0-0.4,0.1-0.7,0.3-0.9c0.2-0.3,0.6-0.4,1-0.5c-0.2-0.1-0.3-0.2-0.4-0.3c-0.1-0.2-0.2-0.3-0.2-0.5
			c0-0.2,0.1-0.4,0.2-0.6c0.1-0.2,0.3-0.3,0.6-0.5c-0.3-0.1-0.6-0.4-0.8-0.7c-0.2-0.3-0.3-0.7-0.3-1.1c0-0.6,0.2-1.2,0.6-1.5
			s1-0.5,1.8-0.5c0.2,0,0.3,0,0.5,0c0.2,0,0.3,0,0.4,0.1H50.8z M46,64.3c0,0.3,0.1,0.5,0.4,0.6c0.2,0.1,0.6,0.2,1,0.2
			c0.7,0,1.2-0.1,1.5-0.3s0.5-0.5,0.5-0.8c0-0.3-0.1-0.4-0.3-0.6s-0.5-0.2-1-0.2h-1c-0.4,0-0.7,0.1-0.9,0.3C46.2,63.8,46,64,46,64.3
			z M46.6,59.3c0,0.4,0.1,0.7,0.3,0.9c0.2,0.2,0.5,0.3,0.8,0.3c0.7,0,1.1-0.4,1.1-1.2c0-0.4-0.1-0.7-0.3-0.9
			c-0.2-0.2-0.5-0.3-0.8-0.3c-0.4,0-0.6,0.1-0.8,0.3C46.7,58.6,46.6,58.9,46.6,59.3z"/>
		<path class="st1" d="M57.1,63.4h-1.3v-3.7c0-0.5-0.1-0.8-0.3-1c-0.2-0.2-0.5-0.3-0.9-0.3c-0.5,0-0.9,0.2-1.2,0.5
			c-0.2,0.3-0.4,0.8-0.4,1.6v3h-1.3v-6h1l0.2,0.8h0.1c0.2-0.3,0.4-0.5,0.8-0.7c0.3-0.2,0.7-0.2,1.1-0.2c1.4,0,2.2,0.7,2.2,2.2V63.4z
			"/>
		<path class="st1" d="M64,62.5c0.3,0,0.6,0,0.9-0.1v1c-0.1,0.1-0.3,0.1-0.5,0.2c-0.2,0-0.5,0.1-0.7,0.1c-1.2,0-1.8-0.6-1.8-1.9
			v-3.2h-0.8v-0.6l0.9-0.5l0.4-1.3h0.8v1.3h1.7v1h-1.7v3.2c0,0.3,0.1,0.5,0.2,0.7C63.6,62.4,63.8,62.5,64,62.5z"/>
		<path class="st1" d="M65.2,57.4h1.4l1.2,3.4c0.2,0.5,0.3,0.9,0.4,1.4h0c0-0.2,0.1-0.4,0.2-0.7c0.1-0.3,0.5-1.6,1.4-4h1.4l-2.6,6.8
			c-0.5,1.2-1.2,1.9-2.3,1.9c-0.3,0-0.6,0-0.8-0.1v-1c0.2,0,0.4,0.1,0.7,0.1c0.6,0,1-0.4,1.3-1.1l0.2-0.6L65.2,57.4z"/>
		<path class="st1" d="M75.1,63.5c-0.8,0-1.3-0.3-1.8-0.8h-0.1c0.1,0.5,0.1,0.8,0.1,0.9v2.5h-1.3v-8.7h1c0,0.1,0.1,0.4,0.2,0.8h0.1
			c0.4-0.6,1-0.9,1.8-0.9c0.7,0,1.3,0.3,1.7,0.8c0.4,0.5,0.6,1.3,0.6,2.3c0,1-0.2,1.7-0.6,2.3S75.9,63.5,75.1,63.5z M74.8,58.3
			c-0.5,0-0.9,0.1-1.1,0.4c-0.2,0.3-0.3,0.8-0.3,1.4v0.2c0,0.7,0.1,1.3,0.3,1.6c0.2,0.3,0.6,0.5,1.1,0.5c0.4,0,0.8-0.2,1-0.5
			c0.2-0.4,0.4-0.9,0.4-1.5c0-0.7-0.1-1.2-0.4-1.5C75.6,58.5,75.3,58.3,74.8,58.3z"/>
		<path class="st1" d="M81.6,63.5c-0.9,0-1.7-0.3-2.2-0.8c-0.5-0.5-0.8-1.3-0.8-2.2c0-1,0.2-1.7,0.7-2.3c0.5-0.6,1.2-0.8,2-0.8
			c0.8,0,1.4,0.2,1.9,0.7c0.5,0.5,0.7,1.1,0.7,2v0.7h-4c0,0.6,0.2,1,0.5,1.3s0.7,0.5,1.3,0.5c0.4,0,0.7,0,1-0.1s0.6-0.2,1-0.3v1
			c-0.3,0.1-0.6,0.3-0.9,0.3C82.4,63.5,82,63.5,81.6,63.5z M81.4,58.3c-0.4,0-0.7,0.1-1,0.4c-0.2,0.3-0.4,0.6-0.4,1.1h2.7
			c0-0.5-0.1-0.9-0.4-1.1S81.8,58.3,81.4,58.3z"/>
		<path class="st1" d="M88.2,55.8c0-0.2,0.1-0.4,0.2-0.5c0.1-0.1,0.3-0.2,0.5-0.2c0.2,0,0.4,0.1,0.5,0.2c0.1,0.1,0.2,0.3,0.2,0.5
			c0,0.2-0.1,0.4-0.2,0.5c-0.1,0.1-0.3,0.2-0.5,0.2c-0.2,0-0.4-0.1-0.5-0.2C88.3,56.2,88.2,56,88.2,55.8z M89.5,63.4h-1.3v-6h1.3
			V63.4z"/>
		<path class="st1" d="M95.4,61.7c0,0.6-0.2,1-0.6,1.3c-0.4,0.3-1,0.5-1.8,0.5c-0.8,0-1.4-0.1-1.9-0.4V62c0.7,0.3,1.4,0.5,2,0.5
			c0.8,0,1.2-0.2,1.2-0.7c0-0.2,0-0.3-0.1-0.4c-0.1-0.1-0.2-0.2-0.4-0.3c-0.2-0.1-0.5-0.2-0.8-0.4c-0.7-0.3-1.2-0.5-1.4-0.8
			c-0.2-0.3-0.4-0.6-0.4-1c0-0.5,0.2-0.9,0.6-1.2c0.4-0.3,1-0.4,1.7-0.4c0.7,0,1.4,0.1,2,0.4l-0.4,1c-0.6-0.3-1.2-0.4-1.6-0.4
			c-0.7,0-1,0.2-1,0.6c0,0.2,0.1,0.3,0.3,0.5s0.6,0.3,1.1,0.5c0.5,0.2,0.9,0.4,1.1,0.5s0.4,0.3,0.5,0.5
			C95.3,61.1,95.4,61.4,95.4,61.7z"/>
		<path class="st1" d="M102.7,57.3c0.7,0,1.3,0.3,1.7,0.8c0.4,0.5,0.6,1.3,0.6,2.3c0,1-0.2,1.7-0.6,2.3c-0.4,0.5-1,0.8-1.8,0.8
			c-0.8,0-1.3-0.3-1.8-0.8h-0.1l-0.2,0.7h-1V55h1.3v2c0,0.1,0,0.4,0,0.7c0,0.3,0,0.5,0,0.6h0.1C101.3,57.6,101.9,57.3,102.7,57.3z
			 M102.4,58.3c-0.5,0-0.9,0.2-1.1,0.5c-0.2,0.3-0.3,0.8-0.3,1.5v0.1c0,0.7,0.1,1.3,0.3,1.6c0.2,0.3,0.6,0.5,1.1,0.5
			c0.5,0,0.8-0.2,1-0.5c0.2-0.4,0.3-0.9,0.3-1.5C103.8,59,103.3,58.3,102.4,58.3z"/>
		<path class="st1" d="M110.8,63.4l-0.2-0.8h-0.1c-0.2,0.3-0.4,0.5-0.8,0.7c-0.3,0.2-0.7,0.2-1.1,0.2c-0.7,0-1.3-0.2-1.6-0.5
			c-0.4-0.4-0.5-0.9-0.5-1.6v-3.9h1.3v3.7c0,0.5,0.1,0.8,0.3,1c0.2,0.2,0.5,0.3,0.9,0.3c0.5,0,0.9-0.2,1.2-0.5
			c0.3-0.3,0.4-0.9,0.4-1.6v-3h1.3v6H110.8z"/>
		<path class="st1" d="M113.5,55.8c0-0.2,0.1-0.4,0.2-0.5c0.1-0.1,0.3-0.2,0.5-0.2c0.2,0,0.4,0.1,0.5,0.2c0.1,0.1,0.2,0.3,0.2,0.5
			c0,0.2-0.1,0.4-0.2,0.5c-0.1,0.1-0.3,0.2-0.5,0.2c-0.2,0-0.4-0.1-0.5-0.2C113.6,56.2,113.5,56,113.5,55.8z M114.9,63.4h-1.3v-6
			h1.3V63.4z"/>
		<path class="st1" d="M118,63.4h-1.3V55h1.3V63.4z"/>
		<path class="st1" d="M121.8,63.5c-0.7,0-1.3-0.3-1.7-0.8c-0.4-0.5-0.6-1.3-0.6-2.3c0-1,0.2-1.7,0.6-2.3c0.4-0.5,1-0.8,1.8-0.8
			c0.8,0,1.4,0.3,1.8,0.9h0.1c-0.1-0.4-0.1-0.8-0.1-1V55h1.3v8.4h-1l-0.2-0.8h-0.1C123.2,63.2,122.6,63.5,121.8,63.5z M122.1,62.5
			c0.5,0,0.9-0.1,1.1-0.4c0.2-0.3,0.4-0.8,0.4-1.4v-0.2c0-0.8-0.1-1.3-0.4-1.6c-0.2-0.3-0.6-0.5-1.2-0.5c-0.4,0-0.8,0.2-1,0.5
			s-0.4,0.9-0.4,1.6c0,0.7,0.1,1.2,0.4,1.5S121.7,62.5,122.1,62.5z"/>
		<path class="st1" d="M126.6,55.8c0-0.2,0.1-0.4,0.2-0.5c0.1-0.1,0.3-0.2,0.5-0.2c0.2,0,0.4,0.1,0.5,0.2c0.1,0.1,0.2,0.3,0.2,0.5
			c0,0.2-0.1,0.4-0.2,0.5c-0.1,0.1-0.3,0.2-0.5,0.2c-0.2,0-0.4-0.1-0.5-0.2C126.7,56.2,126.6,56,126.6,55.8z M128,63.4h-1.3v-6h1.3
			V63.4z"/>
		<path class="st1" d="M135,63.4h-1.3v-3.7c0-0.5-0.1-0.8-0.3-1c-0.2-0.2-0.5-0.3-0.9-0.3c-0.5,0-0.9,0.2-1.2,0.5
			c-0.2,0.3-0.4,0.8-0.4,1.6v3h-1.3v-6h1l0.2,0.8h0.1c0.2-0.3,0.4-0.5,0.8-0.7c0.3-0.2,0.7-0.2,1.1-0.2c1.4,0,2.2,0.7,2.2,2.2V63.4z
			"/>
		<path class="st1" d="M141.9,57.4v0.7l-1,0.2c0.1,0.1,0.2,0.3,0.2,0.5c0.1,0.2,0.1,0.4,0.1,0.6c0,0.6-0.2,1.1-0.6,1.5
			s-1,0.5-1.8,0.5c-0.2,0-0.4,0-0.5,0c-0.3,0.2-0.4,0.4-0.4,0.6c0,0.1,0.1,0.2,0.2,0.3s0.4,0.1,0.7,0.1h1c0.7,0,1.2,0.1,1.5,0.4
			c0.3,0.3,0.5,0.7,0.5,1.2c0,0.7-0.3,1.2-0.8,1.6s-1.4,0.6-2.4,0.6c-0.8,0-1.4-0.1-1.9-0.4c-0.4-0.3-0.6-0.7-0.6-1.2
			c0-0.4,0.1-0.7,0.3-0.9c0.2-0.3,0.6-0.4,1-0.5c-0.2-0.1-0.3-0.2-0.4-0.3c-0.1-0.2-0.2-0.3-0.2-0.5c0-0.2,0.1-0.4,0.2-0.6
			c0.1-0.2,0.3-0.3,0.6-0.5c-0.3-0.1-0.6-0.4-0.8-0.7c-0.2-0.3-0.3-0.7-0.3-1.1c0-0.6,0.2-1.2,0.6-1.5c0.4-0.4,1-0.5,1.8-0.5
			c0.2,0,0.3,0,0.5,0c0.2,0,0.3,0,0.4,0.1H141.9z M137.2,64.3c0,0.3,0.1,0.5,0.4,0.6c0.2,0.1,0.6,0.2,1,0.2c0.7,0,1.2-0.1,1.5-0.3
			c0.3-0.2,0.5-0.5,0.5-0.8c0-0.3-0.1-0.4-0.3-0.6s-0.5-0.2-1-0.2h-1c-0.4,0-0.7,0.1-0.9,0.3C137.3,63.8,137.2,64,137.2,64.3z
			 M137.7,59.3c0,0.4,0.1,0.7,0.3,0.9s0.5,0.3,0.8,0.3c0.7,0,1.1-0.4,1.1-1.2c0-0.4-0.1-0.7-0.3-0.9s-0.5-0.3-0.8-0.3
			c-0.4,0-0.6,0.1-0.8,0.3S137.7,58.9,137.7,59.3z"/>
		<path class="st1" d="M49.3,68.3c0-0.2,0.1-0.4,0.2-0.5c0.1-0.1,0.3-0.2,0.5-0.2c0.2,0,0.4,0.1,0.5,0.2c0.1,0.1,0.2,0.3,0.2,0.5
			c0,0.2-0.1,0.4-0.2,0.5C50.4,69,50.2,69,50,69c-0.2,0-0.4-0.1-0.5-0.2C49.3,68.7,49.3,68.6,49.3,68.3z M50.6,75.9h-1.3v-6h1.3
			V75.9z"/>
		<path class="st1" d="M54.5,76c-0.7,0-1.3-0.3-1.7-0.8c-0.4-0.5-0.6-1.3-0.6-2.3c0-1,0.2-1.7,0.6-2.3s1-0.8,1.8-0.8
			c0.8,0,1.4,0.3,1.8,0.9h0.1c-0.1-0.4-0.1-0.8-0.1-1v-2.2h1.3v8.4h-1l-0.2-0.8h-0.1C55.8,75.7,55.3,76,54.5,76z M54.8,75
			c0.5,0,0.9-0.1,1.1-0.4c0.2-0.3,0.4-0.8,0.4-1.4V73c0-0.8-0.1-1.3-0.4-1.6c-0.2-0.3-0.6-0.5-1.2-0.5c-0.4,0-0.8,0.2-1,0.5
			s-0.4,0.9-0.4,1.6c0,0.7,0.1,1.2,0.4,1.5S54.3,75,54.8,75z"/>
		<path class="st1" d="M62,76c-0.9,0-1.7-0.3-2.2-0.8C59.3,74.7,59,73.9,59,73c0-1,0.2-1.7,0.7-2.3c0.5-0.6,1.2-0.8,2-0.8
			c0.8,0,1.4,0.2,1.9,0.7c0.5,0.5,0.7,1.1,0.7,2v0.7h-4c0,0.6,0.2,1,0.5,1.3S61.5,75,62,75c0.4,0,0.7,0,1-0.1s0.6-0.2,1-0.3v1
			c-0.3,0.1-0.6,0.3-0.9,0.3C62.7,76,62.4,76,62,76z M61.7,70.8c-0.4,0-0.7,0.1-1,0.4c-0.2,0.3-0.4,0.6-0.4,1.1H63
			c0-0.5-0.1-0.9-0.4-1.1S62.1,70.8,61.7,70.8z"/>
		<path class="st1" d="M71,75.9h-1.3v-3.7c0-0.5-0.1-0.8-0.3-1c-0.2-0.2-0.5-0.3-0.9-0.3c-0.5,0-0.9,0.2-1.2,0.5
			c-0.2,0.3-0.4,0.8-0.4,1.6v3h-1.3v-6h1l0.2,0.8H67c0.2-0.3,0.4-0.5,0.8-0.7c0.3-0.2,0.7-0.2,1.1-0.2c1.4,0,2.2,0.7,2.2,2.2V75.9z"
			/>
		<path class="st1" d="M75,75c0.3,0,0.6,0,0.9-0.1v1c-0.1,0.1-0.3,0.1-0.5,0.2C75.2,76,75,76,74.7,76c-1.2,0-1.8-0.6-1.8-1.9v-3.2
			h-0.8v-0.6l0.9-0.5l0.4-1.3h0.8v1.3h1.7v1h-1.7v3.2c0,0.3,0.1,0.5,0.2,0.7C74.6,74.9,74.8,75,75,75z"/>
		<path class="st1" d="M77.1,68.3c0-0.2,0.1-0.4,0.2-0.5c0.1-0.1,0.3-0.2,0.5-0.2c0.2,0,0.4,0.1,0.5,0.2c0.1,0.1,0.2,0.3,0.2,0.5
			c0,0.2-0.1,0.4-0.2,0.5C78.2,69,78,69,77.8,69c-0.2,0-0.4-0.1-0.5-0.2C77.1,68.7,77.1,68.6,77.1,68.3z M78.4,75.9h-1.3v-6h1.3
			V75.9z"/>
		<path class="st1" d="M83.2,70.9h-1.5v5h-1.3v-5h-1v-0.6l1-0.4v-0.4c0-0.7,0.2-1.2,0.5-1.6c0.3-0.3,0.8-0.5,1.5-0.5
			c0.4,0,0.9,0.1,1.3,0.2l-0.3,1c-0.3-0.1-0.6-0.2-0.9-0.2c-0.3,0-0.5,0.1-0.6,0.3s-0.2,0.4-0.2,0.8v0.4h1.5V70.9z M84.2,68.3
			c0-0.2,0.1-0.4,0.2-0.5c0.1-0.1,0.3-0.2,0.5-0.2c0.2,0,0.4,0.1,0.5,0.2c0.1,0.1,0.2,0.3,0.2,0.5c0,0.2-0.1,0.4-0.2,0.5
			C85.3,69,85.1,69,84.9,69c-0.2,0-0.4-0.1-0.5-0.2C84.2,68.7,84.2,68.6,84.2,68.3z M85.5,75.9h-1.3v-6h1.3V75.9z"/>
		<path class="st1" d="M89.8,76c-0.9,0-1.6-0.3-2.1-0.8C87.2,74.7,87,74,87,73c0-1,0.2-1.8,0.7-2.3c0.5-0.5,1.2-0.8,2.1-0.8
			c0.6,0,1.2,0.1,1.7,0.4l-0.4,1c-0.5-0.2-1-0.3-1.3-0.3c-1,0-1.6,0.7-1.6,2.1c0,0.7,0.1,1.2,0.4,1.5c0.3,0.3,0.6,0.5,1.1,0.5
			c0.6,0,1.1-0.1,1.6-0.4v1.1c-0.2,0.1-0.5,0.2-0.7,0.3S90.1,76,89.8,76z"/>
		<path class="st1" d="M96.6,75.9l-0.3-0.8h0c-0.3,0.4-0.6,0.6-0.9,0.7C95.1,76,94.8,76,94.3,76c-0.6,0-1-0.2-1.4-0.5
			c-0.3-0.3-0.5-0.8-0.5-1.3c0-0.6,0.2-1.1,0.7-1.4c0.5-0.3,1.2-0.5,2.1-0.5l1,0v-0.3c0-0.4-0.1-0.7-0.3-0.9s-0.5-0.3-0.8-0.3
			c-0.3,0-0.6,0-0.9,0.1c-0.3,0.1-0.6,0.2-0.8,0.3L93,70.3c0.3-0.2,0.7-0.3,1.1-0.4s0.8-0.1,1.1-0.1c0.8,0,1.3,0.2,1.7,0.5
			c0.4,0.3,0.6,0.9,0.6,1.6v4H96.6z M94.7,75.1c0.5,0,0.8-0.1,1.1-0.4c0.3-0.3,0.4-0.6,0.4-1.1v-0.5l-0.8,0c-0.6,0-1,0.1-1.3,0.3
			s-0.4,0.5-0.4,0.8c0,0.3,0.1,0.5,0.2,0.6S94.4,75.1,94.7,75.1z"/>
		<path class="st1" d="M101.5,75c0.3,0,0.6,0,0.9-0.1v1c-0.1,0.1-0.3,0.1-0.5,0.2c-0.2,0-0.5,0.1-0.7,0.1c-1.2,0-1.8-0.6-1.8-1.9
			v-3.2h-0.8v-0.6l0.9-0.5l0.4-1.3h0.8v1.3h1.7v1h-1.7v3.2c0,0.3,0.1,0.5,0.2,0.7C101.1,74.9,101.3,75,101.5,75z"/>
		<path class="st1" d="M103.6,68.3c0-0.2,0.1-0.4,0.2-0.5c0.1-0.1,0.3-0.2,0.5-0.2c0.2,0,0.4,0.1,0.5,0.2c0.1,0.1,0.2,0.3,0.2,0.5
			c0,0.2-0.1,0.4-0.2,0.5c-0.1,0.1-0.3,0.2-0.5,0.2c-0.2,0-0.4-0.1-0.5-0.2C103.6,68.7,103.6,68.6,103.6,68.3z M104.9,75.9h-1.3v-6
			h1.3V75.9z"/>
		<path class="st1" d="M112,72.9c0,1-0.3,1.7-0.8,2.3s-1.2,0.8-2.1,0.8c-0.6,0-1.1-0.1-1.5-0.4s-0.8-0.6-1-1.1
			c-0.2-0.5-0.3-1-0.3-1.6c0-1,0.2-1.7,0.7-2.3c0.5-0.5,1.2-0.8,2.1-0.8c0.9,0,1.6,0.3,2.1,0.8C111.8,71.2,112,72,112,72.9z
			 M107.7,72.9c0,1.4,0.5,2.1,1.5,2.1c1,0,1.5-0.7,1.5-2.1c0-1.4-0.5-2.1-1.5-2.1c-0.5,0-0.9,0.2-1.2,0.5
			C107.8,71.8,107.7,72.3,107.7,72.9z"/>
		<path class="st1" d="M118.8,75.9h-1.3v-3.7c0-0.5-0.1-0.8-0.3-1c-0.2-0.2-0.5-0.3-0.9-0.3c-0.5,0-0.9,0.2-1.2,0.5
			c-0.2,0.3-0.4,0.8-0.4,1.6v3h-1.3v-6h1l0.2,0.8h0.1c0.2-0.3,0.4-0.5,0.8-0.7c0.3-0.2,0.7-0.2,1.1-0.2c1.4,0,2.2,0.7,2.2,2.2V75.9z
			"/>
	</g>
</g>
</svg>
