<?xml version="1.0" encoding="utf-8"?>
<!-- Generator: Adobe Illustrator 20.1.0, SVG Export Plug-In . SVG Version: 6.00 Build 0)  -->
<svg version="1.1" id="Layer_1" xmlns="http://www.w3.org/2000/svg" xmlns:xlink="http://www.w3.org/1999/xlink" x="0px" y="0px"
	 viewBox="0 0 640 360" style="enable-background:new 0 0 640 360;" xml:space="preserve">
<style type="text/css">
	.st0{fill:#212121;}
	.st1{fill:#E0E0E0;}
	.st2{fill:#785555;}
</style>
<rect class="st0" width="640" height="360"/>
<g id="XMLID_124_">
	<g id="Y-2_1_">
		<polygon id="XMLID_335_" class="st1" points="479.5,176.8 479.5,176.8 493,145.3 473.3,145.3 458.9,179 478.6,179 		"/>
		<path id="XMLID_140_" class="st2" d="M458.9,212.7h1.4C459.8,212.7,459.3,212.7,458.9,212.7L458.9,212.7z"/>
		<path id="XMLID_137_" class="st2" d="M478.6,179v16.2c-0.4,9.7-8.4,17.5-18.3,17.5c-0.5,0-0.9,0-1.4-0.1V179l0,0l-0.9-2.1
			l-13.5-31.6h19.8L478.6,179L478.6,179z"/>
	</g>
	<g id="S_4_">
		<path id="XMLID_136_" class="st2" d="M299.2,145.3c-13.4,0-24.2,10.8-24.2,24.2c0,6.6,2.7,12.6,7,17l34.2-34.2
			C311.8,147.9,305.9,145.3,299.2,145.3z"/>
		<path id="XMLID_135_" class="st1" d="M280.4,212.7c13.4,0,24.2-10.8,24.2-24.2c0-6.7-2.7-12.8-7.1-17.1l-34.2,34.2
			C267.6,209.9,273.7,212.7,280.4,212.7z"/>
	</g>
	<g id="I-2_1_">
		<path id="XMLID_134_" class="st2" d="M239.1,212.7L239.1,212.7h1.4C240.1,212.7,239.6,212.7,239.1,212.7L239.1,212.7z"/>
		<path id="XMLID_133_" class="st2" d="M258.8,194.4v0.9c-0.2,4.9-2.3,9.2-5.6,12.3c-3.3,3.1-7.8,5-12.6,5c-0.5,0-0.9,0-1.4-0.1
			v-67.3h19.7L258.8,194.4z"/>
	</g>
	<g id="G-4_1_">
		<path class="st1" d="M230.2,193L230.2,193c-3.1,11.3-13.3,19.7-25.6,19.6c-12.3,0-22.7-8.3-25.8-19.6H212v-19.7h0.8
			c9.8,0.4,17.5,8.4,17.5,18.3C230.3,192,230.3,192.5,230.2,193z"/>
		<path id="XMLID_2_" class="st2" d="M185.1,153.9c5.4-5.9,12.5-7.7,12.6-7.8c2.2-0.6,4.6-0.9,6.9-0.9c12.2,0.1,22.5,8.4,25.6,19.7
			h-32.6v46.8c-11.3-3.1-19.7-13.4-19.7-25.8v-14.1C177.9,171.9,177.3,161.7,185.1,153.9z"/>
	</g>
	<g id="B_2_">
		<g id="XMLID_128_">
			<path id="XMLID_129_" class="st1" d="M359.7,145.3v67.4l0,0l0,0c18.6,0,33.7-15.1,33.7-33.7S378.4,145.3,359.7,145.3z"/>
		</g>
		<g id="L_2_">
			<rect id="XMLID_127_" x="340" y="145.3" class="st2" width="19.7" height="67.4"/>
		</g>
	</g>
	<g id="A_1_">
		<polygon id="XMLID_126_" class="st2" points="422.4,145.3 411.3,171.2 433.6,171.2 		"/>
		<polygon id="XMLID_125_" class="st1" points="393.4,212.7 451.4,212.7 437.9,181 407.1,181 		"/>
	</g>
</g>
</svg>
