<?xml version="1.0" encoding="utf-8"?>
<!-- Generator: Adobe Illustrator 19.1.0, SVG Export Plug-In . SVG Version: 6.00 Build 0)  -->
<svg version="1.1" id="Layer_1" xmlns="http://www.w3.org/2000/svg" xmlns:xlink="http://www.w3.org/1999/xlink" x="0px" y="0px"
	 viewBox="0 0 640 360" style="enable-background:new 0 0 640 360;" xml:space="preserve">
<style type="text/css">
	.st0{fill:#212121;}
	.st1{fill:#E0E0E0;}
	.st2{fill:#785555;}
</style>
<rect class="st0" width="640" height="360"/>
<g id="XMLID_124_">
	<g id="Y-2_1_">
		<polygon id="XMLID_335_" class="st1" points="356.3,176.8 356.3,176.8 369.8,145.3 350.1,145.3 335.7,179 355.4,179 		"/>
		<path id="XMLID_140_" class="st2" d="M335.7,212.7h1.4C336.6,212.7,336.1,212.7,335.7,212.7L335.7,212.7z"/>
		<path id="XMLID_137_" class="st2" d="M355.4,179v16.2c-0.4,9.7-8.4,17.5-18.3,17.5c-0.5,0-0.9,0-1.4-0.1V179l0,0l-0.9-2.1
			l-13.5-31.6h19.8L355.4,179L355.4,179z"/>
	</g>
	<g id="S_4_">
		<path id="XMLID_136_" class="st2" d="M176,145.3c-13.4,0-24.2,10.8-24.2,24.2c0,6.6,2.7,12.6,7,17l34.2-34.2
			C188.6,147.9,182.7,145.3,176,145.3z"/>
		<path id="XMLID_135_" class="st1" d="M157.2,212.7c13.4,0,24.2-10.8,24.2-24.2c0-6.7-2.7-12.8-7.1-17.1l-34.2,34.2
			C144.4,209.9,150.5,212.7,157.2,212.7z"/>
	</g>
	<g id="I-2_1_">
		<path id="XMLID_134_" class="st2" d="M115.9,212.7L115.9,212.7h1.4C116.9,212.7,116.4,212.7,115.9,212.7L115.9,212.7z"/>
		<path id="XMLID_133_" class="st2" d="M135.6,194.4v0.9c-0.2,4.9-2.3,9.2-5.6,12.3c-3.3,3.1-7.8,5-12.6,5c-0.5,0-0.9,0-1.4-0.1
			v-67.3h19.7L135.6,194.4z"/>
	</g>
	<g id="G-4_1_">
		<path class="st1" d="M107,193L107,193c-3.1,11.3-13.3,19.7-25.6,19.6c-12.3,0-22.7-8.3-25.8-19.6h33.2v-19.7h0.8
			c9.8,0.4,17.5,8.4,17.5,18.3C107.1,192,107.1,192.5,107,193z"/>
		<path id="XMLID_2_" class="st2" d="M61.9,153.9c5.4-5.9,12.5-7.7,12.6-7.8c2.2-0.6,4.6-0.9,6.9-0.9c12.2,0.1,22.5,8.4,25.6,19.7
			H74.4v46.8c-11.3-3.1-19.7-13.4-19.7-25.8v-14.1C54.7,171.9,54.1,161.7,61.9,153.9z"/>
	</g>
	<g id="B_2_">
		<g id="XMLID_128_">
			<path id="XMLID_129_" class="st1" d="M236.5,145.3v67.4l0,0l0,0c18.6,0,33.7-15.1,33.7-33.7S255.2,145.3,236.5,145.3z"/>
		</g>
		<g id="L_2_">
			<rect id="XMLID_127_" x="216.8" y="145.3" class="st2" width="19.7" height="67.4"/>
		</g>
	</g>
	<g id="A_1_">
		<polygon id="XMLID_126_" class="st2" points="299.2,145.3 288.1,171.2 310.4,171.2 		"/>
		<polygon id="XMLID_125_" class="st1" points="270.2,212.7 328.2,212.7 314.7,181 283.9,181 		"/>
	</g>
</g>
<g>
	<path class="st1" d="M434.1,213.8h-38.6v-2.4l21.2-24.4c4-4.6,6.9-8.7,8.8-12c1.8-3.4,2.8-6.5,2.8-9.4c0-4.7-1.3-8.4-3.9-11
		s-6.4-4-11.4-4c-5.3,0-9.4,1.5-12.3,4.6c-2.9,3.1-4.3,7.1-4.3,12h-2l-0.1-0.2c-0.1-5.2,1.5-9.7,4.9-13.4s8.1-5.5,13.8-5.5
		c5.3,0,9.7,1.5,12.9,4.6c3.3,3,4.9,7.3,4.9,12.8c0,3.6-1.2,7.2-3.5,11c-2.3,3.7-5.6,8.1-9.8,13l-18.5,21.5l0.1,0.2h35.2V213.8
		L434.1,213.8z"/>
	<path class="st1" d="M483.9,188.3c0,8.4-1.7,15-5.1,19.5c-3.4,4.6-8.2,6.9-14.5,6.9c-6.2,0-11.1-2.3-14.5-6.9
		c-3.4-4.6-5.2-11.1-5.2-19.5v-13.6c0-8.4,1.7-14.9,5.2-19.5c3.4-4.6,8.2-6.9,14.5-6.9c6.2,0,11.1,2.3,14.5,6.9
		c3.4,4.6,5.2,11.1,5.2,19.5L483.9,188.3L483.9,188.3z M481.6,174.6c0-7.5-1.5-13.4-4.5-17.6c-3-4.2-7.2-6.3-12.9-6.3
		c-5.6,0-9.9,2.1-12.8,6.3c-3,4.3-4.4,10.1-4.4,17.6v13.6c0,7.5,1.5,13.4,4.5,17.6c3,4.3,7.2,6.5,12.9,6.5c5.6,0,9.8-2.1,12.8-6.4
		c3-4.3,4.4-10.1,4.4-17.6V174.6z"/>
	<path class="st1" d="M519.4,214.3H517v-63.2l-17.6,3.4v-2l20.1-3.7L519.4,214.3L519.4,214.3z"/>
	<path class="st1" d="M548.8,184.4l3.4-35.2h30.6v2.4h-28.4l-2.7,27.4c1.8-1.8,3.9-3.3,6.1-4.2c2.2-0.9,5.5-1.5,9.7-1.6
		c5.2-0.1,9.4,1.6,12.8,5.3c3.3,3.7,5,8.6,5,14.8c0,6.6-1.5,11.8-4.6,15.7c-3.1,3.9-7.9,5.8-14.4,5.8c-5.2,0-9.6-1.5-13.1-4.5
		c-3.4-3-5.1-7.4-5-13.2l0.1-0.2h2.1c0,5.1,1.4,9,4.3,11.6s6.7,4,11.6,4c5.8,0,10-1.6,12.6-4.7c2.7-3.1,4-8,4-14.3
		c0-5.5-1.4-9.7-4-12.9c-2.7-3.1-6.4-4.7-11.2-4.7c-4.7,0-8.4,0.8-11.2,2.4c-2.7,1.6-4.6,3.9-5.8,7L548.8,184.4z"/>
</g>
</svg>
