<?xml version="1.0" encoding="utf-8"?>
<!-- Generator: Adobe Illustrator 23.1.0, SVG Export Plug-In . SVG Version: 6.00 Build 0)  -->
<svg version="1.1" id="Layer_1" xmlns="http://www.w3.org/2000/svg" xmlns:xlink="http://www.w3.org/1999/xlink" x="0px" y="0px"
	 viewBox="0 0 169.5 86.2" style="enable-background:new 0 0 169.5 86.2;" xml:space="preserve">
<style type="text/css">
	.st0{fill:#500000;}
	.st1{fill:#424242;}
	.st2{fill:none;}
</style>
<g>
	<g>
		<g>
			<path class="st0" d="M17,44.1V35H5.4v-6l9.9-23.4h8.4v23.8h3.8V35h-3.8v9.1H17z M11.3,29.4H17V13.1L11.3,29.4z"/>
			<path class="st0" d="M43.6,44.1V5.6h12.1c6.7,0,10.1,3.7,10.1,11.1c0,2-0.3,3.7-0.8,5.1s-1.3,2.5-2.3,3.3c-1,0.8-2.1,1.4-3.4,1.7
				s-2.7,0.5-4.3,0.5h-3.5v16.8H43.6z M51.4,21.9h2.5c1.7,0,2.9-0.4,3.5-1.2c0.6-0.8,0.9-2.2,0.9-4.1c0-1,0-1.8-0.1-2.4
				c-0.1-0.6-0.3-1.1-0.6-1.7c-0.3-0.5-0.7-0.9-1.3-1.1c-0.6-0.2-1.4-0.3-2.4-0.3h-2.5V21.9z"/>
			<path class="st0" d="M73.2,44.1V11.4H67V5.6h20.1v5.8H81v32.8H73.2z"/>
			<path class="st0" d="M100.3,44.7c-3.6,0-6.3-1-8-3c-1.8-2-2.7-5-2.9-9.1l6.8-1.2c0,2.4,0.4,4.2,1,5.4c0.6,1.2,1.6,1.8,2.8,1.8
				c0.9,0,1.6-0.3,2-0.9c0.4-0.6,0.6-1.3,0.6-2.3c0-1.5-0.3-2.8-1-3.8c-0.7-1-1.7-2.2-3.2-3.5l-4.1-3.6c-1.1-0.9-1.9-1.8-2.5-2.6
				s-1.2-1.8-1.6-3c-0.4-1.2-0.7-2.6-0.7-4.1c0-3.1,0.9-5.5,2.8-7.2c1.8-1.7,4.4-2.6,7.6-2.6c1.1,0,2.1,0.1,3,0.3
				c0.9,0.2,1.7,0.5,2.3,0.9c0.6,0.4,1.2,0.8,1.7,1.4c0.5,0.6,0.9,1.1,1.2,1.7c0.3,0.6,0.6,1.3,0.8,2c0.2,0.8,0.4,1.5,0.5,2.1
				c0.1,0.7,0.2,1.4,0.2,2.2l-6.7,1.1c0-0.8-0.1-1.5-0.1-2c0-0.5-0.1-1.1-0.3-1.6c-0.1-0.6-0.3-1-0.5-1.3c-0.2-0.3-0.5-0.6-0.9-0.8
				s-0.8-0.3-1.3-0.3c-0.9,0-1.5,0.4-2,1c-0.5,0.6-0.7,1.4-0.7,2.3c0,0.7,0.1,1.3,0.2,1.9c0.2,0.6,0.4,1.1,0.8,1.6
				c0.4,0.5,0.7,0.9,1,1.2c0.3,0.3,0.7,0.7,1.3,1.3l4.1,3.5c0.9,0.8,1.6,1.5,2.3,2.3s1.3,1.6,1.8,2.5c0.6,0.9,1,2,1.3,3.1
				c0.3,1.1,0.5,2.3,0.5,3.6c0,2.8-0.9,5.1-2.7,6.9C105.7,43.8,103.3,44.7,100.3,44.7z"/>
		</g>
		<g>
			<path class="st1" d="M132.8,27.6V16h3.6c2,0,3,1.1,3,3.3c0,0.6-0.1,1.1-0.2,1.5s-0.4,0.8-0.7,1s-0.6,0.4-1,0.5
				c-0.4,0.1-0.8,0.2-1.3,0.2h-1v5H132.8z M135.2,20.9h0.8c0.5,0,0.9-0.1,1-0.4c0.2-0.2,0.3-0.6,0.3-1.2c0-0.3,0-0.5,0-0.7
				c0-0.2-0.1-0.3-0.2-0.5c-0.1-0.2-0.2-0.3-0.4-0.3c-0.2-0.1-0.4-0.1-0.7-0.1h-0.8V20.9z"/>
			<path class="st1" d="M140.6,27.6V16h5v1.6H143v3.1h2.1v1.6H143V26h2.7v1.6H140.6z"/>
			<path class="st1" d="M146.9,27.6V16h2.9c0.6,0,1.1,0,1.6,0.1c0.4,0.1,0.8,0.3,1.2,0.5c0.3,0.2,0.6,0.5,0.8,0.9s0.3,0.9,0.3,1.5
				c0,0.7-0.1,1.3-0.3,1.8c-0.2,0.5-0.6,0.8-1.1,1l1.6,5.6h-2.4l-1.3-5.2h-0.8v5.2H146.9z M149.2,21h0.6c0.6,0,1-0.1,1.2-0.4
				c0.2-0.3,0.4-0.7,0.4-1.3c0-0.6-0.1-1-0.3-1.3c-0.2-0.3-0.6-0.4-1.1-0.4h-0.7V21z"/>
			<path class="st1" d="M119.7,40V28.4h4.9V30H122v3.1h2.1v1.6H122V40H119.7z"/>
			<path class="st1" d="M125.7,40V28.4h5v1.6h-2.7v3.1h2.1v1.6h-2.1v3.6h2.7V40H125.7z"/>
			<path class="st1" d="M131.4,40l2.3-11.6h2.6l2.3,11.6h-2.2l-0.4-2.6H134l-0.4,2.6H131.4z M134.3,36h1.4l-0.7-4.6L134.3,36z"/>
			<path class="st1" d="M140.4,40v-9.8h-1.9v-1.7h6v1.7h-1.8V40H140.4z"/>
			<path class="st1" d="M148.8,40.1c-0.6,0-1.2-0.1-1.6-0.3c-0.4-0.2-0.8-0.4-1-0.8s-0.4-0.7-0.5-1.2c-0.1-0.5-0.2-1-0.2-1.7v-7.8
				h2.3v8.1c0,0.2,0,0.4,0,0.6c0,0.2,0,0.3,0.1,0.5c0,0.2,0.1,0.3,0.2,0.4c0.1,0.1,0.2,0.2,0.3,0.3c0.1,0.1,0.3,0.1,0.5,0.1
				c0.2,0,0.3,0,0.5-0.1c0.1-0.1,0.2-0.2,0.3-0.3s0.1-0.3,0.2-0.4c0-0.2,0.1-0.3,0.1-0.5c0-0.2,0-0.3,0-0.6v-8.1h2.3v7.8
				c0,0.7-0.1,1.2-0.2,1.7c-0.1,0.5-0.3,0.9-0.5,1.2c-0.2,0.3-0.6,0.6-1,0.8C150,40.1,149.4,40.1,148.8,40.1z"/>
			<path class="st1" d="M153.8,40V28.4h2.9c0.6,0,1.1,0,1.6,0.1c0.4,0.1,0.8,0.3,1.2,0.5c0.3,0.2,0.6,0.5,0.8,0.9s0.3,0.9,0.3,1.5
				c0,0.7-0.1,1.3-0.3,1.8c-0.2,0.5-0.6,0.8-1.1,1l1.6,5.6h-2.4l-1.3-5.2h-0.8V40H153.8z M156.1,33.4h0.6c0.6,0,1-0.1,1.2-0.4
				c0.2-0.3,0.4-0.7,0.4-1.3c0-0.6-0.1-1-0.3-1.3c-0.2-0.3-0.6-0.4-1.1-0.4h-0.7V33.4z"/>
			<path class="st1" d="M162,40V28.4h5v1.6h-2.7v3.1h2.1v1.6h-2.1v3.6h2.7V40H162z"/>
		</g>
	</g>
	<g>
		<rect x="3.9" y="52.9" class="st2" width="161.6" height="30.4"/>
		<path class="st1" d="M16.3,62.3v-7.8h1.3v7.8H16.3z"/>
		<path class="st1" d="M22.5,57.3H21v5h-1.3v-5h-1v-0.6l1-0.4v-0.4c0-0.7,0.2-1.2,0.5-1.6s0.8-0.5,1.5-0.5c0.4,0,0.9,0.1,1.3,0.2
			l-0.3,1c-0.3-0.1-0.6-0.1-0.9-0.1c-0.3,0-0.5,0.1-0.6,0.3S21,55.6,21,55.9v0.4h1.4V57.3z"/>
		<path class="st1" d="M30.3,60.6c0,0.6-0.2,1-0.6,1.3s-1,0.5-1.8,0.5c-0.8,0-1.4-0.1-1.9-0.4v-1.1c0.7,0.3,1.3,0.5,1.9,0.5
			c0.8,0,1.2-0.2,1.2-0.7c0-0.1,0-0.3-0.1-0.4c-0.1-0.1-0.2-0.2-0.4-0.3c-0.2-0.1-0.5-0.2-0.8-0.4c-0.7-0.3-1.1-0.5-1.4-0.8
			s-0.4-0.6-0.4-1c0-0.5,0.2-0.9,0.6-1.2s1-0.4,1.7-0.4c0.7,0,1.4,0.1,2,0.4l-0.4,0.9c-0.6-0.3-1.2-0.4-1.6-0.4c-0.7,0-1,0.2-1,0.6
			c0,0.2,0.1,0.3,0.3,0.5c0.2,0.1,0.6,0.3,1.1,0.5c0.5,0.2,0.8,0.4,1.1,0.5s0.4,0.3,0.5,0.5C30.2,60,30.3,60.3,30.3,60.6z"/>
		<path class="st1" d="M31.6,54.8c0-0.2,0.1-0.4,0.2-0.5c0.1-0.1,0.3-0.2,0.5-0.2c0.2,0,0.4,0.1,0.5,0.2c0.1,0.1,0.2,0.3,0.2,0.5
			c0,0.2-0.1,0.4-0.2,0.5c-0.1,0.1-0.3,0.2-0.5,0.2c-0.2,0-0.4-0.1-0.5-0.2S31.6,55,31.6,54.8z M32.9,62.3h-1.3v-5.9h1.3V62.3z"/>
		<path class="st1" d="M39.7,56.3V57l-1,0.2c0.1,0.1,0.2,0.3,0.2,0.5C39,57.9,39,58,39,58.2c0,0.6-0.2,1.1-0.6,1.4
			c-0.4,0.3-1,0.5-1.7,0.5c-0.2,0-0.4,0-0.5,0c-0.3,0.2-0.4,0.4-0.4,0.6c0,0.1,0.1,0.2,0.2,0.3c0.1,0.1,0.4,0.1,0.7,0.1h1
			c0.7,0,1.1,0.1,1.5,0.4s0.5,0.7,0.5,1.2c0,0.7-0.3,1.2-0.8,1.6c-0.6,0.4-1.4,0.5-2.4,0.5c-0.8,0-1.4-0.1-1.8-0.4
			c-0.4-0.3-0.6-0.7-0.6-1.2c0-0.4,0.1-0.7,0.3-0.9c0.2-0.2,0.6-0.4,1-0.5c-0.2-0.1-0.3-0.2-0.4-0.3c-0.1-0.2-0.2-0.3-0.2-0.5
			c0-0.2,0.1-0.4,0.2-0.6s0.3-0.3,0.6-0.5c-0.3-0.1-0.6-0.3-0.7-0.6s-0.3-0.6-0.3-1c0-0.6,0.2-1.1,0.6-1.5c0.4-0.4,1-0.5,1.7-0.5
			c0.2,0,0.3,0,0.5,0c0.2,0,0.3,0,0.4,0.1H39.7z M35.1,63.2c0,0.3,0.1,0.5,0.4,0.6c0.2,0.1,0.6,0.2,1,0.2c0.7,0,1.2-0.1,1.5-0.3
			s0.5-0.5,0.5-0.8c0-0.3-0.1-0.4-0.3-0.5c-0.2-0.1-0.5-0.2-1-0.2h-1c-0.4,0-0.6,0.1-0.9,0.3C35.2,62.7,35.1,62.9,35.1,63.2z
			 M35.6,58.2c0,0.4,0.1,0.7,0.3,0.9c0.2,0.2,0.5,0.3,0.8,0.3c0.7,0,1.1-0.4,1.1-1.2c0-0.4-0.1-0.7-0.3-0.9S37.1,57,36.7,57
			c-0.4,0-0.6,0.1-0.8,0.3C35.7,57.5,35.6,57.9,35.6,58.2z"/>
		<path class="st1" d="M46,62.3h-1.3v-3.6c0-0.5-0.1-0.8-0.3-1c-0.2-0.2-0.5-0.3-0.9-0.3c-0.5,0-0.9,0.2-1.2,0.5
			c-0.2,0.3-0.4,0.8-0.4,1.6v2.9h-1.3v-5.9h1l0.2,0.8H42c0.2-0.3,0.4-0.5,0.8-0.7c0.3-0.2,0.7-0.2,1.1-0.2c1.4,0,2.1,0.7,2.1,2.2
			V62.3z"/>
		<path class="st1" d="M52.8,61.3c0.3,0,0.6,0,0.9-0.1v0.9c-0.1,0.1-0.3,0.1-0.5,0.2s-0.4,0.1-0.7,0.1c-1.2,0-1.8-0.6-1.8-1.9v-3.2
			h-0.8v-0.6l0.9-0.5l0.4-1.3H52v1.3h1.7v1H52v3.2c0,0.3,0.1,0.5,0.2,0.7S52.6,61.3,52.8,61.3z"/>
		<path class="st1" d="M54,56.3h1.4l1.2,3.4c0.2,0.5,0.3,0.9,0.4,1.3h0c0-0.2,0.1-0.4,0.2-0.7c0.1-0.3,0.5-1.6,1.4-4h1.4L57.4,63
			c-0.5,1.2-1.2,1.8-2.3,1.8c-0.3,0-0.5,0-0.8-0.1v-1c0.2,0,0.4,0.1,0.6,0.1c0.6,0,1-0.4,1.3-1.1l0.2-0.6L54,56.3z"/>
		<path class="st1" d="M63.8,62.4c-0.7,0-1.3-0.3-1.7-0.8H62c0,0.5,0.1,0.8,0.1,0.9v2.4h-1.3v-8.6h1c0,0.1,0.1,0.4,0.2,0.8h0.1
			c0.4-0.6,1-0.9,1.8-0.9c0.7,0,1.3,0.3,1.7,0.8s0.6,1.3,0.6,2.3c0,1-0.2,1.7-0.6,2.3C65.1,62.1,64.5,62.4,63.8,62.4z M63.5,57.3
			c-0.5,0-0.9,0.1-1.1,0.4c-0.2,0.3-0.3,0.8-0.3,1.4v0.2c0,0.7,0.1,1.2,0.3,1.6c0.2,0.3,0.6,0.5,1.1,0.5c0.4,0,0.8-0.2,1-0.5
			c0.2-0.4,0.4-0.9,0.4-1.5c0-0.7-0.1-1.2-0.4-1.5C64.3,57.4,64,57.3,63.5,57.3z"/>
		<path class="st1" d="M70.2,62.4c-0.9,0-1.6-0.3-2.2-0.8s-0.8-1.3-0.8-2.2c0-1,0.2-1.7,0.7-2.3c0.5-0.6,1.1-0.8,2-0.8
			c0.8,0,1.4,0.2,1.9,0.7s0.7,1.1,0.7,2v0.7h-3.9c0,0.6,0.2,1,0.5,1.3s0.7,0.5,1.2,0.5c0.3,0,0.7,0,1-0.1c0.3-0.1,0.6-0.2,1-0.3v1
			c-0.3,0.1-0.6,0.2-0.9,0.3C71,62.3,70.6,62.4,70.2,62.4z M70,57.2c-0.4,0-0.7,0.1-1,0.4c-0.2,0.3-0.4,0.6-0.4,1.1h2.7
			c0-0.5-0.1-0.9-0.4-1.1C70.7,57.3,70.4,57.2,70,57.2z"/>
		<path class="st1" d="M76.7,54.8c0-0.2,0.1-0.4,0.2-0.5c0.1-0.1,0.3-0.2,0.5-0.2c0.2,0,0.4,0.1,0.5,0.2c0.1,0.1,0.2,0.3,0.2,0.5
			c0,0.2-0.1,0.4-0.2,0.5c-0.1,0.1-0.3,0.2-0.5,0.2c-0.2,0-0.4-0.1-0.5-0.2S76.7,55,76.7,54.8z M78.1,62.3h-1.3v-5.9h1.3V62.3z"/>
		<path class="st1" d="M83.8,60.6c0,0.6-0.2,1-0.6,1.3s-1,0.5-1.8,0.5c-0.8,0-1.4-0.1-1.9-0.4v-1.1c0.7,0.3,1.3,0.5,1.9,0.5
			c0.8,0,1.2-0.2,1.2-0.7c0-0.1,0-0.3-0.1-0.4c-0.1-0.1-0.2-0.2-0.4-0.3c-0.2-0.1-0.5-0.2-0.8-0.4c-0.7-0.3-1.1-0.5-1.4-0.8
			s-0.4-0.6-0.4-1c0-0.5,0.2-0.9,0.6-1.2s1-0.4,1.7-0.4c0.7,0,1.4,0.1,2,0.4l-0.4,0.9c-0.6-0.3-1.2-0.4-1.6-0.4c-0.7,0-1,0.2-1,0.6
			c0,0.2,0.1,0.3,0.3,0.5c0.2,0.1,0.6,0.3,1.1,0.5c0.5,0.2,0.8,0.4,1.1,0.5s0.4,0.3,0.5,0.5C83.8,60,83.8,60.3,83.8,60.6z"/>
		<path class="st1" d="M93.3,59.3c0,1-0.2,1.7-0.7,2.3c-0.5,0.5-1.2,0.8-2.1,0.8c-0.6,0-1-0.1-1.5-0.4c-0.4-0.3-0.8-0.6-1-1.1
			c-0.2-0.5-0.3-1-0.3-1.6c0-1,0.2-1.7,0.7-2.2c0.5-0.5,1.2-0.8,2.1-0.8c0.9,0,1.5,0.3,2,0.8C93,57.6,93.3,58.3,93.3,59.3z M89,59.3
			c0,1.4,0.5,2,1.5,2c1,0,1.5-0.7,1.5-2c0-1.4-0.5-2-1.5-2c-0.5,0-0.9,0.2-1.1,0.5S89,58.6,89,59.3z"/>
		<path class="st1" d="M97.7,57.3h-1.4v5H95v-5h-1v-0.6l1-0.4v-0.4c0-0.7,0.2-1.2,0.5-1.6c0.3-0.3,0.8-0.5,1.5-0.5
			c0.4,0,0.9,0.1,1.3,0.2L98,55c-0.3-0.1-0.6-0.1-0.9-0.1c-0.3,0-0.5,0.1-0.6,0.3c-0.1,0.2-0.2,0.4-0.2,0.8v0.4h1.4V57.3z"/>
		<path class="st1" d="M105.3,62.3l-0.3-0.8h0c-0.3,0.4-0.6,0.6-0.9,0.7c-0.3,0.1-0.7,0.2-1.1,0.2c-0.6,0-1-0.2-1.4-0.5
			c-0.3-0.3-0.5-0.8-0.5-1.3c0-0.6,0.2-1.1,0.7-1.4s1.1-0.5,2.1-0.5l1,0v-0.3c0-0.4-0.1-0.7-0.3-0.8c-0.2-0.2-0.5-0.3-0.8-0.3
			c-0.3,0-0.6,0-0.9,0.1c-0.3,0.1-0.5,0.2-0.8,0.3l-0.4-0.9c0.3-0.2,0.7-0.3,1.1-0.4c0.4-0.1,0.7-0.1,1.1-0.1c0.8,0,1.3,0.2,1.7,0.5
			c0.4,0.3,0.6,0.8,0.6,1.5v4H105.3z M103.4,61.4c0.5,0,0.8-0.1,1.1-0.4c0.3-0.3,0.4-0.6,0.4-1.1v-0.5l-0.8,0c-0.6,0-1,0.1-1.3,0.3
			c-0.3,0.2-0.4,0.4-0.4,0.8c0,0.3,0.1,0.5,0.2,0.6C102.8,61.3,103.1,61.4,103.4,61.4z"/>
		<path class="st1" d="M110.3,62.4c-0.9,0-1.6-0.3-2-0.8s-0.7-1.3-0.7-2.3c0-1,0.2-1.8,0.7-2.3s1.2-0.8,2.1-0.8
			c0.6,0,1.2,0.1,1.7,0.3l-0.4,1c-0.5-0.2-1-0.3-1.3-0.3c-1,0-1.5,0.7-1.5,2c0,0.7,0.1,1.2,0.4,1.5s0.6,0.5,1.1,0.5
			c0.6,0,1.1-0.1,1.6-0.4V62c-0.2,0.1-0.5,0.2-0.7,0.3S110.7,62.4,110.3,62.4z"/>
		<path class="st1" d="M115.7,62.4c-0.9,0-1.6-0.3-2-0.8s-0.7-1.3-0.7-2.3c0-1,0.2-1.8,0.7-2.3s1.2-0.8,2.1-0.8
			c0.6,0,1.2,0.1,1.7,0.3l-0.4,1c-0.5-0.2-1-0.3-1.3-0.3c-1,0-1.5,0.7-1.5,2c0,0.7,0.1,1.2,0.4,1.5s0.6,0.5,1.1,0.5
			c0.6,0,1.1-0.1,1.6-0.4V62c-0.2,0.1-0.5,0.2-0.7,0.3S116.1,62.4,115.7,62.4z"/>
		<path class="st1" d="M121.4,62.4c-0.9,0-1.6-0.3-2.2-0.8c-0.5-0.5-0.8-1.3-0.8-2.2c0-1,0.2-1.7,0.7-2.3c0.5-0.6,1.1-0.8,2-0.8
			c0.8,0,1.4,0.2,1.9,0.7s0.7,1.1,0.7,2v0.7h-3.9c0,0.6,0.2,1,0.5,1.3s0.7,0.5,1.2,0.5c0.3,0,0.7,0,1-0.1s0.6-0.2,1-0.3v1
			c-0.3,0.1-0.6,0.2-0.9,0.3C122.1,62.3,121.8,62.4,121.4,62.4z M121.1,57.2c-0.4,0-0.7,0.1-1,0.4c-0.2,0.3-0.4,0.6-0.4,1.1h2.7
			c0-0.5-0.1-0.9-0.4-1.1C121.8,57.3,121.5,57.2,121.1,57.2z"/>
		<path class="st1" d="M129.1,60.6c0,0.6-0.2,1-0.6,1.3s-1,0.5-1.8,0.5c-0.8,0-1.4-0.1-1.9-0.4v-1.1c0.7,0.3,1.3,0.5,1.9,0.5
			c0.8,0,1.2-0.2,1.2-0.7c0-0.1,0-0.3-0.1-0.4c-0.1-0.1-0.2-0.2-0.4-0.3c-0.2-0.1-0.5-0.2-0.8-0.4c-0.7-0.3-1.1-0.5-1.4-0.8
			s-0.4-0.6-0.4-1c0-0.5,0.2-0.9,0.6-1.2c0.4-0.3,1-0.4,1.7-0.4c0.7,0,1.4,0.1,2,0.4l-0.4,0.9c-0.6-0.3-1.2-0.4-1.6-0.4
			c-0.7,0-1,0.2-1,0.6c0,0.2,0.1,0.3,0.3,0.5c0.2,0.1,0.6,0.3,1.1,0.5c0.5,0.2,0.8,0.4,1.1,0.5s0.4,0.3,0.5,0.5
			C129,60,129.1,60.3,129.1,60.6z"/>
		<path class="st1" d="M134.4,60.6c0,0.6-0.2,1-0.6,1.3s-1,0.5-1.8,0.5c-0.8,0-1.4-0.1-1.9-0.4v-1.1c0.7,0.3,1.3,0.5,1.9,0.5
			c0.8,0,1.2-0.2,1.2-0.7c0-0.1,0-0.3-0.1-0.4c-0.1-0.1-0.2-0.2-0.4-0.3c-0.2-0.1-0.5-0.2-0.8-0.4c-0.7-0.3-1.1-0.5-1.4-0.8
			s-0.4-0.6-0.4-1c0-0.5,0.2-0.9,0.6-1.2c0.4-0.3,1-0.4,1.7-0.4c0.7,0,1.4,0.1,2,0.4l-0.4,0.9c-0.6-0.3-1.2-0.4-1.6-0.4
			c-0.7,0-1,0.2-1,0.6c0,0.2,0.1,0.3,0.3,0.5c0.2,0.1,0.6,0.3,1.1,0.5c0.5,0.2,0.8,0.4,1.1,0.5s0.4,0.3,0.5,0.5
			C134.3,60,134.4,60.3,134.4,60.6z"/>
		<path class="st1" d="M135.7,54.8c0-0.2,0.1-0.4,0.2-0.5c0.1-0.1,0.3-0.2,0.5-0.2c0.2,0,0.4,0.1,0.5,0.2c0.1,0.1,0.2,0.3,0.2,0.5
			c0,0.2-0.1,0.4-0.2,0.5s-0.3,0.2-0.5,0.2c-0.2,0-0.4-0.1-0.5-0.2S135.7,55,135.7,54.8z M137,62.3h-1.3v-5.9h1.3V62.3z"/>
		<path class="st1" d="M141.8,56.2c0.7,0,1.3,0.3,1.7,0.8s0.6,1.3,0.6,2.3c0,1-0.2,1.7-0.6,2.3c-0.4,0.5-1,0.8-1.7,0.8
			c-0.7,0-1.3-0.3-1.7-0.8H140l-0.2,0.7h-0.9v-8.3h1.3v2c0,0.1,0,0.4,0,0.7c0,0.3,0,0.5,0,0.6h0.1C140.5,56.5,141.1,56.2,141.8,56.2
			z M141.5,57.3c-0.5,0-0.9,0.1-1.1,0.4s-0.3,0.8-0.3,1.5v0.1c0,0.7,0.1,1.2,0.3,1.6c0.2,0.3,0.6,0.5,1.1,0.5c0.4,0,0.8-0.2,1-0.5
			c0.2-0.4,0.3-0.9,0.3-1.5C142.9,57.9,142.4,57.3,141.5,57.3z"/>
		<path class="st1" d="M146.9,62.3h-1.3v-8.3h1.3V62.3z"/>
		<path class="st1" d="M151.3,62.4c-0.9,0-1.6-0.3-2.2-0.8c-0.5-0.5-0.8-1.3-0.8-2.2c0-1,0.2-1.7,0.7-2.3c0.5-0.6,1.1-0.8,2-0.8
			c0.8,0,1.4,0.2,1.9,0.7s0.7,1.1,0.7,2v0.7h-3.9c0,0.6,0.2,1,0.5,1.3s0.7,0.5,1.2,0.5c0.3,0,0.7,0,1-0.1s0.6-0.2,1-0.3v1
			c-0.3,0.1-0.6,0.2-0.9,0.3C152,62.3,151.7,62.4,151.3,62.4z M151,57.2c-0.4,0-0.7,0.1-1,0.4c-0.2,0.3-0.4,0.6-0.4,1.1h2.7
			c0-0.5-0.1-0.9-0.4-1.1C151.8,57.3,151.4,57.2,151,57.2z"/>
		<path class="st1" d="M42.1,68.6c0.7,0,1.3,0.3,1.7,0.8s0.6,1.3,0.6,2.3c0,1-0.2,1.7-0.6,2.3c-0.4,0.5-1,0.8-1.7,0.8
			c-0.7,0-1.3-0.3-1.7-0.8h-0.1L40,74.6h-0.9v-8.3h1.3v2c0,0.1,0,0.4,0,0.7s0,0.5,0,0.6h0.1C40.7,68.9,41.3,68.6,42.1,68.6z
			 M41.8,69.6c-0.5,0-0.9,0.1-1.1,0.4s-0.3,0.8-0.3,1.5v0.1c0,0.7,0.1,1.2,0.3,1.6c0.2,0.3,0.6,0.5,1.1,0.5c0.4,0,0.8-0.2,1-0.5
			c0.2-0.4,0.3-0.9,0.3-1.5C43.1,70.3,42.7,69.6,41.8,69.6z"/>
		<path class="st1" d="M50.1,74.6l-0.2-0.8h-0.1c-0.2,0.3-0.4,0.5-0.7,0.6c-0.3,0.2-0.7,0.2-1.1,0.2c-0.7,0-1.3-0.2-1.6-0.5
			c-0.4-0.4-0.5-0.9-0.5-1.6v-3.9h1.3v3.6c0,0.5,0.1,0.8,0.3,1s0.5,0.3,0.9,0.3c0.5,0,0.9-0.2,1.2-0.5c0.2-0.3,0.4-0.8,0.4-1.6v-2.9
			h1.3v5.9H50.1z"/>
		<path class="st1" d="M52.8,67.2c0-0.2,0.1-0.4,0.2-0.5c0.1-0.1,0.3-0.2,0.5-0.2c0.2,0,0.4,0.1,0.5,0.2c0.1,0.1,0.2,0.3,0.2,0.5
			c0,0.2-0.1,0.4-0.2,0.5c-0.1,0.1-0.3,0.2-0.5,0.2c-0.2,0-0.4-0.1-0.5-0.2S52.8,67.4,52.8,67.2z M54.1,74.6h-1.3v-5.9h1.3V74.6z"/>
		<path class="st1" d="M57.2,74.6h-1.3v-8.3h1.3V74.6z"/>
		<path class="st1" d="M61,74.7c-0.7,0-1.3-0.3-1.7-0.8c-0.4-0.5-0.6-1.3-0.6-2.3c0-1,0.2-1.7,0.6-2.3c0.4-0.5,1-0.8,1.7-0.8
			c0.8,0,1.4,0.3,1.8,0.9h0.1c-0.1-0.4-0.1-0.8-0.1-1v-2.2H64v8.3h-1l-0.2-0.8h-0.1C62.3,74.5,61.7,74.7,61,74.7z M61.3,73.7
			c0.5,0,0.9-0.1,1.1-0.4s0.4-0.8,0.4-1.4v-0.2c0-0.7-0.1-1.3-0.4-1.6c-0.2-0.3-0.6-0.5-1.1-0.5c-0.4,0-0.8,0.2-1,0.5
			c-0.2,0.4-0.4,0.9-0.4,1.5c0,0.7,0.1,1.2,0.3,1.5C60.5,73.6,60.8,73.7,61.3,73.7z"/>
		<path class="st1" d="M65.7,67.2c0-0.2,0.1-0.4,0.2-0.5c0.1-0.1,0.3-0.2,0.5-0.2c0.2,0,0.4,0.1,0.5,0.2c0.1,0.1,0.2,0.3,0.2,0.5
			c0,0.2-0.1,0.4-0.2,0.5c-0.1,0.1-0.3,0.2-0.5,0.2c-0.2,0-0.4-0.1-0.5-0.2S65.7,67.4,65.7,67.2z M67,74.6h-1.3v-5.9H67V74.6z"/>
		<path class="st1" d="M74.1,74.6h-1.3V71c0-0.5-0.1-0.8-0.3-1c-0.2-0.2-0.5-0.3-0.9-0.3c-0.5,0-0.9,0.2-1.2,0.5
			c-0.2,0.3-0.4,0.8-0.4,1.6v2.9h-1.3v-5.9h1l0.2,0.8h0.1c0.2-0.3,0.4-0.5,0.8-0.7c0.3-0.2,0.7-0.2,1.1-0.2c1.4,0,2.1,0.7,2.1,2.2
			V74.6z"/>
		<path class="st1" d="M80.8,68.7v0.7l-1,0.2c0.1,0.1,0.2,0.3,0.2,0.5c0.1,0.2,0.1,0.4,0.1,0.6c0,0.6-0.2,1.1-0.6,1.4
			c-0.4,0.3-1,0.5-1.7,0.5c-0.2,0-0.4,0-0.5,0c-0.3,0.2-0.4,0.4-0.4,0.6c0,0.1,0.1,0.2,0.2,0.3c0.1,0.1,0.4,0.1,0.7,0.1h1
			c0.7,0,1.1,0.1,1.5,0.4s0.5,0.7,0.5,1.2c0,0.7-0.3,1.2-0.8,1.6c-0.6,0.4-1.4,0.5-2.4,0.5c-0.8,0-1.4-0.1-1.8-0.4
			c-0.4-0.3-0.6-0.7-0.6-1.2c0-0.4,0.1-0.7,0.3-0.9c0.2-0.2,0.6-0.4,1-0.5c-0.2-0.1-0.3-0.2-0.4-0.3c-0.1-0.2-0.2-0.3-0.2-0.5
			c0-0.2,0.1-0.4,0.2-0.6s0.3-0.3,0.6-0.5c-0.3-0.1-0.6-0.3-0.7-0.6s-0.3-0.6-0.3-1c0-0.6,0.2-1.1,0.6-1.5c0.4-0.4,1-0.5,1.7-0.5
			c0.2,0,0.3,0,0.5,0c0.2,0,0.3,0,0.4,0.1H80.8z M76.1,75.6c0,0.3,0.1,0.5,0.4,0.6c0.2,0.1,0.6,0.2,1,0.2c0.7,0,1.2-0.1,1.5-0.3
			s0.5-0.5,0.5-0.8c0-0.3-0.1-0.4-0.3-0.5c-0.2-0.1-0.5-0.2-1-0.2h-1c-0.4,0-0.6,0.1-0.9,0.3C76.3,75,76.1,75.3,76.1,75.6z
			 M76.7,70.6c0,0.4,0.1,0.7,0.3,0.9c0.2,0.2,0.5,0.3,0.8,0.3c0.7,0,1.1-0.4,1.1-1.2c0-0.4-0.1-0.7-0.3-0.9s-0.5-0.3-0.8-0.3
			c-0.4,0-0.6,0.1-0.8,0.3C76.8,69.9,76.7,70.2,76.7,70.6z"/>
		<path class="st1" d="M87.3,74.7c-0.9,0-1.6-0.3-2.2-0.8s-0.8-1.3-0.8-2.2c0-1,0.2-1.7,0.7-2.3c0.5-0.6,1.1-0.8,2-0.8
			c0.8,0,1.4,0.2,1.9,0.7s0.7,1.1,0.7,2V72h-3.9c0,0.6,0.2,1,0.5,1.3c0.3,0.3,0.7,0.5,1.2,0.5c0.3,0,0.7,0,1-0.1
			c0.3-0.1,0.6-0.2,1-0.3v1c-0.3,0.1-0.6,0.2-0.9,0.3C88.1,74.7,87.7,74.7,87.3,74.7z M87.1,69.6c-0.4,0-0.7,0.1-1,0.4
			c-0.2,0.3-0.4,0.6-0.4,1.1h2.7c0-0.5-0.1-0.9-0.4-1.1C87.8,69.7,87.5,69.6,87.1,69.6z"/>
		<path class="st1" d="M96.3,74.6H95V71c0-0.5-0.1-0.8-0.3-1c-0.2-0.2-0.5-0.3-0.9-0.3c-0.5,0-0.9,0.2-1.2,0.5
			c-0.2,0.3-0.4,0.8-0.4,1.6v2.9h-1.3v-5.9h1l0.2,0.8h0.1c0.2-0.3,0.4-0.5,0.8-0.7s0.7-0.2,1.1-0.2c1.4,0,2.1,0.7,2.1,2.2V74.6z"/>
		<path class="st1" d="M100.2,73.7c0.3,0,0.6,0,0.9-0.1v0.9c-0.1,0.1-0.3,0.1-0.5,0.2c-0.2,0-0.4,0.1-0.7,0.1
			c-1.2,0-1.8-0.6-1.8-1.9v-3.2h-0.8v-0.6l0.9-0.5l0.4-1.3h0.8v1.3h1.7v1h-1.7v3.2c0,0.3,0.1,0.5,0.2,0.7
			C99.8,73.7,100,73.7,100.2,73.7z"/>
		<path class="st1" d="M105.3,68.6c0.3,0,0.5,0,0.6,0.1l-0.1,1.2c-0.2,0-0.4-0.1-0.6-0.1c-0.5,0-0.9,0.2-1.2,0.5
			c-0.3,0.3-0.5,0.8-0.5,1.3v3.1h-1.3v-5.9h1l0.2,1h0.1c0.2-0.4,0.5-0.6,0.8-0.8C104.6,68.7,105,68.6,105.3,68.6z"/>
		<path class="st1" d="M110.8,74.6l-0.3-0.8h0c-0.3,0.4-0.6,0.6-0.9,0.7c-0.3,0.1-0.7,0.2-1.1,0.2c-0.6,0-1-0.2-1.4-0.5
			c-0.3-0.3-0.5-0.8-0.5-1.3c0-0.6,0.2-1.1,0.7-1.4s1.1-0.5,2.1-0.5l1,0v-0.3c0-0.4-0.1-0.7-0.3-0.8c-0.2-0.2-0.5-0.3-0.8-0.3
			c-0.3,0-0.6,0-0.9,0.1c-0.3,0.1-0.5,0.2-0.8,0.3l-0.4-0.9c0.3-0.2,0.7-0.3,1.1-0.4c0.4-0.1,0.7-0.1,1.1-0.1c0.8,0,1.3,0.2,1.7,0.5
			c0.4,0.3,0.6,0.8,0.6,1.5v4H110.8z M108.9,73.8c0.5,0,0.8-0.1,1.1-0.4c0.3-0.3,0.4-0.6,0.4-1.1v-0.5l-0.8,0c-0.6,0-1,0.1-1.3,0.3
			c-0.3,0.2-0.4,0.4-0.4,0.8c0,0.3,0.1,0.5,0.2,0.6C108.3,73.7,108.6,73.8,108.9,73.8z"/>
		<path class="st1" d="M118.6,74.6h-1.3V71c0-0.5-0.1-0.8-0.3-1c-0.2-0.2-0.5-0.3-0.9-0.3c-0.5,0-0.9,0.2-1.2,0.5
			c-0.2,0.3-0.4,0.8-0.4,1.6v2.9h-1.3v-5.9h1l0.2,0.8h0.1c0.2-0.3,0.4-0.5,0.8-0.7s0.7-0.2,1.1-0.2c1.4,0,2.1,0.7,2.1,2.2V74.6z"/>
		<path class="st1" d="M122.8,74.7c-0.9,0-1.6-0.3-2-0.8s-0.7-1.3-0.7-2.3c0-1,0.2-1.8,0.7-2.3s1.2-0.8,2.1-0.8
			c0.6,0,1.2,0.1,1.7,0.3l-0.4,1c-0.5-0.2-1-0.3-1.3-0.3c-1,0-1.5,0.7-1.5,2c0,0.7,0.1,1.2,0.4,1.5s0.6,0.5,1.1,0.5
			c0.6,0,1.1-0.1,1.6-0.4v1.1c-0.2,0.1-0.5,0.2-0.7,0.3S123.1,74.7,122.8,74.7z"/>
		<path class="st1" d="M128.4,74.7c-0.9,0-1.6-0.3-2.2-0.8c-0.5-0.5-0.8-1.3-0.8-2.2c0-1,0.2-1.7,0.7-2.3c0.5-0.6,1.1-0.8,2-0.8
			c0.8,0,1.4,0.2,1.9,0.7s0.7,1.1,0.7,2V72h-3.9c0,0.6,0.2,1,0.5,1.3s0.7,0.5,1.2,0.5c0.3,0,0.7,0,1-0.1s0.6-0.2,1-0.3v1
			c-0.3,0.1-0.6,0.2-0.9,0.3C129.1,74.7,128.8,74.7,128.4,74.7z M128.1,69.6c-0.4,0-0.7,0.1-1,0.4c-0.2,0.3-0.4,0.6-0.4,1.1h2.7
			c0-0.5-0.1-0.9-0.4-1.1C128.9,69.7,128.5,69.6,128.1,69.6z"/>
	</g>
</g>
</svg>
