<?xml version="1.0" encoding="utf-8"?>
<!-- Generator: Adobe Illustrator 23.1.0, SVG Export Plug-In . SVG Version: 6.00 Build 0)  -->
<svg version="1.1" id="Layer_1" xmlns="http://www.w3.org/2000/svg" xmlns:xlink="http://www.w3.org/1999/xlink" x="0px" y="0px"
	 viewBox="0 0 169.5 86.2" style="enable-background:new 0 0 169.5 86.2;" xml:space="preserve">
<style type="text/css">
	.st0{fill:#4B1212;}
	.st1{fill:#434343;}
</style>
<g>
	<g>
		<g>
			<path class="st0" d="M21.5,45.2V12.9l-6,2.1V9.2c1.4-0.6,2.8-1.2,4.4-2.1c1.6-0.8,2.7-1.6,3.4-2.4h6v40.5H21.5z"/>
			<path class="st0" d="M52.3,45.2V4.8H65c7,0,10.5,3.9,10.5,11.6c0,2.1-0.3,3.9-0.8,5.4c-0.6,1.5-1.4,2.7-2.4,3.5
				c-1,0.8-2.2,1.4-3.5,1.8s-2.8,0.5-4.5,0.5h-3.7v17.6H52.3z M60.5,21.9h2.6c1.8,0,3-0.4,3.7-1.2c0.6-0.8,0.9-2.3,0.9-4.3
				c0-1.1,0-1.9-0.1-2.5c-0.1-0.6-0.3-1.2-0.6-1.7c-0.3-0.5-0.8-0.9-1.4-1.2c-0.6-0.2-1.5-0.3-2.5-0.3h-2.6V21.9z"/>
			<path class="st0" d="M83.4,45.2V10.8h-6.5V4.8H98v6.1h-6.4v34.4H83.4z"/>
		</g>
		<g>
			<path class="st1" d="M126.2,27.9V15.7h3.8c2.1,0,3.2,1.2,3.2,3.5c0,0.6-0.1,1.2-0.2,1.6c-0.2,0.4-0.4,0.8-0.7,1
				c-0.3,0.3-0.7,0.4-1.1,0.5c-0.4,0.1-0.8,0.2-1.4,0.2h-1.1v5.3H126.2z M128.7,20.9h0.8c0.5,0,0.9-0.1,1.1-0.4
				c0.2-0.2,0.3-0.7,0.3-1.3c0-0.3,0-0.6,0-0.8c0-0.2-0.1-0.4-0.2-0.5c-0.1-0.2-0.2-0.3-0.4-0.3c-0.2-0.1-0.4-0.1-0.7-0.1h-0.8V20.9
				z"/>
			<path class="st1" d="M134.4,27.9V15.7h5.3v1.7h-2.8v3.2h2.2v1.7h-2.2v3.8h2.8v1.7H134.4z"/>
			<path class="st1" d="M141,27.9V15.7h3.1c0.6,0,1.2,0.1,1.7,0.2s0.9,0.3,1.2,0.5c0.4,0.2,0.6,0.6,0.8,1c0.2,0.4,0.3,0.9,0.3,1.6
				c0,0.8-0.1,1.4-0.3,1.9c-0.2,0.5-0.6,0.8-1.1,1.1l1.7,5.9h-2.5l-1.4-5.5h-0.9v5.5H141z M143.5,20.9h0.6c0.6,0,1-0.1,1.3-0.4
				s0.4-0.7,0.4-1.3c0-0.6-0.1-1-0.3-1.3c-0.2-0.3-0.6-0.4-1.2-0.4h-0.8V20.9z"/>
			<path class="st1" d="M112.4,40.9V28.7h5.1v1.7h-2.7v3.3h2.2v1.7h-2.2v5.4H112.4z"/>
			<path class="st1" d="M118.8,40.9V28.7h5.3v1.7h-2.8v3.2h2.2v1.7h-2.2v3.8h2.8v1.7H118.8z"/>
			<path class="st1" d="M124.8,40.9l2.4-12.1h2.7l2.4,12.1h-2.3l-0.4-2.7h-1.9l-0.4,2.7H124.8z M127.8,36.7h1.4l-0.7-4.8L127.8,36.7
				z"/>
			<path class="st1" d="M134.2,40.9V30.6h-1.9v-1.8h6.3v1.8h-1.9v10.3H134.2z"/>
			<path class="st1" d="M143,41.1c-0.7,0-1.2-0.1-1.7-0.3c-0.5-0.2-0.8-0.4-1.1-0.8c-0.3-0.4-0.4-0.8-0.6-1.3
				c-0.1-0.5-0.2-1.1-0.2-1.7v-8.2h2.4v8.5c0,0.2,0,0.4,0,0.6c0,0.2,0,0.3,0.1,0.5c0,0.2,0.1,0.3,0.2,0.5c0.1,0.1,0.2,0.2,0.3,0.3
				s0.3,0.1,0.5,0.1s0.4,0,0.5-0.1c0.1-0.1,0.2-0.2,0.3-0.3c0.1-0.1,0.1-0.3,0.2-0.5s0.1-0.4,0.1-0.5s0-0.4,0-0.6v-8.5h2.4V37
				c0,0.7-0.1,1.3-0.2,1.7c-0.1,0.5-0.3,0.9-0.5,1.3s-0.6,0.6-1.1,0.8C144.3,41,143.7,41.1,143,41.1z"/>
			<path class="st1" d="M148.2,40.9V28.7h3.1c0.6,0,1.2,0.1,1.7,0.2s0.9,0.3,1.2,0.5c0.4,0.2,0.6,0.6,0.8,1c0.2,0.4,0.3,0.9,0.3,1.6
				c0,0.8-0.1,1.4-0.3,1.9c-0.2,0.5-0.6,0.8-1.1,1.1l1.7,5.9h-2.5l-1.4-5.5h-0.9v5.5H148.2z M150.7,33.9h0.6c0.6,0,1-0.1,1.3-0.4
				s0.4-0.7,0.4-1.3c0-0.6-0.1-1-0.3-1.3c-0.2-0.3-0.6-0.4-1.2-0.4h-0.8V33.9z"/>
			<path class="st1" d="M156.9,40.9V28.7h5.3v1.7h-2.8v3.2h2.2v1.7h-2.2v3.8h2.8v1.7H156.9z"/>
		</g>
	</g>
	<g>
		<path class="st1" d="M12.7,64.2V56H14v8.2H12.7z"/>
		<path class="st1" d="M19.2,59h-1.5v5.2h-1.3V59h-1v-0.6l1-0.4v-0.4c0-0.7,0.2-1.3,0.5-1.6c0.3-0.4,0.9-0.5,1.6-0.5
			c0.5,0,0.9,0.1,1.4,0.2l-0.3,1c-0.3-0.1-0.6-0.2-0.9-0.2c-0.3,0-0.5,0.1-0.7,0.3s-0.2,0.5-0.2,0.8V58h1.5V59z"/>
		<path class="st1" d="M27.4,62.5c0,0.6-0.2,1.1-0.7,1.4c-0.4,0.3-1.1,0.5-1.9,0.5c-0.8,0-1.5-0.1-2-0.4v-1.1c0.7,0.3,1.4,0.5,2,0.5
			c0.8,0,1.2-0.2,1.2-0.7c0-0.2,0-0.3-0.1-0.4c-0.1-0.1-0.2-0.2-0.4-0.3c-0.2-0.1-0.5-0.2-0.9-0.4c-0.7-0.3-1.2-0.6-1.5-0.8
			c-0.3-0.3-0.4-0.6-0.4-1.1c0-0.5,0.2-0.9,0.6-1.2s1-0.4,1.7-0.4c0.7,0,1.4,0.1,2.1,0.4l-0.4,1c-0.7-0.3-1.2-0.4-1.7-0.4
			c-0.7,0-1,0.2-1,0.6c0,0.2,0.1,0.4,0.3,0.5s0.6,0.3,1.2,0.6c0.5,0.2,0.9,0.4,1.1,0.5c0.2,0.2,0.4,0.4,0.5,0.6
			C27.3,61.9,27.4,62.2,27.4,62.5z"/>
		<path class="st1" d="M28.8,56.4c0-0.2,0.1-0.4,0.2-0.5c0.1-0.1,0.3-0.2,0.6-0.2c0.2,0,0.4,0.1,0.5,0.2c0.1,0.1,0.2,0.3,0.2,0.5
			c0,0.2-0.1,0.4-0.2,0.5c-0.1,0.1-0.3,0.2-0.5,0.2c-0.2,0-0.4-0.1-0.6-0.2C28.8,56.8,28.8,56.6,28.8,56.4z M30.2,64.2h-1.3V58h1.3
			V64.2z"/>
		<path class="st1" d="M37.3,58v0.7l-1.1,0.2c0.1,0.1,0.2,0.3,0.2,0.5c0.1,0.2,0.1,0.4,0.1,0.6c0,0.6-0.2,1.1-0.7,1.5
			c-0.4,0.4-1,0.5-1.8,0.5c-0.2,0-0.4,0-0.5,0c-0.3,0.2-0.4,0.4-0.4,0.6c0,0.1,0.1,0.2,0.2,0.3s0.4,0.1,0.7,0.1h1.1
			c0.7,0,1.2,0.1,1.6,0.4c0.4,0.3,0.5,0.7,0.5,1.3c0,0.7-0.3,1.2-0.9,1.6c-0.6,0.4-1.4,0.6-2.5,0.6c-0.8,0-1.5-0.1-1.9-0.4
			c-0.4-0.3-0.7-0.7-0.7-1.3c0-0.4,0.1-0.7,0.4-1c0.2-0.3,0.6-0.4,1-0.5c-0.2-0.1-0.3-0.2-0.4-0.4C32,63.2,32,63.1,32,62.9
			c0-0.2,0.1-0.4,0.2-0.6c0.1-0.2,0.3-0.3,0.6-0.5c-0.3-0.1-0.6-0.4-0.8-0.7c-0.2-0.3-0.3-0.7-0.3-1.1c0-0.7,0.2-1.2,0.6-1.6
			c0.4-0.4,1-0.6,1.8-0.6c0.2,0,0.4,0,0.6,0s0.3,0,0.4,0.1H37.3z M32.4,65.2c0,0.3,0.1,0.5,0.4,0.7s0.6,0.2,1.1,0.2
			c0.7,0,1.3-0.1,1.6-0.3c0.4-0.2,0.5-0.5,0.5-0.8c0-0.3-0.1-0.5-0.3-0.6s-0.6-0.2-1.1-0.2h-1c-0.4,0-0.7,0.1-0.9,0.3
			S32.4,64.9,32.4,65.2z M33,60c0,0.4,0.1,0.7,0.3,0.9c0.2,0.2,0.5,0.3,0.9,0.3c0.8,0,1.1-0.4,1.1-1.2c0-0.4-0.1-0.7-0.3-0.9
			c-0.2-0.2-0.5-0.3-0.9-0.3c-0.4,0-0.7,0.1-0.9,0.3C33.1,59.3,33,59.6,33,60z"/>
		<path class="st1" d="M43.9,64.2h-1.3v-3.8c0-0.5-0.1-0.8-0.3-1.1c-0.2-0.2-0.5-0.4-0.9-0.4c-0.6,0-1,0.2-1.2,0.5
			c-0.3,0.3-0.4,0.9-0.4,1.7v3.1h-1.3V58h1l0.2,0.8h0.1c0.2-0.3,0.5-0.5,0.8-0.7c0.3-0.2,0.7-0.2,1.1-0.2c1.5,0,2.2,0.8,2.2,2.3
			V64.2z"/>
		<path class="st1" d="M48.6,56.4c0-0.2,0.1-0.4,0.2-0.5c0.1-0.1,0.3-0.2,0.6-0.2c0.2,0,0.4,0.1,0.5,0.2c0.1,0.1,0.2,0.3,0.2,0.5
			c0,0.2-0.1,0.4-0.2,0.5c-0.1,0.1-0.3,0.2-0.5,0.2c-0.2,0-0.4-0.1-0.6-0.2C48.7,56.8,48.6,56.6,48.6,56.4z M50,64.2h-1.3V58H50
			V64.2z"/>
		<path class="st1" d="M56.1,62.5c0,0.6-0.2,1.1-0.7,1.4c-0.4,0.3-1.1,0.5-1.9,0.5c-0.8,0-1.5-0.1-2-0.4v-1.1c0.7,0.3,1.4,0.5,2,0.5
			c0.8,0,1.2-0.2,1.2-0.7c0-0.2,0-0.3-0.1-0.4c-0.1-0.1-0.2-0.2-0.4-0.3c-0.2-0.1-0.5-0.2-0.9-0.4c-0.7-0.3-1.2-0.6-1.5-0.8
			c-0.3-0.3-0.4-0.6-0.4-1.1c0-0.5,0.2-0.9,0.6-1.2s1-0.4,1.7-0.4c0.7,0,1.4,0.1,2.1,0.4l-0.4,1c-0.7-0.3-1.2-0.4-1.7-0.4
			c-0.7,0-1,0.2-1,0.6c0,0.2,0.1,0.4,0.3,0.5s0.6,0.3,1.2,0.6c0.5,0.2,0.9,0.4,1.1,0.5c0.2,0.2,0.4,0.4,0.5,0.6
			C56,61.9,56.1,62.2,56.1,62.5z"/>
		<path class="st1" d="M66,61.1c0,1-0.3,1.8-0.8,2.4c-0.5,0.6-1.2,0.9-2.2,0.9c-0.6,0-1.1-0.1-1.5-0.4c-0.4-0.3-0.8-0.6-1-1.1
			s-0.4-1.1-0.4-1.7c0-1,0.3-1.8,0.8-2.4s1.2-0.8,2.2-0.8c0.9,0,1.6,0.3,2.1,0.9C65.8,59.4,66,60.1,66,61.1z M61.5,61.1
			c0,1.4,0.5,2.2,1.6,2.2c1,0,1.6-0.7,1.6-2.2c0-1.4-0.5-2.1-1.6-2.1c-0.6,0-1,0.2-1.2,0.5C61.6,59.9,61.5,60.4,61.5,61.1z"/>
		<path class="st1" d="M70.7,59h-1.5v5.2h-1.3V59h-1v-0.6l1-0.4v-0.4c0-0.7,0.2-1.3,0.5-1.6c0.3-0.4,0.9-0.5,1.6-0.5
			c0.5,0,0.9,0.1,1.4,0.2l-0.3,1c-0.3-0.1-0.6-0.2-0.9-0.2c-0.3,0-0.5,0.1-0.7,0.3s-0.2,0.5-0.2,0.8V58h1.5V59z"/>
		<path class="st1" d="M77.8,64.4c-0.8,0-1.4-0.3-1.8-0.8h-0.1c0.1,0.5,0.1,0.8,0.1,1V67h-1.3v-9h1.1c0,0.1,0.1,0.4,0.2,0.8H76
			c0.4-0.6,1-0.9,1.9-0.9c0.8,0,1.4,0.3,1.8,0.8c0.4,0.6,0.6,1.3,0.6,2.4s-0.2,1.8-0.7,2.4C79.2,64.1,78.6,64.4,77.8,64.4z M77.5,59
			c-0.5,0-0.9,0.2-1.1,0.5c-0.2,0.3-0.4,0.8-0.4,1.5v0.2c0,0.8,0.1,1.3,0.4,1.6c0.2,0.3,0.6,0.5,1.2,0.5c0.5,0,0.8-0.2,1.1-0.6
			c0.2-0.4,0.4-0.9,0.4-1.6c0-0.7-0.1-1.2-0.4-1.6S78,59,77.5,59z"/>
		<path class="st1" d="M85.7,64.2l-0.3-0.9h0c-0.3,0.4-0.6,0.6-0.9,0.8s-0.7,0.2-1.2,0.2c-0.6,0-1.1-0.2-1.4-0.5
			c-0.3-0.3-0.5-0.8-0.5-1.4c0-0.6,0.2-1.1,0.7-1.4c0.5-0.3,1.2-0.5,2.2-0.5l1.1,0v-0.3c0-0.4-0.1-0.7-0.3-0.9
			c-0.2-0.2-0.5-0.3-0.9-0.3c-0.3,0-0.6,0-0.9,0.1c-0.3,0.1-0.6,0.2-0.8,0.3l-0.4-0.9c0.3-0.2,0.7-0.3,1.1-0.4s0.8-0.1,1.1-0.1
			c0.8,0,1.4,0.2,1.8,0.5c0.4,0.3,0.6,0.9,0.6,1.6v4.2H85.7z M83.8,63.3c0.5,0,0.9-0.1,1.2-0.4s0.4-0.6,0.4-1.1v-0.5l-0.8,0
			c-0.6,0-1.1,0.1-1.4,0.3s-0.4,0.5-0.4,0.9c0,0.3,0.1,0.5,0.2,0.6C83.2,63.3,83.5,63.3,83.8,63.3z"/>
		<path class="st1" d="M91.7,57.9c0.3,0,0.5,0,0.7,0.1l-0.1,1.2c-0.2,0-0.4-0.1-0.6-0.1c-0.5,0-1,0.2-1.3,0.5
			C90,60,89.9,60.4,89.9,61v3.2h-1.3V58h1l0.2,1.1h0.1c0.2-0.4,0.5-0.7,0.8-0.9C90.9,58,91.3,57.9,91.7,57.9z"/>
		<path class="st1" d="M94.8,61l0.7-0.9l1.9-2h1.5l-2.5,2.7l2.7,3.5h-1.5l-2-2.7l-0.7,0.6v2.1h-1.3v-8.7h1.3v4.3L94.8,61L94.8,61z"
			/>
		<path class="st1" d="M100,56.4c0-0.2,0.1-0.4,0.2-0.5c0.1-0.1,0.3-0.2,0.6-0.2c0.2,0,0.4,0.1,0.5,0.2c0.1,0.1,0.2,0.3,0.2,0.5
			c0,0.2-0.1,0.4-0.2,0.5c-0.1,0.1-0.3,0.2-0.5,0.2c-0.2,0-0.4-0.1-0.6-0.2C100.1,56.8,100,56.6,100,56.4z M101.4,64.2h-1.3V58h1.3
			V64.2z"/>
		<path class="st1" d="M108.7,64.2h-1.3v-3.8c0-0.5-0.1-0.8-0.3-1.1c-0.2-0.2-0.5-0.4-0.9-0.4c-0.6,0-1,0.2-1.2,0.5
			c-0.3,0.3-0.4,0.9-0.4,1.7v3.1h-1.3V58h1l0.2,0.8h0.1c0.2-0.3,0.5-0.5,0.8-0.7s0.7-0.2,1.1-0.2c1.5,0,2.2,0.8,2.2,2.3V64.2z"/>
		<path class="st1" d="M115.8,58v0.7l-1.1,0.2c0.1,0.1,0.2,0.3,0.2,0.5c0.1,0.2,0.1,0.4,0.1,0.6c0,0.6-0.2,1.1-0.7,1.5
			s-1,0.5-1.8,0.5c-0.2,0-0.4,0-0.5,0c-0.3,0.2-0.4,0.4-0.4,0.6c0,0.1,0.1,0.2,0.2,0.3s0.4,0.1,0.7,0.1h1.1c0.7,0,1.2,0.1,1.6,0.4
			s0.5,0.7,0.5,1.3c0,0.7-0.3,1.2-0.9,1.6s-1.4,0.6-2.5,0.6c-0.8,0-1.5-0.1-1.9-0.4c-0.4-0.3-0.7-0.7-0.7-1.3c0-0.4,0.1-0.7,0.4-1
			c0.2-0.3,0.6-0.4,1-0.5c-0.2-0.1-0.3-0.2-0.4-0.4c-0.1-0.2-0.2-0.3-0.2-0.5c0-0.2,0.1-0.4,0.2-0.6s0.3-0.3,0.6-0.5
			c-0.3-0.1-0.6-0.4-0.8-0.7s-0.3-0.7-0.3-1.1c0-0.7,0.2-1.2,0.6-1.6c0.4-0.4,1-0.6,1.8-0.6c0.2,0,0.4,0,0.6,0c0.2,0,0.3,0,0.4,0.1
			H115.8z M110.9,65.2c0,0.3,0.1,0.5,0.4,0.7c0.3,0.2,0.6,0.2,1.1,0.2c0.7,0,1.3-0.1,1.6-0.3c0.4-0.2,0.5-0.5,0.5-0.8
			c0-0.3-0.1-0.5-0.3-0.6c-0.2-0.1-0.6-0.2-1.1-0.2h-1c-0.4,0-0.7,0.1-0.9,0.3S110.9,64.9,110.9,65.2z M111.5,60
			c0,0.4,0.1,0.7,0.3,0.9c0.2,0.2,0.5,0.3,0.9,0.3c0.8,0,1.1-0.4,1.1-1.2c0-0.4-0.1-0.7-0.3-0.9c-0.2-0.2-0.5-0.3-0.9-0.3
			c-0.4,0-0.7,0.1-0.9,0.3C111.6,59.3,111.5,59.6,111.5,60z"/>
		<path class="st1" d="M121.3,64.2H120v-8.7h1.3V64.2z"/>
		<path class="st1" d="M128.7,61.1c0,1-0.3,1.8-0.8,2.4c-0.5,0.6-1.2,0.9-2.2,0.9c-0.6,0-1.1-0.1-1.5-0.4c-0.4-0.3-0.8-0.6-1-1.1
			c-0.2-0.5-0.4-1.1-0.4-1.7c0-1,0.3-1.8,0.8-2.4s1.2-0.8,2.2-0.8c0.9,0,1.6,0.3,2.1,0.9C128.4,59.4,128.7,60.1,128.7,61.1z
			 M124.1,61.1c0,1.4,0.5,2.2,1.6,2.2c1,0,1.6-0.7,1.6-2.2c0-1.4-0.5-2.1-1.6-2.1c-0.6,0-1,0.2-1.2,0.5
			C124.3,59.9,124.1,60.4,124.1,61.1z"/>
		<path class="st1" d="M132.5,63.3c0.3,0,0.6-0.1,1-0.2v1c-0.1,0.1-0.3,0.1-0.6,0.2s-0.5,0.1-0.7,0.1c-1.3,0-1.9-0.7-1.9-2V59h-0.8
			v-0.6l0.9-0.5l0.4-1.3h0.8V58h1.8v1h-1.8v3.3c0,0.3,0.1,0.6,0.2,0.7S132.2,63.3,132.5,63.3z"/>
		<path class="st1" d="M141.6,64.2l-0.3-0.9h0c-0.3,0.4-0.6,0.6-0.9,0.8c-0.3,0.1-0.7,0.2-1.2,0.2c-0.6,0-1.1-0.2-1.4-0.5
			c-0.3-0.3-0.5-0.8-0.5-1.4c0-0.6,0.2-1.1,0.7-1.4c0.5-0.3,1.2-0.5,2.2-0.5l1.1,0v-0.3c0-0.4-0.1-0.7-0.3-0.9
			c-0.2-0.2-0.5-0.3-0.9-0.3c-0.3,0-0.6,0-0.9,0.1c-0.3,0.1-0.6,0.2-0.8,0.3l-0.4-0.9c0.3-0.2,0.7-0.3,1.1-0.4s0.8-0.1,1.1-0.1
			c0.8,0,1.4,0.2,1.8,0.5c0.4,0.3,0.6,0.9,0.6,1.6v4.2H141.6z M139.6,63.3c0.5,0,0.9-0.1,1.2-0.4s0.4-0.6,0.4-1.1v-0.5l-0.8,0
			c-0.6,0-1.1,0.1-1.4,0.3c-0.3,0.2-0.4,0.5-0.4,0.9c0,0.3,0.1,0.5,0.2,0.6C139,63.3,139.3,63.3,139.6,63.3z"/>
		<path class="st1" d="M149.8,64.2h-1.3v-3.8c0-0.5-0.1-0.8-0.3-1.1c-0.2-0.2-0.5-0.4-0.9-0.4c-0.6,0-1,0.2-1.2,0.5
			c-0.3,0.3-0.4,0.9-0.4,1.7v3.1h-1.3V58h1l0.2,0.8h0.1c0.2-0.3,0.5-0.5,0.8-0.7s0.7-0.2,1.1-0.2c1.5,0,2.2,0.8,2.2,2.3V64.2z"/>
		<path class="st1" d="M153.8,64.4c-0.8,0-1.4-0.3-1.8-0.8c-0.4-0.6-0.7-1.3-0.7-2.4c0-1,0.2-1.8,0.7-2.4c0.4-0.6,1-0.9,1.8-0.9
			c0.8,0,1.4,0.3,1.9,0.9h0.1c-0.1-0.4-0.1-0.8-0.1-1.1v-2.3h1.3v8.7h-1l-0.2-0.8h-0.1C155.2,64,154.6,64.4,153.8,64.4z M154.1,63.3
			c0.5,0,0.9-0.2,1.2-0.5c0.2-0.3,0.4-0.8,0.4-1.5v-0.2c0-0.8-0.1-1.3-0.4-1.7c-0.3-0.3-0.7-0.5-1.2-0.5c-0.5,0-0.8,0.2-1.1,0.6
			c-0.3,0.4-0.4,0.9-0.4,1.6c0,0.7,0.1,1.2,0.4,1.6C153.3,63.1,153.6,63.3,154.1,63.3z"/>
		<path class="st1" d="M32.4,77.2L30.1,71h1.4l1.3,3.6c0.2,0.6,0.3,1.1,0.4,1.5h0c0-0.3,0.2-0.8,0.4-1.5l1.3-3.6h1.4l-2.4,6.2H32.4z
			"/>
		<path class="st1" d="M39.9,77.4c-1,0-1.7-0.3-2.3-0.8c-0.5-0.6-0.8-1.3-0.8-2.3c0-1,0.3-1.8,0.8-2.4c0.5-0.6,1.2-0.9,2.1-0.9
			c0.8,0,1.5,0.2,1.9,0.7c0.5,0.5,0.7,1.2,0.7,2.1v0.7h-4.1c0,0.6,0.2,1.1,0.5,1.4c0.3,0.3,0.7,0.5,1.3,0.5c0.4,0,0.7,0,1-0.1
			s0.7-0.2,1-0.3v1.1c-0.3,0.2-0.6,0.3-1,0.3C40.7,77.3,40.3,77.4,39.9,77.4z M39.6,71.9c-0.4,0-0.8,0.1-1,0.4
			c-0.3,0.3-0.4,0.7-0.5,1.2H41c0-0.5-0.1-0.9-0.4-1.2C40.4,72,40,71.9,39.6,71.9z"/>
		<path class="st1" d="M49.2,77.2h-1.3v-3.8c0-0.5-0.1-0.8-0.3-1.1c-0.2-0.2-0.5-0.4-0.9-0.4c-0.6,0-1,0.2-1.2,0.5
			c-0.3,0.3-0.4,0.9-0.4,1.7v3.1h-1.3v-8.7h1.3v2.2c0,0.4,0,0.7-0.1,1.1h0.1c0.2-0.3,0.4-0.5,0.7-0.7c0.3-0.2,0.7-0.2,1.1-0.2
			c1.5,0,2.3,0.8,2.3,2.3V77.2z"/>
		<path class="st1" d="M51,69.4c0-0.2,0.1-0.4,0.2-0.5c0.1-0.1,0.3-0.2,0.6-0.2c0.2,0,0.4,0.1,0.5,0.2c0.1,0.1,0.2,0.3,0.2,0.5
			c0,0.2-0.1,0.4-0.2,0.5c-0.1,0.1-0.3,0.2-0.5,0.2c-0.2,0-0.4-0.1-0.6-0.2C51.1,69.8,51,69.6,51,69.4z M52.4,77.2h-1.3V71h1.3V77.2
			z"/>
		<path class="st1" d="M56.8,77.4c-0.9,0-1.7-0.3-2.1-0.8c-0.5-0.5-0.7-1.3-0.7-2.4c0-1,0.3-1.8,0.8-2.4c0.5-0.6,1.2-0.8,2.2-0.8
			c0.7,0,1.2,0.1,1.8,0.4l-0.4,1.1c-0.6-0.2-1-0.3-1.4-0.3c-1.1,0-1.6,0.7-1.6,2.1c0,0.7,0.1,1.2,0.4,1.6c0.3,0.3,0.7,0.5,1.2,0.5
			c0.6,0,1.1-0.1,1.7-0.4V77c-0.2,0.1-0.5,0.2-0.8,0.3C57.5,77.3,57.2,77.4,56.8,77.4z"/>
		<path class="st1" d="M64.4,77.2l-0.2-0.8h-0.1c-0.2,0.3-0.4,0.5-0.8,0.7c-0.3,0.2-0.7,0.2-1.2,0.2c-0.8,0-1.3-0.2-1.7-0.6
			c-0.4-0.4-0.6-0.9-0.6-1.7V71h1.3v3.8c0,0.5,0.1,0.8,0.3,1.1c0.2,0.2,0.5,0.4,0.9,0.4c0.6,0,1-0.2,1.2-0.5s0.4-0.9,0.4-1.7V71h1.3
			v6.2H64.4z"/>
		<path class="st1" d="M68.6,77.2h-1.3v-8.7h1.3V77.2z"/>
		<path class="st1" d="M74.4,77.2l-0.3-0.9h0c-0.3,0.4-0.6,0.6-0.9,0.8s-0.7,0.2-1.2,0.2c-0.6,0-1.1-0.2-1.4-0.5
			c-0.3-0.3-0.5-0.8-0.5-1.4c0-0.6,0.2-1.1,0.7-1.4c0.5-0.3,1.2-0.5,2.2-0.5l1.1,0v-0.3c0-0.4-0.1-0.7-0.3-0.9
			c-0.2-0.2-0.5-0.3-0.9-0.3c-0.3,0-0.6,0-0.9,0.1c-0.3,0.1-0.6,0.2-0.8,0.3l-0.4-0.9c0.3-0.2,0.7-0.3,1.1-0.4s0.8-0.1,1.1-0.1
			c0.8,0,1.4,0.2,1.8,0.5c0.4,0.3,0.6,0.9,0.6,1.6v4.2H74.4z M72.4,76.3c0.5,0,0.9-0.1,1.2-0.4s0.4-0.6,0.4-1.1v-0.5l-0.8,0
			c-0.6,0-1.1,0.1-1.4,0.3s-0.4,0.5-0.4,0.9c0,0.3,0.1,0.5,0.2,0.6C71.8,76.3,72.1,76.3,72.4,76.3z"/>
		<path class="st1" d="M80.3,70.9c0.3,0,0.5,0,0.7,0.1l-0.1,1.2c-0.2,0-0.4-0.1-0.6-0.1c-0.5,0-1,0.2-1.3,0.5
			c-0.3,0.3-0.5,0.8-0.5,1.3v3.2h-1.3V71h1l0.2,1.1h0.1c0.2-0.4,0.5-0.7,0.8-0.9C79.6,71,79.9,70.9,80.3,70.9z"/>
		<path class="st1" d="M87.2,77.4c-0.8,0-1.4-0.3-1.8-0.8s-0.7-1.3-0.7-2.4c0-1,0.2-1.8,0.7-2.4s1-0.9,1.8-0.9
			c0.8,0,1.4,0.3,1.9,0.9h0.1c-0.1-0.4-0.1-0.8-0.1-1.1v-2.3h1.3v8.7h-1l-0.2-0.8h-0.1C88.6,77,88,77.4,87.2,77.4z M87.5,76.3
			c0.5,0,0.9-0.2,1.2-0.5c0.2-0.3,0.4-0.8,0.4-1.5v-0.2c0-0.8-0.1-1.3-0.4-1.7c-0.3-0.3-0.7-0.5-1.2-0.5c-0.5,0-0.8,0.2-1.1,0.6
			c-0.3,0.4-0.4,0.9-0.4,1.6c0,0.7,0.1,1.2,0.4,1.6C86.7,76.1,87.1,76.3,87.5,76.3z"/>
		<path class="st1" d="M92.2,69.4c0-0.2,0.1-0.4,0.2-0.5c0.1-0.1,0.3-0.2,0.6-0.2c0.2,0,0.4,0.1,0.5,0.2c0.1,0.1,0.2,0.3,0.2,0.5
			c0,0.2-0.1,0.4-0.2,0.5c-0.1,0.1-0.3,0.2-0.5,0.2c-0.2,0-0.4-0.1-0.6-0.2C92.2,69.8,92.2,69.6,92.2,69.4z M93.6,77.2h-1.3V71h1.3
			V77.2z"/>
		<path class="st1" d="M98.6,70.9c0.3,0,0.5,0,0.7,0.1l-0.1,1.2c-0.2,0-0.4-0.1-0.6-0.1c-0.5,0-1,0.2-1.3,0.5
			C97,73,96.8,73.4,96.8,74v3.2h-1.3V71h1l0.2,1.1h0.1c0.2-0.4,0.5-0.7,0.8-0.9C97.9,71,98.2,70.9,98.6,70.9z"/>
		<path class="st1" d="M103.1,77.4c-1,0-1.7-0.3-2.3-0.8s-0.8-1.3-0.8-2.3c0-1,0.3-1.8,0.8-2.4c0.5-0.6,1.2-0.9,2.1-0.9
			c0.8,0,1.5,0.2,1.9,0.7c0.5,0.5,0.7,1.2,0.7,2.1v0.7h-4.1c0,0.6,0.2,1.1,0.5,1.4c0.3,0.3,0.7,0.5,1.3,0.5c0.4,0,0.7,0,1-0.1
			s0.7-0.2,1-0.3v1.1c-0.3,0.2-0.6,0.3-1,0.3C103.9,77.3,103.6,77.4,103.1,77.4z M102.9,71.9c-0.4,0-0.8,0.1-1,0.4
			c-0.3,0.3-0.4,0.7-0.5,1.2h2.8c0-0.5-0.1-0.9-0.4-1.2C103.6,72,103.3,71.9,102.9,71.9z"/>
		<path class="st1" d="M109.6,77.4c-0.9,0-1.7-0.3-2.1-0.8c-0.5-0.5-0.7-1.3-0.7-2.4c0-1,0.3-1.8,0.8-2.4s1.3-0.8,2.2-0.8
			c0.7,0,1.2,0.1,1.8,0.4l-0.4,1.1c-0.6-0.2-1-0.3-1.4-0.3c-1.1,0-1.6,0.7-1.6,2.1c0,0.7,0.1,1.2,0.4,1.6c0.3,0.3,0.7,0.5,1.2,0.5
			c0.6,0,1.1-0.1,1.7-0.4V77c-0.2,0.1-0.5,0.2-0.8,0.3C110.3,77.3,109.9,77.4,109.6,77.4z"/>
		<path class="st1" d="M115.1,76.3c0.3,0,0.6-0.1,1-0.2v1c-0.1,0.1-0.3,0.1-0.6,0.2c-0.2,0-0.5,0.1-0.7,0.1c-1.3,0-1.9-0.7-1.9-2V72
			H112v-0.6l0.9-0.5l0.4-1.3h0.8V71h1.8v1h-1.8v3.3c0,0.3,0.1,0.6,0.2,0.7S114.8,76.3,115.1,76.3z"/>
		<path class="st1" d="M117.2,69.4c0-0.2,0.1-0.4,0.2-0.5c0.1-0.1,0.3-0.2,0.6-0.2c0.2,0,0.4,0.1,0.5,0.2c0.1,0.1,0.2,0.3,0.2,0.5
			c0,0.2-0.1,0.4-0.2,0.5c-0.1,0.1-0.3,0.2-0.5,0.2c-0.2,0-0.4-0.1-0.6-0.2C117.3,69.8,117.2,69.6,117.2,69.4z M118.6,77.2h-1.3V71
			h1.3V77.2z"/>
		<path class="st1" d="M126,74.1c0,1-0.3,1.8-0.8,2.4c-0.5,0.6-1.2,0.9-2.2,0.9c-0.6,0-1.1-0.1-1.5-0.4c-0.4-0.3-0.8-0.6-1-1.1
			c-0.2-0.5-0.4-1.1-0.4-1.7c0-1,0.3-1.8,0.8-2.4s1.2-0.8,2.2-0.8c0.9,0,1.6,0.3,2.1,0.9C125.7,72.4,126,73.1,126,74.1z M121.5,74.1
			c0,1.4,0.5,2.2,1.6,2.2c1,0,1.6-0.7,1.6-2.2c0-1.4-0.5-2.1-1.6-2.1c-0.6,0-1,0.2-1.2,0.5C121.6,72.9,121.5,73.4,121.5,74.1z"/>
		<path class="st1" d="M133,77.2h-1.3v-3.8c0-0.5-0.1-0.8-0.3-1.1c-0.2-0.2-0.5-0.4-0.9-0.4c-0.6,0-1,0.2-1.2,0.5
			c-0.3,0.3-0.4,0.9-0.4,1.7v3.1h-1.3V71h1l0.2,0.8h0.1c0.2-0.3,0.5-0.5,0.8-0.7s0.7-0.2,1.1-0.2c1.5,0,2.2,0.8,2.2,2.3V77.2z"/>
		<path class="st1" d="M139,75.5c0,0.6-0.2,1.1-0.7,1.4c-0.4,0.3-1.1,0.5-1.9,0.5c-0.8,0-1.5-0.1-2-0.4v-1.1c0.7,0.3,1.4,0.5,2,0.5
			c0.8,0,1.2-0.2,1.2-0.7c0-0.2,0-0.3-0.1-0.4c-0.1-0.1-0.2-0.2-0.4-0.3c-0.2-0.1-0.5-0.2-0.9-0.4c-0.7-0.3-1.2-0.6-1.5-0.8
			c-0.3-0.3-0.4-0.6-0.4-1.1c0-0.5,0.2-0.9,0.6-1.2s1-0.4,1.7-0.4c0.7,0,1.4,0.1,2.1,0.4l-0.4,1c-0.7-0.3-1.2-0.4-1.7-0.4
			c-0.7,0-1,0.2-1,0.6c0,0.2,0.1,0.4,0.3,0.5s0.6,0.3,1.2,0.6c0.5,0.2,0.9,0.4,1.1,0.5c0.2,0.2,0.4,0.4,0.5,0.6
			C138.9,74.9,139,75.2,139,75.5z"/>
	</g>
</g>
</svg>
