<?xml version="1.0" encoding="utf-8"?>
<!-- Generator: Adobe Illustrator 19.1.0, SVG Export Plug-In . SVG Version: 6.00 Build 0)  -->
<svg version="1.1" id="Layer_1" xmlns="http://www.w3.org/2000/svg" xmlns:xlink="http://www.w3.org/1999/xlink" x="0px" y="0px"
	 viewBox="-180 322 250 150" style="enable-background:new -180 322 250 150;" xml:space="preserve">
<style type="text/css">
	.st0{display:none;fill:#FFFFFF;}
	.st1{display:none;}
	
		.st2{display:inline;opacity:0.13;fill:none;stroke:#757575;stroke-width:0.5;stroke-miterlimit:10;stroke-dasharray:3.5;enable-background:new    ;}
	.st3{display:inline;opacity:0.15;}
	.st4{fill:#BDBDBD;}
	.st5{opacity:0.9;}
	.st6{fill:none;stroke:#757575;stroke-width:0.2;stroke-miterlimit:10;stroke-dasharray:1.5;}
	.st7{opacity:0.5;}
	.st8{fill:none;stroke:#757575;stroke-width:0.5;stroke-miterlimit:10;}
	.st9{fill:none;stroke:#757575;stroke-width:0.5;stroke-miterlimit:10;stroke-dasharray:3.3847,3.3847;}
	.st10{fill:#A1887F;}
	.st11{fill:#FFD54F;}
	.st12{fill:#64B5F6;}
	.st13{fill:#332C2C;}
	.st14{fill:#424242;}
	.st15{fill:none;stroke:#785555;stroke-width:0.4;stroke-miterlimit:10;}
	.st16{fill:#785555;}
	.st17{fill:#FFFFFF;}
	.st18{fill:#E0E0E0;}
	.st19{opacity:0.25;fill:none;stroke:#757575;stroke-width:0.5;stroke-miterlimit:10;enable-background:new    ;}
	.st20{opacity:0.5;fill:#757575;enable-background:new    ;}
	.st21{fill:#9E9E9E;}
</style>
<g id="Guides">
	<rect id="XMLID_5_" x="-55" y="397" class="st0" width="125" height="75"/>
</g>
<g id="strokes" class="st1">
	<line class="st2" x1="-36.1" y1="355.6" x2="70" y2="322"/>
	<line class="st2" x1="-67.3" y1="355.6" x2="-180" y2="322"/>
	<line class="st2" x1="-51.7" y1="339.9" x2="-51.7" y2="322"/>
	<line class="st2" x1="-116.6" y1="443.4" x2="-180" y2="472"/>
	<line class="st2" x1="13.4" y1="441.6" x2="70" y2="472"/>
	<line class="st2" x1="-2.2" y1="457.2" x2="-2.2" y2="472"/>
	<line class="st2" x1="-101.1" y1="456.9" x2="-101.1" y2="472"/>
	<g id="BG" class="st3">
		<g id="sectors">
			<circle class="st4" cx="-154.3" cy="433.6" r="6"/>
			<circle class="st4" cx="-142.3" cy="380.9" r="6"/>
			<circle class="st4" cx="-85.5" cy="379.2" r="6"/>
			<circle class="st4" cx="-60.6" cy="457.7" r="6"/>
			<circle class="st4" cx="-50" cy="412.9" r="6"/>
			<circle class="st4" cx="41.7" cy="380.9" r="6"/>
			<circle class="st4" cx="-17.9" cy="331" r="6"/>
			<circle class="st4" cx="-15.6" cy="373.2" r="6"/>
			<circle class="st4" cx="49.4" cy="339.9" r="6"/>
			<circle class="st4" cx="58" cy="425.6" r="6"/>
			<circle class="st4" cx="23" cy="464.6" r="6"/>
			<circle class="st4" cx="17" cy="409.6" r="6"/>
			<circle class="st4" cx="-87.5" cy="332.8" r="6"/>
			<circle class="st4" cx="-157.8" cy="345.9" r="6"/>
			<circle class="st4" cx="-114.8" cy="415.6" r="6"/>
			<circle class="st4" cx="-130.3" cy="463.7" r="6"/>
		</g>
		<g class="st5">
			<line class="st6" x1="-151.8" y1="345.9" x2="-93.5" y2="332.8"/>
			<line class="st6" x1="-81.5" y1="332.8" x2="-23.9" y2="331"/>
			<line class="st6" x1="-11.9" y1="331" x2="43.6" y2="338.4"/>
			<line class="st6" x1="49.4" y1="345.9" x2="41.7" y2="374.9"/>
			<line class="st6" x1="41.7" y1="386.9" x2="58" y2="419.6"/>
			<line class="st6" x1="58" y1="431.6" x2="29" y2="464.6"/>
			<line class="st6" x1="17" y1="464.6" x2="-54.6" y2="457.7"/>
			<line class="st6" x1="-66.6" y1="457.7" x2="-124.3" y2="463.7"/>
			<line class="st6" x1="-136.3" y1="463.7" x2="-154.3" y2="439.6"/>
			<line class="st6" x1="-148.3" y1="433.6" x2="-120.8" y2="415.6"/>
			<line class="st6" x1="-114.8" y1="409.6" x2="-142.3" y2="386.9"/>
			<line class="st6" x1="-142.3" y1="374.9" x2="-157.8" y2="351.9"/>
			<line class="st6" x1="-87.5" y1="338.8" x2="-85.5" y2="373.2"/>
			<line class="st6" x1="-91.5" y1="379.2" x2="-136.3" y2="380.9"/>
			<line class="st6" x1="-79.5" y1="379.2" x2="-21.6" y2="373.2"/>
			<line class="st6" x1="-15.6" y1="367.2" x2="-17.9" y2="337"/>
			<line class="st6" x1="-15.6" y1="379.2" x2="-50" y2="406.9"/>
			<line class="st6" x1="-56" y1="412.9" x2="-85.5" y2="385.2"/>
			<line class="st6" x1="-108.8" y1="415.6" x2="-56" y2="412.9"/>
			<line class="st6" x1="-50" y1="418.9" x2="-60.6" y2="451.7"/>
			<line class="st6" x1="-44" y1="412.9" x2="11" y2="409.6"/>
			<line class="st6" x1="17" y1="415.6" x2="23" y2="458.6"/>
			<line class="st6" x1="52" y1="425.6" x2="23" y2="409.6"/>
			<line class="st6" x1="17" y1="403.6" x2="35.7" y2="380.9"/>
			<line class="st6" x1="35.7" y1="380.9" x2="-9.6" y2="373.2"/>
			<line class="st6" x1="-148.3" y1="380.9" x2="-180" y2="399.1"/>
			<line class="st6" x1="-154.3" y1="427.6" x2="-142.3" y2="386.9"/>
			<line class="st6" x1="-160.3" y1="433.6" x2="-180" y2="399.1"/>
			<line class="st6" x1="-154.3" y1="439.6" x2="-180" y2="472"/>
			<line class="st6" x1="-130.3" y1="457.7" x2="-114.8" y2="421.6"/>
			<line class="st6" x1="-130.3" y1="469.7" x2="-130.3" y2="472"/>
			<line class="st6" x1="-60.6" y1="463.7" x2="-60.6" y2="472"/>
			<line class="st6" x1="23" y1="470.6" x2="23" y2="472"/>
			<line class="st6" x1="64" y1="425.6" x2="70" y2="425.6"/>
			<line class="st6" x1="47.7" y1="380.9" x2="70" y2="380.9"/>
			<line class="st6" x1="55.4" y1="339.9" x2="70" y2="322"/>
			<line class="st6" x1="49.4" y1="333.9" x2="49.4" y2="322"/>
			<line class="st6" x1="-17.9" y1="325" x2="-17.9" y2="322"/>
			<line class="st6" x1="-87.5" y1="326.8" x2="-87.5" y2="322"/>
			<line class="st6" x1="-157.8" y1="339.9" x2="-157.8" y2="322"/>
			<line class="st6" x1="-163.8" y1="345.9" x2="-180" y2="345.9"/>
		</g>
	</g>
</g>
<g id="icon">
	<g class="st7">
		<g>
			<polyline class="st8" points="-97.1,424.6 -98.9,424.6 -98,423.1 			"/>
			<line class="st9" x1="-96.3" y1="420.2" x2="-56.5" y2="351.3"/>
			<polyline class="st8" points="-55.7,349.8 -54.8,348.3 -53.9,349.8 			"/>
			<line class="st9" x1="-52.3" y1="352.7" x2="-12.5" y2="421.6"/>
			<polyline class="st8" points="-11.6,423.1 -10.8,424.6 -12.5,424.6 			"/>
			<line class="st9" x1="-15.9" y1="424.6" x2="-95.4" y2="424.6"/>
		</g>
	</g>
	<circle class="st10" cx="-55.2" cy="347.6" r="14"/>
	<circle class="st11" cx="-99.4" cy="424.2" r="14"/>
	<circle class="st12" cx="-11" cy="424.6" r="14"/>
	<g id="Oil">
		<g id="Drop_2_1_">
			<path class="st13" d="M-49.6,349.8c0,1.2-0.1,2.2-1,3.5c-0.9,1.4-2.1,1.9-2.7,2.2c-0.1,0-0.3,0.1-0.4,0.1c0,0-0.1,0-0.2,0
				c0,0-0.1,0-0.2,0s-0.2,0-0.3,0.1c-0.6,0.1-1.1,0-1.5,0c-0.1,0-0.2,0-0.3-0.1c-0.2,0-0.3-0.1-0.3-0.1s0,0-0.1,0h-0.1
				c-0.1,0-0.2-0.1-0.3-0.1h-0.1c-0.7-0.2-1.8-0.8-2.6-2.1c-0.9-1.3-1-2.4-1-3.5c0-4,5.2-12,5.6-12.5l0,0l0,0
				C-54.8,337.8-49.6,345.8-49.6,349.8z"/>
		</g>
		<g id="Drop_2_3_">
			<path class="st14" d="M-57.8,355.1c1.7,1.1,4,0.5,4,0.5s1.9-0.3,3.2-2.3c0.9-1.3,1-2.4,1-3.5c0-4.1-5.6-12.5-5.6-12.5
				s4,8.4,4,11.9c0.1,2.2-0.4,2.8-1.1,3.7C-54.9,355.5-57.8,355.1-57.8,355.1z"/>
		</g>
	</g>
	<g id="Education">
		
			<rect x="-106.2" y="418.1" transform="matrix(-0.7071 -0.7071 0.7071 -0.7071 -470.0906 655.1088)" class="st14" width="13.6" height="13.6"/>
		
			<rect x="-106.2" y="417.4" transform="matrix(-0.7071 -0.7071 0.7071 -0.7071 -469.5841 653.9255)" class="st13" width="13.6" height="13.6"/>
		<path class="st15" d="M-99.4,424.3c0.1,0,0.3-0.1,0.9,0.3c1.8,1.3,2.2,9.3,2.2,9.3"/>
		<circle class="st14" cx="-99.4" cy="424.3" r="0.7"/>
		<path class="st16" d="M-96.6,433.2l-0.3,2.5c0,0.2,0.1,0.4,0.4,0.4l1.2-0.1c0.2,0,0.3-0.2,0.3-0.4l-0.8-2.3L-96.6,433.2z"/>
		<path class="st13" d="M-96.1,433.4h-0.4c-0.1,0-0.2-0.1-0.3-0.2v-0.3c0-0.1,0.1-0.2,0.2-0.3h0.4c0.1,0,0.2,0.1,0.3,0.2v0.3
			C-95.8,433.3-95.9,433.4-96.1,433.4z"/>
	</g>
	<g id="Bus">
		<path class="st17" d="M-4.1,423.9c0,3.7-0.4,5.8-0.6,6.8c-0.2,1-0.6,1.3-1.3,1.3h-9.6c-0.7,0-1.1-0.4-1.3-1.3
			c-0.2-1-0.6-3.2-0.6-6.8c0-3.7,0.4-5.8,0.6-6.8c0.2-1,0.6-1.3,1.3-1.3h3.2v-0.2c0-0.3,0.2-0.5,0.5-0.5h2.2c0.3,0,0.5,0.2,0.5,0.5
			v0.2H-6c0.7,0,1.1,0.4,1.3,1.3C-4.6,418.1-4.2,420.2-4.1,423.9z"/>
		<g>
			<path class="st18" d="M-5.2,417.7c-0.1-0.9-0.5-1.2-1.2-1.2h-8.8c-0.6,0-1,0.3-1.2,1.2c-0.1,0.9-0.5,2.9-0.5,6.2
				c0,0.1,0,0.2,0,0.3c0,0.3,0.2,0.5,0.5,0.5h11.1c0.3,0,0.5-0.2,0.5-0.5c0-0.1,0-0.2,0-0.3C-4.7,420.5-5.1,418.6-5.2,417.7z"/>
			<line class="st19" x1="-10.8" y1="418.3" x2="-10.8" y2="424.8"/>
			<path class="st20" d="M-5.7,416.7c0,0-0.3-0.2-0.7-0.2s-4.4,0-4.4,0h-4.4c0,0-0.5,0-0.8,0.3c-0.3,0.3-0.4,1.1-0.4,1.1l-0.1,0.4
				h11.3C-5.1,418.3-5.3,416.9-5.7,416.7z"/>
		</g>
		<rect x="-16.5" y="427.2" class="st18" width="3.5" height="1.2"/>
		<rect x="-8.6" y="427.2" class="st18" width="3.5" height="1.2"/>
		<path class="st18" d="M-4.7,430.7c0-0.3,0.1-0.6,0.2-1H-17c0.1,0.4,0.1,0.7,0.2,1c0.2,1,0.6,1.3,1.3,1.3h9.6
			C-5.3,432.1-4.9,431.7-4.7,430.7z"/>
		<path class="st18" d="M-17.4,425.9c0,0.2,0,0.3,0,0.5h13.2c0-0.2,0-0.3,0-0.5H-17.4z"/>
		<path class="st4" d="M-14.6,434h-0.2c-0.5,0-0.9-0.4-0.9-0.9V432h2.1v1.1C-13.7,433.6-14.1,434-14.6,434z"/>
		<path class="st4" d="M-6.8,434H-7c-0.5,0-0.9-0.4-0.9-0.9V432h2.1v1.1C-5.9,433.6-6.3,434-6.8,434z"/>
		<path class="st21" d="M-3.2,423.7h-1.1c-0.1,0-0.2,0.1-0.2,0.2v0.1c0,0.1,0.1,0.2,0.2,0.2h1.1c0.1,0,0.2-0.1,0.2-0.2v-0.1
			C-3.1,423.8-3.2,423.7-3.2,423.7z"/>
		<path class="st21" d="M-3.9,423v0.6c0,0.2,0.2,0.5,0.5,0.5h0.2c0.2,0,0.5-0.2,0.5-0.5V423c0-0.2-0.2-0.5-0.5-0.5h-0.2
			C-3.7,422.6-3.9,422.8-3.9,423z"/>
		<path class="st21" d="M-18.3,419.2h1.4c0.1,0,0.2-0.1,0.2-0.2l0,0c0-0.1-0.1-0.2-0.2-0.2h-1.4c-0.1,0-0.2,0.1-0.2,0.2l0,0
			C-18.4,419.1-18.4,419.2-18.3,419.2z"/>
		<path class="st21" d="M-17.4,420.2v-0.9c0-0.2-0.2-0.5-0.5-0.5h-0.3c-0.2,0-0.5,0.2-0.5,0.5v0.9c0,0.2,0.2,0.5,0.5,0.5h0.3
			C-17.6,420.6-17.4,420.4-17.4,420.2z"/>
	</g>
</g>
</svg>
