<?xml version="1.0" encoding="utf-8"?>
<!-- Generator: Adobe Illustrator 19.1.0, SVG Export Plug-In . SVG Version: 6.00 Build 0)  -->
<svg version="1.1" id="Layer_1" xmlns="http://www.w3.org/2000/svg" xmlns:xlink="http://www.w3.org/1999/xlink" x="0px" y="0px"
	 viewBox="-180 322 250 150" style="enable-background:new -180 322 250 150;" xml:space="preserve">
<style type="text/css">
	.st0{display:none;fill:#FFFFFF;}
	.st1{display:none;}
	
		.st2{display:inline;opacity:0.13;fill:none;stroke:#757575;stroke-width:0.5;stroke-miterlimit:10;stroke-dasharray:3.5;enable-background:new    ;}
	.st3{display:inline;opacity:0.15;}
	.st4{fill:#BDBDBD;}
	.st5{opacity:0.9;}
	.st6{fill:none;stroke:#757575;stroke-width:0.2;stroke-miterlimit:10;stroke-dasharray:1.5;}
	.st7{fill:#EF5350;}
	.st8{fill:none;stroke:#BDBDBD;stroke-width:1.5;stroke-miterlimit:10;}
	.st9{fill:#29B6F6;}
	.st10{fill:#E0E0E0;stroke:#BDBDBD;stroke-width:1.5;stroke-miterlimit:10;}
	.st11{fill:#66BB6A;}
	.st12{fill:#AB47BC;}
	.st13{fill:#FFCA28;}
</style>
<g id="Guides">
	<rect id="XMLID_5_" x="-1129" y="1891" class="st0" width="125" height="75"/>
</g>
<g id="strokes" class="st1">
	<line class="st2" x1="-1110.1" y1="1849.6" x2="-1004" y2="1816"/>
	<line class="st2" x1="-1141.3" y1="1849.6" x2="-1254" y2="1816"/>
	<line class="st2" x1="-1125.7" y1="1833.9" x2="-1125.7" y2="1816"/>
	<line class="st2" x1="-1190.6" y1="1937.4" x2="-1254" y2="1966"/>
	<line class="st2" x1="-1060.6" y1="1935.6" x2="-1004" y2="1966"/>
	<line class="st2" x1="-1076.2" y1="1951.2" x2="-1076.2" y2="1966"/>
	<line class="st2" x1="-1175.1" y1="1950.9" x2="-1175.1" y2="1966"/>
	<g id="BG" class="st3">
		<g id="sectors">
			<circle class="st4" cx="-1228.3" cy="1927.6" r="6"/>
			<circle class="st4" cx="-1216.3" cy="1874.9" r="6"/>
			<circle class="st4" cx="-1159.5" cy="1873.2" r="6"/>
			<circle class="st4" cx="-1134.6" cy="1951.7" r="6"/>
			<circle class="st4" cx="-1124" cy="1906.9" r="6"/>
			<circle class="st4" cx="-1032.3" cy="1874.9" r="6"/>
			<circle class="st4" cx="-1091.9" cy="1825" r="6"/>
			<circle class="st4" cx="-1089.6" cy="1867.2" r="6"/>
			<circle class="st4" cx="-1024.6" cy="1833.9" r="6"/>
			<circle class="st4" cx="-1016" cy="1919.6" r="6"/>
			<circle class="st4" cx="-1051" cy="1958.6" r="6"/>
			<circle class="st4" cx="-1057" cy="1903.6" r="6"/>
			<circle class="st4" cx="-1161.5" cy="1826.8" r="6"/>
			<circle class="st4" cx="-1231.8" cy="1839.9" r="6"/>
			<circle class="st4" cx="-1188.8" cy="1909.6" r="6"/>
			<circle class="st4" cx="-1204.3" cy="1957.7" r="6"/>
		</g>
		<g class="st5">
			<line class="st6" x1="-1225.8" y1="1839.9" x2="-1167.5" y2="1826.8"/>
			<line class="st6" x1="-1155.5" y1="1826.8" x2="-1097.9" y2="1825"/>
			<line class="st6" x1="-1085.9" y1="1825" x2="-1030.4" y2="1832.4"/>
			<line class="st6" x1="-1024.6" y1="1839.9" x2="-1032.3" y2="1868.9"/>
			<line class="st6" x1="-1032.3" y1="1880.9" x2="-1016" y2="1913.6"/>
			<line class="st6" x1="-1016" y1="1925.6" x2="-1045" y2="1958.6"/>
			<line class="st6" x1="-1057" y1="1958.6" x2="-1128.6" y2="1951.7"/>
			<line class="st6" x1="-1140.6" y1="1951.7" x2="-1198.3" y2="1957.7"/>
			<line class="st6" x1="-1210.3" y1="1957.7" x2="-1228.3" y2="1933.6"/>
			<line class="st6" x1="-1222.3" y1="1927.6" x2="-1194.8" y2="1909.6"/>
			<line class="st6" x1="-1188.8" y1="1903.6" x2="-1216.3" y2="1880.9"/>
			<line class="st6" x1="-1216.3" y1="1868.9" x2="-1231.8" y2="1845.9"/>
			<line class="st6" x1="-1161.5" y1="1832.8" x2="-1159.5" y2="1867.2"/>
			<line class="st6" x1="-1165.5" y1="1873.2" x2="-1210.3" y2="1874.9"/>
			<line class="st6" x1="-1153.5" y1="1873.2" x2="-1095.6" y2="1867.2"/>
			<line class="st6" x1="-1089.6" y1="1861.2" x2="-1091.9" y2="1831"/>
			<line class="st6" x1="-1089.6" y1="1873.2" x2="-1124" y2="1900.9"/>
			<line class="st6" x1="-1130" y1="1906.9" x2="-1159.5" y2="1879.2"/>
			<line class="st6" x1="-1182.8" y1="1909.6" x2="-1130" y2="1906.9"/>
			<line class="st6" x1="-1124" y1="1912.9" x2="-1134.6" y2="1945.7"/>
			<line class="st6" x1="-1118" y1="1906.9" x2="-1063" y2="1903.6"/>
			<line class="st6" x1="-1057" y1="1909.6" x2="-1051" y2="1952.6"/>
			<line class="st6" x1="-1022" y1="1919.6" x2="-1051" y2="1903.6"/>
			<line class="st6" x1="-1057" y1="1897.6" x2="-1038.3" y2="1874.9"/>
			<line class="st6" x1="-1038.3" y1="1874.9" x2="-1083.6" y2="1867.2"/>
			<line class="st6" x1="-1222.3" y1="1874.9" x2="-1254" y2="1893.1"/>
			<line class="st6" x1="-1228.3" y1="1921.6" x2="-1216.3" y2="1880.9"/>
			<line class="st6" x1="-1234.3" y1="1927.6" x2="-1254" y2="1893.1"/>
			<line class="st6" x1="-1228.3" y1="1933.6" x2="-1254" y2="1966"/>
			<line class="st6" x1="-1204.3" y1="1951.7" x2="-1188.8" y2="1915.6"/>
			<line class="st6" x1="-1204.3" y1="1963.7" x2="-1204.3" y2="1966"/>
			<line class="st6" x1="-1134.6" y1="1957.7" x2="-1134.6" y2="1966"/>
			<line class="st6" x1="-1051" y1="1964.6" x2="-1051" y2="1966"/>
			<line class="st6" x1="-1010" y1="1919.6" x2="-1004" y2="1919.6"/>
			<line class="st6" x1="-1026.3" y1="1874.9" x2="-1004" y2="1874.9"/>
			<line class="st6" x1="-1018.6" y1="1833.9" x2="-1004" y2="1816"/>
			<line class="st6" x1="-1024.6" y1="1827.9" x2="-1024.6" y2="1816"/>
			<line class="st6" x1="-1091.9" y1="1819" x2="-1091.9" y2="1816"/>
			<line class="st6" x1="-1161.5" y1="1820.8" x2="-1161.5" y2="1816"/>
			<line class="st6" x1="-1231.8" y1="1833.9" x2="-1231.8" y2="1816"/>
			<line class="st6" x1="-1237.8" y1="1839.9" x2="-1254" y2="1839.9"/>
		</g>
	</g>
</g>
<circle class="st7" cx="-55" cy="353.4" r="10.4"/>
<line class="st8" x1="-55" y1="363.8" x2="-55" y2="386.6"/>
<line class="st8" x1="-100.8" y1="386.7" x2="-55" y2="396.9"/>
<line class="st8" x1="-83.3" y1="440.6" x2="-55" y2="396.9"/>
<line class="st8" x1="-26.7" y1="440.6" x2="-55" y2="396.9"/>
<line class="st8" x1="-9.2" y1="386.7" x2="-55" y2="396.9"/>
<circle class="st9" cx="-100.8" cy="386.6" r="10.4"/>
<circle class="st10" cx="-55" cy="397" r="10.4"/>
<circle class="st11" cx="-9.2" cy="386.6" r="10.4"/>
<circle class="st12" cx="-83.3" cy="440.6" r="10.4"/>
<circle class="st13" cx="-26.7" cy="440.6" r="10.4"/>
</svg>
