<?xml version="1.0" encoding="utf-8"?>
<!-- Generator: Adobe Illustrator 23.1.0, SVG Export Plug-In . SVG Version: 6.00 Build 0)  -->
<svg version="1.1" id="Layer_1" xmlns="http://www.w3.org/2000/svg" xmlns:xlink="http://www.w3.org/1999/xlink" x="0px" y="0px"
	 viewBox="0 0 169.5 86.2" style="enable-background:new 0 0 169.5 86.2;" xml:space="preserve">
<style type="text/css">
	.st0{fill:#500000;}
	.st1{fill:none;}
	.st2{fill:#424242;}
</style>
<g>
	<g>
		<g>
			<path class="st0" d="M14.5,45.4c-7.1,0-10.6-3.9-10.6-11.7v-1.4h7.5v1.2c0,2,0.2,3.4,0.7,4.3c0.4,0.9,1.3,1.3,2.5,1.3
				c0.6,0,1.2-0.1,1.6-0.4c0.4-0.2,0.7-0.6,0.9-1.2s0.3-1.1,0.4-1.7c0.1-0.6,0.1-1.4,0.1-2.4c0-2.1-0.3-3.6-0.9-4.6
				c-0.6-1-1.7-1.5-3.4-1.6H12v-5.7h1.1c1.7,0,2.8-0.5,3.5-1.3s1-2.3,1-4.3c0-1.7-0.2-2.9-0.7-3.7c-0.5-0.8-1.3-1.2-2.4-1.2
				c-1.2,0-2,0.4-2.4,1.3c-0.4,0.9-0.6,2.2-0.6,3.8V18H3.9v-2.1c0-3.4,0.9-6.1,2.8-7.9c1.8-1.9,4.4-2.8,7.7-2.8c3.4,0,6,0.9,7.8,2.7
				C24,9.6,25,12.2,25,15.6c0,2.2-0.5,4.1-1.4,5.6c-0.9,1.5-2.1,2.5-3.6,2.9c3.3,1.2,5,4.3,5,9.3c0,1.8-0.2,3.5-0.6,4.9
				c-0.4,1.4-1,2.7-1.8,3.8c-0.8,1.1-1.9,1.9-3.3,2.5C18,45.1,16.3,45.4,14.5,45.4z"/>
			<path class="st0" d="M41.6,44.8V5.6h12.2C60.6,5.6,64,9.4,64,16.9c0,2-0.3,3.8-0.8,5.2c-0.5,1.4-1.3,2.6-2.3,3.4
				c-1,0.8-2.1,1.4-3.4,1.7c-1.3,0.4-2.7,0.5-4.4,0.5h-3.5v17.1H41.6z M49.5,22.2h2.6c1.8,0,2.9-0.4,3.5-1.2
				c0.6-0.8,0.9-2.2,0.9-4.2c0-1,0-1.8-0.1-2.4c-0.1-0.6-0.3-1.1-0.6-1.7c-0.3-0.5-0.7-0.9-1.3-1.1c-0.6-0.2-1.4-0.3-2.4-0.3h-2.6
				V22.2z"/>
			<path class="st0" d="M71.6,44.8V11.5h-6.3V5.6h20.4v5.9h-6.2v33.3H71.6z"/>
			<path class="st0" d="M99.2,45.3c-3.6,0-6.4-1-8.1-3c-1.8-2-2.8-5.1-2.9-9.2l6.9-1.2c0,2.4,0.4,4.3,1,5.5s1.6,1.9,2.9,1.9
				c0.9,0,1.6-0.3,2-0.9c0.4-0.6,0.6-1.4,0.6-2.3c0-1.5-0.3-2.8-1-3.9c-0.7-1-1.7-2.2-3.2-3.5L93,25c-1.1-0.9-1.9-1.8-2.6-2.6
				c-0.7-0.8-1.2-1.8-1.7-3.1c-0.4-1.3-0.7-2.6-0.7-4.2c0-3.2,0.9-5.6,2.8-7.4c1.9-1.7,4.4-2.6,7.7-2.6c1.1,0,2.1,0.1,3,0.3
				c0.9,0.2,1.7,0.5,2.3,0.9s1.2,0.9,1.7,1.4s0.9,1.2,1.2,1.8c0.3,0.6,0.6,1.3,0.8,2.1c0.2,0.8,0.4,1.5,0.5,2.2
				c0.1,0.7,0.2,1.4,0.2,2.2l-6.8,1.1c0-0.8-0.1-1.5-0.1-2s-0.1-1.1-0.3-1.7s-0.3-1-0.5-1.3c-0.2-0.3-0.5-0.6-0.9-0.8S99,11,98.5,11
				c-0.9,0-1.6,0.4-2,1c-0.5,0.6-0.7,1.4-0.7,2.3c0,0.7,0.1,1.4,0.2,1.9s0.4,1.1,0.8,1.6s0.7,0.9,1,1.3c0.3,0.3,0.8,0.7,1.3,1.3
				l4.1,3.6c0.9,0.8,1.6,1.6,2.3,2.3s1.3,1.6,1.9,2.5c0.6,0.9,1,2,1.3,3.1c0.3,1.1,0.5,2.3,0.5,3.6c0,2.8-0.9,5.2-2.8,7
				C104.6,44.4,102.2,45.3,99.2,45.3z"/>
		</g>
	</g>
	<g>
		<rect x="1.9" y="53.6" class="st1" width="164" height="30.8"/>
		<path class="st2" d="M15.6,63.2v-7.9h1.3v7.9H15.6z"/>
		<path class="st2" d="M21.9,58.1h-1.5v5h-1.3v-5h-1v-0.6l1-0.4v-0.4c0-0.7,0.2-1.2,0.5-1.6s0.8-0.5,1.5-0.5c0.4,0,0.9,0.1,1.3,0.2
			l-0.3,1c-0.3-0.1-0.6-0.2-0.9-0.2c-0.3,0-0.5,0.1-0.6,0.3c-0.1,0.2-0.2,0.4-0.2,0.8v0.4h1.5V58.1z"/>
		<path class="st2" d="M29.9,61.5c0,0.6-0.2,1-0.6,1.3s-1,0.5-1.8,0.5c-0.8,0-1.4-0.1-1.9-0.4v-1.1c0.7,0.3,1.4,0.5,2,0.5
			c0.8,0,1.2-0.2,1.2-0.7c0-0.2,0-0.3-0.1-0.4S28.2,61,28,60.9c-0.2-0.1-0.5-0.2-0.8-0.4c-0.7-0.3-1.2-0.5-1.4-0.8
			c-0.2-0.3-0.4-0.6-0.4-1c0-0.5,0.2-0.9,0.6-1.2s1-0.4,1.7-0.4c0.7,0,1.4,0.1,2,0.4l-0.4,1c-0.6-0.3-1.2-0.4-1.6-0.4
			c-0.7,0-1,0.2-1,0.6c0,0.2,0.1,0.3,0.3,0.5c0.2,0.1,0.6,0.3,1.1,0.5c0.5,0.2,0.9,0.4,1.1,0.5c0.2,0.2,0.4,0.3,0.5,0.6
			C29.8,60.9,29.9,61.2,29.9,61.5z"/>
		<path class="st2" d="M31.2,55.6c0-0.2,0.1-0.4,0.2-0.5s0.3-0.2,0.5-0.2c0.2,0,0.4,0.1,0.5,0.2s0.2,0.3,0.2,0.5
			c0,0.2-0.1,0.4-0.2,0.5c-0.1,0.1-0.3,0.2-0.5,0.2c-0.2,0-0.4-0.1-0.5-0.2C31.2,56,31.2,55.8,31.2,55.6z M32.5,63.2h-1.3v-6h1.3
			V63.2z"/>
		<path class="st2" d="M39.4,57.2v0.7l-1,0.2c0.1,0.1,0.2,0.3,0.2,0.5s0.1,0.4,0.1,0.6c0,0.6-0.2,1.1-0.6,1.5
			c-0.4,0.4-1,0.5-1.8,0.5c-0.2,0-0.4,0-0.5,0c-0.3,0.2-0.4,0.4-0.4,0.6c0,0.1,0.1,0.2,0.2,0.3c0.1,0.1,0.4,0.1,0.7,0.1h1
			c0.7,0,1.2,0.1,1.5,0.4c0.3,0.3,0.5,0.7,0.5,1.2c0,0.7-0.3,1.2-0.8,1.6c-0.6,0.4-1.4,0.6-2.4,0.6c-0.8,0-1.4-0.1-1.9-0.4
			c-0.4-0.3-0.6-0.7-0.6-1.2c0-0.4,0.1-0.7,0.4-0.9c0.2-0.3,0.6-0.4,1-0.5c-0.2-0.1-0.3-0.2-0.4-0.4s-0.2-0.3-0.2-0.5
			c0-0.2,0.1-0.4,0.2-0.6s0.3-0.3,0.6-0.5c-0.3-0.1-0.6-0.4-0.8-0.7S34,59.5,34,59.1c0-0.7,0.2-1.2,0.6-1.5c0.4-0.4,1-0.5,1.8-0.5
			c0.2,0,0.3,0,0.5,0c0.2,0,0.3,0,0.4,0.1H39.4z M34.7,64.1c0,0.3,0.1,0.5,0.4,0.6s0.6,0.2,1,0.2c0.7,0,1.2-0.1,1.6-0.3
			c0.3-0.2,0.5-0.5,0.5-0.8c0-0.3-0.1-0.4-0.3-0.6s-0.5-0.2-1-0.2h-1c-0.4,0-0.7,0.1-0.9,0.3C34.8,63.6,34.7,63.8,34.7,64.1z
			 M35.2,59.1c0,0.4,0.1,0.7,0.3,0.9c0.2,0.2,0.5,0.3,0.8,0.3c0.7,0,1.1-0.4,1.1-1.2c0-0.4-0.1-0.7-0.3-0.9
			c-0.2-0.2-0.5-0.3-0.8-0.3c-0.4,0-0.6,0.1-0.8,0.3C35.3,58.4,35.2,58.7,35.2,59.1z"/>
		<path class="st2" d="M45.8,63.2h-1.3v-3.7c0-0.5-0.1-0.8-0.3-1c-0.2-0.2-0.5-0.3-0.9-0.3c-0.5,0-0.9,0.2-1.2,0.5
			c-0.2,0.3-0.4,0.9-0.4,1.6v3h-1.3v-6h1l0.2,0.8h0.1c0.2-0.3,0.4-0.5,0.8-0.7c0.3-0.2,0.7-0.2,1.1-0.2c1.4,0,2.2,0.7,2.2,2.2V63.2z
			"/>
		<path class="st2" d="M52.7,62.2c0.3,0,0.6,0,0.9-0.1v1c-0.1,0.1-0.3,0.1-0.5,0.2c-0.2,0-0.5,0.1-0.7,0.1c-1.2,0-1.8-0.6-1.8-1.9
			v-3.2h-0.8v-0.6l0.9-0.5l0.4-1.3h0.8v1.3h1.7v1h-1.7v3.2c0,0.3,0.1,0.5,0.2,0.7C52.3,62.2,52.5,62.2,52.7,62.2z"/>
		<path class="st2" d="M53.9,57.2h1.4l1.2,3.4c0.2,0.5,0.3,0.9,0.4,1.4h0c0-0.2,0.1-0.4,0.2-0.7s0.5-1.6,1.4-4h1.4L57.3,64
			c-0.5,1.2-1.2,1.9-2.3,1.9c-0.3,0-0.6,0-0.8-0.1v-1c0.2,0,0.4,0.1,0.7,0.1c0.6,0,1-0.4,1.3-1.1l0.2-0.6L53.9,57.2z"/>
		<path class="st2" d="M63.9,63.3c-0.8,0-1.4-0.3-1.8-0.8H62c0.1,0.5,0.1,0.8,0.1,0.9v2.5h-1.3v-8.7h1c0,0.1,0.1,0.4,0.2,0.8h0.1
			c0.4-0.6,1-0.9,1.8-0.9c0.7,0,1.3,0.3,1.8,0.8c0.4,0.5,0.6,1.3,0.6,2.3s-0.2,1.7-0.6,2.3C65.2,63,64.6,63.3,63.9,63.3z M63.5,58.1
			c-0.5,0-0.9,0.1-1.1,0.4c-0.2,0.3-0.4,0.8-0.4,1.4v0.2c0,0.7,0.1,1.3,0.3,1.6c0.2,0.3,0.6,0.5,1.1,0.5c0.4,0,0.8-0.2,1-0.5
			s0.4-0.9,0.4-1.5c0-0.7-0.1-1.2-0.4-1.5C64.4,58.3,64,58.1,63.5,58.1z"/>
		<path class="st2" d="M70.4,63.3c-0.9,0-1.7-0.3-2.2-0.8s-0.8-1.3-0.8-2.3c0-1,0.2-1.8,0.7-2.3c0.5-0.6,1.2-0.8,2-0.8
			c0.8,0,1.4,0.2,1.9,0.7s0.7,1.1,0.7,2v0.7h-4c0,0.6,0.2,1,0.5,1.3c0.3,0.3,0.7,0.5,1.3,0.5c0.4,0,0.7,0,1-0.1
			c0.3-0.1,0.6-0.2,1-0.3v1c-0.3,0.1-0.6,0.3-0.9,0.3C71.1,63.3,70.8,63.3,70.4,63.3z M70.1,58c-0.4,0-0.7,0.1-1,0.4
			c-0.2,0.3-0.4,0.6-0.4,1.1h2.7c0-0.5-0.1-0.9-0.4-1.1C70.9,58.2,70.5,58,70.1,58z"/>
		<path class="st2" d="M77,55.6c0-0.2,0.1-0.4,0.2-0.5s0.3-0.2,0.5-0.2c0.2,0,0.4,0.1,0.5,0.2s0.2,0.3,0.2,0.5
			c0,0.2-0.1,0.4-0.2,0.5c-0.1,0.1-0.3,0.2-0.5,0.2c-0.2,0-0.4-0.1-0.5-0.2C77,56,77,55.8,77,55.6z M78.3,63.2H77v-6h1.3V63.2z"/>
		<path class="st2" d="M84.2,61.5c0,0.6-0.2,1-0.6,1.3s-1,0.5-1.8,0.5c-0.8,0-1.4-0.1-1.9-0.4v-1.1c0.7,0.3,1.4,0.5,2,0.5
			c0.8,0,1.2-0.2,1.2-0.7c0-0.2,0-0.3-0.1-0.4s-0.2-0.2-0.4-0.3c-0.2-0.1-0.5-0.2-0.8-0.4c-0.7-0.3-1.2-0.5-1.4-0.8
			c-0.2-0.3-0.4-0.6-0.4-1c0-0.5,0.2-0.9,0.6-1.2s1-0.4,1.7-0.4c0.7,0,1.4,0.1,2,0.4l-0.4,1C83,58.2,82.5,58,82,58
			c-0.7,0-1,0.2-1,0.6c0,0.2,0.1,0.3,0.3,0.5c0.2,0.1,0.6,0.3,1.1,0.5c0.5,0.2,0.9,0.4,1.1,0.5c0.2,0.2,0.4,0.3,0.5,0.6
			C84.1,60.9,84.2,61.2,84.2,61.5z"/>
		<path class="st2" d="M93.8,60.2c0,1-0.3,1.7-0.8,2.3c-0.5,0.5-1.2,0.8-2.1,0.8c-0.6,0-1.1-0.1-1.5-0.4c-0.4-0.3-0.8-0.6-1-1.1
			c-0.2-0.5-0.3-1-0.3-1.7c0-1,0.3-1.7,0.8-2.3s1.2-0.8,2.1-0.8c0.9,0,1.6,0.3,2.1,0.8C93.5,58.5,93.8,59.2,93.8,60.2z M89.4,60.2
			c0,1.4,0.5,2.1,1.5,2.1c1,0,1.5-0.7,1.5-2.1c0-1.4-0.5-2.1-1.5-2.1c-0.5,0-0.9,0.2-1.2,0.5C89.5,59,89.4,59.5,89.4,60.2z"/>
		<path class="st2" d="M98.3,58.1h-1.5v5h-1.3v-5h-1v-0.6l1-0.4v-0.4c0-0.7,0.2-1.2,0.5-1.6c0.3-0.3,0.8-0.5,1.5-0.5
			c0.4,0,0.9,0.1,1.3,0.2l-0.3,1c-0.3-0.1-0.6-0.2-0.9-0.2c-0.3,0-0.5,0.1-0.6,0.3c-0.1,0.2-0.2,0.4-0.2,0.8v0.4h1.5V58.1z"/>
		<path class="st2" d="M107.2,63.2h-1.3v-3.7c0-0.5-0.1-0.8-0.3-1c-0.2-0.2-0.4-0.3-0.8-0.3c-0.5,0-0.9,0.2-1.1,0.5
			c-0.2,0.3-0.3,0.9-0.3,1.6v3h-1.3v-6h1l0.2,0.8h0.1c0.2-0.3,0.4-0.5,0.7-0.7c0.3-0.2,0.7-0.2,1-0.2c0.9,0,1.5,0.3,1.8,0.9h0.1
			c0.2-0.3,0.4-0.5,0.8-0.7c0.3-0.2,0.7-0.3,1.1-0.3c0.7,0,1.2,0.2,1.6,0.5c0.3,0.4,0.5,0.9,0.5,1.7v3.9h-1.3v-3.7
			c0-0.5-0.1-0.8-0.3-1c-0.2-0.2-0.4-0.3-0.8-0.3c-0.5,0-0.9,0.2-1.1,0.5c-0.2,0.3-0.3,0.8-0.3,1.4V63.2z"/>
		<path class="st2" d="M115.4,63.3c-0.9,0-1.7-0.3-2.2-0.8c-0.5-0.5-0.8-1.3-0.8-2.3c0-1,0.2-1.8,0.7-2.3c0.5-0.6,1.2-0.8,2-0.8
			c0.8,0,1.4,0.2,1.9,0.7s0.7,1.1,0.7,2v0.7h-4c0,0.6,0.2,1,0.5,1.3c0.3,0.3,0.7,0.5,1.3,0.5c0.4,0,0.7,0,1-0.1
			c0.3-0.1,0.6-0.2,1-0.3v1c-0.3,0.1-0.6,0.3-0.9,0.3C116.2,63.3,115.8,63.3,115.4,63.3z M115.2,58c-0.4,0-0.7,0.1-1,0.4
			c-0.2,0.3-0.4,0.6-0.4,1.1h2.7c0-0.5-0.1-0.9-0.4-1.1C115.9,58.2,115.6,58,115.2,58z"/>
		<path class="st2" d="M124.3,63.2H123v-3.7c0-0.5-0.1-0.8-0.3-1c-0.2-0.2-0.4-0.3-0.8-0.3c-0.5,0-0.9,0.2-1.1,0.5
			c-0.2,0.3-0.3,0.9-0.3,1.6v3h-1.3v-6h1l0.2,0.8h0.1c0.2-0.3,0.4-0.5,0.7-0.7c0.3-0.2,0.7-0.2,1-0.2c0.9,0,1.5,0.3,1.8,0.9h0.1
			c0.2-0.3,0.4-0.5,0.8-0.7c0.3-0.2,0.7-0.3,1.1-0.3c0.7,0,1.2,0.2,1.6,0.5c0.3,0.4,0.5,0.9,0.5,1.7v3.9h-1.3v-3.7
			c0-0.5-0.1-0.8-0.3-1c-0.2-0.2-0.4-0.3-0.8-0.3c-0.5,0-0.9,0.2-1.1,0.5c-0.2,0.3-0.3,0.8-0.3,1.4V63.2z"/>
		<path class="st2" d="M135.2,60.2c0,1-0.3,1.7-0.8,2.3c-0.5,0.5-1.2,0.8-2.1,0.8c-0.6,0-1.1-0.1-1.5-0.4c-0.4-0.3-0.8-0.6-1-1.1
			c-0.2-0.5-0.3-1-0.3-1.7c0-1,0.3-1.7,0.8-2.3s1.2-0.8,2.1-0.8c0.9,0,1.6,0.3,2.1,0.8C134.9,58.5,135.2,59.2,135.2,60.2z
			 M130.8,60.2c0,1.4,0.5,2.1,1.5,2.1c1,0,1.5-0.7,1.5-2.1c0-1.4-0.5-2.1-1.5-2.1c-0.5,0-0.9,0.2-1.2,0.5
			C130.9,59,130.8,59.5,130.8,60.2z"/>
		<path class="st2" d="M139.7,57.1c0.3,0,0.5,0,0.6,0.1l-0.1,1.2c-0.2,0-0.4-0.1-0.6-0.1c-0.5,0-0.9,0.2-1.2,0.5
			c-0.3,0.3-0.5,0.8-0.5,1.3v3.1h-1.3v-6h1l0.2,1.1h0.1c0.2-0.4,0.5-0.6,0.8-0.9S139.3,57.1,139.7,57.1z"/>
		<path class="st2" d="M141.4,55.6c0-0.2,0.1-0.4,0.2-0.5s0.3-0.2,0.5-0.2c0.2,0,0.4,0.1,0.5,0.2s0.2,0.3,0.2,0.5
			c0,0.2-0.1,0.4-0.2,0.5c-0.1,0.1-0.3,0.2-0.5,0.2c-0.2,0-0.4-0.1-0.5-0.2C141.4,56,141.4,55.8,141.4,55.6z M142.7,63.2h-1.3v-6
			h1.3V63.2z"/>
		<path class="st2" d="M148.3,63.2l-0.3-0.8h0c-0.3,0.4-0.6,0.6-0.9,0.7c-0.3,0.1-0.7,0.2-1.1,0.2c-0.6,0-1.1-0.2-1.4-0.5
			c-0.3-0.3-0.5-0.8-0.5-1.4c0-0.6,0.2-1.1,0.7-1.4c0.5-0.3,1.2-0.5,2.1-0.5l1,0v-0.3c0-0.4-0.1-0.7-0.3-0.9
			c-0.2-0.2-0.5-0.3-0.8-0.3c-0.3,0-0.6,0-0.9,0.1c-0.3,0.1-0.6,0.2-0.8,0.3l-0.4-0.9c0.3-0.2,0.7-0.3,1.1-0.4
			c0.4-0.1,0.8-0.1,1.1-0.1c0.8,0,1.3,0.2,1.7,0.5c0.4,0.3,0.6,0.9,0.6,1.6v4H148.3z M146.4,62.3c0.5,0,0.8-0.1,1.1-0.4
			c0.3-0.3,0.4-0.6,0.4-1.1v-0.5l-0.8,0c-0.6,0-1,0.1-1.3,0.3c-0.3,0.2-0.4,0.5-0.4,0.8c0,0.3,0.1,0.5,0.2,0.6
			C145.8,62.2,146.1,62.3,146.4,62.3z"/>
		<path class="st2" d="M152.3,63.2H151v-8.5h1.3V63.2z"/>
		<path class="st2" d="M31.8,69.6c0.7,0,1.3,0.3,1.8,0.8c0.4,0.5,0.6,1.3,0.6,2.3c0,1-0.2,1.8-0.6,2.3c-0.4,0.5-1,0.8-1.8,0.8
			c-0.8,0-1.4-0.3-1.8-0.8h-0.1l-0.2,0.7h-1v-8.5H30v2c0,0.1,0,0.4,0,0.7c0,0.3,0,0.5,0,0.6H30C30.4,69.9,31,69.6,31.8,69.6z
			 M31.5,70.7c-0.5,0-0.9,0.2-1.1,0.5c-0.2,0.3-0.3,0.8-0.4,1.5v0.1c0,0.7,0.1,1.3,0.3,1.6c0.2,0.3,0.6,0.5,1.1,0.5
			c0.5,0,0.8-0.2,1-0.5c0.2-0.4,0.4-0.9,0.4-1.6C32.9,71.4,32.4,70.7,31.5,70.7z"/>
		<path class="st2" d="M38.3,75.9c-0.9,0-1.7-0.3-2.2-0.8s-0.8-1.3-0.8-2.3c0-1,0.2-1.8,0.7-2.3c0.5-0.6,1.2-0.8,2-0.8
			c0.8,0,1.4,0.2,1.9,0.7s0.7,1.1,0.7,2V73h-4c0,0.6,0.2,1,0.5,1.3c0.3,0.3,0.7,0.5,1.3,0.5c0.4,0,0.7,0,1-0.1
			c0.3-0.1,0.6-0.2,1-0.3v1c-0.3,0.1-0.6,0.3-0.9,0.3C39.1,75.8,38.7,75.9,38.3,75.9z M38.1,70.6c-0.4,0-0.7,0.1-1,0.4
			c-0.2,0.3-0.4,0.6-0.4,1.1h2.7c0-0.5-0.1-0.9-0.4-1.1C38.8,70.7,38.5,70.6,38.1,70.6z"/>
		<path class="st2" d="M47.4,75.7h-1.3v-3.7c0-0.5-0.1-0.8-0.3-1c-0.2-0.2-0.5-0.3-0.9-0.3c-0.5,0-0.9,0.2-1.2,0.5
			c-0.2,0.3-0.4,0.9-0.4,1.6v3h-1.3v-6h1l0.2,0.8h0.1c0.2-0.3,0.4-0.5,0.8-0.7c0.3-0.2,0.7-0.2,1.1-0.2c1.4,0,2.2,0.7,2.2,2.2V75.7z
			"/>
		<path class="st2" d="M51.6,75.9c-0.9,0-1.6-0.3-2.1-0.8c-0.5-0.5-0.7-1.3-0.7-2.3c0-1,0.2-1.8,0.7-2.3c0.5-0.5,1.2-0.8,2.1-0.8
			c0.6,0,1.2,0.1,1.7,0.4L53,71c-0.5-0.2-1-0.3-1.3-0.3c-1,0-1.6,0.7-1.6,2.1c0,0.7,0.1,1.2,0.4,1.5s0.6,0.5,1.1,0.5
			c0.6,0,1.1-0.1,1.6-0.4v1.1c-0.2,0.1-0.5,0.2-0.7,0.3C52.3,75.8,51.9,75.9,51.6,75.9z"/>
		<path class="st2" d="M59.9,75.7h-1.3v-3.7c0-0.5-0.1-0.8-0.3-1c-0.2-0.2-0.5-0.3-0.9-0.3c-0.5,0-0.9,0.2-1.2,0.5
			c-0.3,0.3-0.4,0.9-0.4,1.6v3h-1.3v-8.5h1.3v2.1c0,0.3,0,0.7-0.1,1.1h0.1c0.2-0.3,0.4-0.5,0.7-0.7s0.7-0.2,1.1-0.2
			c1.5,0,2.2,0.7,2.2,2.2V75.7z"/>
		<path class="st2" d="M69.9,72.7c0,1-0.3,1.7-0.8,2.3c-0.5,0.5-1.2,0.8-2.1,0.8c-0.6,0-1.1-0.1-1.5-0.4c-0.4-0.3-0.8-0.6-1-1.1
			c-0.2-0.5-0.3-1-0.3-1.7c0-1,0.2-1.7,0.7-2.3c0.5-0.5,1.2-0.8,2.1-0.8c0.9,0,1.6,0.3,2.1,0.8C69.7,71,69.9,71.8,69.9,72.7z
			 M65.6,72.7c0,1.4,0.5,2.1,1.5,2.1c1,0,1.5-0.7,1.5-2.1c0-1.4-0.5-2.1-1.5-2.1c-0.5,0-0.9,0.2-1.2,0.5
			C65.7,71.6,65.6,72.1,65.6,72.7z"/>
		<path class="st2" d="M74.4,69.6c0.3,0,0.5,0,0.6,0.1L75,70.9c-0.2,0-0.4-0.1-0.6-0.1c-0.5,0-0.9,0.2-1.2,0.5s-0.5,0.8-0.5,1.3v3.1
			h-1.3v-6h1l0.2,1.1h0.1c0.2-0.4,0.5-0.6,0.8-0.9S74.1,69.6,74.4,69.6z"/>
		<path class="st2" d="M81.3,74.8c0.3,0,0.6,0,0.9-0.1v1c-0.1,0.1-0.3,0.1-0.5,0.2c-0.2,0-0.5,0.1-0.7,0.1c-1.2,0-1.8-0.6-1.8-1.9
			v-3.2h-0.8v-0.6l0.9-0.5l0.4-1.3h0.8v1.3h1.7v1h-1.7v3.2c0,0.3,0.1,0.5,0.2,0.7C80.9,74.8,81.1,74.8,81.3,74.8z"/>
		<path class="st2" d="M86.5,69.6c0.3,0,0.5,0,0.6,0.1L87,70.9c-0.2,0-0.4-0.1-0.6-0.1c-0.5,0-0.9,0.2-1.2,0.5s-0.5,0.8-0.5,1.3v3.1
			h-1.3v-6h1l0.2,1.1h0.1c0.2-0.4,0.5-0.6,0.8-0.9S86.1,69.6,86.5,69.6z"/>
		<path class="st2" d="M90.9,75.9c-0.9,0-1.7-0.3-2.2-0.8c-0.5-0.5-0.8-1.3-0.8-2.3c0-1,0.2-1.8,0.7-2.3c0.5-0.6,1.2-0.8,2-0.8
			c0.8,0,1.4,0.2,1.9,0.7s0.7,1.1,0.7,2V73h-4c0,0.6,0.2,1,0.5,1.3c0.3,0.3,0.7,0.5,1.3,0.5c0.4,0,0.7,0,1-0.1
			c0.3-0.1,0.6-0.2,1-0.3v1c-0.3,0.1-0.6,0.3-0.9,0.3C91.7,75.8,91.3,75.9,90.9,75.9z M90.6,70.6c-0.4,0-0.7,0.1-1,0.4
			c-0.2,0.3-0.4,0.6-0.4,1.1H92c0-0.5-0.1-0.9-0.4-1.1C91.4,70.7,91.1,70.6,90.6,70.6z"/>
		<path class="st2" d="M97.3,75.9c-0.9,0-1.7-0.3-2.2-0.8c-0.5-0.5-0.8-1.3-0.8-2.3c0-1,0.2-1.8,0.7-2.3c0.5-0.6,1.2-0.8,2-0.8
			c0.8,0,1.4,0.2,1.9,0.7s0.7,1.1,0.7,2V73h-4c0,0.6,0.2,1,0.5,1.3c0.3,0.3,0.7,0.5,1.3,0.5c0.4,0,0.7,0,1-0.1
			c0.3-0.1,0.6-0.2,1-0.3v1c-0.3,0.1-0.6,0.3-0.9,0.3C98.1,75.8,97.7,75.9,97.3,75.9z M97.1,70.6c-0.4,0-0.7,0.1-1,0.4
			c-0.2,0.3-0.4,0.6-0.4,1.1h2.7c0-0.5-0.1-0.9-0.4-1.1C97.8,70.7,97.5,70.6,97.1,70.6z"/>
		<path class="st2" d="M107,75.9c-0.8,0-1.4-0.3-1.8-0.8h-0.1c0,0.5,0.1,0.8,0.1,0.9v2.5H104v-8.7h1c0,0.1,0.1,0.4,0.2,0.8h0.1
			c0.4-0.6,1-0.9,1.8-0.9c0.7,0,1.3,0.3,1.8,0.8c0.4,0.5,0.6,1.3,0.6,2.3s-0.2,1.7-0.6,2.3C108.3,75.6,107.8,75.9,107,75.9z
			 M106.7,70.7c-0.5,0-0.9,0.1-1.1,0.4s-0.4,0.8-0.4,1.4v0.2c0,0.7,0.1,1.3,0.3,1.6c0.2,0.3,0.6,0.5,1.1,0.5c0.4,0,0.8-0.2,1-0.5
			c0.2-0.4,0.4-0.9,0.4-1.5c0-0.7-0.1-1.2-0.4-1.5S107.2,70.7,106.7,70.7z"/>
		<path class="st2" d="M112.2,75.7h-1.3v-8.5h1.3V75.7z"/>
		<path class="st2" d="M117.8,75.7l-0.3-0.8h0c-0.3,0.4-0.6,0.6-0.9,0.7c-0.3,0.1-0.7,0.2-1.1,0.2c-0.6,0-1.1-0.2-1.4-0.5
			c-0.3-0.3-0.5-0.8-0.5-1.4c0-0.6,0.2-1.1,0.7-1.4c0.5-0.3,1.2-0.5,2.1-0.5l1,0v-0.3c0-0.4-0.1-0.7-0.3-0.9
			c-0.2-0.2-0.5-0.3-0.8-0.3c-0.3,0-0.6,0-0.9,0.1c-0.3,0.1-0.6,0.2-0.8,0.3l-0.4-0.9c0.3-0.2,0.7-0.3,1.1-0.4
			c0.4-0.1,0.8-0.1,1.1-0.1c0.8,0,1.3,0.2,1.7,0.5c0.4,0.3,0.6,0.9,0.6,1.6v4H117.8z M115.9,74.9c0.5,0,0.8-0.1,1.1-0.4
			c0.3-0.3,0.4-0.6,0.4-1.1v-0.5l-0.8,0c-0.6,0-1,0.1-1.3,0.3c-0.3,0.2-0.4,0.5-0.4,0.8c0,0.3,0.1,0.5,0.2,0.6
			C115.3,74.8,115.5,74.9,115.9,74.9z"/>
		<path class="st2" d="M122.5,75.9c-0.7,0-1.3-0.3-1.7-0.8c-0.4-0.5-0.6-1.3-0.6-2.3c0-1,0.2-1.7,0.6-2.3c0.4-0.6,1-0.8,1.8-0.8
			c0.4,0,0.7,0.1,1,0.2c0.3,0.1,0.6,0.4,0.8,0.7h0l0.1-0.8h1.1v8.7h-1.3v-2.5c0-0.2,0-0.3,0-0.5c0-0.2,0-0.3,0-0.4h-0.1
			C123.9,75.6,123.3,75.9,122.5,75.9z M122.8,74.8c0.5,0,0.9-0.2,1.2-0.5c0.2-0.3,0.4-0.8,0.4-1.4v-0.2c0-0.7-0.1-1.3-0.4-1.6
			c-0.2-0.3-0.6-0.5-1.2-0.5c-0.5,0-0.8,0.2-1,0.5c-0.2,0.4-0.4,0.9-0.4,1.6C121.4,74.1,121.9,74.8,122.8,74.8z"/>
		<path class="st2" d="M131.6,75.7l-0.2-0.8h-0.1c-0.2,0.3-0.4,0.5-0.8,0.7c-0.3,0.2-0.7,0.2-1.1,0.2c-0.7,0-1.3-0.2-1.6-0.5
			s-0.5-0.9-0.5-1.6v-3.9h1.3v3.7c0,0.5,0.1,0.8,0.3,1c0.2,0.2,0.5,0.3,0.9,0.3c0.5,0,0.9-0.2,1.2-0.5c0.3-0.3,0.4-0.9,0.4-1.6v-3
			h1.3v6H131.6z"/>
		<path class="st2" d="M137.1,75.9c-0.9,0-1.7-0.3-2.2-0.8c-0.5-0.5-0.8-1.3-0.8-2.3c0-1,0.2-1.8,0.7-2.3c0.5-0.6,1.2-0.8,2-0.8
			c0.8,0,1.4,0.2,1.9,0.7s0.7,1.1,0.7,2V73h-4c0,0.6,0.2,1,0.5,1.3c0.3,0.3,0.7,0.5,1.3,0.5c0.4,0,0.7,0,1-0.1
			c0.3-0.1,0.6-0.2,1-0.3v1c-0.3,0.1-0.6,0.3-0.9,0.3C137.8,75.8,137.5,75.9,137.1,75.9z M136.8,70.6c-0.4,0-0.7,0.1-1,0.4
			c-0.2,0.3-0.4,0.6-0.4,1.1h2.7c0-0.5-0.1-0.9-0.4-1.1C137.6,70.7,137.2,70.6,136.8,70.6z"/>
	</g>
</g>
</svg>
