<?xml version="1.0" encoding="utf-8"?>
<!-- Generator: Adobe Illustrator 19.1.0, SVG Export Plug-In . SVG Version: 6.00 Build 0)  -->
<svg version="1.1" id="Layer_1" xmlns="http://www.w3.org/2000/svg" xmlns:xlink="http://www.w3.org/1999/xlink" x="0px" y="0px"
	 viewBox="-180 322 250 150" style="enable-background:new -180 322 250 150;" xml:space="preserve">
<style type="text/css">
	.st0{display:none;fill:#FFFFFF;}
	.st1{display:none;fill:#B3E5FC;}
	.st2{fill:#FFD54F;}
	.st3{fill:#E57373;}
	.st4{fill:#424242;}
	.st5{fill:#E0E0E0;}
	.st6{fill:none;stroke:#E0E0E0;stroke-width:0.5;stroke-miterlimit:10;}
	.st7{fill:none;stroke:#BDBDBD;stroke-width:0.2;stroke-linecap:round;stroke-miterlimit:10;}
	.st8{fill:none;stroke:#BDBDBD;stroke-width:0.5;stroke-linecap:round;stroke-miterlimit:10;}
	
		.st9{fill:none;stroke:#BDBDBD;stroke-width:0.5;stroke-linecap:round;stroke-miterlimit:10;stroke-dasharray:4.885359e-002,1.4656;}
	
		.st10{fill:none;stroke:#BDBDBD;stroke-width:0.5;stroke-linecap:round;stroke-miterlimit:10;stroke-dasharray:5.075225e-002,1.5226;}
	
		.st11{fill:none;stroke:#BDBDBD;stroke-width:0.5;stroke-linecap:round;stroke-miterlimit:10;stroke-dasharray:5.049922e-002,1.515;}
	
		.st12{fill:none;stroke:#BDBDBD;stroke-width:0.5;stroke-linecap:round;stroke-miterlimit:10;stroke-dasharray:5.080980e-002,1.5243;}
	
		.st13{fill:none;stroke:#BDBDBD;stroke-width:0.5;stroke-linecap:round;stroke-miterlimit:10;stroke-dasharray:4.818892e-002,1.4457;}
	.st14{fill:#332C2C;}
	.st15{fill:#FAFAFA;}
	.st16{fill:none;stroke:#FAFAFA;stroke-width:0.2;stroke-miterlimit:10;}
	.st17{fill:#9E9E9E;}
	.st18{fill:#785555;}
	.st19{fill:#BDBDBD;}
	.st20{fill:none;stroke:#BDBDBD;stroke-width:0.2;stroke-miterlimit:10;}
	.st21{fill:#E0E0E0;stroke:#BDBDBD;stroke-width:0.2;stroke-miterlimit:10;}
	.st22{fill:none;stroke:#9E9E9E;stroke-width:0.5;stroke-miterlimit:10;}
	
		.st23{fill:none;stroke:#BDBDBD;stroke-width:0.5;stroke-linecap:round;stroke-miterlimit:10;stroke-dasharray:5.402026e-002,1.6206;}
</style>
<g id="Guides">
	<rect id="XMLID_5_" x="-595" y="1363" class="st0" width="125" height="75"/>
</g>
<g id="Layer_2">
	<rect id="base" x="-180" y="322" class="st1" width="250" height="150"/>
	<ellipse class="st2" cx="10.9" cy="420.9" rx="1.8" ry="2.7"/>
	<ellipse class="st3" cx="-120.9" cy="421.7" rx="1.8" ry="2.2"/>
	<ellipse class="st2" cx="-120.9" cy="426.1" rx="1.8" ry="2.2"/>
	<path class="st4" d="M7.4,440.2h-124.4c-0.8,0-1.3-0.5-1.3-1.3v-9.9c0-0.8,0.5-1.3,1.3-1.3H7.5c0.8,0,1.3,0.5,1.3,1.3v9.9
		C8.6,439.7,8.1,440.2,7.4,440.2z"/>
	<path class="st5" d="M9,414.8l-11.9-3.9l-12.3-20c-1.9-3.2-5.4-5.3-9.3-5.3h-96.2c-0.6,0-1.3,0.5-1.3,1.3V435
		c0,0.6,0.5,1.3,1.3,1.3h14.8l0,0c1.7-4.9,6.2-8.6,11.7-8.6c6.5,0,11.7,5.1,12.2,11.4c0,0.6,0.6,1.2,1.3,1.2h54.4
		c0.4,0,0.6-0.1,0.9-0.4c1.3-1.4,6-6.2,7.9-8c2.3-2.5,5.6-4.1,9.2-4.1c5.1,0,9.5,3.1,11.3,7.6c0.3,0.5,0.6,0.8,1.2,0.8
		c1.4,0,4.4,0,6.1,0c0.6,0,1.3-0.5,1.3-1.3v-16.3C11.5,416.9,10.6,415.5,9,414.8z M-22.3,410.3h-16.1V394h14c1.2,0,2.1,0.9,2.1,2.1
		L-22.3,410.3L-22.3,410.3z M-8.3,410.9h-8c-0.5,0-0.8-0.4-0.8-0.8v-14.3c0-0.9,1.2-1.2,1.6-0.4l8,14.3
		C-7.3,410.3-7.7,410.9-8.3,410.9z"/>
	<path class="st6" d="M-106.3,437.4"/>
	<path class="st7" d="M-24.4,391.8h-16.3v45.6h14.1l6.6-6.2V396C-20,393.7-22.1,391.8-24.4,391.8z M-22.3,410.3h-16.1V394h14
		c1.2,0,2.1,0.9,2.1,2.1L-22.3,410.3L-22.3,410.3z"/>
	<path class="st7" d="M-24.4,394h-14v16.3h16.1V396C-22.3,394.9-23.2,394-24.4,394z"/>
	<g>
		<g>
			<line class="st8" x1="-80.5" y1="437.4" x2="-80.5" y2="437.4"/>
			<line class="st9" x1="-78.6" y1="437.4" x2="-46.2" y2="437.4"/>
			<polyline class="st8" points="-45.3,437.4 -45.3,437.4 -45.3,437.4 			"/>
			<line class="st10" x1="-45.3" y1="435.4" x2="-45.3" y2="391.5"/>
			<polyline class="st8" points="-45.3,390.6 -45.3,390.5 -45.3,390.5 			"/>
			<line class="st11" x1="-47.2" y1="390.5" x2="-117.2" y2="390.5"/>
			<polyline class="st8" points="-118.3,390.5 -118.3,390.5 -118.3,390.6 			"/>
			<line class="st12" x1="-118.3" y1="392.5" x2="-118.3" y2="432.3"/>
			<polyline class="st8" points="-118.3,433.4 -118.3,433.4 -118.3,433.4 			"/>
			<line class="st13" x1="-116.3" y1="433.4" x2="-107.6" y2="433.4"/>
			<line class="st8" x1="-106.7" y1="433.4" x2="-106.7" y2="433.4"/>
		</g>
	</g>
	<circle class="st14" cx="-94.3" cy="440.2" r="10.6"/>
	<circle class="st15" cx="-94.3" cy="440.2" r="5.4"/>
	<circle class="st16" cx="-94.3" cy="440.2" r="6.7"/>
	<g id="Aggieland_x2C__its_spatial">
		<g id="T_3_">
			<path id="XMLID_248_" class="st17" d="M-65.5,414.6v4.4c0,0.9-0.8,1.6-1.6,1.6h-0.1v-6H-65.5L-65.5,414.6z"/>
			<rect id="XMLID_247_" x="-68.7" y="414.6" class="st18" width="4.7" height="1.7"/>
		</g>
		<g id="T_2_">
			<path id="XMLID_237_" class="st17" d="M-91.4,414.6v4.4c0,0.9-0.8,1.6-1.6,1.6h-0.1v-6H-91.4L-91.4,414.6z"/>
			<rect id="XMLID_236_" x="-94.7" y="414.6" class="st18" width="4.7" height="1.7"/>
		</g>
		<g id="S_6_">
			<path id="XMLID_241_" class="st18" d="M-79,414.6c-1.2,0-2.1,0.9-2.1,2.1c0,0.6,0.3,1.2,0.6,1.6l3-3
				C-77.8,414.8-78.3,414.6-79,414.6z"/>
			<path id="XMLID_240_" class="st17" d="M-80.7,420.5c1.2,0,2.1-0.9,2.1-2.1c0-0.6-0.3-1.2-0.6-1.6l-3,3
				C-81.7,420.3-81.2,420.5-80.7,420.5z"/>
		</g>
		<g id="S_5_">
			<path id="XMLID_239_" class="st18" d="M-85.5,414.6c-1.2,0-2.1,0.9-2.1,2.1c0,0.6,0.3,1.2,0.6,1.6l3-3
				C-84.4,414.8-84.9,414.6-85.5,414.6z"/>
			<path id="XMLID_238_" class="st17" d="M-87.1,420.5c1.2,0,2.1-0.9,2.1-2.1c0-0.6-0.3-1.2-0.6-1.6l-3,3
				C-88.3,420.3-87.8,420.5-87.1,420.5z"/>
		</g>
		<g id="P-3_2_">
			<circle id="XMLID_244_" class="st17" cx="-75" cy="416.3" r="1.7"/>
			<path id="XMLID_243_" class="st18" d="M-76.6,420.5L-76.6,420.5C-76.5,420.5-76.6,420.5-76.6,420.5L-76.6,420.5z"/>
			<path id="XMLID_242_" class="st18" d="M-75,414.6v4.4c0,0.9-0.8,1.6-1.6,1.6l0,0h-0.1v-6H-75L-75,414.6z"/>
		</g>
		<g id="N-2_2_">
			<rect id="XMLID_230_" x="-70.2" y="403.9" class="st17" width="1.7" height="6"/>
			<g id="M_8_">
				<polygon id="XMLID_229_" class="st18" points="-73,409.9 -68.4,409.9 -73,403.9 				"/>
			</g>
		</g>
		<g id="L-2_3_">
			<rect id="XMLID_256_" x="-55" y="418.7" class="st17" width="4" height="1.7"/>
			<polygon id="XMLID_255_" class="st18" points="-53.3,414.6 -55,414.6 -55,420.5 -55,420.5 -53.3,420.5 			"/>
		</g>
		<g id="L-2_2_">
			<rect id="XMLID_204_" x="-83.1" y="408.2" class="st17" width="4" height="1.7"/>
			<polygon id="XMLID_123_" class="st18" points="-81.4,403.9 -83.1,403.9 -83.1,409.9 -83.1,409.9 -81.4,409.9 			"/>
		</g>
		<g id="I-2_6_">
			<path id="XMLID_250_" class="st18" d="M-63.3,420.5L-63.3,420.5L-63.3,420.5C-63.2,420.5-63.3,420.5-63.3,420.5L-63.3,420.5z"/>
			<path id="XMLID_249_" class="st18" d="M-61.6,418.8L-61.6,418.8c0,0.5-0.3,0.9-0.5,1.2c-0.3,0.3-0.6,0.4-1.2,0.4h-0.1v-6h1.7
				L-61.6,418.8z"/>
		</g>
		<g id="I-2_5_">
			<path id="XMLID_235_" class="st18" d="M-97.1,420.5L-97.1,420.5L-97.1,420.5L-97.1,420.5L-97.1,420.5z"/>
			<path id="XMLID_234_" class="st18" d="M-95.4,418.8L-95.4,418.8c0,0.5-0.3,0.9-0.5,1.2c-0.3,0.3-0.6,0.4-1.2,0.4h-0.1v-6h1.7
				L-95.4,418.8z"/>
		</g>
		<g id="I-2_4_">
			<path id="XMLID_118_" class="st18" d="M-90.5,409.9L-90.5,409.9L-90.5,409.9L-90.5,409.9L-90.5,409.9z"/>
			<path id="XMLID_117_" class="st18" d="M-88.8,408.3L-88.8,408.3c0,0.5-0.3,0.9-0.5,1.2c-0.3,0.3-0.6,0.4-1.2,0.4h-0.1v-6h1.7
				L-88.8,408.3z"/>
		</g>
		<g id="G-4_4_">
			<path id="XMLID_113_" class="st17" d="M-96.6,408.2h-4.5c0.3,1,1.2,1.7,2.3,1.7C-97.6,409.9-96.9,409.3-96.6,408.2z"/>
			<path id="XMLID_111_" class="st17" d="M-98.2,406.5L-98.2,406.5l-0.1,1.7h1.6v-0.1C-96.6,407.3-97.3,406.5-98.2,406.5z"/>
			<path id="XMLID_12_" class="st18" d="M-101.3,406.4v1.3c0,1,0.8,1.9,1.7,2.3v-4.1h2.9c-0.3-1-1.2-1.7-2.3-1.7
				c-0.3,0-0.4,0-0.6,0.1c0,0-0.8,0.1-1.3,0.8C-101.3,405.6-101.3,406.4-101.3,406.4z"/>
		</g>
		<g id="G-4_5_">
			<path id="XMLID_116_" class="st17" d="M-91.2,408.2h-4.5c0.3,1,1.2,1.7,2.3,1.7C-92.2,409.9-91.4,409.1-91.2,408.2z"/>
			<path id="XMLID_114_" class="st17" d="M-92.7,406.4L-92.7,406.4l-0.1,1.7h1.6V408C-91.2,407.2-91.9,406.5-92.7,406.4z"/>
			<path id="XMLID_8_" class="st18" d="M-95.8,406.3v1.3c0,1,0.8,1.9,1.7,2.3v-4.1h2.9c-0.3-1-1.2-1.7-2.3-1.7c-0.3,0-0.4,0-0.6,0.1
				c0,0-0.8,0.1-1.3,0.8C-95.8,405.6-95.8,406.3-95.8,406.3z"/>
		</g>
		<g id="E-2_2_">
			<rect id="XMLID_122_" x="-87.9" y="408.2" class="st17" width="4" height="1.7"/>
			<rect id="XMLID_121_" x="-87.9" y="403.9" class="st17" width="4" height="1.7"/>
			<rect id="XMLID_120_" x="-87.9" y="406.3" class="st17" width="2.6" height="1.3"/>
			<polygon id="XMLID_119_" class="st18" points="-86.2,403.9 -87.9,403.9 -87.9,409.9 -87.9,409.9 -86.2,409.9 			"/>
		</g>
		<g id="B_6_">
			<g id="XMLID_232_">
				<path id="XMLID_233_" class="st17" d="M-65.6,403.9v6l0,0l0,0c1.7,0,3-1.3,3-3C-62.6,405.2-63.9,403.9-65.6,403.9z"/>
			</g>
			<g id="L_7_">
				<rect id="XMLID_231_" x="-67.3" y="403.9" class="st18" width="1.7" height="6"/>
			</g>
		</g>
		<g id="A_7_">
			<polygon id="XMLID_254_" class="st18" points="-58.4,414.6 -59.4,416.8 -57.3,416.8 			"/>
			<polygon id="XMLID_251_" class="st17" points="-61,420.5 -55.8,420.5 -57.1,417.7 -59.7,417.7 			"/>
		</g>
		<g id="A_6_">
			<polygon id="XMLID_246_" class="st18" points="-70.7,414.6 -71.6,416.8 -69.6,416.8 			"/>
			<polygon id="XMLID_245_" class="st17" points="-73.1,420.5 -68.1,420.5 -69.3,417.7 -72,417.7 			"/>
		</g>
		<g id="A_5_">
			<polygon id="XMLID_228_" class="st18" points="-76.1,403.9 -77.2,406.3 -75.2,406.3 			"/>
			<polygon id="XMLID_222_" class="st17" points="-78.7,409.9 -73.5,409.9 -74.8,407.2 -77.6,407.2 			"/>
		</g>
		<g id="A_4_">
			<polygon id="XMLID_110_" class="st18" points="-104.3,404.1 -105.3,406.4 -103.4,406.4 			"/>
			<polygon id="XMLID_57_" class="st17" points="-106.9,410 -101.8,410 -103,407.2 -105.7,407.2 			"/>
		</g>
		<polygon id="XMLID_257_" class="st18" points="-88.3,415.5 -87.8,414.2 -89,414.2 		"/>
	</g>
	<path class="st18" d="M-19.9,386.6c-2.1-1-4.1-1-4.1-1h-96.4c-0.8,0-1.3,0.6-1.3,1.3v1.4H-17C-17.1,388.4-18.4,387.2-19.9,386.6z"
		/>
	<path class="st19" d="M-37.5,416.5h-0.3c-0.1,0-0.3-0.1-0.3-0.3V413c0-0.1,0.1-0.3,0.3-0.3h0.3c0.1,0,0.3,0.1,0.3,0.3v3.2
		C-37.2,416.4-37.2,416.5-37.5,416.5z"/>
	<path class="st19" d="M-20,401h-0.1c-0.1,0-0.1-0.1-0.1-0.1v-3.5c0-0.1,0.1-0.1,0.1-0.1h0.1c0.1,0,0.1,0.1,0.1,0.1v3.5
		C-19.7,400.8-19.9,401-20,401z"/>
	<path class="st19" d="M-20,415.3h-0.1c-0.1,0-0.1-0.1-0.1-0.1v-3.5c0-0.1,0.1-0.1,0.1-0.1h0.1c0.1,0,0.1,0.1,0.1,0.1v3.5
		C-19.7,415.3-19.9,415.3-20,415.3z"/>
	<path class="st19" d="M-20,430.2h-0.1c-0.1,0-0.1-0.1-0.1-0.1v-3.5c0-0.1,0.1-0.1,0.1-0.1h0.1c0.1,0,0.1,0.1,0.1,0.1v3.5
		C-19.7,430.1-19.9,430.2-20,430.2z"/>
	<line class="st20" x1="-42.8" y1="440.2" x2="-42.8" y2="388.4"/>
	<circle class="st3" cx="-116.1" cy="431.5" r="0.9"/>
	<circle class="st3" cx="8.9" cy="431.5" r="0.9"/>
	<path class="st3" d="M-114,392.9h-2.5c-0.3,0-0.4-0.1-0.4-0.4v-0.4c0-0.3,0.1-0.4,0.4-0.4h2.5c0.3,0,0.4,0.1,0.4,0.4v0.4
		C-113.7,392.8-113.9,392.9-114,392.9z"/>
	<path class="st2" d="M-47.1,392.9h-2.5c-0.3,0-0.4-0.1-0.4-0.4v-0.4c0-0.3,0.1-0.4,0.4-0.4h2.5c0.3,0,0.4,0.1,0.4,0.4v0.4
		C-46.7,392.8-46.8,392.9-47.1,392.9z"/>
	<circle class="st5" cx="-94.3" cy="440.2" r="1.4"/>
	<circle class="st5" cx="-90.8" cy="439.1" r="0.4"/>
	<circle class="st5" cx="-94.3" cy="436.6" r="0.4"/>
	<circle class="st5" cx="-92.1" cy="443.2" r="0.4"/>
	<circle class="st5" cx="-96.5" cy="443.2" r="0.4"/>
	<circle class="st5" cx="-97.8" cy="439.1" r="0.4"/>
	<circle class="st14" cx="-8.3" cy="440.2" r="10.6"/>
	<circle class="st15" cx="-8.3" cy="440.2" r="5.4"/>
	<circle class="st16" cx="-8.3" cy="440.2" r="6.7"/>
	<circle class="st5" cx="-8.3" cy="440.2" r="1.4"/>
	<circle class="st5" cx="-5" cy="439.1" r="0.4"/>
	<circle class="st5" cx="-8.3" cy="436.6" r="0.4"/>
	<circle class="st5" cx="-6.3" cy="443.2" r="0.4"/>
	<circle class="st5" cx="-10.5" cy="443.2" r="0.4"/>
	<circle class="st5" cx="-11.8" cy="439.1" r="0.4"/>
	<rect x="-79.2" y="383.8" class="st21" width="24.2" height="1.8"/>
	<path class="st21" d="M-66.1,371.7h-0.6c-0.3,0-0.5,0.3-0.5,0.5v9.3c0,0.3,0.3,0.5,0.5,0.5h0.6c0.3,0,0.5-0.3,0.5-0.5v-9.3
		C-65.6,371.9-65.9,371.7-66.1,371.7z"/>
	<path class="st21" d="M-61.5,375.8l-0.5-0.5c-0.3-0.3-0.5-0.3-0.8,0l-5.3,5.3c-0.3,0.3-0.3,0.5,0,0.8l0.5,0.5
		c0.3,0.3,0.5,0.3,0.8,0l5.3-5.3C-61.2,376.3-61.2,376.1-61.5,375.8z"/>
	<rect x="-75" y="379.8" class="st21" width="15.7" height="4"/>
	<path class="st21" d="M-66.9,374.4c5.4,5.4,13.4,6.9,20.1,4.1l-24.2-24.2C-73.7,361-72.2,368.9-66.9,374.4z"/>
	<path class="st22" d="M-58.5,362.2c2.1,0,3.8,1.7,3.8,3.8"/>
	<path class="st22" d="M-59.3,354.2c7.1,0,13,5.8,13,13"/>
	<path class="st22" d="M-59.5,343.1c14,0,25.3,11.3,25.3,25.3"/>
	<path class="st20" d="M-17.3,410v-14.1c0-0.9,1.2-1.2,1.6-0.5l8,14.1c0.4,0.5,0,1.3-0.8,1.3h-8C-16.9,410.9-17.3,410.5-17.3,410z"
		/>
	<g>
		<g>
			<line class="st8" x1="-73.5" y1="381.9" x2="-73.5" y2="381.9"/>
			<line class="st23" x1="-71.5" y1="381.9" x2="-61.6" y2="381.9"/>
			<line class="st8" x1="-60.6" y1="381.9" x2="-60.6" y2="381.9"/>
		</g>
	</g>
</g>
</svg>
