<?xml version="1.0" encoding="utf-8"?>
<!-- Generator: Adobe Illustrator 19.1.0, SVG Export Plug-In . SVG Version: 6.00 Build 0)  -->
<svg version="1.1" id="Layer_1" xmlns="http://www.w3.org/2000/svg" xmlns:xlink="http://www.w3.org/1999/xlink" x="0px" y="0px"
	 viewBox="-354 206 250 150" style="enable-background:new -354 206 250 150;" xml:space="preserve">
<style type="text/css">
	.st0{display:none;fill:#FFFFFF;}
	.st1{display:none;fill:#B3E5FC;stroke:#B0BEC5;stroke-miterlimit:10;}
	.st2{fill:none;stroke:#B0BEC5;stroke-width:1.5;stroke-miterlimit:10;}
	.st3{fill:#EEEEEE;stroke:#B0BEC5;stroke-width:1.5;stroke-miterlimit:10;}
	.st4{fill:none;stroke:#B0BEC5;stroke-width:0.5;stroke-miterlimit:10;}
	.st5{fill:none;stroke:#B0BEC5;stroke-linecap:round;stroke-miterlimit:10;}
	.st6{fill:none;stroke:#B0BEC5;stroke-miterlimit:10;}
	.st7{fill:#E0E0E0;stroke:#B0BEC5;stroke-miterlimit:10;}
	.st8{fill:#EEEEEE;stroke:#B0BEC5;stroke-miterlimit:10;}
</style>
<g id="Guides">
	<rect id="XMLID_5_" x="-1123" y="1453" class="st0" width="125" height="75"/>
</g>
<g id="Layer_2">
	<rect id="base" x="-379" y="191" class="st1" width="300" height="180"/>
	<path class="st2" d="M-171.3,306.8h-115.2c-0.7,0-1.2-0.5-1.2-1.2v-9.1c0-0.7,0.5-1.2,1.2-1.2h115.3c0.7,0,1.2,0.5,1.2,1.2v9.1
		C-170.1,306.3-170.6,306.8-171.3,306.8z"/>
	<path class="st3" d="M-169.7,283.3l-11-3.6l-11.4-18.5c-1.8-3-5-4.9-8.6-4.9h-89c-0.6,0-1.2,0.5-1.2,1.2V302c0,0.6,0.5,1.2,1.2,1.2
		h13.7l0,0c1.6-4.6,5.8-7.9,10.8-7.9c6,0,10.8,4.7,11.3,10.6c0,0.6,0.6,1.1,1.2,1.1h50.4c0.4,0,0.6-0.1,0.8-0.4
		c1.2-1.3,5.5-5.8,7.3-7.4c2.2-2.3,5.2-3.8,8.5-3.8c4.7,0,8.8,2.9,10.4,7.1c0.2,0.5,0.6,0.7,1.1,0.7c1.3,0,4.1,0,5.6,0
		c0.6,0,1.2-0.5,1.2-1.2v-15.1C-167.4,285.2-168.3,283.9-169.7,283.3z M-198.8,279.1h-14.9V264h13c1.1,0,1.9,0.8,1.9,1.9V279.1
		L-198.8,279.1z M-185.8,279.7h-7.4c-0.5,0-0.7-0.4-0.7-0.7v-13.2c0-0.8,1.1-1.1,1.4-0.4l7.4,13.2
		C-184.8,279.1-185.2,279.7-185.8,279.7z"/>
	<path class="st4" d="M-276.5,304.2"/>
	<path class="st5" d="M-200.7,261.9h-15.1v42.2h13.1l6.1-5.8v-32.5C-196.6,263.7-198.5,261.9-200.7,261.9z"/>
	<circle class="st3" cx="-265.4" cy="306.8" r="9.1"/>
	<line class="st6" x1="-218.9" y1="306.8" x2="-218.9" y2="256.3"/>
	<circle class="st7" cx="-265.4" cy="306.8" r="1.3"/>
	<circle class="st3" cx="-185.8" cy="306.8" r="9.1"/>
	<circle class="st7" cx="-185.8" cy="306.8" r="1.3"/>
	<rect x="-251.4" y="253.4" class="st8" width="22.4" height="2.3"/>
	<path class="st8" d="M-241,242.1h-0.6c-0.2,0-0.5,0.2-0.5,0.5v8.6c0,0.2,0.2,0.5,0.5,0.5h0.6c0.2,0,0.5-0.2,0.5-0.5v-8.6
		C-240.5,242.4-240.8,242.1-241,242.1z"/>
	<path class="st8" d="M-235,246l-0.5-0.5c-0.2-0.2-0.5-0.2-0.7,0l-4.9,4.9c-0.2,0.2-0.2,0.5,0,0.7l0.5,0.5c0.2,0.2,0.5,0.2,0.7,0
		l4.9-4.9C-234.8,246.4-234.8,246.2-235,246z"/>
	<rect x="-247.5" y="249.7" class="st8" width="14.5" height="3.7"/>
	<path class="st8" d="M-240,244.6c5,5,12.4,6.4,18.6,3.8l-22.5-22.4C-246.3,232.3-245,239.6-240,244.6z"/>
	<path class="st6" d="M-232.2,233.4c1.9,0,3.5,1.6,3.5,3.5"/>
	<path class="st6" d="M-233,225.9c6.6,0,12,5.4,12,12"/>
	<path class="st6" d="M-233.2,215.7c13,0,23.4,10.4,23.4,23.4"/>
</g>
</svg>
