<?xml version="1.0" encoding="utf-8"?>
<!-- Generator: Adobe Illustrator 21.1.0, SVG Export Plug-In . SVG Version: 6.00 Build 0)  -->
<svg version="1.1" id="Layer_1" xmlns="http://www.w3.org/2000/svg" xmlns:xlink="http://www.w3.org/1999/xlink" x="0px" y="0px"
	 viewBox="0 0 142.6 78.8" style="enable-background:new 0 0 142.6 78.8;" xml:space="preserve">
<style type="text/css">
	.st0{fill:#500000;}
	.st1{fill:#424242;}
</style>
<g>
	<g>
		<path class="st0" d="M36.5,42.5h-5.2v-28h-3.3v-3.9l0.4,0c2-0.3,2.9-0.9,4.1-2.5l0.6-0.8h3.4V42.5z"/>
		<path class="st0" d="M51.8,42.5h-5.4v-35h8.4c4.4,0,6.5,2.1,6.5,6.5v9.3c0,4.4-2.1,6.5-6.5,6.5h-3.1V42.5z M54,12.2h-2.2v12.9H54
			c1.4,0,2-0.7,2-2.1v-8.8C56,12.8,55.3,12.2,54,12.2z"/>
		<path class="st0" d="M67.4,42.5V12.3h-4.8V7.5h15v4.9h-4.8v30.2H67.4z"/>
	</g>
	<g>
		<path class="st1" d="M96.3,25.1h-1.2V14.6h2.1c1.3,0,1.9,0.6,1.9,2v2.7c0,1.3-0.6,1.9-1.9,1.9h-0.9V25.1z M97.2,15.7h-0.8v4.4h0.8
			c0.5,0,0.8-0.3,0.8-0.8v-2.8C98,16,97.7,15.7,97.2,15.7z"/>
		<path class="st1" d="M103.4,14.6v1.1h-2.1v3.5h2v1.1h-2V24h2.1v1.1h-3.3V14.6H103.4z"/>
		<path class="st1" d="M108.7,21.6v3.5h-1.2v-3.5c0-0.6-0.3-0.9-0.9-0.9h-0.9v4.4h-1.2V14.6h2.2c1.3,0,2,0.6,2,2v2
			c0,0.9-0.3,1.4-0.9,1.6C108.4,20.4,108.7,20.8,108.7,21.6z M106.6,15.7h-1v3.9h0.9c0.6,0,0.9-0.3,0.9-0.9v-2.3
			C107.4,16,107.2,15.7,106.6,15.7z"/>
		<path class="st1" d="M90.8,38.1h-1.2V27.6h2.1c1.3,0,1.9,0.6,1.9,2v2.7c0,1.3-0.6,1.9-1.9,1.9h-0.9V38.1z M91.6,28.7h-0.8v4.4h0.8
			c0.5,0,0.8-0.3,0.8-0.8v-2.8C92.4,29,92.2,28.7,91.6,28.7z"/>
		<path class="st1" d="M97.8,32.2v-4.6H99v10.5h-1.2v-4.8h-1.9v4.8h-1.2V27.6h1.2v4.6H97.8z"/>
		<path class="st1" d="M102.5,38.2H102c-1.3,0-1.9-0.6-1.9-2v-6.8c0-1.3,0.6-2,1.9-2h0.5c1.3,0,1.9,0.6,1.9,2v6.8
			C104.4,37.6,103.8,38.2,102.5,38.2z M102.4,28.7h-0.4c-0.5,0-0.8,0.3-0.8,0.8v6.9c0,0.5,0.3,0.8,0.8,0.8h0.4
			c0.5,0,0.8-0.3,0.8-0.8v-6.9C103.2,28.9,103,28.7,102.4,28.7z"/>
		<path class="st1" d="M106.5,38.1v-9.4H105v-1.1h4.3v1.1h-1.6v9.4H106.5z"/>
		<path class="st1" d="M112.2,38.2h-0.4c-1.3,0-2-0.6-2-2v-6.8c0-1.3,0.6-2,2-2h0.4c1.3,0,2,0.6,2,2v6.8
			C114.2,37.6,113.5,38.2,112.2,38.2z M112.2,28.7h-0.4c-0.5,0-0.8,0.3-0.8,0.8v6.9c0,0.5,0.3,0.8,0.8,0.8h0.4
			c0.5,0,0.8-0.3,0.8-0.8v-6.9C113,28.9,112.7,28.7,112.2,28.7z"/>
	</g>
</g>
<g>
	<path class="st1" d="M3.9,62.1v-1.1c2.6-1.9,4.7-3.6,4.7-5.4c0-1.2-0.7-1.8-1.6-1.8c-1.1,0-1.8,0.8-1.8,2.3l-1.3,0
		c0-2,1.3-3.3,3.1-3.3c1.7,0,3,1,3,2.7c0,2.1-1.7,3.7-4.1,5.4h4.3v1.1H3.9z"/>
	<path class="st1" d="M11.7,62.1v-1.1h1.5v-6.3c-0.6,0.4-1.2,0.6-1.6,0.6v-1c1,0,1.8-0.6,2.2-1.3h0.8v8H16v1.1H11.7z"/>
	<path class="st1" d="M21.3,59.5v2.7h-1.1v-2.7h-2.7v-1.1h2.7v-2.7h1.1v2.7h2.7v1.1H21.3z"/>
	<path class="st1" d="M30.6,64.8h-1.3v-9.4h1.3l0,1.4c0.4-1,1.2-1.6,2.3-1.6c1.7,0,3,1.5,3,3.6c0,2.1-1.2,3.6-3,3.6
		c-1.1,0-1.8-0.6-2.2-1.5V64.8z M34.4,58.8c0-1.4-0.8-2.7-2-2.7c-1.1,0-2,1.1-2,2.7c0,1.5,0.9,2.6,2,2.6
		C33.6,61.4,34.4,60.2,34.4,58.8z"/>
	<path class="st1" d="M38.3,59c0.1,1.5,0.9,2.4,2,2.4c1.1,0,1.8-1,1.9-1.5l1.2,0c0,1-1.3,2.5-3.2,2.5c-1.9,0-3.3-1.6-3.3-3.6
		c0-2.1,1.4-3.6,3.3-3.6s3.2,1.5,3.2,3.3V59H38.3z M42.1,58.2c-0.2-1.2-1-2-1.9-2c-0.9,0-1.7,0.8-1.9,2H42.1z"/>
	<path class="st1" d="M44.6,58.8c0-2.2,1.4-3.6,3.3-3.6s3.4,1.4,3.4,3.6s-1.4,3.6-3.3,3.6C46,62.4,44.6,61,44.6,58.8z M49.9,58.8
		c0-1.5-0.9-2.6-2-2.6c-1.2,0-2,1.2-2,2.6c0,1.5,0.9,2.6,2,2.6C49.1,61.4,49.9,60.3,49.9,58.8z"/>
	<path class="st1" d="M54.2,64.8h-1.3v-9.4h1.3l0,1.4c0.4-1,1.2-1.6,2.3-1.6c1.7,0,3,1.5,3,3.6c0,2.1-1.2,3.6-3,3.6
		c-1.1,0-1.8-0.6-2.2-1.5V64.8z M58.1,58.8c0-1.4-0.8-2.7-2-2.7c-1.1,0-2,1.1-2,2.7c0,1.5,0.9,2.6,2,2.6
		C57.3,61.4,58.1,60.2,58.1,58.8z"/>
	<path class="st1" d="M61.1,62.1v-9.6h1.3v9.6H61.1z"/>
	<path class="st1" d="M65.3,59c0.1,1.5,0.9,2.4,2,2.4c1.1,0,1.8-1,1.9-1.5l1.2,0c0,1-1.3,2.5-3.2,2.5c-1.9,0-3.3-1.6-3.3-3.6
		c0-2.1,1.4-3.6,3.3-3.6s3.2,1.5,3.2,3.3V59H65.3z M69.2,58.2c-0.2-1.2-1-2-1.9-2c-0.9,0-1.7,0.8-1.9,2H69.2z"/>
	<path class="st1" d="M78.6,62.2c0,0-0.3,0.1-0.9,0.1c-1.1,0-1.8-0.5-1.8-2.2v-3.9H75v-0.8h0.8v-1.7h1.3v1.7h1.2v0.8h-1.2V60
		c0,1,0.3,1.3,0.9,1.3c0.3,0,0.5,0,0.5,0V62.2z"/>
	<path class="st1" d="M79.5,58.8c0-2.2,1.4-3.6,3.3-3.6s3.4,1.4,3.4,3.6s-1.4,3.6-3.3,3.6C80.9,62.4,79.5,61,79.5,58.8z M84.9,58.8
		c0-1.5-0.9-2.6-2-2.6c-1.2,0-2,1.2-2,2.6c0,1.5,0.9,2.6,2,2.6C84,61.4,84.9,60.3,84.9,58.8z"/>
	<path class="st1" d="M97.2,59.7c-0.3,1.6-1.5,2.7-3.2,2.7c-1.9,0-3.3-1.5-3.3-3.6c0-2.1,1.4-3.6,3.3-3.6c1.6,0,2.8,1,3.1,2.6
		l-1.3,0c-0.3-0.9-0.9-1.6-1.8-1.6c-1.2,0-2,1.2-2,2.6c0,1.4,0.9,2.7,2,2.7c0.9,0,1.6-0.9,1.8-1.8L97.2,59.7z"/>
	<path class="st1" d="M104.9,62.1h-1.3l0-1.4c-0.4,1-1.2,1.6-2.3,1.6c-1.7,0-3-1.5-3-3.6c0-2.1,1.2-3.6,3-3.6c1.1,0,1.8,0.6,2.3,1.6
		l0-1.3h1.3V62.1z M103.6,58.8c0-1.5-0.9-2.6-2-2.6c-1.1,0-2,1.2-2,2.6c0,1.4,0.8,2.6,2,2.6C102.7,61.4,103.6,60.3,103.6,58.8z"/>
	<path class="st1" d="M108.3,64.8h-1.3v-9.4h1.3l0,1.4c0.4-1,1.2-1.6,2.3-1.6c1.7,0,3,1.5,3,3.6c0,2.1-1.2,3.6-3,3.6
		c-1.1,0-1.8-0.6-2.2-1.5V64.8z M112.1,58.8c0-1.4-0.8-2.7-2-2.7c-1.1,0-2,1.1-2,2.7c0,1.5,0.9,2.6,2,2.6
		C111.3,61.4,112.1,60.2,112.1,58.8z"/>
	<path class="st1" d="M118,62.2c0,0-0.3,0.1-0.9,0.1c-1.1,0-1.8-0.5-1.8-2.2v-3.9h-0.8v-0.8h0.8v-1.7h1.3v1.7h1.2v0.8h-1.2V60
		c0,1,0.3,1.3,0.9,1.3c0.3,0,0.5,0,0.5,0V62.2z"/>
	<path class="st1" d="M124.5,62.1l0-1.4c-0.4,1-1.3,1.6-2.4,1.6c-1.4,0-2.3-0.9-2.3-2.8v-4.2h1.3v4c0,1.4,0.5,2,1.5,2
		c1.1,0,1.9-1,1.9-2.7v-3.3h1.3v6.7H124.5z"/>
	<path class="st1" d="M127.9,62.1v-6.7h1.3l0,1.6c0.4-1.2,1.3-1.9,2.2-1.9v1.2c-0.8-0.1-2.2,0.7-2.2,3v2.8H127.9z"/>
	<path class="st1" d="M133.5,59c0.1,1.5,0.9,2.4,2,2.4c1.1,0,1.8-1,1.9-1.5l1.2,0c0,1-1.3,2.5-3.2,2.5c-1.9,0-3.3-1.6-3.3-3.6
		c0-2.1,1.4-3.6,3.3-3.6s3.2,1.5,3.2,3.3V59H133.5z M137.3,58.2c-0.2-1.2-1-2-1.9-2c-0.9,0-1.7,0.8-1.9,2H137.3z"/>
	<path class="st1" d="M47.2,75.1h-1.3l0-1.4c-0.4,1-1.2,1.6-2.3,1.6c-1.7,0-3-1.5-3-3.6c0-2.1,1.2-3.6,3-3.6c1.1,0,1.8,0.6,2.3,1.6
		l0-1.3h1.3V75.1z M45.9,71.8c0-1.5-0.9-2.6-2-2.6c-1.1,0-2,1.2-2,2.6c0,1.4,0.8,2.6,2,2.6C45,74.4,45.9,73.3,45.9,71.8z"/>
	<path class="st1" d="M53.9,75.1h-1.3v-9.6H54v4.1c0.4-0.9,1.2-1.5,2.2-1.5c1.7,0,3,1.5,3,3.6c0,2.1-1.2,3.6-3,3.6
		c-1.1,0-1.8-0.6-2.3-1.6L53.9,75.1z M57.8,71.8c0-1.4-0.8-2.6-2-2.6c-1.1,0-2,1.1-2,2.6c0,1.5,0.9,2.7,2,2.7
		C57,74.4,57.8,73.2,57.8,71.8z"/>
	<path class="st1" d="M65.4,75.1l0-1.4c-0.4,1-1.3,1.6-2.4,1.6c-1.4,0-2.3-0.9-2.3-2.8v-4.2h1.3v4c0,1.4,0.5,2,1.5,2
		c1.1,0,1.9-1,1.9-2.7v-3.3h1.3v6.7H65.4z"/>
	<path class="st1" d="M68.8,75.1v-6.7h1.3v6.7H68.8z M68.8,67.1v-1.5h1.3v1.5H68.8z"/>
	<path class="st1" d="M72.2,75.1v-9.6h1.3v9.6H72.2z"/>
	<path class="st1" d="M81.7,75.1h-1.3l0-1.4c-0.4,1-1.2,1.6-2.3,1.6c-1.7,0-3-1.5-3-3.6c0-2.1,1.2-3.6,3-3.6c1.1,0,1.8,0.6,2.2,1.5
		v-4.2h1.3V75.1z M80.4,71.8c0-1.5-0.9-2.6-2-2.6c-1.1,0-2,1.2-2,2.6c0,1.5,0.8,2.7,2,2.7C79.5,74.4,80.4,73.3,80.4,71.8z"/>
	<path class="st1" d="M83.7,75.1v-6.7h1.3v6.7H83.7z M83.7,67.1v-1.5h1.3v1.5H83.7z"/>
	<path class="st1" d="M91.9,75.1v-3.9c0-1.4-0.5-2-1.5-2c-1.1,0-1.9,1-1.9,2.7v3.2h-1.3v-6.7h1.3l0,1.4c0.4-1,1.3-1.6,2.5-1.6
		c1.4,0,2.3,0.9,2.3,2.8v4.2H91.9z"/>
	<path class="st1" d="M100.1,73.8c-0.4,1-1.2,1.6-2.3,1.6c-1.7,0-3-1.5-3-3.6c0-2.1,1.2-3.6,3-3.6c1.1,0,1.8,0.6,2.3,1.6l0.1-1.4
		h1.2v6.4c0,2.2-1.4,3.2-3.1,3.2c-1.8,0-2.7-0.9-2.9-2.1h1.3c0.1,0.8,0.7,1.3,1.6,1.3c0.9,0,1.9-0.5,1.9-2.2V73.8z M100.1,71.8
		c0-1.5-0.9-2.6-2-2.6c-1.1,0-2,1.2-2,2.6c0,1.5,0.9,2.7,2,2.7C99.2,74.5,100.1,73.3,100.1,71.8z"/>
</g>
</svg>
