<?xml version="1.0" encoding="utf-8"?>
<!-- Generator: Adobe Illustrator 19.1.0, SVG Export Plug-In . SVG Version: 6.00 Build 0)  -->
<svg version="1.1" id="Layer_1" xmlns="http://www.w3.org/2000/svg" xmlns:xlink="http://www.w3.org/1999/xlink" x="0px" y="0px"
	 viewBox="-354 206 250 150" style="enable-background:new -354 206 250 150;" xml:space="preserve">
<style type="text/css">
	.st0{display:none;fill:#FFFFFF;}
	.st1{display:none;}
	
		.st2{display:inline;opacity:0.13;fill:none;stroke:#757575;stroke-width:0.5;stroke-miterlimit:10;stroke-dasharray:3.5;enable-background:new    ;}
	.st3{display:inline;opacity:0.15;}
	.st4{fill:#BDBDBD;}
	.st5{opacity:0.9;}
	.st6{fill:none;stroke:#757575;stroke-width:0.2;stroke-miterlimit:10;stroke-dasharray:1.5;}
	.st7{fill:#EEEEEE;stroke:#B0BEC5;stroke-width:1.5;stroke-miterlimit:10;}
	.st8{fill:none;stroke:#B0BEC5;stroke-width:1.5;stroke-miterlimit:10;}
</style>
<g id="Guides">
	<rect id="XMLID_5_" x="-769" y="1247" class="st0" width="125" height="75"/>
</g>
<g id="strokes" class="st1">
	<line class="st2" x1="-750.1" y1="1205.6" x2="-644" y2="1172"/>
	<line class="st2" x1="-781.3" y1="1205.6" x2="-894" y2="1172"/>
	<line class="st2" x1="-765.7" y1="1189.9" x2="-765.7" y2="1172"/>
	<line class="st2" x1="-830.6" y1="1293.4" x2="-894" y2="1322"/>
	<line class="st2" x1="-700.6" y1="1291.6" x2="-644" y2="1322"/>
	<line class="st2" x1="-716.2" y1="1307.2" x2="-716.2" y2="1322"/>
	<line class="st2" x1="-815.1" y1="1306.9" x2="-815.1" y2="1322"/>
	<g id="BG" class="st3">
		<g id="sectors">
			<circle class="st4" cx="-868.3" cy="1283.6" r="6"/>
			<circle class="st4" cx="-856.3" cy="1230.9" r="6"/>
			<circle class="st4" cx="-799.5" cy="1229.2" r="6"/>
			<circle class="st4" cx="-774.6" cy="1307.7" r="6"/>
			<circle class="st4" cx="-764" cy="1262.9" r="6"/>
			<circle class="st4" cx="-672.3" cy="1230.9" r="6"/>
			<circle class="st4" cx="-731.9" cy="1181" r="6"/>
			<circle class="st4" cx="-729.6" cy="1223.2" r="6"/>
			<circle class="st4" cx="-664.6" cy="1189.9" r="6"/>
			<circle class="st4" cx="-656" cy="1275.6" r="6"/>
			<circle class="st4" cx="-691" cy="1314.6" r="6"/>
			<circle class="st4" cx="-697" cy="1259.6" r="6"/>
			<circle class="st4" cx="-801.5" cy="1182.8" r="6"/>
			<circle class="st4" cx="-871.8" cy="1195.9" r="6"/>
			<circle class="st4" cx="-828.8" cy="1265.6" r="6"/>
			<circle class="st4" cx="-844.3" cy="1313.7" r="6"/>
		</g>
		<g class="st5">
			<line class="st6" x1="-865.8" y1="1195.9" x2="-807.5" y2="1182.8"/>
			<line class="st6" x1="-795.5" y1="1182.8" x2="-737.9" y2="1181"/>
			<line class="st6" x1="-725.9" y1="1181" x2="-670.4" y2="1188.4"/>
			<line class="st6" x1="-664.6" y1="1195.9" x2="-672.3" y2="1224.9"/>
			<line class="st6" x1="-672.3" y1="1236.9" x2="-656" y2="1269.6"/>
			<line class="st6" x1="-656" y1="1281.6" x2="-685" y2="1314.6"/>
			<line class="st6" x1="-697" y1="1314.6" x2="-768.6" y2="1307.7"/>
			<line class="st6" x1="-780.6" y1="1307.7" x2="-838.3" y2="1313.7"/>
			<line class="st6" x1="-850.3" y1="1313.7" x2="-868.3" y2="1289.6"/>
			<line class="st6" x1="-862.3" y1="1283.6" x2="-834.8" y2="1265.6"/>
			<line class="st6" x1="-828.8" y1="1259.6" x2="-856.3" y2="1236.9"/>
			<line class="st6" x1="-856.3" y1="1224.9" x2="-871.8" y2="1201.9"/>
			<line class="st6" x1="-801.5" y1="1188.8" x2="-799.5" y2="1223.2"/>
			<line class="st6" x1="-805.5" y1="1229.2" x2="-850.3" y2="1230.9"/>
			<line class="st6" x1="-793.5" y1="1229.2" x2="-735.6" y2="1223.2"/>
			<line class="st6" x1="-729.6" y1="1217.2" x2="-731.9" y2="1187"/>
			<line class="st6" x1="-729.6" y1="1229.2" x2="-764" y2="1256.9"/>
			<line class="st6" x1="-770" y1="1262.9" x2="-799.5" y2="1235.2"/>
			<line class="st6" x1="-822.8" y1="1265.6" x2="-770" y2="1262.9"/>
			<line class="st6" x1="-764" y1="1268.9" x2="-774.6" y2="1301.7"/>
			<line class="st6" x1="-758" y1="1262.9" x2="-703" y2="1259.6"/>
			<line class="st6" x1="-697" y1="1265.6" x2="-691" y2="1308.6"/>
			<line class="st6" x1="-662" y1="1275.6" x2="-691" y2="1259.6"/>
			<line class="st6" x1="-697" y1="1253.6" x2="-678.3" y2="1230.9"/>
			<line class="st6" x1="-678.3" y1="1230.9" x2="-723.6" y2="1223.2"/>
			<line class="st6" x1="-862.3" y1="1230.9" x2="-894" y2="1249.1"/>
			<line class="st6" x1="-868.3" y1="1277.6" x2="-856.3" y2="1236.9"/>
			<line class="st6" x1="-874.3" y1="1283.6" x2="-894" y2="1249.1"/>
			<line class="st6" x1="-868.3" y1="1289.6" x2="-894" y2="1322"/>
			<line class="st6" x1="-844.3" y1="1307.7" x2="-828.8" y2="1271.6"/>
			<line class="st6" x1="-844.3" y1="1319.7" x2="-844.3" y2="1322"/>
			<line class="st6" x1="-774.6" y1="1313.7" x2="-774.6" y2="1322"/>
			<line class="st6" x1="-691" y1="1320.6" x2="-691" y2="1322"/>
			<line class="st6" x1="-650" y1="1275.6" x2="-644" y2="1275.6"/>
			<line class="st6" x1="-666.3" y1="1230.9" x2="-644" y2="1230.9"/>
			<line class="st6" x1="-658.6" y1="1189.9" x2="-644" y2="1172"/>
			<line class="st6" x1="-664.6" y1="1183.9" x2="-664.6" y2="1172"/>
			<line class="st6" x1="-731.9" y1="1175" x2="-731.9" y2="1172"/>
			<line class="st6" x1="-801.5" y1="1176.8" x2="-801.5" y2="1172"/>
			<line class="st6" x1="-871.8" y1="1189.9" x2="-871.8" y2="1172"/>
			<line class="st6" x1="-877.8" y1="1195.9" x2="-894" y2="1195.9"/>
		</g>
	</g>
</g>
<circle class="st7" cx="-229" cy="247.1" r="8.1"/>
<line class="st8" x1="-229" y1="255.2" x2="-229" y2="272.9"/>
<line class="st8" x1="-264.6" y1="273" x2="-229" y2="280.9"/>
<line class="st8" x1="-251" y1="314.9" x2="-229" y2="280.9"/>
<line class="st8" x1="-207" y1="314.9" x2="-229" y2="280.9"/>
<line class="st8" x1="-193.4" y1="273" x2="-229" y2="280.9"/>
<circle class="st7" cx="-264.6" cy="272.9" r="8.1"/>
<circle class="st7" cx="-229" cy="281" r="8.1"/>
<circle class="st7" cx="-193.4" cy="272.9" r="8.1"/>
<circle class="st7" cx="-251" cy="314.9" r="8.1"/>
<circle class="st7" cx="-207" cy="314.9" r="8.1"/>
</svg>
