<?xml version="1.0" encoding="utf-8"?>
<!-- Generator: Adobe Illustrator 19.1.0, SVG Export Plug-In . SVG Version: 6.00 Build 0)  -->
<svg version="1.1" id="Layer_1" xmlns="http://www.w3.org/2000/svg" xmlns:xlink="http://www.w3.org/1999/xlink" x="0px" y="0px"
	 viewBox="-180 322 250 150" style="enable-background:new -180 322 250 150;" xml:space="preserve">
<style type="text/css">
	.st0{display:none;}
	.st1{display:inline;fill:#E0E0E0;}
	.st2{display:none;fill:#FFFFFF;}
	.st3{display:inline;fill:#FFE082;}
	.st4{fill:#616161;}
	.st5{fill:#795548;}
	.st6{fill:#F5F5F5;}
	.st7{display:none;fill:#795548;}
	.st8{fill:#500000;}
	.st9{display:inline;}
	.st10{fill:#42A5F5;}
	.st11{fill:#1E88E5;}
	.st12{fill:#FF5722;}
	.st13{opacity:0.3;fill:#FFFFFF;enable-background:new    ;}
	.st14{fill:#757575;}
	.st15{fill:#BDBDBD;}
	.st16{fill:#9E9E9E;}
</style>
<g id="Layer_6" class="st0">
	<rect x="-180" y="322" class="st1" width="250" height="150"/>
</g>
<g id="Guides">
	<rect id="XMLID_5_" x="-55" y="397" class="st2" width="125" height="75"/>
</g>
<g id="Layer_7" class="st0">
	<rect x="-180" y="322" class="st3" width="250" height="97"/>
</g>
<g id="Handsaw">
	<g id="Object_1_">
		<g id="Saw_Blade_1_">
			<polygon class="st4" points="-89,406.9 -72.6,423.3 -63.7,417 -64,413.7 -60.7,414 -60.9,410.7 -57.6,410.9 -57.9,407.6 
				-54.6,407.9 -54.9,404.6 -51.6,404.9 -51.8,401.6 -48.5,401.8 -48.8,398.5 -45.5,398.8 -45.8,395.5 -42.5,395.8 -42.7,392.5 
				-39.4,392.7 -39.7,389.4 -36.4,389.7 -36.7,386.4 -33.4,386.7 -33.6,383.4 -30.3,383.6 -30.6,380.3 -27.3,380.6 -27.6,377.3 
				-24.3,377.6 -24.5,374.3 -21.2,374.5 -21.5,371.2 -18.2,371.5 -18.5,368.2 -15.1,368.5 -15.4,365.1 -12.1,365.4 -12.4,362.1 
				-9.1,362.4 -9.4,359.1 -14.1,354.4 -89,406.8 			"/>
		</g>
		<path class="st5" d="M-83.7,401.1l-16.5,16.6c-1.1,1.1-0.8,2.9,0.5,3.7c1,0.6,2.1,1.3,3,2.3c2.3,2.3,1.3,3.6,3.6,5.9
			c2.3,2.3,3.5,1.3,5.8,3.6c0.9,0.9,1.7,2.1,2.3,3.1c0.8,1.3,2.6,1.6,3.7,0.5l7.5-7.5c0.4-0.4,1.9-11.2,2.5-15.7
			c0.2-1.2-0.3-2.5-1.2-3.5l-8.9-9.1C-82.1,400.3-82.6,400-83.7,401.1z M-84.8,413.9c1,2.1,1.1,3,2.9,5.6c1.8,2.7,2.7,3.1,4,4.6
			s1.1,4.3-0.8,5.7c-1.9,1.3-4.3,0.9-6-0.9c0,0-2-1.8-4-4.5s-3.1-5.4-3.1-5.4c-1-2.6-0.6-4.8,1.3-6.2
			C-88.7,411.5-85.9,412-84.8,413.9z"/>
		<circle class="st6" cx="-82.4" cy="403.8" r="0.9"/>
		<circle class="st6" cx="-74.3" cy="411.2" r="0.9"/>
		<circle class="st6" cx="-74.6" cy="419.9" r="0.9"/>
		<path id="backup-handle_3_" class="st7" d="M-72.2,410.1c0.9,0.9,1.4,2.3,1.2,3.5c-0.6,4.6-2.2,15.4-2.5,15.7l-7.5,7.5
			c-1.1,1.1-2.9,0.8-3.7-0.5c-0.6-1-1.4-2.2-2.3-3.1c-2.3-2.3-3.5-1.3-5.8-3.6c-2.3-2.3-1.3-3.5-3.6-5.9c-0.9-0.9-2-1.7-3-2.3
			c-1.3-0.8-1.6-2.6-0.5-3.7l16.6-16.6c1.1-1.1,1.6-0.8,2.3-0.2L-72.2,410.1z"/>
		<path id="backup-handle_2_" class="st2" d="M-78.5,430L-78.5,430c-1.9,1.3-4.3,0.9-6-0.9c0,0-2-1.8-4-4.5c-2-2.7-3.1-5.4-3.1-5.4
			c-1-2.6-0.6-4.8,1.3-6.2l0,0c1.9-1.3,4.7-0.8,5.8,1.1c1,2.1,1.1,3,2.9,5.6c1.8,2.7,2.7,3.1,4,4.6C-76.4,425.8-76.6,428.6-78.5,430
			z"/>
	</g>
</g>
<g id="Hammer_1_">
	<g id="Hammer_2_">
		<path class="st8" d="M-36.4,405C-64.6,376.8-67,373.5-67,373.5l-9.4,9.4c0,0,3.5,2.1,31.7,30.4c14.5,14.5,21,22.7,23.9,26.2
			c0.5,0.6,1.4,0.7,2,0.1l8.4-8.4c0.6-0.6,0.5-1.5-0.1-2C-13,427.1-19.9,421.6-36.4,405z"/>
		<path class="st4" d="M-48.7,360.1c0.4,0.2,0.2,0.8-0.2,0.8c-4.3,0-16,0.2-18.2,1.4c0,0-1,0.5-1.9,1.7s-1.2,2.3-1.2,2.3
			c-0.6,1.8,1.2,4.4,2.2,5.5c1,1.1,3.7,3.7,3.7,3.7c0.2,0.2,0.2,0.6,0,0.8l-9.2,9.2c-0.2,0.2-0.6,0.2-0.8,0l-0.4-0.4
			c-0.6-0.6-1.5-0.9-2.3-0.8c-1.3,0.2-3.3,1-5.5,3.2c-1.9,1.9-2.5,4.6-2.7,5.9c-0.1,0.5-0.3,0.9-0.6,1.2l-1.9,1.9
			c-0.7,0.7-1.6,0.8-2.1,0.4l-10-9.9c-0.5-0.5-0.3-1.4,0.4-2.1l1.9-1.9c0.3-0.3,0.8-0.6,1.2-0.6c1.3-0.2,4-0.9,5.9-2.8
			c2.7-2.7,3.2-4.9,3.3-6.1c0-0.6,0.3-1.2,0.7-1.7l9.2-9.2c0,0,8.4-8.6,13.4-8.7C-59.9,353.9-51.9,358.2-48.7,360.1z"/>
	</g>
</g>
<g id="Triangle_Square" class="st0">
	<g id="Square_2_" class="st9">
		<path class="st10" d="M10.3,406.2H-43v53.3L10.3,406.2z M-38.9,410.3h26.8l-26.8,26.8V410.3z M-38.4,442.5l31.6-31.6
			c0.8-0.8,2-0.8,2.7,0c0.8,0.8,0.8,2,0,2.7l-31.6,31.6c-0.8,0.8-2,0.8-2.7,0C-39.1,444.4-39.1,443.2-38.4,442.5z"/>
		<rect x="-44" y="404.7" class="st11" width="1" height="56.4"/>
	</g>
</g>
<g id="Screwdriver">
</g>
<g id="screwdriver_2" class="st0">
	<g class="st9">
		<path class="st12" d="M-70.4,378.1l-4.1-4.1c-0.8-0.8-0.8-2.2,0-3l24.6-24.6c0.8-0.8,2.2-0.8,3,0l4.1,4.1c0.8,0.8,0.8,2.2,0,3
			l-24.6,24.6C-68.1,378.9-69.5,378.9-70.4,378.1z"/>
		<path class="st13" d="M-47.2,350.3l0.6,0.6c0.1,0.1,0.1,0.2,0,0.3l-21.2,21.2c-0.1,0.1-0.2,0.1-0.3,0l-0.6-0.6
			c-0.1-0.1-0.1-0.2,0-0.3l21.2-21.2C-47.4,350.2-47.3,350.2-47.2,350.3z"/>
		<path class="st13" d="M-49.4,348.3l0.6,0.6c0.1,0.1,0.1,0.2,0,0.3L-70,370.3c-0.1,0.1-0.2,0.1-0.3,0l-0.6-0.6
			c-0.1-0.1-0.1-0.2,0-0.3l21.1-21.1C-49.6,348.2-49.5,348.2-49.4,348.3z"/>
		<path class="st13" d="M-45.2,352.5l0.6,0.6c0.1,0.1,0.1,0.2,0,0.3l-21.1,21.1c-0.1,0.1-0.2,0.1-0.3,0l-0.6-0.6
			c-0.1-0.1-0.1-0.2,0-0.3l21.1-21.1C-45.4,352.4-45.3,352.4-45.2,352.5z"/>
		
			<rect x="-90" y="369.4" transform="matrix(0.7071 0.7071 -0.7071 0.7071 251.3311 177.4458)" class="st14" width="2.9" height="45.5"/>
		<path class="st12" d="M-70.3,382.6l-8.6-8.6c-0.2-0.2-0.2-0.6,0-0.9l3.9-3.9c0.2-0.2,0.6-0.2,0.9,0l8.6,8.6c0.2,0.2,0.2,0.6,0,0.9
			l-3.9,3.9C-69.7,382.8-70.1,382.8-70.3,382.6z"/>
		<polygon class="st15" points="-104.6,408.2 -103.6,409.2 -105.5,410.2 -107.5,411.1 -106.5,409.2 -105.6,407.2 		"/>
		<path class="st13" d="M-73.9,370.7l0.3,0.3c0.1,0.1,0.1,0.2,0,0.2l-3.2,3.2c-0.1,0.1-0.2,0.1-0.2,0l-0.3-0.3
			c-0.1-0.1-0.1-0.2,0-0.2l3.2-3.2C-74.1,370.6-74,370.6-73.9,370.7z"/>
		<path class="st13" d="M-72.3,372.3l0.3,0.3c0.1,0.1,0.1,0.2,0,0.2l-3.2,3.2c-0.1,0.1-0.2,0.1-0.2,0l-0.3-0.3
			c-0.1-0.1-0.1-0.2,0-0.2l3.2-3.2H-72.3z"/>
		<path class="st13" d="M-70.6,374l0.3,0.3c0.1,0.1,0.1,0.2,0,0.2l-3.2,3.2c-0.1,0.1-0.2,0.1-0.2,0l-0.3-0.3c-0.1-0.1-0.1-0.2,0-0.2
			l3.2-3.2C-70.8,373.9-70.7,373.9-70.6,374z"/>
		<path class="st13" d="M-69,375.6l0.3,0.3c0.1,0.1,0.1,0.2,0,0.2l-3.2,3.2c-0.1,0.1-0.2,0.1-0.2,0l-0.3-0.3c-0.1-0.1-0.1-0.2,0-0.2
			l3.2-3.2C-69.2,375.6-69.1,375.6-69,375.6z"/>
		<path class="st13" d="M-67.3,377.3l0.3,0.3c0.1,0.1,0.1,0.2,0,0.2l-3.2,3.2c-0.1,0.1-0.2,0.1-0.2,0l-0.3-0.3
			c-0.1-0.1-0.1-0.2,0-0.2l3.2-3.2C-67.5,377.2-67.4,377.2-67.3,377.3z"/>
		<polygon class="st16" points="-106.5,409.2 -107.5,411.1 -104.6,408.2 -105.6,407.2 		"/>
	</g>
</g>
<g id="screwdriver_3">
</g>
</svg>
