<?xml version="1.0" encoding="utf-8"?>
<!-- Generator: Adobe Illustrator 23.1.0, SVG Export Plug-In . SVG Version: 6.00 Build 0)  -->
<svg version="1.1" id="Layer_1" xmlns="http://www.w3.org/2000/svg" xmlns:xlink="http://www.w3.org/1999/xlink" x="0px" y="0px"
	 viewBox="0 0 169.5 86.2" style="enable-background:new 0 0 169.5 86.2;" xml:space="preserve">
<style type="text/css">
	.st0{fill:#4B1212;}
	.st1{fill:#434343;}
	.st2{fill:none;}
</style>
<g>
	<g>
		<g>
			<path class="st0" d="M3.5,45.2v-5.3l9.4-14.7c0.1-0.2,0.5-0.7,1.1-1.7c0.6-1,1-1.6,1.2-2s0.5-0.9,0.9-1.7
				c0.4-0.8,0.7-1.5,0.8-2.1c0.1-0.7,0.2-1.3,0.2-2c0-1.4-0.3-2.4-0.8-3.1c-0.5-0.6-1.1-0.9-1.9-0.9c-0.1,0-0.3,0-0.4,0
				c-2.1,0.2-3.1,2.1-3.1,5.8v1.8H3.6v-1.9c0-1.8,0.2-3.4,0.6-4.8c0.4-1.4,1-2.7,1.8-3.8C6.9,7.7,8,6.8,9.3,6.3
				c1.4-0.6,3-0.9,4.9-0.9c3.4,0,6,0.9,7.7,2.7c1.8,1.8,2.6,4.4,2.6,7.6c0,1.1-0.1,2.2-0.3,3.2c-0.2,1-0.6,2-1.1,3
				c-0.5,1-0.9,1.8-1.4,2.5c-0.4,0.7-1,1.6-1.7,2.6c-0.2,0.3-0.4,0.6-0.5,0.8L12,39.2h11.6v5.9H3.5z"/>
			<path class="st0" d="M41.2,45.2V5.9h12.3c6.8,0,10.2,3.8,10.2,11.3c0,2-0.3,3.8-0.8,5.2c-0.5,1.4-1.3,2.6-2.3,3.4
				c-1,0.8-2.2,1.4-3.4,1.8c-1.3,0.4-2.7,0.5-4.4,0.5h-3.6v17.1H41.2z M49.2,22.5h2.6c1.8,0,3-0.4,3.5-1.2c0.6-0.8,0.9-2.2,0.9-4.2
				c0-1,0-1.8-0.1-2.4c-0.1-0.6-0.3-1.2-0.6-1.7c-0.3-0.5-0.7-0.9-1.3-1.1c-0.6-0.2-1.4-0.3-2.4-0.3h-2.6V22.5z"/>
			<path class="st0" d="M71.4,45.2V11.8h-6.3V5.9h20.4v5.9h-6.2v33.3H71.4z"/>
			<path class="st0" d="M98.9,45.7c-3.6,0-6.4-1-8.2-3c-1.8-2-2.8-5.1-2.9-9.2l6.9-1.2c0,2.4,0.4,4.3,1,5.5c0.6,1.2,1.6,1.9,2.9,1.9
				c0.9,0,1.6-0.3,2-0.9c0.4-0.6,0.6-1.4,0.6-2.3c0-1.5-0.3-2.8-1-3.9c-0.7-1-1.7-2.2-3.2-3.5l-4.2-3.6c-1.1-0.9-1.9-1.8-2.6-2.6
				c-0.7-0.8-1.2-1.8-1.7-3.1c-0.4-1.3-0.7-2.6-0.7-4.2c0-3.2,0.9-5.6,2.8-7.4c1.9-1.7,4.5-2.6,7.7-2.6c1.1,0,2.1,0.1,3,0.3
				c0.9,0.2,1.7,0.5,2.4,0.9c0.7,0.4,1.2,0.9,1.7,1.4c0.5,0.6,0.9,1.2,1.2,1.8c0.3,0.6,0.6,1.3,0.8,2.1s0.4,1.5,0.5,2.2
				s0.2,1.4,0.2,2.2l-6.9,1.1c0-0.8-0.1-1.5-0.1-2c0-0.5-0.1-1.1-0.3-1.7c-0.1-0.6-0.3-1-0.5-1.3c-0.2-0.3-0.5-0.6-0.9-0.8
				c-0.4-0.2-0.8-0.3-1.3-0.3c-0.9,0-1.6,0.4-2,1c-0.5,0.6-0.7,1.4-0.7,2.3c0,0.7,0.1,1.4,0.2,1.9c0.2,0.6,0.4,1.1,0.8,1.6
				c0.4,0.5,0.7,0.9,1,1.3s0.8,0.7,1.3,1.3l4.1,3.6c0.9,0.8,1.7,1.6,2.3,2.3c0.7,0.7,1.3,1.6,1.9,2.5c0.6,0.9,1,2,1.3,3.1
				s0.5,2.3,0.5,3.6c0,2.9-0.9,5.2-2.8,7C104.4,44.8,101.9,45.7,98.9,45.7z"/>
		</g>
		<g>
			<path class="st1" d="M132.3,28.4V16.6h3.7c2,0,3.1,1.1,3.1,3.4c0,0.6-0.1,1.1-0.2,1.6c-0.2,0.4-0.4,0.8-0.7,1
				c-0.3,0.2-0.6,0.4-1,0.5c-0.4,0.1-0.8,0.2-1.3,0.2h-1.1v5.1H132.3z M134.7,21.6h0.8c0.5,0,0.9-0.1,1.1-0.4
				c0.2-0.2,0.3-0.7,0.3-1.3c0-0.3,0-0.6,0-0.7c0-0.2-0.1-0.3-0.2-0.5c-0.1-0.2-0.2-0.3-0.4-0.3c-0.2-0.1-0.4-0.1-0.7-0.1h-0.8V21.6
				z"/>
			<path class="st1" d="M140.2,28.4V16.6h5.1v1.7h-2.7v3.1h2.1V23h-2.1v3.7h2.8v1.6H140.2z"/>
			<path class="st1" d="M146.6,28.4V16.6h3c0.6,0,1.2,0,1.6,0.1c0.5,0.1,0.8,0.3,1.2,0.5c0.3,0.2,0.6,0.6,0.8,1
				c0.2,0.4,0.3,0.9,0.3,1.5c0,0.8-0.1,1.4-0.3,1.8c-0.2,0.5-0.6,0.8-1.1,1.1l1.6,5.7h-2.4l-1.3-5.3H149v5.3H146.6z M149,21.6h0.6
				c0.6,0,1-0.1,1.2-0.4c0.2-0.3,0.4-0.7,0.4-1.3c0-0.6-0.1-1-0.3-1.3c-0.2-0.3-0.6-0.4-1.1-0.4H149V21.6z"/>
			<path class="st1" d="M118.9,41V29.2h5v1.6h-2.6V34h2.2v1.7h-2.2V41H118.9z"/>
			<path class="st1" d="M125.1,41V29.2h5.1v1.7h-2.7V34h2.1v1.7h-2.1v3.7h2.8V41H125.1z"/>
			<path class="st1" d="M130.8,41l2.3-11.8h2.6l2.3,11.8h-2.2l-0.4-2.6h-1.9l-0.4,2.6H130.8z M133.8,36.9h1.4l-0.7-4.7L133.8,36.9z"
				/>
			<path class="st1" d="M140,41V31h-1.9v-1.8h6.1V31h-1.9v10H140z"/>
			<path class="st1" d="M148.5,41.1c-0.7,0-1.2-0.1-1.7-0.3s-0.8-0.4-1.1-0.8s-0.4-0.8-0.5-1.2c-0.1-0.5-0.2-1-0.2-1.7v-8h2.4v8.3
				c0,0.2,0,0.4,0,0.6s0,0.3,0.1,0.5c0,0.2,0.1,0.3,0.2,0.4s0.2,0.2,0.3,0.3c0.1,0.1,0.3,0.1,0.5,0.1s0.3,0,0.5-0.1
				c0.1-0.1,0.2-0.2,0.3-0.3s0.1-0.3,0.2-0.4c0-0.2,0.1-0.3,0.1-0.5c0-0.2,0-0.3,0-0.6v-8.3h2.4v8c0,0.7-0.1,1.2-0.2,1.7
				c-0.1,0.5-0.3,0.9-0.5,1.2s-0.6,0.6-1,0.8S149.2,41.1,148.5,41.1z"/>
			<path class="st1" d="M153.6,41V29.2h3c0.6,0,1.2,0,1.6,0.1c0.5,0.1,0.8,0.3,1.2,0.5c0.3,0.2,0.6,0.6,0.8,1
				c0.2,0.4,0.3,0.9,0.3,1.5c0,0.8-0.1,1.4-0.3,1.8c-0.2,0.5-0.6,0.8-1.1,1.1l1.6,5.7h-2.4l-1.3-5.3H156V41H153.6z M156,34.2h0.6
				c0.6,0,1-0.1,1.2-0.4c0.2-0.3,0.4-0.7,0.4-1.3c0-0.6-0.1-1-0.3-1.3c-0.2-0.3-0.6-0.4-1.1-0.4H156V34.2z"/>
			<path class="st1" d="M162,41V29.2h5.1v1.7h-2.7V34h2.1v1.7h-2.1v3.7h2.8V41H162z"/>
		</g>
	</g>
	<g>
		<rect x="1.2" y="54" class="st2" width="164.3" height="30.9"/>
		<path class="st1" d="M16.1,63.6v-8h1.3v8H16.1z"/>
		<path class="st1" d="M22.3,58.5h-1.5v5.1h-1.3v-5.1h-1v-0.6l1-0.4v-0.4c0-0.7,0.2-1.2,0.5-1.6s0.8-0.5,1.5-0.5
			c0.4,0,0.9,0.1,1.3,0.2l-0.3,1c-0.3-0.1-0.6-0.2-0.9-0.2c-0.3,0-0.5,0.1-0.6,0.3c-0.1,0.2-0.2,0.4-0.2,0.8v0.4h1.5V58.5z"/>
		<path class="st1" d="M30.3,61.9c0,0.6-0.2,1-0.6,1.4c-0.4,0.3-1,0.5-1.8,0.5c-0.8,0-1.4-0.1-1.9-0.4v-1.1c0.7,0.3,1.4,0.5,2,0.5
			c0.8,0,1.2-0.2,1.2-0.7c0-0.2,0-0.3-0.1-0.4c-0.1-0.1-0.2-0.2-0.4-0.3c-0.2-0.1-0.5-0.2-0.8-0.4c-0.7-0.3-1.2-0.5-1.4-0.8
			s-0.4-0.6-0.4-1c0-0.5,0.2-0.9,0.6-1.2s1-0.4,1.7-0.4c0.7,0,1.4,0.1,2,0.4l-0.4,1c-0.6-0.3-1.2-0.4-1.6-0.4c-0.7,0-1,0.2-1,0.6
			c0,0.2,0.1,0.3,0.3,0.5c0.2,0.1,0.6,0.3,1.2,0.5c0.5,0.2,0.9,0.4,1.1,0.5c0.2,0.2,0.4,0.3,0.5,0.6C30.3,61.3,30.3,61.6,30.3,61.9z
			"/>
		<path class="st1" d="M31.6,56c0-0.2,0.1-0.4,0.2-0.5c0.1-0.1,0.3-0.2,0.5-0.2c0.2,0,0.4,0.1,0.5,0.2c0.1,0.1,0.2,0.3,0.2,0.5
			c0,0.2-0.1,0.4-0.2,0.5c-0.1,0.1-0.3,0.2-0.5,0.2c-0.2,0-0.4-0.1-0.5-0.2C31.7,56.4,31.6,56.2,31.6,56z M33,63.6h-1.3v-6H33V63.6z
			"/>
		<path class="st1" d="M39.9,57.6v0.7l-1,0.2c0.1,0.1,0.2,0.3,0.2,0.5c0.1,0.2,0.1,0.4,0.1,0.6c0,0.6-0.2,1.1-0.6,1.5
			s-1,0.5-1.8,0.5c-0.2,0-0.4,0-0.5,0c-0.3,0.2-0.4,0.4-0.4,0.6c0,0.1,0.1,0.2,0.2,0.3c0.1,0.1,0.4,0.1,0.7,0.1h1.1
			c0.7,0,1.2,0.1,1.5,0.4s0.5,0.7,0.5,1.2c0,0.7-0.3,1.2-0.8,1.6s-1.4,0.6-2.4,0.6c-0.8,0-1.4-0.1-1.9-0.4c-0.4-0.3-0.6-0.7-0.6-1.2
			c0-0.4,0.1-0.7,0.4-0.9c0.2-0.3,0.6-0.4,1-0.5c-0.2-0.1-0.3-0.2-0.4-0.4c-0.1-0.2-0.2-0.3-0.2-0.5c0-0.2,0.1-0.4,0.2-0.6
			s0.3-0.3,0.6-0.5c-0.3-0.1-0.6-0.4-0.8-0.7c-0.2-0.3-0.3-0.7-0.3-1.1c0-0.7,0.2-1.2,0.6-1.5c0.4-0.4,1-0.5,1.8-0.5
			c0.2,0,0.3,0,0.5,0c0.2,0,0.3,0,0.4,0.1H39.9z M35.2,64.5c0,0.3,0.1,0.5,0.4,0.6s0.6,0.2,1,0.2c0.7,0,1.2-0.1,1.6-0.3
			s0.5-0.5,0.5-0.8c0-0.3-0.1-0.4-0.3-0.6c-0.2-0.1-0.5-0.2-1-0.2h-1c-0.4,0-0.7,0.1-0.9,0.3C35.3,64,35.2,64.2,35.2,64.5z
			 M35.7,59.5c0,0.4,0.1,0.7,0.3,0.9s0.5,0.3,0.8,0.3c0.7,0,1.1-0.4,1.1-1.2c0-0.4-0.1-0.7-0.3-0.9c-0.2-0.2-0.5-0.3-0.8-0.3
			c-0.4,0-0.7,0.1-0.8,0.3C35.8,58.8,35.7,59.1,35.7,59.5z"/>
		<path class="st1" d="M46.3,63.6H45v-3.7c0-0.5-0.1-0.8-0.3-1c-0.2-0.2-0.5-0.3-0.9-0.3c-0.5,0-0.9,0.2-1.2,0.5s-0.4,0.9-0.4,1.6v3
			H41v-6h1l0.2,0.8h0.1c0.2-0.3,0.4-0.5,0.8-0.7s0.7-0.2,1.1-0.2c1.4,0,2.2,0.7,2.2,2.2V63.6z"/>
		<path class="st1" d="M53.2,62.7c0.3,0,0.6,0,0.9-0.1v1c-0.1,0.1-0.3,0.1-0.5,0.2c-0.2,0-0.5,0.1-0.7,0.1c-1.2,0-1.8-0.6-1.8-1.9
			v-3.2h-0.8V58l0.9-0.5l0.4-1.3h0.8v1.3h1.7v1h-1.7v3.2c0,0.3,0.1,0.5,0.2,0.7C52.8,62.6,53,62.7,53.2,62.7z"/>
		<path class="st1" d="M54.4,57.6h1.4l1.2,3.4c0.2,0.5,0.3,0.9,0.4,1.4h0c0-0.2,0.1-0.4,0.2-0.7c0.1-0.3,0.5-1.6,1.4-4.1h1.4
			l-2.6,6.8c-0.5,1.3-1.2,1.9-2.3,1.9c-0.3,0-0.6,0-0.8-0.1v-1c0.2,0,0.4,0.1,0.7,0.1c0.6,0,1.1-0.4,1.3-1.1l0.2-0.6L54.4,57.6z"/>
		<path class="st1" d="M64.4,63.7c-0.8,0-1.4-0.3-1.8-0.8h-0.1c0.1,0.5,0.1,0.8,0.1,0.9v2.5h-1.3v-8.7h1c0,0.1,0.1,0.4,0.2,0.8h0.1
			c0.4-0.6,1-0.9,1.8-0.9c0.8,0,1.3,0.3,1.8,0.8c0.4,0.5,0.6,1.3,0.6,2.3s-0.2,1.8-0.6,2.3S65.1,63.7,64.4,63.7z M64.1,58.5
			c-0.5,0-0.9,0.1-1.1,0.4c-0.2,0.3-0.4,0.8-0.4,1.4v0.2c0,0.7,0.1,1.3,0.3,1.6c0.2,0.3,0.6,0.5,1.1,0.5c0.4,0,0.8-0.2,1-0.5
			c0.2-0.4,0.4-0.9,0.4-1.6c0-0.7-0.1-1.2-0.4-1.5S64.5,58.5,64.1,58.5z"/>
		<path class="st1" d="M70.9,63.7c-0.9,0-1.7-0.3-2.2-0.8c-0.5-0.5-0.8-1.3-0.8-2.3c0-1,0.2-1.8,0.7-2.3c0.5-0.6,1.2-0.8,2-0.8
			c0.8,0,1.4,0.2,1.9,0.7c0.5,0.5,0.7,1.1,0.7,2v0.7h-4c0,0.6,0.2,1,0.5,1.3c0.3,0.3,0.7,0.5,1.3,0.5c0.4,0,0.7,0,1-0.1
			c0.3-0.1,0.6-0.2,1-0.3v1c-0.3,0.1-0.6,0.3-0.9,0.3S71.3,63.7,70.9,63.7z M70.7,58.4c-0.4,0-0.7,0.1-1,0.4
			c-0.2,0.3-0.4,0.6-0.4,1.1H72c0-0.5-0.1-0.9-0.4-1.1C71.4,58.6,71.1,58.4,70.7,58.4z"/>
		<path class="st1" d="M77.5,56c0-0.2,0.1-0.4,0.2-0.5c0.1-0.1,0.3-0.2,0.5-0.2c0.2,0,0.4,0.1,0.5,0.2c0.1,0.1,0.2,0.3,0.2,0.5
			c0,0.2-0.1,0.4-0.2,0.5c-0.1,0.1-0.3,0.2-0.5,0.2c-0.2,0-0.4-0.1-0.5-0.2C77.6,56.4,77.5,56.2,77.5,56z M78.9,63.6h-1.3v-6h1.3
			V63.6z"/>
		<path class="st1" d="M84.8,61.9c0,0.6-0.2,1-0.6,1.4c-0.4,0.3-1,0.5-1.8,0.5c-0.8,0-1.4-0.1-1.9-0.4v-1.1c0.7,0.3,1.4,0.5,2,0.5
			c0.8,0,1.2-0.2,1.2-0.7c0-0.2,0-0.3-0.1-0.4c-0.1-0.1-0.2-0.2-0.4-0.3c-0.2-0.1-0.5-0.2-0.8-0.4c-0.7-0.3-1.2-0.5-1.4-0.8
			s-0.4-0.6-0.4-1c0-0.5,0.2-0.9,0.6-1.2s1-0.4,1.7-0.4c0.7,0,1.4,0.1,2,0.4l-0.4,1c-0.6-0.3-1.2-0.4-1.6-0.4c-0.7,0-1,0.2-1,0.6
			c0,0.2,0.1,0.3,0.3,0.5c0.2,0.1,0.6,0.3,1.2,0.5c0.5,0.2,0.9,0.4,1.1,0.5c0.2,0.2,0.4,0.3,0.5,0.6C84.7,61.3,84.8,61.6,84.8,61.9z
			"/>
		<path class="st1" d="M94.4,60.6c0,1-0.3,1.8-0.8,2.3c-0.5,0.6-1.2,0.8-2.1,0.8c-0.6,0-1.1-0.1-1.5-0.4c-0.4-0.3-0.8-0.6-1-1.1
			s-0.3-1-0.3-1.7c0-1,0.3-1.7,0.8-2.3s1.2-0.8,2.1-0.8c0.9,0,1.6,0.3,2.1,0.8C94.1,58.9,94.4,59.6,94.4,60.6z M90,60.6
			c0,1.4,0.5,2.1,1.5,2.1c1,0,1.5-0.7,1.5-2.1c0-1.4-0.5-2.1-1.5-2.1c-0.5,0-0.9,0.2-1.2,0.5S90,59.9,90,60.6z"/>
		<path class="st1" d="M98.9,58.5h-1.5v5.1h-1.3v-5.1h-1v-0.6l1-0.4v-0.4c0-0.7,0.2-1.2,0.5-1.6c0.3-0.3,0.8-0.5,1.5-0.5
			c0.5,0,0.9,0.1,1.3,0.2l-0.3,1c-0.3-0.1-0.6-0.2-0.9-0.2c-0.3,0-0.5,0.1-0.6,0.3c-0.1,0.2-0.2,0.4-0.2,0.8v0.4h1.5V58.5z"/>
		<path class="st1" d="M108.1,63.6h-1.3v-3.7c0-0.5-0.1-0.8-0.3-1c-0.2-0.2-0.5-0.3-0.9-0.3c-0.5,0-0.9,0.2-1.2,0.5
			s-0.4,0.9-0.4,1.6v3h-1.3v-8.5h1.3v2.2c0,0.3,0,0.7-0.1,1.1h0.1c0.2-0.3,0.4-0.5,0.7-0.7c0.3-0.2,0.7-0.2,1.1-0.2
			c1.5,0,2.2,0.7,2.2,2.2V63.6z"/>
		<path class="st1" d="M109.8,56c0-0.2,0.1-0.4,0.2-0.5c0.1-0.1,0.3-0.2,0.5-0.2c0.2,0,0.4,0.1,0.5,0.2c0.1,0.1,0.2,0.3,0.2,0.5
			c0,0.2-0.1,0.4-0.2,0.5s-0.3,0.2-0.5,0.2c-0.2,0-0.4-0.1-0.5-0.2S109.8,56.2,109.8,56z M111.1,63.6h-1.3v-6h1.3V63.6z"/>
		<path class="st1" d="M117,61.9c0,0.6-0.2,1-0.6,1.4c-0.4,0.3-1,0.5-1.8,0.5c-0.8,0-1.4-0.1-1.9-0.4v-1.1c0.7,0.3,1.4,0.5,2,0.5
			c0.8,0,1.2-0.2,1.2-0.7c0-0.2,0-0.3-0.1-0.4s-0.2-0.2-0.4-0.3c-0.2-0.1-0.5-0.2-0.8-0.4c-0.7-0.3-1.2-0.5-1.4-0.8
			c-0.2-0.3-0.4-0.6-0.4-1c0-0.5,0.2-0.9,0.6-1.2c0.4-0.3,1-0.4,1.7-0.4c0.7,0,1.4,0.1,2,0.4l-0.4,1c-0.6-0.3-1.2-0.4-1.6-0.4
			c-0.7,0-1,0.2-1,0.6c0,0.2,0.1,0.3,0.3,0.5s0.6,0.3,1.2,0.5c0.5,0.2,0.9,0.4,1.1,0.5c0.2,0.2,0.4,0.3,0.5,0.6
			C117,61.3,117,61.6,117,61.9z"/>
		<path class="st1" d="M120.6,62.7c0.3,0,0.6,0,0.9-0.1v1c-0.1,0.1-0.3,0.1-0.5,0.2c-0.2,0-0.5,0.1-0.7,0.1c-1.2,0-1.8-0.6-1.8-1.9
			v-3.2h-0.8V58l0.9-0.5l0.4-1.3h0.8v1.3h1.7v1h-1.7v3.2c0,0.3,0.1,0.5,0.2,0.7C120.2,62.6,120.4,62.7,120.6,62.7z"/>
		<path class="st1" d="M128.1,60.6c0,1-0.3,1.8-0.8,2.3c-0.5,0.6-1.2,0.8-2.1,0.8c-0.6,0-1.1-0.1-1.5-0.4c-0.4-0.3-0.8-0.6-1-1.1
			s-0.3-1-0.3-1.7c0-1,0.3-1.7,0.8-2.3s1.2-0.8,2.1-0.8c0.9,0,1.6,0.3,2.1,0.8C127.9,58.9,128.1,59.6,128.1,60.6z M123.7,60.6
			c0,1.4,0.5,2.1,1.5,2.1c1,0,1.5-0.7,1.5-2.1c0-1.4-0.5-2.1-1.5-2.1c-0.5,0-0.9,0.2-1.2,0.5S123.7,59.9,123.7,60.6z"/>
		<path class="st1" d="M132.6,57.5c0.3,0,0.5,0,0.6,0.1l-0.1,1.2c-0.2,0-0.4-0.1-0.6-0.1c-0.5,0-0.9,0.2-1.2,0.5s-0.5,0.8-0.5,1.3
			v3.1h-1.3v-6h1l0.2,1.1h0.1c0.2-0.4,0.5-0.6,0.8-0.9C131.9,57.6,132.3,57.5,132.6,57.5z"/>
		<path class="st1" d="M134.3,56c0-0.2,0.1-0.4,0.2-0.5c0.1-0.1,0.3-0.2,0.5-0.2c0.2,0,0.4,0.1,0.5,0.2c0.1,0.1,0.2,0.3,0.2,0.5
			c0,0.2-0.1,0.4-0.2,0.5s-0.3,0.2-0.5,0.2c-0.2,0-0.4-0.1-0.5-0.2S134.3,56.2,134.3,56z M135.7,63.6h-1.3v-6h1.3V63.6z"/>
		<path class="st1" d="M139.9,63.7c-0.9,0-1.6-0.3-2.1-0.8c-0.5-0.5-0.7-1.3-0.7-2.3c0-1,0.2-1.8,0.7-2.3c0.5-0.5,1.2-0.8,2.1-0.8
			c0.6,0,1.2,0.1,1.7,0.4l-0.4,1c-0.5-0.2-1-0.3-1.3-0.3c-1,0-1.6,0.7-1.6,2.1c0,0.7,0.1,1.2,0.4,1.5c0.3,0.3,0.6,0.5,1.1,0.5
			c0.6,0,1.1-0.1,1.6-0.4v1.1c-0.2,0.1-0.5,0.2-0.7,0.3C140.6,63.7,140.3,63.7,139.9,63.7z"/>
		<path class="st1" d="M146.8,63.6l-0.3-0.8h0c-0.3,0.4-0.6,0.6-0.9,0.7s-0.7,0.2-1.1,0.2c-0.6,0-1.1-0.2-1.4-0.5s-0.5-0.8-0.5-1.4
			c0-0.6,0.2-1.1,0.7-1.4c0.5-0.3,1.2-0.5,2.1-0.5l1,0v-0.3c0-0.4-0.1-0.7-0.3-0.9s-0.5-0.3-0.8-0.3c-0.3,0-0.6,0-0.9,0.1
			c-0.3,0.1-0.6,0.2-0.8,0.3l-0.4-0.9c0.3-0.2,0.7-0.3,1.1-0.4c0.4-0.1,0.8-0.1,1.1-0.1c0.8,0,1.3,0.2,1.7,0.5
			c0.4,0.3,0.6,0.9,0.6,1.6v4.1H146.8z M144.9,62.7c0.5,0,0.8-0.1,1.1-0.4c0.3-0.3,0.4-0.6,0.4-1.1v-0.5l-0.8,0
			c-0.6,0-1,0.1-1.3,0.3c-0.3,0.2-0.4,0.5-0.4,0.8c0,0.3,0.1,0.5,0.2,0.6C144.3,62.6,144.6,62.7,144.9,62.7z"/>
		<path class="st1" d="M150.8,63.6h-1.3v-8.5h1.3V63.6z"/>
		<path class="st1" d="M66.9,76.2h-1.3v-3.7c0-0.5-0.1-0.8-0.3-1c-0.2-0.2-0.4-0.3-0.8-0.3c-0.5,0-0.9,0.2-1.1,0.5s-0.3,0.9-0.3,1.6
			v3h-1.3v-6h1L63,71H63c0.2-0.3,0.4-0.5,0.7-0.7c0.3-0.2,0.7-0.2,1-0.2c0.9,0,1.5,0.3,1.8,0.9h0.1c0.2-0.3,0.4-0.5,0.8-0.7
			c0.3-0.2,0.7-0.3,1.1-0.3c0.7,0,1.2,0.2,1.6,0.5c0.3,0.4,0.5,0.9,0.5,1.7v3.9h-1.3v-3.7c0-0.5-0.1-0.8-0.3-1
			c-0.2-0.2-0.4-0.3-0.8-0.3c-0.5,0-0.9,0.2-1.1,0.5c-0.2,0.3-0.3,0.8-0.3,1.4V76.2z"/>
		<path class="st1" d="M76.2,76.2l-0.3-0.8h0c-0.3,0.4-0.6,0.6-0.9,0.7s-0.7,0.2-1.1,0.2c-0.6,0-1.1-0.2-1.4-0.5
			c-0.3-0.3-0.5-0.8-0.5-1.4c0-0.6,0.2-1.1,0.7-1.4c0.5-0.3,1.2-0.5,2.1-0.5l1,0v-0.3c0-0.4-0.1-0.7-0.3-0.9S75.1,71,74.7,71
			c-0.3,0-0.6,0-0.9,0.1s-0.6,0.2-0.8,0.3l-0.4-0.9c0.3-0.2,0.7-0.3,1.1-0.4c0.4-0.1,0.8-0.1,1.1-0.1c0.8,0,1.3,0.2,1.7,0.5
			s0.6,0.9,0.6,1.6v4.1H76.2z M74.3,75.3c0.5,0,0.8-0.1,1.1-0.4c0.3-0.3,0.4-0.6,0.4-1.1v-0.5l-0.8,0c-0.6,0-1,0.1-1.3,0.3
			s-0.4,0.5-0.4,0.8c0,0.3,0.1,0.5,0.2,0.6C73.7,75.3,74,75.3,74.3,75.3z"/>
		<path class="st1" d="M82,70.1c0.3,0,0.5,0,0.6,0.1l-0.1,1.2c-0.2,0-0.4-0.1-0.6-0.1c-0.5,0-0.9,0.2-1.2,0.5
			c-0.3,0.3-0.5,0.8-0.5,1.3v3.1h-1.3v-6h1l0.2,1.1h0.1c0.2-0.4,0.5-0.6,0.8-0.9C81.2,70.2,81.6,70.1,82,70.1z"/>
		<path class="st1" d="M84.9,73l0.7-0.9l1.8-1.9H89l-2.4,2.6l2.6,3.4h-1.5l-1.9-2.6L85,74.1v2.1h-1.3v-8.5H85v4.1L84.9,73L84.9,73z"
			/>
		<path class="st1" d="M92.7,76.3c-0.9,0-1.7-0.3-2.2-0.8c-0.5-0.5-0.8-1.3-0.8-2.3c0-1,0.2-1.8,0.7-2.3s1.2-0.8,2-0.8
			c0.8,0,1.4,0.2,1.9,0.7c0.5,0.5,0.7,1.1,0.7,2v0.7h-4c0,0.6,0.2,1,0.5,1.3c0.3,0.3,0.7,0.5,1.3,0.5c0.4,0,0.7,0,1-0.1
			c0.3-0.1,0.6-0.2,1-0.3v1c-0.3,0.1-0.6,0.3-0.9,0.3S93.1,76.3,92.7,76.3z M92.5,71c-0.4,0-0.7,0.1-1,0.4c-0.2,0.3-0.4,0.6-0.4,1.1
			h2.7c0-0.5-0.1-0.9-0.4-1.1S92.9,71,92.5,71z"/>
		<path class="st1" d="M99.6,70.1c0.3,0,0.5,0,0.6,0.1l-0.1,1.2c-0.2,0-0.4-0.1-0.6-0.1c-0.5,0-0.9,0.2-1.2,0.5s-0.5,0.8-0.5,1.3
			v3.1h-1.3v-6h1l0.2,1.1h0.1c0.2-0.4,0.5-0.6,0.8-0.9C98.8,70.2,99.2,70.1,99.6,70.1z"/>
		<path class="st1" d="M105.4,74.5c0,0.6-0.2,1-0.6,1.4c-0.4,0.3-1,0.5-1.8,0.5c-0.8,0-1.4-0.1-1.9-0.4v-1.1c0.7,0.3,1.4,0.5,2,0.5
			c0.8,0,1.2-0.2,1.2-0.7c0-0.2,0-0.3-0.1-0.4s-0.2-0.2-0.4-0.3c-0.2-0.1-0.5-0.2-0.8-0.4c-0.7-0.3-1.2-0.5-1.4-0.8
			c-0.2-0.3-0.4-0.6-0.4-1c0-0.5,0.2-0.9,0.6-1.2c0.4-0.3,1-0.4,1.7-0.4c0.7,0,1.4,0.1,2,0.4l-0.4,1c-0.6-0.3-1.2-0.4-1.6-0.4
			c-0.7,0-1,0.2-1,0.6c0,0.2,0.1,0.3,0.3,0.5s0.6,0.3,1.2,0.5c0.5,0.2,0.9,0.4,1.1,0.5c0.2,0.2,0.4,0.3,0.5,0.6
			C105.3,73.9,105.4,74.2,105.4,74.5z"/>
	</g>
</g>
<g>
</g>
<g>
</g>
<g>
</g>
<g>
</g>
<g>
</g>
<g>
</g>
<g>
</g>
<g>
</g>
<g>
</g>
<g>
</g>
<g>
</g>
<g>
</g>
<g>
</g>
<g>
</g>
<g>
</g>
</svg>
