<svg version="1.1" id="Layer_1" xmlns="http://www.w3.org/2000/svg" x="0" y="0" viewBox="-180 322 250 150" style="enable-background:new -180 322 250 150" xml:space="preserve"><style>.st2{display:inline;opacity:.13;fill:none;stroke:#757575;stroke-width:.5;stroke-miterlimit:10;stroke-dasharray:3.5;enable-background:new}.st4{fill:#bdbdbd}.st6,.st8,.st9{fill:none;stroke:#757575;stroke-miterlimit:10}.st6{stroke-width:.2;stroke-dasharray:1.5}.st8,.st9{stroke-width:.5}.st9{stroke-dasharray:3.3847,3.3847}.st13{fill:#332c2c}.st14{fill:#424242}.st18{fill:#e0e0e0}.st21{fill:#9e9e9e}</style><g id="icon"><g style="opacity:.5"><path class="st8" d="M-97.1 424.6h-1.8l.9-1.5"/><path class="st9" d="m-96.3 420.2 39.8-68.9"/><path class="st8" d="m-55.7 349.8.9-1.5.9 1.5"/><path class="st9" d="m-52.3 352.7 39.8 68.9"/><path class="st8" d="m-11.6 423.1.8 1.5h-1.7"/><path class="st9" d="M-15.9 424.6h-79.5"/></g><circle cx="-55.2" cy="347.6" r="14" style="fill:#a1887f"/><circle cx="-99.4" cy="424.2" r="14" style="fill:#ffd54f"/><circle cx="-11" cy="424.6" r="14" style="fill:#64b5f6"/><g id="Oil"><path class="st13" d="M-49.6 349.8c0 1.2-.1 2.2-1 3.5-.9 1.4-2.1 1.9-2.7 2.2-.1 0-.3.1-.4.1h-.4c-.1 0-.2 0-.3.1-.6.1-1.1 0-1.5 0-.1 0-.2 0-.3-.1-.2 0-.3-.1-.3-.1h-.2c-.1 0-.2-.1-.3-.1h-.1c-.7-.2-1.8-.8-2.6-2.1-.9-1.3-1-2.4-1-3.5 0-4 5.2-12 5.6-12.5.3.5 5.5 8.5 5.5 12.5z" id="Drop_2_1_"/><path class="st14" d="M-57.8 355.1c1.7 1.1 4 .5 4 .5s1.9-.3 3.2-2.3c.9-1.3 1-2.4 1-3.5 0-4.1-5.6-12.5-5.6-12.5s4 8.4 4 11.9c.1 2.2-.4 2.8-1.1 3.7-2.6 2.6-5.5 2.2-5.5 2.2z" id="Drop_2_3_"/></g><g id="Education"><path transform="rotate(-134.999 -99.37 424.915)" class="st14" d="M-106.2 418.1h13.6v13.6h-13.6z"/><path transform="rotate(-134.999 -99.361 424.219)" class="st13" d="M-106.2 417.4h13.6V431h-13.6z"/><path d="M-99.4 424.3c.1 0 .3-.1.9.3 1.8 1.3 2.2 9.3 2.2 9.3" style="fill:none;stroke:#785555;stroke-width:.4;stroke-miterlimit:10"/><circle class="st14" cx="-99.4" cy="424.3" r=".7"/><path d="m-96.6 433.2-.3 2.5c0 .2.1.4.4.4l1.2-.1c.2 0 .3-.2.3-.4l-.8-2.3-.8-.1z" style="fill:#785555"/><path class="st13" d="M-96.1 433.4h-.4c-.1 0-.2-.1-.3-.2v-.3c0-.1.1-.2.2-.3h.4c.1 0 .2.1.3.2v.3c.1.2 0 .3-.2.3z"/></g><g id="Bus"><path d="M-4.1 423.9c0 3.7-.4 5.8-.6 6.8-.2 1-.6 1.3-1.3 1.3h-9.6c-.7 0-1.1-.4-1.3-1.3-.2-1-.6-3.2-.6-6.8 0-3.7.4-5.8.6-6.8.2-1 .6-1.3 1.3-1.3h3.2v-.2c0-.3.2-.5.5-.5h2.2c.3 0 .5.2.5.5v.2H-6c.7 0 1.1.4 1.3 1.3.1 1 .5 3.1.6 6.8z" style="fill:#fff"/><path class="st18" d="M-5.2 417.7c-.1-.9-.5-1.2-1.2-1.2h-8.8c-.6 0-1 .3-1.2 1.2-.1.9-.5 2.9-.5 6.2v.3c0 .3.2.5.5.5h11.1c.3 0 .5-.2.5-.5v-.3c.1-3.4-.3-5.3-.4-6.2z"/><path style="opacity:.25;fill:none;stroke:#757575;stroke-width:.5;stroke-miterlimit:10;enable-background:new" d="M-10.8 418.3v6.5"/><path d="M-5.7 416.7s-.3-.2-.7-.2h-8.8s-.5 0-.8.3c-.3.3-.4 1.1-.4 1.1l-.1.4h11.3c.1 0-.1-1.4-.5-1.6z" style="opacity:.5;fill:#757575;enable-background:new"/><path class="st18" d="M-16.5 427.2h3.5v1.2h-3.5zM-8.6 427.2h3.5v1.2h-3.5zM-4.7 430.7c0-.3.1-.6.2-1H-17c.1.4.1.7.2 1 .2 1 .6 1.3 1.3 1.3h9.6c.6.1 1-.3 1.2-1.3zM-17.4 425.9v.5h13.2v-.5h-13.2z"/><path class="st4" d="M-14.6 434h-.2c-.5 0-.9-.4-.9-.9V432h2.1v1.1c-.1.5-.5.9-1 .9zM-6.8 434H-7c-.5 0-.9-.4-.9-.9V432h2.1v1.1c-.1.5-.5.9-1 .9z"/><path class="st21" d="M-3.2 423.7h-1.1c-.1 0-.2.1-.2.2v.1c0 .1.1.2.2.2h1.1c.1 0 .2-.1.2-.2v-.1l-.2-.2z"/><path class="st21" d="M-3.9 423v.6c0 .2.2.5.5.5h.2c.2 0 .5-.2.5-.5v-.6c0-.2-.2-.5-.5-.5h-.2c-.3.1-.5.3-.5.5zM-18.3 419.2h1.4c.1 0 .2-.1.2-.2s-.1-.2-.2-.2h-1.4c-.1 0-.2.1-.2.2.1.1.1.2.2.2z"/><path class="st21" d="M-17.4 420.2v-.9c0-.2-.2-.5-.5-.5h-.3c-.2 0-.5.2-.5.5v.9c0 .2.2.5.5.5h.3c.3-.1.5-.3.5-.5z"/></g></g></svg>