<?xml version="1.0" encoding="utf-8"?>
<!-- Generator: Adobe Illustrator 23.1.0, SVG Export Plug-In . SVG Version: 6.00 Build 0)  -->
<svg version="1.1" id="Layer_1" xmlns="http://www.w3.org/2000/svg" xmlns:xlink="http://www.w3.org/1999/xlink" x="0px" y="0px"
	 viewBox="0 0 169.5 86.2" style="enable-background:new 0 0 169.5 86.2;" xml:space="preserve">
<style type="text/css">
	.st0{fill:#500000;}
	.st1{fill:#424242;}
	.st2{fill:none;}
</style>
<g>
	<g>
		<g>
			<path class="st0" d="M21.8,45.3V12.9l-6,2.1V9.2c1.4-0.6,2.8-1.2,4.4-2.1c1.6-0.8,2.7-1.6,3.4-2.4h6v40.5H21.8z"/>
			<path class="st0" d="M52.7,45.3V4.8h12.6c7,0,10.5,3.9,10.5,11.6c0,2.1-0.3,3.9-0.8,5.4c-0.6,1.5-1.4,2.7-2.4,3.5
				c-1,0.8-2.2,1.4-3.5,1.8s-2.8,0.5-4.5,0.5h-3.7v17.6H52.7z M60.9,21.9h2.6c1.8,0,3-0.4,3.7-1.2c0.6-0.8,0.9-2.3,0.9-4.3
				c0-1.1,0-1.9-0.1-2.5c-0.1-0.6-0.3-1.2-0.6-1.7c-0.3-0.5-0.8-0.9-1.4-1.2c-0.6-0.2-1.5-0.3-2.5-0.3h-2.6V21.9z"/>
			<path class="st0" d="M83.8,45.3V10.9h-6.5V4.8h21.1v6.1H92v34.4H83.8z"/>
		</g>
		<g>
			<path class="st1" d="M126.6,27.9V15.8h3.8c2.1,0,3.2,1.2,3.2,3.5c0,0.6-0.1,1.2-0.2,1.6c-0.2,0.4-0.4,0.8-0.7,1
				c-0.3,0.3-0.7,0.4-1.1,0.5c-0.4,0.1-0.8,0.2-1.4,0.2h-1.1v5.3H126.6z M129.1,20.9h0.8c0.5,0,0.9-0.1,1.1-0.4
				c0.2-0.2,0.3-0.7,0.3-1.3c0-0.3,0-0.6,0-0.8c0-0.2-0.1-0.4-0.2-0.5c-0.1-0.2-0.2-0.3-0.4-0.3c-0.2-0.1-0.4-0.1-0.7-0.1h-0.8V20.9
				z"/>
			<path class="st1" d="M134.8,27.9V15.8h5.3v1.7h-2.8v3.2h2.2v1.7h-2.2v3.8h2.8v1.7H134.8z"/>
			<path class="st1" d="M141.3,27.9V15.8h3.1c0.6,0,1.2,0.1,1.7,0.2s0.9,0.3,1.2,0.5c0.4,0.2,0.6,0.6,0.8,1c0.2,0.4,0.3,0.9,0.3,1.6
				c0,0.8-0.1,1.4-0.3,1.9c-0.2,0.5-0.6,0.8-1.1,1.1l1.7,5.9h-2.5l-1.4-5.5h-0.9v5.5H141.3z M143.8,21h0.6c0.6,0,1-0.1,1.3-0.4
				s0.4-0.7,0.4-1.3c0-0.6-0.1-1-0.3-1.3c-0.2-0.3-0.6-0.4-1.2-0.4h-0.8V21z"/>
			<path class="st1" d="M112.8,40.9V28.8h5.1v1.7h-2.7v3.3h2.2v1.7h-2.2v5.4H112.8z"/>
			<path class="st1" d="M119.1,40.9V28.8h5.3v1.7h-2.8v3.2h2.2v1.7h-2.2v3.8h2.8v1.7H119.1z"/>
			<path class="st1" d="M125.1,40.9l2.4-12.1h2.7l2.4,12.1h-2.3l-0.4-2.7h-1.9l-0.4,2.7H125.1z M128.1,36.7h1.4l-0.7-4.8L128.1,36.7
				z"/>
			<path class="st1" d="M134.5,40.9V30.6h-1.9v-1.8h6.3v1.8H137v10.3H134.5z"/>
			<path class="st1" d="M143.3,41.1c-0.7,0-1.2-0.1-1.7-0.3c-0.5-0.2-0.8-0.4-1.1-0.8c-0.3-0.4-0.4-0.8-0.6-1.3
				c-0.1-0.5-0.2-1.1-0.2-1.7v-8.2h2.4v8.5c0,0.2,0,0.4,0,0.6c0,0.2,0,0.3,0.1,0.5c0,0.2,0.1,0.3,0.2,0.5c0.1,0.1,0.2,0.2,0.3,0.3
				s0.3,0.1,0.5,0.1s0.4,0,0.5-0.1c0.1-0.1,0.2-0.2,0.3-0.3c0.1-0.1,0.1-0.3,0.2-0.5s0.1-0.4,0.1-0.5s0-0.4,0-0.6v-8.5h2.4V37
				c0,0.7-0.1,1.3-0.2,1.7c-0.1,0.5-0.3,0.9-0.5,1.3s-0.6,0.6-1.1,0.8C144.6,41,144,41.1,143.3,41.1z"/>
			<path class="st1" d="M148.6,40.9V28.8h3.1c0.6,0,1.2,0.1,1.7,0.2s0.9,0.3,1.2,0.5c0.4,0.2,0.6,0.6,0.8,1c0.2,0.4,0.3,0.9,0.3,1.6
				c0,0.8-0.1,1.4-0.3,1.9c-0.2,0.5-0.6,0.8-1.1,1.1l1.7,5.9h-2.5l-1.4-5.5H151v5.5H148.6z M151,34h0.6c0.6,0,1-0.1,1.3-0.4
				s0.4-0.7,0.4-1.3c0-0.6-0.1-1-0.3-1.3c-0.2-0.3-0.6-0.4-1.2-0.4H151V34z"/>
			<path class="st1" d="M157.2,40.9V28.8h5.3v1.7h-2.8v3.2h2.2v1.7h-2.2v3.8h2.8v1.7H157.2z"/>
		</g>
	</g>
	<g>
		<rect x="0.3" y="54.4" class="st2" width="169.5" height="31.9"/>
		<path class="st1" d="M14.6,64.3v-8.2H16v8.2H14.6z"/>
		<path class="st1" d="M21.1,59.1h-1.5v5.2h-1.3v-5.2h-1v-0.6l1-0.4v-0.4c0-0.7,0.2-1.3,0.5-1.6c0.3-0.4,0.9-0.5,1.6-0.5
			c0.5,0,0.9,0.1,1.4,0.2l-0.3,1c-0.3-0.1-0.6-0.2-0.9-0.2c-0.3,0-0.5,0.1-0.7,0.3s-0.2,0.5-0.2,0.8v0.4h1.5V59.1z"/>
		<path class="st1" d="M29.3,62.5c0,0.6-0.2,1.1-0.7,1.4c-0.4,0.3-1.1,0.5-1.9,0.5c-0.8,0-1.5-0.1-2-0.4v-1.1c0.7,0.3,1.4,0.5,2,0.5
			c0.8,0,1.2-0.2,1.2-0.7c0-0.2,0-0.3-0.1-0.4c-0.1-0.1-0.2-0.2-0.4-0.3c-0.2-0.1-0.5-0.2-0.9-0.4c-0.7-0.3-1.2-0.6-1.5-0.8
			c-0.3-0.3-0.4-0.6-0.4-1.1c0-0.5,0.2-0.9,0.6-1.2s1-0.4,1.7-0.4c0.7,0,1.4,0.1,2.1,0.4l-0.4,1c-0.7-0.3-1.2-0.4-1.7-0.4
			c-0.7,0-1,0.2-1,0.6c0,0.2,0.1,0.4,0.3,0.5s0.6,0.3,1.2,0.6c0.5,0.2,0.9,0.4,1.1,0.5c0.2,0.2,0.4,0.4,0.5,0.6
			C29.3,61.9,29.3,62.2,29.3,62.5z"/>
		<path class="st1" d="M30.7,56.4c0-0.2,0.1-0.4,0.2-0.5c0.1-0.1,0.3-0.2,0.6-0.2c0.2,0,0.4,0.1,0.5,0.2c0.1,0.1,0.2,0.3,0.2,0.5
			c0,0.2-0.1,0.4-0.2,0.5c-0.1,0.1-0.3,0.2-0.5,0.2c-0.2,0-0.4-0.1-0.6-0.2C30.7,56.8,30.7,56.6,30.7,56.4z M32.1,64.3h-1.3v-6.2
			h1.3V64.3z"/>
		<path class="st1" d="M39.2,58.1v0.7L38.1,59c0.1,0.1,0.2,0.3,0.2,0.5c0.1,0.2,0.1,0.4,0.1,0.6c0,0.6-0.2,1.1-0.7,1.5
			c-0.4,0.4-1,0.5-1.8,0.5c-0.2,0-0.4,0-0.5,0c-0.3,0.2-0.4,0.4-0.4,0.6c0,0.1,0.1,0.2,0.2,0.3s0.4,0.1,0.7,0.1H37
			c0.7,0,1.2,0.1,1.6,0.4c0.4,0.3,0.5,0.7,0.5,1.3c0,0.7-0.3,1.2-0.9,1.6c-0.6,0.4-1.4,0.6-2.5,0.6c-0.8,0-1.5-0.1-1.9-0.4
			c-0.4-0.3-0.7-0.7-0.7-1.3c0-0.4,0.1-0.7,0.4-1c0.2-0.3,0.6-0.4,1-0.5c-0.2-0.1-0.3-0.2-0.4-0.4c-0.1-0.2-0.2-0.3-0.2-0.5
			c0-0.2,0.1-0.4,0.2-0.6c0.1-0.2,0.3-0.3,0.6-0.5c-0.3-0.1-0.6-0.4-0.8-0.7s-0.3-0.7-0.3-1.1c0-0.7,0.2-1.2,0.6-1.6
			c0.4-0.4,1-0.6,1.8-0.6c0.2,0,0.4,0,0.6,0s0.3,0,0.4,0.1H39.2z M34.3,65.2c0,0.3,0.1,0.5,0.4,0.7s0.6,0.2,1.1,0.2
			c0.7,0,1.3-0.1,1.6-0.3c0.4-0.2,0.5-0.5,0.5-0.8c0-0.3-0.1-0.5-0.3-0.6s-0.6-0.2-1.1-0.2h-1c-0.4,0-0.7,0.1-0.9,0.3
			S34.3,64.9,34.3,65.2z M34.9,60.1c0,0.4,0.1,0.7,0.3,0.9c0.2,0.2,0.5,0.3,0.9,0.3c0.8,0,1.1-0.4,1.1-1.2c0-0.4-0.1-0.7-0.3-0.9
			c-0.2-0.2-0.5-0.3-0.9-0.3c-0.4,0-0.7,0.1-0.9,0.3C35,59.3,34.9,59.7,34.9,60.1z"/>
		<path class="st1" d="M45.8,64.3h-1.3v-3.8c0-0.5-0.1-0.8-0.3-1.1C44,59.1,43.7,59,43.3,59c-0.6,0-1,0.2-1.2,0.5
			c-0.3,0.3-0.4,0.9-0.4,1.7v3.1h-1.3v-6.2h1l0.2,0.8h0.1c0.2-0.3,0.5-0.5,0.8-0.7c0.3-0.2,0.7-0.2,1.1-0.2c1.5,0,2.2,0.8,2.2,2.3
			V64.3z"/>
		<path class="st1" d="M52.9,63.3c0.3,0,0.6-0.1,1-0.2v1c-0.1,0.1-0.3,0.1-0.6,0.2c-0.2,0-0.5,0.1-0.7,0.1c-1.3,0-1.9-0.7-1.9-2
			v-3.3h-0.8v-0.6l0.9-0.5l0.4-1.3h0.8v1.4h1.8v1h-1.8v3.3c0,0.3,0.1,0.6,0.2,0.7S52.7,63.3,52.9,63.3z"/>
		<path class="st1" d="M54.2,58.1h1.4l1.3,3.5c0.2,0.5,0.3,1,0.4,1.4h0c0-0.2,0.1-0.5,0.2-0.8s0.6-1.7,1.4-4.2h1.4l-2.7,7
			c-0.5,1.3-1.3,1.9-2.4,1.9c-0.3,0-0.6,0-0.9-0.1v-1c0.2,0,0.4,0.1,0.7,0.1c0.6,0,1.1-0.4,1.3-1.1l0.2-0.6L54.2,58.1z"/>
		<path class="st1" d="M64.5,64.4c-0.8,0-1.4-0.3-1.8-0.8h-0.1c0.1,0.5,0.1,0.8,0.1,1V67h-1.3v-9h1.1c0,0.1,0.1,0.4,0.2,0.8h0.1
			c0.4-0.6,1-0.9,1.9-0.9c0.8,0,1.4,0.3,1.8,0.8c0.4,0.6,0.6,1.3,0.6,2.4s-0.2,1.8-0.7,2.4C65.8,64.1,65.2,64.4,64.5,64.4z M64.1,59
			c-0.5,0-0.9,0.2-1.1,0.5c-0.2,0.3-0.4,0.8-0.4,1.5v0.2c0,0.8,0.1,1.3,0.4,1.6c0.2,0.3,0.6,0.5,1.2,0.5c0.5,0,0.8-0.2,1.1-0.6
			c0.2-0.4,0.4-0.9,0.4-1.6c0-0.7-0.1-1.2-0.4-1.6S64.6,59,64.1,59z"/>
		<path class="st1" d="M71.2,64.4c-1,0-1.7-0.3-2.3-0.8c-0.5-0.6-0.8-1.3-0.8-2.3c0-1,0.3-1.8,0.8-2.4c0.5-0.6,1.2-0.9,2.1-0.9
			c0.8,0,1.5,0.2,1.9,0.7c0.5,0.5,0.7,1.2,0.7,2.1v0.7h-4.1c0,0.6,0.2,1.1,0.5,1.4c0.3,0.3,0.7,0.5,1.3,0.5c0.4,0,0.7,0,1-0.1
			s0.7-0.2,1-0.3V64c-0.3,0.2-0.6,0.3-1,0.3C72,64.4,71.6,64.4,71.2,64.4z M70.9,59c-0.4,0-0.8,0.1-1,0.4c-0.3,0.3-0.4,0.7-0.5,1.2
			h2.8c0-0.5-0.1-0.9-0.4-1.2C71.7,59.1,71.4,59,70.9,59z"/>
		<path class="st1" d="M78,56.4c0-0.2,0.1-0.4,0.2-0.5c0.1-0.1,0.3-0.2,0.6-0.2c0.2,0,0.4,0.1,0.5,0.2c0.1,0.1,0.2,0.3,0.2,0.5
			c0,0.2-0.1,0.4-0.2,0.5c-0.1,0.1-0.3,0.2-0.5,0.2c-0.2,0-0.4-0.1-0.6-0.2C78.1,56.8,78,56.6,78,56.4z M79.4,64.3h-1.3v-6.2h1.3
			V64.3z"/>
		<path class="st1" d="M85.5,62.5c0,0.6-0.2,1.1-0.7,1.4c-0.4,0.3-1.1,0.5-1.9,0.5c-0.8,0-1.5-0.1-2-0.4v-1.1c0.7,0.3,1.4,0.5,2,0.5
			c0.8,0,1.2-0.2,1.2-0.7c0-0.2,0-0.3-0.1-0.4c-0.1-0.1-0.2-0.2-0.4-0.3c-0.2-0.1-0.5-0.2-0.9-0.4c-0.7-0.3-1.2-0.6-1.5-0.8
			c-0.3-0.3-0.4-0.6-0.4-1.1c0-0.5,0.2-0.9,0.6-1.2s1-0.4,1.7-0.4c0.7,0,1.4,0.1,2.1,0.4l-0.4,1c-0.7-0.3-1.2-0.4-1.7-0.4
			c-0.7,0-1,0.2-1,0.6c0,0.2,0.1,0.4,0.3,0.5s0.6,0.3,1.2,0.6c0.5,0.2,0.9,0.4,1.1,0.5c0.2,0.2,0.4,0.4,0.5,0.6
			C85.4,61.9,85.5,62.2,85.5,62.5z"/>
		<path class="st1" d="M95.4,61.2c0,1-0.3,1.8-0.8,2.4c-0.5,0.6-1.2,0.9-2.2,0.9c-0.6,0-1.1-0.1-1.5-0.4c-0.4-0.3-0.8-0.6-1-1.1
			c-0.2-0.5-0.4-1.1-0.4-1.7c0-1,0.3-1.8,0.8-2.4s1.2-0.8,2.2-0.8c0.9,0,1.6,0.3,2.1,0.9S95.4,60.2,95.4,61.2z M90.9,61.2
			c0,1.4,0.5,2.2,1.6,2.2c1,0,1.6-0.7,1.6-2.2c0-1.4-0.5-2.1-1.6-2.1c-0.6,0-1,0.2-1.2,0.5C91,59.9,90.9,60.5,90.9,61.2z"/>
		<path class="st1" d="M100,59.1h-1.5v5.2h-1.3v-5.2h-1v-0.6l1-0.4v-0.4c0-0.7,0.2-1.3,0.5-1.6c0.3-0.4,0.9-0.5,1.6-0.5
			c0.5,0,0.9,0.1,1.4,0.2l-0.3,1c-0.3-0.1-0.6-0.2-0.9-0.2c-0.3,0-0.5,0.1-0.7,0.3s-0.2,0.5-0.2,0.8v0.4h1.5V59.1z"/>
		<path class="st1" d="M108,64.3l-0.3-0.9h0c-0.3,0.4-0.6,0.6-0.9,0.8c-0.3,0.1-0.7,0.2-1.2,0.2c-0.6,0-1.1-0.2-1.4-0.5
			c-0.3-0.3-0.5-0.8-0.5-1.4c0-0.6,0.2-1.1,0.7-1.4c0.5-0.3,1.2-0.5,2.2-0.5l1.1,0v-0.3c0-0.4-0.1-0.7-0.3-0.9
			c-0.2-0.2-0.5-0.3-0.9-0.3c-0.3,0-0.6,0-0.9,0.1c-0.3,0.1-0.6,0.2-0.8,0.3l-0.4-0.9c0.3-0.2,0.7-0.3,1.1-0.4s0.8-0.1,1.1-0.1
			c0.8,0,1.4,0.2,1.8,0.5c0.4,0.3,0.6,0.9,0.6,1.6v4.2H108z M106,63.4c0.5,0,0.9-0.1,1.2-0.4s0.4-0.6,0.4-1.1v-0.5l-0.8,0
			c-0.6,0-1.1,0.1-1.4,0.3c-0.3,0.2-0.4,0.5-0.4,0.9c0,0.3,0.1,0.5,0.2,0.6C105.4,63.3,105.7,63.4,106,63.4z"/>
		<path class="st1" d="M116.2,64.3h-1.3v-3.8c0-0.5-0.1-0.8-0.3-1.1c-0.2-0.2-0.5-0.4-0.9-0.4c-0.6,0-1,0.2-1.2,0.5
			c-0.3,0.3-0.4,0.9-0.4,1.7v3.1h-1.3v-6.2h1l0.2,0.8h0.1c0.2-0.3,0.5-0.5,0.8-0.7c0.3-0.2,0.7-0.2,1.1-0.2c1.5,0,2.2,0.8,2.2,2.3
			V64.3z"/>
		<path class="st1" d="M117.1,58.1h1.4l1.3,3.5c0.2,0.5,0.3,1,0.4,1.4h0c0-0.2,0.1-0.5,0.2-0.8s0.6-1.7,1.4-4.2h1.4l-2.7,7
			c-0.5,1.3-1.3,1.9-2.4,1.9c-0.3,0-0.6,0-0.9-0.1v-1c0.2,0,0.4,0.1,0.7,0.1c0.6,0,1.1-0.4,1.3-1.1l0.2-0.6L117.1,58.1z"/>
		<path class="st1" d="M132.7,61.2c0,1-0.3,1.8-0.8,2.4c-0.5,0.6-1.2,0.9-2.2,0.9c-0.6,0-1.1-0.1-1.5-0.4c-0.4-0.3-0.8-0.6-1-1.1
			c-0.2-0.5-0.4-1.1-0.4-1.7c0-1,0.3-1.8,0.8-2.4s1.2-0.8,2.2-0.8c0.9,0,1.6,0.3,2.1,0.9C132.4,59.4,132.7,60.2,132.7,61.2z
			 M128.2,61.2c0,1.4,0.5,2.2,1.6,2.2c1,0,1.6-0.7,1.6-2.2c0-1.4-0.5-2.1-1.6-2.1c-0.6,0-1,0.2-1.2,0.5
			C128.3,59.9,128.2,60.5,128.2,61.2z"/>
		<path class="st1" d="M136.5,63.3c0.3,0,0.6-0.1,1-0.2v1c-0.1,0.1-0.3,0.1-0.6,0.2c-0.2,0-0.5,0.1-0.7,0.1c-1.3,0-1.9-0.7-1.9-2
			v-3.3h-0.8v-0.6l0.9-0.5l0.4-1.3h0.8v1.4h1.8v1h-1.8v3.3c0,0.3,0.1,0.6,0.2,0.7S136.3,63.3,136.5,63.3z"/>
		<path class="st1" d="M144.2,64.3h-1.3v-3.8c0-0.5-0.1-0.8-0.3-1.1c-0.2-0.2-0.5-0.4-0.9-0.4c-0.6,0-1,0.2-1.2,0.5
			c-0.3,0.3-0.4,0.9-0.4,1.7v3.1h-1.3v-8.7h1.3v2.2c0,0.4,0,0.7-0.1,1.1h0.1c0.2-0.3,0.4-0.5,0.7-0.7c0.3-0.2,0.7-0.2,1.1-0.2
			c1.5,0,2.3,0.8,2.3,2.3V64.3z"/>
		<path class="st1" d="M148.7,64.4c-1,0-1.7-0.3-2.3-0.8c-0.5-0.6-0.8-1.3-0.8-2.3c0-1,0.3-1.8,0.8-2.4c0.5-0.6,1.2-0.9,2.1-0.9
			c0.8,0,1.5,0.2,1.9,0.7c0.5,0.5,0.7,1.2,0.7,2.1v0.7H147c0,0.6,0.2,1.1,0.5,1.4c0.3,0.3,0.7,0.5,1.3,0.5c0.4,0,0.7,0,1-0.1
			s0.7-0.2,1-0.3V64c-0.3,0.2-0.6,0.3-1,0.3C149.5,64.4,149.2,64.4,148.7,64.4z M148.5,59c-0.4,0-0.8,0.1-1,0.4
			c-0.3,0.3-0.4,0.7-0.5,1.2h2.8c0-0.5-0.1-0.9-0.4-1.2C149.3,59.1,148.9,59,148.5,59z"/>
		<path class="st1" d="M155.8,58c0.3,0,0.5,0,0.7,0.1l-0.1,1.2c-0.2,0-0.4-0.1-0.6-0.1c-0.5,0-1,0.2-1.3,0.5
			c-0.3,0.3-0.5,0.8-0.5,1.3v3.2h-1.3v-6.2h1l0.2,1.1h0.1c0.2-0.4,0.5-0.7,0.8-0.9C155.1,58.1,155.4,58,155.8,58z"/>
		<path class="st1" d="M64.5,77.4c-0.9,0-1.7-0.3-2.1-0.8c-0.5-0.5-0.7-1.3-0.7-2.4c0-1,0.3-1.8,0.8-2.4c0.5-0.6,1.2-0.8,2.2-0.8
			c0.7,0,1.2,0.1,1.8,0.4L66,72.4c-0.6-0.2-1-0.3-1.4-0.3c-1.1,0-1.6,0.7-1.6,2.1c0,0.7,0.1,1.2,0.4,1.6c0.3,0.3,0.7,0.5,1.2,0.5
			c0.6,0,1.1-0.1,1.7-0.4V77c-0.2,0.1-0.5,0.2-0.8,0.3C65.2,77.4,64.9,77.4,64.5,77.4z"/>
		<path class="st1" d="M71.6,77.3l-0.3-0.9h0c-0.3,0.4-0.6,0.6-0.9,0.8s-0.7,0.2-1.2,0.2c-0.6,0-1.1-0.2-1.4-0.5
			c-0.3-0.3-0.5-0.8-0.5-1.4c0-0.6,0.2-1.1,0.7-1.4c0.5-0.3,1.2-0.5,2.2-0.5l1.1,0v-0.3c0-0.4-0.1-0.7-0.3-0.9
			c-0.2-0.2-0.5-0.3-0.9-0.3c-0.3,0-0.6,0-0.9,0.1c-0.3,0.1-0.6,0.2-0.8,0.3l-0.4-0.9c0.3-0.2,0.7-0.3,1.1-0.4s0.8-0.1,1.1-0.1
			c0.8,0,1.4,0.2,1.8,0.5c0.4,0.3,0.6,0.9,0.6,1.6v4.2H71.6z M69.6,76.4c0.5,0,0.9-0.1,1.2-0.4s0.4-0.6,0.4-1.1v-0.5l-0.8,0
			c-0.6,0-1.1,0.1-1.4,0.3s-0.4,0.5-0.4,0.9c0,0.3,0.1,0.5,0.2,0.6C69.1,76.3,69.3,76.4,69.6,76.4z"/>
		<path class="st1" d="M76.7,76.3c0.3,0,0.6-0.1,1-0.2v1c-0.1,0.1-0.3,0.1-0.6,0.2c-0.2,0-0.5,0.1-0.7,0.1c-1.3,0-1.9-0.7-1.9-2
			v-3.3h-0.8v-0.6l0.9-0.5l0.4-1.3h0.8v1.4h1.8v1h-1.8v3.3c0,0.3,0.1,0.6,0.2,0.7S76.4,76.3,76.7,76.3z"/>
		<path class="st1" d="M81.6,77.4c-1,0-1.7-0.3-2.3-0.8c-0.5-0.6-0.8-1.3-0.8-2.3c0-1,0.3-1.8,0.8-2.4c0.5-0.6,1.2-0.9,2.1-0.9
			c0.8,0,1.5,0.2,1.9,0.7c0.5,0.5,0.7,1.2,0.7,2.1v0.7h-4.1c0,0.6,0.2,1.1,0.5,1.4c0.3,0.3,0.7,0.5,1.3,0.5c0.4,0,0.7,0,1-0.1
			s0.7-0.2,1-0.3V77c-0.3,0.2-0.6,0.3-1,0.3C82.4,77.4,82,77.4,81.6,77.4z M81.4,72c-0.4,0-0.8,0.1-1,0.4c-0.3,0.3-0.4,0.7-0.5,1.2
			h2.8c0-0.5-0.1-0.9-0.4-1.2C82.1,72.1,81.8,72,81.4,72z"/>
		<path class="st1" d="M90.8,71.1v0.7L89.7,72c0.1,0.1,0.2,0.3,0.2,0.5c0.1,0.2,0.1,0.4,0.1,0.6c0,0.6-0.2,1.1-0.7,1.5
			c-0.4,0.4-1,0.5-1.8,0.5c-0.2,0-0.4,0-0.5,0c-0.3,0.2-0.4,0.4-0.4,0.6c0,0.1,0.1,0.2,0.2,0.3s0.4,0.1,0.7,0.1h1.1
			c0.7,0,1.2,0.1,1.6,0.4c0.4,0.3,0.5,0.7,0.5,1.3c0,0.7-0.3,1.2-0.9,1.6c-0.6,0.4-1.4,0.6-2.5,0.6c-0.8,0-1.5-0.1-1.9-0.4
			c-0.4-0.3-0.7-0.7-0.7-1.3c0-0.4,0.1-0.7,0.4-1c0.2-0.3,0.6-0.4,1-0.5c-0.2-0.1-0.3-0.2-0.4-0.4c-0.1-0.2-0.2-0.3-0.2-0.5
			c0-0.2,0.1-0.4,0.2-0.6c0.1-0.2,0.3-0.3,0.6-0.5c-0.3-0.1-0.6-0.4-0.8-0.7s-0.3-0.7-0.3-1.1c0-0.7,0.2-1.2,0.6-1.6
			c0.4-0.4,1-0.6,1.8-0.6c0.2,0,0.4,0,0.6,0c0.2,0,0.3,0,0.4,0.1H90.8z M85.9,78.2c0,0.3,0.1,0.5,0.4,0.7c0.3,0.2,0.6,0.2,1.1,0.2
			c0.7,0,1.3-0.1,1.6-0.3c0.4-0.2,0.5-0.5,0.5-0.8c0-0.3-0.1-0.5-0.3-0.6c-0.2-0.1-0.6-0.2-1.1-0.2h-1c-0.4,0-0.7,0.1-0.9,0.3
			S85.9,77.9,85.9,78.2z M86.5,73.1c0,0.4,0.1,0.7,0.3,0.9c0.2,0.2,0.5,0.3,0.9,0.3c0.8,0,1.1-0.4,1.1-1.2c0-0.4-0.1-0.7-0.3-0.9
			c-0.2-0.2-0.5-0.3-0.9-0.3c-0.4,0-0.7,0.1-0.9,0.3C86.6,72.3,86.5,72.7,86.5,73.1z"/>
		<path class="st1" d="M97.4,74.2c0,1-0.3,1.8-0.8,2.4c-0.5,0.6-1.2,0.9-2.2,0.9c-0.6,0-1.1-0.1-1.5-0.4c-0.4-0.3-0.8-0.6-1-1.1
			c-0.2-0.5-0.4-1.1-0.4-1.7c0-1,0.3-1.8,0.8-2.4s1.2-0.8,2.2-0.8c0.9,0,1.6,0.3,2.1,0.9S97.4,73.2,97.4,74.2z M92.9,74.2
			c0,1.4,0.5,2.2,1.6,2.2c1,0,1.6-0.7,1.6-2.2c0-1.4-0.5-2.1-1.6-2.1c-0.6,0-1,0.2-1.2,0.5C93,72.9,92.9,73.5,92.9,74.2z"/>
		<path class="st1" d="M102.1,71c0.3,0,0.5,0,0.7,0.1l-0.1,1.2c-0.2,0-0.4-0.1-0.6-0.1c-0.5,0-1,0.2-1.3,0.5
			c-0.3,0.3-0.5,0.8-0.5,1.3v3.2h-1.3v-6.2h1l0.2,1.1h0.1c0.2-0.4,0.5-0.7,0.8-0.9C101.4,71.1,101.7,71,102.1,71z"/>
		<path class="st1" d="M103,71.1h1.4l1.3,3.5c0.2,0.5,0.3,1,0.4,1.4h0c0-0.2,0.1-0.5,0.2-0.8s0.6-1.7,1.4-4.2h1.4l-2.7,7
			c-0.5,1.3-1.3,1.9-2.4,1.9c-0.3,0-0.6,0-0.9-0.1v-1c0.2,0,0.4,0.1,0.7,0.1c0.6,0,1.1-0.4,1.3-1.1l0.2-0.6L103,71.1z"/>
	</g>
</g>
</svg>
