<?xml version="1.0" encoding="utf-8"?>
<!-- Generator: Adobe Illustrator 22.1.0, SVG Export Plug-In . SVG Version: 6.00 Build 0)  -->
<svg version="1.1" id="Layer_1" xmlns="http://www.w3.org/2000/svg" xmlns:xlink="http://www.w3.org/1999/xlink" x="0px" y="0px"
	 viewBox="0 0 142.5 78.8" style="enable-background:new 0 0 142.5 78.8;" xml:space="preserve">
<style type="text/css">
	.st0{fill:#500000;}
	.st1{fill:#424242;}
</style>
<g>
	<g>
		<path class="st0" d="M36.5,42.5h-5.2v-28h-3.3v-3.9l0.4,0c2-0.3,2.9-0.9,4.1-2.5l0.6-0.8h3.4V42.5z"/>
		<path class="st0" d="M51.8,42.5h-5.4v-35h8.4c4.4,0,6.5,2.1,6.5,6.5v9.3c0,4.4-2.1,6.5-6.5,6.5h-3.1V42.5z M54,12.2h-2.2v12.9H54
			c1.4,0,2-0.7,2-2.1v-8.8C56,12.8,55.3,12.2,54,12.2z"/>
		<path class="st0" d="M67.4,42.5V12.3h-4.8V7.5h15v4.9h-4.8v30.2H67.4z"/>
	</g>
	<g>
		<path class="st1" d="M96.3,25.1h-1.2V14.6h2.1c1.3,0,1.9,0.6,1.9,2v2.7c0,1.3-0.6,1.9-1.9,1.9h-0.9V25.1z M97.2,15.7h-0.8v4.4h0.8
			c0.5,0,0.8-0.3,0.8-0.8v-2.8C98,16,97.7,15.7,97.2,15.7z"/>
		<path class="st1" d="M103.4,14.6v1.1h-2.1v3.5h2v1.1h-2V24h2.1v1.1h-3.3V14.6H103.4z"/>
		<path class="st1" d="M108.7,21.6v3.5h-1.2v-3.5c0-0.6-0.3-0.9-0.9-0.9h-0.9v4.4h-1.2V14.6h2.2c1.3,0,2,0.6,2,2v2
			c0,0.9-0.3,1.4-0.9,1.6C108.4,20.4,108.7,20.8,108.7,21.6z M106.6,15.7h-1v3.9h0.9c0.6,0,0.9-0.3,0.9-0.9v-2.3
			C107.4,16,107.2,15.7,106.6,15.7z"/>
		<path class="st1" d="M91.6,34.8v1.5c0,1.3-0.6,2-2,2h-0.3c-1.3,0-1.9-0.6-1.9-1.9v-2.2h1.2v2.3c0,0.5,0.3,0.8,0.8,0.8h0.2
			c0.5,0,0.8-0.3,0.8-0.8v-1.6c0-0.5-0.2-0.8-0.5-1l-1.5-1.1c-0.8-0.6-1-1.1-1-2v-1.3c0-1.3,0.6-2,2-2h0.3c1.3,0,1.9,0.6,1.9,1.9
			v1.9h-1.2v-1.9c0-0.5-0.3-0.8-0.8-0.8h-0.2c-0.5,0-0.8,0.3-0.8,0.8v1.3c0,0.5,0.2,0.8,0.5,1l1.5,1C91.4,33.4,91.6,33.9,91.6,34.8z
			"/>
		<path class="st1" d="M96.9,36.3c0,1.3-0.6,2-2,2h-0.4c-1.3,0-2-0.6-2-2v-8.6h1.2v8.7c0,0.5,0.3,0.8,0.8,0.8h0.3
			c0.5,0,0.8-0.3,0.8-0.8v-8.7h1.2V36.3z"/>
		<path class="st1" d="M102.3,34.6v3.5h-1.2v-3.5c0-0.6-0.3-0.9-0.9-0.9h-0.9v4.4h-1.2V27.6h2.2c1.3,0,2,0.6,2,2v2
			c0,0.9-0.3,1.4-0.9,1.6C102,33.4,102.3,33.8,102.3,34.6z M100.2,28.7h-1v3.9h0.9c0.6,0,0.9-0.3,0.9-0.9v-2.3
			C101,29,100.8,28.7,100.2,28.7z"/>
		<path class="st1" d="M104.6,38.2l-1.7-10.5h1.2l1.1,8l1.1-8h1.2l-1.7,10.5H104.6z"/>
		<path class="st1" d="M111.7,27.6v1.1h-2.1v3.5h2v1.1h-2V37h2.1v1.1h-3.3V27.6H111.7z"/>
		<path class="st1" d="M115.1,34.5v3.7h-1.2v-3.6l-1.7-6.9h1.2l1.1,5.1l1.1-5.1h1.2L115.1,34.5z"/>
	</g>
</g>
<g>
	<path class="st1" d="M4.9,62.1v-9h1.5v9H4.9z"/>
	<path class="st1" d="M9,62.1v-5.9H8.1v-0.8H9v-0.7c0-1.5,0.7-2.3,1.9-2.3c0.6,0,1,0.1,1,0.1v0.8c-0.1,0-0.4,0-0.6,0
		c-0.7,0-1,0.5-1,1.5v0.6h1.4v0.8h-1.4v5.9H9z"/>
	<path class="st1" d="M22.8,62.1h-1.3l0-1.4c-0.4,1-1.2,1.6-2.3,1.6c-1.7,0-3-1.5-3-3.6c0-2.1,1.2-3.6,3-3.6c1.1,0,1.8,0.6,2.3,1.6
		l0-1.3h1.3V62.1z M21.5,58.8c0-1.5-0.9-2.6-2-2.6c-1.1,0-2,1.2-2,2.6c0,1.4,0.8,2.6,2,2.6C20.7,61.4,21.5,60.3,21.5,58.8z"/>
	<path class="st1" d="M24.9,62.1v-9.6h1.3v9.6H24.9z"/>
	<path class="st1" d="M28.3,62.1v-9.6h1.3v9.6H28.3z"/>
	<path class="st1" d="M38.8,57.2c-0.1-0.7-0.6-1.1-1.5-1.1c-0.8,0-1.3,0.3-1.3,1c0,0.7,0.7,0.9,1.8,1.1c1.5,0.2,2.4,0.9,2.4,2.2
		c0,1.4-1.2,2.1-2.8,2.1c-1.7,0-2.6-0.8-2.8-2.2l1.2,0c0.1,0.8,0.7,1.3,1.7,1.3c0.9,0,1.5-0.4,1.5-1.1c0-0.7-0.6-1.1-1.8-1.3
		c-1.4-0.2-2.4-0.9-2.4-2.1c0-1.2,1.1-1.9,2.5-1.9c1.5,0,2.5,0.7,2.6,1.9L38.8,57.2z"/>
	<path class="st1" d="M46.4,62.1l0-1.4c-0.4,1-1.3,1.6-2.4,1.6c-1.4,0-2.3-0.9-2.3-2.8v-4.2h1.3v4c0,1.4,0.5,2,1.5,2
		c1.1,0,1.9-1,1.9-2.7v-3.3h1.3v6.7H46.4z"/>
	<path class="st1" d="M49.7,62.1v-6.7H51l0,1.6c0.4-1.2,1.3-1.9,2.2-1.9v1.2c-0.8-0.1-2.2,0.7-2.2,3v2.8H49.7z"/>
	<path class="st1" d="M56.5,62.1l-2.3-6.7h1.4l1.7,5.4l1.7-5.4h1.3l-2.4,6.7H56.5z"/>
	<path class="st1" d="M62.2,59c0.1,1.5,0.9,2.4,2,2.4c1.1,0,1.8-1,1.9-1.5l1.2,0c0,1-1.3,2.5-3.2,2.5c-1.9,0-3.3-1.6-3.3-3.6
		c0-2.1,1.4-3.6,3.3-3.6s3.2,1.5,3.2,3.3V59H62.2z M66.1,58.2c-0.2-1.2-1-2-1.9-2c-0.9,0-1.7,0.8-1.9,2H66.1z"/>
	<path class="st1" d="M69.4,64.8l1-2.6l-2.6-6.8h1.5l1.8,5.5l1.9-5.5h1.3l-3.6,9.4H69.4z"/>
	<path class="st1" d="M83.6,64.8v-4c-0.4,0.9-1.2,1.5-2.2,1.5c-1.7,0-3-1.5-3-3.6c0-2.1,1.2-3.6,3-3.6c1.1,0,1.8,0.6,2.3,1.6l0-1.4
		h1.3v9.4H83.6z M83.6,58.8c0-1.5-0.9-2.7-2-2.7c-1.1,0-2,1.2-2,2.7c0,1.4,0.8,2.6,2,2.6C82.8,61.4,83.6,60.3,83.6,58.8z"/>
	<path class="st1" d="M91.6,62.1l0-1.4c-0.4,1-1.3,1.6-2.4,1.6c-1.4,0-2.3-0.9-2.3-2.8v-4.2h1.3v4c0,1.4,0.5,2,1.5,2
		c1.1,0,1.9-1,1.9-2.7v-3.3h1.3v6.7H91.6z"/>
	<path class="st1" d="M95.9,59c0.1,1.5,0.9,2.4,2,2.4c1.1,0,1.8-1,1.9-1.5l1.2,0c0,1-1.3,2.5-3.2,2.5c-1.9,0-3.3-1.6-3.3-3.6
		c0-2.1,1.4-3.6,3.3-3.6s3.2,1.5,3.2,3.3V59H95.9z M99.7,58.2c-0.2-1.2-1-2-1.9-2c-0.9,0-1.7,0.8-1.9,2H99.7z"/>
	<path class="st1" d="M106.2,57.2c-0.1-0.7-0.6-1.1-1.5-1.1c-0.8,0-1.3,0.3-1.3,1c0,0.7,0.7,0.9,1.8,1.1c1.5,0.2,2.3,0.9,2.3,2.2
		c0,1.4-1.2,2.1-2.8,2.1c-1.7,0-2.6-0.8-2.8-2.2l1.2,0c0.1,0.8,0.7,1.3,1.7,1.3c0.9,0,1.5-0.4,1.5-1.1c0-0.7-0.6-1.1-1.8-1.3
		c-1.4-0.2-2.3-0.9-2.3-2.1c0-1.2,1.1-1.9,2.5-1.9c1.5,0,2.5,0.7,2.6,1.9L106.2,57.2z"/>
	<path class="st1" d="M112.1,62.2c0,0-0.3,0.1-0.9,0.1c-1.1,0-1.8-0.5-1.8-2.2v-3.9h-0.8v-0.8h0.8v-1.7h1.3v1.7h1.2v0.8h-1.2V60
		c0,1,0.3,1.3,0.9,1.3c0.3,0,0.5,0,0.5,0V62.2z"/>
	<path class="st1" d="M113.8,62.1v-6.7h1.3v6.7H113.8z M113.8,54.1v-1.5h1.3v1.5H113.8z"/>
	<path class="st1" d="M116.7,58.8c0-2.2,1.4-3.6,3.3-3.6c1.9,0,3.4,1.4,3.4,3.6s-1.4,3.6-3.3,3.6C118.1,62.4,116.7,61,116.7,58.8z
		 M122.1,58.8c0-1.5-0.9-2.6-2-2.6c-1.2,0-2,1.2-2,2.6c0,1.5,0.9,2.6,2,2.6C121.2,61.4,122.1,60.3,122.1,58.8z"/>
	<path class="st1" d="M129.8,62.1v-3.9c0-1.4-0.5-2-1.5-2c-1.1,0-1.9,1-1.9,2.7v3.2h-1.3v-6.7h1.3l0,1.4c0.4-1,1.3-1.6,2.5-1.6
		c1.4,0,2.3,0.9,2.3,2.8v4.2H129.8z"/>
	<path class="st1" d="M136.9,57.2c-0.1-0.7-0.6-1.1-1.5-1.1c-0.8,0-1.3,0.3-1.3,1c0,0.7,0.7,0.9,1.8,1.1c1.5,0.2,2.4,0.9,2.4,2.2
		c0,1.4-1.2,2.1-2.8,2.1c-1.7,0-2.6-0.8-2.8-2.2l1.2,0c0.1,0.8,0.7,1.3,1.7,1.3c0.9,0,1.5-0.4,1.5-1.1c0-0.7-0.6-1.1-1.8-1.3
		c-1.4-0.2-2.4-0.9-2.4-2.1c0-1.2,1.1-1.9,2.5-1.9c1.5,0,2.5,0.7,2.6,1.9L136.9,57.2z"/>
	<path class="st1" d="M35.8,75.1h-1.3l0-1.4c-0.4,1-1.2,1.6-2.3,1.6c-1.7,0-3-1.5-3-3.6c0-2.1,1.2-3.6,3-3.6c1.1,0,1.8,0.6,2.3,1.6
		l0-1.3h1.3V75.1z M34.5,71.8c0-1.5-0.9-2.6-2-2.6c-1.1,0-2,1.2-2,2.6c0,1.4,0.8,2.6,2,2.6C33.6,74.4,34.5,73.3,34.5,71.8z"/>
	<path class="st1" d="M37.8,75.1v-6.7h1.3l0,1.6c0.4-1.2,1.3-1.9,2.2-1.9v1.2c-0.8-0.1-2.2,0.7-2.2,3v2.8H37.8z"/>
	<path class="st1" d="M43.4,72c0.1,1.5,0.9,2.4,2,2.4c1.1,0,1.8-1,1.9-1.5l1.2,0c0,1-1.3,2.5-3.2,2.5c-1.9,0-3.3-1.6-3.3-3.6
		c0-2.1,1.4-3.6,3.3-3.6c1.8,0,3.2,1.5,3.2,3.3V72H43.4z M47.3,71.2c-0.2-1.2-1-2-1.9-2c-0.9,0-1.7,0.8-1.9,2H47.3z"/>
	<path class="st1" d="M59.6,75.1h-1.3l0-1.4c-0.4,1-1.2,1.6-2.3,1.6c-1.7,0-3-1.5-3-3.6c0-2.1,1.2-3.6,3-3.6c1.1,0,1.8,0.6,2.3,1.6
		l0-1.3h1.3V75.1z M58.3,71.8c0-1.5-0.9-2.6-2-2.6c-1.1,0-2,1.2-2,2.6c0,1.4,0.8,2.6,2,2.6C57.5,74.4,58.3,73.3,58.3,71.8z"/>
	<path class="st1" d="M66.5,75.1v-3.9c0-1.4-0.5-2-1.5-2c-1.1,0-1.9,1-1.9,2.7v3.2h-1.3v-6.7H63l0,1.4c0.4-1,1.3-1.6,2.5-1.6
		c1.4,0,2.3,0.9,2.3,2.8v4.2H66.5z"/>
	<path class="st1" d="M73.5,70.2c-0.1-0.7-0.6-1.1-1.5-1.1c-0.8,0-1.3,0.3-1.3,1c0,0.7,0.7,0.9,1.8,1.1c1.5,0.2,2.4,0.9,2.4,2.2
		c0,1.4-1.2,2.1-2.8,2.1c-1.7,0-2.6-0.8-2.8-2.2l1.2,0c0.1,0.8,0.7,1.3,1.7,1.3c0.9,0,1.5-0.4,1.5-1.1c0-0.7-0.6-1.1-1.8-1.3
		c-1.4-0.2-2.4-0.9-2.4-2.1c0-1.2,1.1-1.9,2.5-1.9c1.5,0,2.5,0.7,2.6,1.9L73.5,70.2z"/>
	<path class="st1" d="M81.9,75.1l-1.3-5.7l-1.6,5.7h-1.4l-2.1-6.7h1.4l1.4,5.5l1.6-5.5h1.4l1.3,5.5l1.7-5.5h1.3l-2.3,6.7H81.9z"/>
	<path class="st1" d="M87.6,72c0.1,1.5,0.9,2.4,2,2.4c1.1,0,1.8-1,1.9-1.5l1.2,0c0,1-1.3,2.5-3.2,2.5c-1.9,0-3.3-1.6-3.3-3.6
		c0-2.1,1.4-3.6,3.3-3.6s3.2,1.5,3.2,3.3V72H87.6z M91.5,71.2c-0.2-1.2-1-2-1.9-2c-0.9,0-1.7,0.8-1.9,2H91.5z"/>
	<path class="st1" d="M94.4,75.1v-6.7h1.3l0,1.6c0.4-1.2,1.3-1.9,2.2-1.9v1.2c-0.8-0.1-2.2,0.7-2.2,3v2.8H94.4z"/>
	<path class="st1" d="M100,72c0.1,1.5,0.9,2.4,2,2.4c1.1,0,1.8-1,1.9-1.5l1.2,0c0,1-1.3,2.5-3.2,2.5c-1.9,0-3.3-1.6-3.3-3.6
		c0-2.1,1.4-3.6,3.3-3.6c1.8,0,3.2,1.5,3.2,3.3V72H100z M103.8,71.2c-0.2-1.2-1-2-1.9-2c-0.9,0-1.7,0.8-1.9,2H103.8z"/>
	<path class="st1" d="M112.8,75.1h-1.3l0-1.4c-0.4,1-1.2,1.6-2.3,1.6c-1.7,0-3-1.5-3-3.6c0-2.1,1.2-3.6,3-3.6c1.1,0,1.8,0.6,2.2,1.5
		v-4.2h1.3V75.1z M111.5,71.8c0-1.5-0.9-2.6-2-2.6c-1.1,0-2,1.2-2,2.6c0,1.5,0.8,2.7,2,2.7C110.6,74.4,111.5,73.3,111.5,71.8z"/>
</g>
</svg>
