<?xml version="1.0" encoding="iso-8859-1"?>
<!-- Generator: Adobe Illustrator 19.0.0, SVG Export Plug-In . SVG Version: 6.00 Build 0)  -->
<svg version="1.1" id="Capa_1" xmlns="http://www.w3.org/2000/svg" xmlns:xlink="http://www.w3.org/1999/xlink" x="0px" y="0px"
	 viewBox="0 0 512 512" style="enable-background:new 0 0 512 512;" xml:space="preserve">
<g>
	<rect x="40" y="8" style="fill:#4DBAF8;" width="432" height="32"/>
	<rect x="40" y="360" style="fill:#4DBAF8;" width="432" height="32"/>
</g>
<rect x="72" y="40" style="fill:#E3F4FE;" width="368" height="320"/>
<rect x="224" y="144" width="64" height="16"/>
<rect x="304" y="80" width="64" height="16"/>
<rect x="384" y="80" width="16" height="16"/>
<rect x="304" y="112" width="32" height="16"/>
<rect x="352" y="112" width="48" height="16"/>
<rect x="304" y="144" width="64" height="16"/>
<rect x="384" y="144" width="16" height="16"/>
<rect x="120" y="184" style="fill:#FDCD3B;" width="272" height="128"/>
<path d="M392,320H120c-4.424,0-8-3.576-8-8V184c0-4.424,3.576-8,8-8h272c4.424,0,8,3.576,8,8v128C400,316.424,396.424,320,392,320z
	 M128,304h256V192H128V304z"/>
<rect x="120" y="88" style="fill:#FDCD3B;" width="80" height="64"/>
<path d="M200,160h-80c-4.424,0-8-3.576-8-8V88c0-4.424,3.576-8,8-8h80c4.424,0,8,3.576,8,8v64C208,156.424,204.424,160,200,160z
	 M128,144h64V96h-64V144z"/>
<rect x="224" y="80" width="16" height="16"/>
<rect x="256" y="80" width="32" height="16"/>
<rect x="272" y="112" width="16" height="16"/>
<rect x="224" y="112" width="32" height="16"/>
<g>
	<rect x="104" y="392" style="fill:#FDCD3B;" width="32" height="112"/>
	<rect x="376" y="392" style="fill:#FDCD3B;" width="32" height="112"/>
</g>
<path d="M472,48c4.424,0,8-3.576,8-8V8c0-4.424-3.576-8-8-8H40c-4.424,0-8,3.576-8,8v32c0,4.424,3.576,8,8,8h24v304H40
	c-4.424,0-8,3.576-8,8v32c0,4.424,3.576,8,8,8h56v96H64v16h168v-16h-88v-96h224v96h-88v16h168v-16h-32v-96h56c4.424,0,8-3.576,8-8
	v-32c0-4.424-3.576-8-8-8h-24V48H472z M48,16h416v16H48V16z M128,496h-16v-96h16V496z M400,496h-16v-96h16V496z M464,384H48v-16h416
	V384z M432,352H80V48h352V352z"/>
<rect x="464" y="496" width="16" height="16"/>
<rect x="32" y="496" width="16" height="16"/>
<rect x="248" y="496" width="16" height="16"/>
<g>
</g>
<g>
</g>
<g>
</g>
<g>
</g>
<g>
</g>
<g>
</g>
<g>
</g>
<g>
</g>
<g>
</g>
<g>
</g>
<g>
</g>
<g>
</g>
<g>
</g>
<g>
</g>
<g>
</g>
</svg>
