<?xml version="1.0" encoding="utf-8"?>
<!-- Generator: Adobe Illustrator 22.1.0, SVG Export Plug-In . SVG Version: 6.00 Build 0)  -->
<svg version="1.1" id="Layer_1" xmlns="http://www.w3.org/2000/svg" xmlns:xlink="http://www.w3.org/1999/xlink" x="0px" y="0px"
	 viewBox="0 0 131.9 83.5" style="enable-background:new 0 0 131.9 83.5;" xml:space="preserve">
<style type="text/css">
	.st0{fill:#500000;}
	.st1{fill:#424242;}
</style>
<g>
	<g>
		<path class="st0" d="M19.8,22.1c1.1-1.3,1.4-2.1,1.4-3.4v-4.9c0-1.4-0.7-2.1-2-2.1h-0.7c-1.3,0-2,0.7-2,2.1v6.2h-5.1v-6.5
			c0-4.4,2.1-6.5,6.5-6.5h2.1c4.3,0,6.5,2.2,6.5,6.5v4.9c0,2.5-0.5,4.3-2.7,6.9l-5.6,7.1c-1.1,1.4-1.5,2.2-1.5,3.9v1.3h9.8v4.9H11.4
			v-6.3c0-2.6,0.7-4.3,2.8-7L19.8,22.1z"/>
		<path class="st0" d="M41,42.5h-5.3v-35h8.4c4.4,0,6.5,2.1,6.5,6.5v9.3c0,4.4-2.1,6.5-6.5,6.5H41V42.5z M43.2,12.2H41v12.9h2.2
			c1.4,0,2-0.7,2-2.1v-8.8C45.2,12.8,44.6,12.2,43.2,12.2z"/>
		<path class="st0" d="M56.6,42.5V12.3h-4.8V7.5h15v4.9H62v30.2H56.6z"/>
		<path class="st0" d="M83.6,30.6v5.7c0,4.4-2.2,6.5-6.5,6.5h-2.3c-4.4,0-6.5-2.1-6.5-6.5v-7.4h5.2v7.2c0,1.4,0.6,2,2,2h0.7
			c1.4,0,2-0.7,2-2v-4.8c0-1.4-0.5-2.1-1.5-2.9l-5.4-4c-2.4-1.7-3.1-3.4-3.1-6.1v-4.8c0-4.4,2.1-6.5,6.5-6.5h2.3
			c4.3,0,6.5,2.2,6.5,6.5V20h-5.3v-6.2c0-1.4-0.7-2-2-2h-0.7c-1.3,0-2,0.6-2,2v3.9c0,1.5,0.5,2.1,1.5,2.9l5.4,4
			C82.9,26.2,83.6,27.7,83.6,30.6z"/>
	</g>
	<g>
		<path class="st1" d="M103.2,25.1H102V14.6h2.1c1.3,0,2,0.6,2,2v2.7c0,1.3-0.6,1.9-2,1.9h-0.9V25.1z M104.1,15.7h-0.8v4.4h0.8
			c0.5,0,0.8-0.3,0.8-0.8v-2.8C104.9,16,104.6,15.7,104.1,15.7z"/>
		<path class="st1" d="M110.3,14.6v1.1h-2.1v3.5h2v1.1h-2V24h2.1v1.1H107V14.6H110.3z"/>
		<path class="st1" d="M115.6,21.6v3.5h-1.2v-3.5c0-0.6-0.3-0.9-0.9-0.9h-0.9v4.4h-1.2V14.6h2.2c1.3,0,2,0.6,2,2v2
			c0,0.9-0.3,1.4-0.9,1.6C115.3,20.4,115.6,20.8,115.6,21.6z M113.5,15.7h-1v3.9h0.9c0.6,0,0.9-0.3,0.9-0.9v-2.3
			C114.3,16,114.1,15.7,113.5,15.7z"/>
		<path class="st1" d="M98.5,34.8v1.5c0,1.3-0.6,2-1.9,2h-0.3c-1.3,0-1.9-0.6-1.9-1.9v-2.2h1.2v2.3c0,0.5,0.3,0.8,0.8,0.8h0.2
			c0.5,0,0.8-0.3,0.8-0.8v-1.6c0-0.5-0.2-0.8-0.5-1l-1.5-1.1c-0.8-0.6-1-1.1-1-2v-1.3c0-1.3,0.6-2,2-2h0.3c1.3,0,1.9,0.6,1.9,1.9
			v1.9h-1.2v-1.9c0-0.5-0.3-0.8-0.8-0.8h-0.2c-0.5,0-0.8,0.3-0.8,0.8v1.3c0,0.5,0.2,0.8,0.5,1l1.5,1C98.3,33.4,98.5,33.9,98.5,34.8z
			"/>
		<path class="st1" d="M103.8,36.3c0,1.3-0.6,2-2,2h-0.4c-1.3,0-1.9-0.6-1.9-2v-8.6h1.2v8.7c0,0.5,0.3,0.8,0.8,0.8h0.3
			c0.5,0,0.8-0.3,0.8-0.8v-8.7h1.2V36.3z"/>
		<path class="st1" d="M109.1,34.6v3.5h-1.2v-3.5c0-0.6-0.3-0.9-0.9-0.9h-0.9v4.4h-1.2V27.6h2.2c1.3,0,2,0.6,2,2v2
			c0,0.9-0.3,1.4-0.9,1.6C108.9,33.4,109.1,33.8,109.1,34.6z M107.1,28.7h-1v3.9h0.9c0.6,0,0.9-0.3,0.9-0.9v-2.3
			C107.9,29,107.7,28.7,107.1,28.7z"/>
		<path class="st1" d="M111.5,38.2l-1.7-10.5h1.2l1.1,8l1.1-8h1.2l-1.7,10.5H111.5z"/>
		<path class="st1" d="M118.6,27.6v1.1h-2.1v3.5h2v1.1h-2V37h2.1v1.1h-3.3V27.6H118.6z"/>
		<path class="st1" d="M122,34.5v3.7h-1.2v-3.6l-1.7-6.9h1.2l1.1,5.1l1.1-5.1h1.2L122,34.5z"/>
	</g>
</g>
<g>
	<path class="st1" d="M27.5,62.1v-9H29v9H27.5z"/>
	<path class="st1" d="M31.7,62.1v-5.9h-0.9v-0.8h0.9v-0.7c0-1.5,0.7-2.3,1.9-2.3c0.6,0,1,0.1,1,0.1v0.8c-0.1,0-0.4,0-0.6,0
		c-0.7,0-1,0.5-1,1.5v0.6h1.4v0.8H33v5.9H31.7z"/>
	<path class="st1" d="M40,64.8l1-2.6l-2.6-6.8H40l1.8,5.5l1.9-5.5h1.3l-3.6,9.4H40z"/>
	<path class="st1" d="M45.5,58.8c0-2.2,1.4-3.6,3.3-3.6s3.4,1.4,3.4,3.6s-1.4,3.6-3.3,3.6C46.9,62.4,45.5,61,45.5,58.8z M50.9,58.8
		c0-1.5-0.9-2.6-2-2.6c-1.2,0-2,1.2-2,2.6c0,1.5,0.9,2.6,2,2.6C50,61.4,50.9,60.3,50.9,58.8z"/>
	<path class="st1" d="M58.5,62.1l0-1.4c-0.4,1-1.3,1.6-2.4,1.6c-1.4,0-2.3-0.9-2.3-2.8v-4.2H55v4c0,1.4,0.5,2,1.5,2
		c1.1,0,1.9-1,1.9-2.7v-3.3h1.3v6.7H58.5z"/>
	<path class="st1" d="M61.8,62.1v-6.7h1.3l0,1.6c0.4-1.2,1.3-1.9,2.2-1.9v1.2c-0.8-0.1-2.2,0.7-2.2,3v2.8H61.8z"/>
	<path class="st1" d="M71.5,64.8h-1.3v-9.4h1.3l0,1.4c0.4-1,1.2-1.6,2.3-1.6c1.7,0,3,1.5,3,3.6c0,2.1-1.2,3.6-3,3.6
		c-1.1,0-1.8-0.6-2.2-1.5V64.8z M75.4,58.8c0-1.4-0.8-2.7-2-2.7c-1.1,0-2,1.1-2,2.7c0,1.5,0.9,2.6,2,2.6
		C74.6,61.4,75.4,60.2,75.4,58.8z"/>
	<path class="st1" d="M83.1,62.1v-3.9c0-1.4-0.5-2-1.5-2c-1.1,0-1.9,1-1.9,2.7v3.2h-1.3v-9.6h1.3v4.2c0.4-0.9,1.3-1.6,2.5-1.6
		c1.4,0,2.3,0.9,2.3,2.8v4.2H83.1z"/>
	<path class="st1" d="M86,58.8c0-2.2,1.4-3.6,3.3-3.6s3.4,1.4,3.4,3.6s-1.4,3.6-3.3,3.6C87.4,62.4,86,61,86,58.8z M91.4,58.8
		c0-1.5-0.9-2.6-2-2.6c-1.2,0-2,1.2-2,2.6c0,1.5,0.9,2.6,2,2.6C90.5,61.4,91.4,60.3,91.4,58.8z"/>
	<path class="st1" d="M97.3,62.2c0,0-0.3,0.1-0.9,0.1c-1.1,0-1.8-0.5-1.8-2.2v-3.9h-0.8v-0.8h0.8v-1.7h1.3v1.7h1.2v0.8h-1.2V60
		c0,1,0.3,1.3,0.9,1.3c0.3,0,0.5,0,0.5,0V62.2z"/>
	<path class="st1" d="M98.2,58.8c0-2.2,1.4-3.6,3.3-3.6s3.4,1.4,3.4,3.6s-1.4,3.6-3.3,3.6C99.6,62.4,98.2,61,98.2,58.8z M103.5,58.8
		c0-1.5-0.9-2.6-2-2.6c-1.2,0-2,1.2-2,2.6c0,1.5,0.9,2.6,2,2.6C102.6,61.4,103.5,60.3,103.5,58.8z"/>
	<path class="st1" d="M16.8,75.1v-6.7h1.3v6.7H16.8z M16.8,67.1v-1.5h1.3v1.5H16.8z"/>
	<path class="st1" d="M25,75.1v-3.9c0-1.4-0.5-2-1.5-2c-1.1,0-1.9,1-1.9,2.7v3.2h-1.3v-6.7h1.3l0,1.4c0.4-1,1.3-1.6,2.5-1.6
		c1.4,0,2.3,0.9,2.3,2.8v4.2H25z"/>
	<path class="st1" d="M34.4,72.7c-0.3,1.6-1.5,2.7-3.2,2.7c-1.9,0-3.3-1.5-3.3-3.6c0-2.1,1.4-3.6,3.3-3.6c1.6,0,2.8,1,3.1,2.6
		l-1.3,0c-0.3-0.9-0.9-1.6-1.8-1.6c-1.2,0-2,1.2-2,2.6c0,1.4,0.9,2.7,2,2.7c0.9,0,1.6-0.9,1.8-1.8L34.4,72.7z"/>
	<path class="st1" d="M36,75.1v-9.6h1.3v9.6H36z"/>
	<path class="st1" d="M44,75.1l0-1.4c-0.4,1-1.3,1.6-2.4,1.6c-1.4,0-2.3-0.9-2.3-2.8v-4.2h1.3v4c0,1.4,0.5,2,1.5,2
		c1.1,0,1.9-1,1.9-2.7v-3.3h1.3v6.7H44z"/>
	<path class="st1" d="M53.4,75.1h-1.3l0-1.4c-0.4,1-1.2,1.6-2.3,1.6c-1.7,0-3-1.5-3-3.6c0-2.1,1.2-3.6,3-3.6c1.1,0,1.8,0.6,2.2,1.5
		v-4.2h1.3V75.1z M52.1,71.8c0-1.5-0.9-2.6-2-2.6c-1.1,0-2,1.2-2,2.6c0,1.5,0.8,2.7,2,2.7C51.3,74.4,52.1,73.3,52.1,71.8z"/>
	<path class="st1" d="M56.4,72c0.1,1.5,0.9,2.4,2,2.4c1.1,0,1.8-1,1.9-1.5l1.2,0c0,1-1.3,2.5-3.2,2.5c-1.9,0-3.3-1.6-3.3-3.6
		c0-2.1,1.4-3.6,3.3-3.6s3.2,1.5,3.2,3.3V72H56.4z M60.2,71.2c-0.2-1.2-1-2-1.9-2c-0.9,0-1.7,0.8-1.9,2H60.2z"/>
	<path class="st1" d="M66.8,70.2c-0.1-0.7-0.6-1.1-1.5-1.1c-0.8,0-1.3,0.3-1.3,1c0,0.7,0.7,0.9,1.8,1.1c1.5,0.2,2.4,0.9,2.4,2.2
		c0,1.4-1.2,2.1-2.8,2.1c-1.7,0-2.6-0.8-2.8-2.2l1.2,0c0.1,0.8,0.7,1.3,1.7,1.3c0.9,0,1.5-0.4,1.5-1.1c0-0.7-0.6-1.1-1.8-1.3
		c-1.4-0.2-2.4-0.9-2.4-2.1c0-1.2,1.1-1.9,2.5-1.9c1.5,0,2.5,0.7,2.6,1.9L66.8,70.2z"/>
	<path class="st1" d="M79.1,75.1h-1.3l0-1.4c-0.4,1-1.2,1.6-2.3,1.6c-1.7,0-3-1.5-3-3.6c0-2.1,1.2-3.6,3-3.6c1.1,0,1.8,0.6,2.3,1.6
		l0-1.3h1.3V75.1z M77.8,71.8c0-1.5-0.9-2.6-2-2.6c-1.1,0-2,1.2-2,2.6c0,1.4,0.8,2.6,2,2.6C76.9,74.4,77.8,73.3,77.8,71.8z"/>
	<path class="st1" d="M90.6,75.1h-1.3l0-1.4c-0.4,1-1.2,1.6-2.3,1.6c-1.7,0-3-1.5-3-3.6c0-2.1,1.2-3.6,3-3.6c1.1,0,1.8,0.6,2.2,1.5
		v-4.2h1.3V75.1z M89.3,71.8c0-1.5-0.9-2.6-2-2.6c-1.1,0-2,1.2-2,2.6c0,1.5,0.8,2.7,2,2.7C88.4,74.4,89.3,73.3,89.3,71.8z"/>
	<path class="st1" d="M92.6,75.1v-6.7h1.3l0,1.6c0.4-1.2,1.3-1.9,2.2-1.9v1.2c-0.8-0.1-2.2,0.7-2.2,3v2.8H92.6z"/>
	<path class="st1" d="M103.4,75.1h-1.3l0-1.4c-0.4,1-1.2,1.6-2.3,1.6c-1.7,0-3-1.5-3-3.6c0-2.1,1.2-3.6,3-3.6c1.1,0,1.8,0.6,2.3,1.6
		l0-1.3h1.3V75.1z M102.2,71.8c0-1.5-0.9-2.6-2-2.6c-1.1,0-2,1.2-2,2.6c0,1.4,0.8,2.6,2,2.6C101.3,74.4,102.2,73.3,102.2,71.8z"/>
	<path class="st1" d="M105.5,75.1v-6.7h1.3v6.7H105.5z M105.5,67.1v-1.5h1.3v1.5H105.5z"/>
	<path class="st1" d="M113.7,75.1v-3.9c0-1.4-0.5-2-1.5-2c-1.1,0-1.9,1-1.9,2.7v3.2h-1.3v-6.7h1.3l0,1.4c0.4-1,1.3-1.6,2.5-1.6
		c1.4,0,2.3,0.9,2.3,2.8v4.2H113.7z"/>
</g>
</svg>
