<?xml version="1.0" encoding="utf-8"?>
<!-- Generator: Adobe Illustrator 19.1.0, SVG Export Plug-In . SVG Version: 6.00 Build 0)  -->
<svg version="1.1" xmlns="http://www.w3.org/2000/svg" xmlns:xlink="http://www.w3.org/1999/xlink" x="0px" y="0px"
	 viewBox="0 0 250 150" style="enable-background:new 0 0 250 150;" xml:space="preserve">
<style type="text/css">
	.st0{display:none;}
	.st1{display:inline;fill:#E0E0E0;}
	.st2{display:none;fill:#FFFFFF;}
	.st3{fill:#E0E0E0;}
	.st4{display:inline;fill:#FFE082;}
	.st5{fill:#616161;}
	.st6{fill:#795548;}
	.st7{fill:#F5F5F5;}
	.st8{display:none;fill:#795548;}
	.st9{fill:#500000;}
	.st10{display:inline;}
	.st11{fill:#42A5F5;}
	.st12{fill:#1E88E5;}
	.st13{fill:#FF5722;}
	.st14{opacity:0.3;fill:#FFFFFF;}
	.st15{fill:#757575;}
	.st16{fill:#BDBDBD;}
	.st17{fill:#9E9E9E;}
</style>
<g id="Layer_6" class="st0">
	<rect class="st1" width="250" height="150"/>
</g>
<g id="Guides">
	<rect id="XMLID_5_" x="125" y="75" class="st2" width="125" height="75"/>
</g>
<g id="base">
	<circle class="st3" cx="125" cy="75" r="74.8"/>
</g>
<g id="Layer_7" class="st0">
	<rect class="st4" width="250" height="97"/>
</g>
<g id="Handsaw">
	<g id="Object_1_">
		<g id="Saw_Blade_1_">
			<polygon class="st5" points="91,84.9 107.4,101.3 116.3,95 116,91.7 119.3,92 119.1,88.7 122.4,88.9 122.1,85.6 125.4,85.9 
				125.1,82.6 128.4,82.9 128.2,79.6 131.5,79.8 131.2,76.5 134.5,76.8 134.2,73.5 137.5,73.8 137.3,70.5 140.6,70.7 140.3,67.4 
				143.6,67.7 143.3,64.4 146.6,64.7 146.4,61.4 149.7,61.6 149.4,58.3 152.7,58.6 152.4,55.3 155.7,55.6 155.5,52.3 158.8,52.5 
				158.5,49.2 161.8,49.5 161.5,46.2 164.9,46.5 164.6,43.1 167.9,43.4 167.6,40.1 170.9,40.4 170.6,37.1 165.9,32.4 91,84.8 			"/>
		</g>
		<path class="st6" d="M96.3,79.1L79.8,95.7c-1.1,1.1-0.8,2.9,0.5,3.7c1,0.6,2.1,1.3,3,2.3c2.3,2.3,1.3,3.6,3.6,5.9
			c2.3,2.3,3.5,1.3,5.8,3.6c0.9,0.9,1.7,2.1,2.3,3.1c0.8,1.3,2.6,1.6,3.7,0.5l7.5-7.5c0.4-0.4,1.9-11.2,2.5-15.7
			c0.2-1.2-0.3-2.5-1.2-3.5L98.6,79C97.9,78.3,97.4,78,96.3,79.1z M95.2,91.9c1,2.1,1.1,3,2.9,5.6c1.8,2.7,2.7,3.1,4,4.6
			c1.3,1.5,1.1,4.3-0.8,5.7c-1.9,1.3-4.3,0.9-6-0.9c0,0-2-1.8-4-4.5c-2-2.7-3.1-5.4-3.1-5.4c-1-2.6-0.6-4.8,1.3-6.2
			C91.3,89.5,94.1,90,95.2,91.9z"/>
		<circle class="st7" cx="97.6" cy="81.8" r="0.9"/>
		<circle class="st7" cx="105.7" cy="89.2" r="0.9"/>
		<circle class="st7" cx="105.4" cy="97.9" r="0.9"/>
		<path id="backup-handle_3_" class="st8" d="M107.8,88.1c0.9,0.9,1.4,2.3,1.2,3.5c-0.6,4.6-2.2,15.4-2.5,15.7l-7.5,7.5
			c-1.1,1.1-2.9,0.8-3.7-0.5c-0.6-1-1.4-2.2-2.3-3.1c-2.3-2.3-3.5-1.3-5.8-3.6c-2.3-2.3-1.3-3.5-3.6-5.9c-0.9-0.9-2-1.7-3-2.3
			c-1.3-0.8-1.6-2.6-0.5-3.7l16.6-16.6c1.1-1.1,1.6-0.8,2.3-0.2L107.8,88.1z"/>
		<path id="backup-handle_2_" class="st2" d="M101.5,108L101.5,108c-1.9,1.3-4.3,0.9-6-0.9c0,0-2-1.8-4-4.5s-3.1-5.4-3.1-5.4
			c-1-2.6-0.6-4.8,1.3-6.2l0,0c1.9-1.3,4.7-0.8,5.8,1.1c1,2.1,1.1,3,2.9,5.6c1.8,2.7,2.7,3.1,4,4.6
			C103.6,103.8,103.4,106.6,101.5,108z"/>
	</g>
</g>
<g id="Hammer_1_">
	<g id="Hammer_2_">
		<path class="st9" d="M143.6,83C115.4,54.8,113,51.5,113,51.5l-9.4,9.4c0,0,3.5,2.1,31.7,30.4c14.5,14.5,21,22.7,23.9,26.2
			c0.5,0.6,1.4,0.7,2,0.1l8.4-8.4c0.6-0.6,0.5-1.5-0.1-2C167,105.1,160.1,99.6,143.6,83z"/>
		<path class="st5" d="M131.3,38.1c0.4,0.2,0.2,0.8-0.2,0.8c-4.3,0-16,0.2-18.2,1.4c0,0-1,0.5-1.9,1.7c-0.9,1.2-1.2,2.3-1.2,2.3
			c-0.6,1.8,1.2,4.4,2.2,5.5c1,1.1,3.7,3.7,3.7,3.7c0.2,0.2,0.2,0.6,0,0.8l-9.2,9.2c-0.2,0.2-0.6,0.2-0.8,0l-0.4-0.4
			c-0.6-0.6-1.5-0.9-2.3-0.8c-1.3,0.2-3.3,1-5.5,3.2c-1.9,1.9-2.5,4.6-2.7,5.9c-0.1,0.5-0.3,0.9-0.6,1.2l-1.9,1.9
			c-0.7,0.7-1.6,0.8-2.1,0.4L80.2,65c-0.5-0.5-0.3-1.4,0.4-2.1l1.9-1.9c0.3-0.3,0.8-0.6,1.2-0.6c1.3-0.2,4-0.9,5.9-2.8
			c2.7-2.7,3.2-4.9,3.3-6.1c0-0.6,0.3-1.2,0.7-1.7l9.2-9.2c0,0,8.4-8.6,13.4-8.7C120.1,31.9,128.1,36.2,131.3,38.1z"/>
	</g>
</g>
<g id="Triangle_Square" class="st0">
	<g id="Square_2_" class="st10">
		<path class="st11" d="M190.3,84.2H137v53.3L190.3,84.2z M141.1,88.3h26.8l-26.8,26.8V88.3z M141.6,120.5l31.6-31.6
			c0.8-0.8,2-0.8,2.7,0c0.8,0.8,0.8,2,0,2.7l-31.6,31.6c-0.8,0.8-2,0.8-2.7,0C140.9,122.4,140.9,121.2,141.6,120.5z"/>
		<rect x="136" y="82.7" class="st12" width="1" height="56.4"/>
	</g>
</g>
<g id="Screwdriver">
</g>
<g id="screwdriver_2" class="st0">
	<g class="st10">
		<path class="st13" d="M109.6,56.1l-4.1-4.1c-0.8-0.8-0.8-2.2,0-3l24.6-24.6c0.8-0.8,2.2-0.8,3,0l4.1,4.1c0.8,0.8,0.8,2.2,0,3
			l-24.6,24.6C111.9,56.9,110.5,56.9,109.6,56.1z"/>
		<path class="st14" d="M132.8,28.3l0.6,0.6c0.1,0.1,0.1,0.2,0,0.3l-21.2,21.2c-0.1,0.1-0.2,0.1-0.3,0l-0.6-0.6
			c-0.1-0.1-0.1-0.2,0-0.3l21.2-21.2C132.6,28.2,132.7,28.2,132.8,28.3z"/>
		<path class="st14" d="M130.6,26.3l0.6,0.6c0.1,0.1,0.1,0.2,0,0.3L110,48.3c-0.1,0.1-0.2,0.1-0.3,0l-0.6-0.6
			c-0.1-0.1-0.1-0.2,0-0.3l21.1-21.1C130.4,26.2,130.5,26.2,130.6,26.3z"/>
		<path class="st14" d="M134.8,30.5l0.6,0.6c0.1,0.1,0.1,0.2,0,0.3l-21.1,21.1c-0.1,0.1-0.2,0.1-0.3,0l-0.6-0.6
			c-0.1-0.1-0.1-0.2,0-0.3l21.1-21.1C134.6,30.4,134.7,30.4,134.8,30.5z"/>
		
			<rect x="90.1" y="47.4" transform="matrix(-0.7071 -0.7071 0.7071 -0.7071 106.6015 184.4444)" class="st15" width="2.9" height="45.5"/>
		<path class="st13" d="M109.7,60.6l-8.6-8.6c-0.2-0.2-0.2-0.6,0-0.9l3.9-3.9c0.2-0.2,0.6-0.2,0.9,0l8.6,8.6c0.2,0.2,0.2,0.6,0,0.9
			l-3.9,3.9C110.3,60.8,109.9,60.8,109.7,60.6z"/>
		<polygon class="st16" points="75.4,86.2 76.4,87.2 74.5,88.2 72.5,89.1 73.5,87.2 74.4,85.2 		"/>
		<path class="st14" d="M106.1,48.7l0.3,0.3c0.1,0.1,0.1,0.2,0,0.2l-3.2,3.2c-0.1,0.1-0.2,0.1-0.2,0l-0.3-0.3
			c-0.1-0.1-0.1-0.2,0-0.2l3.2-3.2C105.9,48.6,106,48.6,106.1,48.7z"/>
		<path class="st14" d="M107.7,50.3l0.3,0.3c0.1,0.1,0.1,0.2,0,0.2l-3.2,3.2c-0.1,0.1-0.2,0.1-0.2,0l-0.3-0.3
			c-0.1-0.1-0.1-0.2,0-0.2l3.2-3.2C107.5,50.3,107.7,50.3,107.7,50.3z"/>
		<path class="st14" d="M109.4,52l0.3,0.3c0.1,0.1,0.1,0.2,0,0.2l-3.2,3.2c-0.1,0.1-0.2,0.1-0.2,0l-0.3-0.3c-0.1-0.1-0.1-0.2,0-0.2
			l3.2-3.2C109.2,51.9,109.3,51.9,109.4,52z"/>
		<path class="st14" d="M111,53.6l0.3,0.3c0.1,0.1,0.1,0.2,0,0.2l-3.2,3.2c-0.1,0.1-0.2,0.1-0.2,0l-0.3-0.3c-0.1-0.1-0.1-0.2,0-0.2
			l3.2-3.2C110.8,53.6,110.9,53.6,111,53.6z"/>
		<path class="st14" d="M112.7,55.3l0.3,0.3c0.1,0.1,0.1,0.2,0,0.2l-3.2,3.2c-0.1,0.1-0.2,0.1-0.2,0l-0.3-0.3
			c-0.1-0.1-0.1-0.2,0-0.2l3.2-3.2C112.5,55.2,112.6,55.2,112.7,55.3z"/>
		<polygon class="st17" points="73.5,87.2 72.5,89.1 75.4,86.2 74.4,85.2 		"/>
	</g>
</g>
<g id="screwdriver_3">
</g>
</svg>
