<?xml version="1.0" encoding="utf-8"?>
<!-- Generator: Adobe Illustrator 19.1.0, SVG Export Plug-In . SVG Version: 6.00 Build 0)  -->
<svg version="1.1" id="Layer_1" xmlns="http://www.w3.org/2000/svg" xmlns:xlink="http://www.w3.org/1999/xlink" x="0px" y="0px"
	 viewBox="-354 206 250 150" style="enable-background:new -354 206 250 150;" xml:space="preserve">
<style type="text/css">
	.st0{display:none;}
	.st1{display:inline;fill:#E0E0E0;}
	.st2{display:none;fill:#FFFFFF;}
	.st3{fill:none;stroke:#B0BEC5;stroke-width:1.5;stroke-miterlimit:10;}
	.st4{fill:#EEEEEE;stroke:#B0BEC5;stroke-width:1.5;stroke-miterlimit:10;}
</style>
<g id="Layer_6" class="st0">
	<rect x="-894" y="1172" class="st1" width="250" height="150"/>
</g>
<g id="Guides">
	<rect id="XMLID_5_" x="-769" y="1247" class="st2" width="125" height="75"/>
</g>
<g id="Hammer_1_">
	<g id="Hammer_2_">
		<path class="st3" d="M-188.7,311.2c-2.5-2.1-9.4-7.6-25.9-24.2c-17-17-24.6-25-28-28.6l-9,9c3.7,3.3,11.7,10.8,28.7,27.9
			c14.5,14.5,21,22.7,23.9,26.2c0.5,0.6,1.4,0.7,2,0.1l8.4-8.4C-188,312.6-188.1,311.7-188.7,311.2z"/>
		<path class="st3" d="M-226.9,242.1c0.4,0.2,0.2,0.8-0.2,0.8c-4.3,0-16,0.2-18.2,1.4c0,0-1,0.5-1.9,1.7c-0.9,1.2-1.2,2.3-1.2,2.3
			c-0.6,1.8,1.2,4.4,2.2,5.5s3.7,3.7,3.7,3.7c0.2,0.2,0.2,0.6,0,0.8l-9.2,9.2c-0.2,0.2-0.6,0.2-0.8,0l-0.4-0.4
			c-0.6-0.6-1.5-0.9-2.3-0.8c-1.3,0.2-3.3,1-5.5,3.2c-1.9,1.9-2.5,4.6-2.7,5.9c-0.1,0.5-0.3,0.9-0.6,1.2l-1.9,1.9
			c-0.7,0.7-1.6,0.8-2.1,0.4l-10-9.9c-0.5-0.5-0.3-1.4,0.4-2.1l1.9-1.9c0.3-0.3,0.8-0.6,1.2-0.6c1.3-0.2,4-0.9,5.9-2.8
			c2.7-2.7,3.2-4.9,3.3-6.1c0-0.6,0.3-1.2,0.7-1.7l9.2-9.2c0,0,8.4-8.6,13.4-8.7C-238.1,235.9-230.1,240.2-226.9,242.1z"/>
	</g>
</g>
<g id="Handsaw">
	<g id="Object_1_">
		<g id="Saw_Blade_1_">
			<path class="st4" d="M-183,250.8l3.3,0.3l-0.3-3.3l-4.7-4.7l-67,46.9l8.6,8.8c0.9,1,1.4,2.3,1.2,3.5c-0.3,2.3-0.9,6.3-1.4,9.6
				l0.1,0.1l8.9-6.3l-0.3-3.3l3.3,0.3l-0.2-3.3l3.3,0.2l-0.3-3.3l3.3,0.3l-0.3-3.3l3.3,0.3l-0.2-3.3l3.3,0.2l-0.3-3.3l3.3,0.3
				l-0.3-3.3l3.3,0.3l-0.2-3.3l3.3,0.2l-0.3-3.3l3.3,0.3l-0.3-3.3l3.3,0.3l-0.2-3.3l3.3,0.2l-0.3-3.3l3.3,0.3l-0.3-3.3l3.3,0.3
				l-0.2-3.3l3.3,0.2l-0.3-3.3l3.3,0.3l-0.3-3.3l3.4,0.3l-0.3-3.4l3.3,0.3L-183,250.8z"/>
		</g>
		<path class="st3" d="M-243.1,298.8l-8.9-9.1c-0.7-0.7-1.2-1-2.3,0.1l-16.5,16.6c-1.1,1.1-0.8,2.9,0.5,3.7c1,0.6,2.1,1.3,3,2.3
			c2.3,2.3,1.3,3.6,3.6,5.9s3.5,1.3,5.8,3.6c0.9,0.9,1.7,2.1,2.3,3.1c0.8,1.3,2.6,1.6,3.7,0.5l7.5-7.5c0.4-0.4,1.9-11.2,2.5-15.7
			C-241.7,301.1-242.2,299.8-243.1,298.8z M-249.3,318.5c-1.9,1.3-4.3,0.9-6-0.9c0,0-2-1.8-4-4.5s-3.1-5.4-3.1-5.4
			c-1-2.6-0.6-4.8,1.3-6.2c1.8-1.3,4.6-0.8,5.7,1.1c1,2.1,1.1,3,2.9,5.6c1.8,2.7,2.7,3.1,4,4.6
			C-247.2,314.3-247.4,317.1-249.3,318.5z"/>
	</g>
</g>
</svg>
