<?xml version="1.0" encoding="utf-8"?>
<!-- Generator: Adobe Illustrator 21.0.2, SVG Export Plug-In . SVG Version: 6.00 Build 0)  -->
<svg version="1.1" id="Layer_1" xmlns="http://www.w3.org/2000/svg" xmlns:xlink="http://www.w3.org/1999/xlink" x="0px" y="0px"
	 viewBox="0 0 366 366.5" style="enable-background:new 0 0 366 366.5;" xml:space="preserve">
<style type="text/css">
	.st0{fill:none;stroke:#500000;stroke-width:11;stroke-miterlimit:10;}
	.st1{opacity:0.6;fill:none;stroke:#500000;stroke-width:7;stroke-linecap:round;stroke-miterlimit:10;enable-background:new    ;}
</style>
<image style="display:none;overflow:visible;enable-background:new    ;" width="482" height="503" xlink:href="../../../../../../../../Users/imacleopard.GEONET.000/Downloads/abcb83e9a6a777e70830b532c86b7459.jpg"  transform="matrix(0.8218 0 0 0.8218 -17.091 -21.3785)">
</image>
<path class="st0" d="M184.5,358.8c2.2,0.3,8,0.8,22.2-1.9c10.1-2,17.8-4.3,26-7c16.1-5.2,19-6.7,41.8-14.6
	c11.9-4.1,27.9-9.5,27.9-9.5s4.7-2,6.3-4.4c2.2-3.3-0.8-8.2-3.2-13.9c-0.5-1.2-2-7.4-5.1-19.7c-1.3-5.4-5.5-24.2-1.3-45
	c1.5-7.6,4.5-16.9,6.3-22.8c3.3-10.5,4.5-12.3,5.1-17.8c1.1-9.5-1-17-2.5-22.8c-1.8-6.7-3.3-12.3-7.6-18.4c-4.4-6.3-7.5-7-9.5-12.7
	c-1.5-4.4-0.4-6.1-0.6-13.9c-0.4-13.3-3.7-13.7-2.5-20.3c1.4-8,7.4-13.3,14.6-19.7c3.9-3.4,8.1-6.1,16.5-11.4
	c10.5-6.6,11-6.1,15.2-9.5c5.5-4.5,11.2-9,13.9-17.1c4-11.7-1-22.3-1.9-24.1c-4-8.1-10.4-12.2-13.3-13.9c-5-3.1-10.7-5-27.9-6.3
	c-16.4-1.2-24.6-1.9-31.7-0.6c-20.9,3.6-34.8,15-41.8,20.9c-8.6,7.3-14.2,11.9-17.1,20.3c-1.9,5.3-3,13-4.4,22.8
	c-0.8,5.2-1.1,7.8-1.3,8.9c-1.2,10.4-0.4,12.8-2.5,15.9c-2.3,3.2-6.7,5.5-10.8,5.1c-4.7-0.5-7.1-4.5-12.7-11.4
	c-6.3-7.8-11.4-14.2-17.1-18.4c-7.2-5.3-14.3-6.4-26-8.2c-13.8-2.1-22.4-3.5-31.1,1.3c-8.3,4.5-13.4,12.9-15.2,15.9
	c-4.3,7-7.4,13.7-7.6,13.9c-5.6,5.5-9.5,3.3-17.1,9.5c-5.2,4.2-8,8.9-9.5,11.4c-4.3,7.3-7,16.5-7,16.5s0,4.4-1.3,7
	c-1.3,2.9-4,3.4-7,5.1c-8,4.6-11,13.8-11.4,15.2c-2.4,7.4,0.9,9.8-1.9,15.2c-2.7,5.2-6.7,4.7-11.4,8.9c-11.7,10.2-9,31.3-8.2,36.8
	c0.9,7.2,1.7,13.5,6.3,19.7c4.4,5.8,9.5,7.9,13.9,16.5c1.5,2.8,1.9,4.5,3.2,8.2c5.1,15.2,7.7,22.8,12,27.9c5,5.9,12,9,26,15.2
	c4.4,1.9,6.4,2.6,11.4,5.1c7.1,3.6,9.2,5.4,17.1,10.1c10,6,15.1,9,20.9,10.8c3.7,1.1,10,3.1,18.4,3.2c7.2,0.1,10.8-1.3,15.2,1.3
	c3.7,2.2,3.5,4.5,7,8.2C168.7,356.8,178.2,358,184.5,358.8z"/>
<path class="st0" d="M171.9,88.3c-2.7,3.9-17.3-3.2-16.1,4.2c0.6,3.5,0.7,3.7,7.5,12.7c11.5,15.2,13.6,17,16.5,21.3
	c3.9,5.9,6.4,10.6,9,17.5c3.1,8.4,3,16.5-0.7,23.2c-1.9,3.4-5.5,5.3-12.7,9.2s-10.8,5.8-15,5c-1.8-0.3-4-1.2-12.2-10.8
	c-7.1-8.3-10.6-12.5-13-17.2c-4.9-9.5-2.7-12.2-7.7-19c-1.7-2.3-3.3-3.9-12-10.5c-10.8-8.3-13.8-8.5-18.5-13.7
	c-2.5-2.8-5.8-7.3-8.2-14.3"/>
<path class="st0" d="M52,141.5c8.2,6.1,15.4,8.8,20.7,10.2c6.3,1.6,10,1.3,14.8,4.8c4.5,3.3,7,7.7,9.2,11.5c3.2,5.7,2.5,6.8,5.2,12
	c3.8,7.6,6.2,7,13.5,17c6,8.3,5.7,10.6,10.5,14.2c2.3,1.8,6.5,4.8,12.3,4.8c7.3,0,12.3-4.6,13.5-5.8c5-5,5.7-11.4,6.3-16.8
	c0.6-5.2,0.1-9.6-0.5-12.5"/>
<path class="st0" d="M23.7,185.7c6.4,3,11.5,5.8,15.2,7.8c4.7,2.7,9,5.4,9.7,5.8c8.3,5.3,8.5,6,11.8,7.5c7.4,3.2,8.9,0.5,13.2,3.2
	c5,3.2,3.9,7.7,10,20c3.6,7.3,5.4,10.9,8.7,13.2c7.2,5,18.8,4.2,26.3-1.3c8.1-6,9.7-16.2,10.5-21.3c0.4-2.4,0.5-4.5,0.5-6"/>
<path class="st0" d="M29,251.8c2.8-0.9,7.4-1.8,12.7-0.7c2.8,0.6,7.9,1.7,10,5.7c1,2,0.3,2.6,1.2,5c1.5,4.1,5.1,6.2,9.2,8.7
	c4.9,2.9,8,4.7,12.7,4.8c7.4,0.2,12.6-3.9,14.2-5.2c1.7-1.4,5.7-4.7,7.3-10.8c1.8-6.6-0.4-12.1-1.2-13.7"/>
<path class="st1" d="M158,261.3c14.2-7,20.5-6.5,23.5-4.5c0.8,0.5,2.7,2.1,6,3.8c3,1.6,5.7,2.5,7.5,3"/>
<path class="st1" d="M219,244.8c-1.7-9.4-1.4-17.1-0.8-22.3c1.1-8.9,2-16.1,7.8-21.3c4.6-4.1,10.3-5,13.5-5.3"/>
<path class="st1" d="M144.3,134.8c1.2,0.4,6.2,1.8,11.5-0.8c3.8-1.8,5.7-4.7,6.5-6"/>
<path class="st1" d="M79.4,199.4c1.1,0.5,6,2.5,11.6,0.6c4.3-1.5,6.7-4.4,7.5-5.6"/>
<path class="st1" d="M344,38c-8,8-14.6,14.3-19,18.5c-10.7,10.2-15.8,14.6-21,23c-3.2,5.2-5.1,9.8-6.3,13"/>
</svg>
