<?xml version="1.0" encoding="utf-8"?>
<!-- Generator: Adobe Illustrator 19.1.0, SVG Export Plug-In . SVG Version: 6.00 Build 0)  -->
<svg version="1.1" id="Layer_1" xmlns="http://www.w3.org/2000/svg" xmlns:xlink="http://www.w3.org/1999/xlink" x="0px" y="0px"
	 viewBox="-354 206 250 150" style="enable-background:new -354 206 250 150;" xml:space="preserve">
<style type="text/css">
	.st0{display:none;fill:#FFFFFF;}
	.st1{fill:#EEEEEE;stroke:#B0BEC5;stroke-miterlimit:10;}
	.st2{clip-path:url(#SVGID_13_);fill:#EEEEEE;stroke:#B0BEC5;stroke-miterlimit:10;}
	.st3{fill:none;stroke:#B0BEC5;stroke-width:1.5;stroke-miterlimit:10;}
	.st4{fill:none;stroke:#B0BEC5;stroke-width:6;stroke-linecap:square;stroke-miterlimit:10;}
	.st5{fill:#616161;stroke:#B0BEC5;stroke-miterlimit:10;}
	.st6{clip-path:url(#SVGID_15_);fill:none;stroke:#B0BEC5;stroke-width:4;stroke-miterlimit:10;}
	.st7{fill:none;stroke:#B0BEC5;stroke-miterlimit:10;}
	.st8{clip-path:url(#SVGID_17_);fill:#EEEEEE;stroke:#B0BEC5;stroke-miterlimit:10;}
	.st9{clip-path:url(#SVGID_19_);fill:none;stroke:#B0BEC5;stroke-miterlimit:10;}
	.st10{fill:none;stroke:#B0BEC5;stroke-width:4;stroke-miterlimit:10;}
</style>
<g id="Guides">
	<rect id="XMLID_5_" x="-769" y="1247" class="st0" width="125" height="75"/>
</g>
<g id="Layer_2">
	<g>
		<g>
			<g>
				<g>
					<g>
						<path id="SVGID_2_" class="st1" d="M-180.1,266.1l-7.8,4.5c-7.9,4.6-18.1,1.8-22.7-6l-0.4-0.5c-4.6-7.9-1.8-18.1,6-22.7
							l7.8-4.5c7.9-4.6,18.1-1.8,22.7,6l0.4,0.5C-169.4,251.3-172.2,261.6-180.1,266.1z"/>
					</g>
					<g>
						<defs>
							<path id="SVGID_12_" d="M-180.1,266.1l-7.8,4.5c-7.9,4.6-18.1,1.8-22.7-6l-0.4-0.5c-4.6-7.9-1.8-18.1,6-22.7l7.8-4.5
								c7.9-4.6,18.1-1.8,22.7,6l0.4,0.5C-169.4,251.3-172.2,261.6-180.1,266.1z"/>
						</defs>
						<clipPath id="SVGID_13_">
							<use xlink:href="#SVGID_12_"  style="overflow:visible;"/>
						</clipPath>
						<path class="st2" d="M-180,266.1l-7.9,4.6c-7.9,4.5-18.1,1.8-22.6-6l-0.4-0.6c-4.5-7.9-1.8-18.1,6-22.6l7.9-4.6
							c7.9-4.5,18.1-1.8,22.6,6l0.4,0.6C-169.4,251.4-172.2,261.6-180,266.1z"/>
						<use xlink:href="#SVGID_12_"  style="overflow:visible;fill:none;stroke:#B0BEC5;stroke-miterlimit:10;"/>
					</g>
				</g>
			</g>
		</g>
		<g>
			<path id="SVGID_1_" class="st3" d="M-180.1,266.1l-7.8,4.5c-7.9,4.6-18.1,1.8-22.7-6l-0.4-0.5c-4.6-7.9-1.8-18.1,6-22.7l7.8-4.5
				c7.9-4.6,18.1-1.8,22.7,6l0.4,0.5C-169.4,251.3-172.2,261.6-180.1,266.1z"/>
		</g>
	</g>
	<path id="cord_relief_1_" class="st4" d="M-282.2,308.2c3-4.1,5.4-5.6,6.5-6.1"/>
	<path id="Switch" class="st5" d="M-226.5,260.7l-5,3.7c-0.5,0.4-1.3,0.2-1.7-0.2l0,0c-0.4-0.5-0.2-1.3,0.2-1.7l5-3.7
		c0.5-0.4,1.3-0.2,1.7,0.2l0,0C-225.8,259.5-225.9,260.3-226.5,260.7z"/>
	<g id="Microphone_Body">
		<g>
			<polygon id="SVGID_3_" class="st1" points="-212.3,248.4 -278.5,297.4 -273.5,306.4 -197.7,273.7 			"/>
		</g>
		<g>
			<g>
				<g>
					<g>
						<polygon id="SVGID_5_" class="st1" points="-212.3,248.4 -278.5,297.4 -273.5,306.4 -197.7,273.7 						"/>
					</g>
					<g>
						<defs>
							<polygon id="SVGID_14_" points="-212.3,248.4 -278.5,297.4 -273.5,306.4 -197.7,273.7 							"/>
						</defs>
						<clipPath id="SVGID_15_">
							<use xlink:href="#SVGID_14_"  style="overflow:visible;"/>
						</clipPath>
						<line id="Neck_ring" class="st6" x1="-212.3" y1="248.1" x2="-197.6" y2="273.8"/>
						<use xlink:href="#SVGID_14_"  style="overflow:visible;fill:none;stroke:#B0BEC5;stroke-miterlimit:10;"/>
					</g>
					<g>
						<polygon id="SVGID_4_" class="st7" points="-212.3,248.4 -278.5,297.4 -273.5,306.4 -197.7,273.7 						"/>
					</g>
				</g>
			</g>
		</g>
		<g>
			<g>
				<g>
					<g>
						<polygon id="SVGID_7_" class="st1" points="-212.3,248.4 -278.5,297.4 -273.5,306.4 -197.7,273.7 						"/>
					</g>
					<g>
						<defs>
							<polygon id="SVGID_16_" points="-212.3,248.4 -278.5,297.4 -273.5,306.4 -197.7,273.7 							"/>
						</defs>
						<clipPath id="SVGID_17_">
							<use xlink:href="#SVGID_16_"  style="overflow:visible;"/>
						</clipPath>
						<polyline id="Neck_ring_3_" class="st8" points="-217.9,250.4 -209.7,264.6 -202.1,277.8 						"/>
						<use xlink:href="#SVGID_16_"  style="overflow:visible;fill:none;stroke:#B0BEC5;stroke-miterlimit:10;"/>
					</g>
					<g>
						<polygon id="SVGID_6_" class="st7" points="-212.3,248.4 -278.5,297.4 -273.5,306.4 -197.7,273.7 						"/>
					</g>
				</g>
			</g>
		</g>
		<g>
			<g>
				<g>
					<g>
						<polygon id="SVGID_9_" class="st1" points="-212.3,248.4 -278.5,297.4 -273.5,306.4 -197.7,273.7 						"/>
					</g>
					<g>
						<defs>
							<polygon id="SVGID_18_" points="-212.3,248.4 -278.5,297.4 -273.5,306.4 -197.7,273.7 							"/>
						</defs>
						<clipPath id="SVGID_19_">
							<use xlink:href="#SVGID_18_"  style="overflow:visible;"/>
						</clipPath>
						<line id="Neck_ring_4_" class="st9" x1="-216.7" y1="248.4" x2="-199.8" y2="277.7"/>
						<use xlink:href="#SVGID_18_"  style="overflow:visible;fill:none;stroke:#B0BEC5;stroke-miterlimit:10;"/>
					</g>
					<g>
						<polygon id="SVGID_8_" class="st7" points="-212.3,248.4 -278.5,297.4 -273.5,306.4 -197.7,273.7 						"/>
					</g>
				</g>
			</g>
		</g>
		<g>
			<g>
				<g>
					<g>
						<polygon id="SVGID_11_" class="st1" points="-212.3,248.4 -278.5,297.4 -273.5,306.4 -197.7,273.7 						"/>
					</g>
					<g>
						<polygon id="SVGID_10_" class="st7" points="-212.3,248.4 -278.5,297.4 -273.5,306.4 -197.7,273.7 						"/>
					</g>
				</g>
			</g>
		</g>
	</g>
	<path class="st10" d="M-275.7,302c0,0-10.4,5.7-10.4,18.1v7.1"/>
	<rect x="-240.8" y="290.8" class="st1" width="10.9" height="36.5"/>
	<path class="st1" d="M-219.3,277.5c-0.7-2.1-0.7-2.1-2.5-5.3c-1.8-3.3-3.5-5.7-3.5-5.7c-1.5-2.1-4.8-2.4-7.4-0.6l-22.6,15.8
		c-2.6,1.8-2.6,4.6-2,7.2c0.8,2,0.9,2.5,1.7,3.7c0.7,1.2,1.9,2.8,1.9,2.8c1.5,2.1,1.5,2.1,2.8,2.5c2.1-0.4,30.1-12.9,32.4-14.5
		C-218.1,282.5-218.6,279.6-219.3,277.5z"/>
	<circle class="st1" cx="-235.4" cy="290.8" r="7.6"/>
</g>
</svg>
