<?xml version="1.0" encoding="utf-8"?>
<!-- Generator: Adobe Illustrator 20.1.0, SVG Export Plug-In . SVG Version: 6.00 Build 0)  -->
<svg version="1.1" id="Layer_1" xmlns="http://www.w3.org/2000/svg" xmlns:xlink="http://www.w3.org/1999/xlink" x="0px" y="0px"
	 viewBox="0 0 54.3 52.7" style="enable-background:new 0 0 54.3 52.7;" xml:space="preserve">
<style type="text/css">
	.st0{fill:#3F51B5;stroke:#EEEEEE;stroke-miterlimit:10;}
	.st1{fill:#FFA000;}
	.st2{fill:none;stroke:#FFC107;stroke-width:0.5;stroke-miterlimit:10;}
	.st3{fill:#FFB300;}
	.st4{fill:none;stroke:#303F9F;stroke-width:1.5;stroke-miterlimit:10;}
	.st5{fill:none;stroke:#FFCA28;stroke-width:0.5;stroke-miterlimit:10;}
	.st6{fill:#BDBDBD;}
	.st7{fill:none;stroke:#BDBDBD;stroke-width:0.75;stroke-linecap:round;stroke-miterlimit:10;}
</style>
<g id="Satellite">
	
		<rect x="3.8" y="33.7" transform="matrix(-0.9168 -0.3993 0.3993 -0.9168 -1.4222 84.418)" class="st0" width="8.6" height="17.3"/>
	<rect x="17.7" y="1.7" transform="matrix(0.9168 0.3993 -0.3993 0.9168 5.9552 -7.9379)" class="st0" width="8.6" height="17.3"/>
	<rect x="2.6" y="18.7" transform="matrix(0.9168 0.3993 -0.3993 0.9168 10.1803 -1.5758)" class="st1" width="12.5" height="9.9"/>
	<line class="st2" x1="3.2" y1="21.2" x2="13.8" y2="25.8"/>
	
		<rect x="9.9" y="21.1" transform="matrix(0.9168 0.3993 -0.3993 0.9168 12.0974 -4.2834)" class="st3" width="12.8" height="11.7"/>
	<line class="st4" x1="18.6" y1="18.3" x2="17.4" y2="21"/>
	<line class="st4" x1="12.7" y1="31.7" x2="11.5" y2="34.4"/>
	<line class="st5" x1="11.2" y1="22.6" x2="24.2" y2="28.2"/>
	<line class="st5" x1="9.7" y1="26.1" x2="22.7" y2="31.7"/>
	<path class="st6" d="M20.4,28.7c-2.2,4.9,0.1,10.7,5.1,12.9l7.8-17.9C28.3,21.5,22.6,23.7,20.4,28.7z"/>
	<line class="st7" x1="39.3" y1="36.9" x2="49.2" y2="41.2"/>
	<line class="st7" x1="36.5" y1="43.5" x2="45.1" y2="51.5"/>
	<line class="st7" x1="42.2" y1="30.3" x2="53.9" y2="31.3"/>
</g>
</svg>
