<?xml version="1.0" encoding="utf-8"?>
<!-- Generator: Adobe Illustrator 19.1.0, SVG Export Plug-In . SVG Version: 6.00 Build 0)  -->
<svg version="1.1" xmlns="http://www.w3.org/2000/svg" xmlns:xlink="http://www.w3.org/1999/xlink" x="0px" y="0px"
	 viewBox="0 0 250 150" style="enable-background:new 0 0 250 150;" xml:space="preserve">
<style type="text/css">
	.st0{display:none;fill:#FFFFFF;}
	.st1{fill:#80CBC4;}
	.st2{clip-path:url(#SVGID_2_);fill:#9E9E9E;}
	.st3{clip-path:url(#SVGID_2_);}
	.st4{fill:none;stroke:#757575;stroke-width:0.3;stroke-miterlimit:10;}
	.st5{clip-path:url(#SVGID_2_);fill:none;stroke:#616161;stroke-width:1.25;stroke-miterlimit:10;}
	.st6{fill:none;stroke:#616161;stroke-width:6;stroke-linecap:square;stroke-miterlimit:10;}
	.st7{fill:#757575;}
	.st8{clip-path:url(#SVGID_4_);fill:none;stroke:#616161;stroke-width:4;stroke-miterlimit:10;}
	.st9{clip-path:url(#SVGID_4_);fill:none;stroke:#757575;stroke-miterlimit:10;}
	.st10{clip-path:url(#SVGID_4_);fill:none;stroke:#757575;stroke-width:0.5;stroke-miterlimit:10;}
	.st11{opacity:2.000000e-002;clip-path:url(#SVGID_4_);fill:#FAFAFA;}
	.st12{fill:none;stroke:#616161;stroke-width:4;stroke-miterlimit:10;}
	.st13{opacity:3.000000e-002;fill:#FAFAFA;}
	.st14{fill:#616161;}
	.st15{fill:#BDBDBD;}
	.st16{fill:none;stroke:#757575;stroke-width:0.6;stroke-linecap:round;stroke-miterlimit:10;}
</style>
<g id="Guides">
	<rect id="XMLID_5_" x="125" y="75" class="st0" width="125" height="75"/>
</g>
<g id="Layer_4">
	<circle class="st1" cx="125" cy="74.4" r="74"/>
</g>
<g id="Layer_2">
	<g>
		<defs>
			<path id="SVGID_1_" d="M166.2,62.4l-6.6,3.8c-6.7,3.9-15.3,1.5-19.2-5.1l-0.3-0.4c-3.9-6.7-1.5-15.3,5.1-19.2l6.6-3.8
				c6.7-3.9,15.3-1.5,19.2,5.1l0.3,0.4C175.2,49.9,172.9,58.6,166.2,62.4z"/>
		</defs>
		<clipPath id="SVGID_2_">
			<use xlink:href="#SVGID_1_"  style="overflow:visible;"/>
		</clipPath>
		<path class="st2" d="M166.3,62.4l-6.7,3.9c-6.7,3.8-15.3,1.5-19.1-5.1l-0.3-0.5c-3.8-6.7-1.5-15.3,5.1-19.1l6.7-3.9
			c6.7-3.8,15.3-1.5,19.1,5.1l0.3,0.5C175.2,50,172.9,58.6,166.3,62.4z"/>
		<g id="Mesh" class="st3">
			<line class="st4" x1="143.8" y1="29.9" x2="134.6" y2="64.4"/>
			<line class="st4" x1="145.3" y1="30.3" x2="136.1" y2="64.8"/>
			<line class="st4" x1="146.8" y1="30.7" x2="137.6" y2="65.2"/>
			<line class="st4" x1="148.3" y1="31.1" x2="139.1" y2="65.6"/>
			<line class="st4" x1="149.8" y1="31.5" x2="140.5" y2="66"/>
			<line class="st4" x1="151.3" y1="31.9" x2="142" y2="66.4"/>
			<line class="st4" x1="152.7" y1="32.3" x2="143.5" y2="66.7"/>
			<line class="st4" x1="154.2" y1="32.7" x2="145" y2="67.1"/>
			<line class="st4" x1="155.7" y1="33.1" x2="146.5" y2="67.5"/>
			<line class="st4" x1="157.2" y1="33.5" x2="147.9" y2="67.9"/>
			<line class="st4" x1="158.7" y1="33.9" x2="149.4" y2="68.3"/>
			<line class="st4" x1="160.1" y1="34.2" x2="150.9" y2="68.7"/>
			<line class="st4" x1="161.6" y1="34.6" x2="152.4" y2="69.1"/>
			<line class="st4" x1="163.1" y1="35" x2="153.9" y2="69.5"/>
			<line class="st4" x1="164.6" y1="35.4" x2="155.4" y2="69.9"/>
			<line class="st4" x1="166.1" y1="35.8" x2="156.8" y2="70.3"/>
			<line class="st4" x1="167.6" y1="36.2" x2="158.3" y2="70.7"/>
			<line class="st4" x1="169" y1="36.6" x2="159.8" y2="71.1"/>
			<line class="st4" x1="170.5" y1="37" x2="161.3" y2="71.5"/>
			<line class="st4" x1="172" y1="37.4" x2="162.8" y2="71.9"/>
			<line class="st4" x1="173.5" y1="37.8" x2="164.3" y2="72.3"/>
			<line class="st4" x1="175" y1="38.2" x2="165.7" y2="72.7"/>
			<line class="st4" x1="176.5" y1="38.6" x2="167.2" y2="73.1"/>
			<line class="st4" x1="177.9" y1="39" x2="168.7" y2="73.5"/>
			<line class="st4" x1="134.5" y1="64.1" x2="168.9" y2="73.4"/>
			<line class="st4" x1="134.9" y1="62.6" x2="169.3" y2="71.9"/>
			<line class="st4" x1="135.3" y1="61.2" x2="169.7" y2="70.4"/>
			<line class="st4" x1="135.7" y1="59.7" x2="170.1" y2="68.9"/>
			<line class="st4" x1="136" y1="58.2" x2="170.5" y2="67.4"/>
			<line class="st4" x1="136.4" y1="56.7" x2="170.9" y2="65.9"/>
			<line class="st4" x1="136.8" y1="55.2" x2="171.3" y2="64.5"/>
			<line class="st4" x1="137.2" y1="53.7" x2="171.7" y2="63"/>
			<line class="st4" x1="137.6" y1="52.3" x2="172.1" y2="61.5"/>
			<line class="st4" x1="138" y1="50.8" x2="172.5" y2="60"/>
			<line class="st4" x1="138.4" y1="49.3" x2="172.9" y2="58.5"/>
			<line class="st4" x1="138.8" y1="47.8" x2="173.3" y2="57.1"/>
			<line class="st4" x1="139.2" y1="46.3" x2="173.7" y2="55.6"/>
			<line class="st4" x1="139.6" y1="44.8" x2="174.1" y2="54.1"/>
			<line class="st4" x1="140" y1="43.4" x2="174.5" y2="52.6"/>
			<line class="st4" x1="140.4" y1="41.9" x2="174.9" y2="51.1"/>
			<line class="st4" x1="140.8" y1="40.4" x2="175.3" y2="49.6"/>
			<line class="st4" x1="141.2" y1="38.9" x2="175.7" y2="48.2"/>
			<line class="st4" x1="141.6" y1="37.4" x2="176.1" y2="46.7"/>
			<line class="st4" x1="142" y1="36" x2="176.5" y2="45.2"/>
			<line class="st4" x1="142.4" y1="34.5" x2="176.9" y2="43.7"/>
			<line class="st4" x1="142.8" y1="33" x2="177.3" y2="42.2"/>
			<line class="st4" x1="143.2" y1="31.5" x2="177.7" y2="40.7"/>
			<line class="st4" x1="143.6" y1="30" x2="178.1" y2="39.3"/>
		</g>
		<line id="Neck_ring_1_" class="st5" x1="150.1" y1="38.8" x2="164.4" y2="63.6"/>
		<line id="Neck_ring_2_" class="st5" x1="151.2" y1="38.1" x2="165.5" y2="62.9"/>
		<use xlink:href="#SVGID_1_"  style="overflow:visible;fill:none;stroke:#616161;stroke-width:0.5;stroke-miterlimit:10;"/>
	</g>
	<path id="cord_relief_1_" class="st6" d="M79.8,98c2.5-3.5,4.6-4.7,5.5-5.2"/>
	<path id="Switch" class="st7" d="M126.9,57.8l-4.2,3.1c-0.4,0.3-1.1,0.2-1.4-0.2l0,0c-0.3-0.4-0.2-1.1,0.2-1.4l4.2-3.1
		c0.4-0.3,1.1-0.2,1.4,0.2v0C127.5,56.8,127.4,57.5,126.9,57.8z"/>
	<g id="Microphone_Body">
		<defs>
			<polygon id="SVGID_3_" points="138.9,47.4 82.9,88.9 87.2,96.5 151.3,68.8 			"/>
		</defs>
		<use xlink:href="#SVGID_3_"  style="overflow:visible;fill:#616161;"/>
		<clipPath id="SVGID_4_">
			<use xlink:href="#SVGID_3_"  style="overflow:visible;"/>
		</clipPath>
		<line id="Neck_ring" class="st8" x1="138.9" y1="47.2" x2="151.4" y2="68.9"/>
		<polyline id="Neck_ring_3_" class="st9" points="134.2,49.1 141.1,61.1 147.6,72.3 		"/>
		<line id="Neck_ring_4_" class="st9" x1="135.2" y1="47.4" x2="149.5" y2="72.2"/>
		<line id="Neck_ring_5_" class="st10" x1="84.3" y1="87" x2="89.6" y2="96.3"/>
		<line id="Neck_ring_6_" class="st10" x1="85.5" y1="86.3" x2="90.8" y2="95.6"/>
		<polygon class="st11" points="138.9,47.4 82.9,88.9 83.5,90.1 84.1,91.1 146,59.6 		"/>
	</g>
	<path class="st12" d="M85.3,92.8c0,0-8.8,4.8-8.8,15.3v6"/>
	<rect x="114.8" y="83.3" class="st7" width="9.2" height="30.9"/>
	<polygon class="st13" points="120.3,83.3 114.8,83.3 114.8,114.1 117,114.1 	"/>
	<path class="st7" d="M133,72c-0.6-1.8-0.6-1.8-2.1-4.5c-1.5-2.8-3-4.8-3-4.8c-1.3-1.8-4.1-2-6.3-0.5l-19.1,13.4
		c-2.2,1.5-2.2,3.9-1.7,6.1c0.7,1.7,0.8,2.1,1.4,3.1s1.6,2.4,1.6,2.4c1.3,1.8,1.3,1.8,2.4,2.1C108,89,131.7,78.4,133.6,77
		C134,76.3,133.6,73.8,133,72z"/>
	<path class="st13" d="M127.8,62.7c-1.3-1.8-4.1-2-6.3-0.5l-19.1,13.4c-2.2,1.5-2.2,3.9-1.7,6.1c0,0,0,0,0,0l29.6-15
		C129.1,64.3,127.8,62.7,127.8,62.7z"/>
	<circle class="st14" cx="119.4" cy="83.3" r="6.4"/>
	<circle class="st15" cx="119.4" cy="83.3" r="0.8"/>
	<path class="st16" d="M114.5,82.7c0-2.5,2-4.5,4.5-4.5"/>
</g>
</svg>
