<?xml version="1.0" encoding="windows-1252"?>
<!-- Generator: Adobe Illustrator 21.1.0, SVG Export Plug-In . SVG Version: 6.00 Build 0)  -->
<svg version="1.1" id="Layer_1" xmlns="http://www.w3.org/2000/svg" xmlns:xlink="http://www.w3.org/1999/xlink" x="0px" y="0px" width="792px" height="576px" viewBox="0 0 792 576" style="enable-background:new 0 0 792 576;" xml:space="preserve">
<g>
	<path d="M136.09,347.95c0-12.16-0.04-24.33,0.01-36.49c0.13-31.84,2.15-63.58,4.55-95.32c2.09-27.6,5.2-55.05,10.28-82.27   c2.29-12.29,4.75-24.56,9.34-36.24c1.63-4.16,3.53-8.32,5.96-12.05c3.63-5.56,8.63-9.5,15.81-8.46c7.15,1.02,11.2,6.04,12.87,12.47   c1.91,7.38,3.55,14.98,3.97,22.56c0.91,16.29,0.96,32.62,1.4,48.94c0.06,2.09,0.06,6.28,0.56,6.26s2.34-3.41,3.21-5.26   c9.73-20.7,20.39-40.85,34.8-58.78c12.68-15.79,27.38-29.2,46-37.63c23.41-10.6,46.79-10.94,69.69,1.59   c15.17,8.29,25.57,21.08,33.06,36.42c8.17,16.73,11.07,34.43,9.84,52.93c-1.98,29.93-12.28,57.17-26.95,82.93   c-11.26,19.77-24.45,38.15-40.77,54.13c-11.74,11.5-24.62,21.45-39.89,27.93c-11.13,4.73-23.11,7.95-35.04,9.55   c-12.89,1.73-25.51,2.73-38.54,1.03c-3.12-0.41-6.19-1.22-9.28-1.9c-2.84-0.62-3.27-0.43-3.22,2.55   c0.11,7.33,0.29,14.66,0.57,21.99c0.44,11.32,0.91,22.64,1.51,33.95c1.76,33.27,3.58,66.53,5.42,99.79   c0.49,8.81,1.3,17.61,1.59,26.43c0.14,4.12-0.11,8.39-1.02,12.4c-2.92,12.84-10.75,21.49-23.76,24.19   c-12.92,2.68-23.62-1.95-31.74-12.28c-3.76-4.78-5.99-10.37-7.52-16.22c-3.52-13.41-5.72-27.09-6.72-40.88   c-1.73-23.92-3.13-47.86-4.26-71.82c-0.98-20.8-1.4-41.62-2.06-62.43C135.87,347.95,135.98,347.95,136.09,347.95z M350.96,140.59   c-0.07-10.51-1.92-20.76-7.25-30.12c-5.86-10.3-14.87-15.41-26.68-15.49c-7.9-0.06-15.02,2.69-21.73,6.58   c-8.14,4.71-15.21,10.74-21.54,17.67c-8.02,8.77-14.7,18.51-20.69,28.73c-24.99,42.59-40.36,86.24-48.93,134.69   c-0.92,5.22-1,12.99-1.41,18.29c-0.15,1.95,0.57,2.71,2.67,2.1c12.07-2.22,22.85-5.17,34.46-9.18   c12.6-3.85,23.71-11.25,33.73-19.82c15.81-13.52,29.13-29.24,41.26-46c11.36-15.69,21.38-32.17,28.35-50.35   C347.75,165.78,350.72,153.55,350.96,140.59z"/>
	<path d="M498.71,377.92c-0.37-27.23,6.05-55.03,20.34-80.84c11.28-20.36,26.24-37.37,46.86-48.7c23.64-12.99,47.5-12.49,71.21-0.02   c5.91,3.11,6.27,5.04,7.22-3.62c3.34-30.32,7.67-60.49,14.48-90.26c6.76-29.58,15.87-56.84,29.31-83.94   c5.43-10.95,14.08-21.83,23.16-30.21c8.09-7.47,17.23-13.09,28.04-15.69c14.26-3.44,25.33,1.59,32.09,14.61   c3.67,7.08,5.24,14.71,5.64,22.62c0.71,13.95-1.49,27.59-4.53,41.11c-5.62,24.97-14.52,48.84-24.67,72.27   c-13.57,31.35-27.68,62.46-43.08,92.96c-1.93,3.83-2.98,7.68-2.67,11.99c1.55,21.27,2.82,42.55,4.57,63.8   c1.49,18.09,3.55,36.14,5.3,54.22c2.89,29.85,5.8,59.69,8.54,89.55c0.53,5.79,0.7,11.66,0.42,17.47   c-0.4,8.21-3.68,15.02-11.96,17.95c-8.11,2.87-15.19,0.3-20.9-5.69c-2.84-2.98-5.38-6.42-7.32-10.05   c-4.6-6.74-9.13-15.25-11.36-21.58c-7.3-15.5-14.44-43.55-14.44-43.55s-9.07-36.9-10.93-54.99c-0.12-1.16-0.17-2.33-0.29-3.49   c-0.03-0.31,0-0.63-0.32-0.86c-0.51-0.4-1.05,0.14-1.27,0.45c-0.79,1.07-1.47,2.22-2.15,3.36c-7.54,12.77-14.91,25.64-22.63,38.3   c-7.47,12.25-15.52,24.14-25.98,34.11c-3.84,3.66-7.95,7.17-12.37,10.08c-17.91,11.78-37.49,9.89-53.05-4.91   c-9-8.56-15.08-19-19.24-30.62C501.3,418.58,498.73,401.29,498.71,377.92z M552.81,392.13c-0.12,11.3,0.07,21.24,2.8,31.29   c0.87,3.19,1.33,4.96,3.04,8.37c1.48,2.96,4.36,3.81,6.22,2.52c2.73-1.9,4.8-3.54,6.98-5.96c5.57-6.17,11.3-12.31,15.98-19.14   c19.06-27.81,34.9-57.53,51-87.09c1.15-2.12,1.79-4.7,1.97-7.12c0.32-4.48,0.05-8.99,0.17-13.49c0.07-2.44-0.86-4.11-2.9-5.37   c-5.71-3.51-11.65-6.46-18.15-8.22c-6.31-1.7-12.53-1.36-18.69,0.74c-5.8,1.98-10.68,5.42-15.01,9.65   c-8.71,8.51-14.99,18.68-19.99,29.68C556.84,348.66,552.59,370.41,552.81,392.13z M749.41,68.5c0.25-3.97-0.14-7.88-0.92-11.78   c-0.8-4.02-3.74-4.85-7.04-2.6c-5.61,3.83-8.7,9.25-11.64,15.32c-3.91,8.08-7.63,16.3-10.7,24.73   c-11.65,32.03-14.78,65.52-16.26,99.24c-0.02,0.5-0.01,1.09,0.03,1.49c0.04,0.43,0.21,1.06,0.54,1.11   c0.33,0.05,0.63-0.33,0.78-0.58c0.51-0.86,0.98-1.74,1.41-2.64c5.57-11.93,11.22-23.82,16.68-35.8   c8.23-18.06,15.71-36.41,21.17-55.53C746.53,90.7,748.82,79.79,749.41,68.5z"/>
	<path d="M469.85,338.06c-0.1,24.53,1.31,48.96,5.17,73.2c1.92,12.07,5.39,23.7,10.54,34.81c1.56,3.36,3.58,6.27,6.47,8.74   c6.09,5.2,6.26,12.7,0.61,18.38c-4.8,4.83-10.72,5.78-17.11,4.41c-5.71-1.22-10.4-4.36-14.58-8.32   c-6.73-6.38-11.72-14.04-16.22-22.06c-11.99-21.41-19.25-44.23-20.52-68.83c-0.04-0.83-0.04-1.67-0.18-2.49   c-0.06-0.36-0.17-0.98-0.65-1c-0.28-0.01-0.6,0.37-0.73,0.63c-0.86,1.8-1.69,3.62-2.48,5.45c-8.39,19.29-17.78,38.03-30.69,54.8   c-5.6,7.28-11.6,14.18-18.71,20.05c-4.4,3.63-9.1,6.74-14.49,8.71c-13.74,5.04-27.17,1.15-36.12-10.46   c-6.07-7.87-9.26-17-10.71-26.63c-5.71-37.8,1.06-72.96,23.12-104.64c6.43-9.24,14.33-17.08,23.88-23.17   c22.15-14.12,47.25-13,68.04,3.06c4.04,3.12,4.03,3.12,5.13-2.13c1-4.73,1.95-9.46,3.06-14.16c0.5-2.09,1.15-4.2,2.08-6.13   c5.51-11.46,19.58-13.51,28.26-4.19c3.69,3.96,5.38,8.81,5.9,14.03c0.52,5.13,0.75,10.3,0.89,15.46c0.15,5.49,0.04,11,0.04,16.49   C469.85,327.39,469.85,332.73,469.85,338.06z M351.1,421.75c0,2.99-0.16,5.99,0.05,8.97c0.16,2.24,1.02,2.76,2.93,1.53   c4.46-2.87,9-5.72,13.04-9.14c10.27-8.69,18.16-19.4,24.92-30.95c7.58-12.94,13.33-25.69,19.21-39.46   c3.98-9.33,0.83-11.58-5.98-15.2c-7.88-4.19-16-2.81-23.2,3.78c-4.96,4.54-9.09,9.7-12.5,15.46   C357.72,376.8,351.83,398.57,351.1,421.75z"/>
	<path d="M78.31,331.68c0.5,9.18,1.08,18.35,1.81,27.51c1.43,17.92,4.16,35.73,6.35,53.59c0.9,7.32-0.04,14.3-3.67,20.8   c-5.39,9.65-14.83,12.09-24.19,6.28c-6.04-3.75-10.35-9.08-12.62-15.68c-3.63-10.54-7.03-21.18-9.95-31.94   c-6.34-23.36-10.16-47.21-13.03-71.22c-1.5-12.57-3.16-25.13-4.38-37.72c-2.01-20.67-1.43-41.27,2.56-61.7   c1.48-7.56,3.9-14.81,8.12-21.37c10.2-15.86,27.32-15.97,37.73-0.23c4.61,6.98,6.64,14.86,7.95,22.97   c2,12.38,2.34,24.86,2.18,37.37c-0.12,9.49-0.05,23.71-0.02,28.49S77.53,317.42,78.31,331.68z"/>
	<path d="M74.34,129.4c-0.08,10.52-8.3,18.66-18.8,18.59c-10.58-0.07-18.81-8.63-18.62-19.37c0.17-10.11,8.54-18.4,18.59-18.42   C66.09,110.19,74.42,118.68,74.34,129.4z"/>
</g>
</svg>