<?xml version="1.0" encoding="utf-8"?>
<!-- Generator: Adobe Illustrator 19.1.0, SVG Export Plug-In . SVG Version: 6.00 Build 0)  -->
<svg version="1.1" id="Layer_1" xmlns="http://www.w3.org/2000/svg" xmlns:xlink="http://www.w3.org/1999/xlink" x="0px" y="0px"
	 viewBox="0 0 550 309" style="enable-background:new 0 0 550 309;" xml:space="preserve">
<style type="text/css">
	.st0{fill:#785555;}
	.st1{fill:#FAFAFA;}
	.st2{fill:#CFD8DC;}
	.st3{fill:#E0E0E0;}
</style>
<rect x="0" y="0" class="st0" width="550" height="309"/>
<g>
	<g>
		
			<image style="overflow:visible;opacity:0.75;" width="1071" height="1251" xlink:href="3EFC2443.png"  transform="matrix(0.24 0 0 0.24 122.41 9.033)">
		</image>
		<g>
			
				<rect x="153.3" y="33.4" transform="matrix(0.9775 -0.2109 0.2109 0.9775 -27.5248 56.018)" class="st1" width="191.1" height="247.3"/>
		</g>
	</g>
	
		<rect x="145.2" y="46.3" transform="matrix(0.9775 -0.2109 0.2109 0.9775 -5.8588 48.8693)" class="st2" width="162" height="11.2"/>
	
		<rect x="148.5" y="65.1" transform="matrix(0.9775 -0.2109 0.2109 0.9775 -8.9971 49.9048)" class="st3" width="162" height="4.1"/>
	<rect x="150" y="72.2" transform="matrix(0.9775 -0.2109 0.2109 0.9775 -10.4655 50.3893)" class="st3" width="162" height="4.1"/>
	<rect x="150" y="72.2" transform="matrix(0.9775 -0.2109 0.2109 0.9775 -10.4655 50.3893)" class="st3" width="162" height="4.1"/>
	
		<rect x="151.6" y="79.4" transform="matrix(0.9775 -0.2109 0.2109 0.9775 -11.934 50.8738)" class="st3" width="162" height="4.1"/>
	
		<rect x="153.1" y="86.5" transform="matrix(0.9775 -0.2109 0.2109 0.9775 -13.4025 51.3583)" class="st3" width="162" height="4.1"/>
	
		<rect x="154.6" y="93.6" transform="matrix(0.9775 -0.2109 0.2109 0.9775 -14.8709 51.8428)" class="st3" width="162" height="4.1"/>
	
		<rect x="156.2" y="100.7" transform="matrix(0.9775 -0.2109 0.2109 0.9775 -16.3394 52.3273)" class="st3" width="162" height="4.1"/>
	
		<rect x="157.7" y="107.9" transform="matrix(0.9775 -0.2109 0.2109 0.9775 -17.8078 52.8119)" class="st3" width="162" height="4.1"/>
	
		<rect x="239.4" y="106.5" transform="matrix(0.9775 -0.2109 0.2109 0.9775 -16.5852 61.4526)" class="st3" width="81" height="4.1"/>
	
		<rect x="240.9" y="113.6" transform="matrix(0.9775 -0.2109 0.2109 0.9775 -18.0536 61.9371)" class="st3" width="81" height="4.1"/>
	
		<rect x="242.4" y="120.7" transform="matrix(0.9775 -0.2109 0.2109 0.9775 -19.5221 62.4216)" class="st3" width="81" height="4.1"/>
	<rect x="244" y="127.8" transform="matrix(0.9775 -0.2109 0.2109 0.9775 -20.9905 62.9062)" class="st3" width="81" height="4.1"/>
	<rect x="245.5" y="135" transform="matrix(0.9775 -0.2109 0.2109 0.9775 -22.459 63.3907)" class="st3" width="81" height="4.1"/>
	<rect x="247" y="142.1" transform="matrix(0.9775 -0.2109 0.2109 0.9775 -23.9275 63.8752)" class="st3" width="81" height="4.1"/>
	
		<rect x="248.6" y="149.2" transform="matrix(0.9775 -0.2109 0.2109 0.9775 -25.3959 64.3597)" class="st3" width="81" height="4.1"/>
	<rect x="170" y="164.9" transform="matrix(0.9775 -0.2109 0.2109 0.9775 -29.5555 56.688)" class="st3" width="162" height="4.1"/>
	<rect x="171.6" y="172" transform="matrix(0.9775 -0.2109 0.2109 0.9775 -31.024 57.1725)" class="st3" width="162" height="4.1"/>
	
		<rect x="173.1" y="179.1" transform="matrix(0.9775 -0.2109 0.2109 0.9775 -32.4924 57.657)" class="st3" width="162" height="4.1"/>
	
		<rect x="174.6" y="186.3" transform="matrix(0.9775 -0.2109 0.2109 0.9775 -33.9609 58.1415)" class="st3" width="162" height="4.1"/>
	
		<rect x="176.2" y="193.4" transform="matrix(0.9775 -0.2109 0.2109 0.9775 -35.4294 58.626)" class="st3" width="162" height="4.1"/>
	
		<rect x="177.7" y="200.5" transform="matrix(0.9775 -0.2109 0.2109 0.9775 -36.8978 59.1106)" class="st3" width="162" height="4.1"/>
	
		<rect x="179.3" y="207.7" transform="matrix(0.9775 -0.2109 0.2109 0.9775 -38.3663 59.5951)" class="st3" width="162" height="4.1"/>
	
		<rect x="180.8" y="214.8" transform="matrix(0.9775 -0.2109 0.2109 0.9775 -39.8347 60.0796)" class="st3" width="162" height="4.1"/>
	
		<rect x="182.3" y="221.9" transform="matrix(0.9775 -0.2109 0.2109 0.9775 -41.3032 60.5641)" class="st3" width="162" height="4.1"/>
	
		<rect x="183.9" y="229" transform="matrix(0.9775 -0.2109 0.2109 0.9775 -42.7717 61.0486)" class="st3" width="162" height="4.1"/>
	
		<rect x="185.4" y="236.2" transform="matrix(0.9775 -0.2109 0.2109 0.9775 -44.2401 61.5331)" class="st3" width="162" height="4.1"/>
	
		<rect x="186.9" y="243.3" transform="matrix(0.9775 -0.2109 0.2109 0.9775 -45.7086 62.0177)" class="st3" width="162" height="4.1"/>
	
		<rect x="188.5" y="250.4" transform="matrix(0.9775 -0.2109 0.2109 0.9775 -47.177 62.5022)" class="st3" width="162" height="4.1"/>
	
		<rect x="190" y="257.5" transform="matrix(0.9775 -0.2109 0.2109 0.9775 -48.6455 62.9867)" class="st3" width="162" height="4.1"/>
	
		<rect x="191.6" y="264.7" transform="matrix(0.9775 -0.2109 0.2109 0.9775 -50.114 63.4712)" class="st3" width="162" height="4.1"/>
	
		<rect x="164.8" y="123.4" transform="matrix(0.9775 -0.2109 0.2109 0.9775 -26.4891 46.2412)" class="st3" width="77.5" height="47.8"/>
</g>
<g>
	<g>
		
			<image style="overflow:visible;opacity:0.75;" width="1071" height="1251" xlink:href="3EFC2441.png"  transform="matrix(0.24 0 0 0.24 174.5644 9.4573)">
		</image>
		<g>
			
				<rect x="205.5" y="33.8" transform="matrix(0.9775 0.2108 -0.2108 0.9775 39.9657 -59.9244)" class="st1" width="191.1" height="247.3"/>
		</g>
	</g>
	
		<rect x="242.7" y="46.7" transform="matrix(0.9775 0.2108 -0.2108 0.9775 18.3055 -67.0688)" class="st2" width="162" height="11.2"/>
	<rect x="239.4" y="65.5" transform="matrix(0.9775 0.2108 -0.2108 0.9775 21.443 -66.034)" class="st3" width="162" height="4.1"/>
	
		<rect x="237.9" y="72.6" transform="matrix(0.9775 0.2108 -0.2108 0.9775 22.911 -65.5497)" class="st3" width="162" height="4.1"/>
	
		<rect x="237.9" y="72.6" transform="matrix(0.9775 0.2108 -0.2108 0.9775 22.911 -65.5497)" class="st3" width="162" height="4.1"/>
	
		<rect x="236.4" y="79.8" transform="matrix(0.9775 0.2108 -0.2108 0.9775 24.3791 -65.0655)" class="st3" width="162" height="4.1"/>
	
		<rect x="234.8" y="86.9" transform="matrix(0.9775 0.2108 -0.2108 0.9775 25.8472 -64.5813)" class="st3" width="162" height="4.1"/>
	<rect x="233.3" y="94" transform="matrix(0.9775 0.2108 -0.2108 0.9775 27.3152 -64.097)" class="st3" width="162" height="4.1"/>
	
		<rect x="231.8" y="101.2" transform="matrix(0.9775 0.2108 -0.2108 0.9775 28.7833 -63.6128)" class="st3" width="162" height="4.1"/>
	
		<rect x="230.2" y="108.3" transform="matrix(0.9775 0.2108 -0.2108 0.9775 30.2513 -63.1286)" class="st3" width="162" height="4.1"/>
	
		<rect x="308.8" y="123.9" transform="matrix(0.9775 0.2108 -0.2108 0.9775 34.4089 -70.7984)" class="st3" width="81" height="4.1"/>
	
		<rect x="307.2" y="131.1" transform="matrix(0.9775 0.2108 -0.2108 0.9775 35.877 -70.3142)" class="st3" width="81" height="4.1"/>
	
		<rect x="305.7" y="138.2" transform="matrix(0.9775 0.2108 -0.2108 0.9775 37.3451 -69.8299)" class="st3" width="81" height="4.1"/>
	
		<rect x="304.2" y="145.3" transform="matrix(0.9775 0.2108 -0.2108 0.9775 38.8131 -69.3457)" class="st3" width="81" height="4.1"/>
	
		<rect x="302.6" y="152.5" transform="matrix(0.9775 0.2108 -0.2108 0.9775 40.2812 -68.8615)" class="st3" width="81" height="4.1"/>
	
		<rect x="301.1" y="159.6" transform="matrix(0.9775 0.2108 -0.2108 0.9775 41.7493 -68.3773)" class="st3" width="81" height="4.1"/>
	
		<rect x="299.5" y="166.7" transform="matrix(0.9775 0.2108 -0.2108 0.9775 43.2173 -67.893)" class="st3" width="81" height="4.1"/>
	
		<rect x="217.9" y="165.3" transform="matrix(0.9775 0.2108 -0.2108 0.9775 41.9958 -59.2548)" class="st3" width="162" height="4.1"/>
	
		<rect x="216.4" y="172.4" transform="matrix(0.9775 0.2108 -0.2108 0.9775 43.4639 -58.7705)" class="st3" width="162" height="4.1"/>
	
		<rect x="214.8" y="179.6" transform="matrix(0.9775 0.2108 -0.2108 0.9775 44.932 -58.2863)" class="st3" width="162" height="4.1"/>
	<rect x="213.3" y="186.7" transform="matrix(0.9775 0.2108 -0.2108 0.9775 46.4 -57.8021)" class="st3" width="162" height="4.1"/>
	
		<rect x="211.8" y="193.8" transform="matrix(0.9775 0.2108 -0.2108 0.9775 47.8681 -57.3179)" class="st3" width="162" height="4.1"/>
	
		<rect x="210.2" y="200.9" transform="matrix(0.9775 0.2108 -0.2108 0.9775 49.3362 -56.8336)" class="st3" width="162" height="4.1"/>
	
		<rect x="208.7" y="208.1" transform="matrix(0.9775 0.2108 -0.2108 0.9775 50.8042 -56.3494)" class="st3" width="162" height="4.1"/>
	
		<rect x="207.2" y="215.2" transform="matrix(0.9775 0.2108 -0.2108 0.9775 52.2723 -55.8652)" class="st3" width="162" height="4.1"/>
	
		<rect x="205.6" y="222.3" transform="matrix(0.9775 0.2108 -0.2108 0.9775 53.7403 -55.381)" class="st3" width="162" height="4.1"/>
	
		<rect x="204.1" y="229.5" transform="matrix(0.9775 0.2108 -0.2108 0.9775 55.2084 -54.8967)" class="st3" width="162" height="4.1"/>
	
		<rect x="202.6" y="236.6" transform="matrix(0.9775 0.2108 -0.2108 0.9775 56.6765 -54.4125)" class="st3" width="162" height="4.1"/>
	
		<rect x="201" y="243.7" transform="matrix(0.9775 0.2108 -0.2108 0.9775 58.1445 -53.9283)" class="st3" width="162" height="4.1"/>
	
		<rect x="199.5" y="250.8" transform="matrix(0.9775 0.2108 -0.2108 0.9775 59.6126 -53.444)" class="st3" width="162" height="4.1"/>
	
		<rect x="197.9" y="258" transform="matrix(0.9775 0.2108 -0.2108 0.9775 61.0807 -52.9598)" class="st3" width="162" height="4.1"/>
	
		<rect x="196.4" y="265.1" transform="matrix(0.9775 0.2108 -0.2108 0.9775 62.5487 -52.4756)" class="st3" width="162" height="4.1"/>
	
		<rect x="225" y="106" transform="matrix(0.9775 0.2108 -0.2108 0.9775 33.3178 -52.6853)" class="st3" width="77.5" height="47.8"/>
</g>
<g>
	<g>
		
			<image style="overflow:visible;opacity:0.75;" width="872" height="1106" xlink:href="3EFC2447.png"  transform="matrix(0.24 0 0 0.24 172.4394 23.8333)">
		</image>
		<g>
			<rect x="179.4" y="30.8" class="st1" width="191.1" height="247.3"/>
		</g>
	</g>
	<rect x="194" y="41.3" class="st2" width="162" height="11.2"/>
	<rect x="194" y="60.5" class="st3" width="162" height="4.1"/>
	<rect x="194" y="67.8" class="st3" width="162" height="4.1"/>
	<rect x="194" y="67.8" class="st3" width="162" height="4.1"/>
	<rect x="194" y="75" class="st3" width="162" height="4.1"/>
	<rect x="194" y="82.3" class="st3" width="162" height="4.1"/>
	<rect x="194" y="89.6" class="st3" width="162" height="4.1"/>
	<rect x="194" y="96.9" class="st3" width="162" height="4.1"/>
	<rect x="194" y="104.2" class="st3" width="162" height="4.1"/>
	<rect x="275" y="111.5" class="st3" width="81" height="4.1"/>
	<rect x="275" y="118.8" class="st3" width="81" height="4.1"/>
	<rect x="275" y="126.1" class="st3" width="81" height="4.1"/>
	<rect x="275" y="133.4" class="st3" width="81" height="4.1"/>
	<rect x="275" y="140.7" class="st3" width="81" height="4.1"/>
	<rect x="275" y="148" class="st3" width="81" height="4.1"/>
	<rect x="275" y="155.3" class="st3" width="81" height="4.1"/>
	<rect x="194" y="162.5" class="st3" width="162" height="4.1"/>
	<rect x="194" y="169.8" class="st3" width="162" height="4.1"/>
	<rect x="194" y="177.1" class="st3" width="162" height="4.1"/>
	<rect x="194" y="184.4" class="st3" width="162" height="4.1"/>
	<rect x="194" y="191.7" class="st3" width="162" height="4.1"/>
	<rect x="194" y="199" class="st3" width="162" height="4.1"/>
	<rect x="194" y="206.3" class="st3" width="162" height="4.1"/>
	<rect x="194" y="213.6" class="st3" width="162" height="4.1"/>
	<rect x="194" y="220.9" class="st3" width="162" height="4.1"/>
	<rect x="194" y="228.2" class="st3" width="162" height="4.1"/>
	<rect x="194" y="235.5" class="st3" width="162" height="4.1"/>
	<rect x="194" y="242.8" class="st3" width="162" height="4.1"/>
	<rect x="194" y="250" class="st3" width="162" height="4.1"/>
	<rect x="194" y="257.3" class="st3" width="162" height="4.1"/>
	<rect x="194" y="264.6" class="st3" width="162" height="4.1"/>
	<rect x="194" y="111.5" class="st3" width="77.5" height="47.8"/>
</g>
</svg>
