<?xml version="1.0" encoding="UTF-8"?><svg id="Layer_2" xmlns="http://www.w3.org/2000/svg" xmlns:xlink="http://www.w3.org/1999/xlink" viewBox="0 0 768 768"><defs><style>.cls-1{fill:#f5f5f5;}.cls-2{fill:#c5cae9;}.cls-3{clip-path:url(#clippath);}.cls-4{fill:#9575cd;}.cls-5{fill:none;}</style><clipPath id="clippath"><circle class="cls-5" cx="384" cy="384" r="384"/></clipPath></defs><g id="Reverse_Geocoding"><g class="cls-3"><circle class="cls-2" cx="384" cy="384" r="384"/><path class="cls-1" d="M621.59,814s168.6-32.29,272.63-198.49c0,0,117.18-168.6,51.42-382.64C879.88,18.83,676.6-93.57,494.84-89.99,313.09-86.4,125.36,42.74,67.96,235.26c-57.4,192.52,26.31,463.95,239.15,547.65l136.32-442.43s-172.19,120.77-200.89,108.81S176.77,127.64,467.34,73.83c115.99-20.33,251.11,32.29,324.05,136.32,57.38,94.71,90.88,202.08,51.42,343.18-62.18,198.49-221.21,260.67-221.21,260.67Z"/><path class="cls-4" d="M480,756s141-27,228-166c0,0,98-141,43-320S526-3,374,0,65,111,17,272s22,388,200,458l114-370s-144,101-168,91S108,182,351,137c97-17,210,27,271,114,47.99,79.2,76,169,43,287-52,166-185,218-185,218Z"/></g></g></svg>