<?xml version="1.0" encoding="utf-8"?>
<!-- Generator: Adobe Illustrator 21.0.2, SVG Export Plug-In . SVG Version: 6.00 Build 0)  -->
<svg version="1.1" id="Layer_1" xmlns="http://www.w3.org/2000/svg" xmlns:xlink="http://www.w3.org/1999/xlink" x="0px" y="0px"
	 viewBox="0 0 77.2 78.1" style="enable-background:new 0 0 77.2 78.1;" xml:space="preserve">
<style type="text/css">
	.st0{fill:#6E6E6E;}
</style>
<g>
	<path class="st0" d="M76.4,1.9c-1-1-2.6-1-3.5,0L39,35.5L4.4,0.8c-1-1-2.6-1-3.5,0c-1,1-1,2.6,0,3.5L35.5,39L0.8,73.9
		c-1,1-1,2.6,0,3.5c0.5,0.5,1.1,0.7,1.8,0.7s1.3-0.2,1.8-0.7l34.8-34.8l33.7,33.7c0.5,0.5,1.1,0.7,1.8,0.7s1.3-0.2,1.8-0.7
		c1-1,1-2.6,0-3.5L42.6,39L76.4,5.3C77.3,4.4,77.3,2.8,76.4,1.9z"/>
</g>
</svg>
