<svg height="512pt" viewBox="-25 0 512 512" width="512pt" xmlns="http://www.w3.org/2000/svg"><g fill-rule="evenodd"><path d="m255.996094 43.160156v458.839844h-49.605469v-458.839844l24.804687-33.160156zm0 0" fill="#ffdda3"/><path d="m255.996094 104.457031h176.007812l20.382813 38.734375-20.382813 38.734375h-176.007812zm0 0" fill="#a0e557"/><path d="m255.996094 219.980469h176.007812l20.382813 38.734375-20.382813 38.734375h-176.007812zm0 0" fill="#39ddd2"/><path d="m206.390625 162.21875h-176.007813l-20.382812 38.734375 20.382812 38.734375h176.007813zm0 0" fill="#ff5d5d"/><path d="m440.851562 215.324219c-1.730468-3.289063-5.136718-5.34375-8.847656-5.34375h-166.007812v-18.054688h166.007812c3.710938 0 7.117188-2.058593 8.847656-5.34375l20.386719-38.734375c1.535157-2.914062 1.535157-6.398437 0-9.3125l-20.386719-38.734375c-1.730468-3.285156-5.136718-5.34375-8.847656-5.34375h-166.007812v-51.296875c0-2.15625-.699219-4.257812-1.992188-5.988281l-24.800781-33.160156c-1.890625-2.527344-4.859375-4.011719-8.007813-4.011719-3.152343 0-6.121093 1.484375-8.011718 4.011719l-24.800782 33.160156c-1.292968 1.730469-1.992187 3.832031-1.992187 5.988281v109.058594h-166.007813c-3.710937 0-7.117187 2.058594-8.847656 5.34375l-20.382812 38.734375c-1.535156 2.914063-1.535156 6.398437 0 9.3125l20.382812 38.734375c1.730469 3.289062 5.136719 5.34375 8.847656 5.34375h166.007813v111.910156c0 5.523438 4.476563 10 10 10s10-4.476562 10-10v-315.109375l14.804687-19.792969 14.800782 19.792969v445.511719h-29.605469v-50.402344c0-5.519531-4.476563-10-10-10s-10 4.480469-10 10v50.402344h-68.65625c-5.523437 0-10 4.476562-10 10s4.476563 10 10 10h206.921875c5.519531 0 10-4.476562 10-10s-4.480469-10-10-10h-68.660156v-184.550781h166.007812c3.710938 0 7.117188-2.058594 8.847656-5.34375l20.386719-38.734375c1.535157-2.914063 1.535157-6.398438 0-9.3125zm-404.429687 14.363281-15.121094-28.734375 15.121094-28.730469h159.96875v57.46875h-159.96875zm389.542969-115.230469 15.121094 28.734375-15.121094 28.734375h-159.96875v-57.46875zm0 172.992188h-159.96875v-57.46875h159.96875l15.121094 28.734375zm0 0"/><path d="m206.390625 411.597656c5.507813 0 10-4.492187 10-10 0-5.507812-4.492187-10-10-10s-10 4.492188-10 10c0 5.507813 4.492187 10 10 10zm0 0"/></g></svg>