<?xml version="1.0" encoding="utf-8"?>
<!-- Generator: Adobe Illustrator 22.1.0, SVG Export Plug-In . SVG Version: 6.00 Build 0)  -->
<svg version="1.1" id="Layer_1" xmlns="http://www.w3.org/2000/svg" xmlns:xlink="http://www.w3.org/1999/xlink" x="0px" y="0px"
	 viewBox="0 0 512 512" style="enable-background:new 0 0 512 512;" xml:space="preserve">
<style type="text/css">
	.st0{fill:#7F5353;}
	.st1{fill:#FFFFFF;}
</style>
<g>
	<path class="st0" d="M289.2,174.4c21.9,8.9,39.5,26.5,48.4,48.4l41.4,8.4L502,256l-123,24.9l-41.4,8.4
		c-8.9,21.9-26.5,39.5-48.4,48.4l-8.4,41.4L256,502l-24.9-123l-8.4-41.4c-21.9-8.9-39.5-26.5-48.4-48.4l-41.4-8.4L10,256l123-24.9
		l41.4-8.4c8.9-21.9,26.5-39.5,48.4-48.4l8.4-41.4L256,10l24.9,123L289.2,174.4z"/>
	<path class="st1" d="M256,296.1c22.1,0,40.1-18,40.1-40.1s-18-40.1-40.1-40.1s-40.1,18-40.1,40.1S233.9,296.1,256,296.1z"/>
	<path d="M504,246.2L344.7,214c-9.7-20.4-26.3-37-46.7-46.7L265.8,8c-0.9-4.7-5-8-9.8-8s-8.9,3.4-9.8,8L214,167.3
		c-20.4,9.7-37,26.3-46.7,46.7L8,246.2c-4.7,0.9-8,5-8,9.8s3.4,8.9,8,9.8L167.3,298c9.7,20.4,26.3,37,46.7,46.7L246.2,504
		c0.9,4.7,5,8,9.8,8s8.9-3.4,9.8-8L298,344.7c20.4-9.7,37-26.3,46.7-46.7L504,265.8c4.7-0.9,8-5,8-9.8
		C512,251.2,508.6,247.1,504,246.2z M335.6,279.4c-3.3,0.7-6,2.9-7.3,6c-7.9,19.4-23.5,35-42.9,42.9c-3.1,1.3-5.4,4-6,7.3L256,451.5
		l-23.4-115.9c-0.7-3.3-2.9-6-6-7.3c-19.4-7.9-35-23.5-42.9-42.9c-1.3-3.1-4-5.4-7.3-6L60.5,256l115.9-23.4c3.3-0.7,6-2.9,7.3-6
		c7.9-19.4,23.5-35,42.9-42.9c3.1-1.3,5.4-4,6-7.3L256,60.5l23.4,115.9c0.7,3.3,2.9,6,6,7.3c19.4,7.9,35,23.5,42.9,42.9
		c1.3,3.1,4,5.4,7.3,6L451.5,256L335.6,279.4z"/>
	<path d="M256,205.9c-27.6,0-50.1,22.5-50.1,50.1s22.5,50.1,50.1,50.1s50.1-22.5,50.1-50.1S283.6,205.9,256,205.9z M256,286.1
		c-16.6,0-30.1-13.5-30.1-30.1s13.5-30.1,30.1-30.1c16.6,0,30.1,13.5,30.1,30.1S272.6,286.1,256,286.1z"/>
	<path d="M97.6,305.5c-1.6-5.3-7.3-8.2-12.5-6.6c-5.3,1.6-8.2,7.3-6.6,12.5c4.7,15.1,11.3,29.5,19.7,42.9c1.9,3,5.2,4.7,8.5,4.7
		c1.8,0,3.6-0.5,5.3-1.5c4.7-2.9,6.1-9.1,3.2-13.8C107.7,331.8,101.8,318.9,97.6,305.5z"/>
	<path d="M85.1,213.1c1,0.3,2,0.5,3,0.5c4.3,0,8.2-2.7,9.5-7c16.2-52,56.9-92.7,108.9-108.9c5.3-1.6,8.2-7.3,6.6-12.5
		c-1.6-5.3-7.3-8.2-12.5-6.6C142.3,96.7,96.7,142.3,78.5,200.6C76.9,205.8,79.8,211.4,85.1,213.1z"/>
	<path d="M414.4,206.5c1.3,4.3,5.3,7,9.5,7c1,0,2-0.1,3-0.5c5.3-1.6,8.2-7.3,6.6-12.5c-4.7-15.1-11.3-29.5-19.7-42.9
		c-2.9-4.7-9.1-6.1-13.8-3.2c-4.7,2.9-6.1,9.1-3.2,13.8C404.3,180.2,410.2,193.1,414.4,206.5z"/>
	<path d="M305.5,97.6c13.4,4.2,26.3,10.1,38.3,17.6c1.6,1,3.5,1.5,5.3,1.5c3.3,0,6.6-1.7,8.5-4.7c2.9-4.7,1.5-10.9-3.2-13.8
		c-13.4-8.4-27.9-15-42.9-19.7c-5.3-1.6-10.9,1.3-12.5,6.6C297.3,90.3,300.2,96,305.5,97.6z"/>
	<path d="M206.5,414.4c-13.4-4.2-26.3-10.1-38.3-17.6c-4.7-2.9-10.9-1.5-13.8,3.2c-2.9,4.7-1.5,10.9,3.2,13.8
		c13.4,8.4,27.9,15,43,19.7c1,0.3,2,0.5,3,0.5c4.3,0,8.2-2.7,9.5-7C214.7,421.7,211.8,416.1,206.5,414.4z"/>
	<path d="M426.9,298.9c-5.3-1.6-10.9,1.3-12.5,6.6c-16.2,52-56.9,92.7-108.9,108.9c-5.3,1.6-8.2,7.3-6.6,12.5c1.3,4.3,5.3,7,9.5,7
		c1,0,2-0.1,3-0.5c58.3-18.2,103.9-63.8,122.1-122.1C435.1,306.2,432.2,300.6,426.9,298.9z"/>
	<path d="M131.6,370.4c-5.5,0-10,4.5-10,10s4.5,10,10,10s10-4.5,10-10S137.1,370.4,131.6,370.4z"/>
	<path d="M380.4,141.6c5.5,0,10-4.5,10-10s-4.5-10-10-10s-10,4.5-10,10S374.9,141.6,380.4,141.6z"/>
</g>
</svg>
