<?xml version="1.0" encoding="iso-8859-1"?>
<!-- Generator: Adobe Illustrator 19.0.0, SVG Export Plug-In . SVG Version: 6.00 Build 0)  -->
<svg version="1.1" id="Capa_1" xmlns="http://www.w3.org/2000/svg" xmlns:xlink="http://www.w3.org/1999/xlink" x="0px" y="0px"
	 viewBox="0 0 512.001 512.001" style="enable-background:new 0 0 512.001 512.001;" xml:space="preserve">
<g>
	<path style="fill:#F7CF9C;" d="M237.581,314.095h-6.299c1.715,0-1.643-0.047,7.693-0.104c10.86,0,19.664-8.804,19.664-19.664
		c0-10.86-8.804-19.664-19.664-19.664h-21.146c-5.466,0-11.892,0-18.133,0c-6.866,0-13.512,0-18.418,0
		c-2.692,0-4.345-2.964-2.913-5.244c18.436-29.363,19.324-61.33,18.819-70.669c-1.172-21.7-24.974-29.864-35.416-10.713
		c-3.178,5.828-4.259,13.124-5.446,20.823c-2.819,11.836-11.725,34.338-39.506,47.311c-8.054,2.53-16.194,6.768-23.406,12.167
		c-4.733,3.543-8.478,8.241-11.014,13.582l0,0c-3.686,7.76-11.511,12.706-20.102,12.706h-18.22c0.254,1.336,0.392,2.713,0.392,4.122
		c-0.148,112.968,0.353,108.175-0.416,112.093c17.243,1.12,30.654-3.498,44.997,7.136c12.913,9.575,28.704,14.413,42.218,14.413
		h54.569v-0.001c2.49,0,43.055,0,41.314,0c16.417,0,25.154-17.432,17.096-30.211c-2.679-4.252-7.001-7.507-12.246-8.712
		c-3.041-0.699-7.754-0.509-0.714-0.509c3.527,0,6.864-0.93,9.778-2.598c17.54-10.043,10.264-36.832-9.777-36.833
		c7.043,0,14.352,0.925,21.054-6.2c3.599-3.818,5.442-8.794,5.361-13.795C257.688,332.729,249.092,314.095,237.581,314.095z"/>
	<path style="fill:#F7CF9C;" d="M274.419,197.906h6.299c-1.113,0,1.651,0.047-7.693,0.104c-10.86,0-19.664,8.804-19.664,19.664
		c0,10.86,8.804,19.664,19.664,19.664c6.573,0,50.681,0,57.698,0c2.692,0,4.345,2.964,2.914,5.244
		c-18.436,29.363-19.324,61.33-18.819,70.669c1.172,21.7,24.974,29.865,35.416,10.713c3.178-5.828,4.259-13.124,5.446-20.823
		c2.819-11.836,11.725-34.338,39.506-47.311c8.054-2.53,16.194-6.768,23.406-12.167c4.733-3.542,8.477-8.242,11.014-13.582l0,0
		c3.686-7.76,11.511-12.706,20.102-12.706h16.218c-0.254-1.336-0.392-2.713-0.392-4.122c0.148-112.968-0.353-108.175,0.416-112.093
		c-15.515-1.062-28.767,3.414-42.997-7.136c-12.913-9.575-28.704-14.413-42.218-14.413h-54.569v0.001c-2.477,0-43.058,0-41.315,0
		c-13.377,0-22.313,11.86-19.663,23.954c1.993,9.051,10.006,15.444,19.179,15.475c0.656,0.003-3.02,0.002-3.652,0.002
		c-6.329,0-12.501,3.045-16.349,8.693c-8.711,12.895,0.414,30.738,16.347,30.739c-6.716,0-14.853-1.075-21.693,6.911
		c-3.129,3.657-4.799,8.303-4.723,13.084C254.3,178.561,262.77,197.906,274.419,197.906z"/>
</g>
<g>
	<path style="fill:#EAB883;" d="M359.664,251.882l-0.008,0.002c0,0,7.42-14.543-7.848-14.547c-7.051,0-26.835,0-21.084,0
		c2.692,0,4.345,2.964,2.914,5.244c-18.437,29.363-19.324,61.33-18.819,70.669c1.147,21.245,23.978,29.499,34.735,11.863
		c-1.948-3.257-3.226-7.25-3.476-11.863C345.625,304.892,346.299,278.404,359.664,251.882z"/>
	<path style="fill:#EAB883;" d="M107.501,259.842c-11.209,5.299-20.156,11.656-25.107,22.077l0,0
		c-3.686,7.76-11.511,12.706-20.102,12.706H44.073c0.254,1.336,0.392,2.713,0.392,4.123c-0.148,112.968,0.353,108.175-0.416,112.093
		c17.411,1.13,30.638-3.51,44.997,7.136c5.132,3.805,10.722,6.849,16.439,9.153C72.814,376.211,73.421,310.247,107.501,259.842z"/>
</g>
<g>
	<path style="fill:#EFEFEF;" d="M482.517,235.235c12.141,0,21.982-9.842,21.982-21.982V105.417c0-12.141-9.842-21.982-21.982-21.982
		c-12.141,0-21.982,9.842-21.982,21.982v107.836C460.535,225.393,470.376,235.235,482.517,235.235z"/>
	<path style="fill:#EFEFEF;" d="M29.483,276.766c-12.141,0-21.982,9.842-21.982,21.982v107.836c0,12.141,9.842,21.982,21.982,21.982
		s21.982-9.842,21.982-21.982V298.749C51.465,286.607,41.624,276.766,29.483,276.766z"/>
</g>
<g>
	<path style="fill:#DDDDDD;" d="M482.517,168.264c-12.141,0-21.982-9.842-21.982-21.982v66.971c0,12.141,9.842,21.982,21.982,21.982
		c12.141,0,21.982-9.842,21.982-21.982v-66.971C504.5,158.422,494.658,168.264,482.517,168.264z"/>
	<path style="fill:#DDDDDD;" d="M29.483,361.595c-12.141,0-21.982-9.842-21.982-21.982v66.971c0,12.141,9.842,21.982,21.982,21.982
		s21.982-9.842,21.982-21.982v-66.971C51.465,351.754,41.624,361.595,29.483,361.595z"/>
</g>
<path style="fill:#EAB883;" d="M304.996,117.91c0-3.174-3.348-3.369-6.47-8.911c-7.334-12.956,1.992-29.388,17.178-29.388
	c-10.274,0-20.567,0-30.85,0c-12.404,0-21.326,10.311-19.99,21.988c0.943,8.25,7.041,15.076,15.14,16.934
	c3.04,0.7,7.834,0.509,0.714,0.509c-10.885,0-19.716,8.834-19.716,19.715c0,10.889,8.827,19.715,19.714,19.715
	c-6.461,0-10.977-0.594-16.569,2.646c-4.078,2.358-7.178,6.113-8.724,10.486c-0.611,1.737-0.971,3.508-1.086,5.319
	c-0.066,1.032-0.046,2.107,0.038,3.026c0.833,9.546,8.531,17.18,18.171,17.889v0.194c-10.637,0.256-19.186,8.941-19.186,19.639
	c0,10.86,8.804,19.664,19.664,19.664c3.014,0,28.765,0,31.258,0c-10.86,0-19.663-8.804-19.663-19.664
	c0-8.532,5.443-15.773,13.04-18.492v-0.001c0,0,1.118-0.45,1.118-1.515c0-0.844-1.118-1.307-1.118-1.307h0.006
	c-17.194-7.202-15.725-32.035,2.211-37.131c0,0,1.713-0.454,1.713-2.148s-0.972-2.226-0.972-2.226l0.006-0.003
	c-12.106-8.554-10.874-26.883,2.478-33.661c-0.01-0.009-0.024-0.02-0.024-0.02S304.996,119.91,304.996,117.91z"/>
<path d="M504.5,167.277c4.143,0,7.5-3.357,7.5-7.5v-54.359c0-16.257-13.226-29.482-29.482-29.482
	c-12.079,0-22.479,7.303-27.03,17.725c-7.44-0.631-17.363,2.274-28.066-5.66c-13.617-10.098-30.634-15.889-46.685-15.889
	l-96.292,0.001c-23.526,0-35.747,27.545-20.444,45.177c-11.927,9.325-13.916,26.33-4.824,38.087
	c-0.078,0.1-15.358,9.181-11.938,27.708c1.027,5.649,3.754,10.623,7.595,14.433c-18.376,16.6-6.663,47.322,18.19,47.322h50.598
	c-17.674,32.319-16.502,64.987-16.295,68.817c1.58,29.247,35.414,39.715,49.492,13.898c3.776-6.925,5.022-15.144,6.226-22.962
	c2.632-10.81,10.651-30.265,34.886-41.765c8.693-2.797,17.38-7.34,25.156-13.159c5.602-4.193,10.199-9.854,13.295-16.369
	c5.128-10.796,17.077-8.031,19.044-8.424c4.519,10.493,14.96,17.859,27.092,17.859c16.257,0,29.482-13.226,29.482-29.482v-18.475
	c0-4.143-3.357-7.5-7.5-7.5s-7.5,3.357-7.5,7.5v18.475c0,7.984-6.496,14.481-14.481,14.481c-8.08,0-14.482-6.628-14.482-14.481
	c0.028-114.853-0.066-107.866,0.073-109.267c0.716-7.205,6.825-13.05,14.41-13.05c7.984,0,14.481,6.496,14.481,14.481v54.358
	C496.999,163.918,500.356,167.277,504.5,167.277z M453.034,209.874h-3.325c-11.426,0-21.975,6.668-26.877,16.987
	c-2.054,4.323-5.074,8.057-8.734,10.796c-11.26,8.428-20.75,10.754-22.085,11.376c-30.502,14.242-40.427,38.924-43.63,52.369
	c-0.5,2.093-1.458,12.963-4.734,18.97c-6.901,12.66-20.594,6.332-21.342-7.526c-0.194-3.592-1.348-35.967,17.682-66.275
	c4.542-7.234-0.645-16.734-9.267-16.734h-57.697c-6.707,0-12.164-5.456-12.164-12.163c0-6.707,5.456-12.164,12.164-12.164
	c16.668-0.034-4.538-0.104,7.692-0.104c4.143,0,7.5-3.357,7.5-7.5c0-4.143-3.357-7.5-7.5-7.5h-6.709
	c-5.394,0-10.664-3.533-12.025-10.097c-0.773-4.397,1.221-7.585,1.53-8.368l1.248-1.726l1.188-1.198
	c0.636-0.551,2.203-1.559,2.103-1.491c2.334-0.9,3.43-1.551,5.955-1.551h6.708c4.142,0,7.5-3.357,7.5-7.5
	c0-4.142-3.357-7.5-7.499-7.5c-13.096-0.002-17.006-18.134-4.891-23.41c3.221-1.405,5.358-0.923,8.617-1.021
	c4.143,0,7.5-3.357,7.5-7.5c0-4.084-3.264-7.405-7.325-7.498c-1.375-0.027-0.652-0.026-1.485-0.073
	c-0.1-0.02-2.297-0.46-2.157-0.432l-0.623-0.202l-3.012-1.577c-0.102-0.086-1.677-1.427-1.575-1.341l-1.516-1.865
	c-0.048-0.109-2.484-3.492-1.932-8.16c0.916-6.621,6.269-10.781,12.128-10.781l96.292-0.001c12.713,0,26.825,4.836,37.75,12.939
	c15.16,11.239,29.562,8.06,34.547,8.611L453.034,209.874L453.034,209.874z"/>
<path d="M238.975,267.164h-50.598c17.674-32.319,16.502-64.987,16.295-68.818c-1.588-29.362-35.458-39.63-49.492-13.897
	c-3.776,6.925-5.021,15.144-6.226,22.962c-2.632,10.81-10.651,30.265-34.886,41.765c-8.692,2.796-17.378,7.338-25.157,13.159
	c-5.602,4.193-10.199,9.855-13.294,16.369c-5.128,10.796-17.077,8.031-19.044,8.424c-4.519-10.494-14.96-17.86-27.091-17.86
	C13.226,269.265,0,282.492,0,298.749v11.596c0,4.143,3.357,7.5,7.5,7.5s7.5-3.357,7.5-7.5v-11.596
	c0-7.985,6.496-14.482,14.482-14.482c8.146,0,14.482,6.704,14.482,14.482v107.836c0,7.803-6.359,14.481-14.482,14.481
	c-7.984,0-14.482-6.496-14.482-14.481v-61.238c0-4.143-3.357-7.5-7.5-7.5s-7.5,3.357-7.5,7.5v61.238
	c0,16.257,13.226,29.482,29.483,29.482c12.079,0,22.479-7.303,27.03-17.725c7.44,0.631,17.363-2.274,28.066,5.66
	c13.617,10.098,30.634,15.889,46.685,15.889h42.084c4.143,0,7.5-3.357,7.5-7.5s-3.357-7.5-7.5-7.5h-42.084
	c-12.713,0-26.825-4.836-37.75-12.939c-15.16-11.239-29.562-8.06-34.547-8.611V302.126h3.325c11.426,0,21.975-6.668,26.877-16.987
	c2.054-4.323,5.074-8.057,8.733-10.797c11.263-8.428,20.751-10.753,22.086-11.375c30.502-14.242,40.427-38.924,43.63-52.369
	c0.047-0.196,0.086-0.396,0.116-0.595c0.906-5.886,1.945-13.474,4.618-18.375c6.917-12.692,20.594-6.299,21.342,7.526
	c0.194,3.592,1.348,35.967-17.682,66.275c-4.542,7.234,0.645,16.734,9.267,16.734h57.697c6.707,0,12.164,5.456,12.164,12.163
	c0,6.706-5.456,12.163-12.164,12.163h-5.66c-0.26,0-0.52,0.014-0.778,0.04c-0.097,0.011-0.194,0.016-0.293,0.022l-0.326,0.025
	c-0.21,0.011-0.422,0.017-0.635,0.017c-4.143,0-7.5,3.357-7.5,7.5c0,4.143,3.357,7.5,7.5,7.5h6.709
	c5.394,0,10.665,3.533,12.026,10.098c1.016,5.69-2.365,9.466-2.411,9.646l-1.146,1.268c-0.101,0.093-0.511,0.471-0.41,0.378
	c-0.634,0.549-2.071,1.482-1.971,1.414c-3.716,2.138-7.489,1.624-12.796,1.628c-4.142,0-7.5,3.357-7.5,7.5
	c0,4.142,3.357,7.5,7.499,7.5c13.226,0.002,17.138,18.534,4.459,23.587c-3.22,1.255-5.326,0.712-8.186,0.844
	c-4.143,0-7.5,3.357-7.5,7.5c0,4.084,3.264,7.405,7.325,7.498c3.023,0.075,5.194,1.072,5.094,1.036
	c1.803,0.854,3.188,2.04,3.048,1.929c8.48,7.42,3.439,21.467-7.969,21.467h-19.206c-4.143,0-7.5,3.357-7.5,7.5s3.357,7.5,7.5,7.5
	h19.206c13.158,0,24.417-9.39,26.778-22.363c-0.039-0.167,2.972-12.098-6.333-22.813c11.962-9.352,13.893-26.356,4.825-38.087
	c14.322-9.243,16.795-29.793,4.34-42.141C275.541,297.892,263.833,267.164,238.975,267.164z"/>
<g>
</g>
<g>
</g>
<g>
</g>
<g>
</g>
<g>
</g>
<g>
</g>
<g>
</g>
<g>
</g>
<g>
</g>
<g>
</g>
<g>
</g>
<g>
</g>
<g>
</g>
<g>
</g>
<g>
</g>
</svg>
