<?xml version="1.0" encoding="utf-8"?>
<!-- Generator: Adobe Illustrator 22.1.0, SVG Export Plug-In . SVG Version: 6.00 Build 0)  -->
<svg version="1.1" id="Capa_1" xmlns="http://www.w3.org/2000/svg" xmlns:xlink="http://www.w3.org/1999/xlink" x="0px" y="0px"
	 viewBox="0 0 512 512" style="enable-background:new 0 0 512 512;" xml:space="preserve">
<style type="text/css">
	.st0{fill:#632828;}
	.st1{fill:#542B2B;}
	.st2{fill:#E09032;}
	.st3{fill:#7C3232;}
	.st4{fill:#D1862F;}
</style>
<polygon class="st0" points="503.5,145.1 503.5,366.9 256,503.5 256,281.6 "/>
<polygon class="st1" points="503.5,145.1 256,281.6 170.7,234.5 170.5,234.4 170.7,234.1 417.7,97.8 "/>
<polygon class="st2" points="341.3,55.6 417.7,97.8 170.7,234.1 170.5,234.4 93.9,192.2 "/>
<polygon class="st1" points="256,8.5 341.3,55.6 93.9,192.2 8.5,145.1 "/>
<polygon class="st3" points="256,281.6 256,503.5 8.5,366.9 8.5,145.1 93.9,192.2 93.9,307 170.7,349.7 170.7,234.5 "/>
<polygon class="st4" points="170.7,234.5 170.7,349.7 93.9,307 93.9,192.2 170.5,234.4 "/>
<path d="M512,145.1c0-3.1-1.7-6-4.4-7.5L260.1,1.1c-2.6-1.4-5.7-1.4-8.2,0L4.4,137.6C1.7,139.1,0,142,0,145.1v221.9
	c0,3.1,1.7,6,4.4,7.5l247.5,136.5c2.6,1.4,5.7,1.4,8.2,0l247.5-136.5c2.7-1.5,4.4-4.4,4.4-7.5L512,145.1L512,145.1z M256,271.9
	l-68.1-37.5l229.8-126.8l68.1,37.5L256,271.9z M102.4,206.6l59.7,32.9v95.7L102.4,302V206.6z M111.5,192.2L341.3,65.4l58.7,32.4
	L170.3,224.6L111.5,192.2z M256,18.3l67.7,37.3L93.9,182.4l-67.7-37.4L256,18.3z M17.1,159.5l68.3,37.7V307c0,3.1,1.7,6,4.4,7.5
	l76.8,42.7c4.1,2.3,9.3,0.8,11.6-3.3c0.7-1.3,1.1-2.7,1.1-4.1V249l68.3,37.7V489L17.1,361.9V159.5z M264.5,489V286.6l230.4-127.1
	v202.4L264.5,489z"/>
</svg>
