<?xml version="1.0" encoding="utf-8"?>
<!-- Generator: Adobe Illustrator 21.0.2, SVG Export Plug-In . SVG Version: 6.00 Build 0)  -->
<svg version="1.1" id="Layer_1" xmlns="http://www.w3.org/2000/svg" xmlns:xlink="http://www.w3.org/1999/xlink" x="0px" y="0px"
	 viewBox="0 0 82.8 74" style="enable-background:new 0 0 82.8 74;" xml:space="preserve">
<g>
	<path d="M5,58.8h10.3V74h52.2V58.8h10.3c2.8,0,5-2.2,5-5V26.6v-2c0-2.8-2.2-5-5-5H67.5V0H15.3v19.6H5c-2.8,0-5,2.2-5,5v2v27.2
		C0,56.5,2.2,58.8,5,58.8z M2,24.6c0-1.7,1.3-3,3-3h10.3h52.2h10.3c1.7,0,3,1.3,3,3v2c0,1.7-1.3,3-3,3H5c-1.7,0-3-1.3-3-3V24.6z
		 M17.3,2h48.2v17.6H17.3V2z M77.8,56.8H67.5V50h3.9c0.6,0,1-0.4,1-1s-0.4-1-1-1h-3.9H15.3h-3.9c-0.6,0-1,0.4-1,1s0.4,1,1,1h3.9v6.8
		H5c-1.7,0-3-1.3-3-3V30.6c0.8,0.6,1.9,1,3,1h72.8c1.1,0,2.2-0.4,3-1v23.2C80.8,55.4,79.5,56.8,77.8,56.8z M17.3,72V50h48.2v22H17.3
		z"/>
	<path d="M8.7,34.6c-2.1,0-3.7,1.7-3.7,3.7S6.7,42,8.7,42s3.7-1.7,3.7-3.7S10.7,34.6,8.7,34.6z M8.7,40.1c-0.9,0-1.7-0.8-1.7-1.7
		s0.8-1.7,1.7-1.7s1.7,0.8,1.7,1.7S9.6,40.1,8.7,40.1z"/>
	<path d="M18.7,34.6c-2.1,0-3.7,1.7-3.7,3.7s1.7,3.7,3.7,3.7s3.7-1.7,3.7-3.7S20.7,34.6,18.7,34.6z M18.7,40.1
		c-0.9,0-1.7-0.8-1.7-1.7s0.8-1.7,1.7-1.7s1.7,0.8,1.7,1.7S19.6,40.1,18.7,40.1z"/>
</g>
</svg>
