<?xml version="1.0" encoding="iso-8859-1"?>
<!-- Generator: Adobe Illustrator 19.0.0, SVG Export Plug-In . SVG Version: 6.00 Build 0)  -->
<svg version="1.1" id="Layer_1" xmlns="http://www.w3.org/2000/svg" xmlns:xlink="http://www.w3.org/1999/xlink" x="0px" y="0px"
	 viewBox="0 0 512 512" style="enable-background:new 0 0 512 512;" xml:space="preserve">
<path style="fill:#C2B8B9;" d="M480.741,306.635l-143.286,90.227l4.378-48.263c-21.179,13.336-38.509,44.727-38.509,69.756
	s17.329,34.595,38.509,21.259l138.908-87.471c10.59-6.669,19.254-22.363,19.254-34.877
	C499.995,304.75,491.331,299.967,480.741,306.635z"/>
<polygon style="fill:#D6CED1;" points="196.32,107.123 70.304,238.584 332.966,403.99 499.15,297.813 "/>
<path style="fill:#ECE7EA;" d="M331.343,453.307c-5.066-3.861-10.473-8.442-13.988-14.018c-1.141-0.185-2.198-0.527-3.141-1.047
	c-4.422-2.442-6.959-8.872-6.959-17.641c0-22.147,15.831-50.825,34.573-62.626l150.256-94.616c3.937-2.478,5.119-7.68,2.64-11.618
	c-0.677-1.075-1.561-1.936-2.564-2.582l0.008-0.006L206.654,69.364l-15.81-9.955L34.172,158.065
	C15.011,170.13,0.001,197.319,0,219.965c0,22.645,15.011,49.836,34.174,61.902l269.58,169.666c0.747,0.519,1.513,1.014,2.317,1.459
	c7.552,4.168,16.555,4.423,26.033,0.878C331.852,453.682,331.594,453.499,331.343,453.307z"/>
<polygon style="fill:#F14742;" points="243.926,199.413 160.628,147.184 89.718,191.841 174.287,244.424 "/>
<path d="M502.063,300.703c-6.315-3.485-14.328-2.719-21.987,2.102l-141.471,89.085c-3.937,2.48-5.119,7.681-2.64,11.618
	c2.48,3.937,7.681,5.119,11.618,2.64l141.471-89.085c2.988-1.881,4.623-1.743,4.865-1.609c0.245,0.135,1.231,1.443,1.231,4.974
	c0,9.49-7.044,22.251-15.074,27.308l-137.149,86.362c-7.292,4.592-13.959,5.854-18.291,3.464c-4.331-2.391-6.815-8.705-6.815-17.324
	c0-21.834,15.609-50.109,34.085-61.742l156.159-98.332c2.45-1.542,3.935-4.235,3.935-7.129s-1.486-5.587-3.935-7.129L208.004,56.956
	c-2.743-1.728-6.235-1.728-8.978,0l-158.06,99.53C18.506,170.629,0.911,202.5,0.911,229.043v4.493
	c0,26.543,17.595,58.414,40.055,72.557l235.089,148.036c3.937,2.479,9.139,1.296,11.618-2.64c2.479-3.937,1.297-9.139-2.64-11.618
	L49.945,291.835C32.498,280.85,17.76,254.152,17.76,233.536v-4.493c0-20.616,14.738-47.314,32.185-58.299l153.57-96.703
	l284.251,178.992l-144.838,91.204c-23.527,14.815-41.956,48.198-41.956,76.001c0,15.158,5.512,26.549,15.521,32.075
	c4.02,2.22,8.454,3.32,13.152,3.32c6.999,0,14.586-2.444,22.26-7.278l137.149-86.362c12.867-8.102,22.945-26.36,22.945-41.565
	C512,311.379,508.378,304.19,502.063,300.703z"/>
<path d="M398.168,261.458c2.799,0,5.535-1.394,7.137-3.936c2.479-3.937,1.297-9.139-2.64-11.618L208.004,123.327
	c-3.938-2.479-9.139-1.296-11.618,2.64c-2.479,3.937-1.297,9.139,2.64,11.618l194.661,122.577
	C395.081,261.039,396.633,261.458,398.168,261.458z"/>
<path d="M364.488,283.815c2.805,0,5.547-1.4,7.145-3.951c2.472-3.942,1.281-9.141-2.662-11.612l-82.235-51.563
	c-3.944-2.473-9.142-1.279-11.612,2.662c-2.472,3.943-1.281,9.141,2.662,11.612l82.235,51.563
	C361.412,283.399,362.959,283.815,364.488,283.815z"/>
<path d="M252.412,238.86c-3.946-2.464-9.143-1.263-11.608,2.685c-2.464,3.947-1.263,9.143,2.685,11.608l82.866,51.74
	c1.388,0.866,2.929,1.279,4.454,1.279c2.809,0,5.557-1.405,7.154-3.964c2.464-3.947,1.263-9.143-2.685-11.608L252.412,238.86z"/>
<path d="M164.02,145.373l-70.013,44.092c-2.457,1.547-3.944,4.249-3.935,7.153c0.009,2.904,1.511,5.597,3.976,7.13l83.498,51.916
	c1.363,0.847,2.905,1.27,4.448,1.27c1.592,0,3.182-0.45,4.573-1.349l18.597-12.019c3.908-2.526,5.028-7.74,2.503-11.648
	c-2.525-3.908-7.74-5.027-11.648-2.503l-14.11,9.12l-67.529-41.987l54.141-34.097l66.546,41.726l-7.758,5.014
	c-3.908,2.526-5.028,7.74-2.503,11.648c2.526,3.908,7.744,5.028,11.648,2.503l18.871-12.197c2.418-1.564,3.871-4.254,3.852-7.134
	c-0.02-2.879-1.51-5.549-3.949-7.079l-82.243-51.568C170.242,143.644,166.758,143.649,164.02,145.373z"/>
<path d="M304.292,324.551c2.457-3.952,1.246-9.146-2.706-11.602l-83.5-51.918c-3.952-2.458-9.147-1.246-11.602,2.706
	c-2.457,3.952-1.246,9.146,2.706,11.602l83.5,51.918c1.384,0.862,2.922,1.272,4.44,1.272
	C299.945,328.529,302.697,327.118,304.292,324.551z"/>
<path d="M61.037,216.738c-2.457,3.952-1.246,9.146,2.706,11.602l206.094,128.143c1.384,0.862,2.922,1.272,4.44,1.272
	c2.815,0,5.567-1.411,7.162-3.977c2.457-3.952,1.246-9.146-2.706-11.602L72.639,214.031
	C68.687,211.574,63.492,212.787,61.037,216.738z"/>
<g>
</g>
<g>
</g>
<g>
</g>
<g>
</g>
<g>
</g>
<g>
</g>
<g>
</g>
<g>
</g>
<g>
</g>
<g>
</g>
<g>
</g>
<g>
</g>
<g>
</g>
<g>
</g>
<g>
</g>
</svg>
