<?xml version="1.0" encoding="UTF-8" standalone="no"?>
<!-- Generator: Adobe Illustrator 17.1.0, SVG Export Plug-In . SVG Version: 6.00 Build 0)  -->
<!DOCTYPE svg  PUBLIC '-//W3C//DTD SVG 1.1//EN'  'http://www.w3.org/Graphics/SVG/1.1/DTD/svg11.dtd'>
<svg id="Layer_1" xmlns="http://www.w3.org/2000/svg" xml:space="preserve" viewBox="0 0 133.5 183.4" version="1.1" y="0px" x="0px" xmlns:xlink="http://www.w3.org/1999/xlink" enable-background="new 0 0 133.5 183.4">
<path id="kissing_bug" opacity=".85" d="m69.7 25.3c0.4-1.4 0.9-2.8 1.3-4.2 0.2-0.6 0.4-1.2 0.7-1.6 0.4-0.5 1-0.8 1.6-0.7 0.8 0.1 1.3 1 1.6 1.7 0.7 1.7 1.1 3.6 1.1 5.4 2.5-5.6 5.5-11.1 8.7-16.4 2.1-3.4 4.9-6.1 8.5-7.7 3.3-1.6 7.1-1.4 10.7-1.1 3.3 0.2 6.6 0.4 9.8 1.4 3.1 1 5.9 2.8 7.6 5.6-5-1.7-9.5-3.9-14.8-4.7-2.3-0.3-4.5-0.5-6.8-0.4-2.1 0-4.2-0.1-6.3 0.4-2.4 3.4-4.8 6.9-7.2 10.3-1.2 1.7-2.4 3.4-3.6 5.1-0.5 0.7-1.1 1.4-1.4 2.2s-0.2 1.7-0.5 2.5c-0.2 0.8-0.9 1.6-1.6 2-0.4 1.8-0.9 3.7-1.3 5.5-0.2 0.8-0.4 1.7-0.1 2.5 0.3 0.7 1.1 0.9 1.5 1.5 1 1.3 0.8 3.3-0.3 4.5-0.3 0.4-0.7 0.7-1 1.1-0.9 1.1 0.2 2.8-0.9 4-0.4 0.5-1.2 0.8-1.3 1.4-0.2 0.7 0.6 1.4 1.4 1.4 0.7 0 3.2-1.7 2.6 0.5-0.1 0.4-0.4 0.8-0.7 1.1 1.8 1.3 3.8 3.3 3.8 5.7 0 2 1.1 1.1 1.8 0.2 0.8-1.2 1.9-2.2 2.9-3.3 2-2 4.2-3.8 6.6-5.4 1-0.7 2-1.3 2.8-2.1 2.1-2.3 1.3-6.2 1.2-9-0.1-3.5 0-7 0.1-10.4 0.1-3.2 0.2-6.5 0.7-9.7 0.2-1.3 0.3-2.1 0-3.4-0.1-0.4-1.1-4.1-0.9-4.2-0.7 0-1.4 0.2-2 0.3 0.3-1.1 1.6-1.8 2.8-1.5 0.7-0.6 1.8-0.9 2.7-0.7-0.1 0.7-0.9 1.1-1.5 0.9-0.5 1-0.3 2.2 0.1 3.2s1.1 1.9 1.5 2.9c1 2.7 0.7 5.4 0.5 8.2-0.2 3.2-0.4 6.5-0.6 9.7-0.1 2.4-0.2 4.9-0.3 7.3 0 1.2-0.1 2.4-0.1 3.7 0 0.6 0.2 2-0.1 2.6-1.7 3.8-5.4 6.3-8.6 9.1-2 1.7-3.7 4.1-5.4 6.2 2.8 2.3 5.5 5.8 6.2 9.4 0.8 3.9-0.6 8.4-1.5 12.2 7.2-2.7 14.6-4.6 22.2-5.9 1.6-0.3 3.7-0.8 4.4 0.9 0.8 2 1.2 4.2 1.6 6.3 0.9 4.3 1.6 8.6 2 12.9 0.2 1.7 0.4 3.4 0.5 5 0.1 1.5 0 3.4 0.4 4.8 0.4 1.3 1.4 1.2 2.6 1.6 1.4 0.5 2.7 1 3.9 1.8 4.1 2.8 3.9 7.7 3.4 12.1-1.5 13.2-2.9 26.4-6.2 39.3-1 3.8-2.1 7.5-3.1 11.3-0.4 1.4-1.4 3.8-1.1 5.3 0.3 1.2 2.3 2.3 1.5 3.7-0.4 0.6-1.3 0.7-2 0.3-0.6-0.4-1-1.1-1.4-1.7-0.6 0.6-1.2 1.2-2 1.2-0.8 0.1-1.7-0.7-1.3-1.5 0.2-0.5 0.8-0.6 1.3-0.8 1.9-0.9 2.5-3.2 2.8-5.3l0.6-3.6c1.5-8.7 3-17.3 4.5-26 1.5-8.3 3.2-16.6 3.3-25.2 0-1.7-0.1-3.6-1.5-4.7-0.9-0.7-2.1-0.9-3.2-1-4.2-0.4-8.5-0.6-12.6-1.6-4.2-1.1-8.4-2.4-12.7-3.5 0.6 3 1.5 5.9 1.9 8.9 0.5 3.2 0.7 6.5 0.7 9.8 0.1 6.5-0.6 13-1.9 19.3-0.3 1.7-0.6 3.3-1.5 4.8-1 1.6-1.8 3.4-2.8 5-2 3.2-4.1 6.3-6.5 9.3-2 2.5-4.1 4.8-6.4 7-1 1-2.1 2.3-3.3 3-1.3 0.7-2.4 1-3.4 2.3s-1.6 2.8-2.4 4.2-2 2.7-3.6 3c-1.5 0.3-3.1-0.2-4-1.4-0.8-1-1.1-2.3-1.5-3.5-0.3-0.8-0.7-1.7-1.4-2.2-1.2-1-2.6-1.8-3.9-2.9-1.3-1.2-2.6-2.4-3.8-3.7-2.4-2.6-4.6-5.4-6.5-8.3-3.8-5.8-6.7-12.3-8.3-19.1-3.2-13.4-1.7-27.9 4.2-40.3-6.1-1.7-11.9-3.6-18.2-4.4-1.4-0.2-2.9-0.5-4.3-0.5-1.4 0.1-1.3 1-1.8 2.3l-3 8.4c-0.7 2-1.4 3.9-2.1 5.9-0.3 0.9-0.7 2-0.5 2.9 0.2 1 1.2 1.9 2.2 1.6-0.9 1.7-2.9 2.8-4.8 2.6 0.5-8.2 2.3-16.4 5.3-24.1-1.3-0.2-2.7-0.4-3.9-0.6-2 4.4-3.5 9-4.5 13.7-1.7 7.7-2 15.6-2.4 23.5-0.3 5.7-0.5 11.4-0.8 17-0.1 2.4-0.1 4.7-0.7 7-0.2 0.8-0.4 2 0 2.8 0.3 0.6 1.5 0.8 1.3 1.5-0.1 0.6-1.3 1.2-1.7 1.4-0.9 0.4-1.9 0.5-2.8 0.7-0.6 0.1-1.2 0.2-1.8-0.1s-0.9-1-0.6-1.5c0.3-0.4 0.8-0.5 1.2-0.4s0.9 0.1 1.4-0.1c1-0.4 0.5-3.7 0.5-4.6 0-5.5-0.1-11 0-16.4 0.2-8.1 0.7-16.3 2-24.4 1.3-7.8 3.7-15.2 6.1-22.7 0.1-0.5 0.3-0.9 0.7-1.3 0.5-0.5 1.3-0.5 2.1-0.4 0.5 0 5.4 1 5.6 0.3 1.3-3.8 1.8-8.7 5.2-10.9s7.8-1.6 11.7-0.9c4.7 0.8 9.4 1.2 14.1 2v0.2c0.5-1.3-0.7-3.8-1-5.1-0.4-1.8-0.7-3.6-0.7-5.5 0-2.2 0.9-4.2 2.2-6 1.2-1.8 2.3-3.3 3.9-4.8-2.7-2.8-5.4-5.7-8.1-8.5-1.8-1.9-3.6-3.9-4.7-6.3-1-2.2-1.7-4.8-2.4-7.2-1.6-5.6-2.5-11.3-2.6-17.1-0.1-4.4 0.2-9-1.7-12.9-0.1 0.5-0.9 0.6-1.2 0.1-0.3-0.4 0-1.1 0.4-1.4s1-0.4 1.5-0.4c1.3-0.1 2.6-0.2 3.9-0.4-0.1 0.5-0.1 1-0.2 1.5-0.5 0.2-0.8 0.4-1.2 0.1 1.7 11.3 3.6 22.8 5.4 34 5.7 3.8 10.6 9 13.9 15.1 0.8-0.5 1.6-1.2 2-2.1 0.7-1.2 0.8-2.7 1.5-3.9 0.3-0.6 2.4-3.3 3.1-3.2-0.8 0-1.4-0.8-1.4-1.5 0-0.8 0.7-1.4 1.5-1.4s1.5 0.6 1.5 1.4c0.4 0 0.9-0.2 1.2-0.2-1.4-1.7-1.4-3.6-2.1-5.5-0.6-1.6-1.2-3.5-0.4-5 0.6-1.2 2-2 2.3-3.4 0.2-1.1-0.5-2.1-0.9-3.1s-0.2-2.8 0.9-3.1c-2-1.3-3.4-3.1-3.7-5.5-6.5-3.9-12.1-9.2-16.8-15.2-1.9 1.1-4.4 0.6-6.6 0.1-4.3-1-8.8-1.8-13.3-1.2-1.8 0.2-3.8 0.3-5.5 1 4.8-2.2 10.1-3.2 15.3-2.8 1.9 0.2 3.9 0.5 5.8 0.9 1.7 0.3 3.2 0.5 4.8 1.1 7.4 2.7 13.5 8.1 17.7 14.7 2.2 1 3.7 3.4 3.7 5.8 0.7 0.3 0.8 0.1 1 0.3zm22.7 66.3c2.2 2.4 3.9 5.3 4.9 8.5 0.8-0.1 1.6 0 2.5 0.1s1.8 0.2 2.7 0.4c5.8 0.8 11.5 1.9 17.1 3.7-0.6-9-1.4-18-4.2-26.6-4.3 2.2-8.8 3.9-13.4 5-3.2 0.8-6.4 1.4-9.7 1.2 0.4 2.6 0.6 5.2 0.1 7.7zm28.8 19.6c0.1 0.9 0.2 1.8 0.2 2.7v0.6s-0.2 0.4-0.5 0.4c-0.1-0.2-0.3-0.4-0.5-0.5-0.3 0.5-0.6 1.1-0.3 1.5 0.1 0.3 0.4 0.5 0.7 0.5 0.3 0.1 0.6 0.1 0.9 0.1 0.8 0 1.7 0.2 2.5 0.1s1.7-0.6 1.9-1.5c0.1-0.3 0-0.8-0.3-0.9-0.4-0.1-0.8 0.3-1.2 0.2-0.2-0.1-0.4-0.3-0.5-0.4-0.5-0.8-0.7-1.8-0.6-2.8-0.7 0.3-1.5 0.3-2.3 0zm-70-25c-2.5 0.2-5-0.3-7.5-0.6-5.2-0.7-10.6-0.4-15.7-2-1.9 1.8-1.8 5.2-3.8 7 1.3 0.6 2.8 0.7 4.3 0.7 2.1 0.1 4.2 0.5 6.3 1 0.9 0.2 1.8 0.4 2.8 0.7 1.5 0.4 3.1 0.7 4.6 1.1 1.7 0.4 3.5 0.9 4.8 2 0.1-0.1 0.1-0.2 0.2-0.3 1.9-3 3.7-6 4-9.6zm-10.1 28.1c1.3 0.9 2.9 1.3 4.4 1.5 1.2 0.2 2.4 0.2 3.5 0.2 0.7 0 0.9 0.1 1.1-0.5 0.1-0.4 0-1.1 0-1.6 0-2.1 0.1-4.1 0.2-6.2 0.1-1.1 0.1-2.1 0.2-3.2 0-0.5 0.1-0.8-0.1-1.2-0.2-0.3-1.1-0.6-1.4-0.8-0.3 0-0.7-0.1-1-0.1-0.2 0-0.4 0-0.6-0.1-0.4-0.2-0.8-0.4-1.1-0.8h-0.5c-1.6 4.5-3.4 8.4-4.7 12.8zm5-13h0.6c0.1 0.2 0.3 0.3 0.6 0.4 0.9 0.3 1.8 0.5 2.7 0.8 0.2 0.3 0.4 0.3 0.7 0.2 0 0.1 0.1 0.2 0.1 0.4 0.6-5.3 1-10.7 1.1-16-1.7 4.8-3.8 9.5-6 14 0.2 0.1 0.1 0.1 0.2 0.2zm3.7 14.8c-2.8-0.1-5.6-0.5-8.3-1.3v-0.2c-1.1 4.5-1.6 9.4-1.5 14.1 3.4 0 6.8 0.4 10.2 0.3-0.5-4.2-0.6-8.5-0.3-12.7-0.1-0.2-0.1 0-0.1-0.2zm-3.2 12.9c-2.2 0.1-4.4 0-6.7 0v-0.2c0 6.4 1.2 12.6 3.5 18.6 3-0.4 6-1 8.9-1.8v-0.6c-0.7-5.2-1.4-10.5-2-15.7-1.2-0.5-2.5-0.3-3.7-0.3zm8 25.1c-0.7-1.9-1.3-3.8-1.8-5.8-0.1-0.6-0.2-1.8-0.8-2.1-0.6-0.2-2.2 0.4-2.8 0.5-1.9 0.3-3.9 0.6-5.8 1.2 0.3 1.1 0.8 1.9 1.3 2.9 0.7 1.5 1.4 3.1 2.2 4.5 0.3 0.6 3.4 6.7 3.9 6.5 0.1 0 0.2-0.1 0.3-0.1 1.6-1.3 3.7-2.1 5.8-2.2-0.4 0-2-4.8-2.3-5.4zm-2.9 7.5c-0.2 0.2-0.5 0.3-0.6 0.6s0.1 0.6 0.3 0.9c3.6 4.8 7.7 9 12.6 12.4 1-1.4 1.9-2.7 2.9-4.1-3.7-3.4-7-7.3-9.9-11.4-1.8 0.2-3.7 0.6-5.3 1.6zm17.2 10.3c-0.5 0-1.2-0.5-1.7-0.3-0.3 0.1-0.5 0.4-0.7 0.7l-1.5 2.1c-0.2 0.3-0.3 0.5-0.4 0.8-0.2 1 0.7 2.6 1.1 3.5s0.7 1.8 1.3 2.6 1.4 1.4 2.4 1.6 2.1-0.2 2.9-0.9c0.8-0.6 1.4-1.5 2-2.4 1.2-1.8 2.5-3.7 3.6-5.6-0.9-1.3-1.7-2.6-2.6-3.8-1.3 0.1-2.6 0.7-3.8 1.2-0.9 0.3-1.8 0.6-2.6 0.5zm9.2 2c1.6-0.2 2.9-1.3 4.1-2.5 3-2.9 5.5-6.2 7.9-9.6-0.8-0.2-1.5-0.4-2.3-0.5-0.4-0.1-0.9-0.2-1.3-0.1s-0.8 0.4-1.1 0.7c-3.2 2.7-6.4 5.5-9.5 8.2 0.6 1.3 1.2 2.7 2.2 3.8zm10.1-16.3c-0.5 0.8-1.7 2.1-1.8 3.1 1.2 0.1 2.4 0.3 3.5 0.8 0.3 0.1 0.6 0.3 0.9 0.3 0.8 0 2-2.3 2.5-3 0.8-1.2 1.6-2.4 2.3-3.7s1.4-2.6 1.9-3.9c0.1-0.3 1.4-3.8 1.4-3.8-1.9-0.1-3.8 0-5.7 0.1-0.3 0-0.7 0-1 0.2-0.8 0.4-0.9 2.2-1.2 3-0.4 1.1-0.8 2.3-1.3 3.4-0.2 1.1-0.8 2.3-1.5 3.5zm11.6-10.3v0.3c1-5.6 1.6-11.3 2-16.9-3.1 0-6.3 0-9.4 0.1-0.4 1.2-0.8 2.3-1.4 3.3 1.1 1.9 1.6 4.2 1.7 6.5s-0.2 4.5-0.4 6.7c2.5-0.4 5.1-0.5 7.5 0zm-7.1-17.5c-0.1 0.2-0.1 0.4-0.1 0.6 2.8 0.3 5.6 0.1 8.4 0 0.3 0 0.6 0 0.9-0.2s0.4-0.4 0.2-0.6c0.5-4.5 0.3-9.1-0.5-13.5-2.5 1.5-5.3 2.5-8.1 3-0.6 3.7-0.9 7.4-0.8 11.1m0.1-16c0.1 0.9-0.3 4.3 0.9 4.6 0.4 0.1 0.8 0 1.1-0.2 1.6-0.6 3.2-1.2 4.9-1.8 0.4-0.2 0.9-0.3 1.2-0.7 1.6-1.6-3.3-13.7-3.3-13.7-1.2 0.5-2.4 1.1-3.5 1.8-0.6 0.4-1.2 0.9-1.6 1.6s-0.3 1.6-0.3 2.5c0.4 1.9 0.5 3.9 0.6 5.9zm-0.6-8.5h0.2c1.1-1 2.3-1.9 3.7-2.6 0.4-0.2 0.9-0.5 1.2-0.8 1.1-1.3-1.2-4.6-1.8-5.8-0.6-1-1.2-2-1.9-2.9-0.4-0.5-2-1.9-2-2.4 0 1.1 1 14.5 0.6 14.5zm-20.8-2.2c5.7-11.6 12.2-22.7 20.3-32.7-11.8 7-27.3 7.2-39.3 0.4 6.8 10.7 13.4 20.9 19 32.3zm-3.7-17c1.8 3.9 3.1 8.3 4.2 12.4 2.4-8 6-15.7 11.2-22.3-7.2 3.4-15.8 3.7-23.3 0.9 3.4 2.6 6.1 5.2 7.9 9zm24.2 52.3c-2.2-11.1-11.3-18.9-16.5-28.5-1.3-2.4-1.9-5.3-3.4-7.5-2.3-3.4-3.6 1-4.8 3.1-3.7 6.5-7.5 13.1-11.2 19.6-1.7 2.9-3.3 5.9-4.2 9.1-1.3 5.2 0.6 11.6 2.4 16.6 2 5.5 4.7 10.8 8.4 15.4 1.5 1.9 3.4 3.6 5.6 4.5 4.4 1.6 9.2-1.5 12.4-4.3 7.6-6.8 13-17 11.4-27.1 0-0.2-0.1-0.6-0.1-0.9zm-10.5-4.9c-0.4-2.2-1.5-4.1-2.6-6-3.7-6.5-7.4-13.1-11.1-19.6l-4.8 7.5c4.2 8.1 8.3 16.2 12.5 24.3 0.7 1.4 2.2 3.1 3.6 2.4 2.1-2.4 3-5.6 2.4-8.6zm-6.7 7.7c-4.9-7.3-8.5-15.3-11.5-23.5-1.8 4.3-4.5 8.2-7.9 11.4 3.1 10 7.5 19.6 13 28.5 0.6 1 1.3 2 2.4 2.2 1.6 0.3 2.9-1.3 3.7-2.7 1.9-3.1 3.9-6.5 3.2-10.1-0.3-2.2-1.7-4-2.9-5.8zm-1.1-29.6c-0.6-2.3-1.2-4.5-1.8-6.8-0.7 0.8-1.3 1.6-2 2.4 1.5 4.8 4.7 8.8 7.4 13 2.8 4.2 5.3 8.8 5.3 13.8 0 4.4-1.9 8.6-3.3 12.8s-2.2 8.8-5.2 12.1c-0.9 1-1.9 1.8-2.6 2.9s-1 2.6-0.3 3.7c1 1.7 3.6 1.5 5.5 0.7 5.6-2.3 9.8-7.5 11.5-13.3s1.2-12.1-0.6-17.9c-1.9-5.8-5-11-8.6-15.9-2.9-3.9-6.1-7.8-7.1-12.5m-5.1 61.1c1.6 0.4 3-1.3 3-2.9s-0.9-3.1-1.7-4.4c-5.6-8.9-10.3-18.4-13.9-28.3-0.7 12.1 3.1 24.5 10.6 34 0.5 0.7 1.1 1.4 2 1.6zm-3.4-66.3c-2.1-8.9-5.6-17.5-10.3-25.4 2.5 6 2.2 12.8 2.7 19.3 0.4 6.5 1.8 13.5 6.5 18 2.6-3.2 2-7.9 1.1-11.9zm-6.8 5.2c-1.2 7.7-2.5 15.4-3.7 23.1 2.7-5 5.3-10.1 8-15.1-1.4-2.6-2.8-5.3-4.3-8zm24.7-9.2c-0.8 2.2-1.6 4.4-1.8 6.7-0.3 3.8 1.1 7.5 2.5 11.1 6.5-10.7 4.8-24.2 8.1-36.2-3.4 5.8-6.4 12-8.8 18.4zm5 17.9v-7.1l-4.2 9.6c2.1 2.7 4.2 5.4 6.3 8.1-1-5.2-1.7-10.4-2.1-15.7m4 21.1c1.5-16 1.7-32.1 0.4-48.1-3.9 15.7-4.1 32.3-0.4 48.1zm-38.9-3.4c3.7-13 4.5-26.8 2.1-40.1-1.1 13.3-1.8 26.7-2.1 40.1zm9.7-40.1c1.4 5.8 2.8 11.7 4.3 17.5 1-1.3 2.1-2.7 2-4.3 0-0.9-0.5-1.8-0.9-2.6-1.8-3.6-3.6-7.1-5.4-10.6zm12.5 14.4c0.2 1.4 1.6 2.7 2.9 2.3 2.1-8.4 5.5-16.5 10-23.9-4.9 5.2-8.9 11.2-12 17.6-0.5 1.3-1.1 2.6-0.9 4zm1.3 4.4c0.9 3.3 3 6.2 5.1 9h0.7c-1.1-3.3-2.1-6.6-3.2-9.8-0.7 0.5-1.6 0.8-2.6 0.8zm-1.3-57.9c-0.8 8.4-0.9 16.9-0.1 25.3 2.1-0.4 4.4-1.3 5.2-3.2 0.6-1.3 0.4-2.8 0.1-4.2-1-6.2-2.8-12.2-5.2-17.9zm-7.4 22.9c1.9-0.3 3.8 0.1 5.5 0.9-0.6-8.4 0.1-16.7 0.9-25.1-2.7 3.2-3.8 7.4-4.8 11.4-1.1 4.2-2.2 8.5-1.6 12.8zm-4.1-0.8c0.4-0.4 0.6-0.9 0.8-1.5 2-6.8 4-13.5 6-20.3-0.9 0.2-1.8-0.2-2.3-1-4.1 7.6-8.3 15.1-12.5 22.7 2 0.2 3.9 0.4 5.9 0.5 0.7 0.1 1.6 0.1 2.1-0.4zm15-22.1c0.3 7.9 1.9 15.8 4.7 23.2 2.3-0.4 4.4-1.7 5.9-3.4 0.4-0.5 0.8-1.1 0.9-1.7 0.2-1-0.4-2-0.9-2.8-3.2-5.4-6.4-10.8-10.6-15.3zm-25.4 44.7c-1.3 0.7-2.1 2.3-2.3 3.8s0.1 3 0.4 4.5h0.6c0.4-2.8 0.9-5.6 1.3-8.3zm-6.1 17.2c0.3 1.2 1.1 2.2 1.8 3.2 0.5 0.7 1.3 1.5 2.2 1.2-0.1-3.5-0.3-7.1 0.6-10.5-1.5 0-2.9 0.8-3.8 1.9s-1.2 2.8-0.8 4.2zm3.7 16.1c0.1-0.1 0.1-0.3 0.1-0.5 0.1-3.4 0.3-6.8 0.4-10.2-1.3 0.4-2.8 0.4-4.1-0.1-1.1 1.4-2.2 2.9-2.6 4.7s0 3.8 1.4 4.9c1.1 0.9 2.5 1.1 3.9 1.3 0.4 0.1 0.7 0.1 0.9-0.1zm-1.9 2.3c-0.5-0.5-1.3-0.5-1.8-0.2-1 1.8-1.7 3.9-1.7 6s0.7 4.2 2.1 5.8 3.6 2.5 5.6 2.2c-0.6-4.6-1.1-9.3-1.3-13.9-1.7 0-1.3 0.1-2.9 0.1zm1.4 20.6c0 1.3 0 2.6 0.4 3.8 0.8 2.7 3.8 4.6 6.6 4.3-1.1-4.3-2.2-8.7-3.3-13 0.1 0.5-0.4 1-0.9 1.2s-1.1 0.2-1.5 0.5c-1.2 0.5-1.3 2-1.3 3.2zm5.9 11.1c1.7 5.1 6.3 9.1 11.6 10.1-2.9-3.9-5.8-7.7-8.7-11.6-0.7 0.9-1.8 1.5-2.9 1.5zm37.4-66.2c0.3 3.3 0.4 6.7 0.3 10 0.7-0.1 1.4-0.6 1.7-1.3s0.4-1.4 0.4-2.2c-0.1-2-0.8-4-2-5.5-0.1-0.1-0.3 0-0.3 0.1-0.2-0.9 0.2-0.1-0.1-1.1zm1.3 22.7c1-0.7 1.9-1.5 2.6-2.5s1.2-2.2 1.1-3.4c-0.1-1.2-0.6-2.3-1.4-3.3s-1.7-1.7-2.7-2.4c0.2 3.8 0.3 7.7 0.4 11.6zm3.9 1.8c-0.7-0.7-1.8-1.4-2.8-1-1 0.5-1.1 1.7-1.1 2.8 0 2.2-0.1 4.3-0.1 6.5 1.5-0.5 3.1-1 4.6-1.5 0.7-0.3 1.6-0.6 1.9-1.3s0.1-1.5-0.3-2.2c-0.5-1.3-1.3-2.4-2.2-3.3zm0.9 21.3c1.1-1.4 1.2-3.4 0.7-5.1s-1.6-3.2-2.7-4.7c-1 0.4-2.3 0-3-0.8-0.7 1.3-1.5 2.8-1.4 4.3 0.1 0.9 0.4 1.8 0.7 2.6 0.8 2.4 1 4.9 0.7 7.4 1.4-1.5 3.7-2 5-3.7zm-3.6 12.9c0.9-1.9 1.2-4.2 0.6-6.2h-3.5c-0.9 3.7-2.2 7.3-3.7 10.7 0.6 0.3 1.4 0.1 2-0.2 2-0.8 3.7-2.3 4.6-4.3zm-8.2 7.6c-1 0.5-1.6 1.4-2.1 2.3-1.8 2.7-4.2 5-7.1 6.4 5.1-0.4 9.8-3.7 12-8.3-0.3-1-1.9-0.9-2.8-0.4zm-14.1 12l-0.6 7.8c1.8-1.9 3.1-4.3 3.8-6.8-1.1 0-2.3-0.4-3.2-1zm-2.9-0.5c-0.8 1-2.2 1.5-3.5 1.3 1.3 2.2 2.7 4.4 4 6.6-0.3-2.6-0.5-5.2-0.5-7.9zm53.9-67.5l-3.7-0.9m-95.4-13.7l-4 0.9" stroke="#fff" stroke-miterlimit="10" fill="none"/>
</svg>
