<?xml version="1.0" encoding="utf-8"?>
<!-- Generator: Adobe Illustrator 17.1.0, SVG Export Plug-In . SVG Version: 6.00 Build 0)  -->
<!DOCTYPE svg PUBLIC "-//W3C//DTD SVG 1.1//EN" "http://www.w3.org/Graphics/SVG/1.1/DTD/svg11.dtd">
<svg version="1.1" id="Layer_1" xmlns="http://www.w3.org/2000/svg" xmlns:xlink="http://www.w3.org/1999/xlink" x="0px" y="0px"
	 viewBox="0 0 400 400" enable-background="new 0 0 400 400" xml:space="preserve">
<path id="kissing_bug" fill="#3C3C3C" d="M206.4,55.2c0.9-3.1,2-6.1,2.8-9.2c0.4-1.3,0.9-2.6,1.5-3.5c0.9-1.1,2.2-1.7,3.5-1.5
	c1.7,0.2,2.8,2.2,3.5,3.7c1.5,3.7,2.4,7.9,2.4,11.8c5.5-12.2,12-24.2,19-35.8c4.6-7.4,10.7-13.3,18.5-16.8
	c7.2-3.5,15.5-3.1,23.3-2.4c7.2,0.4,14.4,0.9,21.4,3.1c6.8,2.2,12.9,6.1,16.6,12.2c-10.9-3.7-20.7-8.5-32.3-10.3
	c-5-0.7-9.8-1.1-14.8-0.9c-4.6,0-9.2-0.2-13.7,0.9c-5.2,7.4-10.5,15-15.7,22.5c-2.6,3.7-5.2,7.4-7.9,11.1c-1.1,1.5-2.4,3.1-3.1,4.8
	c-0.7,1.7-0.4,3.7-1.1,5.5c-0.4,1.7-2,3.5-3.5,4.4c-0.9,3.9-2,8.1-2.8,12c-0.4,1.7-0.9,3.7-0.2,5.5c0.7,1.5,2.4,2,3.3,3.3
	c2.2,2.8,1.7,7.2-0.7,9.8c-0.7,0.9-1.5,1.5-2.2,2.4c-2,2.4,0.4,6.1-2,8.7c-0.9,1.1-2.6,1.7-2.8,3.1c-0.4,1.5,1.3,3.1,3.1,3.1
	c1.5,0,7-3.7,5.7,1.1c-0.2,0.9-0.9,1.7-1.5,2.4c3.9,2.8,8.3,7.2,8.3,12.4c0,4.4,2.4,2.4,3.9,0.4c1.7-2.6,4.1-4.8,6.3-7.2
	c4.4-4.4,9.2-8.3,14.4-11.8c2.2-1.5,4.4-2.8,6.1-4.6c4.6-5,2.8-13.5,2.6-19.6c-0.2-7.6,0-15.3,0.2-22.7c0.2-7,0.4-14.2,1.5-21.2
	c0.4-2.8,0.7-4.6,0-7.4c-0.2-0.9-2.4-8.9-2-9.2c-1.5,0-3.1,0.4-4.4,0.7c0.7-2.4,3.5-3.9,6.1-3.3c1.5-1.3,3.9-2,5.9-1.5
	c-0.2,1.5-2,2.4-3.3,2c-1.1,2.2-0.7,4.8,0.2,7c0.9,2.2,2.4,4.1,3.3,6.3c2.2,5.9,1.5,11.8,1.1,17.9c-0.4,7-0.9,14.2-1.3,21.2
	c-0.2,5.2-0.4,10.7-0.7,15.9c0,2.6-0.2,5.2-0.2,8.1c0,1.3,0.4,4.4-0.2,5.7c-3.7,8.3-11.8,13.7-18.8,19.8c-4.4,3.7-8.1,8.9-11.8,13.5
	c6.1,5,12,12.6,13.5,20.5c1.7,8.5-1.3,18.3-3.3,26.6c15.7-5.9,31.8-10,48.4-12.9c3.5-0.7,8.1-1.7,9.6,2c1.7,4.4,2.6,9.2,3.5,13.7
	c2,9.4,3.5,18.8,4.4,28.1c0.4,3.7,0.9,7.4,1.1,10.9c0.2,3.3,0,7.4,0.9,10.5c0.9,2.8,3.1,2.6,5.7,3.5c3.1,1.1,5.9,2.2,8.5,3.9
	c8.9,6.1,8.5,16.8,7.4,26.4c-3.3,28.8-6.3,57.6-13.5,85.7c-2.2,8.3-4.6,16.4-6.8,24.6c-0.9,3.1-3.1,8.3-2.4,11.6
	c0.7,2.6,5,5,3.3,8.1c-0.9,1.3-2.8,1.5-4.4,0.7c-1.3-0.9-2.2-2.4-3.1-3.7c-1.3,1.3-2.6,2.6-4.4,2.6c-1.7,0.2-3.7-1.5-2.8-3.3
	c0.4-1.1,1.7-1.3,2.8-1.7c4.1-2,5.5-7,6.1-11.6l1.3-7.9c3.3-19,6.5-37.7,9.8-56.7c3.3-18.1,7-36.2,7.2-55c0-3.7-0.2-7.9-3.3-10.3
	c-2-1.5-4.6-2-7-2.2c-9.2-0.9-18.5-1.3-27.5-3.5c-9.2-2.4-18.3-5.2-27.7-7.6c1.3,6.5,3.3,12.9,4.1,19.4c1.1,7,1.5,14.2,1.5,21.4
	c0.2,14.2-1.3,28.4-4.1,42.1c-0.7,3.7-1.3,7.2-3.3,10.5c-2.2,3.5-3.9,7.4-6.1,10.9c-4.4,7-8.9,13.7-14.2,20.3
	c-4.4,5.5-8.9,10.5-14,15.3c-2.2,2.2-4.6,5-7.2,6.5c-2.8,1.5-5.2,2.2-7.4,5s-3.5,6.1-5.2,9.2s-4.4,5.9-7.9,6.5
	c-3.3,0.7-6.8-0.4-8.7-3.1c-1.7-2.2-2.4-5-3.3-7.6c-0.7-1.7-1.5-3.7-3.1-4.8c-2.6-2.2-5.7-3.9-8.5-6.3c-2.8-2.6-5.7-5.2-8.3-8.1
	c-5.2-5.7-10-11.8-14.2-18.1c-8.3-12.6-14.6-26.8-18.1-41.7c-7-29.2-3.7-60.9,9.2-87.9c-13.3-3.7-26-7.9-39.7-9.6
	c-3.1-0.4-6.3-1.1-9.4-1.1c-3.1,0.2-2.8,2.2-3.9,5l-6.5,18.3c-1.5,4.4-3.1,8.5-4.6,12.9c-0.7,2-1.5,4.4-1.1,6.3
	c0.4,2.2,2.6,4.1,4.8,3.5c-2,3.7-6.3,6.1-10.5,5.7c1.1-17.9,5-35.8,11.6-52.6c-2.8-0.4-5.9-0.9-8.5-1.3c-4.4,9.6-7.6,19.6-9.8,29.9
	c-3.7,16.8-4.4,34-5.2,51.3c-0.7,12.4-1.1,24.9-1.7,37.1c-0.2,5.2-0.2,10.3-1.5,15.3c-0.4,1.7-0.9,4.4,0,6.1
	c0.7,1.3,3.3,1.7,2.8,3.3c-0.2,1.3-2.8,2.6-3.7,3.1c-2,0.9-4.1,1.1-6.1,1.5c-1.3,0.2-2.6,0.4-3.9-0.2c-1.3-0.7-2-2.2-1.3-3.3
	c0.7-0.9,1.7-1.1,2.6-0.9c0.9,0.2,2,0.2,3.1-0.2c2.2-0.9,1.1-8.1,1.1-10c0-12-0.2-24,0-35.8c0.4-17.7,1.5-35.6,4.4-53.2
	c2.8-17,8.1-33.2,13.3-49.5c0.2-1.1,0.7-2,1.5-2.8c1.1-1.1,2.8-1.1,4.6-0.9c1.1,0,11.8,2.2,12.2,0.7c2.8-8.3,3.9-19,11.3-23.8
	s17-3.5,25.5-2c10.3,1.7,20.5,2.6,30.8,4.4v0.4c1.1-2.8-1.5-8.3-2.2-11.1c-0.9-3.9-1.5-7.9-1.5-12c0-4.8,2-9.2,4.8-13.1
	c2.6-3.9,5-7.2,8.5-10.5c-5.9-6.1-11.8-12.4-17.7-18.5c-3.9-4.1-7.9-8.5-10.3-13.7c-2.2-4.8-3.7-10.5-5.2-15.7
	c-3.5-12.2-5.5-24.6-5.7-37.3c-0.2-9.6,0.4-19.6-3.7-28.1c-0.2,1.1-2,1.3-2.6,0.2c-0.7-0.9,0-2.4,0.9-3.1c0.9-0.7,2.2-0.9,3.3-0.9
	c2.8-0.2,5.7-0.4,8.5-0.9c-0.2,1.1-0.2,2.2-0.4,3.3c-1.1,0.4-1.7,0.9-2.6,0.2c3.7,24.6,7.9,49.7,11.8,74.2
	c12.4,8.3,23.1,19.6,30.3,32.9c1.7-1.1,3.5-2.6,4.4-4.6c1.5-2.6,1.7-5.9,3.3-8.5c0.7-1.3,5.2-7.2,6.8-7c-1.7,0-3.1-1.7-3.1-3.3
	c0-1.7,1.5-3.1,3.3-3.1s3.3,1.3,3.3,3.1c0.9,0,2-0.4,2.6-0.4c-3.1-3.7-3.1-7.9-4.6-12c-1.3-3.5-2.6-7.6-0.9-10.9
	c1.3-2.6,4.4-4.4,5-7.4c0.4-2.4-1.1-4.6-2-6.8s-0.4-6.1,2-6.8c-4.4-2.8-7.4-6.8-8.1-12c-14.2-8.5-26.4-20.1-36.6-33.2
	c-4.1,2.4-9.6,1.3-14.4,0.2c-9.4-2.2-19.2-3.9-29-2.6c-3.9,0.4-8.3,0.7-12,2.2c10.5-4.8,22-7,33.4-6.1c4.1,0.4,8.5,1.1,12.6,2
	c3.7,0.7,7,1.1,10.5,2.4c16.1,5.9,29.4,17.7,38.6,32.1c4.8,2.2,8.1,7.4,8.1,12.6C205.8,55.2,206,54.7,206.4,55.2L206.4,55.2z
	 M255.9,199.8c4.8,5.2,8.5,11.6,10.7,18.5c1.7-0.2,3.5,0,5.5,0.2s3.9,0.4,5.9,0.9c12.6,1.7,25.1,4.1,37.3,8.1
	c-1.3-19.6-3.1-39.3-9.2-58c-9.4,4.8-19.2,8.5-29.2,10.9c-7,1.7-14,3.1-21.2,2.6C256.6,188.7,257,194.3,255.9,199.8L255.9,199.8z
	 M318.8,242.5c0.2,2,0.4,3.9,0.4,5.9v1.3c0,0-0.4,0.9-1.1,0.9c-0.2-0.4-0.7-0.9-1.1-1.1c-0.7,1.1-1.3,2.4-0.7,3.3
	c0.2,0.7,0.9,1.1,1.5,1.1c0.7,0.2,1.3,0.2,2,0.2c1.7,0,3.7,0.4,5.5,0.2c1.7-0.2,3.7-1.3,4.1-3.3c0.2-0.7,0-1.7-0.7-2
	c-0.9-0.2-1.7,0.7-2.6,0.4c-0.4-0.2-0.9-0.7-1.1-0.9c-1.1-1.7-1.5-3.9-1.3-6.1C322.2,243.2,320.5,243.2,318.8,242.5L318.8,242.5z
	 M166.1,188c-5.5,0.4-10.9-0.7-16.4-1.3c-11.3-1.5-23.1-0.9-34.2-4.4c-4.1,3.9-3.9,11.3-8.3,15.3c2.8,1.3,6.1,1.5,9.4,1.5
	c4.6,0.2,9.2,1.1,13.7,2.2c2,0.4,3.9,0.9,6.1,1.5c3.3,0.9,6.8,1.5,10,2.4c3.7,0.9,7.6,2,10.5,4.4c0.2-0.2,0.2-0.4,0.4-0.7
	C161.5,202.4,165.4,195.9,166.1,188L166.1,188z M144.1,249.3c2.8,2,6.3,2.8,9.6,3.3c2.6,0.4,5.2,0.4,7.6,0.4c1.5,0,2,0.2,2.4-1.1
	c0.2-0.9,0-2.4,0-3.5c0-4.6,0.2-8.9,0.4-13.5c0.2-2.4,0.2-4.6,0.4-7c0-1.1,0.2-1.7-0.2-2.6c-0.4-0.7-2.4-1.3-3.1-1.7
	c-0.7,0-1.5-0.2-2.2-0.2c-0.4,0-0.9,0-1.3-0.2c-0.9-0.4-1.7-0.9-2.4-1.7h-1.1C150.8,231.2,146.9,239.7,144.1,249.3L144.1,249.3z
	 M155,220.9h1.3c0.2,0.4,0.7,0.7,1.3,0.9c2,0.7,3.9,1.1,5.9,1.7c0.4,0.7,0.9,0.7,1.5,0.4c0,0.2,0.2,0.4,0.2,0.9
	c1.3-11.6,2.2-23.3,2.4-34.9c-3.7,10.5-8.3,20.7-13.1,30.5C155,220.7,154.7,220.7,155,220.9z M163,253.2c-6.1-0.2-12.2-1.1-18.1-2.8
	V250c-2.4,9.8-3.5,20.5-3.3,30.8c7.4,0,14.8,0.9,22.2,0.7c-1.1-9.2-1.3-18.5-0.7-27.7C163,253.2,163,253.7,163,253.2L163,253.2z
	 M156.1,281.4c-4.8,0.2-9.6,0-14.6,0V281c0,14,2.6,27.5,7.6,40.6c6.5-0.9,13.1-2.2,19.4-3.9v-1.3c-1.5-11.3-3.1-22.9-4.4-34.2
	C161.5,280.9,158.7,281.4,156.1,281.4z M173.5,336.1c-1.5-4.1-2.8-8.3-3.9-12.6c-0.2-1.3-0.4-3.9-1.7-4.6c-1.3-0.4-4.8,0.9-6.1,1.1
	c-4.1,0.7-8.5,1.3-12.6,2.6c0.7,2.4,1.7,4.1,2.8,6.3c1.5,3.3,3.1,6.8,4.8,9.8c0.7,1.3,7.4,14.6,8.5,14.2c0.2,0,0.4-0.2,0.7-0.2
	c3.5-2.8,8.1-4.6,12.6-4.8C177.6,347.9,174.2,337.4,173.5,336.1L173.5,336.1z M167.2,352.5c-0.4,0.4-1.1,0.7-1.3,1.3
	c-0.2,0.7,0.2,1.3,0.7,2c7.9,10.5,16.8,19.6,27.5,27c2.2-3.1,4.1-5.9,6.3-8.9c-8.1-7.4-15.3-15.9-21.6-24.9
	C174.8,349.4,170.7,350.3,167.2,352.5z M204.7,374.9c-1.1,0-2.6-1.1-3.7-0.7c-0.7,0.2-1.1,0.9-1.5,1.5l-3.3,4.6
	c-0.4,0.7-0.7,1.1-0.9,1.7c-0.4,2.2,1.5,5.7,2.4,7.6c0.9,2,1.5,3.9,2.8,5.7c1.3,1.7,3.1,3.1,5.2,3.5c2.2,0.4,4.6-0.4,6.3-2
	c1.7-1.3,3.1-3.3,4.4-5.2c2.6-3.9,5.5-8.1,7.9-12.2c-2-2.8-3.7-5.7-5.7-8.3c-2.8,0.2-5.7,1.5-8.3,2.6
	C208.4,374.5,206.4,375.1,204.7,374.9L204.7,374.9z M224.8,379.3c3.5-0.4,6.3-2.8,8.9-5.5c6.5-6.3,12-13.5,17.2-20.9
	c-1.7-0.4-3.3-0.9-5-1.1c-0.9-0.2-2-0.4-2.8-0.2c-0.9,0.2-1.7,0.9-2.4,1.5c-7,5.9-14,12-20.7,17.9
	C221.3,373.8,222.6,376.9,224.8,379.3L224.8,379.3z M246.8,343.7c-1.1,1.7-3.7,4.6-3.9,6.8c2.6,0.2,5.2,0.7,7.6,1.7
	c0.7,0.2,1.3,0.7,2,0.7c1.7,0,4.4-5,5.5-6.5c1.7-2.6,3.5-5.2,5-8.1c1.5-2.8,3.1-5.7,4.1-8.5c0.2-0.7,3.1-8.3,3.1-8.3
	c-4.1-0.2-8.3,0-12.4,0.2c-0.7,0-1.5,0-2.2,0.4c-1.7,0.9-2,4.8-2.6,6.5c-0.9,2.4-1.7,5-2.8,7.4C249.6,338.5,248.3,341.1,246.8,343.7
	L246.8,343.7z M272.1,321.3v0.7c2.2-12.2,3.5-24.6,4.4-36.9c-6.8,0-13.7,0-20.5,0.2c-0.9,2.6-1.7,5-3.1,7.2
	c2.4,4.1,3.5,9.2,3.7,14.2s-0.4,9.8-0.9,14.6C261.2,320.4,266.8,320.2,272.1,321.3L272.1,321.3z M256.6,283.1
	c-0.2,0.4-0.2,0.9-0.2,1.3c6.1,0.7,12.2,0.2,18.3,0c0.7,0,1.3,0,2-0.4s0.9-0.9,0.4-1.3c1.1-9.8,0.7-19.8-1.1-29.4
	c-5.5,3.3-11.6,5.5-17.7,6.5c-1.3,8.1-2,16.1-1.7,24.2 M256.8,249.1c0.2,2-0.7,9.4,2,10c0.9,0.2,1.7,0,2.4-0.4
	c3.5-1.3,7-2.6,10.7-3.9c0.9-0.4,2-0.7,2.6-1.5c3.5-3.5-7.2-29.9-7.2-29.9c-2.6,1.1-5.2,2.4-7.6,3.9c-1.3,0.9-2.6,2-3.5,3.5
	s-0.7,3.5-0.7,5.5C256.4,240.3,256.6,244.7,256.8,249.1L256.8,249.1z M255.5,230.5h0.4c2.4-2.2,5-4.1,8.1-5.7c0.9-0.4,2-1.1,2.6-1.7
	c2.4-2.8-2.6-10-3.9-12.6c-1.3-2.2-2.6-4.4-4.1-6.3c-0.9-1.1-4.4-4.1-4.4-5.2C254.2,201.3,256.4,230.5,255.5,230.5L255.5,230.5z
	 M210.1,225.7c12.4-25.3,26.6-49.5,44.3-71.3c-25.7,15.3-59.5,15.7-85.7,0.9C183.5,178.6,197.9,200.9,210.1,225.7z M202.1,188.7
	c3.9,8.5,6.8,18.1,9.2,27c5.2-17.4,13.1-34.2,24.4-48.6c-15.7,7.4-34.5,8.1-50.8,2C192.3,174.7,198.1,180.4,202.1,188.7L202.1,188.7
	z M254.9,302.7c-4.8-24.2-24.6-41.2-36-62.2c-2.8-5.2-4.1-11.6-7.4-16.4c-5-7.4-7.9,2.2-10.5,6.8c-8.1,14.2-16.4,28.6-24.4,42.7
	c-3.7,6.3-7.2,12.9-9.2,19.8c-2.8,11.3,1.3,25.3,5.2,36.2c4.4,12,10.3,23.6,18.3,33.6c3.3,4.1,7.4,7.9,12.2,9.8
	c9.6,3.5,20.1-3.3,27-9.4c16.6-14.8,28.4-37.1,24.9-59.1C255.1,304.3,254.9,303.4,254.9,302.7z M232,292c-0.9-4.8-3.3-8.9-5.7-13.1
	c-8.1-14.2-16.1-28.6-24.2-42.7l-10.5,16.4c9.2,17.7,18.1,35.3,27.3,53c1.5,3.1,4.8,6.8,7.9,5.2C231.3,305.6,233.3,298.6,232,292
	L232,292z M217.3,308.8c-10.7-15.9-18.5-33.4-25.1-51.3c-3.9,9.4-9.8,17.9-17.2,24.9c6.8,21.8,16.4,42.7,28.4,62.2
	c1.3,2.2,2.8,4.4,5.2,4.8c3.5,0.7,6.3-2.8,8.1-5.9c4.1-6.8,8.5-14.2,7-22C223,316.7,220,312.8,217.3,308.8L217.3,308.8z
	 M214.9,244.3c-1.3-5-2.6-9.8-3.9-14.8c-1.5,1.7-2.8,3.5-4.4,5.2c3.3,10.5,10.3,19.2,16.1,28.4c6.1,9.2,11.6,19.2,11.6,30.1
	c0,9.6-4.1,18.8-7.2,27.9s-4.8,19.2-11.3,26.4c-2,2.2-4.1,3.9-5.7,6.3c-1.5,2.4-2.2,5.7-0.7,8.1c2.2,3.7,7.9,3.3,12,1.5
	c12.2-5,21.4-16.4,25.1-29c3.7-12.6,2.6-26.4-1.3-39c-4.1-12.6-10.9-24-18.8-34.7c-6.3-8.5-13.3-17-15.5-27.3 M199.9,366.6
	c3.5,0.9,6.5-2.8,6.5-6.3s-2-6.8-3.7-9.6c-12.2-19.4-22.5-40.1-30.3-61.7c-1.5,26.4,6.8,53.4,23.1,74.2
	C196.6,364.7,197.9,366.2,199.9,366.6L199.9,366.6z M192.5,222c-4.6-19.4-12.2-38.2-22.5-55.4c5.5,13.1,4.8,27.9,5.9,42.1
	c0.9,14.2,3.9,29.4,14.2,39.3C195.7,241,194.4,230.8,192.5,222L192.5,222z M177.6,233.4c-2.6,16.8-5.5,33.6-8.1,50.4
	c5.9-10.9,11.6-22,17.4-32.9C184,245.1,180.9,239.3,177.6,233.4L177.6,233.4z M231.5,213.3c-1.7,4.8-3.5,9.6-3.9,14.6
	c-0.7,8.3,2.4,16.4,5.5,24.2c14.2-23.3,10.5-52.8,17.7-79C243.3,185.8,236.8,199.3,231.5,213.3L231.5,213.3z M242.4,252.3v-15.5
	l-9.2,20.9c4.6,5.9,9.2,11.8,13.7,17.7c-2.2-11.3-3.7-22.7-4.6-34.2 M251.1,287.2c3.3-34.9,3.7-70,0.9-104.9
	C243.5,216.6,243.1,252.8,251.1,287.2z M166.3,279.8c8.1-28.4,9.8-58.5,4.6-87.5C168.5,221.4,167,250.6,166.3,279.8z M187.5,192.4
	c3.1,12.6,6.1,25.5,9.4,38.2c2.2-2.8,4.6-5.9,4.4-9.4c0-2-1.1-3.9-2-5.7C195.3,207.6,191.4,200,187.5,192.4z M214.7,223.8
	c0.4,3.1,3.5,5.9,6.3,5c4.6-18.3,12-36,21.8-52.1c-10.7,11.3-19.4,24.4-26.2,38.4C215.6,217.9,214.3,220.7,214.7,223.8z
	 M217.6,233.4c2,7.2,6.5,13.5,11.1,19.6h1.5c-2.4-7.2-4.6-14.4-7-21.4C221.7,232.7,219.7,233.4,217.6,233.4z M214.7,107.1
	c-1.7,18.3-2,36.9-0.2,55.2c4.6-0.9,9.6-2.8,11.3-7c1.3-2.8,0.9-6.1,0.2-9.2C223.9,132.6,220,119.5,214.7,107.1L214.7,107.1z
	 M198.6,157c4.1-0.7,8.3,0.2,12,2c-1.3-18.3,0.2-36.4,2-54.7c-5.9,7-8.3,16.1-10.5,24.9C199.7,138.3,197.3,147.7,198.6,157
	L198.6,157z M189.6,155.3c0.9-0.9,1.3-2,1.7-3.3c4.4-14.8,8.7-29.4,13.1-44.3c-2,0.4-3.9-0.4-5-2.2c-8.9,16.6-18.1,32.9-27.3,49.5
	c4.4,0.4,8.5,0.9,12.9,1.1C186.6,156.4,188.5,156.4,189.6,155.3z M222.4,107.1c0.7,17.2,4.1,34.5,10.3,50.6c5-0.9,9.6-3.7,12.9-7.4
	c0.9-1.1,1.7-2.4,2-3.7c0.4-2.2-0.9-4.4-2-6.1C238.5,128.7,231.5,116.9,222.4,107.1z M167,204.6c-2.8,1.5-4.6,5-5,8.3
	s0.2,6.5,0.9,9.8h1.3C165,216.6,166.1,210.5,167,204.6z M153.7,242.1c0.7,2.6,2.4,4.8,3.9,7c1.1,1.5,2.8,3.3,4.8,2.6
	c-0.2-7.6-0.7-15.5,1.3-22.9c-3.3,0-6.3,1.7-8.3,4.1C153.4,235.3,152.8,239,153.7,242.1L153.7,242.1z M161.7,277.2
	c0.2-0.2,0.2-0.7,0.2-1.1c0.2-7.4,0.7-14.8,0.9-22.2c-2.8,0.9-6.1,0.9-8.9-0.2c-2.4,3.1-4.8,6.3-5.7,10.3s0,8.3,3.1,10.7
	c2.4,2,5.5,2.4,8.5,2.8C160.6,277.6,161.3,277.6,161.7,277.2L161.7,277.2z M157.6,282.2c-1.1-1.1-2.8-1.1-3.9-0.4
	c-2.2,3.9-3.7,8.5-3.7,13.1s1.5,9.2,4.6,12.6c3.1,3.5,7.9,5.5,12.2,4.8c-1.3-10-2.4-20.3-2.8-30.3
	C160.2,282,161.1,282.2,157.6,282.2L157.6,282.2z M160.6,327.2c0,2.8,0,5.7,0.9,8.3c1.7,5.9,8.3,10,14.4,9.4
	c-2.4-9.4-4.8-19-7.2-28.4c0.2,1.1-0.9,2.2-2,2.6s-2.4,0.4-3.3,1.1C160.9,321.3,160.6,324.5,160.6,327.2z M173.5,351.4
	c3.7,11.1,13.7,19.8,25.3,22c-6.3-8.5-12.6-16.8-19-25.3C178.3,350.1,175.9,351.4,173.5,351.4z M255.1,207
	c0.7,7.2,0.9,14.6,0.7,21.8c1.5-0.2,3.1-1.3,3.7-2.8c0.7-1.5,0.9-3.1,0.9-4.8c-0.2-4.4-1.7-8.7-4.4-12c-0.2-0.2-0.7,0-0.7,0.2
	C254.9,207.4,255.7,209.2,255.1,207z M257.9,256.5c2.2-1.5,4.1-3.3,5.7-5.5c1.5-2.2,2.6-4.8,2.4-7.4c-0.2-2.6-1.3-5-3.1-7.2
	c-1.7-2.2-3.7-3.7-5.9-5.2C257.5,239.5,257.7,248,257.9,256.5L257.9,256.5z M266.4,260.4c-1.5-1.5-3.9-3.1-6.1-2.2
	c-2.2,1.1-2.4,3.7-2.4,6.1c0,4.8-0.2,9.4-0.2,14.2c3.3-1.1,6.8-2.2,10-3.3c1.5-0.7,3.5-1.3,4.1-2.8c0.7-1.5,0.2-3.3-0.7-4.8
	C270.1,264.8,268.4,262.4,266.4,260.4z M268.4,306.9c2.4-3.1,2.6-7.4,1.5-11.1s-3.5-7-5.9-10.3c-2.2,0.9-5,0-6.5-1.7
	c-1.5,2.8-3.3,6.1-3.1,9.4c0.2,2,0.9,3.9,1.5,5.7c1.7,5.2,2.2,10.7,1.5,16.1C260.5,311.7,265.5,310.6,268.4,306.9L268.4,306.9z
	 M260.5,335c2-4.1,2.6-9.2,1.3-13.5h-7.6c-2,8.1-4.8,15.9-8.1,23.3c1.3,0.7,3.1,0.2,4.4-0.4C254.9,342.6,258.6,339.4,260.5,335z
	 M242.6,351.6c-2.2,1.1-3.5,3.1-4.6,5c-3.9,5.9-9.2,10.9-15.5,14c11.1-0.9,21.4-8.1,26.2-18.1C248.1,350.3,244.6,350.5,242.6,351.6z
	 M211.9,377.8l-1.3,17c3.9-4.1,6.8-9.4,8.3-14.8C216.5,379.9,213.8,379.1,211.9,377.8L211.9,377.8z M205.6,376.7
	c-1.7,2.2-4.8,3.3-7.6,2.8c2.8,4.8,5.9,9.6,8.7,14.4C206,388.2,205.6,382.6,205.6,376.7L205.6,376.7z M323.1,229.4l-8.1-2
	 M107,197.6l-8.7,2"/>
</svg>
