<?xml version="1.0" encoding="utf-8"?>
<!-- Generator: Adobe Illustrator 17.1.0, SVG Export Plug-In . SVG Version: 6.00 Build 0)  -->
<!DOCTYPE svg PUBLIC "-//W3C//DTD SVG 1.1//EN" "http://www.w3.org/Graphics/SVG/1.1/DTD/svg11.dtd">
<svg version="1.1" id="snailSVG" xmlns="http://www.w3.org/2000/svg" xmlns:xlink="http://www.w3.org/1999/xlink" x="0px" y="0px"
	 viewBox="0 0 1280 800" enable-background="new 0 0 1280 800" xml:space="preserve">
<g id="snailbodyCombined">
	<path id="snailbody" fill="#C9C9C9" d="M0,669.1c83.1-15.7,165-37.2,244.8-64.5c-41.8-69.9-55-156.7-36.4-236.1
		s69.5-150.9,138.1-194.7c70.7-45.1,157.9-64.1,241.4-57.9c57.1,4.1,111.6,23.6,159.2,55c52.5,34.3,83.9,78.6,118.7,129.8
		c7.4,11.2,17.4,22.3,24.4,33.5c8.7,14.1,12,29.8,24.4,42.2c5,5.4,11.2,9.5,15.3,15.3s6.6,14.1,3.3,20.3c-2.1,3.7-5.4,6.6-6.6,10.7
		c-0.8,4.1,3.7,9.1,7,6.6c60.8,12.4,114.1,15.7,176.1,15.7c14.9-57.9,29.8-115.8,44.7-173.6c2.5-8.3,16.5-5.8,19.8,2.5
		s-0.8,17-3.7,25.2c-14.9,36.8-31,99.6-4.5,134.4c24-81.9,50.9-162.9,81-243.1c2.5-6.6,5.4-13.6,11.2-17.4
		c6.6-4.1,16.5-2.5,20.3,4.1s-1.2,17-8.7,17c-21.9,50.4-38.9,104.6-50,158.3c-7.4,36.4-12.4,74-8.3,110.8
		c2.1,18.2,6.2,36.8,15.3,52.9c7.4,14.1,30.6,28.9,29.4,44.7c0,1.2,38,0.8,17.4,15.7c-13.2,9.5-24,4.1-33.1,19.4
		c-9.1,14.9-7.9,33.1-7.9,50c-4.1,2.9-9.5,4.1-14.9,3.7c-2.1-0.4-15.3,17.4-19.8,19c-15.3,5.8-44.7,1.2-61.6,2.1
		c-46.7,2.5-93.4,5-139.7,7c-38.4,2.1-76.9,1.7-115.3,2.9c-44.7,1.2-89.3,0.4-134-0.8c-42.6-1.2-83.9,2.9-126.5,5.4
		c-68.6,4.1-137.3,6.2-205.9,6.6c-137.3,0.4-274.9-7-411.4-22.3"/>
	<g id="Hat">
		<path fill="#4196D2" d="M1256,437.6c-5,12-21.5,6.2-28.5,6.2c-46.3-1.2-92.6,1.2-139.3,2.1c-25.2,0.4-50.4,0-75.2-1.7
			c-12.4-0.8-25.2-2.1-38-4.1c-5.8-0.8-12-2.1-18.2-2.5c-5.8-0.4-9.5-4.5-14.9-6.6c13.6,5,27.3-2.1,40.1-9.1
			c7.4-3.7,14.9-8.3,21.9-12.8c42.6-26.5,83.1-62,127.8-80.2c21.9-9.1,44.2-13.6,66.6-18.2c8.3-1.7,16.5-3.3,24.4,0
			c9.5,4.1,19.4,17.4,17,35.1c-0.8,7.4-3.3,14.1-5.8,20.3c-5.4,14.9-14.5,26-18.2,42.6C1215.5,412.4,1263.9,417.8,1256,437.6z"/>
		<path fill="#FCED27" d="M1229.1,378.1c0.8-1.7,1.2-2.5,1.2-2.9c1.7-3.7,3.3-7.4,4.5-11.2c1.2-3.3,2.1-6.2,2.9-9.5
			c1.7-6.2,2.5-12.8,1.2-19c0,0.4-1.2,0.8-1.7,1.2s-1.2,0.8-1.7,1.7c-1.2,1.2-2.1,2.1-3.3,3.3c-2.1,2.5-3.7,5.4-5,7.9
			c-4.5,8.7-5,12.4-5,17.4s-0.8,10.3,0.4,15.3c0.4,1.7,0.8,3.3,2.5,4.1C1225.4,385.9,1227.5,381,1229.1,378.1z"/>
		<path fill="#CE2524" d="M998,412.8c17.4-5,35.1-7.9,52.9-9.5c33.5-3.3,67.4-2.9,100.9-2.5c10.7,0,21.5,0,32.2-0.4
			c5.4,0,10.7,0,16.1-0.4c2.5,0,5.4,0,7.9,0c1.7,0,3.3,0,5,0s3.3-0.4,5,0c0,0-1.2,3.7-1.2,4.1c-0.4,1.7-0.8,3.3-1.2,5
			c-4.5,0.4-8.7,1.2-13.2,1.2c-2.9,0-5.4,0-8.3,0.4c-8.3,0.4-16.5,0-25.2,0c-17-0.4-33.5-2.1-50.4-3.3c-33.1-2.5-67-4.5-100.1,0.8
			C1012.1,409.9,1004.7,411.2,998,412.8z"/>
	</g>
	<path fill="#C9C9C9" d="M1117.9,418.6c-2.5,10.3-5,20.3-7.4,30.6c-0.4,1.7-0.8,3.7-1.7,5.4c-0.8,1.7-1.2,3.7-1.7,5.4
		c-2.9,9.5-3.3,19.4,0,28.9c4.5,13.6,17,24.4,31.4,26c10.3,0.8,21.1-3.7,27.3-12c1.7-2.1,2.9-4.5,4.1-7c2.9-7.4,3.3-15.3,3.3-23.6
		c0-5-0.4-9.9-1.2-14.9c-0.8-4.5-1.7-10.3-3.7-14.5c-3.7-8.3-9.1-15.7-12-24.4c-2.9-8.7-4.1-18.6-3.7-27.7
		c0.4-15.7,2.5-30.6,5.8-45.9c2.9-14.1,7-27.7,12-41.3c2.5-7,8.7-19.8,5-26.9c-2.9-5.8-11.6-8.7-16.5-4.5c-2.9,2.5-4.1,6.2-5.4,9.5
		c-5.4,16.1-9.5,32.7-13.6,49.6c-5,20.3-9.9,40.1-14.9,59.9C1122.5,400.4,1120,409.5,1117.9,418.6z"/>
</g>
<g id="Shell_1_">
	<path fill="#BCBCBC" d="M344,665.4c-5.8-2.1-11.6-4.5-17.8-7c-44.2-19.8-81.9-54.2-105-96.7c-48.8-90.1-26.5-212.1,22.7-296.8
		c40.1-69,111.6-114.9,186.9-138.1c87.6-26.9,175.7-28.5,260.5,8.3c47.5,20.7,91.8,46.7,124.9,87.2c9.1,11.2,18.2,21.9,26.9,33.1
		c11.6,14.9,20.7,31.8,32.2,46.7c11.6,14.9,21.5,31,29.4,48c3.3,7,6.2,14.1,11.2,19.8c5,5.8,11.2,9.5,16.5,14.5
		c4.1,3.7,7.9,9.1,7.9,14.5c0,8.3-7,14.9-14.1,19.4c-11.2,7-24,11.6-37.2,13.6c-12.4,1.7-23.6,7.9-35.6,12
		c-28.5,9.9-57.5,20.3-86,30.2c-23.2,8.3-46.3,16.5-69.5,24.4c-16.1,5.8-32.7,11.6-44.2,24c-14.1,15.3-18.2,36.8-26.9,55.4
		c-26,55-90.1,79.8-150.1,91.4C429.1,679.1,387.8,680.3,344,665.4z"/>
	<path opacity="0.6" fill="none" stroke="#C9C9C9" stroke-miterlimit="10" enable-background="new    " d="M653.6,525.7
		c23.6-59.5,25.6-128.2,2.1-188.1s-72.8-109.1-134-129s-132.3-8.3-181.5,33.1c-17,14.1-31,31.4-41.3,50.4
		c-17.8,33.1-24.8,72.4-15.7,108.7c9.1,36.4,33.9,69,67.8,84.3s76.9,12,106.3-11.2c14.1-10.7,24.8-25.6,32.7-41.3
		c17.4-33.9,23.6-75.2,7.4-110c-14.1-29.8-43.8-50.9-76.5-54.6c-32.7-3.3-66.1,11.2-86,37.2c-10.7,14.1-17.4,31.4-16.5,49.2
		c1.7,28.5,25.6,54.2,54.2,57.1c28.5,2.5,57.1-19.4,61.2-47.5s-18.6-57.9-47.1-60.4c-13.2-1.2-27.3,3.3-36.4,13.2
		c-8.7,9.9-10.7,26-3.3,37.2c7.4,11.2,24.4,14.9,35.1,6.6c6.6-5,9.5-15.3,5-21.9s-17.8-5.8-19.4,2.5"/>
</g>
</svg>
