<?xml version="1.0" encoding="UTF-8" standalone="no"?>
<!-- Generator: Adobe Illustrator 18.0.0, SVG Export Plug-In . SVG Version: 6.00 Build 0)  -->
<!DOCTYPE svg  PUBLIC '-//W3C//DTD SVG 1.1//EN'  'http://www.w3.org/Graphics/SVG/1.1/DTD/svg11.dtd'>
<svg id="TAMU" xmlns="http://www.w3.org/2000/svg" xml:space="preserve" viewBox="0 0 412.6 63.1" version="1.1" y="0px" x="0px" xmlns:xlink="http://www.w3.org/1999/xlink" enable-background="new 0 0 412.6 63.1">
	<rect y="0" x="99.9" height="63.1" width="1.6" fill="#fff"/>
<polygon points="71.7 21.1 64.5 21.1 64.1 21.1 63.9 21.5 58.7 32.3 53.5 21.5 53.3 21.1 52.9 21.1 45.9 21.1 45.3 21.1 45.3 21.7 45.3 25.4 45.3 26.1 45.9 26.1 47.1 26.1 47.1 41.6 45.8 41.6 45.2 41.6 45.2 42.3 45.2 46 45.2 46.6 45.8 46.6 53.6 46.6 54.3 46.6 54.3 46 54.3 42.3 54.3 41.6 53.6 41.6 52.3 41.6 52.3 30.6 58.1 42.6 58.7 43.8 59.3 42.6 65.2 30.6 65.2 41.6 63.9 41.6 63.2 41.6 63.2 42.3 63.2 46 63.2 46.6 63.9 46.6 71.7 46.6 72.3 46.6 72.3 46 72.3 42.3 72.3 41.6 71.7 41.6 70.3 41.6 70.3 26.1 71.7 26.1 72.3 26.1 72.3 25.4 72.3 21.7 72.3 21.1" fill="#fff"/>
<path d="m26.4 41.6h-2.1l-6.7-15.6h1.3v-5h-10.8v5h1.5l-6.8 15.6h-2.8v5.1h9.9v-5.1h-1.5l1.1-2.6h8.1l1.1 2.6h-1.5v5.1h9.9v-5.1h-0.7zm-11-7.6h-3.8l1.9-4.4 1.9 4.4z" fill="#fff"/>
<path d="m63.4 1.6h-55.4v16.2h11v-6.2h11.7v38.4h-6.2v11h23.3v-11h-6.2v-38.5h11.6v6.2h11.1v-16.1h-0.9zm-20.2 52.9l2.3-2.4v6.5l-2.3-2.2v-1.9zm-3.9-2.2l-2.3 2.3v-47.6l2.3 2.3v43zm-26.7-46.1l-2.4-2.3h50.5l-3 2.3h-45.1zm49.4 9.3l-2.3-2.2v-5.8l2.3-2.4v10.4z" fill="#fff"/>
		<path fill="#fff" clip-rule="evenodd" d="m175.2 59.1c-1.1-2.5-2.7-5.3-3.2-8.1-1.4 0.1-1.4 2-1.8 3.1-1.1 2.5-2.1 5.4-3.4 7.8-0.4 0.1-0.6 0.1-1.1 0.2v0.8h4v-0.8c-0.5 0-0.9 0-1.2-0.2-0.2-0.9 0.2-1.4 0.3-2.3h4c0.1 0.5 0.3 1.1 0.6 1.4 0 0.5-0.1 0.8-0.2 1.1h-1.2v0.8h5.5v-0.8c-1.8-0.2-1.7-1.7-2.3-3zm-2.7-0.3h-3.2c0.4-1.4 1.2-2.5 1.4-4 1 0.5 1.1 2.9 1.8 3.8v0.2zm39.8 0.1c-1.1-2.6-2.2-5.3-3.2-7.9-1.4 0.1-1.4 2.1-1.8 3.2-1.1 2.6-2.1 5.5-3.5 7.8h-0.8v0.8h3.8v-0.8h-0.9c-0.1-0.2-0.1-0.2-0.3-0.3 0-0.9 0.2-1.3 0.3-2h0.2v-0.2c1.2 0 3-0.2 4 0.2 0.1 0.4 0.2 0.8 0.5 1.1 0 0.5 0 0.9-0.2 1.2h-1.1v0.8h5.3v-0.8c-0.4 0-0.6 0-0.8-0.2-1-0.4-1-1.9-1.5-2.9zm-2.7-0.1h-3.2c0.5-1.3 1-2.6 1.5-4 0.9 0.8 0.9 2.7 1.7 3.7v0.3zm20.5 2.6c-0.2 0.2-0.4 0.2-0.8 0.3-0.7-0.6-1.3-0.7-1.7-1.5-0.2-0.3 2.1-3.7 3.2-3.8v-0.8h-3.5v0.8c0.4 0 0.5 0.1 0.8 0.2 0.1 0.3 0 0.1 0.2 0.3-0.1 1.3-0.8 1.6-1.1 2.6h-0.3c-0.5-1-1.6-2.5-2.4-3.2v-0.3c1.1-0.5 1.3-1.2 2-2.1 0-0.6 0-1-0.3-1.4-0.3-0.9-1-0.9-1.7-1.4-1.6 0-1.9 0.5-2.7 1.1-0.5 2-0.4 2.6 0.5 4.3-0.8 0.4-1.7 1-2.1 1.7-2.7 4.1 3.6 6.7 6 3.5 0.8 0.3 1.2 1.1 2 1.4 2 0.8 3.2-1 3.4-2.6h-0.8c-0.4 0.3-0.5 0.6-0.7 0.9zm-6.6-9.5c0.4 0 0.8 0 1.1 0.2 0.2 0.1 0.3 0.1 0.5 0.2 0.4 1.5 0.1 2.5-1.2 3.1-0.3-0.5-0.6-1.2-0.9-1.7-0.1-1.2 0.1-1.3 0.5-1.8zm2.1 9c-0.7 0.4-1.8 1.2-2.7 0.5-0.7-0.2-1.2-0.8-1.4-1.5-0.2-0.3-0.4-0.9-0.2-1.2 0.1-1 0.6-1.1 1.1-1.7 1.4 0.9 1.9 2.9 3.2 3.8v0.1zm-84.6 0.6c-1.1 0.3-2.7 0.3-4 0.2v-0.2c-0.6-0.7-0.3-3-0.3-4.3 1 0 1.8 0 2.4 0.3 0.1 0.4 0.2 0.7 0.3 1.1h0.8v-3.8h-0.9c0 0.4 0 0.7-0.2 0.9v0.3c-0.7 0.1-1.6 0.2-2.4 0.2v-4c3.1-0.1 4-0.3 4.9 2h0.8c-0.1-1-0.1-2-0.2-3.1h-9.6v0.9c0.4 0 0.7 0 0.9 0.2 0.4 0.1 0.3 0.2 0.6 0.3 0.4 1.9 0.2 4.5 0.2 6.6 0 0.9 0.1 2-0.3 2.4v0.3c-0.5 0.1-0.9 0.1-1.4 0.2v0.9c2.6 0 8.4 0.5 10.4-0.2v-3.8h-0.8c-0.1 1.3-0.7 1.8-1.2 2.6zm45.4-6.2c-0.7-0.4-2.4-1-1.7-2.3 0.2-0.7 0.6-0.7 1.1-1.1 2.1-0.1 3.3 1 3.5 2.7h0.8v-3.2h-0.8c-0.1 0.3-0.1 0.6-0.2 0.9-0.8-0.3-1.2-1-2-1.2-2.5-0.7-5.1 1.4-4.4 3.8 0.7 2.5 3.5 2.7 5.3 4 0.3 0.4 0.5 0.7 0.8 1.1 0 0.6-0.1 0.9-0.3 1.2-0.3 0.5-0.7 0.6-1.1 0.9-2.4 0.1-3.8-1.4-4-3.5h-0.8v4h0.8c0-0.5 0.1-0.8 0.3-1.1 0 0 3.1 2.2 4.6 1.2 1.7-0.3 1.8-1.6 2.6-2.7 0-3-2.5-3.7-4.5-4.7zm167.4 5.8c-1-1.3-1.5-3-2.9-3.8 0.5-0.9 1.7-0.7 2.1-1.8 0.8-1.1 0-2.5-0.6-3.1-1.7-1.7-6.1-1.3-9.5-1.2v0.9c0.5 0 1 0 1.2 0.2h0.3c0.2 1.1 0.8 7.7 0.2 8.7-0.1 0.7-0.2 0.7-0.5 1.1h-1.2v0.8h5.8v-0.8c-0.4 0-0.8 0-1.1-0.2-0.2-0.1-0.3-0.1-0.5-0.2-0.2-1.1-0.2-2.7-0.2-4h2c0.6 0.3 2.9 4.3 3.4 5h3.1c-0.1-1-1.1-0.9-1.6-1.6zm-3.8-4.8c-0.8 0.2-1.7 0.3-2.9 0.3v-4.6c3.1-0.3 4.8 1.6 2.9 4.3zm14-1.2c-0.8-0.4-2.2-1.3-1.2-2.4 0.4-0.9 1.5-0.7 2.6-0.6 0.8 0.8 1.4 1.2 1.8 2.4h0.8v-3.2h-0.8c-0.1 0.4-0.1 0.7-0.2 1.1-0.8-0.3-1.2-1-2-1.2-3-0.9-4.5 1.5-4.4 4 0.5 0.6 0.8 1.4 1.4 1.8 1.3 1 3.1 1.7 4.4 2.4 0.2 0.7 0.4 1.1 0 1.7-0.2 0.7-0.6 0.7-1.1 1.1-2.8 0.1-3.4-1.5-4.1-3.5h-0.6v4h0.8c0.1-0.4 0.1-0.7 0.2-1.1 0.6 0.2 0.8 0.6 1.2 0.9 1 0.6 2.2 0.5 3.5 0.5 0.9-0.9 2-1.1 2.4-2.6 0.9-3.3-3.1-4.4-4.7-5.3zm-247.9-0.6h0.9c0-1.1 0.2-1.4 0.6-2 0.8-0.2 1.7-0.3 2.9-0.3v9.3c-0.3 0.1-0.3 0.2-0.6 0.3-0.2 0.2-0.6 0.2-1.1 0.2v0.9h6v-0.9h-1.1c-0.2-0.2-0.4-0.3-0.6-0.5v-9.3c0.9 0 2.1-0.1 2.6 0.3 0.7 0.3 0.9 1 0.9 2h0.9v-3.2h-11.5c0.1 1.1 0.1 2.1 0.1 3.2zm42.9 6.3c-1.1-1.4-1.9-3.1-3.2-4.3 0.2-1 3-4 4-4.3 0.2-0.2 0.6-0.2 1.1-0.2v-0.8h-4.9v0.8h1.4c0.1 0.3 0.1 0.5 0.2 0.8-0.8 0.7-1.2 1.8-2.1 2.4-0.5 0.2-1.9-1.7-2.1-2.4-0.1-0.2-0.1-0.4-0.2-0.8h1.4v-0.8h-6.3v0.8h1.1c0.8 0.8 1.8 1.7 2.4 2.6 0.6 0.8 1 1.9 1.8 2.4-0.3 1.4-3.5 4.9-5.3 4.9v0.8h5v-0.8h-1.2c-0.1-0.2-0.1-0.2-0.3-0.3 0.1-1.3 1.4-2.8 2.3-3.4v-0.2c1.2 0.5 1.6 2.3 2.6 3.1v0.3c-0.1 0.1-0.2 0.3-0.3 0.5h-1.5v0.8h6.9v-0.8h-1.1c-0.6-0.4-1.3-0.6-1.7-1.1zm88.2-7.2c-0.8 1.8-2.3 3.7-2.7 5.8-0.7-0.4-0.7-1.3-1.1-2-1-1.8-2.4-4-2.9-6.1h-4.3v0.8c0.4 0 0.8 0 1.1 0.2 0.2 0.1 0.3 0.1 0.5 0.2 0.4 1.9 0.2 4.5 0.2 6.6 0 0.7 0.2 2-0.2 2.4-0.1 0.2-0.1 0.3-0.2 0.5-0.4 0.1-0.8 0.2-1.4 0.2v0.8h4.3v-0.8h-1.2c-0.2-0.2-0.2-0.3-0.5-0.5v-8.1h0.2c0.9 3.3 3 6.1 4.3 9.3 1.1-0.2 1.1-1.5 1.5-2.3 0.9-1.7 2.1-5.3 3.2-6.6v-0.3h0.2c0 2.5 0.5 6.7-0.5 8.4h-1.2v0.8h5.8v-0.6c-0.4 0-0.8-0.1-1.1-0.3-0.2-0.1-0.3-0.1-0.5-0.2-0.5-2.6-0.3-6.7 0-9.3h0.2v-0.2c0.4-0.1 0.8-0.2 1.4-0.2v-0.8h-4.1c-0.4 0.2-0.8 1.8-1 2.3zm25.2-1.6h1.2c0.2 0.2 0.2 0.3 0.5 0.5v7.3c-0.2 0.7-0.7 1.2-1.1 1.7-0.9 0.2-1.7 0.5-3.1 0.5-0.4-0.4-1.2-0.7-1.5-1.2-0.3-0.6-0.6-7.4-0.2-8.1 0.1-0.2 0.1-0.3 0.2-0.5 0.4-0.1 0.8-0.2 1.4-0.2v-0.8h-5.8v0.8c0.8 0 1.1 0.1 1.5 0.3 0.4 2.5-0.3 6.5 0.6 8.6 1 2.2 5.4 2.7 7.5 1.2 0.8-0.6 0.9-1.8 1.5-2.6 0-2.2-0.5-5.5 0.2-7.3 0.4-0.1 0.8-0.2 1.4-0.2v-0.8h-4.3v0.8zm17.5 0h0.9c0.2 0.2 0.4 0.3 0.6 0.5v6.4c-0.9-0.6-1.6-1.8-2.3-2.7-1.3-1.7-3.1-3.1-4.3-4.9h-3.4v0.8c0.4 0 0.6 0 0.8 0.2 0.4 0.1 0.3 0.2 0.6 0.3 0.4 1.9 0.2 4.5 0.2 6.6 0 0.7 0.2 2-0.2 2.4v0.3c-0.5 0.1-0.9 0.2-1.4 0.3v0.6h4.3v-0.6c-0.4 0-0.4 0-0.6-0.2-0.7-0.1-0.7-0.2-1.1-0.5v-7.5c1 0.6 1.6 1.8 2.3 2.7 1.5 2.1 4 3.8 5.2 6.1h0.9c0-2.7-0.6-9.1 0.5-10.8h1.2v-0.8h-4.3c0.1 0.3 0.1 0.6 0.1 0.8zm9.2 0c0.4 0 0.8 0 1.1 0.2 0.2 0.1 0.3 0.1 0.5 0.2 0.4 1.9 0.2 4.5 0.2 6.6 0 0.7 0.2 2-0.2 2.4-0.1 0.2-0.1 0.3-0.2 0.5-0.4 0.1-0.8 0.2-1.4 0.2v0.8h5.8v-0.8c-1 0-1.2-0.1-1.7-0.5v-6.9c0-1.1-0.2-2.1 0.6-2.4 0.2-0.2 0.6-0.2 1.1-0.2v-0.8h-5.8v0.7zm19.2-0.1h0.2c0.3 0.2 1.1 0.3 1.4 0.5-0.1 1.4-2.1 6.3-2.7 7-0.1 0.3 0 0.1-0.2 0.3-0.3-1.2-2-5.5-2.7-6.3 0-0.5 0-1 0.2-1.2s0.6-0.2 1.1-0.2v-0.2h0.2v-0.6h-5.8v0.8c0.4 0 0.8 0 1.1 0.2 1 0.4 1.2 2.2 1.7 3.2 1.1 2.5 2.4 5 3.4 7.6 1.4-0.1 1.4-1.9 1.8-2.9 1.2-2.7 2.5-5.7 4-8.1h0.9v-0.8h-4.3c-0.3 0.3-0.3 0.5-0.3 0.7zm18.4 8.5c-0.2 0.6-0.6 1-1.2 1.2v0.2c-1.5 0-3 0.1-3.8-0.5-0.1-1.4-0.1-2.7-0.2-4.1 0.7 0 1.9-0.1 2.3 0.2h0.3c0.1 0.4 0.1 0.7 0.2 1.2h0.9v-3.8c-0.4 0-0.6 0-0.8 0.2-0.2 0.3-0.3 0.9-0.5 1.2h-2.4v-4c1 0 3.1-0.3 3.8 0.2 0.8 0.3 1 1.1 1.2 1.8h0.6v-2.9h-9.6v0.8c0.4 0 0.8 0 1.1 0.2 0.2 0.1 0.3 0.1 0.5 0.2 0.4 1.9 0.2 4.5 0.2 6.6 0 0.7 0.2 2-0.2 2.4-0.1 0.2-0.1 0.3-0.2 0.5-0.4 0.1-0.8 0.2-1.4 0.2v0.8h10.4v-3.8h-0.8c0 0.4-0.1 0.9-0.4 1.2zm37.1-8.4c0.7 0 1 0 1.4 0.3 0.7 0.9 0.3 5.3 0.3 6.9 0 0.7 0.1 1.7-0.2 2.1-0.1 0.2-0.1 0.3-0.2 0.5-0.4 0.1-0.8 0.2-1.4 0.2v0.8h5.8v-0.8c-1 0-1.2-0.1-1.7-0.5-0.1-1.3-0.6-7.4 0-8.4 0.1-0.7 0.2-0.7 0.5-1.1h1.2v-0.8h-5.8c0.1 0.3 0.1 0.6 0.1 0.8zm10.8 2.5h0.8c0-1.2 0.3-1.5 0.8-2.1 0.8-0.2 1.9-0.2 2.9-0.2v9.2c-0.2 0.2-0.3 0.4-0.5 0.6h-1.2v0.8h5.8v-0.8h-1.1c-0.2-0.2-0.4-0.3-0.6-0.5v-9.3c2.8-0.1 3.2 0.2 3.8 2.3h0.6v-3.2h-11.3v3.2zm23.4-3.2v0.6c0.4 0.1 0.9 0.3 1.2 0.5-0.1 1.7-1.2 3.3-2.1 4.3v0.2c-1.2-0.6-1.7-3-2.6-4 0.1-0.3 0-0.3 0.2-0.5 0.2-0.4 0.6-0.4 1.1-0.5v-0.6h-5.3v0.8h0.8c1 1.5 3.3 4.3 3.8 6 0.2 0.7 0.1 2.9-0.2 3.4-0.1 0.2-0.1 0.3-0.2 0.5-0.5 0.1-0.9 0.2-1.4 0.3v0.6h5.8v-0.8c-1 0-1.2-0.1-1.7-0.5v-3.8c0.1-0.3 0.6-0.6 0.8-0.9 1.1-1.8 1.9-4 4-4.9v-0.6c-1.5-0.1-2.8-0.1-4.2-0.1z" fill-rule="evenodd"/>
		<path fill="#fff" clip-rule="evenodd" d="m122 14.8c0.4 1.2 1.1 2.5 1.3 3.9h6.5c0.4-2.6 1.7-5.3 2.6-7.6 0.6-2 1.2-4.1 1.8-6.1 0.4-1.2 1.1-2.3 1.3-3.7h-5.5c-1 3.8-2.1 7.6-3.1 11.5h-0.2c-0.8-2-1-4-1.7-6.1-0.5-1.6-1.3-3.4-1.5-5.2h-0.2v-0.2h-5.5c0.2 2.1 1.2 4 1.8 5.7 1 2.7 1.5 5.2 2.4 7.8zm28.9-0.2h-7.6v-2.8h6.8v-4.1h-6.8v-2.4h7.2v-4.1h-12.6v17.4h12.9c0.1-1.3 0.1-2.6 0.1-4zm11.8 4.1v-13.1h3.9v-4.3h-13.3v4.3h4.1v13.1h5.3zm19.4-4.1h-7.4v-2.8h6.8v-4.1h-6.8v-2.4h7.2v-4.1h-12.6v17.4h12.8v-4zm7.6-2.8c0.7 0 1.8-0.1 2.2 0.2 0.9 0.1 1.1 0.2 1.3 0.9 0.7 1.1 0.2 4.4 0.2 5.9h4.8c0.1-3.3 0.7-8.2-1.8-8.9 0.6-1.1 3.5-3.9 1.3-6.3-1.2-3.3-8.8-2.5-13.3-2.4v17.6h5.4c-0.1-2.3-0.1-4.6-0.1-7zm0-6.4c1 0 2 0 2.6 0.4 0.2 0.1 0.4 0.1 0.6 0.2 0 0.6-0.1 1.1-0.2 1.5-0.9 0.3-1.7 0.6-3 0.6v-2.7zm11.1 13.3h5.4v-17.4h-5.4v17.4zm13.2-9.3h0.2c1.5 3.1 3.1 6.2 4.6 9.2h6.3v-17.4h-4.8v9.6h-0.2c-0.9-3.1-3.3-6.7-4.6-9.6h-6.5v17.4h5v-9.2zm29.4 2.6c-0.8-2-1.2-3.9-2-5.9-0.6-1.5-1.6-3-1.8-4.8h-6.3c-0.3 1.8-1.2 3.3-1.8 4.8-1 2.3-1.7 4.7-2.6 6.8-0.7 1.7-0.9 4-2 5.4v0.4c5.6 0.2 5.3 0.6 6.8-3.5 1.4 0 4.4-0.4 5.4 0.2 0.6 0.7 1 2.3 1.1 3.3h5.9c-0.6-2.4-1.9-4.6-2.7-6.7zm-5.8-0.9h-2.8c0.5-1.2 1.1-2.8 1.3-4.3 0.9 1 0.7 3 1.5 4.1v0.2zm14.3 0.7c1.1 0 2.4-0.1 3 0.4 0.2 0.1 0.4 0.1 0.6 0.2 0.4 1.8 0.2 4.4 0.2 6.5h4.8c0-2.2 0.6-6.4-0.4-8-0.4-0.4-0.9-0.7-1.3-1.1 0 0 2.8-3.4 1.5-5.4-0.7-4.2-8.7-3.2-13.7-3.1v17.6h5.4c-0.1-2.4-0.1-4.7-0.1-7.1zm0-6.4c0.7 0 1.6-0.1 2 0.2 0.7 0.1 0.7 0.1 1.1 0.4v1.3c-0.9 0.4-1.7 0.6-3.1 0.6v-2.5zm13.3 4.8c0.3 0.5 1.1 1.2 1.3 1.8v6.7h5.4v-6.5c0.2-0.5 0.8-1.1 1.1-1.5 1-1.7 2-3.4 3-5 0.9-1.4 1.3-3.1 2.4-4.3v-0.2h-6.3c-0.9 1.9-1.7 3.8-2.6 5.7-0.9-0.4-2.7-4.6-3.1-5.7h-6.1c0.5 1.6 1.6 2.8 2.4 4.1 0.9 1.7 1.5 3.3 2.5 4.9zm38.7 1.5c0 2.1-0.2 4.6-0.2 7h5.4v-17.4h-7.6c-1 3.3-2.1 6.5-3.1 9.8h-0.2c-0.8-3.2-2.6-6.3-3-9.6h-0.2v-0.2h-7.8v17.4h5.4c-0.1-3.3-0.1-6.5-0.2-9.8 0.6 0.8 0.5 1.9 0.9 3 0.7 2 2 4.5 2.2 6.8h5c0.6-3.5 2.7-6.4 3.1-10 0.4 0.6 0.3 2.1 0.3 3zm21.6 2.9h-7.6v-2.8h6.8v-4.1h-6.8v-2.4h7.2v-4.1h-12.6v17.4h12.9c0.1-1.3 0.1-2.6 0.1-4zm19.8-5.7c0-1.3-0.2-2.6-0.7-3.5-2.3-4.5-9-4.2-15.9-4.1v17.4c10 0.1 16.7 0.6 16.6-9.8zm-11.3-3.3c8.1-0.3 8 9.3 0 9.1v-9.1zm13.5 13.1h5.4v-17.4h-5.4v17.4zm8.9-3c2.1 2.9 7 3.2 12 3.1v-5c-3.6 0-5.3 0.1-7.4-1.3-1.7-6.1 1.2-6.5 7.4-6.3v-5c-6.4-0.1-11.1 0.6-12.9 5-0.4 0.9-0.1 1.6-0.4 2.6-0.2 1-0.3 2.7 0 3.9 0.2 1 0.7 2.3 1.3 3zm20.5-14.4h-5.4v17.4h5.4v-17.4zm18.9 17.4v-17.4h-4.8v9.4h-0.2c-0.9-3.3-3.2-6.3-4.6-9.4h-6.5v17.4h5v-9.4h0.2c1 3.4 3.8 6 4.6 9.4h6.3zm15.5-4.1h-7.4v-2.8h6.8v-4.1h-6.8v-2.4h7.2v-4.1h-12.6v17.4h12.8v-4zm-277.3 24.2c0.2-1 0.7-1.2 1.1-1.8 0.7-1.1 1.1-2.9 1.1-4.6h-4.8c0 0.9-0.1 1.7-0.6 2.2v0.4c-0.9-0.3-1.2-1-1.8-1.5v-0.4c2.2-1.1 3.1-2.6 2.8-5.7-0.7-0.7-1.1-1.8-2-2.2-3-1.6-8.9-0.7-9.6 2.2-1.1 1.5 0.1 4.2 1.1 4.8-0.5 1.2-2.1 1.6-2.6 3.3-1.3 4.6 3.7 8 8 7 1.5-0.3 2.6-0.9 3.9-1.3l0.6 0.9h5.9c-0.5-1.1-2.1-2.6-3.1-3.3zm-9-10.3c0.1-0.1 0.4-0.2 0.6-0.4 0.6 0 0.9 0.1 1.3 0.4 0.1 0.1 0.2 0.1 0.4 0.2 0 1.1-0.5 1.6-1.3 1.8-0.2 0.1 0 0.1-0.4 0.2-0.2-0.4-0.6-0.8-0.9-1.1 0-0.6 0-0.8 0.3-1.1zm2.4 9.8h-0.2c-0.6 0.5-2.2 0.5-2.8 0-0.5-0.3-0.6-0.7-0.9-1.1 0.1-0.9 0.4-1.3 0.7-1.8 1.4 0.5 2 2 3.1 2.8 0.1 0 0.1 0 0.1 0.1zm45.9-13.7c-0.9 0.5-2.4 0.3-3.3 0.7-1.4 0.6-3.1 2.3-3.7 3.7-3.2 7.5 2.1 15.6 10.4 13.5 4.7-1.2 8.3-6.9 5.7-13.1-1.4-3.2-4.4-4.9-9.1-4.8zm1.6 13.9c-0.8 0-1.4 0-1.8-0.4-2.1-0.7-2.8-5.5-1.5-7.8 0.5-0.8 1.3-0.9 2-1.5 1.7 0 2 0.5 3 1.1 1.2 4.3 1.6 5.9-1.7 8.6zm132.3-8.2c0-0.5 0.1-0.8 0.2-1.1 1.8-0.4 4.7-0.6 5.9 0.6h0.4v-4.6c-4.4-0.6-10.5-1.1-11.7 3.1-0.7 0.9-0.3 2.8 0 3.7 1.1 3.1 4.7 3.4 7.4 4.8 0 0.6-0.1 0.8-0.2 1.3-2.2 0.5-5.3 0.4-6.7-0.9h-0.4v4.8c4.8 1.2 10.2 0.9 12.2-3 0.6-1.3 0.8-3.7 0-5-1.2-2.1-4.8-2.6-7.1-3.7zm105.2 5.2c-0.8-3.1-4.5-4.3-7.6-5-0.1-0.3 0-0.2-0.2-0.4 0.1-0.7 0.3-0.7 0.6-1.1 1.3-0.1 2.8-0.4 4.1 0 0.7 0.2 1.2 0.6 2 0.7 0-1.2 0.3-3.6-0.2-4.4-1-0.8-4-0.9-5.5-0.6-1.4 0.3-2.2 0.1-3.3 0.6-1.9 0.8-4 3.6-3 6.7 1 3 5.1 3.3 7.6 4.8 0 0.6-0.1 0.9-0.2 1.3-2 0.5-5.3 0.5-6.5-0.9h-0.4c0 1.3-0.4 3.9 0.2 4.8 1 0.8 3.9 0.9 5.4 0.6 1.2-0.2 2 0 3-0.4 2.1-0.8 5-3 4-6.7zm-257.6-2c-0.3-0.1-0.2 0-0.4-0.2 2.5-0.9 2.6-5.7 0.6-7.2-2.4-1.7-8.4-1.2-12.4-1.1v17.4c5.8 0.1 12.2 0.9 13.9-3.3 0.3-0.8 0.6-2.6 0.2-3.7-0.4-0.9-1.3-1.3-1.9-1.9zm-6.9-4.5c1.6 0 2.3 0.2 3.1 0.7-0.1 0.7-0.2 0.8-0.4 1.3-0.8 0.2-1.6 0.4-2.8 0.4 0.1-0.8 0.1-1.6 0.1-2.4zm3.2 8.9c-0.9 0.2-1.8 0.4-3.1 0.4v-3c0.9 0.1 1.7 0.1 2.6 0.2 0.3 0.3 0.6 0.5 0.9 0.7-0.1 0.9-0.2 1.2-0.4 1.7zm7.4 4.5h5.4v-17.4h-5.4v17.4zm37-7.6c-0.7-0.9-3-8.3-3.1-9.8h-8v17.4h5.4c-0.1-3.3-0.1-6.7-0.2-10 0.6 0.7 0.6 2 0.9 3 0.8 2.1 2 4.6 2.2 7h5c0.6-3.5 2.7-6.4 3.1-10 0.8 1.3 0.1 8.3 0 10h5.4v-17.4h-7.6c-1 3.2-2.1 6.5-3.1 9.8zm17.7 0.7h6.8v-4.1h-6.8v-2.4h7.2v-4.1h-12.6v17.4h12.8v-4.1h-7.4v-2.7zm25.4-5.9c-2.1-5.1-8.8-4.7-16.1-4.6v17.4c9.5 0.1 17.2 0.2 16.6-9.8-0.2-1-0.4-2-0.5-3zm-5.2 6.1c-1.6 1.7-2.1 2.5-5.5 2.4v-8.9c1.5 0 2.9-0.1 3.7 0.6 2.1 0.7 2 3.3 1.8 5.9zm7.4 6.7h5.4v-17.4h-5.4v17.4zm8.9-14.6c-0.7 0.9-1.3 2.3-1.7 3.5-0.4 1.5-0.2 3.7 0.2 5 1.6 5.7 5.8 6.2 13.1 6.1v-4.8c-3.1 0.1-6.8 0.3-7.6-2-0.5-0.7-0.6-3 0-3.7 0.8-2.5 5-2.1 8.3-2v-4.8c-5.1-0.2-10.2-0.2-12.3 2.7zm25.3-2.8h-6.3c-0.2 1.5-1 2.7-1.5 3.9-1.2 2.8-2 5.6-3.1 8.3-0.7 1.5-0.8 3.6-1.8 4.8v0.4c5.6 0.2 5.3 0.6 6.8-3.5h5.5l0.9 3.3h0.2v0.2h5.9c-1.5-3.4-2.4-6.9-3.9-10.4-0.8-2.2-2.2-4.6-2.7-7zm-1.9 9.8h-2.8c0.5-1.2 1.1-2.7 1.3-4.1h0.4c0.1 1.1 0.5 2.9 1.1 3.7v0.4zm14.5-9.8h-5.4v17.4h12v-4.3h-6.7c0.1-4.4 0.1-8.7 0.1-13.1zm28.3 7.2c-0.3 1.1-0.3 3 0 4.3 0.3 1 0.7 2.2 1.3 3 2.1 2.9 6.9 3 12 3v-4.8c-3.5 0-5.3 0-7.4-1.3-0.7-2.5-0.8-3.7 0.6-5.7 1.9-0.5 4.1-0.8 6.8-0.7v-4.8c-8.2-0.4-11.7 0.3-13.3 7zm15.1 10.2h5.4v-17.4h-5.4v17.4zm12.8-6.9h6.8v-4.1h-6.8v-2.4h7.2v-4.1h-12.6v17.4h12.8v-4.1h-7.4v-2.7zm20.5-8.7v7.6h-0.2c-0.9-3.3-3.2-6.3-4.6-9.4h-6.5v17.4h5v-9.4h0.2c1 3.4 3.8 6 4.6 9.4h6.3v-17.4h-5c0 0.6 0 1.5 0.2 1.8zm6.3 4.5c-0.4 1.3-0.6 3.4-0.2 5 0.3 1.2 0.8 2.4 1.5 3.3 2 2.8 6.9 2.9 11.8 2.8v-4.8c-3.1 0.1-6.8 0.3-7.6-2-0.5-0.7-0.6-3 0-3.7 0.7-2.4 4.4-2.1 7.6-2v-4.8c-7.3-0.2-11.5 0.5-13.1 6.2zm20.2 4.2h6.8v-4.1h-6.8v-2.4h7.2v-4.1h-12.6v17.4h12.9v-4.1h-7.6c0.1-0.8 0.1-1.8 0.1-2.7z" fill-rule="evenodd"/>
</svg>
