<?xml version="1.0" encoding="utf-8"?>
<!-- Generator: Adobe Illustrator 17.1.0, SVG Export Plug-In . SVG Version: 6.00 Build 0)  -->
<!DOCTYPE svg PUBLIC "-//W3C//DTD SVG 1.1//EN" "http://www.w3.org/Graphics/SVG/1.1/DTD/svg11.dtd">
<svg version="1.1" id="Layer_1" xmlns="http://www.w3.org/2000/svg" xmlns:xlink="http://www.w3.org/1999/xlink" x="0px" y="0px"
	 viewBox="0 0 400 400" enable-background="new 0 0 400 400" xml:space="preserve">
<g id="Spring">
	<path fill="none" stroke="#C9C9C9" stroke-width="0.5" stroke-miterlimit="10" d="M206.5,232.3c0.9,1.5,2.7,2.5,4.5,2.5
		c1.9,0,4.7-0.8,4.7-2.1c0-1.3-2.7-2.5-4.5-2.5C209.2,230,207.5,230.7,206.5,232.3c-0.6-0.8-0.8-1.7-0.8-2.8"/>
	<path fill="none" stroke="#C9C9C9" stroke-width="0.5" stroke-miterlimit="10" d="M205.6,229.4c0-0.9,0.4-1.9,0.9-2.7
		c-0.6-0.8-0.8-1.7-0.8-2.8"/>
	<path fill="none" stroke="#C9C9C9" stroke-width="0.5" stroke-miterlimit="10" d="M205.8,223.7c0-0.9,0.4-1.9,0.9-2.7
		c-0.6-0.8-0.9-1.9-0.8-2.8"/>
	<path fill="none" stroke="#C9C9C9" stroke-width="0.5" stroke-miterlimit="10" d="M205.9,218.2c0-0.9,0.4-1.9,0.9-2.7
		c-0.6-0.8-0.9-1.9-0.8-2.8"/>
	<path fill="none" stroke="#C9C9C9" stroke-width="0.5" stroke-miterlimit="10" d="M216.2,221.4c0-1.3-2.7-2.5-4.5-2.5
		c-1.9,0-3.8,0.8-4.7,2.1c0.9,1.5,2.7,2.5,4.5,2.5C213.3,223.7,216.2,222.8,216.2,221.4z"/>
	<path fill="none" stroke="#C9C9C9" stroke-width="0.5" stroke-miterlimit="10" d="M206.7,226.6c0.9,1.5,2.7,2.5,4.5,2.5
		s4.7-0.8,4.7-2.1s-2.7-2.5-4.5-2.5C209.4,224.5,207.7,225.2,206.7,226.6z"/>
	<path fill="none" stroke="#C9C9C9" stroke-width="0.5" stroke-miterlimit="10" d="M216.4,215.9c0-1.3-2.7-2.5-4.5-2.5
		s-3.8,0.8-4.7,2.1c0.9,1.5,2.7,2.5,4.5,2.5C213.5,218.2,216.2,217.3,216.4,215.9z"/>
	<path fill="none" stroke="#C9C9C9" stroke-width="0.5" stroke-miterlimit="10" d="M216.4,210.5c0-1.3-2.7-2.5-4.5-2.5
		s-3.8,0.8-4.7,2.1c0.9,1.5,2.7,2.5,4.5,2.5C213.7,212.5,216.4,211.8,216.4,210.5z"/>
	<path fill="none" stroke="#C9C9C9" stroke-width="0.5" stroke-miterlimit="10" d="M207.1,210.1c-0.6,0.8-0.9,1.7-0.9,2.7"/>
</g>
<path id="top" fill="#C9C9C9" d="M0,163v0.6c0,2.8,1.9,4.5,3.4,4.5h9.9v10.6c11.4,0.2,18.4,11.2,28.8,12.5c2.8,0.2,6.3,0.2,9.3,0
	c14.8-0.9,30.9-6.4,44.2-6.1c3,0.4,5.7,0.4,7.8,0.6c0,0,0,0,0.2,0c0.6,0,1.1,0.2,1.5,0.2c0.6,0,0.9,0,1.3,0.2
	c2.5,0.2,3.8,0.4,3.8,0.4l5.3,0.6c-0.9,0.2-1.9,1.9-2.1,4v0.4c-0.2,2.3,0.6,4.4,1.7,4.4l8.2,0.8l-0.8,9.1l10.6,0.9l0.8-9.1l6.8,0.8
	c1.1,0.2,2.1-1.7,2.3-4v-0.4c0.2-2.1-0.6-3.8-1.5-4.4l63.1,6.3v0.9h0.4l-0.9,11l11.9,1.1l0.9-11.9v-0.2l105.4,10.4l1.3-16.7
	l-95.2-8.9c0.9,0,1.5-1.5,1.7-2.7v-0.4c0.2-1.5-0.9-2.8-2.3-3l-9.5-0.9h-0.6v-1.5l7.6,0.8c1.1,0.2,2.5-1.7,2.7-4v-0.4
	c0.2-2.3-0.6-4.4-1.7-4.4l-25.4-2.8c-1.1,0-2.1,1.7-2.3,4v0.4c-0.2,2.3,0.6,4.4,1.7,4.4l6.4,0.6v1.5l-9.1-0.9
	c-1.3-0.2-2.5,0.9-2.7,2.5v0.2c0,1.1,0.4,2.5,1.1,2.5l0,0l-91.9-8.5v-0.6l0,0C85.9,170,66.9,179,48.7,178.8c-3,0-6.1,0-9.1-0.6
	c-7-2.3-13.3-3.6-19-5.3v-4.7h13.5c1.3,0,1.7-1.7,1.7-4.5V163c0-2.8-0.4-4.4-1.7-4.4H3.4C2.1,158.7,0,160.4,0,163z M196.2,177.8
	L196.2,177.8L196.2,177.8L196.2,177.8z M196.2,177.6L196.2,177.6L196.2,177.6L196.2,177.6z M196,177.6L196,177.6L196,177.6
	L196,177.6L196,177.6C196,177.8,196,177.6,196,177.6L196,177.6L196,177.6z"/>
<polygon id="base" fill="#C9C9C9" points="64.5,244 64.5,259.1 400,259.1 400,244 400,244 380.9,232.6 358.3,232.6 358.3,179.5 
	288.2,179.5 288.2,232.6 132.7,232.6 132.7,223.1 123.2,223.1 123.2,232.6 83.6,232.6 "/>
<g id="axis">
	<circle id="outer" fill="#C9C9C9" cx="324.2" cy="183.9" r="43"/>
	<circle id="inner" fill="none" stroke="#BCBCBC" stroke-miterlimit="10" cx="323.2" cy="182.9" r="28.8"/>
</g>
</svg>
