<?xml version="1.0" encoding="UTF-8" standalone="no"?>
<!-- Generator: Adobe Illustrator 18.0.0, SVG Export Plug-In . SVG Version: 6.00 Build 0)  -->
<!DOCTYPE svg  PUBLIC '-//W3C//DTD SVG 1.1//EN'  'http://www.w3.org/Graphics/SVG/1.1/DTD/svg11.dtd'>
<svg id="Layer_1" xmlns="http://www.w3.org/2000/svg" xml:space="preserve" height="417.8px" viewBox="806.6 1.1 304.8 417.8" width="304.8px" version="1.1" y="0px" x="0px" xmlns:xlink="http://www.w3.org/1999/xlink" enable-background="new 806.6 1.1 304.8 417.8">
<path id="kissing_bug" d="m966.7 58c0.9-3.3 2.1-6.4 2.9-9.7 0.4-1.4 0.9-2.7 1.6-3.7 0.9-1.2 2.3-1.8 3.7-1.6 1.8 0.2 2.9 2.3 3.7 3.9 1.6 3.9 2.5 8.3 2.5 12.4 5.8-12.8 12.6-25.4 20-37.6 4.8-7.8 11.2-14 19.4-17.6 7.6-3.7 16.3-3.3 24.5-2.5 7.6 0.4 15.1 0.9 22.5 3.3 7.1 2.3 13.5 6.4 17.4 12.8-11.4-3.9-21.7-8.9-33.9-10.8-5.3-0.7-10.3-1.2-15.5-0.9-4.8 0-9.7-0.2-14.4 0.9-5.5 7.8-11 15.7-16.5 23.6-2.7 3.9-5.5 7.8-8.3 11.7-1.2 1.6-2.5 3.3-3.3 5-0.7 1.8-0.4 3.9-1.2 5.8-0.4 1.8-2.1 3.7-3.7 4.6-0.9 4.1-2.1 8.5-2.9 12.6-0.4 1.8-0.9 3.9-0.2 5.8 0.7 1.6 2.5 2.1 3.5 3.5 2.3 2.9 1.8 7.6-0.7 10.3-0.7 0.9-1.6 1.6-2.3 2.5-2.1 2.5 0.4 6.4-2.1 9.1-0.9 1.2-2.7 1.8-2.9 3.3-0.4 1.6 1.4 3.3 3.3 3.3 1.6 0 7.4-3.9 6 1.2-0.2 0.9-0.9 1.8-1.6 2.5 4.1 2.9 8.7 7.6 8.7 13 0 4.6 2.5 2.5 4.1 0.4 1.8-2.7 4.3-5 6.6-7.6 4.6-4.6 9.7-8.7 15.1-12.4 2.3-1.6 4.6-2.9 6.4-4.8 4.8-5.3 2.9-14.2 2.7-20.6-0.2-8 0-16.1 0.2-23.8 0.2-7.4 0.4-14.9 1.6-22.3 0.4-2.9 0.7-4.8 0-7.8-0.2-0.9-2.5-9.3-2.1-9.7-1.6 0-3.3 0.4-4.6 0.7 0.7-2.5 3.7-4.1 6.4-3.5 1.6-1.4 4.1-2.1 6.2-1.6-0.2 1.6-2.1 2.5-3.5 2.1-1.2 2.3-0.7 5 0.2 7.3s2.5 4.3 3.5 6.6c2.3 6.2 1.6 12.4 1.2 18.8-0.4 7.4-0.9 14.9-1.4 22.3-0.2 5.5-0.4 11.2-0.7 16.7 0 2.7-0.2 5.5-0.2 8.5 0 1.4 0.4 4.6-0.2 6-3.9 8.7-12.4 14.4-19.7 20.8-4.6 3.9-8.5 9.3-12.4 14.2 6.4 5.3 12.6 13.2 14.2 21.5 1.8 8.9-1.4 19.2-3.5 27.9 16.5-6.2 33.4-10.5 50.8-13.5 3.7-0.7 8.5-1.8 10.1 2.1 1.8 4.6 2.7 9.7 3.7 14.4 2.1 9.9 3.7 19.7 4.6 29.5 0.4 3.9 0.9 7.8 1.2 11.4 0.2 3.5 0 7.8 0.9 11 0.9 2.9 3.3 2.7 6 3.7 3.3 1.2 6.2 2.3 8.9 4.1 9.3 6.4 8.9 17.6 7.8 27.7-3.5 30.2-6.6 60.5-14.2 90-2.3 8.7-4.8 17.2-7.1 25.8-0.9 3.3-3.3 8.7-2.5 12.2 0.7 2.7 5.3 5.3 3.5 8.5-0.9 1.4-2.9 1.6-4.6 0.7-1.4-0.9-2.3-2.5-3.3-3.9-1.4 1.4-2.7 2.7-4.6 2.7-1.8 0.2-3.9-1.6-2.9-3.5 0.4-1.2 1.8-1.4 2.9-1.8 4.3-2.1 5.8-7.4 6.4-12.2l1.4-8.3c3.5-20 6.8-39.6 10.3-59.5 3.5-19 7.3-38 7.6-57.8 0-3.9-0.2-8.3-3.5-10.8-2.1-1.6-4.8-2.1-7.3-2.3-9.7-0.9-19.4-1.4-28.9-3.7-9.7-2.5-19.2-5.5-29.1-8 1.4 6.8 3.5 13.5 4.3 20.4 1.2 7.3 1.6 14.9 1.6 22.5 0.2 14.9-1.4 29.8-4.3 44.2-0.7 3.9-1.4 7.6-3.5 11-2.3 3.7-4.1 7.8-6.4 11.4-4.6 7.3-9.3 14.4-14.9 21.3-4.6 5.8-9.3 11-14.7 16.1-2.3 2.3-4.8 5.3-7.6 6.8-2.9 1.6-5.5 2.3-7.8 5.3-2.3 2.9-3.7 6.4-5.5 9.7s-4.6 6.2-8.3 6.8c-3.5 0.7-7.1-0.4-9.1-3.3-1.8-2.3-2.5-5.3-3.5-8-0.7-1.8-1.6-3.9-3.3-5-2.7-2.3-6-4.1-8.9-6.6-2.9-2.7-6-5.5-8.7-8.5-5.5-6-10.5-12.4-14.9-19-8.7-13.2-15.3-28.1-19-43.8-7.3-30.7-3.9-63.9 9.7-92.3-14-3.9-27.3-8.3-41.7-10.1-3.3-0.4-6.6-1.2-9.9-1.2-3.3 0.2-2.9 2.3-4.1 5.3l-6.8 19.2c-1.6 4.6-3.3 8.9-4.8 13.5-0.7 2.1-1.6 4.6-1.2 6.6 0.4 2.3 2.7 4.3 5 3.7-2.1 3.9-6.6 6.4-11 6 1.2-18.8 5.3-37.6 12.2-55.2-2.9-0.4-6.2-0.9-8.9-1.4-4.6 10.1-8 20.6-10.3 31.4-3.9 17.6-4.6 35.7-5.5 53.9-0.7 13-1.2 26.1-1.8 39-0.2 5.5-0.2 10.8-1.6 16.1-0.4 1.8-0.9 4.6 0 6.4 0.7 1.4 3.5 1.8 2.9 3.5-0.2 1.4-2.9 2.7-3.9 3.3-2.1 0.9-4.3 1.2-6.4 1.6-1.4 0.2-2.7 0.4-4.1-0.2-1.4-0.7-2.1-2.3-1.4-3.5 0.7-0.9 1.8-1.2 2.7-0.9 0.9 0.2 2.1 0.2 3.3-0.2 2.3-0.9 1.2-8.5 1.2-10.5 0-12.6-0.2-25.2 0-37.6 0.4-18.6 1.6-37.4 4.6-55.9 2.9-17.8 8.5-34.9 14-52 0.2-1.2 0.7-2.1 1.6-2.9 1.2-1.2 2.9-1.2 4.8-0.9 1.2 0 12.4 2.3 12.8 0.7 2.9-8.7 4.1-19.9 11.9-25 7.8-5 17.8-3.7 26.8-2.1 10.8 1.8 21.5 2.7 32.3 4.6v0.4c1.2-2.9-1.6-8.7-2.3-11.7-0.9-4.1-1.6-8.3-1.6-12.6 0-5 2.1-9.7 5-13.8 2.7-4.1 5.3-7.6 8.9-11-6.2-6.4-12.4-13-18.6-19.4-4.1-4.3-8.3-8.9-10.8-14.4-2.3-5-3.9-11-5.5-16.5-3.7-12.8-5.8-25.8-6-39.2-0.2-10.1 0.4-20.6-3.9-29.5-0.2 1.2-2.1 1.4-2.7 0.2-0.7-0.9 0-2.5 0.9-3.3s2.3-0.9 3.5-0.9c2.9-0.2 6-0.4 8.9-0.9-0.2 1.2-0.2 2.3-0.4 3.5-1.2 0.4-1.8 0.9-2.7 0.2 3.9 25.8 8.3 52.2 12.4 77.9 13 8.7 24.3 20.6 31.8 34.5 1.8-1.2 3.7-2.7 4.6-4.8 1.6-2.7 1.8-6.2 3.5-8.9 0.7-1.4 5.5-7.6 7.1-7.3-1.8 0-3.3-1.8-3.3-3.5 0-1.8 1.6-3.3 3.5-3.3s3.5 1.4 3.5 3.3c0.9 0 2.1-0.4 2.7-0.4-3.3-3.9-3.3-8.3-4.8-12.6-1.4-3.7-2.7-8-0.9-11.4 1.4-2.7 4.6-4.6 5.3-7.8 0.4-2.5-1.2-4.8-2.1-7.1s-0.4-6.4 2.1-7.1c-4.6-2.9-7.8-7.1-8.5-12.6-15.1-8.9-27.9-21.1-38.6-34.8-4.3 2.5-10.1 1.4-15.1 0.2-9.9-2.3-20.2-4.1-30.4-2.7-4.1 0.4-8.7 0.7-12.6 2.3 11-5 23.1-7.3 35.1-6.4 4.3 0.4 8.9 1.2 13.2 2.1 3.9 0.7 7.4 1.2 11 2.5 16.9 6.2 30.9 18.6 40.5 33.7 5 2.3 8.5 7.8 8.5 13.2 1.9 0.8 2.1 0.2 2.5 0.8zm52 151.8c5 5.5 8.9 12.2 11.2 19.4 1.8-0.2 3.7 0 5.8 0.2s4.1 0.4 6.2 0.9c13.2 1.8 26.4 4.3 39.2 8.5-1.4-20.6-3.3-41.3-9.7-60.9-9.9 5-20.2 8.9-30.7 11.4-7.4 1.8-14.7 3.3-22.3 2.7 1 6.1 1.4 12 0.3 17.8zm66 44.8c0.2 2.1 0.4 4.1 0.4 6.2v1.4s-0.4 0.9-1.2 0.9c-0.2-0.4-0.7-0.9-1.2-1.2-0.7 1.2-1.4 2.5-0.7 3.5 0.2 0.7 0.9 1.2 1.6 1.2 0.7 0.2 1.4 0.2 2.1 0.2 1.8 0 3.9 0.4 5.8 0.2 1.8-0.2 3.9-1.4 4.3-3.5 0.2-0.7 0-1.8-0.7-2.1-0.9-0.2-1.8 0.7-2.7 0.4-0.4-0.2-0.9-0.7-1.2-0.9-1.2-1.8-1.6-4.1-1.4-6.4-1.5 0.9-3.3 0.9-5.1 0.1zm-160.3-57.2c-5.8 0.4-11.4-0.7-17.2-1.4-11.9-1.6-24.3-0.9-35.9-4.6-4.3 4.1-4.1 11.9-8.7 16.1 2.9 1.4 6.4 1.6 9.9 1.6 4.8 0.2 9.7 1.2 14.4 2.3 2.1 0.4 4.1 0.9 6.4 1.6 3.5 0.9 7.1 1.6 10.5 2.5 3.9 0.9 8 2.1 11 4.6 0.2-0.2 0.2-0.4 0.4-0.7 4.4-6.9 8.5-13.7 9.2-22zm-23.1 64.4c2.9 2.1 6.6 2.9 10.1 3.5 2.7 0.4 5.5 0.4 8 0.4 1.6 0 2.1 0.2 2.5-1.2 0.2-0.9 0-2.5 0-3.7 0-4.8 0.2-9.3 0.4-14.2 0.2-2.5 0.2-4.8 0.4-7.4 0-1.2 0.2-1.8-0.2-2.7-0.4-0.7-2.5-1.4-3.3-1.8-0.7 0-1.6-0.2-2.3-0.2-0.4 0-0.9 0-1.4-0.2-0.9-0.4-1.8-0.9-2.5-1.8h-1.2c-3.5 10.3-7.6 19.2-10.5 29.3zm11.5-29.9h1.4c0.2 0.4 0.7 0.7 1.4 0.9 2.1 0.7 4.1 1.2 6.2 1.8 0.4 0.7 0.9 0.7 1.6 0.4 0 0.2 0.2 0.4 0.2 0.9 1.4-12.2 2.3-24.5 2.5-36.6-3.9 11-8.7 21.7-13.8 32 0.5 0.4 0.1 0.4 0.5 0.6zm8.3 34c-6.4-0.2-12.8-1.2-19-2.9v-0.4c-2.5 10.3-3.7 21.5-3.5 32.3 7.8 0 15.5 0.9 23.3 0.7-1.2-9.7-1.4-19.4-0.7-29.1-0.1-0.6-0.1-0.1-0.1-0.6zm-7.2 29.6c-5 0.2-10.1 0-15.3 0v-0.5c0 14.7 2.7 28.9 8 42.6 6.8-0.9 13.8-2.3 20.4-4.1v-1.4c-1.6-11.9-3.3-24-4.6-35.9-2.8-1.3-5.8-0.7-8.5-0.7zm18.3 57.4c-1.6-4.3-2.9-8.7-4.1-13.2-0.2-1.4-0.4-4.1-1.8-4.8-1.4-0.4-5 0.9-6.4 1.2-4.3 0.7-8.9 1.4-13.2 2.7 0.7 2.5 1.8 4.3 2.9 6.6 1.6 3.5 3.3 7.1 5 10.3 0.7 1.4 7.8 15.3 8.9 14.9 0.2 0 0.4-0.2 0.7-0.2 3.7-2.9 8.5-4.8 13.2-5-0.9-0.1-4.5-11.1-5.2-12.5zm-6.6 17.2c-0.4 0.4-1.2 0.7-1.4 1.4s0.2 1.4 0.7 2.1c8.3 11 17.6 20.6 28.9 28.3 2.3-3.3 4.3-6.2 6.6-9.3-8.5-7.8-16.1-16.7-22.7-26.1-4.2 0.4-8.5 1.3-12.1 3.6zm39.3 23.5c-1.2 0-2.7-1.2-3.9-0.7-0.7 0.2-1.2 0.9-1.6 1.6l-3.5 4.8c-0.4 0.7-0.7 1.2-0.9 1.8-0.4 2.3 1.6 6 2.5 8 0.9 2.1 1.6 4.1 2.9 6 1.4 1.8 3.3 3.3 5.5 3.7 2.3 0.4 4.8-0.4 6.6-2.1 1.8-1.4 3.3-3.5 4.6-5.5 2.7-4.1 5.8-8.5 8.3-12.8-2.1-2.9-3.9-6-6-8.7-2.9 0.2-6 1.6-8.7 2.7-1.9 0.8-4 1.5-5.8 1.2zm21.1 4.7c3.7-0.4 6.6-2.9 9.3-5.8 6.8-6.6 12.6-14.2 18.1-21.9-1.8-0.4-3.5-0.9-5.3-1.2-0.9-0.2-2.1-0.4-2.9-0.2-0.9 0.2-1.8 0.9-2.5 1.6-7.4 6.2-14.7 12.6-21.7 18.8 1.4 2.9 2.7 6.1 5 8.7zm23.1-37.4c-1.2 1.8-3.9 4.8-4.1 7.1 2.7 0.2 5.5 0.7 8 1.8 0.7 0.2 1.4 0.7 2.1 0.7 1.8 0 4.6-5.3 5.8-6.8 1.8-2.7 3.7-5.5 5.3-8.5 1.6-2.9 3.3-6 4.3-8.9 0.2-0.7 3.3-8.7 3.3-8.7-4.3-0.2-8.7 0-13 0.2-0.7 0-1.6 0-2.3 0.4-1.8 0.9-2.1 5-2.7 6.8-0.9 2.5-1.8 5.3-2.9 7.8-0.8 2.6-2.2 5.4-3.8 8.1zm26.6-23.5v0.7c2.3-12.8 3.7-25.8 4.6-38.7-7.1 0-14.4 0-21.5 0.2-0.9 2.7-1.8 5.3-3.3 7.6 2.5 4.3 3.7 9.7 3.9 14.9s-0.4 10.3-0.9 15.3c5.8-1 11.6-1.2 17.2 0zm-16.3-40.1c-0.2 0.4-0.2 0.9-0.2 1.4 6.4 0.7 12.8 0.2 19.2 0 0.7 0 1.4 0 2.1-0.4s0.9-0.9 0.4-1.4c1.2-10.3 0.7-20.8-1.2-30.9-5.8 3.5-12.2 5.8-18.6 6.8-1.4 8.5-2.1 16.9-1.8 25.4m0.3-36.6c0.2 2.1-0.7 9.9 2.1 10.5 0.9 0.2 1.8 0 2.5-0.4 3.7-1.4 7.3-2.7 11.2-4.1 0.9-0.4 2.1-0.7 2.7-1.6 3.7-3.7-7.6-31.4-7.6-31.4-2.7 1.2-5.5 2.5-8 4.1-1.4 0.9-2.7 2.1-3.7 3.7s-0.7 3.7-0.7 5.8c1.1 4.1 1.3 8.7 1.5 13.4zm-1.3-19.6h0.4c2.5-2.3 5.3-4.3 8.5-6 0.9-0.4 2.1-1.2 2.7-1.8 2.5-2.9-2.7-10.5-4.1-13.2-1.4-2.3-2.7-4.6-4.3-6.6-0.9-1.2-4.6-4.3-4.6-5.5 0 2.5 2.3 33.1 1.4 33.1zm-47.7-5c13-26.6 27.9-52 46.5-74.9-27 16.1-62.5 16.5-90 0.9 15.6 24.5 30.7 47.9 43.5 74zm-8.4-38.9c4.1 8.9 7.1 19 9.7 28.3 5.5-18.3 13.8-35.9 25.6-51-16.5 7.8-36.2 8.5-53.3 2.1 7.7 5.9 13.8 11.9 18 20.6zm55.4 119.7c-5-25.4-25.8-43.3-37.8-65.3-2.9-5.5-4.3-12.2-7.8-17.2-5.3-7.8-8.3 2.3-11 7.1-8.5 14.9-17.2 30-25.6 44.8-3.9 6.6-7.6 13.5-9.7 20.8-2.9 11.9 1.4 26.6 5.5 38 4.6 12.6 10.8 24.8 19.2 35.3 3.5 4.3 7.8 8.3 12.8 10.3 10.1 3.7 21.1-3.5 28.3-9.9 17.4-15.5 29.8-39 26.1-62.1 0.3-0.1 0-1 0-1.8zm-24-11.2c-0.9-5-3.5-9.3-6-13.8-8.5-14.9-16.9-30-25.4-44.8l-11 17.2c9.7 18.6 19 37.1 28.7 55.6 1.6 3.3 5 7.1 8.3 5.5 4.7-5.4 6.8-12.8 5.4-19.7zm-15.4 17.6c-11.2-16.7-19.4-35.1-26.4-53.9-4.1 9.9-10.3 18.8-18.1 26.1 7.1 22.9 17.2 44.8 29.8 65.3 1.4 2.3 2.9 4.6 5.5 5 3.7 0.7 6.6-2.9 8.5-6.2 4.3-7.1 8.9-14.9 7.3-23.1-0.7-4.9-3.8-9-6.6-13.2zm-2.6-67.7c-1.4-5.3-2.7-10.3-4.1-15.5-1.6 1.8-2.9 3.7-4.6 5.5 3.5 11 10.8 20.2 16.9 29.8 6.4 9.7 12.2 20.2 12.2 31.6 0 10.1-4.3 19.7-7.6 29.3s-5 20.2-11.9 27.7c-2.1 2.3-4.3 4.1-6 6.6-1.6 2.5-2.3 6-0.7 8.5 2.3 3.9 8.3 3.5 12.6 1.6 12.8-5.3 22.5-17.2 26.4-30.4s2.7-27.7-1.4-41c-4.3-13.2-11.4-25.2-19.7-36.4-6.6-8.9-14-17.9-16.3-28.7m-11.5 139.8c3.7 0.9 6.8-2.9 6.8-6.6s-2.1-7.1-3.9-10.1c-12.8-20.4-23.6-42.1-31.8-64.8-1.6 27.7 7.1 56.1 24.3 77.9 1.1 1.6 2.5 3.2 4.6 3.6zm-7.8-151.8c-4.8-20.4-12.8-40.1-23.6-58.2 5.8 13.8 5 29.3 6.2 44.2 0.9 14.9 4.1 30.9 14.9 41.3 5.9-7.3 4.5-18.1 2.5-27.3zm-15.6 12c-2.7 17.6-5.8 35.3-8.5 52.9 6.2-11.4 12.2-23.1 18.3-34.5-3.1-6.1-6.4-12.2-9.8-18.4zm56.6-21.1c-1.8 5-3.7 10.1-4.1 15.3-0.7 8.7 2.5 17.2 5.8 25.4 14.9-24.5 11-55.4 18.6-82.9-7.9 13.3-14.8 27.5-20.3 42.2zm11.4 40.9v-16.3l-9.7 21.9c4.8 6.2 9.7 12.4 14.4 18.6-2.3-11.9-3.9-23.8-4.8-35.9m9.3 48.4c3.5-36.6 3.9-73.5 0.9-110.1-8.9 35.9-9.3 73.9-0.9 110.1zm-89.1-7.8c8.5-29.8 10.3-61.4 4.8-91.9-2.5 30.6-4.1 61.2-4.8 91.9zm22.3-91.8c3.3 13.2 6.4 26.8 9.9 40.1 2.3-2.9 4.8-6.2 4.6-9.9 0-2.1-1.2-4.1-2.1-6-4.2-8.2-8.3-16.2-12.4-24.2zm28.5 33c0.4 3.3 3.7 6.2 6.6 5.3 4.8-19.2 12.6-37.8 22.9-54.7-11.2 11.9-20.4 25.6-27.5 40.3-1 2.9-2.4 5.8-2 9.1zm3.1 10.1c2.1 7.6 6.8 14.2 11.7 20.6h1.6c-2.5-7.6-4.8-15.1-7.3-22.5-1.7 1.1-3.8 1.9-6 1.9zm-3.1-132.6c-1.8 19.2-2.1 38.7-0.2 58 4.8-0.9 10.1-2.9 11.9-7.3 1.4-2.9 0.9-6.4 0.2-9.7-2.2-14.3-6.3-28-11.9-41zm-16.9 52.4c4.3-0.7 8.7 0.2 12.6 2.1-1.4-19.2 0.2-38.2 2.1-57.4-6.2 7.3-8.7 16.9-11 26.1-2.5 9.5-5 19.4-3.7 29.2zm-9.4-1.8c0.9-0.9 1.4-2.1 1.8-3.5 4.6-15.5 9.1-30.9 13.8-46.5-2.1 0.4-4.1-0.4-5.3-2.3-9.3 17.4-19 34.5-28.7 52 4.6 0.4 8.9 0.9 13.5 1.2 1.7 0.2 3.7 0.2 4.9-0.9zm34.4-50.6c0.7 18.1 4.3 36.2 10.8 53.1 5.3-0.9 10.1-3.9 13.5-7.8 0.9-1.2 1.8-2.5 2.1-3.9 0.4-2.3-0.9-4.6-2.1-6.4-7.4-12.4-14.7-24.8-24.3-35zm-58.2 102.3c-2.9 1.6-4.8 5.3-5.3 8.7-0.4 3.5 0.2 6.8 0.9 10.3h1.4c1-6.4 2.1-12.8 3-19zm-13.9 39.4c0.7 2.7 2.5 5 4.1 7.4 1.2 1.6 2.9 3.5 5 2.7-0.2-8-0.7-16.3 1.4-24-3.5 0-6.6 1.8-8.7 4.3s-2.8 6.3-1.8 9.6zm8.4 36.9c0.2-0.2 0.2-0.7 0.2-1.2 0.2-7.8 0.7-15.5 0.9-23.3-2.9 0.9-6.4 0.9-9.3-0.2-2.5 3.3-5 6.6-6 10.8-0.9 4.2 0 8.7 3.3 11.2 2.5 2.1 5.8 2.5 8.9 2.9 0.8 0.2 1.6 0.2 2-0.2zm-4.3 5.2c-1.2-1.2-2.9-1.2-4.1-0.4-2.3 4.1-3.9 8.9-3.9 13.8 0 4.8 1.6 9.7 4.8 13.2 3.3 3.7 8.3 5.8 12.8 5-1.4-10.5-2.5-21.3-2.9-31.8-4 0-3 0.2-6.7 0.2zm3.1 47.3c0 2.9 0 6 0.9 8.7 1.8 6.2 8.7 10.5 15.1 9.9-2.5-9.9-5-19.9-7.6-29.8 0.2 1.2-0.9 2.3-2.1 2.7s-2.5 0.4-3.5 1.2c-2.5 1.1-2.8 4.4-2.8 7.3zm13.6 25.4c3.9 11.7 14.4 20.8 26.6 23.1-6.6-8.9-13.2-17.6-20-26.6-1.6 2.1-4.1 3.5-6.6 3.5zm85.7-151.6c0.7 7.6 0.9 15.3 0.7 22.9 1.6-0.2 3.3-1.4 3.9-2.9 0.7-1.6 0.9-3.3 0.9-5-0.2-4.6-1.8-9.1-4.6-12.6-0.2-0.2-0.7 0-0.7 0.2-0.5-2.2 0.4-0.3-0.2-2.6zm2.9 51.9c2.3-1.6 4.3-3.5 6-5.8 1.6-2.3 2.7-5 2.5-7.8-0.2-2.7-1.4-5.3-3.3-7.6-1.8-2.3-3.9-3.9-6.2-5.5 0.6 8.9 0.8 17.8 1 26.7zm8.9 4.1c-1.6-1.6-4.1-3.3-6.4-2.3-2.3 1.2-2.5 3.9-2.5 6.4 0 5-0.2 9.9-0.2 14.9 3.5-1.2 7.1-2.3 10.5-3.5 1.6-0.7 3.7-1.4 4.3-2.9 0.7-1.6 0.2-3.5-0.7-5-1.1-3-2.9-5.5-5-7.6zm2.1 48.8c2.5-3.3 2.7-7.8 1.6-11.7-1.2-3.9-3.7-7.4-6.2-10.8-2.3 0.9-5.3 0-6.8-1.8-1.6 2.9-3.5 6.4-3.3 9.9 0.2 2.1 0.9 4.1 1.6 6 1.8 5.5 2.3 11.2 1.6 16.9 3.2-3.4 8.5-4.6 11.5-8.5zm-8.3 29.6c2.1-4.3 2.7-9.7 1.4-14.2h-8c-2.1 8.5-5 16.7-8.5 24.5 1.4 0.7 3.3 0.2 4.6-0.4 4.6-2 8.5-5.3 10.5-9.9zm-18.8 17.4c-2.3 1.2-3.7 3.3-4.8 5.3-4.1 6.2-9.7 11.4-16.3 14.7 11.7-0.9 22.5-8.5 27.5-19-0.6-2.4-4.3-2.2-6.4-1zm-32.2 27.5l-1.4 17.9c4.1-4.3 7.1-9.9 8.7-15.5-2.5-0.2-5.3-1-7.3-2.4zm-6.6-1.2c-1.8 2.3-5 3.5-8 2.9 2.9 5 6.2 10.1 9.1 15.1-0.7-5.9-1.1-11.8-1.1-18zm123.4-154.6l-8.5-2.1m-218.5-31.3l-9.1 2.1" fill="#949494"/>
</svg>
