<?xml version="1.0" encoding="UTF-8"?>
<svg xmlns="http://www.w3.org/2000/svg" version="1.1" xmlns:xlink="http://www.w3.org/1999/xlink" viewBox="0 0 278.27 247.81">
  <defs>
    <style>
      .cls-1 {
        fill: none;
      }

      .cls-2 {
        clip-path: url(#clippath-1);
      }

      .cls-3 {
        fill: #5d0025;
      }

      .cls-4 {
        clip-path: url(#clippath);
      }
    </style>
    <clipPath id="clippath">
      <rect class="cls-1" x=".06" y=".01" width="278.2" height="247.8"/>
    </clipPath>
    <clipPath id="clippath-1">
      <rect class="cls-1" x=".06" y=".01" width="278.2" height="247.8"/>
    </clipPath>
  </defs>
  <!-- Generator: Adobe Illustrator 28.7.1, SVG Export Plug-In . SVG Version: 1.2.0 Build 142)  -->
  <g>
    <g id="Layer_1">
      <g class="cls-4">
        <path class="cls-3" d="M272.5,195.52c-4.35,9.34-12.36,19.86-27.08,27.23-37.33,18.68-120.47,40.39-194.88,9.7-15.31-6.32-49.39-30.26-40.13-52.07,0,0-7.09-43.4-6.46-55.12.22-4.13-5.77-3.15-3.4-13.29,1.68-7.23,41.22-52.26,41.22-52.26,0,0,36.88-45.64,103.17-58.45,11.01-2.12,30.29-2.04,49.12,3.92,0,0,22.85,5.16,37.92,24.12l-17.56-6.88c-29.02-21.18-63.78-14.36-63.78-14.36C70.39,23.02,32.64,82.39,16.9,100.46c-9.17,10.52-8.31,17.82-6.06,24.28,2.25,6.45,1.69,18.29,1.69,18.29,2.48,11.03,1.91,15.45,1.91,15.45,0,0,5.51,12.59,3.35,18.28-6.14,16.16,1.88,13.15,3.22,22.15,1.34,8.99,9.54,11.95,18.91,17.21,26.43,14.84,50.98,22.28,93.6,23.02,98.83-5.17,107.16-23.57,107.16-23.57,6.12-6.11-5.32-13.7-17.42-14.76-14.61-.97-44.04-8.42-44.04-8.42,4.99-1.19,10.53-.9,10.53-.9,6.56.77,33.89,5.63,50.99,6.16,22.9.72,19.39,9.86,19.39,9.86l5.56-7.08,6.83-4.9"/>
      </g>
      <path class="cls-3" d="M194.8,203.46c1.6,2.46,1.68,19.98,1.68,19.98,0,0-.75,5.15-4.23,6.28-3.48,1.14-11.93,5.37-12.77-3.64-.83-9.02-2.13-19.33-1.48-26.59,0,0,15.21,1.52,16.8,3.97"/>
      <path class="cls-3" d="M203.8,205.04s3.46-3.64,5.09-.18c2.54,5.34,3.39,23.86,3.39,23.86,0,0-6.33,3.94-8.91,2.03,0,0-.22-16.13.43-25.71"/>
      <path class="cls-3" d="M221.76,213.96c4.05.86,3.83,11.35,3.83,11.35-.94,1.55-9.68,4.2-9.68,4.2-.21-6.01,1.8-16.4,5.85-15.55"/>
      <path class="cls-3" d="M115,240.99s-44.35-2.81-78.21-21.16c-9.29-6.7-10.59-18.66,10.28-26.08l3.58,20.98s4.28,3.41,7.22,2.92c2.95-.5-1.63-20.45,3.12-26.19,1.34-1.63,4.94-2.2,4.94-2.2l3.24,33.06s2.6,2.42,2.94-2.12c.33-4.53.41-29.67,6.38-31.4,0,0,1.53-1.29,8.61-.04l2.85,36.09.82-6.13s.44-15.13,7.15-14.04c2.29.37,5.35,1.43,8.17,3.62,4.55,3.54,10.14,16.71,8.93,32.7"/>
      <path class="cls-3" d="M164.3,198.17c1.96,3.02,2.05,24.55,2.05,24.55,0,0-.91,6.32-5.19,7.72-4.27,1.39-14.66,6.61-15.69-4.47-1.03-11.09-2.62-23.77-1.83-32.68,0,0,18.69,1.87,20.66,4.88"/>
      <g class="cls-2">
        <path class="cls-3" d="M272.48,145.71s4.32-5.69,5.04.32c.72,6-6.09,11.78-17.84,20.25,0,0,5-.68,7.26,6.28,0,0,.7,4.99,4.68,3.84,3.98-1.15,6.13,2.79,3.24,6.42-2.88,3.63-11.39,18.01-90.33,3.85,0,0-42.48-6.97-49.55-7.71,0,0,60.29,15.72,14.43,9.51,0,0-62.78-12.25-94.27-7.56-31.49,4.68-34.13,18.01-34.13,18.01,0,0-15.14-16.42,25.88-23.74,31.39-7.69,69.76-3.07,69.76-3.07,0,0,57.62,9.61,86.42,12.88,26.76,3.03,42.84,2.94,48.23-.78,0,0-46.8-1.29-105-12.2-56.88-10.66-88.12-4.28-106.58-.58-18.46,3.7-17.57-5.21-19.33-13.87-3.34-16.32-6.15-27.26-.8-41.18,6.06-15.75,44.75-81.14,121.51-101.92,4.53-1.23,7.95,3.05,7.95,3.05-17.21,18.91-40.64,40.3-26.85,87.04,13.79,46.73,65.28,65.94,103.37,63.02,0,0-94.15-4.21-98.69-85.98,0,0-.53-63.75,53.31-67.15,0,0,25.1-3.87,48.87,13.34,0,0-16.86-3.98-22.26-.75,0,0,47.43,4.77,55.89,56.73,0,0,4.56,27.99-15.45,44.31,0,0,11.49-1.94,19.26-22.83,0,0,1.21-8.09,5.41-3.21,4.2,4.87,17.3,33.03-24.5,57.7,0,0,13.97-2.53,25.11-13.99M199.57,22.55c-43.6-4.82-64.77,69.75-20.23,105.3,38.45,33.87,70.42,1.42,70.42,1.42-51.35,33.32-90.66-27.68-88.48-58.89,1.15-45.15,38.29-47.84,38.29-47.84ZM18.34,124.96C64.09,53.25,97.98,48.54,103.23,44.21c5.25-4.32,7.21.23,7.21.23-.34,7.14-2.66,14.89-2.66,14.89,12.12-30.74,26.88-38.08,26.88-38.08C46.58,51.38,18.34,124.96,18.34,124.96ZM247.68,107.01c10.47-12.88-1.38-40.19-1.38-40.19-7.98-20.17-21.13-24.28-21.13-24.28-3.4-.35-3.43,4.09-.47,10.1,2.73,5.57-.96,4.81-.96,4.81-4.43-.57-6.02-4.9-6.67-6.34-.64-1.44-3.13-16.08-11.88-16.64,0,0-7.09-2.17-12.41,2.35,0,0-8.37,1.19-5.99,6.05l2.34,1.61s-1.02-3.18,2.04-2.81c3.07.37,9.64,3.17,9.64,3.17,0,0-7.18-.98-8.36-.3-1.18.67,4.3,1.48,4.88,2.62.58,1.15.33,7.27-2.77,9.45-2.87,2.02-5.62,1.56-6.71-.44-1.1-2-1.39-11.8-7.07-11.98-5.67-.19-7.94,4.7-8.07,5.61,0,0-15.75,25.4,6.79,54.62,0,0-17.31-29.59-4.35-50.95,0,0,4.81-5.38,7.31.07,2.5,5.46,2.68,8.69,9.91,7.6,4.22-.64,8.27-3.61,10.01-5.51.61-1.63,1.69-4.92,1.34-6.56.23.89.9,3.75.38,6.49,1.47.42,3.09.96,4.6,1.72.86-3.26,1.43-8.58.44-10.81,0,0,5.14,6.32,3.86,13.6,3.83,1.73,12.71,3.35,16.12.84,4-2.95,1.71-9,7.14-3.76,3.89,3.74,16.36,26.68,12.53,44.49l-1.11,5.36ZM195.71,38.1l1.26-1.87,7.02,3.36-8.28-1.49ZM205.65,59.63s-5.61,3.69-11.58,4.77c-5.33.98-12.49-.23-12.49-.23,0,0-3.87,31.3,35.75,53.82,26.92-17.5,17.68-43.44,15.73-51.89-.62-1.58-1.59-1.02-1.59-1.02,0,0-6.73.91-12.37-.22-6.57-1.33-13.46-5.23-13.46-5.23Z"/>
      </g>
      <path class="cls-3" d="M207.68,60.91s6.55,3.71,12.78,4.97c5.36,1.07,12.6.23,12.6.23,0,0,13.58,30.53-14.42,49.35-35.93-19.99-34.66-50.26-34.66-50.26,0,0,7.65,1.15,12.72.23,5.66-1.04,10.99-4.53,10.99-4.53M230.26,78.64h1.38c-.18-.82-.35-1.6-.54-2.42-13.05-.23-25.62-.52-40.85-.78.69.49,1.38.95,2.07,1.4l.41.27c1.63,6.09,4.44,14.19,7.09,19.38-.92-3.21-1.53-6.31-1.95-9.73-.99-2.85-2.39-7.98-2.39-7.98l.55-.02c1.06-.02,2.11-.03,3.15-.05h1.19c2.32,8.65,5.75,17.26,9.71,25.04-1.55-4.48-2.7-8.7-3.58-13.25-1.56-4.05-2.73-7.3-3.94-11.81l1.11-.02c1.03-.01,2.06-.02,3.07-.02h.69c2.7,10.05,6.63,20.33,10.49,29.87-1.7-5.54-2.99-10.76-4.06-16.3-1.6-4.65-4.22-13.57-4.22-13.57l.97-.02c.87,0,1.73,0,2.59,0h.86c2.61,9.75,6.14,20.22,9.03,29.68-1.11-5.7-2.06-11.1-2.85-16.79-1.36-4.43-3.83-12.89-3.83-12.89h.78c.87,0,1.73,0,2.6,0h.79c2.07,7.75,4.57,16.79,6.35,24.43-.4-4.65-.83-9.09-1.24-13.74-.92-3.68-2.69-10.68-2.69-10.68h.99c.73,0,1.46,0,2.19,0h.82c1.29,5.22,2.87,12.04,3.87,17.25.07-3.66.21-7.14.28-10.79-.51-2.22-1.6-6.44-1.6-6.44"/>
      <path class="cls-3" d="M262.93,228.18c0-4.01,3.17-7.18,7.09-7.18s7.09,3.17,7.09,7.18-3.18,7.18-7.09,7.18-7.09-3.17-7.09-7.18M266.8,232.91h1.07v-4.19h2.01l2.79,4.19h1.24l-2.78-4.19c1.28-.21,2.37-.97,2.37-2.65s-.93-2.61-3.07-2.61h-3.64v9.45ZM267.86,224.43h2.34c1.13,0,2.22.35,2.22,1.64s-.98,1.67-2.22,1.67h-2.34v-3.31ZM261.77,228.18c0,4.57,3.69,8.25,8.25,8.25s8.25-3.68,8.25-8.25-3.68-8.24-8.25-8.24-8.25,3.68-8.25,8.24Z"/>
    </g>
  </g>
</svg>