<?xml version="1.0" encoding="utf-8"?>
<!-- Generator: Adobe Illustrator 22.1.0, SVG Export Plug-In . SVG Version: 6.00 Build 0)  -->
<svg version="1.1" id="Layer_1" xmlns="http://www.w3.org/2000/svg" xmlns:xlink="http://www.w3.org/1999/xlink" x="0px" y="0px"
	 viewBox="0 0 153.4 27.1" style="enable-background:new 0 0 153.4 27.1;" xml:space="preserve">
<style type="text/css">
	.st0{opacity:0.7;}
	.st1{fill:#332C2C;}
</style>
<g class="st0">
	<rect x="41.3" class="st1" width="0.7" height="27.1"/>
	<polygon class="st1" points="29.6,9.1 26.7,9.1 26.5,9.1 26.4,9.3 24.3,13.8 22.1,9.3 22,9.1 21.9,9.1 19,9.1 18.7,9.1 18.7,9.4 
		18.7,10.9 18.7,11.2 19,11.2 19.5,11.2 19.5,17.6 19,17.6 18.7,17.6 18.7,17.9 18.7,19.4 18.7,19.7 19,19.7 22.2,19.7 22.4,19.7 
		22.4,19.4 22.4,17.9 22.4,17.6 22.2,17.6 21.6,17.6 21.6,13.1 24,18 24.3,18.5 24.5,18 27,13.1 27,17.6 26.4,17.6 26.1,17.6 
		26.1,17.9 26.1,19.4 26.1,19.7 26.4,19.7 29.6,19.7 29.9,19.7 29.9,19.4 29.9,17.9 29.9,17.6 29.6,17.6 29.1,17.6 29.1,11.2 
		29.6,11.2 29.9,11.2 29.9,10.9 29.9,9.4 29.9,9.1 	"/>
	<path class="st1" d="M10.9,17.6h-0.9l-2.8-6.5h0.6V9.1H3.3v2.1H4l-2.8,6.5H0v2.1h4.1v-2.1H3.5l0.5-1.1h3.4l0.5,1.1H7.1v2.1h4.1
		v-2.1H10.9z M6.4,14.5H4.8l0.8-1.8L6.4,14.5z"/>
	<path class="st1" d="M26.2,1.1H3.3v6.7h4.5V5.2h4.8v15.9h-2.6v4.5h9.6v-4.5h-2.6V5.2H22v2.5h4.6V1.1H26.2z M17.8,23l1-1v2.7l-1-0.9
		V23z M16.2,22l-1,0.9V3.3l1,1V22z M5.2,3l-1-1h20.9l-1.2,1H5.2z M25.6,6.8l-1-0.9V3.5l1-1V6.8z"/>
</g>
<g class="st0">
	<path class="st1" d="M57.8,15.8v-2.7h4.6v7.5c0,2.5-1.2,3.8-3.8,3.8H57c-2.5,0-3.8-1.2-3.8-3.8V7.5c0-2.5,1.2-3.8,3.8-3.8h1.6
		c2.5,0,3.7,1.2,3.7,3.7v3.3h-3V7.6c0-0.8-0.4-1.2-1.2-1.2h-0.6c-0.8,0-1.2,0.4-1.2,1.2v12.8c0,0.8,0.4,1.2,1.2,1.2h0.7
		c0.8,0,1.2-0.4,1.2-1.2v-4.7H57.8z"/>
	<path class="st1" d="M67.3,24.2h-3.1V3.9h3.1V24.2z"/>
	<path class="st1" d="M78,17.3v3.3c0,2.5-1.2,3.8-3.8,3.8h-1.4c-2.5,0-3.7-1.2-3.7-3.7v-4.3h3v4.2c0,0.8,0.4,1.2,1.2,1.2h0.4
		c0.8,0,1.2-0.4,1.2-1.2v-2.8c0-0.8-0.3-1.2-0.9-1.7l-3.1-2.3c-1.4-1-1.8-1.9-1.8-3.5V7.5c0-2.5,1.2-3.8,3.8-3.8h1.3
		C76.7,3.7,78,5,78,7.4v3.7h-3V7.6c0-0.8-0.4-1.2-1.2-1.2h-0.4c-0.8,0-1.2,0.4-1.2,1.2v2.3c0,0.8,0.3,1.2,0.9,1.7l3.1,2.3
		C77.6,14.8,78,15.6,78,17.3z"/>
	<path class="st1" d="M83.4,3.9H88c3,0,4.4,1.5,4.4,4.4v11.4c0,3-1.4,4.4-4.4,4.4h-4.7V3.9z M86.5,21.5h1.1c1.2,0,1.8-0.6,1.8-1.8
		V8.4c0-1.2-0.6-1.8-1.8-1.8h-1.1V21.5z"/>
	<path class="st1" d="M103.4,24.2h-3.1L99.9,21h-3.2l-0.4,3.2h-2.9l2.9-20.3h4.1L103.4,24.2z M97.1,18.2h2.5L98.3,8L97.1,18.2z"/>
	<path class="st1" d="M109.3,17v7.2h-3.1v-6.9l-3.3-13.4h3.2l1.7,8.6l1.9-8.6h3L109.3,17z"/>
	<path class="st1" d="M122,12.4c0.6-0.8,0.8-1.2,0.8-1.9V7.6c0-0.8-0.4-1.2-1.1-1.2h-0.4c-0.8,0-1.2,0.4-1.2,1.2v3.6h-3V7.5
		c0-2.5,1.2-3.8,3.7-3.8h1.2c2.5,0,3.7,1.2,3.7,3.8v2.8c0,1.4-0.3,2.5-1.6,4l-3.3,4.1c-0.6,0.8-0.8,1.3-0.8,2.2v0.7h5.7v2.8h-8.8
		v-3.7c0-1.5,0.4-2.5,1.6-4L122,12.4z"/>
	<path class="st1" d="M132.8,24.4h-1.5c-2.5,0-3.8-1.2-3.8-3.8V7.5c0-2.5,1.2-3.8,3.8-3.8h1.5c2.5,0,3.8,1.2,3.8,3.8v13.1
		C136.5,23.1,135.3,24.4,132.8,24.4z M132.3,6.4h-0.6c-0.8,0-1.2,0.4-1.2,1.2v12.8c0,0.8,0.4,1.2,1.2,1.2h0.6c0.8,0,1.2-0.4,1.2-1.2
		V7.6C133.5,6.8,133.1,6.4,132.3,6.4z"/>
	<path class="st1" d="M142.5,24.2h-3V8h-1.9V5.7l0.2,0c1.1-0.1,1.7-0.5,2.3-1.4l0.3-0.5h2V24.2z"/>
	<path class="st1" d="M150.2,20.4v-4.6c-0.7,0.3-1.5,0.6-2.4,0.6h-0.1c-2.1,0-3.3-1.4-3.3-3.4V7.5c0-2.5,1.2-3.8,3.8-3.8h1.3
		c2.5,0,3.8,1.2,3.8,3.8v13.1c0,2.5-1.2,3.8-3.8,3.8h-1.3c-2.6,0-3.7-1.2-3.7-3.7v-2.6h3v2.3c0,0.8,0.4,1.2,1.1,1.2h0.5
		C149.9,21.6,150.2,21.3,150.2,20.4z M150.2,7.6c0-0.8-0.4-1.2-1.1-1.2h-0.5c-0.8,0-1.1,0.4-1.1,1.2v4.8c0,0.8,0.3,1.2,1.2,1.2
		c0.6,0,1.2-0.1,1.6-0.3V7.6z"/>
</g>
</svg>
