<?xml version="1.0" encoding="utf-8"?>
<!-- Generator: Adobe Illustrator 23.1.0, SVG Export Plug-In . SVG Version: 6.00 Build 0)  -->
<svg version="1.1" id="Layer_1" xmlns="http://www.w3.org/2000/svg" xmlns:xlink="http://www.w3.org/1999/xlink" x="0px" y="0px"
	 viewBox="0 0 226.4 53.2" style="enable-background:new 0 0 226.4 53.2;" xml:space="preserve">
<style type="text/css">
	.st0{fill:none;stroke:#FFFFFF;stroke-width:1.254;}
	.st1{fill:#FFFFFF;}
	.st2{fill:#B1B3B6;}
	.st3{enable-background:new    ;}
</style>
<line id="Separator" class="st0" x1="67" y1="0" x2="67" y2="53.2"/>
<g id="Block">
	<path class="st1" d="M37.1,46.8c0-0.9,0.7-1.6,1.6-1.6c0.9,0,1.6,0.7,1.6,1.6c0,0.9-0.7,1.6-1.6,1.6C37.9,48.5,37.1,47.8,37.1,46.8
		 M40,46.8c0-0.8-0.6-1.3-1.2-1.3c-0.7,0-1.2,0.6-1.2,1.3c0,0.8,0.6,1.3,1.2,1.3C39.5,48.2,40,47.6,40,46.8 M38.2,45.9h0.7
		c0.4,0,0.7,0.2,0.7,0.5s-0.2,0.5-0.5,0.5l0.5,0.8h-0.4L38.7,47h-0.2v0.8h-0.3V45.9z M38.5,46.7h0.3c0.2,0,0.4,0,0.4-0.3
		c0-0.2-0.2-0.3-0.4-0.3h-0.3V46.7z"/>
	<g>
		<polygon class="st1" points="52.8,19.1 47.6,19.1 47.2,19.1 47.1,19.3 43.3,27.3 39.4,19.3 39.3,19.1 39,19.1 33.9,19.1 
			33.4,19.1 33.4,19.6 33.4,22.3 33.4,22.8 33.9,22.8 34.7,22.8 34.7,34.2 33.8,34.2 33.3,34.2 33.3,34.7 33.3,37.4 33.3,37.9 
			33.8,37.9 39.5,37.9 40,37.9 40,37.4 40,34.7 40,34.2 39.5,34.2 38.5,34.2 38.5,26.1 42.8,34.9 43.3,35.8 43.7,34.9 48.1,26.1 
			48.1,34.2 47.1,34.2 46.6,34.2 46.6,34.7 46.6,37.4 46.6,37.9 47.1,37.9 52.8,37.9 53.3,37.9 53.3,37.4 53.3,34.7 53.3,34.2 
			52.8,34.2 51.9,34.2 51.9,22.8 52.8,22.8 53.3,22.8 53.3,22.3 53.3,19.6 53.3,19.1 		"/>
		<path class="st1" d="M19.5,34.2H18l-5-11.5h0.5H14v-0.5v-2.7V19h-0.5h-7H5.9v0.5v2.7v0.5h0.5H7L2,34.2H0.5H0v0.5v2.7v0.5h0.5h6.3
			h0.5v-0.5v-2.7v-0.5H6.8H6.2L7,32.3h6l0.8,1.9h-0.6h-0.5v0.5v2.7v0.5h0.5h6.3H20v-0.5v-2.7v-0.5H19.5z M11.4,28.6H8.6l1.4-3.2
			L11.4,28.6z"/>
		<polygon class="st1" points="46.8,4.7 6.4,4.7 5.9,4.7 5.9,5.3 5.9,16 5.9,16.6 6.4,16.6 13.4,16.6 14,16.6 14,16 14,12 22.6,12 
			22.6,40.4 18.6,40.4 18,40.4 18,41 18,47.9 18,48.5 18.6,48.5 34.6,48.5 35.2,48.5 35.2,47.9 35.2,41 35.2,40.4 34.6,40.4 
			30.6,40.4 30.6,12 39.2,12 39.2,16 39.2,16.5 39.8,16.5 46.8,16.5 47.3,16.5 47.3,16 47.3,5.3 47.3,4.7 		"/>
		<g>
			<polygon class="st2" points="31.8,43.7 33.5,42 33.5,46.8 31.8,45.2 			"/>
			<polygon class="st2" points="29,42.1 27.3,43.8 27.3,8.7 29,10.4 			"/>
			<polygon class="st2" points="9.3,8.1 7.5,6.4 44.8,6.4 42.6,8.1 			"/>
			<polygon class="st2" points="45.7,15 44,13.3 44,9 45.7,7.3 			"/>
		</g>
	</g>
</g>
<g id="Editable">
	<g class="st3">
		<path class="st1" d="M87.7,14.9h-1.3V7.8H84V6.7h6.2v1.2h-2.4V14.9z"/>
		<path class="st1" d="M96,14.9h-4.6V6.7H96v1.1h-3.3v2.2h3.1v1.1h-3.1v2.6H96V14.9z"/>
		<path class="st1" d="M103.9,14.9h-1.5l-2.1-3.4l-2.1,3.4h-1.4l2.7-4.3l-2.5-4h1.5l1.9,3.1l1.9-3.1h1.4l-2.6,4L103.9,14.9z"/>
		<path class="st1" d="M110.1,14.9l-0.8-2.3h-3.1l-0.8,2.3h-1.4l3.1-8.2h1.5l3.1,8.2H110.1z M108.9,11.5l-0.8-2.2
			c-0.1-0.1-0.1-0.4-0.2-0.7s-0.2-0.6-0.2-0.7c-0.1,0.5-0.2,1-0.4,1.5l-0.7,2.1H108.9z"/>
		<path class="st1" d="M117.3,12.7c0,0.7-0.3,1.3-0.8,1.7c-0.5,0.4-1.3,0.6-2.2,0.6c-0.9,0-1.7-0.1-2.3-0.4v-1.3
			c0.4,0.2,0.8,0.3,1.2,0.4c0.4,0.1,0.8,0.2,1.2,0.2c0.5,0,0.9-0.1,1.2-0.3s0.4-0.5,0.4-0.8c0-0.3-0.1-0.6-0.3-0.8
			c-0.2-0.2-0.7-0.5-1.4-0.8c-0.7-0.3-1.3-0.6-1.6-1c-0.3-0.4-0.5-0.9-0.5-1.4c0-0.7,0.2-1.2,0.7-1.6c0.5-0.4,1.1-0.6,2-0.6
			c0.8,0,1.6,0.2,2.3,0.5l-0.4,1.1c-0.7-0.3-1.4-0.5-2-0.5c-0.4,0-0.8,0.1-1,0.3c-0.2,0.2-0.3,0.4-0.3,0.8c0,0.2,0,0.4,0.1,0.5
			s0.2,0.3,0.4,0.4c0.2,0.1,0.6,0.3,1.1,0.5c0.6,0.3,1,0.5,1.3,0.7c0.3,0.2,0.5,0.5,0.6,0.7C117.2,12,117.3,12.3,117.3,12.7z"/>
		<path class="st1" d="M127,14.9l-0.8-2.3H123l-0.8,2.3h-1.4l3.1-8.2h1.5l3.1,8.2H127z M125.8,11.5L125,9.2
			c-0.1-0.1-0.1-0.4-0.2-0.7c-0.1-0.3-0.2-0.6-0.2-0.7c-0.1,0.5-0.2,1-0.4,1.5l-0.7,2.1H125.8z"/>
		<path class="st1" d="M128.9,12.7c0-0.5,0.1-0.9,0.4-1.3c0.2-0.4,0.7-0.7,1.3-1.1c-0.4-0.4-0.6-0.8-0.7-1.1
			c-0.1-0.3-0.2-0.6-0.2-0.9c0-0.6,0.2-1,0.6-1.3c0.4-0.3,1-0.5,1.6-0.5c0.7,0,1.2,0.2,1.6,0.5c0.4,0.3,0.6,0.8,0.6,1.3
			c0,0.4-0.1,0.8-0.4,1.2s-0.7,0.7-1.3,1l1.9,1.9c0.3-0.4,0.6-1,0.8-1.8h1.4c-0.3,1.1-0.7,1.9-1.3,2.6l1.7,1.6h-1.7l-0.8-0.8
			c-0.4,0.3-0.8,0.5-1.2,0.7s-0.9,0.2-1.4,0.2c-0.9,0-1.5-0.2-2-0.6S128.9,13.4,128.9,12.7z M131.8,13.9c0.7,0,1.3-0.2,1.8-0.6
			l-2.2-2.1c-0.4,0.3-0.7,0.5-0.8,0.7c-0.2,0.2-0.2,0.5-0.2,0.8c0,0.4,0.1,0.7,0.4,0.9C131,13.8,131.3,13.9,131.8,13.9z M130.9,8.5
			c0,0.2,0.1,0.5,0.2,0.7c0.1,0.2,0.3,0.4,0.5,0.7c0.4-0.2,0.7-0.5,0.9-0.7c0.2-0.2,0.3-0.4,0.3-0.7c0-0.2-0.1-0.4-0.2-0.6
			c-0.2-0.1-0.4-0.2-0.6-0.2c-0.3,0-0.5,0.1-0.7,0.2C131,8,130.9,8.2,130.9,8.5z"/>
		<path class="st1" d="M141.5,14.9L139.2,8h0c0.1,1,0.1,2,0.1,2.9v4H138V6.7h1.9l2.3,6.5h0l2.3-6.5h1.9v8.2h-1.3v-4.1
			c0-0.4,0-0.9,0-1.6s0-1.1,0.1-1.2h0l-2.5,6.8H141.5z"/>
		<path class="st1" d="M158,6.7V12c0,0.6-0.1,1.1-0.4,1.6c-0.3,0.5-0.6,0.8-1.1,1s-1.1,0.4-1.8,0.4c-1,0-1.8-0.3-2.4-0.8
			c-0.6-0.5-0.8-1.3-0.8-2.2V6.7h1.3v5.2c0,0.7,0.2,1.2,0.5,1.5c0.3,0.3,0.8,0.5,1.4,0.5c1.3,0,1.9-0.7,1.9-2V6.7H158z"/>
		<path class="st1" d="M167,14.9h-1.6l-4-6.5h0l0,0.4c0.1,0.7,0.1,1.3,0.1,1.9v4.3h-1.2V6.7h1.6l4,6.5h0c0-0.1,0-0.4,0-0.9
			s0-1,0-1.3V6.7h1.2V14.9z"/>
		<path class="st1" d="M169.1,14.9V6.7h1.3v8.2H169.1z"/>
		<path class="st1" d="M177.3,6.7h1.4l-2.9,8.2h-1.4l-2.9-8.2h1.4l1.7,5.1c0.1,0.2,0.2,0.6,0.3,0.9c0.1,0.4,0.2,0.7,0.2,0.9
			c0-0.3,0.1-0.6,0.2-1c0.1-0.4,0.2-0.7,0.2-0.8L177.3,6.7z"/>
		<path class="st1" d="M184.4,14.9h-4.6V6.7h4.6v1.1h-3.3v2.2h3.1v1.1h-3.1v2.6h3.3V14.9z"/>
		<path class="st1" d="M187.6,11.6v3.3h-1.3V6.7h2.3c1.1,0,1.8,0.2,2.4,0.6c0.5,0.4,0.8,1,0.8,1.8c0,1-0.5,1.8-1.6,2.2l2.3,3.6h-1.5
			l-2-3.3H187.6z M187.6,10.5h0.9c0.6,0,1.1-0.1,1.4-0.3c0.3-0.2,0.4-0.6,0.4-1c0-0.5-0.2-0.8-0.5-1c-0.3-0.2-0.8-0.3-1.4-0.3h-0.9
			V10.5z"/>
		<path class="st1" d="M198.3,12.7c0,0.7-0.3,1.3-0.8,1.7c-0.5,0.4-1.3,0.6-2.2,0.6c-0.9,0-1.7-0.1-2.3-0.4v-1.3
			c0.4,0.2,0.8,0.3,1.2,0.4c0.4,0.1,0.8,0.2,1.2,0.2c0.5,0,0.9-0.1,1.2-0.3c0.3-0.2,0.4-0.5,0.4-0.8c0-0.3-0.1-0.6-0.3-0.8
			s-0.7-0.5-1.4-0.8c-0.7-0.3-1.3-0.6-1.6-1c-0.3-0.4-0.5-0.9-0.5-1.4c0-0.7,0.2-1.2,0.7-1.6c0.5-0.4,1.1-0.6,2-0.6
			c0.8,0,1.6,0.2,2.3,0.5l-0.4,1.1c-0.7-0.3-1.4-0.5-2-0.5c-0.4,0-0.8,0.1-1,0.3c-0.2,0.2-0.3,0.4-0.3,0.8c0,0.2,0,0.4,0.1,0.5
			s0.2,0.3,0.4,0.4s0.6,0.3,1.1,0.5c0.6,0.3,1,0.5,1.3,0.7c0.3,0.2,0.5,0.5,0.6,0.7S198.3,12.3,198.3,12.7z"/>
		<path class="st1" d="M199.9,14.9V6.7h1.3v8.2H199.9z"/>
		<path class="st1" d="M206.2,14.9h-1.3V7.8h-2.4V6.7h6.2v1.2h-2.4V14.9z"/>
		<path class="st1" d="M212.2,10.4l1.9-3.7h1.5l-2.7,5v3.2h-1.3v-3.1l-2.7-5.1h1.5L212.2,10.4z"/>
	</g>
	<g class="st3">
	</g>
	<g class="st3">
	</g>
	<g id="Product_Text" class="st3">
		<path class="st1" d="M98.4,25.5v10.6c0,1.9-0.6,3.3-1.7,4.4c-1.1,1.1-2.7,1.6-4.7,1.6s-3.5-0.5-4.6-1.6c-1.1-1.1-1.6-2.6-1.6-4.4
			V25.5h1.9v10.7c0,1.4,0.4,2.4,1.1,3.2c0.7,0.7,1.8,1.1,3.3,1.1c1.4,0,2.5-0.4,3.2-1.1c0.7-0.7,1.1-1.8,1.1-3.2V25.5H98.4z"/>
		<path class="st1" d="M111.9,41.9h-9.2V25.5h9.2v1.7h-7.2v5.3h6.8v1.7h-6.8v6h7.2V41.9z"/>
		<path class="st1" d="M124.8,37.5c0,1.4-0.5,2.6-1.6,3.4c-1,0.8-2.5,1.2-4.3,1.2c-1.9,0-3.4-0.3-4.5-0.8v-1.8
			c0.7,0.3,1.4,0.5,2.2,0.7c0.8,0.2,1.6,0.2,2.4,0.2c1.3,0,2.2-0.2,2.9-0.7c0.6-0.5,1-1.2,1-2c0-0.6-0.1-1-0.3-1.4s-0.6-0.7-1.1-1
			c-0.5-0.3-1.3-0.7-2.4-1c-1.5-0.5-2.6-1.2-3.3-1.9c-0.7-0.7-1-1.7-1-2.9c0-1.3,0.5-2.3,1.4-3c1-0.7,2.2-1.1,3.8-1.1
			c1.6,0,3.1,0.3,4.5,0.9l-0.6,1.7c-1.4-0.6-2.7-0.9-4-0.9c-1,0-1.8,0.2-2.4,0.7c-0.6,0.4-0.9,1-0.9,1.8c0,0.6,0.1,1,0.3,1.4
			c0.2,0.4,0.6,0.7,1.1,1c0.5,0.3,1.3,0.6,2.3,1c1.7,0.6,2.9,1.3,3.6,2S124.8,36.4,124.8,37.5z"/>
		<path class="st1" d="M141.4,41.9l-5.6-14.6h-0.1c0.1,1.2,0.2,2.5,0.2,4.1v10.4h-1.8V25.5h2.9l5.2,13.5h0.1l5.2-13.5h2.9v16.4h-1.9
			V31.3c0-1.2,0.1-2.5,0.2-4h-0.1l-5.6,14.5H141.4z"/>
		<path class="st1" d="M162.1,41.9l-0.4-1.8h-0.1c-0.6,0.8-1.2,1.3-1.8,1.6c-0.6,0.3-1.4,0.4-2.3,0.4c-1.2,0-2.2-0.3-2.9-0.9
			s-1-1.5-1-2.7c0-2.5,2-3.8,6-3.9l2.1-0.1v-0.8c0-1-0.2-1.7-0.6-2.1c-0.4-0.5-1.1-0.7-2-0.7c-1,0-2.2,0.3-3.5,0.9l-0.6-1.4
			c0.6-0.3,1.3-0.6,2-0.8s1.4-0.3,2.2-0.3c1.5,0,2.6,0.3,3.3,1c0.7,0.7,1.1,1.7,1.1,3.1v8.4H162.1z M157.9,40.6c1.2,0,2.1-0.3,2.7-1
			c0.7-0.6,1-1.5,1-2.7v-1.1l-1.9,0.1c-1.5,0.1-2.6,0.3-3.2,0.7c-0.7,0.4-1,1-1,1.9c0,0.7,0.2,1.2,0.6,1.5S157.2,40.6,157.9,40.6z"
			/>
		<path class="st1" d="M173.1,42.1c-0.8,0-1.5-0.1-2.2-0.4c-0.7-0.3-1.2-0.8-1.7-1.4h-0.1c0.1,0.7,0.1,1.4,0.1,2v5.1h-1.9V29.6h1.5
			l0.3,1.7h0.1c0.5-0.7,1-1.2,1.7-1.5c0.6-0.3,1.4-0.4,2.2-0.4c1.6,0,2.9,0.6,3.8,1.7c0.9,1.1,1.3,2.7,1.3,4.7c0,2-0.5,3.6-1.4,4.7
			C175.9,41.6,174.7,42.1,173.1,42.1z M172.8,31c-1.3,0-2.2,0.3-2.7,1c-0.6,0.7-0.8,1.8-0.9,3.3v0.4c0,1.7,0.3,3,0.9,3.7
			c0.6,0.7,1.5,1.1,2.8,1.1c1.1,0,1.9-0.4,2.5-1.3c0.6-0.9,0.9-2,0.9-3.6c0-1.5-0.3-2.7-0.9-3.5C174.8,31.4,173.9,31,172.8,31z"/>
	</g>
</g>
</svg>
