<?xml version="1.0" encoding="utf-8"?>
<!-- Generator: Adobe Illustrator 23.1.0, SVG Export Plug-In . SVG Version: 6.00 Build 0)  -->
<svg version="1.1" id="Layer_1" xmlns="http://www.w3.org/2000/svg" xmlns:xlink="http://www.w3.org/1999/xlink" x="0px" y="0px"
	 viewBox="0 0 218.7 54" style="enable-background:new 0 0 218.7 54;" xml:space="preserve">
<style type="text/css">
	.st0{fill:#5D0025;}
	.st1{fill:#FFFFFF;}
	.st2{fill:#B1B3B6;}
	.st3{enable-background:new    ;}
	.st4{fill:#231F20;}
</style>
<g>
	<rect class="st0" width="53.6" height="54"/>
	<g>
		<polygon class="st1" points="46.5,21.5 42.5,21.5 42.3,21.5 42.2,21.7 39.3,27.7 36.4,21.7 36.3,21.5 36,21.5 32.2,21.5 
			31.8,21.5 31.8,21.9 31.8,23.9 31.8,24.3 32.2,24.3 32.9,24.3 32.9,32.9 32.1,32.9 31.8,32.9 31.8,33.2 31.8,35.3 31.8,35.7 
			32.1,35.7 36.5,35.7 36.8,35.7 36.8,35.3 36.8,33.2 36.8,32.9 36.5,32.9 35.7,32.9 35.7,26.8 38.9,33.4 39.3,34.1 39.6,33.4 
			42.9,26.8 42.9,32.9 42.1,32.9 41.8,32.9 41.8,33.2 41.8,35.3 41.8,35.7 42.1,35.7 46.5,35.7 46.8,35.7 46.8,35.3 46.8,33.2 
			46.8,32.9 46.5,32.9 45.7,32.9 45.7,24.3 46.5,24.3 46.8,24.3 46.8,23.9 46.8,21.9 46.8,21.5 		"/>
		<path class="st1" d="M21.4,32.9h-1.1l-3.7-8.6H17h0.4v-0.4v-2.1v-0.4H17h-5.3h-0.4v0.4v2.1v0.4h0.4H12l-3.7,8.6H7.1H6.7v0.4v2v0.4
			h0.4h4.7h0.4v-0.4v-2v-0.4h-0.4h-0.4l0.6-1.4h4.5l0.6,1.4h-0.5h-0.4v0.4v2v0.4h0.4h4.7h0.4v-0.4v-2v-0.4H21.4z M15.3,28.6h-2.1
			l1-2.4L15.3,28.6z"/>
		<polygon class="st1" points="41.9,10.7 11.6,10.7 11.2,10.7 11.2,11.1 11.2,19.2 11.2,19.6 11.6,19.6 16.8,19.6 17.2,19.6 
			17.2,19.2 17.2,16.2 23.7,16.2 23.7,37.5 20.7,37.5 20.3,37.5 20.3,38 20.3,43.2 20.3,43.6 20.7,43.6 32.8,43.6 33.2,43.6 
			33.2,43.2 33.2,38 33.2,37.5 32.8,37.5 29.8,37.5 29.8,16.2 36.2,16.2 36.2,19.2 36.2,19.6 36.6,19.6 41.9,19.6 42.3,19.6 
			42.3,19.2 42.3,11.1 42.3,10.7 		"/>
		<g>
			<polygon class="st2" points="30.7,40 32,38.7 32,42.3 30.7,41.1 			"/>
			<polygon class="st2" points="28.5,38.8 27.3,40.1 27.3,13.7 28.5,15 			"/>
			<polygon class="st2" points="13.7,13.2 12.4,11.9 40.4,11.9 38.8,13.2 			"/>
			<polygon class="st2" points="41.1,18.4 39.8,17.2 39.8,13.9 41.1,12.6 			"/>
		</g>
	</g>
	<path class="st0" d="M55.5,52.9c0-0.6,0.5-1.1,1.1-1.1s1.1,0.5,1.1,1.1S57.2,54,56.6,54S55.5,53.5,55.5,52.9z M57.4,52.9
		c0-0.5-0.4-0.9-0.8-0.9c-0.4,0-0.8,0.4-0.8,0.9s0.4,0.9,0.8,0.9C57,53.8,57.4,53.4,57.4,52.9z M56.1,52.3h0.5
		c0.3,0,0.4,0.1,0.4,0.4c0,0.2-0.1,0.3-0.3,0.3l0.3,0.5h-0.2L56.5,53h-0.1v0.5h-0.2v-1.2H56.1z M56.4,52.8h0.2c0.1,0,0.2,0,0.2-0.2
		c0-0.1-0.1-0.2-0.2-0.2h-0.2V52.8z"/>
</g>
<g id="Editable">
	<g class="st3">
		<path class="st4" d="M72.4,15.7h-1.3V8.6h-2.4V7.5h6.2v1.2h-2.4V15.7z"/>
		<path class="st4" d="M80.7,15.7h-4.6V7.5h4.6v1.1h-3.3v2.2h3.1V12h-3.1v2.6h3.3V15.7z"/>
		<path class="st4" d="M88.6,15.7H87L85,12.3l-2.1,3.4h-1.4l2.7-4.3l-2.5-4h1.5l1.9,3.1l1.9-3.1h1.4l-2.6,4L88.6,15.7z"/>
		<path class="st4" d="M94.8,15.7l-0.8-2.3h-3.1L90,15.7h-1.4l3.1-8.2h1.5l3.1,8.2H94.8z M93.6,12.3L92.8,10
			c-0.1-0.1-0.1-0.4-0.2-0.7s-0.2-0.6-0.2-0.7c-0.1,0.5-0.2,1-0.4,1.5l-0.7,2.1H93.6z"/>
		<path class="st4" d="M102,13.5c0,0.7-0.3,1.3-0.8,1.7c-0.5,0.4-1.3,0.6-2.2,0.6s-1.7-0.1-2.3-0.4v-1.3c0.4,0.2,0.8,0.3,1.2,0.4
			c0.4,0.1,0.8,0.2,1.2,0.2c0.5,0,0.9-0.1,1.2-0.3c0.3-0.2,0.4-0.5,0.4-0.8c0-0.3-0.1-0.6-0.3-0.8c-0.2-0.2-0.7-0.5-1.4-0.8
			c-0.7-0.3-1.3-0.6-1.6-1c-0.3-0.4-0.5-0.9-0.5-1.4c0-0.7,0.2-1.2,0.7-1.6c0.5-0.4,1.1-0.6,2-0.6c0.8,0,1.6,0.2,2.3,0.5L101.5,9
			c-0.7-0.3-1.4-0.5-2-0.5c-0.4,0-0.8,0.1-1,0.3c-0.2,0.2-0.3,0.4-0.3,0.8c0,0.2,0,0.4,0.1,0.5s0.2,0.3,0.4,0.4
			c0.2,0.1,0.6,0.3,1.1,0.5c0.6,0.3,1,0.5,1.3,0.7c0.3,0.2,0.5,0.5,0.6,0.7C101.9,12.8,102,13.1,102,13.5z"/>
		<path class="st4" d="M111.7,15.7l-0.8-2.3h-3.1l-0.8,2.3h-1.4l3.1-8.2h1.5l3.1,8.2H111.7z M110.5,12.3l-0.8-2.2
			c-0.1-0.1-0.1-0.4-0.2-0.7s-0.2-0.6-0.2-0.7c-0.1,0.5-0.2,1-0.4,1.5l-0.7,2.1H110.5z"/>
		<path class="st4" d="M113.6,13.5c0-0.5,0.1-0.9,0.4-1.3c0.2-0.4,0.7-0.7,1.3-1.1c-0.4-0.4-0.6-0.8-0.7-1.1s-0.2-0.6-0.2-0.9
			c0-0.6,0.2-1,0.6-1.3c0.4-0.3,1-0.5,1.6-0.5c0.7,0,1.2,0.2,1.6,0.5c0.4,0.3,0.6,0.8,0.6,1.3c0,0.4-0.1,0.8-0.4,1.2
			c-0.3,0.3-0.7,0.7-1.3,1l1.9,1.9c0.3-0.4,0.6-1,0.8-1.8h1.4c-0.3,1.1-0.7,1.9-1.3,2.6l1.7,1.6h-1.7l-0.8-0.8
			c-0.4,0.3-0.8,0.5-1.2,0.7c-0.4,0.2-0.9,0.2-1.4,0.2c-0.9,0-1.5-0.2-2-0.6C113.9,14.8,113.6,14.2,113.6,13.5z M116.5,14.7
			c0.7,0,1.3-0.2,1.8-0.6l-2.2-2.1c-0.4,0.3-0.7,0.5-0.8,0.7c-0.1,0.2-0.2,0.5-0.2,0.8c0,0.4,0.1,0.7,0.4,0.9
			C115.7,14.6,116,14.7,116.5,14.7z M115.6,9.3c0,0.2,0.1,0.5,0.2,0.7c0.1,0.2,0.3,0.4,0.5,0.7c0.4-0.2,0.7-0.5,0.9-0.7
			c0.2-0.2,0.3-0.4,0.3-0.7c0-0.2-0.1-0.4-0.2-0.6c-0.2-0.1-0.4-0.2-0.6-0.2c-0.3,0-0.5,0.1-0.7,0.2S115.6,9,115.6,9.3z"/>
		<path class="st4" d="M126.2,15.7l-2.4-6.9h0c0.1,1,0.1,2,0.1,2.9v4h-1.2V7.5h1.9l2.3,6.5h0l2.3-6.5h1.9v8.2h-1.3v-4.1
			c0-0.4,0-0.9,0-1.6s0-1.1,0.1-1.2h0l-2.5,6.8H126.2z"/>
		<path class="st4" d="M142.7,7.5v5.3c0,0.6-0.1,1.1-0.4,1.6c-0.3,0.5-0.6,0.8-1.1,1s-1.1,0.4-1.8,0.4c-1,0-1.8-0.3-2.4-0.8
			s-0.8-1.3-0.8-2.2V7.5h1.3v5.2c0,0.7,0.2,1.2,0.5,1.5c0.3,0.3,0.8,0.5,1.4,0.5c1.3,0,1.9-0.7,1.9-2V7.5H142.7z"/>
		<path class="st4" d="M151.7,15.7H150l-4-6.5h0l0,0.4c0.1,0.7,0.1,1.3,0.1,1.9v4.3h-1.2V7.5h1.6l4,6.5h0c0-0.1,0-0.4,0-0.9
			s0-1,0-1.3V7.5h1.2V15.7z"/>
		<path class="st4" d="M153.8,15.7V7.5h1.3v8.2H153.8z"/>
		<path class="st4" d="M162,7.5h1.4l-2.9,8.2h-1.4l-2.9-8.2h1.4l1.7,5.1c0.1,0.2,0.2,0.6,0.3,0.9c0.1,0.4,0.2,0.7,0.2,0.9
			c0-0.3,0.1-0.6,0.2-1c0.1-0.4,0.2-0.7,0.2-0.8L162,7.5z"/>
		<path class="st4" d="M169.1,15.7h-4.6V7.5h4.6v1.1h-3.3v2.2h3.1V12h-3.1v2.6h3.3V15.7z"/>
		<path class="st4" d="M172.3,12.4v3.3h-1.3V7.5h2.3c1.1,0,1.8,0.2,2.4,0.6s0.8,1,0.8,1.8c0,1-0.5,1.8-1.6,2.2l2.3,3.6h-1.5l-2-3.3
			H172.3z M172.3,11.3h0.9c0.6,0,1.1-0.1,1.4-0.3c0.3-0.2,0.4-0.6,0.4-1c0-0.5-0.2-0.8-0.5-1c-0.3-0.2-0.8-0.3-1.4-0.3h-0.9V11.3z"
			/>
		<path class="st4" d="M183,13.5c0,0.7-0.3,1.3-0.8,1.7c-0.5,0.4-1.3,0.6-2.2,0.6c-0.9,0-1.7-0.1-2.3-0.4v-1.3
			c0.4,0.2,0.8,0.3,1.2,0.4c0.4,0.1,0.8,0.2,1.2,0.2c0.5,0,0.9-0.1,1.2-0.3s0.4-0.5,0.4-0.8c0-0.3-0.1-0.6-0.3-0.8
			c-0.2-0.2-0.7-0.5-1.4-0.8c-0.7-0.3-1.3-0.6-1.6-1s-0.5-0.9-0.5-1.4c0-0.7,0.2-1.2,0.7-1.6c0.5-0.4,1.1-0.6,2-0.6
			c0.8,0,1.6,0.2,2.3,0.5L182.4,9c-0.7-0.3-1.4-0.5-2-0.5c-0.4,0-0.8,0.1-1,0.3c-0.2,0.2-0.3,0.4-0.3,0.8c0,0.2,0,0.4,0.1,0.5
			s0.2,0.3,0.4,0.4c0.2,0.1,0.6,0.3,1.1,0.5c0.6,0.3,1,0.5,1.3,0.7c0.3,0.2,0.5,0.5,0.6,0.7C182.9,12.8,183,13.1,183,13.5z"/>
		<path class="st4" d="M184.6,15.7V7.5h1.3v8.2H184.6z"/>
		<path class="st4" d="M190.9,15.7h-1.3V8.6h-2.4V7.5h6.2v1.2h-2.4V15.7z"/>
		<path class="st4" d="M196.9,11.2l1.9-3.7h1.5l-2.7,5v3.2h-1.3v-3.1l-2.7-5.1h1.5L196.9,11.2z"/>
	</g>
	<g class="st3">
	</g>
	<g class="st3">
	</g>
	<g id="Product_Text" class="st3">
		<path class="st4" d="M83.1,26.3v10.6c0,1.9-0.6,3.3-1.7,4.4c-1.1,1.1-2.7,1.6-4.7,1.6s-3.5-0.5-4.6-1.6c-1.1-1.1-1.6-2.6-1.6-4.4
			V26.3h1.9V37c0,1.4,0.4,2.4,1.1,3.2c0.7,0.7,1.8,1.1,3.3,1.1c1.4,0,2.5-0.4,3.2-1.1s1.1-1.8,1.1-3.2V26.3H83.1z"/>
		<path class="st4" d="M96.6,42.7h-9.2V26.3h9.2V28h-7.2v5.3h6.8V35h-6.8v6h7.2V42.7z"/>
		<path class="st4" d="M109.5,38.3c0,1.4-0.5,2.6-1.6,3.4s-2.5,1.2-4.3,1.2c-1.9,0-3.4-0.3-4.5-0.8v-1.8c0.7,0.3,1.4,0.5,2.2,0.7
			c0.8,0.2,1.6,0.2,2.4,0.2c1.3,0,2.2-0.2,2.9-0.7c0.6-0.5,1-1.2,1-2c0-0.6-0.1-1-0.3-1.4c-0.2-0.4-0.6-0.7-1.1-1
			c-0.5-0.3-1.3-0.7-2.4-1c-1.5-0.5-2.6-1.2-3.3-1.9c-0.7-0.7-1-1.7-1-2.9c0-1.3,0.5-2.3,1.4-3c1-0.7,2.2-1.1,3.8-1.1
			c1.6,0,3.1,0.3,4.5,0.9l-0.6,1.7c-1.4-0.6-2.7-0.9-4-0.9c-1,0-1.8,0.2-2.4,0.7c-0.6,0.4-0.9,1-0.9,1.8c0,0.6,0.1,1,0.3,1.4
			s0.6,0.7,1.1,1c0.5,0.3,1.3,0.6,2.3,1c1.7,0.6,2.9,1.3,3.6,2C109.1,36.3,109.5,37.2,109.5,38.3z"/>
		<path class="st4" d="M126.1,42.7l-5.6-14.6h-0.1c0.1,1.2,0.2,2.5,0.2,4.1v10.4h-1.8V26.3h2.9l5.2,13.5h0.1l5.2-13.5h2.9v16.4h-1.9
			V32.1c0-1.2,0.1-2.5,0.2-4h-0.1l-5.6,14.5H126.1z"/>
		<path class="st4" d="M146.8,42.7l-0.4-1.8h-0.1c-0.6,0.8-1.2,1.3-1.8,1.6c-0.6,0.3-1.4,0.4-2.3,0.4c-1.2,0-2.2-0.3-2.9-0.9
			s-1-1.5-1-2.7c0-2.5,2-3.8,6-3.9l2.1-0.1v-0.8c0-1-0.2-1.7-0.6-2.1c-0.4-0.5-1.1-0.7-2-0.7c-1,0-2.2,0.3-3.5,0.9l-0.6-1.4
			c0.6-0.3,1.3-0.6,2-0.8c0.7-0.2,1.4-0.3,2.2-0.3c1.5,0,2.6,0.3,3.3,1c0.7,0.7,1.1,1.7,1.1,3.1v8.4H146.8z M142.6,41.4
			c1.2,0,2.1-0.3,2.7-1c0.7-0.6,1-1.5,1-2.7v-1.1l-1.9,0.1c-1.5,0.1-2.6,0.3-3.2,0.7c-0.7,0.4-1,1-1,1.9c0,0.7,0.2,1.2,0.6,1.5
			S141.9,41.4,142.6,41.4z"/>
		<path class="st4" d="M157.8,42.9c-0.8,0-1.5-0.1-2.2-0.4c-0.7-0.3-1.2-0.8-1.7-1.4h-0.1c0.1,0.7,0.1,1.4,0.1,2v5.1h-1.9V30.4h1.5
			l0.3,1.7h0.1c0.5-0.7,1-1.2,1.7-1.5c0.6-0.3,1.4-0.4,2.2-0.4c1.6,0,2.9,0.6,3.8,1.7c0.9,1.1,1.3,2.7,1.3,4.7c0,2-0.5,3.6-1.4,4.7
			C160.6,42.4,159.4,42.9,157.8,42.9z M157.5,31.8c-1.3,0-2.2,0.3-2.7,1s-0.8,1.8-0.9,3.3v0.4c0,1.7,0.3,3,0.9,3.7
			c0.6,0.7,1.5,1.1,2.8,1.1c1.1,0,1.9-0.4,2.5-1.3c0.6-0.9,0.9-2,0.9-3.6c0-1.5-0.3-2.7-0.9-3.5C159.5,32.2,158.6,31.8,157.5,31.8z"
			/>
	</g>
</g>
</svg>
