<?xml version="1.0" encoding="utf-8"?>
<!-- Generator: Adobe Illustrator 23.1.0, SVG Export Plug-In . SVG Version: 6.00 Build 0)  -->
<svg version="1.1" id="Layer_1" xmlns="http://www.w3.org/2000/svg" xmlns:xlink="http://www.w3.org/1999/xlink" x="0px" y="0px"
	 viewBox="0 0 150 146" style="enable-background:new 0 0 150 146;" xml:space="preserve">
<style type="text/css">
	.st0{fill:#2EB51F;}
</style>
<path class="st0" d="M141.1,14.7c-0.6,2.8-1.8,5.7-3.4,8.2c-22.9,35.7-45.8,71.4-68.8,107.1c-6,9.3-16.5,10-23.8,1.5
	C34.6,119.1,24,106.7,13.4,94.3c-3.6-4.2-5.6-8.9-3.9-14.4c3.1-10.3,15.8-13.3,23.3-5.2c6.9,7.5,13.4,15.4,20.1,23.1
	c0.8,0.9,1.6,1.8,2.9,3.2c5.8-7,11.3-13.6,16.8-20.2c18.4-22.2,36.8-44.5,55.3-66.7c1.7-2,3.9-3.9,6.3-5c1.5-0.7,4.3-0.6,5.4,0.3
	C140.8,10.4,141.5,13,141.1,14.7z"/>
</svg>
