<?xml version="1.0" encoding="iso-8859-1"?>
<!-- Generator: Adobe Illustrator 19.0.0, SVG Export Plug-In . SVG Version: 6.00 Build 0)  -->
<svg version="1.1" id="Capa_1" xmlns="http://www.w3.org/2000/svg" xmlns:xlink="http://www.w3.org/1999/xlink" x="0px" y="0px"
	 viewBox="0 0 512 512" style="enable-background:new 0 0 512 512;" xml:space="preserve">
<g>
	<g>
		<path d="M511.705,85.464c-1.522-14.832-8.723-28.183-20.274-37.595c-11.558-9.417-26.092-13.763-40.911-12.238
			c-30.591,3.147-52.921,30.621-49.779,61.242c1.113,10.841,5.271,20.883,11.932,29.183l-52.459,72.98
			c-7.863-2.895-16.34-3.99-24.916-3.108c-13.791,1.419-25.892,7.793-34.749,17.159l-69.583-36.825
			c1.228-5.628,1.612-11.536,0.992-17.571c-1.522-14.832-8.722-28.183-20.273-37.595c-11.558-9.416-26.084-13.76-40.911-12.238
			c-30.591,3.148-52.922,30.621-49.78,61.242c1.032,10.05,4.678,19.415,10.51,27.341l-54.341,69.303
			c-8.463-3.529-17.718-4.918-27.088-3.955c-30.591,3.147-52.922,30.62-49.78,61.242c1.522,14.832,8.723,28.183,20.274,37.595
			c10.043,8.183,22.328,12.537,35.104,12.537c1.926,0,3.865-0.099,5.808-0.299c12.033-1.238,22.777-6.251,31.206-13.727
			l67.944,44.055c-2.199,7.016-3.048,14.577-2.251,22.343c1.522,14.832,8.723,28.183,20.274,37.595
			c10.043,8.183,22.329,12.537,35.104,12.537c1.927,0,3.865-0.099,5.808-0.299c30.591-3.147,52.921-30.621,49.779-61.242
			c-1.522-14.832-8.722-28.183-20.273-37.595c-11.558-9.416-26.083-13.762-40.911-12.238c-12.033,1.238-22.777,6.251-31.206,13.728
			l-67.944-44.055c2.199-7.016,3.047-14.577,2.25-22.343c-1.032-10.05-4.677-19.416-10.51-27.341l54.341-69.303
			c6.707,2.797,13.911,4.254,21.28,4.254c1.927,0,3.865-0.099,5.808-0.299c13.791-1.419,25.892-7.792,34.748-17.159l69.583,36.825
			c-1.228,5.628-1.612,11.536-0.993,17.571c1.522,14.832,8.723,28.183,20.274,37.595c10.043,8.183,22.328,12.536,35.103,12.536
			c1.927,0,3.866-0.099,5.809-0.299c30.591-3.147,52.922-30.62,49.78-61.242c-1.113-10.841-5.271-20.884-11.933-29.183
			l52.457-72.976c6.082,2.239,12.531,3.404,19.112,3.404c1.926,0,3.864-0.099,5.807-0.299
			C492.515,143.558,514.846,116.085,511.705,85.464z M58.41,344.02c-6.85,0.701-13.554-1.303-18.892-5.652
			c-5.345-4.354-8.676-10.534-9.38-17.4c-1.454-14.17,8.866-26.882,23.007-28.336c0.896-0.092,1.79-0.138,2.68-0.138
			c5.897,0,11.572,2.011,16.211,5.791c5.345,4.353,8.676,10.533,9.38,17.399C82.87,329.854,72.55,342.566,58.41,344.02z
			 M211.229,395.135c0.896-0.092,1.79-0.138,2.68-0.138c5.897,0,11.572,2.011,16.211,5.791c5.345,4.354,8.676,10.534,9.38,17.4
			c1.454,14.17-8.866,26.882-23.006,28.337c-6.847,0.702-13.554-1.304-18.892-5.653c-5.345-4.354-8.676-10.534-9.38-17.4
			C186.768,409.302,197.09,396.59,211.229,395.135z M179.108,190.09c-6.847,0.703-13.555-1.304-18.892-5.653
			c-5.345-4.354-8.676-10.534-9.38-17.4c-1.454-14.17,8.867-26.882,23.007-28.337c0.896-0.092,1.79-0.138,2.68-0.138
			c5.897,0,11.572,2.011,16.211,5.791c5.345,4.354,8.676,10.534,9.38,17.4C203.568,175.923,193.248,188.635,179.108,190.09z
			 M343.632,277.159c-6.849,0.702-13.554-1.304-18.892-5.652c-5.345-4.354-8.676-10.534-9.38-17.4
			c-1.454-14.17,8.866-26.882,23.007-28.337c0.896-0.092,1.791-0.138,2.68-0.138c5.898,0,11.573,2.011,16.212,5.791
			c5.344,4.354,8.675,10.533,9.38,17.4C368.093,262.993,357.773,275.705,343.632,277.159z M458.855,116.863
			c-6.841,0.702-13.553-1.303-18.891-5.653c-5.345-4.354-8.676-10.534-9.38-17.4c-1.454-14.17,8.866-26.882,23.006-28.337
			c0.896-0.092,1.791-0.138,2.68-0.138c5.898,0,11.573,2.011,16.212,5.791c5.345,4.354,8.676,10.534,9.38,17.4
			C483.316,102.696,472.995,115.408,458.855,116.863z"/>
	</g>
</g>
<g>
</g>
<g>
</g>
<g>
</g>
<g>
</g>
<g>
</g>
<g>
</g>
<g>
</g>
<g>
</g>
<g>
</g>
<g>
</g>
<g>
</g>
<g>
</g>
<g>
</g>
<g>
</g>
<g>
</g>
</svg>
