<?xml version="1.0" encoding="utf-8"?>
<!-- Generator: Adobe Illustrator 22.1.0, SVG Export Plug-In . SVG Version: 6.00 Build 0)  -->
<svg version="1.1" id="Capa_1" xmlns="http://www.w3.org/2000/svg" xmlns:xlink="http://www.w3.org/1999/xlink" x="0px" y="0px"
	 viewBox="0 0 512 512" style="enable-background:new 0 0 512 512;" xml:space="preserve">
<style type="text/css">
	.st0{fill:#5B3636;}
</style>
<g>
	<g>
		<path class="st0" d="M511.7,85.5c-1.5-14.8-8.7-28.2-20.3-37.6c-11.6-9.4-26.1-13.8-40.9-12.2c-30.6,3.1-52.9,30.6-49.8,61.2
			c1.1,10.8,5.3,20.9,11.9,29.2l-52.5,73c-7.9-2.9-16.3-4-24.9-3.1c-13.8,1.4-25.9,7.8-34.7,17.2L231,176.3c1.2-5.6,1.6-11.5,1-17.6
			c-1.5-14.8-8.7-28.2-20.3-37.6c-11.6-9.4-26.1-13.8-40.9-12.2c-30.6,3.1-52.9,30.6-49.8,61.2c1,10.1,4.7,19.4,10.5,27.3
			l-54.3,69.3c-8.5-3.5-17.7-4.9-27.1-4C19.5,265.9-2.8,293.4,0.3,324c1.5,14.8,8.7,28.2,20.3,37.6c10,8.2,22.3,12.5,35.1,12.5
			c1.9,0,3.9-0.1,5.8-0.3c12-1.2,22.8-6.3,31.2-13.7l67.9,44.1c-2.2,7-3,14.6-2.3,22.3c1.5,14.8,8.7,28.2,20.3,37.6
			c10,8.2,22.3,12.5,35.1,12.5c1.9,0,3.9-0.1,5.8-0.3c30.6-3.1,52.9-30.6,49.8-61.2c-1.5-14.8-8.7-28.2-20.3-37.6
			c-11.6-9.4-26.1-13.8-40.9-12.2c-12,1.2-22.8,6.3-31.2,13.7L109,335c2.2-7,3-14.6,2.3-22.3c-1-10-4.7-19.4-10.5-27.3l54.3-69.3
			c6.7,2.8,13.9,4.3,21.3,4.3c1.9,0,3.9-0.1,5.8-0.3c13.8-1.4,25.9-7.8,34.7-17.2l69.6,36.8c-1.2,5.6-1.6,11.5-1,17.6
			c1.5,14.8,8.7,28.2,20.3,37.6c10,8.2,22.3,12.5,35.1,12.5c1.9,0,3.9-0.1,5.8-0.3c30.6-3.1,52.9-30.6,49.8-61.2
			c-1.1-10.8-5.3-20.9-11.9-29.2l52.5-73c6.1,2.2,12.5,3.4,19.1,3.4c1.9,0,3.9-0.1,5.8-0.3C492.5,143.6,514.8,116.1,511.7,85.5z
			 M58.4,344c-6.8,0.7-13.6-1.3-18.9-5.7c-5.3-4.4-8.7-10.5-9.4-17.4c-1.5-14.2,8.9-26.9,23-28.3c0.9-0.1,1.8-0.1,2.7-0.1
			c5.9,0,11.6,2,16.2,5.8c5.3,4.4,8.7,10.5,9.4,17.4C82.9,329.9,72.6,342.6,58.4,344z M211.2,395.1c0.9-0.1,1.8-0.1,2.7-0.1
			c5.9,0,11.6,2,16.2,5.8c5.3,4.4,8.7,10.5,9.4,17.4c1.5,14.2-8.9,26.9-23,28.3c-6.8,0.7-13.6-1.3-18.9-5.7
			c-5.3-4.4-8.7-10.5-9.4-17.4C186.8,409.3,197.1,396.6,211.2,395.1z M179.1,190.1c-6.8,0.7-13.6-1.3-18.9-5.7
			c-5.3-4.4-8.7-10.5-9.4-17.4c-1.5-14.2,8.9-26.9,23-28.3c0.9-0.1,1.8-0.1,2.7-0.1c5.9,0,11.6,2,16.2,5.8
			c5.3,4.4,8.7,10.5,9.4,17.4C203.6,175.9,193.2,188.6,179.1,190.1z M343.6,277.2c-6.8,0.7-13.6-1.3-18.9-5.7
			c-5.3-4.4-8.7-10.5-9.4-17.4c-1.5-14.2,8.9-26.9,23-28.3c0.9-0.1,1.8-0.1,2.7-0.1c5.9,0,11.6,2,16.2,5.8
			c5.3,4.4,8.7,10.5,9.4,17.4C368.1,263,357.8,275.7,343.6,277.2z M458.9,116.9c-6.8,0.7-13.6-1.3-18.9-5.7
			c-5.3-4.4-8.7-10.5-9.4-17.4c-1.5-14.2,8.9-26.9,23-28.3c0.9-0.1,1.8-0.1,2.7-0.1c5.9,0,11.6,2,16.2,5.8
			c5.3,4.4,8.7,10.5,9.4,17.4C483.3,102.7,473,115.4,458.9,116.9z"/>
	</g>
</g>
</svg>
