<?xml version="1.0" encoding="utf-8"?>
<!-- Generator: Adobe Illustrator 19.0.0, SVG Export Plug-In . SVG Version: 6.00 Build 0)  -->
<svg version="1.1" id="Layer_1" xmlns="http://www.w3.org/2000/svg" xmlns:xlink="http://www.w3.org/1999/xlink" x="0px" y="0px"
	 viewBox="0 0 48 48" style="enable-background:new 0 0 48 48;" xml:space="preserve">
<style type="text/css">
	.st0{fill:#4CAF50;}
</style>
<g id="Guides__x26__Buffer">
</g>
<g id="Layer_1_1_">
	<path id="XMLID_31_" class="st0" d="M40.7,40.4h-6c-0.4,0-0.6-0.3-0.6-0.6v-2.3c0-0.4,0.3-0.6,0.6-0.6H36c0.7,0,1.3-0.6,1.3-1.3
		v-0.2c0-0.7-0.6-1.3-1.3-1.3h-5.8c-0.7,0-1.3,0.6-1.3,1.3v0.2c0,0.7,0.6,1.3,1.3,1.3h1.3c0.4,0,0.6,0.3,0.6,0.6v2.3
		c0,0.4-0.3,0.6-0.6,0.6H16.6c-0.4,0-0.6-0.3-0.6-0.6v-2.3c0-0.4,0.3-0.6,0.6-0.6h1.3c0.7,0,1.3-0.6,1.3-1.3v-0.2
		c0-0.7-0.6-1.3-1.3-1.3h-5.8c-0.7,0-1.3,0.6-1.3,1.3v0.2c0,0.7,0.6,1.3,1.3,1.3h1.3c0.4,0,0.6,0.3,0.6,0.6v2.3
		c0,0.4-0.3,0.6-0.6,0.6h-6c-1.3,0-2.3-1-2.3-2.3V9.9c0-1.3,1-2.3,2.3-2.3h33.3c1.3,0,2.3,1,2.3,2.3v28.2C43,39.4,42,40.4,40.7,40.4
		z M35.3,39.1h5.4c0.6,0,1.1-0.5,1.1-1V9.9c0-0.6-0.5-1-1.1-1H7.4c-0.6,0-1.1,0.5-1.1,1v28.2c0,0.6,0.5,1,1.1,1h5.4v-1h-0.7
		c-1.4,0-2.6-1.2-2.6-2.6v-0.2c0-1.4,1.2-2.6,2.6-2.6h5.8c1.4,0,2.6,1.2,2.6,2.6v0.2c0,1.4-1.2,2.6-2.6,2.6h-0.7v1h13.6v-1h-0.7
		c-1.4,0-2.6-1.2-2.6-2.6v-0.2c0-1.4,1.2-2.6,2.6-2.6H36c1.4,0,2.6,1.2,2.6,2.6v0.2c0,1.4-1.2,2.6-2.6,2.6h-0.7V39.1L35.3,39.1z"/>
	<rect id="XMLID_17_" x="28.2" y="24.2" class="st0" width="9.7" height="1.3"/>
	<rect id="XMLID_16_" x="28.2" y="27.2" class="st0" width="5.1" height="1.3"/>
	<rect id="XMLID_15_" x="28.2" y="13.6" class="st0" width="9.7" height="1.3"/>
	<rect id="XMLID_14_" x="28.2" y="16.3" class="st0" width="9.7" height="1.3"/>
	<rect id="XMLID_13_" x="28.2" y="19.3" class="st0" width="9.7" height="1.3"/>
	<path id="XMLID_21_" class="st0" d="M9.5,13.6v14.9h14.4V13.6H9.5z M14.6,20.1c0-1.2,1-2.1,2.1-2.1c1.2,0,2.1,1,2.1,2.1
		s-1,2.1-2.1,2.1C15.5,22.2,14.6,21.3,14.6,20.1z M21.2,27.2h-8.9c0.4-1.5,2.3-2.7,4.5-2.7C18.9,24.5,20.8,25.6,21.2,27.2z
		 M22.6,27.2h-0.1c-0.3-1.9-2.2-3.5-4.5-3.9c1.3-0.5,2.2-1.7,2.2-3.2c0-1.9-1.5-3.4-3.4-3.4s-3.4,1.5-3.4,3.4c0,1.5,0.9,2.7,2.2,3.2
		c-2.4,0.4-4.2,1.9-4.5,3.9H11V14.9h11.8v12.3H22.6z"/>
</g>
</svg>
