<?xml version="1.0" encoding="utf-8"?>
<!-- Generator: Adobe Illustrator 23.1.0, SVG Export Plug-In . SVG Version: 6.00 Build 0)  -->
<svg version="1.1" id="Layer_1" xmlns="http://www.w3.org/2000/svg" xmlns:xlink="http://www.w3.org/1999/xlink" x="0px" y="0px"
	 viewBox="0 0 512 422" style="enable-background:new 0 0 512 422;" xml:space="preserve">
<style type="text/css">
	.st0{fill:#500000;}
</style>
<g>
	<g>
		<path class="st0" d="M507.4,63.6c-2.8-2-6.5-2.5-9.8-1.3l-87,31.6c-10.8,3.9-19.4,11.8-24.2,22.2c-0.9,2-1.5,4-2.1,6
			c-14.9-4.2-42.7-13.1-70.3-27.3c-41.7-21.5-73.5-10.9-100.8,10c-13.8,0.3-32.9,1.9-51.7,3.6c-12,1.1-23.3,2-32.4,2.6
			c-0.2-5.5-1.5-11-3.9-16.1c-4.8-10.4-13.4-18.3-24.2-22.2L14.3,41c-3.3-1.2-6.9-0.7-9.8,1.3C1.7,44.3,0,47.5,0,51v213.3
			c0,5.9,4.8,10.7,10.7,10.7h31.2c13.3,0,25.6-6.3,33.5-16.3c4.2,3.2,9.3,7,14.5,11c12.4,9.4,26.1,19.6,32.1,24.6
			c39.7,33.3,87.5,69.2,97,75.4c8.9,5.8,24.9,12,37.1,12c4.8,0,16.8,0,25.2-7.1c8.7,3.4,18,3.2,26.7-0.6c8.7-3.8,15.7-11,19.8-19.8
			c8.3,1.7,17.9,0.5,26.6-3.9c8.1-4.1,14.1-10.2,17.3-17.4c7.7,0.7,15.9-1.8,23.3-7.4c10.5-8,15.3-19.9,14-31.6l27.1-15
			c7.9,10.7,20.5,17.6,34.2,17.6h31.2c5.9,0,10.7-4.8,10.7-10.7V72.3C512,68.9,510.3,65.6,507.4,63.6z M61.8,239.8
			c-3.1,8.3-11.1,13.8-20,13.8H21.3V66.2L94,92.6c5.4,2,9.7,5.9,12.1,11.1s2.6,11,0.6,16.4L61.8,239.8z M381.9,308.4
			c-3.6,2.8-8.7,4.3-10.9,2.1c-0.1-0.1-0.3-0.1-0.4-0.2c-0.2-0.2-0.3-0.4-0.5-0.6c-7.6-6-41.8-41-62.9-63
			c-4.1-4.3-10.8-4.4-15.1-0.3c-4.3,4.1-4.4,10.8-0.3,15.1c5,5.2,44.7,46.6,60.7,61.1c-1.2,4.7-5.5,7.6-7.7,8.7
			c-6.8,3.4-14,2.9-16.6,0.4c-0.1-0.1-0.2-0.1-0.3-0.1c-0.1-0.1-0.2-0.3-0.3-0.4c-12.8-10.2-44.9-44.3-52.1-52.2
			c-4-4.3-10.7-4.6-15.1-0.6c-4.3,4-4.6,10.7-0.6,15.1c0.4,0.4,31.8,34.3,49.5,50.1c-1.7,5-5.3,9.1-9.8,11.1
			c-3.3,1.5-8.6,2.3-14.6-2.2c-15.3-13-46.1-45.7-52.1-52.2c-4-4.3-10.8-4.5-15.1-0.5s-4.5,10.8-0.5,15.1
			c7.2,7.7,28.4,30.1,44.5,45.3c-1.8,0.2-3.7,0.3-5.5,0.3c-7.1,0-19.2-4.5-25.3-8.5c-7.5-4.9-54.4-40-95-73.9
			c-6.1-5.1-20.1-15.7-32.9-25.3c-6.9-5.2-13.2-9.9-17.9-13.5L125,132.8c10.4-0.5,24.2-1.6,38.8-2.9c8.3-0.7,16.6-1.4,24.5-2.1
			c-12.2,12.5-30.2,34.9-27.9,55.8c1.1,9.5,6.3,17.5,15.1,23c17.4,10.9,49.7,1.8,65.2-17.4c10-1.4,16.8-4,24.2-7.7
			c12.5,11.8,29.3,25.6,46.9,40.1c30.6,25.3,65.4,53.9,74.6,69.9C391.3,300.3,384.2,306.7,381.9,308.4z M400.2,274.1
			c-14.2-19-45-44.4-75-69.2c-20-16.5-38.9-32.1-51-44.2c-3.3-3.3-8.4-4.1-12.6-1.9c-10.9,5.8-15.8,8.2-28,9.5
			c-3.3,0.3-6.2,2.1-8,4.9c-8.4,13.3-31.6,19.6-39,15c-4.2-2.6-5-5.3-5.2-7.3c-1-9.1,8.2-24.8,23.4-40
			c37.7-37.7,64.7-45.1,99.6-27.1c33.2,17.1,65.9,26.8,79.6,30.4c0.4,1.6,0.7,3.2,1.3,4.8l41.4,110.5L400.2,274.1z M490.7,275h-20.5
			c-8.8,0-16.9-5.6-20-13.8l-44.9-119.6c-2-5.4-1.8-11.2,0.6-16.4s6.7-9.2,12.1-11.1l72.6-26.4L490.7,275L490.7,275z"/>
	</g>
</g>
</svg>
