<?xml version="1.0" encoding="iso-8859-1"?>
<!-- Generator: Adobe Illustrator 19.0.0, SVG Export Plug-In . SVG Version: 6.00 Build 0)  -->
<svg version="1.1" id="Layer_1" xmlns="http://www.w3.org/2000/svg" xmlns:xlink="http://www.w3.org/1999/xlink" x="0px" y="0px"
	 viewBox="0 0 295.238 295.238" style="enable-background:new 0 0 295.238 295.238;" xml:space="preserve">
<g>
	<g>
		<path d="M295.238,28.571V0.001h-28.571v9.524H28.571V0.001H0v28.571h9.524v238.095H0v28.571h28.571v-9.524h238.095v9.524h28.571
			v-28.571h-9.524V28.571H295.238z M9.524,9.524h9.524v9.524H9.524V9.524z M19.048,285.714H9.524v-9.524h9.524V285.714z
			 M19.047,266.667V28.571h9.524v-9.524h238.095v9.524H28.571v4.762v4.762v19.048v9.524v19.048v9.524v19.048v9.524v19.048v9.524
			v19.048v9.524v19.045v9.524v19.048v9.524v19.048v4.762v4.761H19.047z M238.095,228.571v-19.048h19.048v19.048H238.095z
			 M257.143,238.095v19.048h-19.048v-19.048H257.143z M238.095,200.001v-19.048h19.048v19.048H238.095z M238.095,171.43v-19.048
			h19.048v19.048H238.095z M238.095,142.857v-19.047h19.048v19.047H238.095z M238.095,114.287V95.238h19.048v19.048H238.095z
			 M238.095,85.714V66.667h19.048v19.047H238.095z M238.095,57.144V38.095h19.048v19.048H238.095z M209.524,228.573v-19.048h19.048
			v19.048H209.524z M228.572,238.095v19.048h-19.048v-19.048H228.572z M209.524,200.001v-19.048h19.048v19.048H209.524z
			 M209.524,171.43v-19.048h19.048v19.048H209.524z M209.524,142.858L209.524,142.858v-19.048h19.048v19.048H209.524z
			 M209.524,114.287V95.238h19.048v19.048H209.524z M209.524,85.715L209.524,85.715V66.667h19.048v19.048H209.524z M209.524,57.144
			V38.095h19.048v19.048H209.524z M180.952,228.573v-19.048H200v19.048H180.952z M200,238.095v19.048h-19.048v-19.048H200z
			 M180.952,200.001v-19.048H200v19.048H180.952z M180.952,171.43v-19.048H200v19.048H180.952z M180.952,142.858L180.952,142.858
			v-19.048H200v19.048H180.952z M180.952,114.287V95.238H200v19.048H180.952z M180.952,85.715L180.952,85.715V66.667H200v19.048
			H180.952z M180.952,57.144V38.095H200v19.048H180.952z M152.381,228.573v-19.048h19.048v19.048H152.381z M171.429,238.095v19.048
			h-19.048v-19.048H171.429z M152.381,200.001v-19.048h19.048v19.048H152.381z M152.381,171.43v-19.048h19.048v19.048H152.381z
			 M152.381,142.858L152.381,142.858v-19.048h19.048v19.048H152.381z M152.381,114.287V95.238h19.048v19.048H152.381z
			 M152.381,85.714V66.667h19.048v19.047H152.381z M152.381,57.144V38.095h19.048v19.048H152.381z M123.81,228.573v-19.048h19.048
			v19.048H123.81z M142.858,238.095v19.048H123.81v-19.048H142.858z M142.857,152.381v19.048H123.81v-19.048H142.857z
			 M123.81,142.858v-19.048h19.047v19.048H123.81z M142.857,180.952v19.048H123.81v-19.048H142.857z M142.857,114.287H123.81V95.238
			h19.048v19.048H142.857z M142.857,85.714H123.81V66.667h19.048v19.047H142.857z M142.857,57.144H123.81V38.095h19.048v19.048
			H142.857z M95.238,228.573v-19.048h19.048v19.048H95.238z M114.286,238.095v19.048H95.238v-19.048H114.286z M95.238,200.001
			v-19.048h19.048v19.048H95.238z M95.238,171.43v-19.048h19.048v19.048H95.238z M95.238,142.858v-19.048h19.048v19.048H95.238z
			 M95.238,114.287V95.238h19.048v19.048H95.238z M95.238,85.714V66.667h19.048v19.047H95.238z M95.238,57.144V38.095h19.048v19.048
			H95.238z M66.667,228.573v-19.048h19.047v19.048H66.667z M85.714,238.095v19.048H66.667v-19.048H85.714z M66.667,200.001v-19.048
			h19.047v19.048H66.667z M66.667,171.43v-19.048h19.047v19.048H66.667z M66.667,142.858v-19.048h19.047v19.048H66.667z
			 M66.667,114.287V95.238h19.047v19.048H66.667z M66.667,85.715V66.667h19.047v19.048H66.667z M66.667,57.144V38.095h19.048v19.048
			h-0.001H66.667z M38.095,228.573v-19.048h19.048v19.048H38.095z M57.143,238.095v19.048H38.095v-19.048H57.143z M38.095,200.001
			v-19.048h19.048v19.048H38.095z M38.095,171.43v-19.048h19.048v19.048H38.095z M38.095,142.858v-19.048h19.048v19.048H38.095z
			 M38.095,114.287V95.238h19.048v19.048H38.095z M38.095,85.715V66.667h19.048v19.048H38.095z M38.095,57.144V38.095h19.048v19.048
			H38.095z M266.666,276.191H28.571v-9.523h238.095V276.191z M266.666,261.906v-4.763h0.001v-19.048v-9.524v-19.048v-9.523v-19.048
			v-9.524v-19.048v-9.524v-19.046v-9.524V95.238v-9.524V66.667v-9.524V38.095v-4.762v-4.762h9.523v238.096h-9.524V261.906z
			 M285.714,276.19v9.524h-9.524v-9.524H285.714z M276.19,19.048V9.524h9.524v9.524H276.19z"/>
	</g>
</g>
<g>
</g>
<g>
</g>
<g>
</g>
<g>
</g>
<g>
</g>
<g>
</g>
<g>
</g>
<g>
</g>
<g>
</g>
<g>
</g>
<g>
</g>
<g>
</g>
<g>
</g>
<g>
</g>
<g>
</g>
</svg>
