<?xml version="1.0" encoding="utf-8"?>
<!-- Generator: Adobe Illustrator 22.1.0, SVG Export Plug-In . SVG Version: 6.00 Build 0)  -->
<svg version="1.1" id="Layer_1" xmlns="http://www.w3.org/2000/svg" xmlns:xlink="http://www.w3.org/1999/xlink" x="0px" y="0px"
	 viewBox="0 0 295.2 295.2" style="enable-background:new 0 0 295.2 295.2;" xml:space="preserve">
<style type="text/css">
	.st0{fill:#5B3636;}
</style>
<g>
	<g>
		<path class="st0" d="M295.2,28.6V0h-28.6v9.5H28.6V0H0v28.6h9.5v238.1H0v28.6h28.6v-9.5h238.1v9.5h28.6v-28.6h-9.5V28.6H295.2z
			 M9.5,9.5H19V19H9.5V9.5z M19,285.7H9.5v-9.5H19V285.7z M19,266.7V28.6h9.5V19h238.1v9.5H28.6v4.8v4.8v19v9.5v19v9.5v19v9.5v19
			v9.5v19v9.5v19v9.5v19v9.5v19v4.8v4.8H19z M238.1,228.6v-19h19v19H238.1z M257.1,238.1v19h-19v-19H257.1z M238.1,200v-19h19v19
			H238.1z M238.1,171.4v-19h19v19H238.1z M238.1,142.9v-19h19v19H238.1z M238.1,114.3v-19h19v19L238.1,114.3L238.1,114.3z
			 M238.1,85.7v-19h19v19C257.1,85.7,238.1,85.7,238.1,85.7z M238.1,57.1v-19h19v19L238.1,57.1L238.1,57.1z M209.5,228.6v-19h19v19
			H209.5z M228.6,238.1v19h-19v-19H228.6z M209.5,200v-19h19v19H209.5z M209.5,171.4v-19h19v19H209.5z M209.5,142.9L209.5,142.9v-19
			h19v19H209.5z M209.5,114.3v-19h19v19L209.5,114.3L209.5,114.3z M209.5,85.7L209.5,85.7v-19h19v19H209.5z M209.5,57.1v-19h19v19
			L209.5,57.1L209.5,57.1z M181,228.6v-19h19v19H181z M200,238.1v19h-19v-19H200z M181,200v-19h19v19H181z M181,171.4v-19h19v19H181
			z M181,142.9L181,142.9v-19h19v19H181z M181,114.3v-19h19v19L181,114.3L181,114.3z M181,85.7L181,85.7v-19h19v19H181z M181,57.1
			v-19h19v19L181,57.1L181,57.1z M152.4,228.6v-19h19v19H152.4z M171.4,238.1v19h-19v-19H171.4z M152.4,200v-19h19v19H152.4z
			 M152.4,171.4v-19h19v19H152.4z M152.4,142.9L152.4,142.9v-19h19v19H152.4z M152.4,114.3v-19h19v19L152.4,114.3L152.4,114.3z
			 M152.4,85.7v-19h19v19C171.4,85.7,152.4,85.7,152.4,85.7z M152.4,57.1v-19h19v19L152.4,57.1L152.4,57.1z M123.8,228.6v-19h19v19
			H123.8z M142.9,238.1v19h-19v-19H142.9z M142.9,152.4v19h-19v-19H142.9z M123.8,142.9v-19h19v19H123.8z M142.9,181v19h-19v-19
			H142.9z M142.9,114.3h-19v-19h19L142.9,114.3L142.9,114.3L142.9,114.3z M142.9,85.7h-19v-19h19L142.9,85.7
			C142.9,85.7,142.9,85.7,142.9,85.7z M142.9,57.1h-19v-19h19L142.9,57.1L142.9,57.1L142.9,57.1z M95.2,228.6v-19h19v19H95.2z
			 M114.3,238.1v19h-19v-19H114.3z M95.2,200v-19h19v19H95.2z M95.2,171.4v-19h19v19H95.2z M95.2,142.9v-19h19v19H95.2z M95.2,114.3
			v-19h19v19L95.2,114.3L95.2,114.3z M95.2,85.7v-19h19v19C114.3,85.7,95.2,85.7,95.2,85.7z M95.2,57.1v-19h19v19L95.2,57.1
			L95.2,57.1z M66.7,228.6v-19h19v19H66.7z M85.7,238.1v19h-19v-19H85.7z M66.7,200v-19h19v19H66.7z M66.7,171.4v-19h19v19H66.7z
			 M66.7,142.9v-19h19v19H66.7z M66.7,114.3v-19h19v19L66.7,114.3L66.7,114.3z M66.7,85.7v-19h19v19H66.7z M66.7,57.1v-19h19v19h0
			L66.7,57.1L66.7,57.1z M38.1,228.6v-19h19v19H38.1z M57.1,238.1v19h-19v-19H57.1z M38.1,200v-19h19v19H38.1z M38.1,171.4v-19h19
			v19H38.1z M38.1,142.9v-19h19v19H38.1z M38.1,114.3v-19h19v19L38.1,114.3L38.1,114.3z M38.1,85.7v-19h19v19H38.1z M38.1,57.1v-19
			h19v19L38.1,57.1L38.1,57.1z M266.7,276.2H28.6v-9.5h238.1L266.7,276.2L266.7,276.2z M266.7,261.9v-4.8h0v-19v-9.5v-19V200v-19
			v-9.5v-19v-9.5v-19v-9.5v-19v-9.5v-19v-9.5v-19v-4.8v-4.8h9.5v238.1h-9.5L266.7,261.9L266.7,261.9z M285.7,276.2v9.5h-9.5v-9.5
			H285.7z M276.2,19V9.5h9.5V19H276.2z"/>
	</g>
</g>
</svg>
