<?xml version="1.0" encoding="utf-8"?>
<!-- Generator: Adobe Illustrator 19.1.0, SVG Export Plug-In . SVG Version: 6.00 Build 0)  -->
<svg version="1.1" id="Layer_1" xmlns="http://www.w3.org/2000/svg" xmlns:xlink="http://www.w3.org/1999/xlink" x="0px" y="0px"
	 viewBox="-935 377 48 48" style="enable-background:new -935 377 48 48;" xml:space="preserve">
<style type="text/css">
	.st0{fill:#FFFFFF;}
</style>
<path class="st0" d="M-898.3,386.5h-1.8v-3.6h-3.6v3.6h-14.5v-3.6h-3.6v3.6h-1.8c-2,0-3.6,1.6-3.6,3.6l0,25.4c0,2,1.6,3.6,3.6,3.6
	h25.4c2,0,3.6-1.6,3.6-3.6v-25.4C-894.7,388.1-896.3,386.5-898.3,386.5z M-898.3,415.5h-25.4v-20h25.4V415.5z"/>
<path class="st0" d="M-904.5,406.5h-5.6v5.6h-1.9v-5.6h-5.6v-1.9h5.6V399h1.9v5.6h5.6V406.5z"/>
</svg>
