<?xml version="1.0" encoding="utf-8"?>
<!-- Generator: Adobe Illustrator 19.0.0, SVG Export Plug-In . SVG Version: 6.00 Build 0)  -->
<svg version="1.1" id="Layer_1" xmlns="http://www.w3.org/2000/svg" xmlns:xlink="http://www.w3.org/1999/xlink" x="0px" y="0px"
	 viewBox="-935 327 48 48" style="enable-background:new -935 327 48 48;" xml:space="preserve">
<style type="text/css">
	.st0{fill:#FFFFFF;}
</style>
<path class="st0" d="M-911,343c2.2,0,4-1.8,4-4s-1.8-4-4-4s-4,1.8-4,4S-913.2,343-911,343z M-911,347c-2.2,0-4,1.8-4,4s1.8,4,4,4
	s4-1.8,4-4S-908.8,347-911,347z M-911,359c-2.2,0-4,1.8-4,4s1.8,4,4,4s4-1.8,4-4S-908.8,359-911,359z"/>
</svg>
