<?xml version="1.0" encoding="utf-8"?>
<!-- Generator: Adobe Illustrator 22.1.0, SVG Export Plug-In . SVG Version: 6.00 Build 0)  -->
<svg version="1.1" id="Capa_1" xmlns="http://www.w3.org/2000/svg" xmlns:xlink="http://www.w3.org/1999/xlink" x="0px" y="0px"
	 viewBox="0 0 512 512" style="enable-background:new 0 0 512 512;" xml:space="preserve">
<style type="text/css">
	.st0{fill:#5B3636;}
</style>
<g transform="translate(0 -1)">
	<g>
		<g>
			<path class="st0" d="M168,351.5c21.1,29.7,42.1,56.3,56.1,73.4c2,2.5,3.9,4.8,5.8,7h-42.1c-4.7,0-8.5,3.8-8.5,8.5
				s3.8,8.5,8.5,8.5h136.5c4.7,0,8.5-3.8,8.5-8.5s-3.8-8.5-8.5-8.5h-42.1c1.8-2.2,3.7-4.5,5.8-7c13.9-17.1,35-43.7,56.1-73.4
				c20.9-28.9,39.8-59.3,56.4-90.9c17.4-34.2,26.3-62.6,26.3-84.4c0.1-45.3-17.9-88.8-50-120.8c-2.1-2.2-5.3-3.1-8.3-2.3
				s-5.3,3.1-6.1,6.1s0.1,6.2,2.3,8.3c28.9,28.8,45,68,45,108.8c0,19.1-8.2,44.9-24.4,76.7c-16.2,30.9-34.6,60.5-55.1,88.7
				c-20.8,29.3-41.6,55.6-55.4,72.5c-4.6,5.6-8.7,10.6-12.2,14.8c-1.6,1.9-4,2.9-6.5,2.9c-2.5,0-4.9-1.1-6.5-2.9
				c-3.5-4.2-7.6-9.2-12.2-14.8c-13.8-16.9-34.6-43.2-55.4-72.5c-20.5-28.2-38.9-57.9-55.1-88.7c-16.2-31.8-24.4-57.6-24.4-76.7
				c0-61.8,37-117.6,93.9-141.7c38.2-16,81.3-16,119.6,0c2.8,1.2,6,0.8,8.5-1c2.4-1.8,3.7-4.8,3.3-7.9s-2.3-5.6-5.1-6.8
				c-86.9-36.7-187.1,4.1-223.7,90.9c-8.9,21-13.5,43.7-13.4,66.5c0,21.8,8.8,50.2,26.3,84.5C128.2,292.2,147,322.6,168,351.5z"/>
			<path class="st0" d="M256,99.2c4.7,0,8.5-3.8,8.5-8.5s-3.8-8.5-8.5-8.5c-40.7,0-75.8,28.8-83.7,68.7c-7.9,39.9,13.4,79.9,51,95.5
				c37.6,15.6,81,2.4,103.6-31.4s18.2-79-10.6-107.7c-2.1-2.2-5.3-3.1-8.3-2.3c-3,0.8-5.3,3.1-6.1,6.1c-0.8,3,0.1,6.2,2.3,8.3
				c23,23,26.6,59.1,8.5,86.2S260,243,229.9,230.5S182.7,186,189,154.1S223.4,99.2,256,99.2z"/>
			<path class="st0" d="M508.8,471l-52.5-93.9c-4.7-8.3-13.6-13.5-23.2-13.4h-60.8c-4.7,0-8.5,3.8-8.5,8.5s3.8,8.5,8.5,8.5h60.8
				c3.4-0.1,6.6,1.7,8.3,4.7l52.5,93.9c1.4,2.4,1.4,5.5-0.1,7.9c-1.7,2.9-4.9,4.6-8.3,4.5H26.5c-3.4,0.1-6.5-1.6-8.3-4.5
				c-1.5-2.4-1.5-5.4-0.1-7.9l52.5-93.9c1.7-2.9,4.9-4.7,8.3-4.7h60.8c4.7,0,8.5-3.8,8.5-8.5s-3.8-8.5-8.5-8.5H78.9
				c-9.6-0.1-18.5,5.1-23.2,13.4L3.2,471c-4.4,7.7-4.3,17.2,0.3,24.8c4.8,8.1,13.6,13.1,23,13h459.1c9.4,0.1,18.2-4.8,23-13
				C513.1,488.2,513.2,478.7,508.8,471z"/>
			<path class="st0" d="M418.1,406.4H384c-1.7,0-3.3,0.5-4.7,1.4l-25.6,17.1c-3.9,2.6-5,7.9-2.4,11.8c2.6,3.9,7.9,5,11.8,2.4
				l23.4-15.6h31.6c4.7,0,8.5-3.8,8.5-8.5C426.7,410.2,422.9,406.4,418.1,406.4z"/>
			<path class="st0" d="M366.9,466.1c0,4.7,3.8,8.5,8.5,8.5h68.3c4.7,0,8.5-3.8,8.5-8.5s-3.8-8.5-8.5-8.5h-68.3
				C370.8,457.6,366.9,461.4,366.9,466.1z"/>
			<path class="st0" d="M153.6,440.5c3.8,0,7.1-2.5,8.2-6.1c1.1-3.6-0.3-7.5-3.4-9.6l-25.6-17.1c-1.4-0.9-3.1-1.4-4.7-1.4H93.9
				c-4.7,0-8.5,3.8-8.5,8.5c0,4.7,3.8,8.5,8.5,8.5h31.6l23.5,15.6C150.3,440,151.9,440.5,153.6,440.5z"/>
			<path class="st0" d="M68.3,457.6c-4.7,0-8.5,3.8-8.5,8.5s3.8,8.5,8.5,8.5h68.3c4.7,0,8.5-3.8,8.5-8.5s-3.8-8.5-8.5-8.5H68.3z"/>
		</g>
	</g>
</g>
</svg>
