<?xml version="1.0" encoding="utf-8"?>
<!-- Generator: Adobe Illustrator 19.0.0, SVG Export Plug-In . SVG Version: 6.00 Build 0)  -->
<svg version="1.1" xmlns="http://www.w3.org/2000/svg" xmlns:xlink="http://www.w3.org/1999/xlink" x="0px" y="0px"
	 viewBox="0 0 48 48" style="enable-background:new 0 0 48 48;" xml:space="preserve">
<style type="text/css">
	.st0{fill:#4CAF50;}
</style>
<g id="Guides__x26__Buffer">
</g>
<g id="Icon">
	<g id="XMLID_25_">
		<path id="XMLID_13_" class="st0" d="M39.8,28.9H8.2V15.2c0-1.7,1.4-3.2,3.2-3.2h15.1v1.4H11.3c-1,0-1.7,0.8-1.7,1.7v12.3h28.9
			V15.2c0-1-0.8-1.7-1.7-1.7h-3.2V12h3.2c1.7,0,3.2,1.4,3.2,3.2V28.9z"/>
	</g>
	<g id="XMLID_19_">
		<path id="XMLID_20_" class="st0" d="M27.2,43h-6.3V27.5h6.3V43z M22.2,41.6h3.5V28.9h-3.5V41.6z"/>
	</g>
	<g id="XMLID_15_">
		<path id="XMLID_16_" class="st0" d="M30,22.6c-1.2,0-2.1-0.9-2.1-2.1V5h4.2c1.9,0,3.5,1.6,3.5,3.5v2.1h-3.5v9.9
			C32.1,21.6,31.1,22.6,30,22.6z M29.3,6.4v14.1c0,0.4,0.3,0.7,0.7,0.7s0.7-0.3,0.7-0.7V9.2h3.5V8.5c0-1.2-0.9-2.1-2.1-2.1H29.3z"/>
	</g>
</g>
</svg>
