<?xml version="1.0" encoding="utf-8"?>
<!-- Generator: Adobe Illustrator 19.0.0, SVG Export Plug-In . SVG Version: 6.00 Build 0)  -->
<svg version="1.1" id="Layer_1" xmlns="http://www.w3.org/2000/svg" xmlns:xlink="http://www.w3.org/1999/xlink" x="0px" y="0px"
	 viewBox="0 0 48 48" style="enable-background:new 0 0 48 48;" xml:space="preserve">
<style type="text/css">
	.st0{fill:#F44336;}
</style>
<g id="Guides__x26__Buffer">
</g>
<g id="Icon">
	<path id="XMLID_16_" class="st0" d="M41.5,18.9c-0.8-0.8-1.9-1.2-3-1.2s-2.2,0.4-3,1.2c-0.8,0.8-1.2,1.9-1.2,3c0,0.2,0,0.4,0.1,0.6
		L30,23.6c-0.3-1.1-0.8-2.1-1.6-3c-1-1-2.2-1.5-3.5-1.7v-5.3c0.8-0.2,1.5-0.6,2.1-1.1c0.8-0.8,1.2-1.9,1.2-3s-0.4-2.2-1.2-3
		c-0.8-0.8-1.9-1.2-3-1.2s-2.2,0.4-3,1.2s-1.2,1.9-1.2,3s0.4,2.2,1.2,3c0.8,0.8,1.8,1.2,2.9,1.2v5.1c-1.6,0-3.1,0.6-4.3,1.8
		c-0.9,0.9-1.4,1.9-1.7,3l-4.3-1.1c0-0.2,0.1-0.4,0.1-0.6c0-1.1-0.4-2.2-1.2-3s-1.9-1.2-3-1.2s-2.2,0.4-3,1.2
		c-0.8,0.8-1.2,1.9-1.2,3s0.4,2.2,1.2,3s1.9,1.2,3,1.2s2.2-0.4,3-1.2c0.4-0.4,0.7-0.9,0.9-1.4l4.4,1.2c-0.1,1.7,0.5,3.4,1.8,4.7
		c0.3,0.3,0.6,0.6,1,0.8l-3.2,4.4c-0.5-0.2-1.1-0.3-1.7-0.3c-1.1,0-2.2,0.4-3,1.2s-1.2,1.9-1.2,3s0.4,2.2,1.2,3s1.9,1.2,3,1.2
		s2.2-0.4,3-1.2c0.8-0.8,1.2-1.9,1.2-3s-0.4-2.2-1.2-3c-0.1-0.1-0.3-0.3-0.4-0.4l3.3-4.4c1.8,0.8,3.9,0.7,5.6-0.3l3.6,4.9
		c-0.1,0.1-0.2,0.2-0.3,0.3c-0.8,0.8-1.2,1.9-1.2,3s0.4,2.2,1.2,3c0.8,0.8,1.9,1.2,3,1.2c1.1,0,2.2-0.4,3-1.2s1.2-1.9,1.2-3
		s-0.4-2.2-1.2-3s-1.9-1.2-3-1.2c-0.6,0-1.2,0.2-1.8,0.4l-3.6-4.9c0.2-0.1,0.3-0.2,0.5-0.4c1.3-1.3,1.9-3.1,1.8-4.8l4.4-1.2
		c0.2,0.5,0.5,1,0.9,1.4c0.8,0.8,1.9,1.2,3,1.2s2.2-0.4,3-1.2c0.8-0.8,1.2-1.9,1.2-3C42.8,20.8,42.3,19.7,41.5,18.9z M11.6,24.1
		c-1.1,1.1-3.1,1.1-4.3,0c-0.6-0.6-0.9-1.3-0.9-2.1c0-0.8,0.3-1.6,0.9-2.1S8.6,19,9.4,19c0.8,0,1.6,0.3,2.1,0.9
		c0.6,0.6,0.9,1.3,0.9,2.1C12.5,22.7,12.2,23.5,11.6,24.1z M18.7,38.5c0,0.8-0.3,1.6-0.9,2.1c-1.1,1.1-3.1,1.1-4.3,0
		c-0.6-0.6-0.9-1.3-0.9-2.1s0.3-1.6,0.9-2.1c0.6-0.6,1.3-0.9,2.1-0.9s1.6,0.3,2.1,0.9C18.4,36.9,18.7,37.7,18.7,38.5z M21.9,11.6
		C21.3,11,21,10.3,21,9.5s0.3-1.6,0.9-2.1c0.6-0.6,1.3-0.9,2.1-0.9c0.8,0,1.6,0.3,2.1,0.9C26.7,7.9,27,8.7,27,9.5s-0.3,1.6-0.9,2.1
		C25,12.8,23,12.8,21.9,11.6z M33.3,35.5c0.8,0,1.6,0.3,2.1,0.9c0.6,0.6,0.9,1.3,0.9,2.1s-0.3,1.6-0.9,2.1c-1.1,1.1-3.1,1.1-4.3,0
		c-0.6-0.6-0.9-1.3-0.9-2.1s0.3-1.6,0.9-2.1C31.8,35.8,32.5,35.5,33.3,35.5z M40.7,24.1c-1.1,1.1-3.1,1.1-4.3,0
		c-0.6-0.6-0.9-1.3-0.9-2.1c0-0.8,0.3-1.6,0.9-2.1c0.6-0.6,1.3-0.9,2.1-0.9s1.6,0.3,2.1,0.9c0.6,0.6,0.9,1.3,0.9,2.1
		C41.5,22.7,41.2,23.5,40.7,24.1z"/>
</g>
</svg>
