<?xml version="1.0" encoding="utf-8"?>
<!-- Generator: Adobe Illustrator 22.1.0, SVG Export Plug-In . SVG Version: 6.00 Build 0)  -->
<svg version="1.1" id="Layer_1" xmlns="http://www.w3.org/2000/svg" xmlns:xlink="http://www.w3.org/1999/xlink" x="0px" y="0px"
	 viewBox="0 0 511.9 511.9" style="enable-background:new 0 0 511.9 511.9;" xml:space="preserve">
<style type="text/css">
	.st0{fill:#5B3636;}
</style>
<g>
	<g>
		<path class="st0" d="M511.8,244.5c0-0.5-0.2-0.9-0.3-1.3c-0.3-1.7-1-3.2-2.1-4.5c-0.1-0.2-0.1-0.4-0.3-0.6L295.8,3.4
			c-0.7-0.8-1.6-1.3-2.4-1.9c-0.1-0.1-0.2-0.3-0.4-0.3c0,0,0,0-0.1,0c-1.2-0.6-2.4-1-3.7-1.2c-0.6-0.1-1.2,0-1.9,0
			c-0.7,0-1.3,0-1.9,0.2c-0.7,0.2-1.3,0.5-1.9,0.8c-0.4,0.2-0.8,0.2-1.2,0.5L5,172.2c-0.1,0.1-0.2,0.3-0.3,0.4
			c-1.7,1.1-3.1,2.5-4,4.5s-0.9,4-0.5,6c0,0.2-0.1,0.4,0,0.6l64,277.3c0,0.2,0.3,0.3,0.3,0.5c0.5,1.8,1.4,3.5,2.8,4.8
			c0.2,0.1,0.4,0.2,0.6,0.4c0.8,0.7,1.7,1.4,2.8,1.8c0.6,0.2,1.2,0.2,1.7,0.3c0.3,0.1,0.4,0.3,0.7,0.3l288,42.7
			c0.5,0.1,1,0.1,1.6,0.1c1.7,0,3.3-0.5,4.8-1.3c0.3-0.2,0.7-0.3,1-0.6c0.3-0.2,0.6-0.2,0.8-0.4c1.1-0.9,2-2,2.7-3.2
			c0,0,0.1-0.1,0.1-0.1l138.7-256c0.1-0.1,0-0.3,0.1-0.4c0.7-1.5,1.2-3,1.2-4.7C511.9,245,511.8,244.7,511.8,244.5z M290.1,28.8
			l187,205.8H177.9L290.1,28.8z M259.3,40.7L155.2,231.6L33.7,179.5L259.3,40.7z M25.7,199.3l120.4,51.6L77.3,423L25.7,199.3z
			 M89.5,450L163,266.3l174.5,220.5L89.5,450z M360.9,481.9L182,255.9h301.4L360.9,481.9z"/>
	</g>
</g>
</svg>
