<?xml version="1.0" encoding="utf-8"?>
<!-- Generator: Adobe Illustrator 22.1.0, SVG Export Plug-In . SVG Version: 6.00 Build 0)  -->
<svg version="1.1" id="Capa_1" xmlns="http://www.w3.org/2000/svg" xmlns:xlink="http://www.w3.org/1999/xlink" x="0px" y="0px"
	 viewBox="0 0 219.4 219.4" style="enable-background:new 0 0 219.4 219.4;" xml:space="preserve">
<style type="text/css">
	.st0{fill:#4CAF50;}
</style>
<path class="st0" d="M122.6,30.1h-63c-4.8,0-8.7,3.9-8.7,8.7v141.8c0,4.8,3.9,8.7,8.7,8.7h100.2c4.8,0,8.7-3.9,8.7-8.7V73.1
	c0-2.3-0.9-4.5-2.5-6.2l-37.3-34.4C127.1,31,124.9,30.1,122.6,30.1z M157.6,178.4H61.8V41h52.1v29.2c0,6.4,5.2,11.7,11.7,11.7h32.1
	V178.4z M125.5,71c-0.4,0-0.8-0.4-0.8-0.8V47.3L150.1,71L125.5,71L125.5,71z M77.6,101.1c-3.7,0-6.8,3-6.8,6.8c0,3.7,3,6.8,6.8,6.8
	c3.7,0,6.8-3,6.8-6.8S81.4,101.1,77.6,101.1z M90,102.4h57.7v10.9H90C90,113.3,90,102.4,90,102.4z M77.6,122.8c-3.7,0-6.8,3-6.8,6.8
	c0,3.7,3,6.8,6.8,6.8c3.7,0,6.8-3,6.8-6.8S81.4,122.8,77.6,122.8z M90,124.2h57.7V135H90C90,135,90,124.2,90,124.2z M77.6,144.6
	c-3.7,0-6.8,3-6.8,6.8c0,3.7,3,6.8,6.8,6.8c3.7,0,6.8-3,6.8-6.8C84.4,147.6,81.4,144.6,77.6,144.6z M90,145.9h57.7v10.9H90
	C90,156.8,90,145.9,90,145.9z"/>
</svg>
