<?xml version="1.0" encoding="utf-8"?>
<!-- Generator: Adobe Illustrator 23.1.0, SVG Export Plug-In . SVG Version: 6.00 Build 0)  -->
<svg version="1.1" id="Layer_1" xmlns="http://www.w3.org/2000/svg" xmlns:xlink="http://www.w3.org/1999/xlink" x="0px" y="0px"
	 viewBox="0 0 512 512" style="enable-background:new 0 0 512 512;" xml:space="preserve">
<style type="text/css">
	.st0{fill:#500000;}
</style>
<path class="st0" d="M485,73.9c0-17.3-14.1-31.4-31.4-31.4c-4.3,0-8.3,0.9-12,2.4C438.6,30.8,426,20.2,411,20.2
	c-4.4,0-8.7,0.9-12.5,2.6C394.8,9.6,382.7,0,368.4,0c-14.3,0-26.4,9.6-30.2,22.8c-3.8-1.7-8.1-2.6-12.5-2.6
	c-17.3,0-31.4,14.1-31.4,31.4v78.6c-7.1-7.6-17.8-11.5-28.7-9.6c-8.5,1.5-15.9,6.2-20.7,13.4c-0.5,0.8-1,1.5-1.5,2.3
	c-4.2-2.3-9.1-3.6-14.2-3.6c-3.8,0-7.5,0.7-10.9,2c-3.2-13.2-15.1-23-29.3-23c-4,0-7.9,0.8-11.4,2.2c-3.8-12.3-15.3-21.2-28.8-21.2
	s-25,8.9-28.8,21.2c-3.5-1.4-7.3-2.2-11.4-2.2c-16.6,0-30.1,13.5-30.1,30.1v72.5c-6.8-6.6-16.6-9.9-26.5-8.1
	c-8.1,1.4-15.2,6-19.9,12.8S26,234,27.6,242.1l10.5,53.4c4.2,21.2,14.5,40.5,29.8,55.8L86.7,370v32H76.1c-5.5,0-10,4.5-10,10v90
	c0,5.5,4.5,10,10,10c5.5,0,10-4.5,10-10v-80h130.5v80c0,5.5,4.5,10,10,10s10-4.5,10-10v-90c0-5.5-4.5-10-10-10h-10.3v-32l11.1-11.1
	c20.6-20.5,31.9-47.8,31.9-76.8v-41.9c5.7,12.4,13.5,23.8,23.3,33.5l20.2,20.1V333h-11.9c-5.5,0-10,4.5-10,10v159
	c0,5.5,4.5,10,10,10c5.5,0,10-4.5,10-10V393h48.4c5.5,0,10-4.5,10-10s-4.5-10-10-10h-48.4v-20h140v149c0,5.5,4.5,10,10,10
	c5.5,0,10-4.5,10-10V343c0-5.5-4.5-10-10-10h-11.6v-39.1l12-11.9c21.7-21.7,33.7-50.5,33.7-81.2v-10.4c0-5.5-4.5-10-10-10
	c-5.5,0-10,4.5-10,10v10.4c0,25.3-9.9,49.1-27.8,67l-14.9,14.9c-1.9,1.9-2.9,4.4-2.9,7.1V333h-96.5v-43.3c0-2.7-1.1-5.2-2.9-7.1
	l-23.1-23c-13.4-13.3-22.4-30.2-26-48.7l-11.2-56.7c-0.6-3.1,0-6.3,1.8-9c1.8-2.6,4.6-4.4,7.7-5c6.1-1.1,12.1,2.8,13.5,8.8l5.8,23.6
	c1.6,6.6,7.6,10.7,14.3,9.9s11.6-6.3,11.6-13.1v-118c0-6.3,5.1-11.4,11.4-11.4c5.8,0,10.7,4.4,11.3,10.1V116c0,0.4,0,0.8,0.1,1.2
	v6.4c0,5.5,4.5,10,10,10s10-4.5,10-10V51.5c0-0.7,0-1.4-0.1-2.1V31.4c0-6.3,5.1-11.4,11.4-11.4c6.3,0,11.4,5.1,11.4,11.4v18.1
	c0,0.7-0.1,1.4-0.1,2.1V116c0,0.4,0,0.8,0.1,1.2v6.4c0,5.5,4.5,10,10,10c5.5,0,10-4.5,10-10V50.3c0.6-5.7,5.4-10.1,11.3-10.1
	c6.3,0,11.4,5.1,11.4,11.4v20.3c0,0.7-0.1,1.4-0.1,2.1V116c0,0.4,0,0.8,0.1,1.2v6.4c0,5.5,4.5,10,10,10c5.5,0,10-4.5,10-10v-51
	c0.6-5.7,5.5-10.1,11.3-10.1c6.3,0,11.4,5.1,11.4,11.4v36.5c0,5.5,4.5,10,10,10c5.5,0,10-4.5,10-10L485,73.9L485,73.9z M239.3,282.1
	c0,23.7-9.2,45.9-26,62.6l-14,14c-1.9,1.9-2.9,4.4-2.9,7.1V402h-89.6v-36.1c0-2.7-1.1-5.2-2.9-7.1l-21.7-21.7
	c-12.5-12.5-20.9-28.2-24.3-45.5l-10.5-53.4c-0.6-2.8,0-5.6,1.6-8c1.6-2.4,4.1-3.9,6.9-4.4c5.5-1,10.8,2.5,12.1,7.9l5.4,22.2
	c1.6,6.5,7.5,10.6,14.1,9.8c6.6-0.8,11.4-6.2,11.4-12.9v-111c0-5.6,4.5-10.1,10.1-10.1c5.2,0,9.5,3.9,10,8.9v61.8
	c0,0.4,0,0.8,0.1,1.1v6c0,5.5,4.5,10,10,10c5.5,0,10-4.5,10-10v-67.8c0-0.7,0-1.3-0.1-2v-17c0-5.6,4.5-10.1,10.1-10.1
	c5.6,0,10.1,4.5,10.1,10.1v17c0,0.7-0.1,1.3-0.1,2v60.7c0,0.4,0,0.8,0.1,1.2v6c0,5.5,4.5,10,10,10s10-4.5,10-10v-69
	c0.6-5,4.8-8.9,10-8.9c5.6,0,10.1,4.5,10.1,10.1v19c0,0.6-0.1,1.3-0.1,2v39.7c0,0.4,0,0.8,0.1,1.2v6c0,5.5,4.5,10,10,10
	c5.5,0,10-4.5,10-10v-48c0.6-5,4.9-8.9,10-8.9c5.6,0,10.1,4.5,10.1,10.1V282.1z"/>
<path class="st0" d="M475,140.3c-2.6,0-5.2,1.1-7.1,2.9c-1.9,1.9-2.9,4.4-2.9,7.1c0,2.6,1.1,5.2,2.9,7.1c1.9,1.9,4.4,2.9,7.1,2.9
	c2.6,0,5.2-1.1,7.1-2.9c1.9-1.9,2.9-4.4,2.9-7.1c0-2.6-1.1-5.2-2.9-7.1C480.2,141.4,477.6,140.3,475,140.3z"/>
<path class="st0" d="M389.3,373c-2.6,0-5.2,1.1-7.1,2.9c-1.9,1.9-2.9,4.4-2.9,7.1s1.1,5.2,2.9,7.1c1.9,1.9,4.4,2.9,7.1,2.9
	c2.6,0,5.2-1.1,7.1-2.9c1.9-1.9,2.9-4.4,2.9-7.1s-1.1-5.2-2.9-7.1C394.5,374.1,392,373,389.3,373z"/>
</svg>
