<?xml version="1.0" encoding="utf-8"?>
<!-- Generator: Adobe Illustrator 21.1.0, SVG Export Plug-In . SVG Version: 6.00 Build 0)  -->
<svg version="1.1" id="Layer_1" xmlns="http://www.w3.org/2000/svg" xmlns:xlink="http://www.w3.org/1999/xlink" x="0px" y="0px"
	 viewBox="0 0 1439.1 324.5" style="enable-background:new 0 0 1439.1 324.5;" xml:space="preserve">
<style type="text/css">
	.st0{display:none;}
	.st1{display:inline;fill:#231F20;}
	.st2{fill:#500000;}
	.st3{fill:#FFFFFF;}
	.st4{fill:#B6B6B6;}
	.st5{enable-background:new    ;}
	.st6{fill:#231F20;}
</style>
<g id="Orig_centeO" class="st0">
	<path class="st1" d="M371.8,222.6V111.5h-22.9V98.4h63.3v13.1h-22.9v111.1H371.8z"/>
	<path class="st1" d="M470.7,98.4v13.1h-30.6v41.2h29.5v13h-29.5v43.8h31v13.1h-48.5V98.4H470.7z"/>
	<path class="st1" d="M547.5,174.8v25.7c0,15.4-9.4,23.1-28.4,23.1h-5.7c-19,0-28.4-7.6-28.4-23.1v-80.2c0-15.4,9.4-23.1,28.4-23.1
		h5.7c18.8,0,27.9,7.5,27.9,22.7v22.4h-17v-22.7c0-6.4-3.7-9.4-11.6-9.4H514c-7.9,0-11.6,3-11.6,9.4v81.6c0,6.4,3.7,9.4,11.6,9.4
		h4.8c7.9,0,11.6-3,11.6-9.4v-26.4L547.5,174.8L547.5,174.8z"/>
	<path class="st1" d="M577.4,222.6V111.5h-22.9V98.4h63.3v13.1h-22.9v111.1H577.4z"/>
	<path class="st1" d="M660.6,223.6H654c-19,0-28.4-7.6-28.4-23.1v-80.2c0-15.4,9.4-23.1,28.4-23.1h6.5c19,0,28.4,7.6,28.4,23.1v80.2
		C688.9,216,679.6,223.6,660.6,223.6z M659.9,110.3h-5.2c-7.9,0-11.6,3-11.6,9.4v81.6c0,6.4,3.7,9.4,11.6,9.4h5.2
		c7.9,0,11.6-3,11.6-9.4v-81.6C671.5,113.3,667.8,110.3,659.9,110.3z"/>
	<path class="st1" d="M721.7,125.3v97.2h-16.6V98.4h24l25.3,89.6V98.4H771v124.2h-21.8L721.7,125.3z"/>
	<path class="st1" d="M822.1,223.6h-6.5c-19,0-28.4-7.6-28.4-23.1v-80.2c0-15.4,9.4-23.1,28.4-23.1h6.5c19,0,28.4,7.6,28.4,23.1
		v80.2C850.4,216,841,223.6,822.1,223.6z M821.4,110.3h-5.2c-7.9,0-11.6,3-11.6,9.4v81.6c0,6.4,3.7,9.4,11.6,9.4h5.2
		c7.9,0,11.6-3,11.6-9.4v-81.6C833,113.3,829.3,110.3,821.4,110.3z"/>
	<path class="st1" d="M884,222.6h-17.5V98.4h30.1c19,0,28.4,7.6,28.4,23.1v31.4c0,15.4-9.4,23.1-28.4,23.1H884V222.6z M896,111.3
		h-12v51.6h12c7.9,0,11.6-3,11.6-9.4v-32.8C907.6,114.3,903.9,111.3,896,111.3z"/>
	<path class="st1" d="M985.1,152.5V98.4h17.5v124.2h-17.5v-56.8h-28.4v56.8h-17.5V98.4h17.5v54.1H985.1z"/>
	<path class="st1" d="M1054.9,179.1v43.5h-17.5v-42.4l-24.7-81.8h17.9l15.5,60.9l16.1-60.9h17.2L1054.9,179.1z"/>
	<path class="st1" d="M1148.3,182.5v18.1c0,15.4-9.4,23.1-28.4,23.1h-4.8c-18.8,0-27.9-7.6-27.9-22.7v-26.1h17v26.6
		c0,6.4,3.7,9.4,11.6,9.4h3.5c7.9,0,11.6-3,11.6-9.4v-18.6c0-6.2-2.6-8.9-7.6-11.9l-21.4-12.6c-11.3-6.6-14.6-13-14.6-23.1v-14.9
		c0-15.4,9.4-23.1,28.4-23.1h4.4c18.8,0,27.9,7.6,27.9,22.7v22.4h-17v-22.9c0-6.4-3.7-9.4-11.6-9.4h-3.1c-7.9,0-11.6,3-11.6,9.4
		v15.6c0,6.2,2.8,8.9,7.9,11.9l21.2,12.4C1144.8,166,1148.3,171.8,1148.3,182.5z"/>
	<path class="st1" d="M1181.5,222.6H1164V98.4h17.5V222.6z"/>
	<path class="st1" d="M1260.3,174.8v25.7c0,15.4-9.4,23.1-28.4,23.1h-5.7c-19,0-28.4-7.6-28.4-23.1v-80.2c0-15.4,9.4-23.1,28.4-23.1
		h5.7c18.8,0,27.9,7.5,27.9,22.7v22.4h-17v-22.7c0-6.4-3.7-9.4-11.6-9.4h-4.4c-7.9,0-11.6,3-11.6,9.4v81.6c0,6.4,3.7,9.4,11.6,9.4
		h4.8c7.9,0,11.6-3,11.6-9.4v-26.4L1260.3,174.8L1260.3,174.8z"/>
	<path class="st1" d="M1336,182.5v18.1c0,15.4-9.4,23.1-28.4,23.1h-4.8c-18.8,0-27.9-7.6-27.9-22.7v-26.1h17v26.6
		c0,6.4,3.7,9.4,11.6,9.4h3.5c7.9,0,11.6-3,11.6-9.4v-18.6c0-6.2-2.6-8.9-7.6-11.9l-21.4-12.6c-11.3-6.6-14.6-13-14.6-23.1v-14.9
		c0-15.4,9.4-23.1,28.4-23.1h4.4c18.8,0,27.9,7.6,27.9,22.7v22.4h-17v-22.9c0-6.4-3.7-9.4-11.6-9.4h-3.1c-7.9,0-11.6,3-11.6,9.4
		v15.6c0,6.2,2.8,8.9,7.9,11.9l21.2,12.4C1332.5,166,1336,171.8,1336,182.5z"/>
</g>
<g id="Orig_bottom" class="st0">
	<path class="st1" d="M376.6,254.6c-5.5,0-9.8,1.8-13,5.5s-4.7,8.7-4.7,15.1c0,6.5,1.5,11.6,4.5,15.2s7.2,5.4,12.8,5.4
		c3.7,0,7.1-0.5,10.2-1.5v2.8c-2.9,1.1-6.5,1.6-10.9,1.6c-6.2,0-11-2.1-14.6-6.2c-3.5-4.1-5.3-9.9-5.3-17.4c0-4.6,0.8-8.8,2.5-12.3
		s4.1-6.3,7.3-8.2c3.2-1.9,6.9-2.9,11.1-2.9c4.3,0,8.1,0.8,11.5,2.5l-1.2,2.9C383.5,255.4,380.2,254.6,376.6,254.6z"/>
	<path class="st1" d="M433,275.1c0,7.3-1.7,13-5.2,17.2s-8.3,6.3-14.4,6.3s-10.9-2.1-14.4-6.3c-3.5-4.2-5.2-10-5.2-17.3
		s1.8-13,5.3-17.2c3.5-4.2,8.3-6.3,14.4-6.3s10.9,2.1,14.4,6.3C431.3,262.1,433,267.9,433,275.1z M397.1,275.1
		c0,6.6,1.4,11.6,4.2,15.2c2.8,3.6,6.8,5.4,12.1,5.4c5.3,0,9.3-1.8,12.1-5.3c2.8-3.5,4.2-8.6,4.2-15.2s-1.4-11.6-4.2-15.2
		s-6.8-5.3-12.1-5.3c-5.2,0-9.3,1.8-12.1,5.3C398.5,263.6,397.1,268.6,397.1,275.1z"/>
	<path class="st1" d="M443.1,298.1v-45.7h3.1v42.7h20.9v3H443.1z"/>
	<path class="st1" d="M474.7,298.1v-45.7h3.1v42.7h20.9v3H474.7z"/>
	<path class="st1" d="M530.2,298.1h-24v-45.7h24v2.9h-20.9v17.3H529v2.9h-19.8v19.6h20.9L530.2,298.1L530.2,298.1z"/>
	<path class="st1" d="M557.4,275h16.2v20.9c-4.2,1.9-9,2.8-14.3,2.8c-6.9,0-12.2-2-15.9-6.1s-5.5-9.8-5.5-17.3
		c0-4.6,0.9-8.8,2.7-12.4s4.5-6.4,7.9-8.3c3.4-2,7.3-2.9,11.8-2.9c4.8,0,9.1,0.9,12.9,2.8l-1.2,2.9c-3.8-1.8-7.7-2.8-11.8-2.8
		c-5.8,0-10.4,1.9-13.8,5.6c-3.4,3.7-5.1,8.7-5.1,15.1c0,6.9,1.6,12.1,4.8,15.5c3.2,3.5,8,5.2,14.2,5.2c4,0,7.5-0.6,10.3-1.8V278
		h-13.1v-3H557.4z"/>
	<path class="st1" d="M608.6,298.1h-24v-45.7h24v2.9h-20.9v17.3h19.8v2.9h-19.8v19.6h20.9V298.1z"/>
	<path class="st1" d="M671.5,275.1c0,7.3-1.7,13-5.2,17.2s-8.3,6.3-14.4,6.3c-6.1,0-10.9-2.1-14.4-6.3c-3.5-4.2-5.2-10-5.2-17.3
		s1.8-13,5.3-17.2c3.5-4.2,8.3-6.3,14.4-6.3c6.1,0,10.9,2.1,14.4,6.3C669.7,262.1,671.5,267.9,671.5,275.1z M635.5,275.1
		c0,6.6,1.4,11.6,4.2,15.2s6.8,5.4,12.1,5.4s9.3-1.8,12.1-5.3s4.2-8.6,4.2-15.2s-1.4-11.6-4.2-15.2c-2.8-3.5-6.8-5.3-12.1-5.3
		c-5.2,0-9.3,1.8-12.1,5.3C637,263.6,635.5,268.6,635.5,275.1z"/>
	<path class="st1" d="M684.6,298.1h-3.1v-45.7h24.1v2.9h-21v19.4h19.8v3h-19.8V298.1z"/>
	<path class="st1" d="M745.7,275h16.2v20.9c-4.2,1.9-9,2.8-14.3,2.8c-6.9,0-12.2-2-15.9-6.1s-5.5-9.8-5.5-17.3
		c0-4.6,0.9-8.8,2.7-12.4s4.5-6.4,7.9-8.3c3.4-2,7.3-2.9,11.8-2.9c4.8,0,9.1,0.9,12.9,2.8l-1.2,2.9c-3.8-1.8-7.7-2.8-11.8-2.8
		c-5.8,0-10.4,1.9-13.8,5.6c-3.4,3.7-5.1,8.7-5.1,15.1c0,6.9,1.6,12.1,4.8,15.5c3.2,3.5,8,5.2,14.2,5.2c4,0,7.5-0.6,10.3-1.8V278
		h-13.1v-3H745.7z"/>
	<path class="st1" d="M796.9,298.1h-24v-45.7h24v2.9H776v17.3h19.8v2.9H776v19.6h20.9V298.1z"/>
	<path class="st1" d="M843.7,275.1c0,7.3-1.7,13-5.2,17.2s-8.3,6.3-14.4,6.3c-6.1,0-10.9-2.1-14.4-6.3c-3.5-4.2-5.2-10-5.2-17.3
		s1.8-13,5.3-17.2c3.5-4.2,8.3-6.3,14.4-6.3c6.1,0,10.9,2.1,14.4,6.3C842,262.1,843.7,267.9,843.7,275.1z M807.8,275.1
		c0,6.6,1.4,11.6,4.2,15.2s6.8,5.4,12.1,5.4s9.3-1.8,12.1-5.3s4.2-8.6,4.2-15.2s-1.4-11.6-4.2-15.2c-2.8-3.5-6.8-5.3-12.1-5.3
		c-5.2,0-9.3,1.8-12.1,5.3C809.2,263.6,807.8,268.6,807.8,275.1z"/>
	<path class="st1" d="M878.1,286.3c0,3.8-1.3,6.8-4,9.1c-2.7,2.2-6.3,3.3-10.7,3.3c-5.4,0-9.5-0.6-12.3-1.8v-3.2
		c3.2,1.4,7.2,2.1,12.1,2.1c3.6,0,6.5-0.9,8.6-2.6s3.2-4,3.2-6.8c0-1.7-0.3-3.2-1-4.3c-0.7-1.1-1.8-2.2-3.4-3.1
		c-1.6-0.9-3.9-1.9-7-3c-4.5-1.6-7.6-3.3-9.3-5.2c-1.7-1.9-2.6-4.4-2.6-7.5c0-3.4,1.3-6.2,3.9-8.4c2.6-2.2,5.9-3.2,9.9-3.2
		c4.1,0,8,0.8,11.6,2.4l-1.1,2.8c-3.6-1.6-7.1-2.4-10.5-2.4c-3.2,0-5.8,0.8-7.7,2.3c-1.9,1.6-2.9,3.7-2.9,6.4c0,1.7,0.3,3.1,0.9,4.2
		c0.6,1.1,1.6,2.1,2.9,2.9c1.3,0.9,3.6,1.9,6.9,3.1c3.4,1.2,6,2.4,7.7,3.6s3,2.5,3.8,3.9C877.7,282.4,878.1,284.2,878.1,286.3z"/>
	<path class="st1" d="M906.1,254.6c-5.5,0-9.8,1.8-13,5.5s-4.7,8.7-4.7,15.1c0,6.5,1.5,11.6,4.5,15.2s7.2,5.4,12.8,5.4
		c3.7,0,7.1-0.5,10.2-1.5v2.8c-2.9,1.1-6.5,1.6-10.9,1.6c-6.2,0-11-2.1-14.6-6.2c-3.5-4.1-5.3-9.9-5.3-17.4c0-4.6,0.8-8.8,2.5-12.3
		s4.1-6.3,7.3-8.2c3.2-1.9,6.9-2.9,11.1-2.9c4.3,0,8.1,0.8,11.5,2.5l-1.2,2.9C913,255.4,909.6,254.6,906.1,254.6z"/>
	<path class="st1" d="M925.5,298.1v-45.7h3.1v45.7H925.5z"/>
	<path class="st1" d="M965,298.1h-24v-45.7h24v2.9h-20.9v17.3h19.8v2.9h-19.8v19.6H965V298.1z"/>
	<path class="st1" d="M1006.9,298.1h-3.1l-26-40.6h-0.2c0.2,4.8,0.4,8.5,0.4,10.9v29.7h-3v-45.7h3.1l26,40.5h0.2
		c-0.2-3.8-0.3-7.3-0.3-10.7v-29.8h3L1006.9,298.1L1006.9,298.1z"/>
	<path class="st1" d="M1038.1,254.6c-5.5,0-9.8,1.8-13,5.5c-3.2,3.7-4.7,8.7-4.7,15.1c0,6.5,1.5,11.6,4.5,15.2
		c3,3.6,7.2,5.4,12.8,5.4c3.7,0,7.1-0.5,10.2-1.5v2.8c-2.9,1.1-6.5,1.6-10.9,1.6c-6.2,0-11-2.1-14.6-6.2c-3.5-4.1-5.3-9.9-5.3-17.4
		c0-4.6,0.8-8.8,2.5-12.3s4.1-6.3,7.3-8.2c3.2-1.9,6.9-2.9,11.1-2.9c4.3,0,8.1,0.8,11.5,2.5l-1.2,2.9
		C1045,255.4,1041.6,254.6,1038.1,254.6z"/>
	<path class="st1" d="M1081.5,298.1h-24v-45.7h24v2.9h-20.9v17.3h19.8v2.9h-19.8v19.6h20.9V298.1z"/>
	<path class="st1" d="M1115.7,286.3c0,3.8-1.3,6.8-4,9.1c-2.7,2.2-6.3,3.3-10.7,3.3c-5.4,0-9.5-0.6-12.3-1.8v-3.2
		c3.2,1.4,7.2,2.1,12.1,2.1c3.6,0,6.5-0.9,8.6-2.6s3.2-4,3.2-6.8c0-1.7-0.4-3.2-1-4.3c-0.7-1.1-1.8-2.2-3.4-3.1s-3.9-1.9-7-3
		c-4.5-1.6-7.6-3.3-9.3-5.2c-1.7-1.9-2.6-4.4-2.6-7.5c0-3.4,1.3-6.2,3.9-8.4c2.6-2.2,5.9-3.2,9.9-3.2c4.1,0,8,0.8,11.6,2.4l-1.1,2.8
		c-3.6-1.6-7.1-2.4-10.4-2.4c-3.2,0-5.8,0.8-7.7,2.3c-1.9,1.6-2.9,3.7-2.9,6.4c0,1.7,0.3,3.1,0.9,4.2s1.6,2.1,2.9,2.9
		c1.3,0.9,3.6,1.9,6.9,3.1c3.4,1.2,6,2.4,7.7,3.6s3,2.5,3.8,3.9C1115.3,282.4,1115.7,284.2,1115.7,286.3z"/>
</g>
<g>
	<g>
		<rect x="16" y="18" class="st2" width="283.3" height="285.5"/>
	</g>
	<polygon class="st3" points="261.7,131.7 240.6,131.7 239.4,131.7 238.9,132.8 223.6,164.5 208.3,132.8 207.8,131.7 206.5,131.7 
		186.2,131.7 184.3,131.7 184.3,133.6 184.3,144.4 184.3,146.4 186.2,146.4 189.7,146.4 189.7,191.8 185.9,191.8 184,191.8 
		184,193.8 184,204.6 184,206.5 185.9,206.5 208.8,206.5 210.7,206.5 210.7,204.6 210.7,193.8 210.7,191.8 208.8,191.8 204.8,191.8 
		204.8,159.6 221.9,194.7 223.6,198.3 225.4,194.7 242.6,159.5 242.6,191.8 238.8,191.8 236.9,191.8 236.9,193.8 236.9,204.6 
		236.9,206.5 238.8,206.5 261.7,206.5 263.6,206.5 263.6,204.6 263.6,193.8 263.6,191.8 261.7,191.8 257.7,191.8 257.7,146.4 
		261.7,146.4 263.6,146.4 263.6,144.4 263.6,133.6 263.6,131.7 	"/>
	<path class="st3" d="M129.1,191.8H123l-19.8-45.7h1.9h1.9v-1.9v-10.8v-1.9h-1.9H77.2h-1.9v1.9v10.8v1.9h1.9h2.4l-19.8,45.7h-6.3
		h-1.9v1.9v10.8v1.9h1.9h24.9h1.9v-1.9v-10.8v-1.9h-1.9h-2.3l3.3-7.6h23.8l3.3,7.6H104h-1.9v1.9v10.8v1.9h1.9h24.9h1.9v-1.9v-10.8
		v-1.9H129.1z M97,169.5H86l5.5-12.8L97,169.5z"/>
	<rect x="80.1" y="77.5" class="st4" width="151.2" height="13.5"/>
	<rect x="224.1" y="79.6" class="st4" width="12.7" height="37.6"/>
	<rect x="156.1" y="86.7" class="st4" width="13.1" height="144"/>
	<rect x="175.1" y="221.1" class="st4" width="12.2" height="22.4"/>
	<path class="st3" d="M237.5,74.6H77.3H75v2.2v42.8v2.2h2.2h27.7h2.2v-2.2v-15.9h34.2v112.8h-15.9h-2.2v2.2v27.7v2.2h2.2h63.9h2.2
		v-2.2v-27.7v-2.2h-2.2h-15.9V103.7h34v15.7v2.2h2.2h27.9h2.2v-2.2V76.8v-2.2C239.7,74.6,237.5,74.6,237.5,74.6z M178.2,229.6l6.8-7
		v19.1l-6.8-6.5V229.6z M166.9,223.2l-6.8,6.7V90.4l6.8,6.8V223.2z M88.6,87.9l-7-6.8h148.1l-8.8,6.8H88.6z M233.3,115.4l-6.8-6.5
		V91.7l6.8-7V115.4z"/>
	<g>
		<path class="st2" d="M309.3,299.8c0-3.1,2.5-5.7,5.7-5.7c3.1,0,5.7,2.5,5.7,5.7c0,3.1-2.5,5.7-5.7,5.7
			C311.9,305.5,309.3,302.9,309.3,299.8z M319.3,299.8c0-2.7-1.9-4.6-4.3-4.6s-4.3,1.9-4.3,4.6s1.9,4.6,4.3,4.6
			S319.3,302.5,319.3,299.8z M312.8,296.6h2.4c1.5,0,2.4,0.5,2.4,1.9c0,1.1-0.6,1.6-1.7,1.7l1.7,2.8h-1.2l-1.7-2.8H314v2.8h-1.2
			V296.6L312.8,296.6z M314,299.3h1.1c0.7,0,1.3-0.1,1.3-1c0-0.8-0.7-0.9-1.3-0.9H314V299.3z"/>
	</g>
</g>
<g>
	<g class="st5">
		<path class="st6" d="M358,222h12.3c5.6,0,9.6,0.9,12.2,2.8c2.6,1.9,3.9,4.7,3.9,8.6c0,2.6-0.8,4.8-2.4,6.5c-1.6,1.7-3.9,2.8-7,3.3
			v0.2c3.6,0.5,6.2,1.7,7.9,3.4c1.7,1.7,2.5,4.1,2.5,7.2c0,4.1-1.4,7.3-4.1,9.6c-2.7,2.2-6.6,3.4-11.7,3.4H358V222z M361.2,242h9.9
			c4.2,0,7.3-0.7,9.2-2.1c1.9-1.4,2.9-3.6,2.9-6.6s-1.1-5.2-3.2-6.5c-2.2-1.4-5.4-2-9.7-2h-9.1V242z M361.2,244.8v19.4h10.6
			c8.3,0,12.5-3.4,12.5-10.2c0-6.2-4.4-9.3-13.2-9.3H361.2z"/>
		<path class="st6" d="M407.9,246.6L421,222h3.4l-15,27.6V267h-3.2v-17.1l-15-27.8h3.6L407.9,246.6z"/>
		<path class="st6" d="M464.8,244.3h16.6v20.5c-4.3,1.8-9.2,2.8-14.7,2.8c-7.1,0-12.5-2-16.3-6c-3.8-4-5.7-9.7-5.7-17
			c0-4.6,0.9-8.6,2.8-12.2c1.9-3.5,4.6-6.3,8.1-8.2c3.5-1.9,7.5-2.9,12-2.9c4.9,0,9.3,0.9,13.2,2.7l-1.3,2.8
			c-3.9-1.8-7.9-2.7-12.1-2.7c-5.9,0-10.6,1.8-14.1,5.5c-3.5,3.7-5.2,8.6-5.2,14.8c0,6.8,1.7,11.9,5,15.3c3.3,3.4,8.2,5.1,14.6,5.1
			c4.1,0,7.7-0.6,10.6-1.8v-15.8h-13.4V244.3z"/>
		<path class="st6" d="M517.3,267h-24.6v-45h24.6v2.9h-21.4v17h20.2v2.9h-20.2v19.3h21.4V267z"/>
		<path class="st6" d="M565.3,244.4c0,7.1-1.8,12.8-5.4,16.9c-3.6,4.2-8.5,6.2-14.8,6.2c-6.3,0-11.2-2.1-14.7-6.2
			c-3.6-4.2-5.4-9.8-5.4-17c0-7.2,1.8-12.8,5.4-16.9c3.6-4.1,8.5-6.2,14.8-6.2c6.3,0,11.2,2.1,14.7,6.2
			C563.5,231.6,565.3,237.3,565.3,244.4z M528.5,244.4c0,6.4,1.4,11.4,4.3,14.9c2.9,3.5,7,5.3,12.4,5.3c5.4,0,9.6-1.7,12.4-5.2
			c2.9-3.5,4.3-8.5,4.3-15c0-6.5-1.4-11.4-4.3-14.9c-2.9-3.5-7-5.2-12.4-5.2c-5.4,0-9.5,1.7-12.4,5.2S528.5,238,528.5,244.4z"/>
		<path class="st6" d="M575.6,267v-45h3.1v45H575.6z"/>
		<path class="st6" d="M624.2,267H621l-26.6-39.9h-0.2c0.2,4.8,0.4,8.3,0.4,10.8V267h-3v-45h3.1l26.6,39.9h0.2
			c-0.2-3.7-0.3-7.2-0.3-10.5V222h3V267z"/>
		<path class="st6" d="M669.6,267h-3.2l-26.6-39.9h-0.2c0.2,4.8,0.4,8.3,0.4,10.8V267h-3v-45h3.1l26.6,39.9h0.2
			c-0.2-3.7-0.3-7.2-0.3-10.5V222h3V267z"/>
		<path class="st6" d="M720.2,244.4c0,7.1-1.8,12.8-5.4,16.9c-3.6,4.2-8.5,6.2-14.8,6.2c-6.3,0-11.2-2.1-14.7-6.2
			c-3.6-4.2-5.4-9.8-5.4-17c0-7.2,1.8-12.8,5.4-16.9c3.6-4.1,8.5-6.2,14.8-6.2c6.3,0,11.2,2.1,14.7,6.2S720.2,237.3,720.2,244.4z
			 M683.4,244.4c0,6.4,1.4,11.4,4.3,14.9s7,5.3,12.4,5.3c5.4,0,9.6-1.7,12.4-5.2c2.9-3.5,4.3-8.5,4.3-15c0-6.5-1.4-11.4-4.3-14.9
			c-2.9-3.5-7-5.2-12.4-5.2c-5.4,0-9.5,1.7-12.4,5.2S683.4,238,683.4,244.4z"/>
		<path class="st6" d="M757.1,222h3.4l-16.8,45h-2.8l-16.8-45h3.4l11.3,30.6c1.7,4.6,2.9,8.1,3.5,10.4c0.4-1.5,1.2-3.9,2.4-7.2
			L757.1,222z"/>
		<path class="st6" d="M788.5,251.1h-18.3L764,267h-3.5l18.1-45.2h2l17.7,45.2h-3.5L788.5,251.1z M771.4,248.3h16.1l-6.1-16.2
			c-0.5-1.3-1.1-3-1.8-5.3c-0.6,2-1.2,3.8-1.8,5.4L771.4,248.3z"/>
		<path class="st6" d="M816.4,267h-3.2v-42h-14.6v-3H831v3h-14.6V267z"/>
		<path class="st6" d="M837.7,267v-45h3.1v45H837.7z"/>
		<path class="st6" d="M891.4,244.4c0,7.1-1.8,12.8-5.4,16.9c-3.6,4.2-8.5,6.2-14.8,6.2c-6.3,0-11.2-2.1-14.7-6.2
			c-3.6-4.2-5.4-9.8-5.4-17c0-7.2,1.8-12.8,5.4-16.9c3.6-4.1,8.5-6.2,14.8-6.2c6.3,0,11.2,2.1,14.7,6.2S891.4,237.3,891.4,244.4z
			 M854.6,244.4c0,6.4,1.4,11.4,4.3,14.9s7,5.3,12.4,5.3c5.4,0,9.6-1.7,12.4-5.2c2.9-3.5,4.3-8.5,4.3-15c0-6.5-1.4-11.4-4.3-14.9
			c-2.9-3.5-7-5.2-12.4-5.2c-5.4,0-9.5,1.7-12.4,5.2S854.6,238,854.6,244.4z"/>
		<path class="st6" d="M934.4,267h-3.2l-26.6-39.9h-0.2c0.2,4.8,0.4,8.3,0.4,10.8V267h-3v-45h3.1l26.6,39.9h0.2
			c-0.2-3.7-0.3-7.2-0.3-10.5V222h3V267z"/>
		<path class="st6" d="M988.3,255.4c0,3.8-1.4,6.7-4.1,8.9s-6.4,3.3-11,3.3c-5.5,0-9.7-0.6-12.6-1.8v-3.1c3.2,1.4,7.4,2.1,12.4,2.1
			c3.7,0,6.6-0.8,8.8-2.5c2.2-1.7,3.2-3.9,3.2-6.7c0-1.7-0.4-3.1-1.1-4.2c-0.7-1.1-1.9-2.1-3.5-3.1s-4-1.9-7.1-3
			c-4.6-1.6-7.8-3.3-9.5-5.1c-1.8-1.8-2.6-4.3-2.6-7.3c0-3.4,1.3-6.1,4-8.2c2.6-2.1,6-3.2,10.2-3.2c4.2,0,8.2,0.8,11.9,2.4l-1.1,2.7
			c-3.7-1.6-7.3-2.3-10.7-2.3c-3.3,0-6,0.8-7.9,2.3s-3,3.6-3,6.3c0,1.7,0.3,3,0.9,4.1c0.6,1.1,1.6,2,3,2.9s3.7,1.9,7.1,3.1
			c3.5,1.2,6.1,2.4,7.9,3.5c1.8,1.1,3,2.4,3.9,3.9C987.9,251.6,988.3,253.3,988.3,255.4z"/>
		<path class="st6" d="M1022.4,267h-24.6v-45h24.6v2.9H1001v17h20.2v2.9H1001v19.3h21.4V267z"/>
		<path class="st6" d="M1035.7,247.4V267h-3.1v-45h10.7c5.6,0,9.7,1,12.4,3.1c2.7,2.1,4,5.2,4,9.3c0,3-0.8,5.6-2.4,7.6
			s-4,3.6-7.2,4.5l12.2,20.5h-3.8l-11.6-19.6H1035.7z M1035.7,244.7h8.6c3.8,0,6.7-0.8,8.8-2.5c2.1-1.7,3.1-4.2,3.1-7.5
			c0-3.4-1-5.9-3.1-7.5c-2.1-1.6-5.4-2.3-10-2.3h-7.4V244.7z"/>
		<path class="st6" d="M1096.6,222h3.4l-16.8,45h-2.8l-16.8-45h3.4l11.3,30.6c1.7,4.6,2.9,8.1,3.5,10.4c0.4-1.5,1.2-3.9,2.4-7.2
			L1096.6,222z"/>
		<path class="st6" d="M1106.4,267v-45h3.1v45H1106.4z"/>
		<path class="st6" d="M1141.4,224.2c-5.6,0-10.1,1.8-13.3,5.4s-4.9,8.6-4.9,14.8c0,6.4,1.5,11.4,4.6,15c3.1,3.5,7.4,5.3,13.1,5.3
			c3.8,0,7.2-0.5,10.4-1.4v2.8c-3,1-6.7,1.6-11.1,1.6c-6.3,0-11.3-2-14.9-6.1s-5.4-9.8-5.4-17.1c0-4.6,0.9-8.6,2.6-12.1
			s4.2-6.2,7.5-8.1c3.3-1.9,7-2.8,11.3-2.8c4.4,0,8.3,0.8,11.8,2.5l-1.3,2.8C1148.5,225,1145.1,224.2,1141.4,224.2z"/>
		<path class="st6" d="M1186,267h-24.6v-45h24.6v2.9h-21.4v17h20.2v2.9h-20.2v19.3h21.4V267z"/>
		<path class="st6" d="M1231.7,224.2c-5.6,0-10.1,1.8-13.3,5.4s-4.9,8.6-4.9,14.8c0,6.4,1.5,11.4,4.6,15c3.1,3.5,7.4,5.3,13.1,5.3
			c3.8,0,7.2-0.5,10.4-1.4v2.8c-3,1-6.7,1.6-11.1,1.6c-6.3,0-11.3-2-14.9-6.1s-5.4-9.8-5.4-17.1c0-4.6,0.9-8.6,2.6-12.1
			s4.2-6.2,7.5-8.1c3.3-1.9,7-2.8,11.3-2.8c4.4,0,8.3,0.8,11.8,2.5l-1.3,2.8C1238.8,225,1235.3,224.2,1231.7,224.2z"/>
		<path class="st6" d="M1276.2,267h-24.6v-45h24.6v2.9h-21.4v17h20.2v2.9h-20.2v19.3h21.4V267z"/>
		<path class="st6" d="M1319.1,267h-3.2l-26.6-39.9h-0.2c0.2,4.8,0.4,8.3,0.4,10.8V267h-3v-45h3.1l26.6,39.9h0.2
			c-0.2-3.7-0.3-7.2-0.3-10.5V222h3V267z"/>
		<path class="st6" d="M1343.5,267h-3.2v-42h-14.6v-3h32.4v3h-14.6V267z"/>
		<path class="st6" d="M1389.4,267h-24.6v-45h24.6v2.9H1368v17h20.2v2.9H1368v19.3h21.4V267z"/>
		<path class="st6" d="M1402.7,247.4V267h-3.1v-45h10.7c5.6,0,9.7,1,12.4,3.1c2.7,2.1,4,5.2,4,9.3c0,3-0.8,5.6-2.4,7.6
			s-4,3.6-7.2,4.5l12.2,20.5h-3.8l-11.6-19.6H1402.7z M1402.7,244.7h8.6c3.8,0,6.7-0.8,8.8-2.5c2.1-1.7,3.1-4.2,3.1-7.5
			c0-3.4-1-5.9-3.1-7.5c-2.1-1.6-5.4-2.3-10-2.3h-7.4V244.7z"/>
	</g>
	<g class="st5">
		<path class="st6" d="M387.3,137.7v-13h32.3v44.1c0,15.5-9.7,23.1-29.3,23.1h-6.8c-19.6,0-29.3-7.7-29.3-23.1V88.4
			c0-15.5,9.7-23.1,29.3-23.1h6.8c19.4,0,28.9,7.7,28.9,22.8v17.1h-17.6V87.7c0-6.4-3.8-9.4-12-9.4h-5.4c-8.1,0-12,3-12,9.4v81.9
			c0,6.4,3.8,9.4,12,9.4h5.9c8.1,0,12-3,12-9.4v-31.9H387.3z"/>
		<path class="st6" d="M483.7,66.3v13.2h-31.6v41.3h30.5v13h-30.5v44h32v13.2h-50.1V66.3H483.7z"/>
		<path class="st6" d="M532.9,192h-6.8c-19.6,0-29.3-7.7-29.3-23.1V88.4c0-15.5,9.7-23.1,29.3-23.1h6.8c19.6,0,29.3,7.7,29.3,23.1
			v80.5C562.2,184.3,552.5,192,532.9,192z M532.2,78.2h-5.4c-8.1,0-12,3-12,9.4v81.9c0,6.4,3.8,9.4,12,9.4h5.4c8.1,0,12-3,12-9.4
			V87.7C544.2,81.2,540.3,78.2,532.2,78.2z"/>
		<path class="st6" d="M639.6,150.7v18.2c0,15.5-9.7,23.1-29.3,23.1h-5c-19.4,0-28.9-7.7-28.9-22.8V143h17.6v26.7
			c0,6.4,3.8,9.4,12,9.4h3.6c8.1,0,12-3,12-9.4V151c0-6.2-2.7-8.9-7.9-11.9l-22.1-12.6c-11.7-6.6-15.1-13-15.1-23.1v-15
			c0-15.5,9.7-23.1,29.3-23.1h4.5c19.4,0,28.9,7.7,28.9,22.8v22.4h-17.6v-23c0-6.4-3.8-9.4-12-9.4h-3.2c-8.1,0-12,3-12,9.4v15.7
			c0,6.2,2.9,8.9,8.1,11.9l21.9,12.5C636,134.1,639.6,140,639.6,150.7z"/>
		<path class="st6" d="M703.5,66.3v13.2h-31.6v41.3h30.5v13h-30.5v44h32v13.2h-50.1V66.3H703.5z"/>
		<path class="st6" d="M780.2,148.9v42h-18.1v-41.5c0-7.5-4.3-10.9-13.8-10.9h-13.3v52.3H717V66.3h33.6c19.6,0,29.3,7.7,29.3,23.1
			v23.1c0,11.2-5,16.7-14,19.6C775.9,134.3,780.2,139.3,780.2,148.9z M750,79.3h-14.9v46.6h13.5c9,0,13.3-3.4,13.3-10.5V88.7
			C761.9,82.3,758.1,79.3,750,79.3z"/>
		<path class="st6" d="M813.2,191.2l-25-125h18.3l16.7,95.2l17.2-95.2h17.8l-25,125H813.2z"/>
		<path class="st6" d="M887,190.9h-18.1V66.3H887V190.9z"/>
		<path class="st6" d="M966.6,143v25.8c0,15.5-9.7,23.1-29.3,23.1h-5.9c-19.6,0-29.3-7.7-29.3-23.1V88.4c0-15.5,9.7-23.1,29.3-23.1
			h5.9c19.4,0,28.9,7.5,28.9,22.8v22.4h-17.6V87.7c0-6.4-3.8-9.4-12-9.4h-4.5c-8.1,0-12,3-12,9.4v81.9c0,6.4,3.8,9.4,12,9.4h5
			c8.1,0,12-3,12-9.4V143H966.6z"/>
		<path class="st6" d="M1030.3,66.3v13.2h-31.6v41.3h30.5v13h-30.5v44h32v13.2h-50.1V66.3H1030.3z"/>
		<path class="st6" d="M1106.3,150.7v18.2c0,15.5-9.7,23.1-29.3,23.1h-5c-19.4,0-28.9-7.7-28.9-22.8V143h17.6v26.7
			c0,6.4,3.8,9.4,12,9.4h3.6c8.1,0,12-3,12-9.4V151c0-6.2-2.7-8.9-7.9-11.9l-22.1-12.6c-11.7-6.6-15.1-13-15.1-23.1v-15
			c0-15.5,9.7-23.1,29.3-23.1h4.5c19.4,0,28.9,7.7,28.9,22.8v22.4h-17.6v-23c0-6.4-3.8-9.4-12-9.4h-3.2c-8.1,0-12,3-12,9.4v15.7
			c0,6.2,2.9,8.9,8.1,11.9l21.9,12.5C1102.7,134.1,1106.3,140,1106.3,150.7z"/>
	</g>
</g>
</svg>
