<?xml version="1.0" encoding="utf-8"?>
<!-- Generator: Adobe Illustrator 21.1.0, SVG Export Plug-In . SVG Version: 6.00 Build 0)  -->
<svg version="1.1" id="Layer_1" xmlns="http://www.w3.org/2000/svg" xmlns:xlink="http://www.w3.org/1999/xlink" x="0px" y="0px"
	 viewBox="0 0 1439.1 324.5" style="enable-background:new 0 0 1439.1 324.5;" xml:space="preserve">
<style type="text/css">
	.st0{fill:#FFFFFF;}
	.st1{enable-background:new    ;}
</style>
<g>
	<g>
		<polygon class="st0" points="160.1,229.9 166.9,223.2 166.9,97.2 160.1,90.4 		"/>
		<polygon class="st0" points="229.7,81.1 81.6,81.1 88.6,87.9 220.9,87.9 		"/>
		<polygon class="st0" points="226.5,108.9 233.3,115.4 233.3,84.7 226.5,91.7 		"/>
		<polygon class="st0" points="86,169.5 97,169.5 91.5,156.7 		"/>
		<path class="st0" d="M16,18v285.5h283.3V18H16z M102.1,206.4v-1.9v-10.8v-1.9h1.9h2.5l-3.3-7.6H79.4l-3.3,7.6h2.3h1.9v1.9v10.8
			v1.9h-1.9H53.5h-1.9v-1.9v-10.8v-1.9h1.9h6.3l19.8-45.7h-2.4h-1.9v-1.9v-10.8v-1.9h1.9h27.9h1.9v1.9v10.8v1.9h-1.9h-1.9l19.8,45.7
			h6.1h1.7v1.9v10.8v1.9h-1.9H104H102.1z M191.5,218.7v27.7v2.2h-2.2h-63.9h-2.2v-2.2v-27.7v-2.2h2.2h15.9V103.7h-34.2v15.9v2.2
			h-2.2H77.2H75v-2.2V76.8v-2.2h2.3h160.2h2.2v2.2v42.6v2.2h-2.2h-27.9h-2.2v-2.2v-15.7h-34v112.8h15.9h2.2V218.7z M263.6,133.6
			v10.8v2h-1.9h-4v45.4h4h1.9v2v10.8v1.9h-1.9h-22.9h-1.9v-1.9v-10.8v-2h1.9h3.8v-32.3l-17.2,35.2l-1.8,3.6l-1.7-3.6l-17.1-35.1
			v32.2h4h1.9v2v10.8v1.9h-1.9h-22.9H184v-1.9v-10.8v-2h1.9h3.8v-45.4h-3.5h-1.9v-2v-10.8v-1.9h1.9h20.3h1.3l0.5,1.1l15.3,31.7
			l15.3-31.7l0.5-1.1h1.2h21.1h1.9V133.6z"/>
		<polygon class="st0" points="178.2,235.2 185,241.7 185,222.6 178.2,229.6 		"/>
	</g>
	<g>
		<path class="st0" d="M309.3,299.8c0-3.1,2.5-5.7,5.7-5.7c3.1,0,5.7,2.5,5.7,5.7c0,3.1-2.5,5.7-5.7,5.7
			C311.9,305.5,309.3,302.9,309.3,299.8z M319.3,299.8c0-2.7-1.9-4.6-4.3-4.6s-4.3,1.9-4.3,4.6s1.9,4.6,4.3,4.6
			S319.3,302.5,319.3,299.8z M312.8,296.6h2.4c1.5,0,2.4,0.5,2.4,1.9c0,1.1-0.6,1.6-1.7,1.7l1.7,2.8h-1.2l-1.7-2.8H314v2.8h-1.2
			V296.6L312.8,296.6z M314,299.3h1.1c0.7,0,1.3-0.1,1.3-1c0-0.8-0.7-0.9-1.3-0.9H314V299.3z"/>
	</g>
</g>
<g>
	<g class="st1">
		<path class="st0" d="M358,222h12.3c5.6,0,9.6,0.9,12.2,2.8c2.6,1.9,3.9,4.7,3.9,8.6c0,2.6-0.8,4.8-2.4,6.5s-3.9,2.8-7,3.3v0.2
			c3.6,0.5,6.2,1.7,7.9,3.4c1.7,1.7,2.5,4.1,2.5,7.2c0,4.1-1.4,7.3-4.1,9.6c-2.7,2.2-6.6,3.4-11.7,3.4H358V222z M361.2,242h9.9
			c4.2,0,7.3-0.7,9.2-2.1c1.9-1.4,2.9-3.6,2.9-6.6s-1.1-5.2-3.2-6.5c-2.2-1.4-5.4-2-9.7-2h-9.1L361.2,242L361.2,242z M361.2,244.8
			v19.4h10.6c8.3,0,12.5-3.4,12.5-10.2c0-6.2-4.4-9.3-13.2-9.3L361.2,244.8L361.2,244.8z"/>
		<path class="st0" d="M407.9,246.6L421,222h3.4l-15,27.6V267h-3.2v-17.1l-15-27.8h3.6L407.9,246.6z"/>
		<path class="st0" d="M464.8,244.3h16.6v20.5c-4.3,1.8-9.2,2.8-14.7,2.8c-7.1,0-12.5-2-16.3-6s-5.7-9.7-5.7-17
			c0-4.6,0.9-8.6,2.8-12.2c1.9-3.5,4.6-6.3,8.1-8.2s7.5-2.9,12-2.9c4.9,0,9.3,0.9,13.2,2.7l-1.3,2.8c-3.9-1.8-7.9-2.7-12.1-2.7
			c-5.9,0-10.6,1.8-14.1,5.5s-5.2,8.6-5.2,14.8c0,6.8,1.7,11.9,5,15.3s8.2,5.1,14.6,5.1c4.1,0,7.7-0.6,10.6-1.8v-15.8h-13.4v-2.9
			H464.8z"/>
		<path class="st0" d="M517.3,267h-24.6v-45h24.6v2.9h-21.4v17h20.2v2.9h-20.2v19.3h21.4V267z"/>
		<path class="st0" d="M565.3,244.4c0,7.1-1.8,12.8-5.4,16.9c-3.6,4.2-8.5,6.2-14.8,6.2s-11.2-2.1-14.7-6.2c-3.6-4.2-5.4-9.8-5.4-17
			s1.8-12.8,5.4-16.9c3.6-4.1,8.5-6.2,14.8-6.2s11.2,2.1,14.7,6.2C563.5,231.6,565.3,237.3,565.3,244.4z M528.5,244.4
			c0,6.4,1.4,11.4,4.3,14.9c2.9,3.5,7,5.3,12.4,5.3s9.6-1.7,12.4-5.2c2.9-3.5,4.3-8.5,4.3-15s-1.4-11.4-4.3-14.9
			c-2.9-3.5-7-5.2-12.4-5.2s-9.5,1.7-12.4,5.2S528.5,238,528.5,244.4z"/>
		<path class="st0" d="M575.6,267v-45h3.1v45H575.6z"/>
		<path class="st0" d="M624.2,267H621l-26.6-39.9h-0.2c0.2,4.8,0.4,8.3,0.4,10.8V267h-3v-45h3.1l26.6,39.9h0.2
			c-0.2-3.7-0.3-7.2-0.3-10.5V222h3V267z"/>
		<path class="st0" d="M669.6,267h-3.2l-26.6-39.9h-0.2c0.2,4.8,0.4,8.3,0.4,10.8V267h-3v-45h3.1l26.6,39.9h0.2
			c-0.2-3.7-0.3-7.2-0.3-10.5V222h3V267z"/>
		<path class="st0" d="M720.2,244.4c0,7.1-1.8,12.8-5.4,16.9c-3.6,4.2-8.5,6.2-14.8,6.2s-11.2-2.1-14.7-6.2c-3.6-4.2-5.4-9.8-5.4-17
			s1.8-12.8,5.4-16.9c3.6-4.1,8.5-6.2,14.8-6.2s11.2,2.1,14.7,6.2S720.2,237.3,720.2,244.4z M683.4,244.4c0,6.4,1.4,11.4,4.3,14.9
			s7,5.3,12.4,5.3s9.6-1.7,12.4-5.2c2.9-3.5,4.3-8.5,4.3-15s-1.4-11.4-4.3-14.9c-2.9-3.5-7-5.2-12.4-5.2s-9.5,1.7-12.4,5.2
			S683.4,238,683.4,244.4z"/>
		<path class="st0" d="M757.1,222h3.4l-16.8,45h-2.8l-16.8-45h3.4l11.3,30.6c1.7,4.6,2.9,8.1,3.5,10.4c0.4-1.5,1.2-3.9,2.4-7.2
			L757.1,222z"/>
		<path class="st0" d="M788.5,251.1h-18.3L764,267h-3.5l18.1-45.2h2l17.7,45.2h-3.5L788.5,251.1z M771.4,248.3h16.1l-6.1-16.2
			c-0.5-1.3-1.1-3-1.8-5.3c-0.6,2-1.2,3.8-1.8,5.4L771.4,248.3z"/>
		<path class="st0" d="M816.4,267h-3.2v-42h-14.6v-3H831v3h-14.6V267z"/>
		<path class="st0" d="M837.7,267v-45h3.1v45H837.7z"/>
		<path class="st0" d="M891.4,244.4c0,7.1-1.8,12.8-5.4,16.9c-3.6,4.2-8.5,6.2-14.8,6.2s-11.2-2.1-14.7-6.2c-3.6-4.2-5.4-9.8-5.4-17
			s1.8-12.8,5.4-16.9c3.6-4.1,8.5-6.2,14.8-6.2s11.2,2.1,14.7,6.2S891.4,237.3,891.4,244.4z M854.6,244.4c0,6.4,1.4,11.4,4.3,14.9
			s7,5.3,12.4,5.3s9.6-1.7,12.4-5.2c2.9-3.5,4.3-8.5,4.3-15s-1.4-11.4-4.3-14.9c-2.9-3.5-7-5.2-12.4-5.2s-9.5,1.7-12.4,5.2
			S854.6,238,854.6,244.4z"/>
		<path class="st0" d="M934.4,267h-3.2l-26.6-39.9h-0.2c0.2,4.8,0.4,8.3,0.4,10.8V267h-3v-45h3.1l26.6,39.9h0.2
			c-0.2-3.7-0.3-7.2-0.3-10.5V222h3V267z"/>
		<path class="st0" d="M988.3,255.4c0,3.8-1.4,6.7-4.1,8.9s-6.4,3.3-11,3.3c-5.5,0-9.7-0.6-12.6-1.8v-3.1c3.2,1.4,7.4,2.1,12.4,2.1
			c3.7,0,6.6-0.8,8.8-2.5s3.2-3.9,3.2-6.7c0-1.7-0.4-3.1-1.1-4.2c-0.7-1.1-1.9-2.1-3.5-3.1s-4-1.9-7.1-3c-4.6-1.6-7.8-3.3-9.5-5.1
			c-1.8-1.8-2.6-4.3-2.6-7.3c0-3.4,1.3-6.1,4-8.2c2.6-2.1,6-3.2,10.2-3.2s8.2,0.8,11.9,2.4l-1.1,2.7c-3.7-1.6-7.3-2.3-10.7-2.3
			c-3.3,0-6,0.8-7.9,2.3s-3,3.6-3,6.3c0,1.7,0.3,3,0.9,4.1c0.6,1.1,1.6,2,3,2.9s3.7,1.9,7.1,3.1c3.5,1.2,6.1,2.4,7.9,3.5
			c1.8,1.1,3,2.4,3.9,3.9C987.9,251.6,988.3,253.3,988.3,255.4z"/>
		<path class="st0" d="M1022.4,267h-24.6v-45h24.6v2.9H1001v17h20.2v2.9H1001v19.3h21.4V267z"/>
		<path class="st0" d="M1035.7,247.4V267h-3.1v-45h10.7c5.6,0,9.7,1,12.4,3.1c2.7,2.1,4,5.2,4,9.3c0,3-0.8,5.6-2.4,7.6
			s-4,3.6-7.2,4.5l12.2,20.5h-3.8l-11.6-19.6H1035.7z M1035.7,244.7h8.6c3.8,0,6.7-0.8,8.8-2.5c2.1-1.7,3.1-4.2,3.1-7.5
			c0-3.4-1-5.9-3.1-7.5s-5.4-2.3-10-2.3h-7.4V244.7z"/>
		<path class="st0" d="M1096.6,222h3.4l-16.8,45h-2.8l-16.8-45h3.4l11.3,30.6c1.7,4.6,2.9,8.1,3.5,10.4c0.4-1.5,1.2-3.9,2.4-7.2
			L1096.6,222z"/>
		<path class="st0" d="M1106.4,267v-45h3.1v45H1106.4z"/>
		<path class="st0" d="M1141.4,224.2c-5.6,0-10.1,1.8-13.3,5.4s-4.9,8.6-4.9,14.8c0,6.4,1.5,11.4,4.6,15c3.1,3.5,7.4,5.3,13.1,5.3
			c3.8,0,7.2-0.5,10.4-1.4v2.8c-3,1-6.7,1.6-11.1,1.6c-6.3,0-11.3-2-14.9-6.1s-5.4-9.8-5.4-17.1c0-4.6,0.9-8.6,2.6-12.1
			s4.2-6.2,7.5-8.1c3.3-1.9,7-2.8,11.3-2.8c4.4,0,8.3,0.8,11.8,2.5l-1.3,2.8C1148.5,225,1145.1,224.2,1141.4,224.2z"/>
		<path class="st0" d="M1186,267h-24.6v-45h24.6v2.9h-21.4v17h20.2v2.9h-20.2v19.3h21.4V267z"/>
		<path class="st0" d="M1231.7,224.2c-5.6,0-10.1,1.8-13.3,5.4s-4.9,8.6-4.9,14.8c0,6.4,1.5,11.4,4.6,15c3.1,3.5,7.4,5.3,13.1,5.3
			c3.8,0,7.2-0.5,10.4-1.4v2.8c-3,1-6.7,1.6-11.1,1.6c-6.3,0-11.3-2-14.9-6.1s-5.4-9.8-5.4-17.1c0-4.6,0.9-8.6,2.6-12.1
			s4.2-6.2,7.5-8.1c3.3-1.9,7-2.8,11.3-2.8c4.4,0,8.3,0.8,11.8,2.5l-1.3,2.8C1238.8,225,1235.3,224.2,1231.7,224.2z"/>
		<path class="st0" d="M1276.2,267h-24.6v-45h24.6v2.9h-21.4v17h20.2v2.9h-20.2v19.3h21.4V267z"/>
		<path class="st0" d="M1319.1,267h-3.2l-26.6-39.9h-0.2c0.2,4.8,0.4,8.3,0.4,10.8V267h-3v-45h3.1l26.6,39.9h0.2
			c-0.2-3.7-0.3-7.2-0.3-10.5V222h3V267z"/>
		<path class="st0" d="M1343.5,267h-3.2v-42h-14.6v-3h32.4v3h-14.6L1343.5,267L1343.5,267z"/>
		<path class="st0" d="M1389.4,267h-24.6v-45h24.6v2.9H1368v17h20.2v2.9H1368v19.3h21.4V267z"/>
		<path class="st0" d="M1402.7,247.4V267h-3.1v-45h10.7c5.6,0,9.7,1,12.4,3.1c2.7,2.1,4,5.2,4,9.3c0,3-0.8,5.6-2.4,7.6
			s-4,3.6-7.2,4.5l12.2,20.5h-3.8l-11.6-19.6H1402.7z M1402.7,244.7h8.6c3.8,0,6.7-0.8,8.8-2.5c2.1-1.7,3.1-4.2,3.1-7.5
			c0-3.4-1-5.9-3.1-7.5s-5.4-2.3-10-2.3h-7.4V244.7z"/>
	</g>
	<g class="st1">
		<path class="st0" d="M387.3,137.7v-13h32.3v44.1c0,15.5-9.7,23.1-29.3,23.1h-6.8c-19.6,0-29.3-7.7-29.3-23.1V88.4
			c0-15.5,9.7-23.1,29.3-23.1h6.8c19.4,0,28.9,7.7,28.9,22.8v17.1h-17.6V87.7c0-6.4-3.8-9.4-12-9.4h-5.4c-8.1,0-12,3-12,9.4v81.9
			c0,6.4,3.8,9.4,12,9.4h5.9c8.1,0,12-3,12-9.4v-31.9L387.3,137.7L387.3,137.7z"/>
		<path class="st0" d="M483.7,66.3v13.2h-31.6v41.3h30.5v13h-30.5v44h32V191H434V66.3H483.7z"/>
		<path class="st0" d="M532.9,192h-6.8c-19.6,0-29.3-7.7-29.3-23.1V88.4c0-15.5,9.7-23.1,29.3-23.1h6.8c19.6,0,29.3,7.7,29.3,23.1
			v80.5C562.2,184.3,552.5,192,532.9,192z M532.2,78.2h-5.4c-8.1,0-12,3-12,9.4v81.9c0,6.4,3.8,9.4,12,9.4h5.4c8.1,0,12-3,12-9.4
			V87.7C544.2,81.2,540.3,78.2,532.2,78.2z"/>
		<path class="st0" d="M639.6,150.7v18.2c0,15.5-9.7,23.1-29.3,23.1h-5c-19.4,0-28.9-7.7-28.9-22.8V143H594v26.7
			c0,6.4,3.8,9.4,12,9.4h3.6c8.1,0,12-3,12-9.4V151c0-6.2-2.7-8.9-7.9-11.9l-22.1-12.6c-11.7-6.6-15.1-13-15.1-23.1v-15
			c0-15.5,9.7-23.1,29.3-23.1h4.5c19.4,0,28.9,7.7,28.9,22.8v22.4h-17.6v-23c0-6.4-3.8-9.4-12-9.4h-3.2c-8.1,0-12,3-12,9.4v15.7
			c0,6.2,2.9,8.9,8.1,11.9l21.9,12.5C636,134.1,639.6,140,639.6,150.7z"/>
		<path class="st0" d="M703.5,66.3v13.2h-31.6v41.3h30.5v13h-30.5v44h32V191h-50.1V66.3H703.5z"/>
		<path class="st0" d="M780.2,148.9v42h-18.1v-41.5c0-7.5-4.3-10.9-13.8-10.9H735v52.3h-18V66.3h33.6c19.6,0,29.3,7.7,29.3,23.1
			v23.1c0,11.2-5,16.7-14,19.6C775.9,134.3,780.2,139.3,780.2,148.9z M750,79.3h-14.9v46.6h13.5c9,0,13.3-3.4,13.3-10.5V88.7
			C761.9,82.3,758.1,79.3,750,79.3z"/>
		<path class="st0" d="M813.2,191.2l-25-125h18.3l16.7,95.2l17.2-95.2h17.8l-25,125H813.2z"/>
		<path class="st0" d="M887,190.9h-18.1V66.3H887V190.9z"/>
		<path class="st0" d="M966.6,143v25.8c0,15.5-9.7,23.1-29.3,23.1h-5.9c-19.6,0-29.3-7.7-29.3-23.1V88.4c0-15.5,9.7-23.1,29.3-23.1
			h5.9c19.4,0,28.9,7.5,28.9,22.8v22.4h-17.6V87.7c0-6.4-3.8-9.4-12-9.4h-4.5c-8.1,0-12,3-12,9.4v81.9c0,6.4,3.8,9.4,12,9.4h5
			c8.1,0,12-3,12-9.4V143H966.6z"/>
		<path class="st0" d="M1030.3,66.3v13.2h-31.6v41.3h30.5v13h-30.5v44h32V191h-50.1V66.3H1030.3z"/>
		<path class="st0" d="M1106.3,150.7v18.2c0,15.5-9.7,23.1-29.3,23.1h-5c-19.4,0-28.9-7.7-28.9-22.8V143h17.6v26.7
			c0,6.4,3.8,9.4,12,9.4h3.6c8.1,0,12-3,12-9.4V151c0-6.2-2.7-8.9-7.9-11.9l-22.1-12.6c-11.7-6.6-15.1-13-15.1-23.1v-15
			c0-15.5,9.7-23.1,29.3-23.1h4.5c19.4,0,28.9,7.7,28.9,22.8v22.4h-17.6v-23c0-6.4-3.8-9.4-12-9.4h-3.2c-8.1,0-12,3-12,9.4v15.7
			c0,6.2,2.9,8.9,8.1,11.9l21.9,12.5C1102.7,134.1,1106.3,140,1106.3,150.7z"/>
	</g>
</g>
</svg>
