<?xml version="1.0" encoding="UTF-8"?>
<svg id="Layer_1" data-name="Layer 1" xmlns="http://www.w3.org/2000/svg" viewBox="0 0 648.48 657.91">
  <defs>
    <style>
      .cls-1 {
        fill: #500000;
      }
    </style>
  </defs>
  <path class="cls-1" d="M517.52,334.87c180.78-8.59,171.84-340.26-16.24-327.07-177.65,12.45-168.19,335.83,16.24,327.07ZM591.14,266.41c-6.45.71-2.78-7.16-2.41-10.93,5.95-61.18,10.53-123.63-4.38-183.75,47.69,52.56,43.84,137.08,6.79,194.68ZM468.62,64.18c5.44-17.14,16.09-39.6,35.92-43.05,30.93-5.39,44.36,26.85,50.72,50.49,13.4,49.81,17.22,195.88-17.17,235.9-22.27,25.91-48.99,14.53-62.59-13.05-23.92-48.53-23.23-178.71-6.87-230.29ZM433.27,78.56c-7.56,63.71-7.56,124.13,0,187.85-6.06-3.62-11.3-15.13-14.36-21.52-23.79-49.62-24.35-124.01,14.36-166.33Z"/>
  <path class="cls-1" d="M350.11,263.91c37.02-94.86-66.89-145.72-147.66-126.47-9.24,2.2-17.47,9.23-26.6,11.11,4.97-10.77,6.51-56.1,15.93-59.3l145.44-.42L350.9,0c-55.06,26.22-122.13,8.23-181.51,14.04l-24,168.15c9.84,15.28,20.12-5.01,29.34-10.85,46.37-29.36,94.16-3.47,100.33,49.34,11.24,96.21-64.03,112.5-133.45,66.24l-.23,25.55c64.85,37.81,178.46,29.01,208.74-48.57ZM193.05,44.4h120.13l-3.43,17.08h-116.69v-17.08ZM296.02,283.48c12.76-33.03,8.63-72.73-1.69-105.89,45.37,14.45,42.65,88.67,1.69,105.89Z"/>
  <path class="cls-1" d="M3.05,44.69c14.77,13.9,23.01,13.71,25.43,38.82,4.54,47.02,4.9,155.14-.16,201.72-1.91,17.55-11.1,28.84-20.6,42.69h116.69c-2.58-10.96-17.16-28.24-17.16-39.28V10.24L.85,37.6c-.91,4.73-.7,4.36,2.2,7.09ZM76.34,47.83l3.42,252.76-24.01-3.43c-.59-8.76,3.29-16.77,3.59-25.46,1.93-55.22,3.13-123.16-.01-177.9-.69-12.01-4.17-25.46-7.04-37.2l24.05-8.77Z"/>
  <polygon class="cls-1" points="109.37 440.63 53.41 440.63 62.71 382.44 62.76 382.15 23.71 382.15 .05 530.25 0 530.54 39.05 530.54 48.57 470.94 104.53 470.94 95.05 530.25 95.01 530.54 134.05 530.54 157.72 382.44 157.76 382.15 118.72 382.15 109.37 440.63"/>
  <polygon class="cls-1" points="316.49 412.45 321.33 382.15 205.66 382.15 181.99 530.25 181.94 530.54 300.53 530.54 305.38 500.24 225.83 500.24 230.59 470.49 291.53 470.49 296.09 441.98 235.14 441.98 239.86 412.45 316.49 412.45"/>
  <path class="cls-1" d="M462.12,462.6c10.98-7.92,17.77-19.59,20.18-34.67,2.2-13.76-.99-24.96-9.47-33.27-8.47-8.3-21.69-12.51-39.3-12.51h-70.79l-23.67,148.1-.05.29h38.37l8.63-54h22.72l22.88,53.85.07.15h43.14l-29.04-59.82c6.09-1.96,11.55-4.67,16.33-8.12ZM434.89,444.27c-4.15,2.94-9.99,4.44-17.38,4.44h-27.04l5.9-36.92h27.12c7.37,0,12.72,1.49,15.92,4.42,3.17,2.92,4.28,7.59,3.27,13.89-1.03,6.47-3.66,11.24-7.79,14.18Z"/>
  <polygon class="cls-1" points="643.63 412.45 648.48 382.15 532.8 382.15 509.13 530.25 509.09 530.54 627.68 530.54 632.52 500.24 552.97 500.24 557.73 470.49 618.68 470.49 623.23 441.98 562.28 441.98 567 412.45 643.63 412.45"/>
  <polygon class="cls-1" points="2.27 656.73 23.01 656.73 23.01 626.84 55.02 626.84 55.02 610.69 23.01 610.69 23.01 594.72 63.14 594.72 63.14 578.57 2.27 578.57 2.27 656.73"/>
  <path class="cls-1" d="M135.09,582.19c-5.7-3.18-12.57-4.8-20.42-4.8s-14.74,1.61-20.48,4.8c-5.74,3.19-10.21,7.83-13.28,13.81-3.06,5.97-4.62,13.25-4.62,21.65s1.55,15.68,4.62,21.65c3.07,5.98,7.54,10.63,13.28,13.81,5.74,3.18,12.63,4.8,20.48,4.8s14.72-1.61,20.42-4.8c5.7-3.19,10.15-7.83,13.22-13.81,3.06-5.97,4.62-13.25,4.62-21.65s-1.55-15.68-4.62-21.65c-3.07-5.98-7.52-10.63-13.22-13.81ZM129.73,630.86c-1.31,3.54-3.24,6.24-5.73,8-2.49,1.77-5.63,2.66-9.33,2.66s-6.86-.9-9.39-2.66c-2.53-1.77-4.48-4.46-5.79-8-1.32-3.56-1.98-8-1.98-13.21s.67-9.75,1.98-13.27c1.31-3.5,3.26-6.18,5.79-7.94,2.53-1.77,5.69-2.66,9.39-2.66s6.83.89,9.33,2.66c2.5,1.77,4.43,4.44,5.73,7.95,1.32,3.53,1.98,7.99,1.98,13.27s-.67,9.65-1.98,13.21Z"/>
  <path class="cls-1" d="M231.32,621.02c5.14-4.19,7.74-10.35,7.74-18.32,0-7.26-2.62-13.16-7.8-17.55-5.16-4.37-12.48-6.59-21.75-6.59h-37.32v78.16h20.39v-28.36h11.73l16.51,28.24.07.12h22.96l-20.31-31.48c2.98-1.03,5.58-2.44,7.77-4.23ZM206.69,613.52h-14.11v-19.15h14.11c3.85,0,6.76.77,8.67,2.3,1.89,1.51,2.85,3.94,2.85,7.22s-.96,5.82-2.85,7.33c-1.91,1.53-4.82,2.3-8.67,2.3Z"/>
  <path class="cls-1" d="M333.29,628.37h17.77v.93c0,2.15-.39,4.03-1.15,5.6-.76,1.57-1.85,2.88-3.22,3.91-1.38,1.04-3.02,1.84-4.86,2.37-1.85.54-3.93.81-6.17.81-4.17,0-7.71-.88-10.52-2.61-2.8-1.73-4.95-4.44-6.37-8.06-1.43-3.64-2.16-8.24-2.16-13.68s.71-9.62,2.1-13.15c1.39-3.5,3.45-6.2,6.14-8,2.69-1.81,5.97-2.72,9.74-2.72s6.97.9,9.51,2.66c2.53,1.76,4.31,4.64,5.31,8.56l.07.28,18.97-7.52.24-.09-.1-.24c-2.99-6.92-7.26-12.05-12.69-15.24-5.43-3.19-12.63-4.8-21.43-4.8-7.93,0-14.92,1.63-20.77,4.86-5.86,3.23-10.43,7.89-13.58,13.87-3.14,5.97-4.74,13.25-4.74,21.65s1.51,15.92,4.5,21.88c2.99,5.98,7.24,10.57,12.63,13.64,5.39,3.07,11.62,4.62,18.54,4.62s12.38-1.46,16.67-4.34c2.4-1.61,4.39-3.61,5.98-6l.77,9.16h14.25v-42.39h-35.45v14.03Z"/>
  <path class="cls-1" d="M445.15,582.19c-5.7-3.18-12.57-4.8-20.42-4.8s-14.75,1.61-20.48,4.8c-5.74,3.19-10.21,7.83-13.28,13.81-3.06,5.97-4.62,13.25-4.62,21.65s1.55,15.68,4.62,21.65c3.07,5.98,7.54,10.63,13.28,13.81,5.74,3.18,12.63,4.8,20.48,4.8s14.72-1.61,20.42-4.8c5.71-3.19,10.15-7.83,13.22-13.81,3.06-5.97,4.62-13.25,4.62-21.65s-1.55-15.68-4.62-21.65c-3.07-5.98-7.52-10.63-13.22-13.81ZM439.8,630.86c-1.31,3.54-3.24,6.24-5.73,8-2.49,1.77-5.63,2.66-9.33,2.66s-6.86-.9-9.39-2.66c-2.53-1.77-4.48-4.46-5.79-8-1.32-3.56-1.99-8-1.99-13.21s.67-9.75,1.99-13.27c1.31-3.5,3.26-6.18,5.79-7.94,2.54-1.77,5.69-2.66,9.39-2.66s6.83.89,9.33,2.66c2.5,1.77,4.43,4.44,5.73,7.95,1.32,3.53,1.99,7.99,1.99,13.27s-.67,9.64-1.99,13.21Z"/>
  <path class="cls-1" d="M537.76,582.19c-5.7-3.18-12.57-4.8-20.42-4.8s-14.74,1.61-20.48,4.8c-5.74,3.19-10.21,7.83-13.28,13.81-3.06,5.97-4.62,13.25-4.62,21.65s1.55,15.68,4.62,21.65c3.07,5.98,7.54,10.63,13.28,13.81,5.74,3.18,12.63,4.8,20.48,4.8s14.72-1.61,20.42-4.8c5.71-3.19,10.15-7.83,13.22-13.81,3.06-5.97,4.62-13.25,4.62-21.65s-1.55-15.68-4.62-21.65c-3.07-5.98-7.52-10.63-13.22-13.81ZM500.18,617.65c0-5.28.67-9.75,1.99-13.27,1.31-3.5,3.26-6.18,5.79-7.94,2.54-1.77,5.69-2.66,9.39-2.66s6.83.89,9.33,2.66c2.5,1.77,4.43,4.44,5.74,7.95,1.32,3.53,1.98,7.99,1.98,13.27s-.67,9.65-1.98,13.21c-1.31,3.54-3.24,6.24-5.74,8-2.49,1.77-5.63,2.66-9.33,2.66s-6.86-.9-9.39-2.66c-2.54-1.77-4.48-4.46-5.79-8-1.32-3.56-1.99-8-1.99-13.21Z"/>
  <path class="cls-1" d="M608.07,578.57h-33.2v78.16h33.2c12.17,0,21.64-3.43,28.13-10.2,6.49-6.76,9.78-16.48,9.78-28.88s-3.29-22.12-9.78-28.89c-6.49-6.77-15.96-10.2-28.13-10.2ZM624.76,617.65c0,7.67-1.51,13.54-4.48,17.44-2.96,3.88-7.74,5.84-14.22,5.84h-10.46v-46.57h10.46c6.48,0,11.26,1.97,14.22,5.84,2.97,3.9,4.48,9.77,4.48,17.44Z"/>
</svg>