<?xml version="1.0" encoding="utf-8"?>
<!-- Generator: Adobe Illustrator 21.0.2, SVG Export Plug-In . SVG Version: 6.00 Build 0)  -->
<svg version="1.1" id="Layer_1" xmlns="http://www.w3.org/2000/svg" xmlns:xlink="http://www.w3.org/1999/xlink" x="0px" y="0px"
	 viewBox="0 0 29.9 27.1" style="enable-background:new 0 0 29.9 27.1;" xml:space="preserve">
<style type="text/css">
	.st0{fill:#FFFFFF;}
	.st1{fill:#B1B3B6;}
</style>
<title>Artboard 2</title>
<polygon class="st0" points="29.6,9.1 26.7,9.1 26.5,9.1 26.4,9.3 24.3,13.8 22.1,9.3 22,9.1 21.9,9.1 19,9.1 18.7,9.1 18.7,9.4 
	18.7,10.9 18.7,11.2 19,11.2 19.5,11.2 19.5,17.6 19,17.6 18.7,17.6 18.7,17.9 18.7,19.4 18.7,19.7 19,19.7 22.2,19.7 22.4,19.7 
	22.4,19.4 22.4,17.9 22.4,17.6 22.2,17.6 21.6,17.6 21.6,13.1 24,18 24.3,18.5 24.5,18 27,13.1 27,17.6 26.4,17.6 26.1,17.6 
	26.1,17.9 26.1,19.4 26.1,19.7 26.4,19.7 29.6,19.7 29.9,19.7 29.9,19.4 29.9,17.9 29.9,17.6 29.6,17.6 29.1,17.6 29.1,11.2 
	29.6,11.2 29.9,11.2 29.9,10.9 29.9,9.4 29.9,9.1 "/>
<path class="st0" d="M10.9,17.6H10l-2.8-6.5h0.6v-2H3.3v2.1H4l-2.8,6.5H0v2.1h4.1v-2.1H3.5L4,16.6h3.4l0.5,1.1H7.1v2.1h4.1v-2.1
	h-0.3V17.6z M6.4,14.5H4.8l0.8-1.8L6.4,14.5z"/>
<polygon class="st0" points="26.2,1.1 3.6,1.1 3.3,1.1 3.3,1.4 3.3,7.4 3.3,7.7 3.6,7.7 7.5,7.7 7.8,7.7 7.8,7.4 7.8,5.2 12.6,5.2 
	12.6,21.1 10.4,21.1 10.1,21.1 10.1,21.4 10.1,25.3 10.1,25.6 10.4,25.6 19.4,25.6 19.7,25.6 19.7,25.3 19.7,21.4 19.7,21.1 
	19.4,21.1 17.2,21.1 17.2,5.2 22,5.2 22,7.4 22,7.7 22.3,7.7 26.2,7.7 26.5,7.7 26.5,7.4 26.5,1.4 26.5,1.1 "/>
<polygon class="st1" points="17.9,23 18.8,22 18.8,24.7 17.9,23.8 "/>
<polygon class="st1" points="16.3,22 15.3,23 15.3,3.3 16.3,4.3 "/>
<polygon class="st1" points="5.2,3 4.2,2 25.1,2 23.9,3 "/>
<polygon class="st1" points="25.6,6.8 24.7,5.9 24.7,3.5 25.6,2.5 "/>
</svg>
