<?xml version="1.0" encoding="utf-8"?>
<!-- Generator: Adobe Illustrator 22.1.0, SVG Export Plug-In . SVG Version: 6.00 Build 0)  -->
<svg version="1.1" id="Layer_1" xmlns="http://www.w3.org/2000/svg" xmlns:xlink="http://www.w3.org/1999/xlink" x="0px" y="0px"
	 viewBox="0 0 226.4 53.2" style="enable-background:new 0 0 226.4 53.2;" xml:space="preserve">
<style type="text/css">
	.st0{fill:none;stroke:#FFFFFF;stroke-width:1.254;}
	.st1{fill:#FFFFFF;}
	.st2{fill:#B1B3B6;}
</style>
<line class="st0" x1="-74" y1="-391" x2="-74" y2="-337.8"/>
<path class="st1" d="M-103.9-344.2c0-0.9,0.7-1.6,1.6-1.6c0.9,0,1.6,0.7,1.6,1.6c0,0.9-0.7,1.6-1.6,1.6
	C-103.1-342.5-103.9-343.2-103.9-344.2 M-101-344.2c0-0.8-0.6-1.3-1.2-1.3c-0.7,0-1.2,0.6-1.2,1.3c0,0.8,0.6,1.3,1.2,1.3
	C-101.5-342.8-101-343.4-101-344.2 M-102.8-345.1h0.7c0.4,0,0.7,0.2,0.7,0.5c0,0.3-0.2,0.5-0.5,0.5l0.5,0.8h-0.4l-0.5-0.8h-0.2v0.8
	h-0.3V-345.1z M-102.5-344.3h0.3c0.2,0,0.4,0,0.4-0.3c0-0.2-0.2-0.3-0.4-0.3h-0.3V-344.3z"/>
<polygon class="st1" points="-88.2,-371.9 -93.4,-371.9 -93.8,-371.9 -93.9,-371.7 -97.7,-363.7 -101.6,-371.7 -101.7,-371.9 
	-102,-371.9 -107.1,-371.9 -107.6,-371.9 -107.6,-371.4 -107.6,-368.7 -107.6,-368.2 -107.1,-368.2 -106.3,-368.2 -106.3,-356.8 
	-107.2,-356.8 -107.7,-356.8 -107.7,-356.3 -107.7,-353.6 -107.7,-353.1 -107.2,-353.1 -101.5,-353.1 -101,-353.1 -101,-353.6 
	-101,-356.3 -101,-356.8 -101.5,-356.8 -102.5,-356.8 -102.5,-364.9 -98.2,-356.1 -97.7,-355.2 -97.3,-356.1 -92.9,-364.9 
	-92.9,-356.8 -93.9,-356.8 -94.4,-356.8 -94.4,-356.3 -94.4,-353.6 -94.4,-353.1 -93.9,-353.1 -88.2,-353.1 -87.7,-353.1 
	-87.7,-353.6 -87.7,-356.3 -87.7,-356.8 -88.2,-356.8 -89.1,-356.8 -89.1,-368.2 -88.2,-368.2 -87.7,-368.2 -87.7,-368.7 
	-87.7,-371.4 -87.7,-371.9 "/>
<polyline class="st1" points="-134,-358.7 -128,-358.7 -127.2,-356.8 -127.8,-356.8 -128.3,-356.8 -128.3,-356.3 -128.3,-353.6 
	-128.3,-353.1 -127.8,-353.1 -121.5,-353.1 -121,-353.1 -121,-353.6 -121,-356.3 -121,-356.8 -121.5,-356.8 -123.1,-356.8 
	-128,-368.3 -127.5,-368.3 -127.1,-368.3 -127.1,-368.8 -127.1,-371.5 -127.1,-372 -127.5,-372 -134.6,-372 "/>
<polygon class="st1" points="-129.6,-362.4 -132.4,-362.4 -131,-365.6 "/>
<polyline class="st1" points="-134.6,-374.4 -127.6,-374.4 -127,-374.4 -127,-375 -127,-379 -118.4,-379 -118.4,-350.6 
	-122.4,-350.6 -123,-350.6 -123,-350 -123,-343.1 -123,-342.5 -122.4,-342.5 -106.4,-342.5 -105.8,-342.5 -105.8,-343.1 
	-105.8,-350 -105.8,-350.6 -106.4,-350.6 -110.4,-350.6 -110.4,-379 -101.8,-379 -101.8,-375 -101.8,-374.5 -101.2,-374.5 
	-94.2,-374.5 -93.7,-374.5 -93.7,-375 -93.7,-385.7 -93.7,-386.3 -94.2,-386.3 -134.6,-386.3 "/>
<polygon class="st2" points="-109.2,-347.3 -107.5,-349 -107.5,-344.2 -109.2,-345.8 "/>
<polygon class="st2" points="-112,-348.9 -113.7,-347.2 -113.7,-382.3 -112,-380.6 "/>
<polyline class="st2" points="-133.5,-384.6 -96.2,-384.6 -98.4,-382.9 -131.7,-382.9 -133.5,-384.6 "/>
<polygon class="st2" points="-95.3,-376 -97,-377.7 -97,-382 -95.3,-383.7 "/>
<text transform="matrix(1 0 0 1 -57.3737 -376.1226)"><tspan x="0" y="0" class="st1" style="font-family:'OpenSans-Semibold'; font-size:11.5px;">TEXAS A&amp;M UNIVERSITY</tspan><tspan x="143.3" y="0" class="st1" style="font-family:'OpenSans-Semibold'; font-size:11.5px; letter-spacing:1;"> </tspan><tspan x="147.5" y="0" class="st1" style="font-family:'OpenSans-Semibold'; font-size:11.5px;"> </tspan></text>
<text transform="matrix(1 0 0 1 -57.3737 -349.072)" class="st1" style="font-family:'OpenSans'; font-size:23px;">College of Engineering</text>
<line class="st0" x1="67" y1="0" x2="67" y2="53.2"/>
<g>
	<path class="st1" d="M37.1,46.8c0-0.9,0.7-1.6,1.6-1.6c0.9,0,1.6,0.7,1.6,1.6c0,0.9-0.7,1.6-1.6,1.6C37.9,48.5,37.1,47.8,37.1,46.8
		 M40,46.8c0-0.8-0.6-1.3-1.2-1.3c-0.7,0-1.2,0.6-1.2,1.3c0,0.8,0.6,1.3,1.2,1.3C39.5,48.2,40,47.6,40,46.8 M38.2,45.9h0.7
		c0.4,0,0.7,0.2,0.7,0.5c0,0.3-0.2,0.5-0.5,0.5l0.5,0.8h-0.4L38.7,47h-0.2v0.8h-0.3V45.9z M38.5,46.7h0.3c0.2,0,0.4,0,0.4-0.3
		c0-0.2-0.2-0.3-0.4-0.3h-0.3V46.7z"/>
	<g>
		<polygon class="st1" points="52.8,19.1 47.6,19.1 47.2,19.1 47.1,19.3 43.3,27.3 39.4,19.3 39.3,19.1 39,19.1 33.9,19.1 
			33.4,19.1 33.4,19.6 33.4,22.3 33.4,22.8 33.9,22.8 34.7,22.8 34.7,34.2 33.8,34.2 33.3,34.2 33.3,34.7 33.3,37.4 33.3,37.9 
			33.8,37.9 39.5,37.9 40,37.9 40,37.4 40,34.7 40,34.2 39.5,34.2 38.5,34.2 38.5,26.1 42.8,34.9 43.3,35.8 43.7,34.9 48.1,26.1 
			48.1,34.2 47.1,34.2 46.6,34.2 46.6,34.7 46.6,37.4 46.6,37.9 47.1,37.9 52.8,37.9 53.3,37.9 53.3,37.4 53.3,34.7 53.3,34.2 
			52.8,34.2 51.9,34.2 51.9,22.8 52.8,22.8 53.3,22.8 53.3,22.3 53.3,19.6 53.3,19.1 		"/>
		<path class="st1" d="M19.5,34.2h-1.5l-5-11.5h0.5h0.5v-0.5v-2.7V19h-0.5h-7H5.9v0.5v2.7v0.5h0.5H7l-5,11.5H0.5H0v0.5v2.7v0.5h0.5
			h6.3h0.5v-0.5v-2.7v-0.5H6.8H6.2L7,32.3h6l0.8,1.9h-0.6h-0.5v0.5v2.7v0.5h0.5h6.3H20v-0.5v-2.7v-0.5H19.5z M11.4,28.6H8.6l1.4-3.2
			L11.4,28.6z"/>
		<polygon class="st1" points="46.8,4.7 6.4,4.7 5.9,4.7 5.9,5.3 5.9,16 5.9,16.6 6.4,16.6 13.4,16.6 14,16.6 14,16 14,12 22.6,12 
			22.6,40.4 18.6,40.4 18,40.4 18,41 18,47.9 18,48.5 18.6,48.5 34.6,48.5 35.2,48.5 35.2,47.9 35.2,41 35.2,40.4 34.6,40.4 
			30.6,40.4 30.6,12 39.2,12 39.2,16 39.2,16.5 39.8,16.5 46.8,16.5 47.3,16.5 47.3,16 47.3,5.3 47.3,4.7 		"/>
		<g>
			<polygon class="st2" points="31.8,43.7 33.5,42 33.5,46.8 31.8,45.2 			"/>
			<polygon class="st2" points="29,42.1 27.3,43.8 27.3,8.7 29,10.4 			"/>
			<polygon class="st2" points="9.3,8.1 7.5,6.4 44.8,6.4 42.6,8.1 			"/>
			<polygon class="st2" points="45.7,15 44,13.3 44,9 45.7,7.3 			"/>
		</g>
	</g>
</g>
<g>
	<path class="st1" d="M87.5,14.9h-1.3V7.8h-2.4V6.7H90v1.2h-2.4V14.9z"/>
	<path class="st1" d="M96.4,14.9h-4.6V6.7h4.6v1.1h-3.3V10h3.1v1.1h-3.1v2.6h3.3V14.9z"/>
	<path class="st1" d="M104.8,14.9h-1.5l-2.1-3.4l-2.1,3.4h-1.4l2.7-4.3l-2.5-4h1.5l1.9,3.1l1.9-3.1h1.4l-2.6,4L104.8,14.9z"/>
	<path class="st1" d="M111.6,14.9l-0.8-2.3h-3.1l-0.8,2.3h-1.4l3.1-8.2h1.5l3.1,8.2H111.6z M110.4,11.4l-0.8-2.2
		c-0.1-0.1-0.1-0.4-0.2-0.7c-0.1-0.3-0.2-0.6-0.2-0.7c-0.1,0.5-0.2,1-0.4,1.5l-0.7,2.1H110.4z"/>
	<path class="st1" d="M119.4,12.6c0,0.7-0.3,1.3-0.8,1.7c-0.5,0.4-1.3,0.6-2.2,0.6c-0.9,0-1.7-0.1-2.3-0.4v-1.3
		c0.4,0.2,0.8,0.3,1.2,0.4c0.4,0.1,0.8,0.2,1.2,0.2c0.5,0,0.9-0.1,1.2-0.3s0.4-0.5,0.4-0.8c0-0.3-0.1-0.6-0.3-0.8
		c-0.2-0.2-0.7-0.5-1.4-0.8c-0.7-0.3-1.3-0.6-1.6-1c-0.3-0.4-0.5-0.9-0.5-1.4c0-0.7,0.2-1.2,0.7-1.6c0.5-0.4,1.1-0.6,2-0.6
		c0.8,0,1.6,0.2,2.3,0.5l-0.4,1.1c-0.7-0.3-1.4-0.5-2-0.5c-0.4,0-0.8,0.1-1,0.3c-0.2,0.2-0.3,0.4-0.3,0.8c0,0.2,0,0.4,0.1,0.5
		s0.2,0.3,0.4,0.4s0.6,0.3,1.1,0.5c0.6,0.3,1,0.5,1.3,0.7c0.3,0.2,0.5,0.5,0.6,0.7S119.4,12.3,119.4,12.6z"/>
	<path class="st1" d="M130.2,14.9l-0.8-2.3h-3.1l-0.8,2.3h-1.4l3.1-8.2h1.5l3.1,8.2H130.2z M129.1,11.4l-0.8-2.2
		c-0.1-0.1-0.1-0.4-0.2-0.7c-0.1-0.3-0.2-0.6-0.2-0.7c-0.1,0.5-0.2,1-0.4,1.5l-0.7,2.1H129.1z"/>
	<path class="st1" d="M132.8,12.7c0-0.5,0.1-0.9,0.4-1.3s0.7-0.7,1.3-1.1c-0.4-0.4-0.6-0.8-0.7-1.1c-0.1-0.3-0.2-0.6-0.2-0.9
		c0-0.6,0.2-1,0.6-1.3c0.4-0.3,1-0.5,1.6-0.5c0.7,0,1.2,0.2,1.6,0.5c0.4,0.3,0.6,0.8,0.6,1.3c0,0.4-0.1,0.8-0.4,1.2
		c-0.3,0.3-0.7,0.7-1.3,1l1.9,1.9c0.3-0.4,0.6-1,0.8-1.8h1.4c-0.3,1.1-0.7,1.9-1.3,2.6l1.7,1.6H139l-0.8-0.8
		c-0.4,0.3-0.8,0.5-1.2,0.7s-0.9,0.2-1.4,0.2c-0.9,0-1.5-0.2-2-0.6S132.8,13.4,132.8,12.7z M135.6,13.9c0.7,0,1.3-0.2,1.8-0.6
		l-2.2-2.1c-0.4,0.3-0.7,0.5-0.8,0.7s-0.2,0.5-0.2,0.8c0,0.4,0.1,0.7,0.4,0.9C134.8,13.7,135.2,13.9,135.6,13.9z M134.8,8.4
		c0,0.2,0.1,0.5,0.2,0.7c0.1,0.2,0.3,0.4,0.5,0.7c0.4-0.2,0.7-0.5,0.9-0.7c0.2-0.2,0.3-0.4,0.3-0.7c0-0.2-0.1-0.4-0.2-0.6
		c-0.2-0.1-0.4-0.2-0.6-0.2c-0.3,0-0.5,0.1-0.7,0.2C134.9,8,134.8,8.2,134.8,8.4z"/>
	<path class="st1" d="M146,14.9L143.6,8h0c0.1,1,0.1,2,0.1,2.9v4h-1.2V6.7h1.9l2.3,6.5h0l2.3-6.5h1.9v8.2h-1.3v-4.1
		c0-0.4,0-0.9,0-1.6s0-1.1,0.1-1.2h0l-2.5,6.8H146z"/>
	<path class="st1" d="M163.6,6.7V12c0,0.6-0.1,1.1-0.4,1.6c-0.3,0.5-0.6,0.8-1.1,1S161,15,160.3,15c-1,0-1.8-0.3-2.4-0.8
		s-0.8-1.3-0.8-2.2V6.7h1.3v5.2c0,0.7,0.2,1.2,0.5,1.5c0.3,0.3,0.8,0.5,1.4,0.5c1.3,0,1.9-0.7,1.9-2V6.7H163.6z"/>
	<path class="st1" d="M173.1,14.9h-1.6l-4-6.5h0l0,0.4c0.1,0.7,0.1,1.3,0.1,1.9v4.3h-1.2V6.7h1.6l4,6.5h0c0-0.1,0-0.4,0-0.9
		c0-0.5,0-1,0-1.3V6.7h1.2V14.9z"/>
	<path class="st1" d="M175.9,14.9V6.7h1.3v8.2H175.9z"/>
	<path class="st1" d="M184.6,6.7h1.4l-2.9,8.2h-1.4l-2.9-8.2h1.4l1.7,5.1c0.1,0.2,0.2,0.6,0.3,0.9c0.1,0.4,0.2,0.7,0.2,0.9
		c0-0.3,0.1-0.6,0.2-1c0.1-0.4,0.2-0.7,0.2-0.8L184.6,6.7z"/>
	<path class="st1" d="M192.3,14.9h-4.6V6.7h4.6v1.1H189V10h3.1v1.1H189v2.6h3.3V14.9z"/>
	<path class="st1" d="M196,11.6v3.3h-1.3V6.7h2.3c1.1,0,1.8,0.2,2.4,0.6c0.5,0.4,0.8,1,0.8,1.8c0,1-0.5,1.8-1.6,2.2l2.3,3.6h-1.5
		l-2-3.3H196z M196,10.5h0.9c0.6,0,1.1-0.1,1.4-0.3s0.4-0.6,0.4-1c0-0.5-0.2-0.8-0.5-1c-0.3-0.2-0.8-0.3-1.4-0.3H196V10.5z"/>
	<path class="st1" d="M207.3,12.6c0,0.7-0.3,1.3-0.8,1.7c-0.5,0.4-1.3,0.6-2.2,0.6c-0.9,0-1.7-0.1-2.3-0.4v-1.3
		c0.4,0.2,0.8,0.3,1.2,0.4c0.4,0.1,0.8,0.2,1.2,0.2c0.5,0,0.9-0.1,1.2-0.3s0.4-0.5,0.4-0.8c0-0.3-0.1-0.6-0.3-0.8
		c-0.2-0.2-0.7-0.5-1.4-0.8c-0.7-0.3-1.3-0.6-1.6-1c-0.3-0.4-0.5-0.9-0.5-1.4c0-0.7,0.2-1.2,0.7-1.6c0.5-0.4,1.1-0.6,2-0.6
		c0.8,0,1.6,0.2,2.3,0.5l-0.4,1.1c-0.7-0.3-1.4-0.5-2-0.5c-0.4,0-0.8,0.1-1,0.3c-0.2,0.2-0.3,0.4-0.3,0.8c0,0.2,0,0.4,0.1,0.5
		s0.2,0.3,0.4,0.4s0.6,0.3,1.1,0.5c0.6,0.3,1,0.5,1.3,0.7c0.3,0.2,0.5,0.5,0.6,0.7S207.3,12.3,207.3,12.6z"/>
	<path class="st1" d="M209.5,14.9V6.7h1.3v8.2H209.5z"/>
	<path class="st1" d="M216.4,14.9h-1.3V7.8h-2.4V6.7h6.2v1.2h-2.4V14.9z"/>
	<path class="st1" d="M223,10.4l1.9-3.7h1.5l-2.7,5v3.2h-1.3v-3.1l-2.7-5.1h1.5L223,10.4z"/>
</g>
<g>
	<path class="st1" d="M96.2,41.9l-2-5.2h-6.6l-2,5.2h-1.9l6.5-16.5h1.6l6.5,16.5H96.2z M93.6,35l-1.9-5.1c-0.2-0.6-0.5-1.4-0.8-2.4
		c-0.2,0.7-0.4,1.5-0.7,2.4L88.3,35H93.6z"/>
	<path class="st1" d="M110.2,29.6v1.2l-2.3,0.3c0.2,0.3,0.4,0.6,0.6,1c0.2,0.4,0.2,0.9,0.2,1.4c0,1.2-0.4,2.2-1.2,2.9
		s-2,1.1-3.4,1.1c-0.4,0-0.7,0-1-0.1c-0.8,0.4-1.2,0.9-1.2,1.6c0,0.3,0.1,0.6,0.4,0.7c0.3,0.2,0.8,0.2,1.4,0.2h2.2
		c1.3,0,2.4,0.3,3.1,0.8c0.7,0.6,1.1,1.4,1.1,2.4c0,1.4-0.5,2.4-1.6,3.1c-1.1,0.7-2.7,1.1-4.8,1.1c-1.6,0-2.9-0.3-3.7-0.9
		s-1.3-1.4-1.3-2.5c0-0.7,0.2-1.4,0.7-1.9c0.5-0.5,1.2-0.9,2-1.1c-0.3-0.1-0.6-0.4-0.8-0.7c-0.2-0.3-0.3-0.6-0.3-1
		c0-0.4,0.1-0.8,0.4-1.2c0.2-0.3,0.6-0.7,1.1-1c-0.6-0.3-1.2-0.7-1.6-1.3s-0.6-1.3-0.6-2.2c0-1.3,0.4-2.4,1.2-3.1
		c0.8-0.7,2-1.1,3.4-1.1c0.6,0,1.2,0.1,1.7,0.2H110.2z M100.4,44c0,0.7,0.3,1.2,0.8,1.5c0.6,0.3,1.4,0.5,2.4,0.5
		c1.6,0,2.7-0.2,3.5-0.7c0.8-0.5,1.1-1.1,1.1-1.9c0-0.7-0.2-1.1-0.6-1.4c-0.4-0.3-1.2-0.4-2.3-0.4h-2.2c-0.8,0-1.5,0.2-2,0.6
		S100.4,43.2,100.4,44z M101.4,33.6c0,0.9,0.2,1.5,0.7,2c0.5,0.4,1.2,0.7,2,0.7c1.8,0,2.7-0.9,2.7-2.7c0-1.8-0.9-2.8-2.8-2.8
		c-0.9,0-1.5,0.2-2,0.7S101.4,32.6,101.4,33.6z"/>
	<path class="st1" d="M122.8,29.6v1.2l-2.3,0.3c0.2,0.3,0.4,0.6,0.6,1c0.2,0.4,0.2,0.9,0.2,1.4c0,1.2-0.4,2.2-1.2,2.9
		s-2,1.1-3.4,1.1c-0.4,0-0.7,0-1-0.1c-0.8,0.4-1.2,0.9-1.2,1.6c0,0.3,0.1,0.6,0.4,0.7c0.3,0.2,0.8,0.2,1.4,0.2h2.2
		c1.3,0,2.4,0.3,3.1,0.8c0.7,0.6,1.1,1.4,1.1,2.4c0,1.4-0.5,2.4-1.6,3.1c-1.1,0.7-2.7,1.1-4.8,1.1c-1.6,0-2.9-0.3-3.7-0.9
		s-1.3-1.4-1.3-2.5c0-0.7,0.2-1.4,0.7-1.9c0.5-0.5,1.2-0.9,2-1.1c-0.3-0.1-0.6-0.4-0.8-0.7c-0.2-0.3-0.3-0.6-0.3-1
		c0-0.4,0.1-0.8,0.4-1.2c0.2-0.3,0.6-0.7,1.1-1c-0.6-0.3-1.2-0.7-1.6-1.3s-0.6-1.3-0.6-2.2c0-1.3,0.4-2.4,1.2-3.1
		c0.8-0.7,2-1.1,3.4-1.1c0.6,0,1.2,0.1,1.7,0.2H122.8z M113,44c0,0.7,0.3,1.2,0.8,1.5c0.6,0.3,1.4,0.5,2.4,0.5
		c1.6,0,2.7-0.2,3.5-0.7c0.8-0.5,1.1-1.1,1.1-1.9c0-0.7-0.2-1.1-0.6-1.4c-0.4-0.3-1.2-0.4-2.3-0.4h-2.2c-0.8,0-1.5,0.2-2,0.6
		S113,43.2,113,44z M114,33.6c0,0.9,0.2,1.5,0.7,2c0.5,0.4,1.2,0.7,2,0.7c1.8,0,2.7-0.9,2.7-2.7c0-1.8-0.9-2.8-2.8-2.8
		c-0.9,0-1.5,0.2-2,0.7S114,32.6,114,33.6z"/>
	<path class="st1" d="M125.2,26.3c0-0.4,0.1-0.7,0.3-0.9s0.5-0.3,0.8-0.3c0.3,0,0.6,0.1,0.8,0.3c0.2,0.2,0.3,0.5,0.3,0.9
		c0,0.4-0.1,0.7-0.3,0.9c-0.2,0.2-0.5,0.3-0.8,0.3c-0.3,0-0.6-0.1-0.8-0.3S125.2,26.7,125.2,26.3z M127.2,41.9h-1.9V29.6h1.9V41.9z"
		/>
	<path class="st1" d="M136.4,42.2c-1.8,0-3.3-0.6-4.3-1.7s-1.6-2.6-1.6-4.6c0-2,0.5-3.6,1.5-4.7c1-1.2,2.3-1.8,3.9-1.8
		c1.5,0,2.8,0.5,3.7,1.5s1.3,2.4,1.3,4v1.2h-8.5c0,1.4,0.4,2.5,1.1,3.3c0.7,0.7,1.7,1.1,2.9,1.1c1.3,0,2.6-0.3,3.9-0.8v1.7
		c-0.7,0.3-1.3,0.5-1.9,0.6C137.9,42.1,137.2,42.2,136.4,42.2z M135.9,31c-1,0-1.8,0.3-2.4,1c-0.6,0.6-0.9,1.5-1,2.7h6.4
		c0-1.2-0.3-2.1-0.8-2.7C137.6,31.3,136.8,31,135.9,31z"/>
	<path class="st1" d="M157.6,41.9L152,27.4h-0.1c0.1,1.2,0.2,2.5,0.2,4.1v10.4h-1.8V25.5h2.9l5.2,13.5h0.1l5.2-13.5h2.9v16.4h-1.9
		V31.3c0-1.2,0.1-2.5,0.2-4h-0.1l-5.6,14.5H157.6z"/>
	<path class="st1" d="M178.4,41.9l-0.4-1.8h-0.1c-0.6,0.8-1.2,1.3-1.8,1.6s-1.4,0.4-2.3,0.4c-1.2,0-2.2-0.3-2.9-0.9s-1-1.5-1-2.7
		c0-2.5,2-3.8,6-3.9l2.1-0.1v-0.8c0-1-0.2-1.7-0.6-2.1c-0.4-0.5-1.1-0.7-2-0.7c-1,0-2.2,0.3-3.5,0.9l-0.6-1.4c0.6-0.3,1.3-0.6,2-0.8
		c0.7-0.2,1.4-0.3,2.2-0.3c1.5,0,2.6,0.3,3.3,1c0.7,0.7,1.1,1.7,1.1,3.1v8.4H178.4z M174.2,40.6c1.2,0,2.1-0.3,2.7-1
		c0.7-0.6,1-1.5,1-2.7v-1.1L176,36c-1.5,0.1-2.6,0.3-3.2,0.7s-1,1-1,1.9c0,0.7,0.2,1.2,0.6,1.5S173.4,40.6,174.2,40.6z"/>
	<path class="st1" d="M189.3,42.2c-0.8,0-1.5-0.1-2.2-0.4c-0.7-0.3-1.2-0.8-1.7-1.4h-0.1c0.1,0.7,0.1,1.4,0.1,2v5.1h-1.9V29.6h1.5
		l0.3,1.7h0.1c0.5-0.7,1-1.2,1.7-1.5c0.6-0.3,1.4-0.4,2.2-0.4c1.6,0,2.9,0.6,3.8,1.7c0.9,1.1,1.3,2.7,1.3,4.7c0,2-0.5,3.6-1.4,4.7
		S190.9,42.2,189.3,42.2z M189.1,31c-1.3,0-2.2,0.3-2.7,1c-0.6,0.7-0.8,1.8-0.9,3.3v0.4c0,1.7,0.3,3,0.9,3.7
		c0.6,0.7,1.5,1.1,2.8,1.1c1.1,0,1.9-0.4,2.5-1.3s0.9-2,0.9-3.6c0-1.5-0.3-2.7-0.9-3.5C191,31.4,190.2,31,189.1,31z"/>
</g>
</svg>
