<?xml version="1.0" encoding="utf-8"?>
<!-- Generator: Adobe Illustrator 21.0.2, SVG Export Plug-In . SVG Version: 6.00 Build 0)  -->
<svg version="1.1" id="Layer_1" xmlns="http://www.w3.org/2000/svg" xmlns:xlink="http://www.w3.org/1999/xlink" x="0px" y="0px"
	 viewBox="0 0 181.7 69" style="enable-background:new 0 0 181.7 69;" xml:space="preserve">
<style type="text/css">
	.st0{fill:#FFFFFF;}
	.st1{fill:#B1B3B6;}
</style>
<title>Artboard 2</title>
<g>
	<rect x="41.3" class="st0" width="0.7" height="27.1"/>
	<polygon class="st0" points="29.6,9.1 26.7,9.1 26.5,9.1 26.4,9.3 24.3,13.8 22.1,9.3 22,9.1 21.9,9.1 19,9.1 18.7,9.1 18.7,9.4 
		18.7,10.9 18.7,11.2 19,11.2 19.5,11.2 19.5,17.6 19,17.6 18.7,17.6 18.7,17.9 18.7,19.4 18.7,19.7 19,19.7 22.2,19.7 22.4,19.7 
		22.4,19.4 22.4,17.9 22.4,17.6 22.2,17.6 21.6,17.6 21.6,13.1 24,18 24.3,18.5 24.5,18 27,13.1 27,17.6 26.4,17.6 26.1,17.6 
		26.1,17.9 26.1,19.4 26.1,19.7 26.4,19.7 29.6,19.7 29.9,19.7 29.9,19.4 29.9,17.9 29.9,17.6 29.6,17.6 29.1,17.6 29.1,11.2 
		29.6,11.2 29.9,11.2 29.9,10.9 29.9,9.4 29.9,9.1 	"/>
	<path class="st0" d="M10.9,17.6H10l-2.8-6.5h0.6v-2H3.3v2.1H4l-2.8,6.5H0v2.1h4.1v-2.1H3.5L4,16.6h3.4l0.5,1.1H7.1v2.1h4.1v-2.1
		h-0.3V17.6z M6.4,14.5H4.8l0.8-1.8L6.4,14.5z"/>
	<polygon class="st0" points="26.2,1.1 3.6,1.1 3.3,1.1 3.3,1.4 3.3,7.4 3.3,7.7 3.6,7.7 7.5,7.7 7.8,7.7 7.8,7.4 7.8,5.2 12.6,5.2 
		12.6,21.1 10.4,21.1 10.1,21.1 10.1,21.4 10.1,25.3 10.1,25.6 10.4,25.6 19.4,25.6 19.7,25.6 19.7,25.3 19.7,21.4 19.7,21.1 
		19.4,21.1 17.2,21.1 17.2,5.2 22,5.2 22,7.4 22,7.7 22.3,7.7 26.2,7.7 26.5,7.7 26.5,7.4 26.5,1.4 26.5,1.1 	"/>
	<polygon class="st1" points="17.9,23 18.8,22 18.8,24.7 17.9,23.8 	"/>
	<polygon class="st1" points="16.3,22 15.3,23 15.3,3.3 16.3,4.3 	"/>
	<polygon class="st1" points="5.2,3 4.2,2 25.1,2 23.9,3 	"/>
	<polygon class="st1" points="25.6,6.8 24.7,5.9 24.7,3.5 25.6,2.5 	"/>
	<path class="st0" d="M67,5.1h-1c0-0.7-0.2-1.4-0.6-2c-0.2-0.4-0.6-0.6-1-0.8c-0.4-0.1-0.8-0.2-1.2-0.1h-1.8v10.5c0,0.3,0,0.7,0.1,1
		s0.3,0.4,0.6,0.5c0.4,0.1,0.9,0.2,1.4,0.2v1h-7.2v-1c0.6,0.1,1.2-0.1,1.7-0.4c0.3-0.4,0.4-0.8,0.4-1.3V2.3h-1.5c-0.5,0-1,0-1.5,0.1
		c-0.4,0.1-0.8,0.4-1,0.8c-0.4,0.6-0.5,1.3-0.5,2h-1V1.1H67V5.1z"/>
	<path class="st0" d="M81,10.7l-0.1,4.7H68.1v-1c0.6,0.1,1.2-0.1,1.7-0.4c0.3-0.4,0.4-0.8,0.4-1.3v-9c0-0.3,0-0.7-0.1-1
		s-0.3-0.4-0.6-0.5C69.1,2,68.6,1.9,68.1,2V1H80l0.2,3.7h-1C79,4,78.8,3.4,78.4,2.9c-0.2-0.3-0.6-0.6-1-0.7
		c-0.5-0.1-1.1-0.1-1.6-0.1h-2.6v5.1h1.4c0.4,0,0.8,0,1.1-0.1s0.5-0.3,0.6-0.6c0.1-0.4,0.2-0.8,0.2-1.2h1V10h-1
		c0-0.4-0.1-0.8-0.2-1.2c-0.1-0.2-0.3-0.4-0.5-0.5c-0.4-0.1-0.7-0.1-1.1-0.1h-1.4v3.5c0,0.6,0,1,0,1.2s0.1,0.5,0.2,0.7
		s0.4,0.3,0.6,0.4c0.4,0.1,0.8,0.1,1.2,0.1h1.2c0.5,0,1-0.1,1.5-0.2c0.5-0.2,1-0.5,1.3-1c0.5-0.7,0.8-1.5,0.9-2.4L81,10.7z"/>
	<path class="st0" d="M110.8,14.2c-0.3-0.2-0.5-0.4-0.6-0.6c-0.1-0.3-0.4-0.8-0.7-1.6l-4.4-11.1h-1L100,11.7
		c-0.2,0.6-0.5,1.2-0.8,1.8c-0.2,0.3-0.5,0.6-0.8,0.8c-0.1,0.1-0.3,0.1-0.4,0.2c-0.3,0-0.5-0.1-0.7-0.2c-0.4-0.2-0.7-0.4-1-0.8
		c-0.5-0.5-0.9-1-1.3-1.6l-3.5-4.5l2.6-2.9c0.6-0.6,1-1.1,1.3-1.4s0.6-0.5,1-0.7s0.9-0.3,1.4-0.3v-1h-5.9v1h0.5c0.3,0,0.7,0,1,0.1
		c0.2,0.1,0.3,0.3,0.3,0.5c0,0.1,0,0.3-0.1,0.4c-0.1,0.1-0.2,0.3-0.4,0.6l-2.3,2.6l-2-2.6c-0.3-0.3-0.5-0.7-0.6-1.1
		c0-0.2,0.1-0.4,0.3-0.5C88.9,2,89.2,2,89.5,2H90V1h-7.8v1c0.4,0,0.9,0,1.3,0.2c0.3,0.1,0.6,0.3,0.8,0.5c0.2,0.2,0.6,0.7,1.1,1.4
		l3.4,4.5l-2.5,3c-0.5,0.6-1.1,1.3-1.7,1.8c-0.3,0.3-0.8,0.6-1.2,0.8c-0.4,0.1-0.8,0.2-1.2,0.2v1h6.3v-1c-0.3,0-0.7,0-1,0
		c-0.2,0-0.4-0.1-0.6-0.2c-0.2-0.1-0.3-0.4-0.3-0.6c0.1-0.5,0.4-1,0.8-1.4l2.2-2.7l2.3,3c0.3,0.3,0.5,0.6,0.6,1
		c0,0.3-0.2,0.6-0.4,0.6c-0.3,0.1-0.7,0.1-1,0.1h-0.7v1h12.1v-1c-0.4,0-0.8-0.1-1.1-0.2c-0.3-0.1-0.5-0.5-0.5-0.8
		c0-0.4,0.1-0.8,0.3-1.1l0.3-0.9h4.6l0.7,1.7c0.1,0.2,0.1,0.4,0.1,0.6c0,0.3-0.1,0.5-0.4,0.6c-0.4,0.1-0.8,0.1-1.2,0.1v1h6.7v-1
		C111.5,14.4,111.2,14.3,110.8,14.2z M101.8,10.3l1.9-5l2,5H101.8z"/>
	<path class="st0" d="M122.7,11.1c0,0.5-0.1,0.9-0.3,1.4c-0.2,0.5-0.5,1-0.8,1.4c-0.4,0.5-0.9,0.8-1.4,1.1c-0.6,0.3-1.3,0.4-2,0.4
		c-0.8,0-1.5-0.2-2.2-0.5s-1.4-0.8-1.9-1.4c-0.2,0.4-0.3,0.9-0.4,1.4h-0.9v-4.8h0.9c0.2,0.7,0.4,1.3,0.7,1.9
		c0.3,0.6,0.8,1.1,1.3,1.5c0.6,0.4,1.3,0.7,2,0.7c0.6,0,1.2-0.2,1.7-0.6c0.6-0.6,0.8-1.5,0.4-2.3c-0.1-0.3-0.3-0.5-0.6-0.7
		c-0.3-0.2-0.6-0.5-1-0.6c-0.4-0.2-0.9-0.5-1.5-0.7c-0.7-0.3-1.4-0.7-2.1-1.2c-0.5-0.3-0.9-0.7-1.2-1.2c-0.3-0.3-0.4-0.7-0.6-1.1
		c-0.1-0.3-0.2-0.7-0.2-1c0-0.7,0.2-1.3,0.5-1.9c0.4-0.6,0.9-1.1,1.5-1.5c0.7-0.4,1.5-0.6,2.3-0.6c0.6,0,1.3,0.1,1.9,0.4
		s1.1,0.7,1.6,1.2c0.2-0.4,0.3-0.8,0.3-1.2h1v3.9h-1c-0.7-2.1-1.9-3.2-3.6-3.2c-0.5,0-1.1,0.1-1.5,0.5c-0.4,0.3-0.6,0.8-0.6,1.3
		c0,0.4,0.1,0.7,0.4,1s0.6,0.6,0.9,0.8c0.4,0.2,1,0.5,1.9,0.9c0.8,0.4,1.6,0.8,2.4,1.3c0.6,0.4,1.1,0.8,1.5,1.4
		C122.5,9.7,122.7,10.4,122.7,11.1z"/>
	<path class="st0" d="M144.5,15.4h-6.7v-1c0.4,0,0.8,0,1.2-0.1c0.3-0.1,0.4-0.3,0.4-0.6c0-0.2,0-0.4-0.1-0.6l-0.7-1.7H134l-0.4,0.9
		c-0.2,0.4-0.3,0.7-0.3,1.1c0,0.3,0.2,0.7,0.5,0.8c0.4,0.1,0.8,0.2,1.1,0.2v1H130v-1c0.3,0,0.7-0.1,1-0.2c0.3-0.2,0.6-0.5,0.8-0.8
		c0.3-0.6,0.6-1.1,0.8-1.8l4.1-10.8h1l4.4,11.1c0.3,0.8,0.6,1.3,0.7,1.6c0.1,0.3,0.4,0.5,0.6,0.6c0.3,0.2,0.7,0.2,1.1,0.2
		L144.5,15.4z M138.3,10.4l-2-5l-1.9,5H138.3z"/>
	<path class="st0" d="M175.7,15.4h-7.2v-1c0.5,0,0.9,0,1.4-0.2c0.3-0.1,0.5-0.3,0.6-0.5c0.1-0.3,0.1-0.7,0.1-1v-9l-5.4,11.6h-0.6
		l-5.5-11.6v8.5c0,0.3,0,0.7,0,1c0,0.2,0.1,0.4,0.2,0.6c0.2,0.2,0.4,0.3,0.6,0.4c0.4,0.1,0.8,0.1,1.2,0.1v1h-5.3v-1
		c0.4,0,0.8,0,1.2-0.1c0.2-0.1,0.5-0.2,0.6-0.4s0.2-0.4,0.2-0.6c0-0.3,0-0.7,0-1v-8c0-0.4,0-0.9-0.1-1.3c-0.1-0.3-0.3-0.5-0.5-0.6
		c-0.5-0.2-1-0.2-1.4-0.2v-1h5.2l4.8,10.1l4.8-10.1h5.1v1c-0.6-0.1-1.2,0.1-1.7,0.4c-0.3,0.4-0.4,0.8-0.4,1.3v9c0,0.3,0,0.6,0.1,0.9
		c0.1,0.3,0.3,0.5,0.6,0.5c0.4,0.1,0.9,0.2,1.4,0.2L175.7,15.4z"/>
	<path class="st0" d="M61.2,20.3c-0.2,0-0.4,0-0.6,0.1c-0.1,0.1-0.2,0.1-0.2,0.3c0,0.2,0,0.3,0,0.5v2.2c0,0.3,0,0.6,0,0.9
		c0,0.2-0.1,0.4-0.2,0.6c-0.2,0.4-0.5,0.7-0.9,0.8c-0.4,0.1-0.7,0.2-1.1,0.2c-0.3,0-0.6,0-0.8-0.1c-0.3-0.1-0.5-0.2-0.8-0.3
		c-0.2-0.2-0.4-0.4-0.6-0.6c-0.1-0.1-0.1-0.3-0.2-0.4c0-0.1-0.1-0.3-0.1-0.4s0-0.3,0-0.5V21c0-0.2,0-0.4-0.2-0.5s-0.5-0.2-0.7-0.2
		v-0.4h3v0.4c-0.2,0-0.4,0-0.6,0.1c-0.1,0-0.2,0.1-0.2,0.2s-0.1,0.3-0.1,0.4v2.5c0,0.2,0,0.4,0,0.7c0,0.2,0.1,0.3,0.1,0.5
		c0.1,0.2,0.3,0.4,0.5,0.6c0.2,0.1,0.5,0.2,0.8,0.2s0.6-0.1,0.8-0.2s0.4-0.3,0.6-0.6c0.1-0.2,0.1-0.4,0.2-0.6c0-0.2,0-0.5,0-0.7
		v-2.1c0-0.1,0-0.3,0-0.4s-0.1-0.2-0.2-0.2c-0.1-0.1-0.2-0.1-0.3-0.2c-0.2,0-0.3,0-0.5,0V20h2.2L61.2,20.3L61.2,20.3z"/>
	<path class="st0" d="M75.1,20.3c-0.2,0-0.4,0-0.6,0.1c-0.1,0-0.2,0.1-0.2,0.3c0,0.2,0,0.4,0,0.5v4.7h-0.5L70,21.3v3.3
		c0,0.2,0,0.4,0,0.5s0.1,0.2,0.2,0.3c0.2,0.1,0.4,0.1,0.6,0.1v0.4h-2.1v-0.4c0.2,0,0.4,0,0.6-0.1c0.1,0,0.2-0.1,0.2-0.3
		c0-0.2,0-0.4,0-0.5v-3c0-0.2,0-0.4,0-0.5s0-0.2-0.1-0.3c-0.1-0.1-0.1-0.2-0.2-0.2c-0.1-0.1-0.3-0.1-0.5-0.1v-0.4h1.7l3.4,4v-2.7
		c0-0.2,0-0.3,0-0.5c0-0.1-0.1-0.2-0.2-0.3c-0.2-0.1-0.4-0.1-0.6-0.1v-0.4h2.2L75.1,20.3z"/>
	<path class="st0" d="M85.6,25.8h-3v-0.4c0.2,0,0.4,0,0.6-0.1c0.1,0,0.2-0.1,0.3-0.2c0-0.1,0.1-0.3,0.1-0.4V21c0-0.2,0-0.4-0.2-0.5
		s-0.5-0.2-0.7-0.2v-0.4h3v0.4c-0.2,0-0.4,0-0.6,0.1c-0.1,0-0.2,0.1-0.3,0.2c0,0.1-0.1,0.3-0.1,0.4v3.7c0,0.1,0,0.3,0.1,0.4
		c0,0.1,0.1,0.2,0.2,0.2c0.2,0.1,0.4,0.1,0.6,0.1V25.8z"/>
	<path class="st0" d="M99.5,20.3c-0.1,0-0.2,0-0.4,0.1c-0.1,0-0.2,0.1-0.3,0.2c-0.1,0.1-0.1,0.2-0.2,0.3c-0.1,0.1-0.2,0.3-0.3,0.6
		L96.4,26H96l-2-4.7c-0.1-0.2-0.2-0.4-0.3-0.6c-0.1-0.1-0.2-0.2-0.3-0.2c-0.2-0.1-0.3-0.1-0.5-0.1V20h3v0.4c-0.2,0-0.4,0-0.6,0.1
		c-0.1,0-0.2,0.1-0.2,0.3c0,0.1,0,0.3,0.1,0.4l1.3,3.2l1.3-2.9c0.1-0.2,0.1-0.3,0.2-0.5c0-0.2-0.1-0.3-0.2-0.3
		c-0.2-0.1-0.4-0.1-0.6-0.1v-0.4h2.2L99.5,20.3z"/>
	<path class="st0" d="M112.2,23.9l-0.1,1.9h-5.3v-0.4c0.2,0,0.5,0,0.7-0.2c0.1-0.2,0.2-0.3,0.2-0.5V21c0-0.1,0-0.3,0-0.4
		s-0.1-0.2-0.2-0.2c-0.2-0.1-0.4-0.1-0.6-0.1v-0.4h4.9l0.1,1.5h-0.4c-0.1-0.3-0.2-0.5-0.3-0.7c-0.1-0.1-0.2-0.2-0.4-0.3
		c-0.2,0-0.4-0.1-0.7,0H109v2.1h0.6c0.2,0,0.3,0,0.5,0c0.1,0,0.2-0.1,0.2-0.2c0-0.2,0.1-0.3,0.1-0.5h0.5v2h-0.4c0-0.2,0-0.3-0.1-0.5
		c0-0.1-0.1-0.2-0.2-0.2s-0.3-0.1-0.5,0h-0.6v1.4c0,0.2,0,0.4,0,0.5s0,0.2,0.1,0.3c0.1,0.1,0.2,0.1,0.3,0.2c0.2,0,0.3,0,0.5,0h0.5
		c0.2,0,0.4,0,0.6-0.1s0.4-0.2,0.5-0.4c0.2-0.3,0.3-0.6,0.4-1L112.2,23.9z"/>
	<path class="st0" d="M126.3,25.8h-1.6c-0.1-0.1-0.2-0.2-0.2-0.3c-0.1-0.1-0.2-0.3-0.3-0.4l-0.3-0.4l-0.4-0.7
		c-0.1-0.2-0.3-0.4-0.4-0.6c-0.1-0.1-0.2-0.2-0.3-0.2c-0.2,0-0.4,0-0.6,0H122v1.5c0,0.1,0,0.3,0.1,0.4c0,0.1,0.1,0.2,0.2,0.2
		c0.2,0.1,0.4,0.1,0.6,0.1v0.4h-3v-0.4c0.2,0,0.5,0,0.7-0.2c0.1-0.2,0.2-0.3,0.1-0.5V21c0-0.2,0-0.4-0.1-0.5
		c-0.2-0.1-0.5-0.2-0.7-0.2v-0.4h1.4h1.2h0.8c0.2,0,0.4,0.1,0.6,0.1c0.2,0.1,0.4,0.1,0.6,0.3c0.2,0.1,0.4,0.3,0.5,0.5
		s0.2,0.5,0.2,0.7s0,0.4-0.1,0.6s-0.2,0.4-0.4,0.5c-0.2,0.2-0.5,0.3-0.8,0.3c0.2,0.1,0.4,0.3,0.5,0.5s0.4,0.5,0.7,1
		c0.1,0.2,0.3,0.4,0.4,0.6c0.1,0.1,0.2,0.2,0.3,0.3c0.1,0.1,0.2,0.1,0.4,0.1L126.3,25.8z M123.8,21.5c0-0.4-0.1-0.7-0.4-0.9
		c-0.3-0.2-0.7-0.2-1.1-0.2H122v2.4h0.3c0.4,0,0.8-0.1,1.1-0.2C123.7,22.4,123.8,22,123.8,21.5z"/>
	<path class="st0" d="M138.1,24.1c0,0.2,0,0.4-0.1,0.6s-0.2,0.4-0.4,0.6s-0.4,0.3-0.6,0.5c-0.3,0.1-0.5,0.2-0.8,0.2
		s-0.6-0.1-0.9-0.2c-0.3-0.1-0.6-0.3-0.8-0.6c-0.1,0.2-0.1,0.4-0.2,0.6h-0.4v-2h0.4c0.1,0.3,0.2,0.6,0.3,0.8
		c0.1,0.3,0.3,0.5,0.5,0.7s0.5,0.3,0.9,0.3c0.3,0,0.5-0.1,0.7-0.2c0.3-0.3,0.4-0.7,0.2-1c-0.1-0.1-0.1-0.2-0.2-0.3
		c-0.1-0.1-0.3-0.2-0.4-0.3l-0.6-0.3c-0.3-0.1-0.6-0.3-0.9-0.5c-0.2-0.1-0.4-0.3-0.5-0.5c-0.1-0.1-0.2-0.3-0.2-0.5
		c0-0.1-0.1-0.3-0.1-0.4c0-0.3,0.1-0.5,0.2-0.8c0.2-0.3,0.4-0.5,0.6-0.6c0.3-0.2,0.6-0.2,0.9-0.2c0.3,0,0.5,0.1,0.8,0.2
		c0.2,0.1,0.5,0.3,0.6,0.5c0.1-0.2,0.1-0.3,0.1-0.5h0.4v1.6h-0.4c-0.3-0.9-0.8-1.3-1.5-1.3c-0.2,0-0.5,0.1-0.6,0.2
		c-0.2,0.1-0.2,0.3-0.2,0.5s0,0.3,0.1,0.5c0.1,0.1,0.2,0.2,0.4,0.3c0.2,0.1,0.4,0.2,0.8,0.4c0.3,0.2,0.7,0.3,1,0.5
		c0.2,0.1,0.5,0.3,0.6,0.6C138,23.5,138.1,23.8,138.1,24.1z"/>
	<path class="st0" d="M148.8,25.8h-3v-0.4c0.2,0,0.4,0,0.6-0.1c0.1,0,0.2-0.1,0.3-0.2c0-0.1,0.1-0.3,0.1-0.4V21c0-0.2,0-0.4-0.2-0.5
		s-0.5-0.2-0.7-0.2v-0.4h3v0.4c-0.2,0-0.4,0-0.6,0.1c-0.1,0-0.2,0.1-0.3,0.2c0,0.1-0.1,0.3-0.1,0.4v3.7c0,0.1,0,0.3,0.1,0.4
		c0,0.1,0.1,0.2,0.2,0.2c0.2,0.1,0.4,0.1,0.6,0.1L148.8,25.8z"/>
	<path class="st0" d="M162.1,21.6h-0.4c0-0.3-0.1-0.6-0.2-0.8c-0.1-0.1-0.2-0.3-0.4-0.3s-0.3-0.1-0.5-0.1h-0.7v4.3
		c0,0.1,0,0.3,0.1,0.4c0,0.1,0.1,0.2,0.2,0.2c0.2,0.1,0.4,0.1,0.6,0.1v0.4h-3v-0.4c0.2,0,0.5,0,0.7-0.2c0.1-0.2,0.2-0.3,0.2-0.5
		v-4.3h-0.6c-0.2,0-0.4,0-0.6,0.1c-0.2,0.1-0.3,0.2-0.4,0.3c-0.1,0.2-0.2,0.5-0.2,0.8h-0.4v-1.7h5.8L162.1,21.6z"/>
	<path class="st0" d="M175.7,20.3c-0.1,0-0.3,0-0.4,0.1c-0.1,0.1-0.2,0.2-0.3,0.3c-0.1,0.1-0.3,0.4-0.5,0.7l-1.2,1.9v1.4
		c0,0.1,0,0.3,0.1,0.4c0,0.1,0.1,0.2,0.2,0.2c0.2,0.1,0.4,0.1,0.6,0.1v0.4h-3v-0.4c0.2,0,0.4,0,0.6-0.1c0.1,0,0.2-0.1,0.3-0.2
		c0-0.1,0.1-0.3,0.1-0.4v-1.3l-1.5-2.5v-0.1l0,0c-0.1-0.2-0.2-0.3-0.3-0.4s-0.3-0.1-0.4-0.1V20h2.8v0.4h-0.3c-0.1,0-0.1,0-0.2,0.1
		l-0.1,0.1c0,0.1,0,0.1,0.1,0.2c0.1,0.2,0.2,0.3,0.2,0.4l0.9,1.5l0.9-1.4c0.1-0.2,0.2-0.4,0.3-0.7c0-0.2-0.1-0.3-0.2-0.3
		c-0.2-0.1-0.3-0.1-0.5-0.1v-0.4h2.1L175.7,20.3z"/>
	<path class="st0" d="M155.7,11.8h-0.6l-0.1,0.1c-0.2,0.4-0.6,0.6-1,0.6c-0.3,0-0.6-0.1-0.9-0.3c-0.5-0.4-0.9-0.8-1.2-1.4
		c0.3-0.4,0.5-0.9,0.7-1.4c0.2-0.6,0.5-1.1,0.9-1.6c0.3-0.3,0.6-0.5,1-0.6h0.1h0.1V6.4h-4v0.9h0.2h0.1c0.9,0.1,1,0.5,1,0.8
		s-0.1,0.7-0.3,1c-0.1,0.3-0.3,0.7-0.5,1L149,6.8c1.5-0.8,2.2-1.6,2.2-2.5c0-0.6-0.3-1.2-0.8-1.5c-0.5-0.4-1.1-0.5-1.7-0.5
		c-0.7,0-1.3,0.2-1.8,0.7c-0.5,0.4-0.7,1.1-0.7,1.7c0.1,0.8,0.4,1.6,0.9,2.3c-0.7,0.5-1.4,1-2,1.7c-0.4,0.5-0.6,1.2-0.6,1.9
		c0,0.6,0.2,1.2,0.5,1.7c0.6,1,1.7,1.5,2.9,1.5c1.2-0.1,2.2-0.6,3-1.5c0.7,0.9,1.7,1.5,2.8,1.5c0.5,0,1-0.2,1.4-0.5s0.7-0.7,0.8-1.2
		V12l0.1-0.2H155.7z M148.5,6c-0.4-0.5-0.7-1.1-0.8-1.8c0-0.3,0.1-0.6,0.3-0.8c0.4-0.4,1.1-0.4,1.5,0l0,0c0.2,0.2,0.3,0.6,0.3,0.9
		C149.8,4.9,149.3,5.5,148.5,6L148.5,6z M147.6,7.8c0.7,1,1.6,2.3,2.6,3.8c-0.4,0.5-1.1,0.8-1.7,0.9c-0.6,0-1.2-0.3-1.6-0.8
		c-0.5-0.5-0.7-1.1-0.7-1.7c0-0.4,0.2-0.9,0.4-1.2C146.8,8.4,147.2,8,147.6,7.8L147.6,7.8z"/>
	<path class="st0" d="M180.3,23.1c0.8,0,1.4,0.7,1.4,1.4s-0.7,1.4-1.4,1.4c-0.8,0-1.4-0.7-1.4-1.4C178.8,23.7,179.4,23.1,180.3,23.1
		C180.2,23.1,180.2,23.1,180.3,23.1L180.3,23.1z M180.3,23.3c-0.7,0-1.2,0.5-1.3,1.1c0,0.7,0.5,1.2,1.1,1.3c0.7,0,1.2-0.5,1.3-1.1
		c0,0,0,0,0-0.1C181.5,23.8,181,23.3,180.3,23.3L180.3,23.3z M180,25.3h-0.3v-1.6c0.1,0,0.3,0,0.4,0c0.2,0,0.3,0,0.5,0.1
		s0.2,0.4,0,0.6c-0.1,0.1-0.1,0.1-0.2,0.1l0,0c0.1,0,0.2,0.2,0.3,0.4c0,0.1,0,0.3,0.1,0.4h-0.3c-0.1-0.1-0.1-0.3-0.1-0.4
		c0-0.2-0.1-0.3-0.3-0.3l0,0H180V25.3z M180,24.4h0.2c0.2,0,0.4-0.1,0.4-0.3s-0.1-0.3-0.4-0.3H180V24.4z"/>
</g>
<g>
	<path class="st0" d="M60.7,68.2h-1L59,64h-4.7l-0.7,4.2h-1.1l3.5-19.7h1.1L60.7,68.2z M54.5,63h4.3l-2.2-12.4L54.5,63z"/>
	<path class="st0" d="M66.4,59.2v-1h3.7v6.9c0,2.1-1.1,3.2-3.2,3.2H66c-2.2,0-3.2-1.1-3.2-3.2V51.6c0-2.1,1.1-3.2,3.2-3.2h0.9
		c2.1,0,3.2,1.1,3.2,3.2v3.1H69v-3.1c0-1.4-0.7-2.1-2.1-2.1h-0.8c-1.5,0-2.2,0.7-2.2,2.1v13.6c0,1.4,0.7,2.1,2.2,2.1h0.8
		c1.5,0,2.2-0.7,2.2-2.1v-6H66.4z"/>
	<path class="st0" d="M76.4,59.2v-1h3.7v6.9c0,2.1-1.1,3.2-3.2,3.2h-0.9c-2.2,0-3.2-1.1-3.2-3.2V51.6c0-2.1,1.1-3.2,3.2-3.2h0.9
		c2.1,0,3.2,1.1,3.2,3.2v3.1H79v-3.1c0-1.4-0.7-2.1-2.1-2.1h-0.8c-1.5,0-2.2,0.7-2.2,2.1v13.6c0,1.4,0.7,2.1,2.2,2.1h0.8
		c1.5,0,2.2-0.7,2.2-2.1v-6H76.4z"/>
	<path class="st0" d="M84.1,68.2H83V48.6h1.1V68.2z"/>
	<path class="st0" d="M92.8,48.6v1h-4.5v8.1h4.4v1h-4.4v8.4h4.6v1h-5.7V48.6H92.8z"/>
	<path class="st0" d="M99.8,51.1l0.1,13v4.1h-1V48.6h1.4l4,17.6l4-17.6h1.4v19.6h-1.1v-4.1l0.1-12.8l-3.9,16.9h-1L99.8,51.1z"/>
	<path class="st0" d="M120.1,68.2h-1l-0.7-4.2h-4.7l-0.7,4.2h-1.1l3.5-19.7h1.1L120.1,68.2z M113.9,63h4.3L116,50.5L113.9,63z"/>
	<path class="st0" d="M123.5,68.2h-1.1V48.6h3.2c2.2,0,3.4,1.1,3.4,3.2v5.1c0,2.3-1.2,3.4-3.5,3.4h-2.1V68.2z M125.7,49.6h-2.1v9.7
		h2c1.6,0,2.4-0.8,2.4-2.4v-5.2C128,50.3,127.1,49.6,125.7,49.6z"/>
</g>
</svg>
